<svg width="1274" height="306" viewBox="0 0 1274 306" fill="none" xmlns="http://www.w3.org/2000/svg">
<path d="M62.5743 198.134V195.634H60.0743V198.134H62.5743ZM77.5632 198.134H80.0632V195.634H77.5632V198.134ZM77.5632 246.677V249.177H80.0632V246.677H77.5632ZM75.5122 246.677L73.9277 248.611L74.6188 249.177H75.5122V246.677ZM54.8958 231.425L53.4773 233.484L53.4791 233.485L54.8958 231.425ZM19.5009 221.17L21.1888 223.014L21.1972 223.006L21.2056 222.998L19.5009 221.17ZM25.549 245.73V248.23H31.3758L27.3608 244.008L25.549 245.73ZM10.1394 245.73L8.04213 247.091L8.78123 248.23H10.1394V245.73ZM8.71933 208.127L10.5792 209.797L10.5861 209.789L8.71933 208.127ZM62.5743 221.801L61.0251 223.763L65.0743 226.96V221.801H62.5743ZM62.5743 200.634H77.5632V195.634H62.5743V200.634ZM75.0633 198.134V246.677H80.0632V198.134H75.0633ZM77.5632 244.177H75.5122V249.177H77.5632V244.177ZM77.0966 244.743C71.5903 240.232 64.6573 235.105 56.3125 229.365L53.4791 233.485C61.7536 239.176 68.5649 244.217 73.9277 248.611L77.0966 244.743ZM56.3143 229.367C47.9855 223.627 41.8709 219.86 38.107 218.242L36.1319 222.835C39.3803 224.232 45.1166 227.723 53.4773 233.484L56.3143 229.367ZM38.107 218.242C34.3377 216.621 30.6013 215.777 26.9164 215.777V220.777C29.8233 220.777 32.8888 221.441 36.1319 222.835L38.107 218.242ZM26.9164 215.777C23.4203 215.777 20.3361 216.973 17.7962 219.341L21.2056 222.998C22.8029 221.509 24.6624 220.777 26.9164 220.777V215.777ZM17.813 219.325C15.2496 221.672 13.8979 224.628 13.8979 228.059H18.8979C18.8979 226.091 19.6149 224.454 21.1888 223.014L17.813 219.325ZM13.8979 228.059C13.8979 234.372 17.4656 240.857 23.7373 247.453L27.3608 244.008C21.431 237.771 18.8979 232.475 18.8979 228.059H13.8979ZM25.549 243.23H10.1394V248.23H25.549V243.23ZM12.2366 244.37C7.75523 237.462 5.64453 231.075 5.64453 225.167H0.644531C0.644531 232.301 3.19703 239.623 8.04213 247.091L12.2366 244.37ZM5.64453 225.167C5.64453 218.372 7.38583 213.352 10.5792 209.797L6.85953 206.456C2.61993 211.176 0.644531 217.516 0.644531 225.167H5.64453ZM10.5861 209.789C13.7503 206.237 18.1242 204.368 24.0238 204.368V199.368C16.9506 199.368 11.1215 201.671 6.85263 206.464L10.5861 209.789ZM24.0238 204.368C27.8838 204.368 32.8974 205.831 39.1662 209.072C45.3997 212.295 52.6817 217.175 61.0251 223.763L64.1236 219.839C55.6373 213.138 48.0794 208.052 41.4627 204.631C34.8813 201.228 29.0345 199.368 24.0238 199.368V204.368ZM65.0743 221.801V198.134H60.0743V221.801H65.0743ZM13.1897 145.068L14.5511 147.165L14.5587 147.16L13.1897 145.068ZM68.5173 181.725L69.899 183.809L69.9066 183.803L68.5173 181.725ZM13.0845 181.62L11.6752 183.685L11.6776 183.686L13.0845 181.62ZM59.4188 156.849L60.2991 154.509L60.2916 154.506L59.4188 156.849ZM22.0253 156.849L22.9163 159.184L22.9309 159.179L22.9454 159.173L22.0253 156.849ZM21.9201 169.944L20.95 172.248L20.9621 172.253L21.9201 169.944ZM59.3662 169.944L60.2515 172.282L60.2652 172.277L60.2789 172.272L59.3662 169.944ZM5.64453 163.265C5.64453 156.354 8.54243 151.066 14.5511 147.165L11.8284 142.971C4.44363 147.765 0.644531 154.609 0.644531 163.265H5.64453ZM14.5587 147.16C20.7072 143.136 29.2691 140.994 40.4854 140.994V135.994C28.7011 135.994 19.0659 138.234 11.8207 142.976L14.5587 147.16ZM40.4854 140.994C52.192 140.994 60.9848 143.078 67.1268 146.969L69.8026 142.746C62.551 138.152 52.6909 135.994 40.4854 135.994V140.994ZM67.1268 146.969C73.1044 150.756 76.01 156.027 76.01 163.055H81.0102C81.0102 154.304 77.2182 147.444 69.8026 142.746L67.1268 146.969ZM76.01 163.055C76.01 170.212 73.0977 175.656 67.1281 179.647L69.9066 183.803C77.2602 178.888 81.0102 171.886 81.0102 163.055H76.01ZM67.1356 179.642C61.0347 183.687 52.3627 185.852 40.8535 185.852V190.852C52.9059 190.852 62.6764 188.598 69.899 183.809L67.1356 179.642ZM40.8535 185.852C29.2005 185.852 20.5098 183.651 14.4915 179.553L11.6776 183.686C18.8425 188.565 28.6645 190.852 40.8535 190.852V185.852ZM14.4939 179.555C8.51703 175.475 5.64453 170.114 5.64453 163.265H0.644531C0.644531 171.844 4.39873 178.718 11.6752 183.685L14.4939 179.555ZM67.2306 163.265C67.2306 161.248 66.6085 159.404 65.3284 157.858C64.0827 156.353 62.3355 155.275 60.2991 154.509L58.5384 159.189C60.0433 159.755 60.952 160.412 61.477 161.046C61.9675 161.639 62.2306 162.336 62.2306 163.265H67.2306ZM60.2916 154.506C56.2402 152.997 49.1169 152.35 39.3283 152.35V157.35C49.1744 157.35 55.4448 158.036 58.546 159.191L60.2916 154.506ZM39.3283 152.35C31.141 152.35 24.951 153.002 21.1052 154.524L22.9454 159.173C25.8315 158.031 31.1769 157.35 39.3283 157.35V152.35ZM21.1343 154.513C19.1408 155.273 17.4365 156.369 16.2301 157.912C14.9994 159.485 14.4238 161.349 14.4238 163.37H19.4238C19.4238 162.341 19.6985 161.593 20.1683 160.992C20.6624 160.361 21.5088 159.721 22.9163 159.184L21.1343 154.513ZM14.4238 163.37C14.4238 165.359 14.9912 167.194 16.1825 168.762C17.3505 170.298 19.0038 171.429 20.95 172.248L22.8903 167.64C21.5056 167.057 20.6607 166.391 20.1633 165.736C19.6891 165.112 19.4238 164.362 19.4238 163.37H14.4238ZM20.9621 172.253C22.9479 173.077 25.6983 173.62 29.0501 173.969C32.4451 174.323 36.632 174.495 41.5898 174.495V169.495C36.7303 169.495 32.7303 169.326 29.5687 168.996C26.3639 168.662 24.1882 168.179 22.8782 167.635L20.9621 172.253ZM41.5898 174.495C49.8675 174.495 56.1857 173.822 60.2515 172.282L58.4809 167.606C55.3239 168.802 49.7912 169.495 41.5898 169.495V174.495ZM60.2789 172.272C62.3381 171.464 64.0932 170.339 65.3387 168.788C66.6145 167.2 67.2306 165.318 67.2306 163.265H62.2306C62.2306 164.263 61.9527 165.019 61.4404 165.657C60.8978 166.333 59.9706 167.022 58.4535 167.617L60.2789 172.272ZM62.5743 79.2746V76.7746H60.0743V79.2746H62.5743ZM77.5632 79.2746H80.0632V76.7746H77.5632V79.2746ZM77.5632 127.817V130.317H80.0632V127.817H77.5632ZM75.5122 127.817L73.9277 129.751L74.6188 130.317H75.5122V127.817ZM54.8958 112.566L53.4773 114.624L53.4791 114.625L54.8958 112.566ZM19.5009 102.31L21.1888 104.154L21.1972 104.146L21.2056 104.139L19.5009 102.31ZM25.549 126.871V129.371H31.3758L27.3608 125.148L25.549 126.871ZM10.1394 126.871L8.04213 128.231L8.78123 129.371H10.1394V126.871ZM8.71933 89.2672L10.5792 90.9379L10.5861 90.9301L8.71933 89.2672ZM62.5743 102.941L61.0251 104.903L65.0743 108.1V102.941H62.5743ZM62.5743 81.7746H77.5632V76.7746H62.5743V81.7746ZM75.0633 79.2746V127.817H80.0632V79.2746H75.0633ZM77.5632 125.317H75.5122V130.317H77.5632V125.317ZM77.0966 125.884C71.5903 121.372 64.6573 116.245 56.3125 110.506L53.4791 114.625C61.7536 120.316 68.5649 125.357 73.9277 129.751L77.0966 125.884ZM56.3143 110.507C47.9855 104.768 41.8709 101.001 38.107 99.3823L36.1319 103.975C39.3803 105.372 45.1166 108.863 53.4773 114.624L56.3143 110.507ZM38.107 99.3823C34.3377 97.7613 30.6013 96.9173 26.9164 96.9173V101.917C29.8233 101.917 32.8888 102.581 36.1319 103.975L38.107 99.3823ZM26.9164 96.9173C23.4203 96.9173 20.3361 98.1143 17.7962 100.481L21.2056 104.139C22.8029 102.65 24.6624 101.917 26.9164 101.917V96.9173ZM17.813 100.466C15.2496 102.812 13.8979 105.768 13.8979 109.2H18.8979C18.8979 107.231 19.6149 105.595 21.1888 104.154L17.813 100.466ZM13.8979 109.2C13.8979 115.513 17.4656 121.997 23.7373 128.593L27.3608 125.148C21.431 118.912 18.8979 113.615 18.8979 109.2H13.8979ZM25.549 124.371H10.1394V129.371H25.549V124.371ZM12.2366 125.51C7.75523 118.603 5.64453 112.216 5.64453 106.307H0.644531C0.644531 113.441 3.19703 120.764 8.04213 128.231L12.2366 125.51ZM5.64453 106.307C5.64453 99.5123 7.38583 94.4929 10.5792 90.9379L6.85953 87.5966C2.61993 92.3162 0.644531 98.6573 0.644531 106.307H5.64453ZM10.5861 90.9301C13.7503 87.3779 18.1242 85.5087 24.0238 85.5087V80.5087C16.9506 80.5087 11.1215 82.8118 6.85263 87.6044L10.5861 90.9301ZM24.0238 85.5087C27.8838 85.5087 32.8974 86.9713 39.1662 90.2126C45.3997 93.4356 52.6817 98.3153 61.0251 104.903L64.1236 100.979C55.6373 94.2786 48.0794 89.1923 41.4627 85.7711C34.8813 82.3682 29.0345 80.5087 24.0238 80.5087V85.5087ZM65.0743 102.941V79.2746H60.0743V102.941H65.0743ZM45.9024 52.3471V54.8471H48.3044L48.4004 52.447L45.9024 52.3471ZM32.9646 52.3471H30.4646V54.8471H32.9646V52.3471ZM30.3876 45.0367L28.5519 46.7339L28.56 46.7426L28.5681 46.7512L30.3876 45.0367ZM19.2905 66.1264V68.6264H23.2966L21.5362 65.0278L19.2905 66.1264ZM6.35273 66.1264L4.06343 67.1311L4.71973 68.6264H6.35273V66.1264ZM8.19343 32.3619L10.1703 33.8923L10.1779 33.8823L8.19343 32.3619ZM38.1187 36.7271L35.9288 37.9331L38.5011 42.6037L40.4464 37.6391L38.1187 36.7271ZM72.6722 30.9419L74.6032 29.3541L74.5962 29.3456L72.6722 30.9419ZM74.3551 67.9672V70.4672H75.8958L76.5883 69.0909L74.3551 67.9672ZM60.1025 67.9672L58.0568 66.53L55.2909 70.4672H60.1025V67.9672ZM63.2581 44.1426L65.176 42.5391L65.1684 42.5299L65.1606 42.5208L63.2581 44.1426ZM49.0054 44.0375L50.8195 45.7577L50.8268 45.7499L50.8341 45.7421L49.0054 44.0375ZM45.9024 49.8471H32.9646V54.8471H45.9024V49.8471ZM35.4646 52.3471C35.4646 48.8058 34.4532 45.7059 32.207 43.3222L28.5681 46.7512C29.758 48.014 30.4646 49.7876 30.4646 52.3471H35.4646ZM32.2232 43.3396C30.0647 41.0048 27.3622 39.7493 24.2342 39.7493V44.7493C25.8746 44.7493 27.2744 45.3521 28.5519 46.7339L32.2232 43.3396ZM24.2342 39.7493C21.0018 39.7493 18.27 41.0896 16.2016 43.6076L20.0653 46.7813C21.2226 45.3724 22.558 44.7493 24.2342 44.7493V39.7493ZM16.2016 43.6076C14.1557 46.0984 13.2142 49.1814 13.2142 52.6627H18.2142C18.2142 50.1133 18.8855 48.2175 20.0653 46.7813L16.2016 43.6076ZM13.2142 52.6627C13.2142 57.248 14.5449 62.115 17.0448 67.225L21.5362 65.0278C19.2676 60.3906 18.2142 56.2818 18.2142 52.6627H13.2142ZM19.2905 63.6264H6.35273V68.6264H19.2905V63.6264ZM8.64193 65.1218C6.66553 60.6181 5.64453 55.3779 5.64453 49.3493H0.644531C0.644531 55.943 1.76233 61.8875 4.06343 67.1311L8.64193 65.1218ZM5.64453 49.3493C5.64453 42.7749 7.22573 37.6958 10.1703 33.8923L6.21663 30.8314C2.42943 35.7233 0.644531 41.9691 0.644531 49.3493H5.64453ZM10.1779 33.8823C13.0548 30.1272 16.6456 28.3404 21.1312 28.3404V23.3404C15.0282 23.3404 9.99383 25.9012 6.20893 30.8415L10.1779 33.8823ZM21.1312 28.3404C27.412 28.3404 32.3016 31.3468 35.9288 37.9331L40.3086 35.521C35.9417 27.5917 29.5063 23.3404 21.1312 23.3404V28.3404ZM40.4464 37.6391C41.9852 33.7118 44.1216 30.9373 46.7726 29.1281C49.4235 27.319 52.7844 26.3418 56.9995 26.3418V21.3418C51.9933 21.3418 47.5968 22.5122 43.9541 24.9982C40.3116 27.484 37.6181 31.1521 35.791 35.815L40.4464 37.6391ZM56.9995 26.3418C62.8286 26.3418 67.328 28.4157 70.7481 32.5381L74.5962 29.3456C70.1624 24.0013 64.2135 21.3418 56.9995 21.3418V26.3418ZM70.7411 32.5296C74.1673 36.6966 76.01 42.4251 76.01 49.9804H81.0102C81.0102 41.6177 78.9612 34.6538 74.6032 29.3541L70.7411 32.5296ZM76.01 49.9804C76.01 56.0977 74.7071 61.7057 72.1219 66.8434L76.5883 69.0909C79.5432 63.2192 81.0102 56.836 81.0102 49.9804H76.01ZM74.3551 65.4672H60.1025V70.4672H74.3551V65.4672ZM62.1481 69.4043C66.2187 63.6101 68.4403 57.9418 68.4403 52.4523H63.4403C63.4403 56.5698 61.77 61.2447 58.0568 66.53L62.1481 69.4043ZM68.4403 52.4523C68.4403 48.5988 67.4179 45.2205 65.176 42.5391L61.3401 45.7462C62.6745 47.3423 63.4403 49.5038 63.4403 52.4523H68.4403ZM65.1606 42.5208C62.85 39.8103 59.7985 38.4345 56.2106 38.4345V43.4345C58.3729 43.4345 60.0197 44.1975 61.3555 45.7645L65.1606 42.5208ZM56.2106 38.4345C52.6551 38.4345 49.5869 39.7474 47.1767 42.3328L50.8341 45.7421C52.2808 44.1902 54.0159 43.4345 56.2106 43.4345V38.4345ZM47.1914 42.3172C44.749 44.8928 43.5626 48.2938 43.4044 52.2472L48.4004 52.447C48.5228 49.3881 49.405 47.2493 50.8195 45.7577L47.1914 42.3172Z" fill="white"/>
<path d="M131.22 17.8047L131.01 249.835" stroke="white" stroke-width="2" stroke-miterlimit="10" stroke-linecap="round"/>
<path d="M257.538 53.4242C271.784 53.4242 285.267 58.0032 295.188 60.2927C296.714 60.5471 298.495 64.6173 298.495 67.4156C298.495 70.4683 300.276 84.4598 300.276 88.2756C300.276 96.9249 296.205 100.486 292.644 100.486C289.846 100.486 287.556 96.1617 286.793 94.1266C281.196 78.8632 267.968 65.1261 253.468 65.1261C242.784 65.1261 233.117 75.0473 233.117 84.7141C233.117 96.1617 241.512 104.557 256.012 111.934C288.065 128.215 306.89 142.461 306.89 166.628C306.89 187.488 292.644 199.19 283.486 204.786C273.565 210.637 256.775 214.962 245.073 214.962C223.45 214.962 210.985 210.383 205.134 208.093C203.353 207.33 199.283 205.041 198.011 202.242C193.686 193.084 192.923 179.856 192.923 173.751C192.923 168.917 195.467 162.812 199.537 162.812C202.336 162.812 205.643 165.865 209.204 172.479C218.617 189.777 232.608 202.242 248.38 202.242C257.538 202.242 268.986 195.883 268.986 184.181C268.986 176.549 269.495 168.154 243.547 154.163C210.222 136.355 197.248 122.618 197.248 98.96C197.248 82.4246 208.95 68.942 221.16 62.0734C230.827 56.7312 243.038 53.4242 257.538 53.4242ZM385.683 58.2576H411.885C435.035 58.2576 438.596 58.2576 444.447 56.9856C447.246 56.4769 449.026 58.0032 449.789 59.2751C451.316 61.819 453.351 81.1527 453.351 86.7493C453.351 93.3634 450.298 94.8897 448.772 94.8897C444.193 94.8897 441.649 92.0915 438.596 85.2229C433.763 74.7929 430.201 73.0122 428.166 73.0122C413.666 73.0122 399.675 73.7754 396.113 73.7754C394.841 73.7754 392.806 76.5737 392.806 77.5912C392.552 82.4246 392.043 100.741 392.043 118.294C392.043 122.364 392.806 124.908 394.078 125.162C396.876 125.925 405.78 125.671 410.359 125.417C421.807 124.653 425.368 120.583 428.166 114.223C429.693 110.408 432.237 107.355 435.035 107.355C438.596 107.355 440.886 110.916 440.377 118.294C440.123 121.346 439.868 127.197 439.868 133.048C439.868 138.899 440.377 144.75 440.631 148.566C441.14 155.435 437.324 158.487 434.78 158.487C432.491 158.487 429.184 155.689 426.894 150.601C424.35 144.75 423.587 142.969 418.245 142.461C407.815 141.698 406.289 141.189 394.841 141.189C393.569 141.189 392.043 144.75 392.043 151.11C392.043 157.978 392.806 172.733 393.06 178.33C393.569 185.707 394.587 188.505 395.35 189.523C397.894 193.339 410.105 196.646 422.315 196.646C426.386 196.646 433.508 195.883 439.359 192.576C444.193 190.032 446.737 186.979 452.333 179.347C456.404 173.751 459.202 167.645 463.272 167.645C468.106 167.645 469.632 175.023 468.614 180.365C467.088 187.742 460.983 204.786 459.965 207.076C459.202 208.856 453.86 211.655 452.333 211.655C449.026 211.655 438.851 210.383 392.552 210.383C376.525 210.383 344.472 211.4 333.533 211.4C328.191 211.4 324.375 209.365 324.375 207.33C324.375 204.277 326.41 200.716 331.752 199.19C349.305 194.356 349.814 188.505 350.323 183.926C351.341 171.716 351.595 166.373 351.595 127.197C351.595 88.0212 351.086 86.4949 350.323 81.9159C349.051 74.2842 345.744 71.4859 335.568 68.942C328.954 67.4156 327.937 63.8542 327.937 62.0734C327.937 58.7664 333.024 56.9856 336.332 56.9856C340.656 56.9856 368.893 58.2576 385.683 58.2576ZM630.329 98.1968C630.329 107.864 625.495 118.802 618.881 124.399C615.065 127.706 611.504 128.469 606.162 131.522C604.89 132.285 606.162 137.118 606.925 138.645C612.522 149.838 623.969 168.663 633.636 180.874C642.54 192.067 650.426 196.391 658.312 199.444C660.856 200.462 664.163 202.751 664.163 205.041C664.163 211.655 656.022 213.69 649.154 213.69C628.803 213.69 609.214 211.655 591.407 188.505C582.249 176.549 575.381 163.829 568.258 152.382C564.187 145.768 560.626 144.496 556.556 144.496C554.775 144.496 554.521 147.548 554.521 148.312C554.521 168.663 554.521 174.768 555.284 183.672C556.047 192.83 558.591 193.084 568.766 197.918C573.345 200.207 576.398 203.006 576.398 205.041C576.398 207.839 571.056 211.4 566.731 211.4C560.372 211.4 540.784 210.383 531.88 210.383C523.994 210.383 512.037 211.4 502.625 211.4C496.52 211.4 492.958 208.348 492.958 205.804C492.958 202.242 496.52 199.698 501.353 198.426C511.783 195.374 514.327 193.339 514.836 180.619C515.09 171.461 515.09 166.882 515.09 121.092C515.09 89.8019 514.327 88.2756 513.818 82.9334C513.309 77.8456 511.02 72.7578 501.353 70.9771C496.52 69.9595 493.467 66.1437 493.467 64.363C493.467 60.0383 498.555 57.7488 504.66 57.7488C517.634 57.7488 521.959 58.2576 525.266 58.2576C542.056 58.2576 556.047 56.7312 573.854 56.7312C596.241 56.7312 607.943 61.5647 614.048 66.1437C624.987 74.5385 630.329 84.7141 630.329 98.1968ZM591.153 102.521C591.153 86.4949 580.214 70.7227 561.898 70.7227C560.88 70.7227 557.065 71.7403 555.538 72.7578C554.775 73.2666 554.012 74.5385 554.012 76.8281C554.012 83.951 554.521 107.609 554.521 124.653C554.521 125.671 555.538 128.724 556.556 129.232C560.117 130.759 563.424 131.522 567.749 131.522C573.345 131.522 582.504 125.671 584.03 124.653C585.556 123.636 591.153 114.732 591.153 102.521ZM649.957 62.8366C649.957 60.2927 654.281 56.7312 660.132 56.7312C668.527 56.7312 684.808 58.2576 694.221 58.2576C703.379 58.2576 714.826 58.0032 721.695 58.0032C727.546 58.0032 732.125 61.0559 732.125 65.1261C732.125 67.9244 727.291 70.2139 723.221 71.9946C718.388 74.0298 717.879 76.8281 719.66 82.9334C722.203 92.0915 746.879 150.092 749.932 154.163C750.949 155.435 752.476 156.198 753.493 154.417C763.923 131.268 775.625 102.776 781.222 86.2405C784.02 77.8456 783.257 75.0473 774.099 71.7403C769.266 69.9595 765.195 67.4156 765.195 63.8542C765.195 60.5471 769.52 58.0032 775.625 58.0032C781.222 58.0032 788.599 58.2576 793.941 58.2576C803.608 58.2576 811.24 56.9856 819.635 56.9856C825.486 56.9856 829.81 59.7839 829.81 62.5822C829.81 66.6525 826.503 68.942 820.907 70.4683C807.17 74.5385 803.354 81.6615 797.757 92.0915C790.126 106.337 769.774 150.856 760.362 175.786C755.02 189.777 750.441 201.988 748.914 205.295C747.642 208.348 739.502 215.725 736.449 215.725C731.616 215.725 729.072 213.181 727.291 207.839C726.019 204.023 720.931 191.049 716.098 178.33C711.01 164.847 686.589 108.372 674.632 83.1878C671.58 76.5737 668.527 74.2842 658.606 70.2139C654.027 68.4332 649.957 65.8893 649.957 62.8366ZM862.859 154.671V95.9073C862.859 74.5385 861.842 71.7403 848.105 68.6876C843.78 67.67 841.236 64.6173 841.236 62.3278C841.236 58.512 847.341 57.24 849.885 57.24C854.719 57.24 870.745 58.2576 881.938 58.2576C897.202 58.2576 909.667 57.4944 917.044 57.4944C920.86 57.4944 924.93 59.5295 924.93 62.8366C924.93 65.8893 920.606 67.9244 918.571 68.4332C906.106 71.2315 905.342 74.5385 904.325 87.7668C903.562 98.7056 903.307 120.838 903.307 138.136C903.307 165.865 903.816 175.786 903.816 179.093C904.325 191.049 905.597 196.137 918.316 199.19C923.15 200.462 926.457 203.006 926.457 206.567C926.457 209.62 920.86 211.146 917.807 211.146C915.264 211.146 890.588 210.383 881.938 210.383C873.035 210.383 854.464 211.4 849.885 211.4C846.578 211.4 841.236 210.637 841.236 206.567C841.236 203.769 845.306 200.462 848.868 199.444C859.043 196.137 860.57 193.084 861.842 185.453C862.605 180.11 862.859 175.531 862.859 154.671ZM1043.37 53.1698C1055.07 53.1698 1066.77 55.7137 1073.64 57.4944C1080 59.2751 1089.16 62.0734 1091.19 62.0734C1092.47 62.0734 1095.52 65.3805 1095.52 66.9069C1095.52 76.0649 1098.06 89.0388 1098.06 95.3985C1098.06 102.521 1093.23 106.592 1089.92 106.592C1087.89 106.592 1086.62 104.557 1084.58 98.96C1080.76 88.53 1079.24 82.9334 1069.83 76.0649C1061.94 70.2139 1053.04 65.8893 1042.1 65.8893C1031.16 65.8893 1017.17 72.249 1008.77 82.4246C997.833 95.3985 992.745 114.732 992.745 129.996C992.745 149.329 999.105 166.628 1006.48 177.058C1015.64 190.032 1032.43 199.444 1047.69 199.444C1054.05 199.444 1065.5 195.374 1070.59 192.576C1072.62 191.304 1077.2 186.47 1083.56 176.295C1088.4 168.663 1091.45 165.61 1093.99 165.61C1098.83 165.61 1099.33 170.444 1099.08 175.786C1099.08 178.075 1094.25 195.119 1094.25 199.953C1094.25 200.716 1092.21 204.277 1091.45 204.786C1082.54 209.111 1059.9 214.962 1042.35 214.962C1014.11 214.962 984.096 206.567 966.034 186.725C954.841 174.514 946.955 157.724 946.955 135.083C946.955 107.864 959.166 84.9685 981.552 69.4507C993 61.5647 1016.91 53.1698 1043.37 53.1698ZM1179.91 58.2576H1206.11C1229.26 58.2576 1232.82 58.2576 1238.67 56.9856C1241.47 56.4769 1243.25 58.0032 1244.01 59.2751C1245.54 61.819 1247.57 81.1527 1247.57 86.7493C1247.57 93.3634 1244.52 94.8897 1243 94.8897C1238.42 94.8897 1235.87 92.0915 1232.82 85.2229C1227.99 74.7929 1224.42 73.0122 1222.39 73.0122C1207.89 73.0122 1193.9 73.7754 1190.34 73.7754C1189.06 73.7754 1187.03 76.5737 1187.03 77.5912C1186.78 82.4246 1186.27 100.741 1186.27 118.294C1186.27 122.364 1187.03 124.908 1188.3 125.162C1191.1 125.925 1200 125.671 1204.58 125.417C1216.03 124.653 1219.59 120.583 1222.39 114.223C1223.92 110.408 1226.46 107.355 1229.26 107.355C1232.82 107.355 1235.11 110.916 1234.6 118.294C1234.35 121.346 1234.09 127.197 1234.09 133.048C1234.09 138.899 1234.6 144.75 1234.85 148.566C1235.36 155.435 1231.55 158.487 1229 158.487C1226.71 158.487 1223.41 155.689 1221.12 150.601C1218.57 144.75 1217.81 142.969 1212.47 142.461C1202.04 141.698 1200.51 141.189 1189.06 141.189C1187.79 141.189 1186.27 144.75 1186.27 151.11C1186.27 157.978 1187.03 172.733 1187.28 178.33C1187.79 185.707 1188.81 188.505 1189.57 189.523C1192.12 193.339 1204.33 196.646 1216.54 196.646C1220.61 196.646 1227.73 195.883 1233.58 192.576C1238.42 190.032 1240.96 186.979 1246.56 179.347C1250.63 173.751 1253.43 167.645 1257.5 167.645C1262.33 167.645 1263.86 175.023 1262.84 180.365C1261.31 187.742 1255.21 204.786 1254.19 207.076C1253.43 208.856 1248.08 211.655 1246.56 211.655C1243.25 211.655 1233.07 210.383 1186.78 210.383C1170.75 210.383 1138.7 211.4 1127.76 211.4C1122.41 211.4 1118.6 209.365 1118.6 207.33C1118.6 204.277 1120.63 200.716 1125.98 199.19C1143.53 194.356 1144.04 188.505 1144.55 183.926C1145.56 171.716 1145.82 166.373 1145.82 127.197C1145.82 88.0212 1145.31 86.4949 1144.55 81.9159C1143.27 74.2842 1139.97 71.4859 1129.79 68.942C1123.18 67.4156 1122.16 63.8542 1122.16 62.0734C1122.16 58.7664 1127.25 56.9856 1130.55 56.9856C1134.88 56.9856 1163.12 58.2576 1179.91 58.2576Z" fill="white"/>
</svg>
