<svg width="944" height="255" viewBox="0 0 944 255" fill="none" xmlns="http://www.w3.org/2000/svg">
<path d="M200.028 27.4127H231.984C237.832 27.4127 240.442 26.6817 240.86 26.1595C242.113 24.5931 243.262 23.6532 243.993 23.6532C244.62 23.6532 247.335 25.3241 247.335 26.995C247.335 27.726 246.082 34.3051 246.082 41.3019C246.082 43.3905 244.515 45.6879 242.531 45.6879C241.069 45.6879 240.233 43.0772 240.025 42.1373C238.458 35.2449 236.683 35.0361 232.923 34.6183C231.357 34.4095 231.044 34.0962 222.167 34.0962C221.645 34.0962 221.332 34.9316 221.227 35.9759C221.123 37.438 220.496 51.536 220.496 58.1151C220.496 64.4853 220.392 71.3777 220.705 75.1372C221.332 82.7606 223.107 83.0739 227.389 84.6403C229.268 85.3713 231.044 86.3112 231.044 87.5644C231.044 89.8618 228.537 90.384 226.449 90.384C225.404 90.384 213.917 89.8618 207.651 89.8618C204.623 89.8618 198.984 90.1751 196.164 90.1751C193.971 90.1751 191.882 89.2352 191.882 87.3555C191.882 86.5201 192.927 85.058 195.329 84.4315C201.803 82.6561 203.579 81.2986 203.579 75.5549C203.579 73.3619 203.787 59.4727 203.787 52.6847C203.787 46.2101 203.892 39.3177 203.892 36.0804C203.892 35.2449 202.848 34.0962 202.534 34.0962C199.924 34.0962 196.06 34.0962 193.344 34.2006C190.42 34.3051 187.601 34.3051 184.781 42.1373C184.155 43.9126 182.901 45.2702 181.753 45.2702C180.395 45.2702 178.829 43.3905 178.829 40.8841C178.829 37.6468 179.977 32.9475 179.977 27.2038C179.977 25.4285 181.544 23.8621 182.797 23.8621C183.11 23.8621 184.363 24.4886 185.094 25.0108C186.87 26.4728 188.436 27.0994 191.465 27.2038C195.746 27.4127 196.686 27.4127 200.028 27.4127ZM281.022 51.6404C281.022 53.1025 281.858 54.2512 282.589 54.2512C300.864 54.2512 304.415 54.1468 306.399 54.2512C306.817 54.2512 307.652 52.6847 307.652 52.267C307.652 45.1658 307.652 39.3177 307.234 36.8114C306.921 34.9316 306.712 33.8873 302.222 32.7386C298.358 31.6943 297.731 30.1279 297.731 29.3968C297.731 28.3525 299.611 27.0994 301.804 27.0994C306.086 27.0994 309.01 27.4127 312.978 27.4127C317.051 27.4127 327.494 27.0994 329.582 27.0994C331.671 27.0994 332.924 28.1437 332.924 29.3968C332.924 30.5456 331.671 31.6943 328.956 32.3209C325.718 33.0519 324.987 34.6183 324.674 37.1247C324.256 40.1531 324.152 48.2987 324.152 57.3841C324.152 70.3334 324.465 73.9885 324.674 77.8524C324.987 82.865 326.763 83.7004 330 84.5359C332.924 85.2669 333.968 86.5201 333.968 87.6688C333.968 89.0264 332.298 90.1751 330 90.1751C328.016 90.1751 324.048 89.8618 320.184 89.8618C314.753 89.8618 305.772 90.384 302.639 90.384C300.551 90.384 298.567 89.5485 298.567 87.8776C298.567 86.8333 299.506 85.9979 302.744 84.7447C306.608 83.2827 307.025 80.9853 307.339 79.3144C307.861 76.0771 308.07 67.6182 307.652 63.9632C307.339 61.3524 306.399 61.1436 306.294 61.1436C298.567 61.1436 283.738 61.4569 282.276 61.4569C281.545 61.4569 281.022 63.5455 281.022 64.0676C281.022 66.8872 281.127 77.0169 281.231 78.5834C281.545 82.134 281.962 83.8049 287.184 85.058C288.437 85.3713 290.526 86.7289 290.526 88.0865C290.526 89.8618 289.063 90.2795 286.453 90.2795C283.424 90.2795 275.905 89.8618 271.415 89.8618C268.073 89.8618 262.016 90.384 258.883 90.384C256.69 90.384 254.915 89.2352 254.915 87.9821C254.915 86.8333 256.795 85.6846 258.674 84.9536C263.06 83.1783 263.896 82.2384 264.105 77.7479C264.418 73.153 264.418 61.5613 264.418 46.5234C264.418 38.6911 264.105 37.9601 263.896 36.7069C263.478 34.3051 262.225 32.843 257.421 31.6943C256.272 31.381 255.124 30.4411 255.124 29.2924C255.124 28.1437 257.421 26.995 259.405 26.995C264.522 26.995 271.728 27.4127 274.548 27.4127C277.785 27.4127 279.874 27.2038 283.529 27.2038C285.2 27.2038 287.288 27.726 287.288 29.6057C287.288 31.1722 284.782 32.112 283.529 32.5297C281.858 33.1563 281.022 35.2449 281.022 37.8557C281.022 41.093 281.022 44.9569 281.022 51.6404ZM365.505 27.4127H376.261C385.764 27.4127 387.226 27.4127 389.628 26.8905C390.777 26.6817 391.508 27.3082 391.821 27.8304C392.448 28.8747 393.283 36.8114 393.283 39.1088C393.283 41.824 392.03 42.4506 391.403 42.4506C389.524 42.4506 388.479 41.3019 387.226 38.4823C385.242 34.2006 383.78 33.4696 382.944 33.4696C376.992 33.4696 371.248 33.7829 369.786 33.7829C369.264 33.7829 368.429 34.9316 368.429 35.3494C368.324 37.3335 368.115 44.8525 368.115 52.0582C368.115 53.729 368.429 54.7733 368.951 54.8778C370.1 55.1911 373.755 55.0866 375.634 54.9822C380.334 54.6689 381.796 52.998 382.944 50.3873C383.571 48.8208 384.615 47.5677 385.764 47.5677C387.226 47.5677 388.166 49.0297 387.957 52.0582C387.853 53.3113 387.748 55.7132 387.748 58.1151C387.748 60.517 387.957 62.9189 388.062 64.4853C388.27 67.3049 386.704 68.5581 385.66 68.5581C384.72 68.5581 383.362 67.4094 382.422 65.3208C381.378 62.9189 381.065 62.1879 378.872 61.979C374.59 61.6657 373.963 61.4569 369.264 61.4569C368.742 61.4569 368.115 62.9189 368.115 65.5296C368.115 68.3492 368.429 74.4062 368.533 76.7036C368.742 79.7321 369.16 80.8808 369.473 81.2986C370.517 82.865 375.53 84.2226 380.543 84.2226C382.213 84.2226 385.137 83.9093 387.539 82.5517C389.524 81.5074 390.568 80.2543 392.865 77.1214C394.536 74.8239 395.685 72.3176 397.356 72.3176C399.34 72.3176 399.967 75.346 399.549 77.5391C398.922 80.5675 396.416 87.5644 395.998 88.5042C395.685 89.2352 393.492 90.384 392.865 90.384C391.508 90.384 387.33 89.8618 368.324 89.8618C361.745 89.8618 348.587 90.2795 344.096 90.2795C341.903 90.2795 340.337 89.4441 340.337 88.6087C340.337 87.3555 341.172 85.8935 343.365 85.2669C350.571 83.2827 350.78 80.8808 350.989 79.0011C351.407 73.9885 351.511 71.7954 351.511 55.7132C351.511 39.631 351.302 39.0044 350.989 37.1247C350.467 33.9918 349.109 32.843 344.932 31.7987C342.217 31.1722 341.799 29.7101 341.799 28.9791C341.799 27.6215 343.888 26.8905 345.245 26.8905C347.021 26.8905 358.612 27.4127 365.505 27.4127ZM460.673 26.6817C470.698 26.6817 481.037 28.8747 488.765 35.3494C497.537 42.7639 499.312 52.0582 499.312 58.5328C499.312 74.5106 488.66 82.7606 483.021 85.8935C475.606 89.8618 467.774 90.6973 460.046 90.6973C455.765 90.6973 444.382 89.8618 441.04 89.8618C437.698 89.8618 432.999 89.8618 427.986 90.2795C427.151 90.384 426.316 89.653 426.316 88.9219C426.316 87.7732 427.882 85.2669 430.493 84.5359C433.834 83.596 435.61 83.9093 436.445 79.21C437.176 75.1372 437.176 69.9157 437.176 56.1309C437.176 41.824 437.385 40.0487 436.654 36.3937C436.445 35.2449 436.236 33.6785 431.328 32.6342C428.822 32.112 427.36 30.9633 427.36 29.5013C427.36 27.9348 429.031 27.3082 432.059 27.3082L439.265 27.4127C442.92 27.5171 453.363 26.6817 460.673 26.6817ZM460.673 32.2165C459.838 32.2165 456.391 32.6342 455.66 33.0519C455.243 33.2608 454.198 35.2449 454.198 35.6626C453.989 39.2133 453.572 43.7038 453.572 51.536V59.055C453.572 72.422 453.989 74.0929 454.303 77.2258C454.512 79.4188 455.66 81.6118 456.913 82.6561C458.062 83.596 461.822 85.3713 463.179 85.3713C464.328 85.3713 469.967 84.1182 474.562 79.7321C479.262 75.2416 481.246 66.4695 481.246 59.4727C481.246 51.8493 479.262 44.017 473.936 38.7955C469.341 34.2006 464.015 32.2165 460.673 32.2165ZM531.226 27.4127H541.982C551.485 27.4127 552.948 27.4127 555.349 26.8905C556.498 26.6817 557.229 27.3082 557.542 27.8304C558.169 28.8747 559.004 36.8114 559.004 39.1088C559.004 41.824 557.751 42.4506 557.125 42.4506C555.245 42.4506 554.201 41.3019 552.948 38.4823C550.963 34.2006 549.501 33.4696 548.666 33.4696C542.713 33.4696 536.97 33.7829 535.508 33.7829C534.986 33.7829 534.15 34.9316 534.15 35.3494C534.046 37.3335 533.837 44.8525 533.837 52.0582C533.837 53.729 534.15 54.7733 534.672 54.8778C535.821 55.1911 539.476 55.0866 541.356 54.9822C546.055 54.6689 547.517 52.998 548.666 50.3873C549.292 48.8208 550.337 47.5677 551.485 47.5677C552.948 47.5677 553.887 49.0297 553.679 52.0582C553.574 53.3113 553.47 55.7132 553.47 58.1151C553.47 60.517 553.679 62.9189 553.783 64.4853C553.992 67.3049 552.425 68.5581 551.381 68.5581C550.441 68.5581 549.084 67.4094 548.144 65.3208C547.099 62.9189 546.786 62.1879 544.593 61.979C540.311 61.6657 539.685 61.4569 534.986 61.4569C534.463 61.4569 533.837 62.9189 533.837 65.5296C533.837 68.3492 534.15 74.4062 534.255 76.7036C534.463 79.7321 534.881 80.8808 535.194 81.2986C536.239 82.865 541.251 84.2226 546.264 84.2226C547.935 84.2226 550.859 83.9093 553.261 82.5517C555.245 81.5074 556.289 80.2543 558.587 77.1214C560.258 74.8239 561.406 72.3176 563.077 72.3176C565.061 72.3176 565.688 75.346 565.27 77.5391C564.644 80.5675 562.137 87.5644 561.72 88.5042C561.406 89.2352 559.213 90.384 558.587 90.384C557.229 90.384 553.052 89.8618 534.046 89.8618C527.467 89.8618 514.308 90.2795 509.818 90.2795C507.625 90.2795 506.058 89.4441 506.058 88.6087C506.058 87.3555 506.894 85.8935 509.087 85.2669C516.293 83.2827 516.501 80.8808 516.71 79.0011C517.128 73.9885 517.232 71.7954 517.232 55.7132C517.232 39.631 517.024 39.0044 516.71 37.1247C516.188 33.9918 514.831 32.843 510.653 31.7987C507.938 31.1722 507.52 29.7101 507.52 28.9791C507.52 27.6215 509.609 26.8905 510.967 26.8905C512.742 26.8905 524.334 27.4127 531.226 27.4127ZM597.821 27.4127H608.577C618.08 27.4127 619.542 27.4127 621.944 26.8905C623.093 26.6817 623.824 27.3082 624.137 27.8304C624.764 28.8747 625.599 36.8114 625.599 39.1088C625.599 41.824 624.346 42.4506 623.719 42.4506C621.839 42.4506 620.795 41.3019 619.542 38.4823C617.558 34.2006 616.096 33.4696 615.26 33.4696C609.308 33.4696 603.564 33.7829 602.102 33.7829C601.58 33.7829 600.745 34.9316 600.745 35.3494C600.64 37.3335 600.431 44.8525 600.431 52.0582C600.431 53.729 600.745 54.7733 601.267 54.8778C602.415 55.1911 606.071 55.0866 607.95 54.9822C612.65 54.6689 614.112 52.998 615.26 50.3873C615.887 48.8208 616.931 47.5677 618.08 47.5677C619.542 47.5677 620.482 49.0297 620.273 52.0582C620.169 53.3113 620.064 55.7132 620.064 58.1151C620.064 60.517 620.273 62.9189 620.377 64.4853C620.586 67.3049 619.02 68.5581 617.976 68.5581C617.036 68.5581 615.678 67.4094 614.738 65.3208C613.694 62.9189 613.381 62.1879 611.188 61.979C606.906 61.6657 606.279 61.4569 601.58 61.4569C601.058 61.4569 600.431 62.9189 600.431 65.5296C600.431 68.3492 600.745 74.4062 600.849 76.7036C601.058 79.7321 601.476 80.8808 601.789 81.2986C602.833 82.865 607.846 84.2226 612.858 84.2226C614.529 84.2226 617.453 83.9093 619.855 82.5517C621.839 81.5074 622.884 80.2543 625.181 77.1214C626.852 74.8239 628.001 72.3176 629.672 72.3176C631.656 72.3176 632.282 75.346 631.865 77.5391C631.238 80.5675 628.732 87.5644 628.314 88.5042C628.001 89.2352 625.808 90.384 625.181 90.384C623.824 90.384 619.646 89.8618 600.64 89.8618C594.061 89.8618 580.903 90.2795 576.412 90.2795C574.219 90.2795 572.653 89.4441 572.653 88.6087C572.653 87.3555 573.488 85.8935 575.681 85.2669C582.887 83.2827 583.096 80.8808 583.305 79.0011C583.723 73.9885 583.827 71.7954 583.827 55.7132C583.827 39.631 583.618 39.0044 583.305 37.1247C582.783 33.9918 581.425 32.843 577.248 31.7987C574.533 31.1722 574.115 29.7101 574.115 28.9791C574.115 27.6215 576.204 26.8905 577.561 26.8905C579.336 26.8905 590.928 27.4127 597.821 27.4127ZM681.855 47.2544C681.855 41.4063 679.453 37.1247 678.931 36.3937C678.513 35.8715 674.754 32.4253 670.89 32.4253C669.741 32.4253 668.383 32.843 667.966 33.2608C667.652 33.574 667.235 34.2006 667.235 34.7228C666.921 38.9 666.817 52.267 666.817 56.5486C666.817 66.9916 666.921 75.0328 666.921 76.0771C666.921 81.9251 668.279 83.4916 673.918 85.058C676.425 85.789 677.469 86.5201 677.469 87.9821C677.469 88.9219 676.007 90.1751 673.292 90.1751C670.159 90.1751 665.564 89.8618 661.282 89.8618C657.523 89.8618 647.706 90.4884 644.26 90.4884C641.649 90.4884 639.874 89.5485 639.874 88.1909C639.874 86.8333 640.918 85.8935 643.947 84.9536C648.437 83.4916 649.168 81.7163 649.482 79.0011C649.69 76.9125 650.421 64.0676 650.421 49.5518C650.421 45.0613 650.317 40.0487 650.004 37.6468C649.795 35.2449 648.959 33.3652 644.365 32.3209C642.694 31.9032 640.709 30.3367 640.709 29.2924C640.709 27.4127 642.171 26.995 643.947 26.995C648.437 26.995 651.361 27.4127 656.583 27.4127C660.133 27.4127 665.668 26.8905 673.814 26.8905C682.899 26.8905 689.583 29.7101 693.133 33.3652C695.64 35.9759 698.773 41.7196 698.773 47.1499C698.773 55.2955 693.969 61.0391 691.88 62.8144C687.599 66.3651 683.108 67.9315 678.304 67.9315C675.589 67.9315 674.023 67.5138 672.456 66.4695C671.307 65.7385 670.368 64.6942 670.368 64.172C670.368 63.0233 670.785 62.2923 671.621 62.1879C672.038 62.0834 672.561 62.0834 673.083 61.979C675.589 61.3524 681.855 59.786 681.855 47.2544ZM710.287 63.8587C717.806 63.1277 725.22 62.2923 732.739 61.5613C734.097 61.4569 735.141 63.2322 735.141 64.0676C735.141 66.1562 734.201 69.0802 733.157 70.5423C732.635 71.2733 731.695 71.691 731.277 71.691C724.176 72.2131 716.97 72.8397 709.869 73.3619C708.407 73.4663 707.467 71.5866 707.467 70.5423C707.467 68.767 707.989 66.4695 708.825 65.2163C709.034 64.903 709.973 63.8587 710.287 63.8587ZM774.778 25.4285C780.626 25.4285 786.161 27.3082 790.234 28.2481C790.86 28.3525 791.591 30.0234 791.591 31.1722C791.591 32.4253 792.322 38.169 792.322 39.7354C792.322 43.286 790.651 44.7481 789.189 44.7481C788.041 44.7481 787.101 42.9727 786.787 42.1373C784.49 35.8715 779.06 30.2323 773.107 30.2323C768.721 30.2323 764.753 34.3051 764.753 38.2734C764.753 42.9727 768.199 46.4189 774.151 49.4474C787.31 56.1309 795.037 61.979 795.037 71.8999C795.037 80.4631 789.189 85.2669 785.43 87.5644C781.357 89.9662 774.465 91.7416 769.661 91.7416C760.784 91.7416 755.667 89.8618 753.265 88.9219C752.534 88.6087 750.864 87.6688 750.341 86.5201C748.566 82.7606 748.253 77.3302 748.253 74.8239C748.253 72.8397 749.297 70.3334 750.968 70.3334C752.117 70.3334 753.474 71.5866 754.936 74.3017C758.8 81.403 764.544 86.5201 771.019 86.5201C774.778 86.5201 779.477 83.9093 779.477 79.1055C779.477 75.9726 779.686 72.5264 769.034 66.7828C755.354 59.4727 750.028 53.8335 750.028 44.1215C750.028 37.3335 754.832 31.7987 759.845 28.9791C763.813 26.7861 768.826 25.4285 774.778 25.4285ZM827.383 27.4127H838.139C847.642 27.4127 849.104 27.4127 851.506 26.8905C852.655 26.6817 853.386 27.3082 853.699 27.8304C854.326 28.8747 855.161 36.8114 855.161 39.1088C855.161 41.824 853.908 42.4506 853.282 42.4506C851.402 42.4506 850.358 41.3019 849.104 38.4823C847.12 34.2006 845.658 33.4696 844.823 33.4696C838.87 33.4696 833.127 33.7829 831.665 33.7829C831.142 33.7829 830.307 34.9316 830.307 35.3494C830.203 37.3335 829.994 44.8525 829.994 52.0582C829.994 53.729 830.307 54.7733 830.829 54.8778C831.978 55.1911 835.633 55.0866 837.513 54.9822C842.212 54.6689 843.674 52.998 844.823 50.3873C845.449 48.8208 846.494 47.5677 847.642 47.5677C849.104 47.5677 850.044 49.0297 849.835 52.0582C849.731 53.3113 849.627 55.7132 849.627 58.1151C849.627 60.517 849.835 62.9189 849.94 64.4853C850.149 67.3049 848.582 68.5581 847.538 68.5581C846.598 68.5581 845.241 67.4094 844.301 65.3208C843.256 62.9189 842.943 62.1879 840.75 61.979C836.468 61.6657 835.842 61.4569 831.142 61.4569C830.62 61.4569 829.994 62.9189 829.994 65.5296C829.994 68.3492 830.307 74.4062 830.411 76.7036C830.62 79.7321 831.038 80.8808 831.351 81.2986C832.396 82.865 837.408 84.2226 842.421 84.2226C844.092 84.2226 847.016 83.9093 849.418 82.5517C851.402 81.5074 852.446 80.2543 854.744 77.1214C856.415 74.8239 857.563 72.3176 859.234 72.3176C861.218 72.3176 861.845 75.346 861.427 77.5391C860.801 80.5675 858.294 87.5644 857.877 88.5042C857.563 89.2352 855.37 90.384 854.744 90.384C853.386 90.384 849.209 89.8618 830.203 89.8618C823.624 89.8618 810.465 90.2795 805.975 90.2795C803.782 90.2795 802.215 89.4441 802.215 88.6087C802.215 87.3555 803.051 85.8935 805.244 85.2669C812.45 83.2827 812.658 80.8808 812.867 79.0011C813.285 73.9885 813.389 71.7954 813.389 55.7132C813.389 39.631 813.181 39.0044 812.867 37.1247C812.345 33.9918 810.988 32.843 806.81 31.7987C804.095 31.1722 803.677 29.7101 803.677 28.9791C803.677 27.6215 805.766 26.8905 807.124 26.8905C808.899 26.8905 820.491 27.4127 827.383 27.4127ZM908.683 25.3241C910.562 25.3241 911.189 28.457 913.904 35.4538C919.543 50.5961 928.107 70.8556 930.926 77.2258C933.537 83.0739 934.999 83.1783 939.072 84.8492C941.474 85.8935 942.309 87.4599 942.309 88.6087C942.309 89.8618 940.638 90.384 938.654 90.384C935.417 90.384 927.271 89.8618 922.154 89.8618C917.664 89.8618 914.844 90.384 911.084 90.384C908.16 90.384 907.221 89.1308 907.221 88.3998C907.221 87.1466 908.474 85.6846 910.458 84.8492C914.113 83.2827 914.113 80.9853 913.591 79.21C912.651 76.5992 912.546 76.0771 911.189 72.9442C911.084 72.6309 910.145 71.4821 908.474 71.2733C906.698 71.0644 893.645 70.8556 891.243 71.3777C890.616 71.4821 889.781 72.5264 889.572 72.9442C888.736 75.0328 887.901 79.0011 887.901 80.3587C887.901 82.2384 889.259 83.8049 892.6 84.9536C894.062 85.4758 895.629 86.3112 895.629 87.6688C895.629 88.1909 894.167 90.1751 891.452 90.1751C890.198 90.1751 887.901 89.8618 884.559 89.8618C880.695 89.8618 876.414 90.384 872.028 90.384C869.73 90.384 868.164 89.3397 868.164 88.0865C868.164 87.0422 868.999 85.9979 871.297 85.058C875.161 83.4916 877.249 83.1783 880.591 76.1815C883.202 70.6467 890.616 51.8493 896.882 35.3494C896.986 35.0361 897.195 34.3051 897.195 33.1563C897.195 32.7386 897.717 32.0076 898.135 31.6943C899.493 30.8589 904.714 27.4127 905.863 26.4728C906.49 25.8462 908.16 25.3241 908.683 25.3241ZM906.594 64.2765C907.116 64.2765 907.743 63.3366 907.638 63.0233C906.072 57.9062 901.686 46.7322 900.746 45.0613C900.328 44.3303 899.702 44.6436 899.388 45.0613C897.717 48.5075 893.227 61.3524 892.914 62.9189C892.809 63.5455 893.331 64.3809 894.062 64.3809C895.42 64.3809 905.132 64.3809 906.594 64.2765Z" fill="white"/>
<path d="M226.458 140.179C231.761 140.179 237.064 141.332 240.177 142.139C243.059 142.946 247.209 144.214 248.131 144.214C248.707 144.214 250.091 145.712 250.091 146.404C250.091 150.554 251.243 156.433 251.243 159.315C251.243 162.543 249.053 164.388 247.555 164.388C246.632 164.388 246.056 163.465 245.134 160.929C243.404 156.203 242.713 153.667 238.447 150.554C234.874 147.903 230.839 145.943 225.882 145.943C220.925 145.943 214.584 148.825 210.78 153.436C205.823 159.315 203.518 168.077 203.518 174.993C203.518 183.755 206.4 191.594 209.743 196.32C213.893 202.199 221.501 206.465 228.418 206.465C231.3 206.465 236.488 204.62 238.793 203.352C239.715 202.776 241.791 200.586 244.673 195.974C246.863 192.516 248.246 191.133 249.399 191.133C251.589 191.133 251.82 193.323 251.705 195.744C251.705 196.781 249.514 204.505 249.514 206.695C249.514 207.041 248.592 208.655 248.246 208.886C244.211 210.845 233.951 213.497 225.997 213.497C213.201 213.497 199.598 209.693 191.413 200.701C186.341 195.167 182.767 187.559 182.767 177.299C182.767 164.964 188.301 154.589 198.445 147.557C203.633 143.983 214.469 140.179 226.458 140.179ZM304.611 140.179C328.589 140.179 344.728 156.318 344.728 176.953C344.728 191.363 336.198 202.661 325.361 208.655C320.404 211.422 312.335 213.497 304.957 213.497C280.633 213.497 264.724 196.897 264.724 176.953C264.724 168.077 268.067 159.315 275.215 152.168C282.708 144.675 293.775 140.179 304.611 140.179ZM302.536 146.173C297.118 146.173 292.276 150.785 292.161 150.9C287.319 156.203 285.244 164.042 285.244 174.878C285.244 190.556 292.391 207.618 307.954 207.618C311.874 207.618 316.485 204.159 317.061 203.698C320.75 200.24 323.747 192.977 323.747 177.76C323.747 165.656 317.753 146.173 302.536 146.173ZM352.188 143.753C352.188 142.946 353.11 141.793 355.186 141.793C359.797 141.793 369.019 142.715 376.397 142.715C377.435 142.715 379.048 143.522 379.394 143.983C381.354 146.635 384.928 150.439 390.461 156.433C396.571 163.004 414.901 182.371 417.437 183.755C417.783 183.87 418.705 183.639 418.82 183.294C419.512 180.181 419.512 169.114 419.166 161.16C418.82 153.321 419.396 150.323 410.405 148.248C407.638 147.557 406.6 145.597 406.6 144.905C406.6 144.098 407.868 142.369 410.635 142.369C414.785 142.369 414.555 142.484 417.552 142.484C422.278 142.484 431.04 141.908 433.345 141.908C435.766 141.908 437.38 142.6 437.38 144.559C437.38 145.828 436.458 146.635 432.769 148.248C428.042 150.323 427.351 151.592 427.236 153.09C427.005 158.393 426.083 182.141 426.083 189.865C426.083 194.937 426.544 200.009 426.544 205.312C426.544 210.154 425.622 213.727 423.547 213.727C419.858 213.727 416.86 211.652 414.67 209.116C410.405 204.275 404.986 197.934 401.759 194.36C397.378 189.288 379.394 170.152 374.322 164.618C373.976 164.272 373.169 164.964 373.169 165.425C373.054 167.961 372.823 168.307 372.823 173.264C372.823 178.452 373.054 188.827 373.169 191.94C373.515 200.931 375.014 203.698 379.048 205.312C382.968 206.811 384.236 208.079 384.236 209.693C384.236 211.076 382.968 211.883 380.317 211.883C377.089 211.883 373.169 211.422 367.751 211.422C362.333 211.422 359.451 211.883 357.952 211.883C354.494 211.883 353.341 210.615 353.341 209.462C353.341 207.963 354.724 206.926 356.799 206.234C362.102 204.505 364.177 204.159 364.754 196.435C365.33 188.712 366.252 161.16 366.252 157.471C366.252 156.779 365.676 154.358 364.177 152.629C361.756 149.862 359.681 148.479 357.03 147.903C354.379 147.326 352.188 145.943 352.188 143.753ZM468.052 142.484H503.327C509.783 142.484 512.665 141.677 513.126 141.101C514.51 139.372 515.778 138.334 516.585 138.334C517.276 138.334 520.274 140.179 520.274 142.023C520.274 142.83 518.89 150.093 518.89 157.817C518.89 160.122 517.161 162.658 514.971 162.658C513.357 162.658 512.435 159.776 512.204 158.739C510.475 151.13 508.515 150.9 504.365 150.439C502.636 150.208 502.29 149.862 492.491 149.862C491.915 149.862 491.569 150.785 491.454 151.937C491.338 153.551 490.647 169.114 490.647 176.377C490.647 183.409 490.531 191.017 490.877 195.167C491.569 203.583 493.529 203.929 498.255 205.658C500.33 206.465 502.29 207.502 502.29 208.886C502.29 211.422 499.523 211.998 497.218 211.998C496.065 211.998 483.384 211.422 476.467 211.422C473.124 211.422 466.899 211.768 463.786 211.768C461.366 211.768 459.06 210.73 459.06 208.655C459.06 207.733 460.213 206.119 462.864 205.427C470.012 203.468 471.971 201.969 471.971 195.629C471.971 193.208 472.202 177.875 472.202 170.382C472.202 163.235 472.317 155.626 472.317 152.053C472.317 151.13 471.164 149.862 470.819 149.862C467.937 149.862 463.671 149.862 460.674 149.978C457.446 150.093 454.333 150.093 451.221 158.739C450.529 160.699 449.146 162.197 447.878 162.197C446.379 162.197 444.65 160.122 444.65 157.356C444.65 153.782 445.918 148.594 445.918 142.254C445.918 140.294 447.647 138.565 449.031 138.565C449.376 138.565 450.76 139.257 451.567 139.833C453.527 141.447 455.256 142.139 458.599 142.254C463.325 142.484 464.363 142.484 468.052 142.484ZM539.132 186.176V159.546C539.132 149.862 538.671 148.594 532.446 147.211C530.486 146.75 529.333 145.366 529.333 144.329C529.333 142.6 532.1 142.023 533.253 142.023C535.443 142.023 542.706 142.484 547.778 142.484C554.695 142.484 560.343 142.139 563.687 142.139C565.416 142.139 567.26 143.061 567.26 144.559C567.26 145.943 565.3 146.865 564.378 147.096C558.729 148.364 558.384 149.862 557.923 155.857C557.577 160.814 557.461 170.843 557.461 178.682C557.461 191.248 557.692 195.744 557.692 197.242C557.923 202.661 558.499 204.966 564.263 206.35C566.453 206.926 567.952 208.079 567.952 209.693C567.952 211.076 565.416 211.768 564.032 211.768C562.88 211.768 551.697 211.422 547.778 211.422C543.743 211.422 535.328 211.883 533.253 211.883C531.754 211.883 529.333 211.537 529.333 209.693C529.333 208.425 531.178 206.926 532.791 206.465C537.403 204.966 538.094 203.583 538.671 200.124C539.017 197.704 539.132 195.629 539.132 186.176ZM575.431 143.753C575.431 142.946 576.353 141.793 578.428 141.793C583.039 141.793 592.262 142.715 599.639 142.715C600.677 142.715 602.291 143.522 602.637 143.983C604.596 146.635 608.17 150.439 613.704 156.433C619.813 163.004 638.143 182.371 640.679 183.755C641.025 183.87 641.947 183.639 642.062 183.294C642.754 180.181 642.754 169.114 642.408 161.16C642.062 153.321 642.639 150.323 633.647 148.248C630.88 147.557 629.843 145.597 629.843 144.905C629.843 144.098 631.111 142.369 633.878 142.369C638.028 142.369 637.797 142.484 640.794 142.484C645.521 142.484 654.282 141.908 656.588 141.908C659.009 141.908 660.623 142.6 660.623 144.559C660.623 145.828 659.7 146.635 656.011 148.248C651.285 150.323 650.593 151.592 650.478 153.09C650.247 158.393 649.325 182.141 649.325 189.865C649.325 194.937 649.786 200.009 649.786 205.312C649.786 210.154 648.864 213.727 646.789 213.727C643.1 213.727 640.103 211.652 637.912 209.116C633.647 204.275 628.229 197.934 625.001 194.36C620.62 189.288 602.637 170.152 597.564 164.618C597.219 164.272 596.412 164.964 596.412 165.425C596.296 167.961 596.066 168.307 596.066 173.264C596.066 178.452 596.296 188.827 596.412 191.94C596.757 200.931 598.256 203.698 602.291 205.312C606.21 206.811 607.478 208.079 607.478 209.693C607.478 211.076 606.21 211.883 603.559 211.883C600.331 211.883 596.412 211.422 590.993 211.422C585.575 211.422 582.693 211.883 581.195 211.883C577.736 211.883 576.583 210.615 576.583 209.462C576.583 207.963 577.967 206.926 580.042 206.234C585.345 204.505 587.42 204.159 587.996 196.435C588.573 188.712 589.495 161.16 589.495 157.471C589.495 156.779 588.918 154.358 587.42 152.629C584.999 149.862 582.924 148.479 580.272 147.903C577.621 147.326 575.431 145.943 575.431 143.753ZM666.314 144.559C666.314 142.946 668.389 141.908 672.193 141.908C675.767 141.908 684.413 142.484 688.217 142.484C693.289 142.484 698.707 142.139 700.321 142.139C703.319 142.139 705.394 143.753 705.394 144.905C705.394 146.289 702.742 147.787 701.013 148.248C695.825 149.632 695.134 151.13 694.788 156.549C694.327 162.774 694.327 171.304 694.903 181.219C695.479 191.248 697.67 196.551 700.091 198.626C703.319 201.393 708.045 203.468 712.887 203.468C721.763 203.468 728.911 199.202 730.409 186.752C730.986 182.141 731.101 169.691 731.101 163.004C731.101 151.015 730.986 150.093 722.801 148.133C720.495 147.557 718.535 146.635 718.535 144.675C718.535 143.753 720.149 142.139 723.262 142.139C725.568 142.139 729.257 142.484 733.637 142.484C737.787 142.484 742.514 141.908 746.549 141.908C748.739 141.908 751.044 142.6 751.044 144.559C751.044 146.058 749.085 147.211 746.779 148.018C741.476 149.978 740.669 150.9 739.978 156.549C739.747 157.932 739.286 167.615 738.825 176.492C737.787 195.167 733.983 201.047 728.334 206.58C723.608 211.191 715.538 213.497 707.584 213.497C698.246 213.497 688.217 210.615 683.375 204.159C676.919 195.629 676.458 186.752 676.458 173.61C676.458 159.776 676.228 158.047 675.997 154.589C675.651 149.978 674.844 149.401 670.579 148.133C668.273 147.441 666.314 146.519 666.314 144.559ZM753.449 144.559C753.449 142.946 755.524 141.908 759.328 141.908C762.902 141.908 771.548 142.484 775.352 142.484C780.425 142.484 785.843 142.139 787.457 142.139C790.454 142.139 792.529 143.753 792.529 144.905C792.529 146.289 789.878 147.787 788.148 148.248C782.961 149.632 782.269 151.13 781.923 156.549C781.462 162.774 781.462 171.304 782.039 181.219C782.615 191.248 784.805 196.551 787.226 198.626C790.454 201.393 795.18 203.468 800.022 203.468C808.899 203.468 816.046 199.202 817.545 186.752C818.121 182.141 818.236 169.691 818.236 163.004C818.236 151.015 818.121 150.093 809.936 148.133C807.631 147.557 805.671 146.635 805.671 144.675C805.671 143.753 807.285 142.139 810.397 142.139C812.703 142.139 816.392 142.484 820.773 142.484C824.923 142.484 829.649 141.908 833.684 141.908C835.874 141.908 838.18 142.6 838.18 144.559C838.18 146.058 836.22 147.211 833.915 148.018C828.612 149.978 827.805 150.9 827.113 156.549C826.882 157.932 826.421 167.615 825.96 176.492C824.923 195.167 821.118 201.047 815.47 206.58C810.743 211.191 802.674 213.497 794.719 213.497C785.382 213.497 775.352 210.615 770.511 204.159C764.055 195.629 763.594 186.752 763.594 173.61C763.594 159.776 763.363 158.047 763.133 154.589C762.787 149.978 761.98 149.401 757.714 148.133C755.409 147.441 753.449 146.519 753.449 144.559ZM844.74 145.251C844.74 143.983 846.469 142.023 849.005 142.023C851.887 142.023 870.102 142.484 870.793 142.484C871.37 142.484 872.984 144.444 873.099 144.675C873.56 146.289 875.059 149.055 877.48 154.704C880.016 160.583 888.892 180.296 891.544 183.524C891.544 183.639 892.581 184.101 892.927 183.294C896.731 175.109 901.804 164.503 905.608 155.742C907.798 150.669 908.605 147.441 909.527 144.905C909.758 144.214 911.026 142.715 911.718 142.715C913.677 142.715 930.278 141.908 933.967 141.908C935.12 141.908 937.771 143.061 937.771 144.675C937.771 146.058 936.733 146.75 934.428 147.441C927.05 149.632 926.819 150.208 926.819 153.205C926.819 169.575 927.626 182.832 928.087 194.822C928.433 204.275 930.854 204.966 934.774 205.888C938.347 206.695 939.5 207.963 939.5 209.347C939.5 210.5 937.31 212.114 934.889 212.114C933.506 212.114 920.594 211.422 915.061 211.422C909.873 211.422 906.991 211.883 904.225 211.883C901.343 211.883 900.536 209.462 900.536 208.655C900.536 207.733 902.38 206.811 902.956 206.58C908.605 204.62 909.643 203.237 909.758 196.897C909.873 193.899 909.643 173.149 909.989 162.082C909.989 161.506 909.182 161.621 908.605 162.658C907.107 165.425 897.077 189.519 894.656 195.283C893.388 198.28 891.544 203.813 889.93 207.733C888.777 210.384 886.702 212.229 884.166 212.229C883.128 212.229 881.399 210.269 880.823 208.309C879.093 202.661 876.788 197.127 875.75 194.13C870.678 179.835 866.067 171.074 863.185 164.042C862.724 162.889 861.801 163.12 861.801 163.927C860.879 177.184 860.303 190.441 860.303 196.32C860.303 203.237 861.11 203.583 867.22 206.004C869.756 207.041 870.909 207.733 870.909 209.232C870.909 210.5 869.295 211.883 866.643 211.883C865.029 211.883 860.879 211.422 857.536 211.422C853.847 211.422 845.432 212.114 843.933 212.114C841.743 212.114 839.668 210.961 839.668 209.462C839.668 208.425 840.705 207.272 843.472 206.35C849.236 204.505 851.08 202.199 851.887 197.358C853.271 189.403 855.922 162.543 856.153 156.549C856.383 150.323 854.654 149.517 848.89 147.903C846.008 147.096 844.74 146.173 844.74 145.251Z" fill="white"/>
<path d="M85.4583 184.091V181.591H82.9583V184.091H85.4583ZM100.447 184.091H102.947V181.591H100.447V184.091ZM100.447 232.634V235.134H102.947V232.634H100.447ZM98.3961 232.634L96.8117 234.568L97.5027 235.134H98.3961V232.634ZM77.7798 217.382L76.3613 219.441L76.3631 219.442L77.7798 217.382ZM42.3848 207.127L44.0727 208.971L44.0812 208.963L44.0895 208.955L42.3848 207.127ZM48.433 231.687V234.187H54.2598L50.2448 229.965L48.433 231.687ZM33.0233 231.687L30.9261 233.048L31.6652 234.187H33.0233V231.687ZM31.6033 194.084L33.4631 195.754L33.4701 195.746L31.6033 194.084ZM85.4583 207.758L83.9091 209.72L87.9583 212.917V207.758H85.4583ZM85.4583 186.591H100.447V181.591H85.4583V186.591ZM97.9473 184.091V232.634H102.947V184.091H97.9473ZM100.447 230.134H98.3961V235.134H100.447V230.134ZM99.9806 230.7C94.4742 226.189 87.5413 221.062 79.1965 215.322L76.3631 219.442C84.6376 225.133 91.4489 230.174 96.8117 234.568L99.9806 230.7ZM79.1983 215.324C70.8695 209.584 64.7549 205.817 60.991 204.199L59.0159 208.792C62.2643 210.189 68.0006 213.68 76.3613 219.441L79.1983 215.324ZM60.991 204.199C57.2217 202.578 53.4852 201.734 49.8004 201.734V206.734C52.7072 206.734 55.7728 207.398 59.0159 208.792L60.991 204.199ZM49.8004 201.734C46.3043 201.734 43.2201 202.93 40.6802 205.298L44.0895 208.955C45.6869 207.466 47.5464 206.734 49.8004 206.734V201.734ZM40.6969 205.282C38.1336 207.629 36.7819 210.585 36.7819 214.016H41.7819C41.7819 212.048 42.4988 210.411 44.0727 208.971L40.6969 205.282ZM36.7819 214.016C36.7819 220.329 40.3495 226.814 46.6213 233.41L50.2448 229.965C44.315 223.728 41.7819 218.432 41.7819 214.016H36.7819ZM48.433 229.187H33.0233V234.187H48.433V229.187ZM35.1206 230.327C30.6392 223.419 28.5285 217.032 28.5285 211.124H23.5285C23.5285 218.258 26.081 225.58 30.9261 233.048L35.1206 230.327ZM28.5285 211.124C28.5285 204.329 30.2697 199.309 33.4631 195.754L29.7435 192.413C25.5038 197.133 23.5285 203.473 23.5285 211.124H28.5285ZM33.4701 195.746C36.6342 192.194 41.0081 190.325 46.9078 190.325V185.325C39.8346 185.325 34.0055 187.628 29.7365 192.421L33.4701 195.746ZM46.9078 190.325C50.7678 190.325 55.7814 191.788 62.0502 195.029C68.2837 198.252 75.5657 203.132 83.9091 209.72L87.0076 205.796C78.5213 199.095 70.9634 194.009 64.3467 190.588C57.7653 187.185 51.9185 185.325 46.9078 185.325V190.325ZM87.9583 207.758V184.091H82.9583V207.758H87.9583ZM36.0737 131.025L37.435 133.122L37.4427 133.117L36.0737 131.025ZM91.3487 130.815L90.0108 132.926L91.3487 130.815ZM91.4013 167.682L92.783 169.766L92.7906 169.76L91.4013 167.682ZM35.9685 167.577L34.5592 169.642L34.5615 169.643L35.9685 167.577ZM82.3028 142.806L83.1831 140.466L83.1755 140.463L82.3028 142.806ZM44.9093 142.806L45.8003 145.142L45.8149 145.136L45.8294 145.13L44.9093 142.806ZM44.8041 155.901L43.834 158.205L43.8461 158.21L44.8041 155.901ZM82.2502 155.901L83.1354 158.239L83.1492 158.234L83.1629 158.229L82.2502 155.901ZM28.5285 149.222C28.5285 142.311 31.4262 137.023 37.435 133.122L34.7124 128.928C27.3276 133.722 23.5285 140.566 23.5285 149.222H28.5285ZM37.4427 133.117C43.5912 129.093 52.1531 126.951 63.3694 126.951V121.951C51.585 121.951 41.9499 124.191 34.7047 128.933L37.4427 133.117ZM63.3694 126.951C75.076 126.951 83.8688 129.035 90.0108 132.926L92.6866 128.703C85.435 124.109 75.5749 121.951 63.3694 121.951V126.951ZM90.0108 132.926C95.9884 136.713 98.8939 141.984 98.8939 149.012H103.894C103.894 140.261 100.103 133.401 92.6866 128.703L90.0108 132.926ZM98.8939 149.012C98.8939 156.169 95.9817 161.613 90.012 165.604L92.7906 169.76C100.144 164.845 103.894 157.843 103.894 149.012H98.8939ZM90.0196 165.599C83.9187 169.644 75.2467 171.809 63.7375 171.809V176.809C75.7899 176.809 85.5604 174.555 92.783 169.766L90.0196 165.599ZM63.7375 171.809C52.0845 171.809 43.3938 169.608 37.3755 165.51L34.5615 169.643C41.7265 174.522 51.5485 176.809 63.7375 176.809V171.809ZM37.3779 165.512C31.401 161.433 28.5285 156.071 28.5285 149.222H23.5285C23.5285 157.801 27.2827 164.675 34.5592 169.642L37.3779 165.512ZM90.1146 149.222C90.1146 147.205 89.4925 145.361 88.2124 143.815C86.9667 142.31 85.2195 141.232 83.1831 140.466L81.4224 145.146C82.9273 145.712 83.836 146.369 84.3609 147.003C84.8514 147.596 85.1146 148.293 85.1146 149.222H90.1146ZM83.1755 140.463C79.1242 138.954 72.0009 138.307 62.2123 138.307V143.307C72.0584 143.307 78.3287 143.993 81.43 145.148L83.1755 140.463ZM62.2123 138.307C54.0249 138.307 47.835 138.959 43.9892 140.481L45.8294 145.13C48.7155 143.988 54.0609 143.307 62.2123 143.307V138.307ZM44.0183 140.47C42.0248 141.23 40.3205 142.326 39.1141 143.869C37.8833 145.442 37.3078 147.306 37.3078 149.327H42.3078C42.3078 148.298 42.5825 147.55 43.0523 146.949C43.5463 146.318 44.3928 145.678 45.8003 145.142L44.0183 140.47ZM37.3078 149.327C37.3078 151.316 37.8752 153.151 39.0665 154.719C40.2345 156.255 41.8878 157.386 43.834 158.205L45.7743 153.597C44.3896 153.014 43.5447 152.348 43.0473 151.693C42.5731 151.069 42.3078 150.319 42.3078 149.327H37.3078ZM43.8461 158.21C45.8318 159.034 48.5823 159.577 51.9341 159.926C55.3291 160.28 59.516 160.452 64.4738 160.452V155.452C59.6143 155.452 55.6142 155.283 52.4527 154.953C49.2479 154.619 47.0722 154.136 45.7622 153.592L43.8461 158.21ZM64.4738 160.452C72.7515 160.452 79.0697 159.779 83.1354 158.239L81.3649 153.563C78.2079 154.759 72.6752 155.452 64.4738 155.452V160.452ZM83.1629 158.229C85.2221 157.421 86.9771 156.296 88.2227 154.745C89.4985 153.157 90.1146 151.275 90.1146 149.222H85.1146C85.1146 150.22 84.8367 150.976 84.3243 151.614C83.7817 152.29 82.8546 152.979 81.3374 153.574L83.1629 158.229ZM85.4583 65.2313V62.7313H82.9583V65.2313H85.4583ZM100.447 65.2313H102.947V62.7313H100.447V65.2313ZM100.447 113.774V116.274H102.947V113.774H100.447ZM98.3961 113.774L96.8117 115.708L97.5027 116.274H98.3961V113.774ZM77.7798 98.5226L76.3613 100.581L76.3631 100.582L77.7798 98.5226ZM42.3848 88.267L44.0727 90.1111L44.0812 90.1034L44.0895 90.0956L42.3848 88.267ZM48.433 112.828V115.328H54.2598L50.2448 111.105L48.433 112.828ZM33.0233 112.828L30.9261 114.188L31.6652 115.328H33.0233V112.828ZM31.6033 75.224L33.4631 76.8946L33.4701 76.8868L31.6033 75.224ZM85.4583 88.8981L83.9091 90.8602L87.9583 94.0574V88.8981H85.4583ZM85.4583 67.7313H100.447V62.7313H85.4583V67.7313ZM97.9473 65.2313V113.774H102.947V65.2313H97.9473ZM100.447 111.274H98.3961V116.274H100.447V111.274ZM99.9806 111.841C94.4742 107.329 87.5413 102.202 79.1965 96.4627L76.3631 100.582C84.6376 106.273 91.4489 111.314 96.8117 115.708L99.9806 111.841ZM79.1983 96.464C70.8695 90.7248 64.7549 86.9577 60.991 85.3392L59.0159 89.9325C62.2643 91.3294 68.0006 94.82 76.3613 100.581L79.1983 96.464ZM60.991 85.3392C57.2217 83.7184 53.4852 82.8744 49.8004 82.8744V87.8744C52.7072 87.8744 55.7728 88.538 59.0159 89.9325L60.991 85.3392ZM49.8004 82.8744C46.3043 82.8744 43.2201 84.0706 40.6802 86.4383L44.0895 90.0956C45.6869 88.6066 47.5464 87.8744 49.8004 87.8744V82.8744ZM40.6969 86.4228C38.1336 88.7689 36.7819 91.7253 36.7819 95.1566H41.7819C41.7819 93.1885 42.4988 91.5517 44.0727 90.1111L40.6969 86.4228ZM36.7819 95.1566C36.7819 101.47 40.3495 107.954 46.6213 114.55L50.2448 111.105C44.315 104.869 41.7819 99.5725 41.7819 95.1566H36.7819ZM48.433 110.328H33.0233V115.328H48.433V110.328ZM35.1206 111.467C30.6392 104.56 28.5285 98.1726 28.5285 92.264H23.5285C23.5285 99.3984 26.081 106.721 30.9261 114.188L35.1206 111.467ZM28.5285 92.264C28.5285 85.469 30.2697 80.4496 33.4631 76.8946L29.7435 73.5533C25.5038 78.2729 23.5285 84.6135 23.5285 92.264H28.5285ZM33.4701 76.8868C36.6342 73.3346 41.0081 71.4654 46.9078 71.4654V66.4654C39.8346 66.4654 34.0055 68.7686 29.7365 73.5611L33.4701 76.8868ZM46.9078 71.4654C50.7678 71.4654 55.7814 72.928 62.0502 76.1693C68.2837 79.3923 75.5657 84.2724 83.9091 90.8602L87.0076 86.936C78.5213 80.2354 70.9634 75.1491 64.3467 71.7279C57.7653 68.325 51.9185 66.4654 46.9078 66.4654V71.4654ZM87.9583 88.8981V65.2313H82.9583V88.8981H87.9583ZM68.7864 38.3038V40.8038H71.1884L71.2844 38.4038L68.7864 38.3038ZM55.8486 38.3038H53.3486V40.8038H55.8486V38.3038ZM53.2715 30.9934L51.4359 32.6906L51.4439 32.6993L51.4521 32.7079L53.2715 30.9934ZM42.1745 52.0831V54.5831H46.1806L44.4202 50.9845L42.1745 52.0831ZM29.2367 52.0831L26.9474 53.0878L27.6036 54.5831H29.2367V52.0831ZM31.0774 18.3186L33.0542 19.849L33.0619 19.839L31.0774 18.3186ZM61.0027 22.6838L58.8128 23.8898L61.3851 28.5605L63.3304 23.5959L61.0027 22.6838ZM95.5561 16.8986L97.4872 15.3108L97.4802 15.3023L95.5561 16.8986ZM97.2391 53.9239V56.4239H98.7798L99.4723 55.0476L97.2391 53.9239ZM82.9865 53.9239L80.9408 52.4868L78.1749 56.4239H82.9865V53.9239ZM86.142 30.0994L88.06 28.4958L88.0523 28.4866L88.0446 28.4775L86.142 30.0994ZM71.8894 29.9942L73.7034 31.7144L73.7108 31.7067L73.7181 31.6989L71.8894 29.9942ZM68.7864 35.8038H55.8486V40.8038H68.7864V35.8038ZM58.3486 38.3038C58.3486 34.7626 57.3372 31.6626 55.091 29.2789L51.4521 32.7079C52.642 33.9707 53.3486 35.7444 53.3486 38.3038H58.3486ZM55.1072 29.2963C52.9487 26.9616 50.2462 25.706 47.1182 25.706V30.706C48.7586 30.706 50.1584 31.3088 51.4359 32.6906L55.1072 29.2963ZM47.1182 25.706C43.8858 25.706 41.154 27.0464 39.0856 29.5644L42.9492 32.7381C44.1066 31.3292 45.442 30.706 47.1182 30.706V25.706ZM39.0856 29.5644C37.0397 32.0551 36.0982 35.1381 36.0982 38.6194H41.0982C41.0982 36.0701 41.7695 34.1743 42.9492 32.7381L39.0856 29.5644ZM36.0982 38.6194C36.0982 43.2047 37.4289 48.0717 39.9288 53.1818L44.4202 50.9845C42.1516 46.3474 41.0982 42.2385 41.0982 38.6194H36.0982ZM42.1745 49.5831H29.2367V54.5831H42.1745V49.5831ZM31.5259 51.0785C29.5495 46.5748 28.5285 41.3346 28.5285 35.3061H23.5285C23.5285 41.8997 24.6463 47.8443 26.9474 53.0878L31.5259 51.0785ZM28.5285 35.3061C28.5285 28.7317 30.1096 23.6525 33.0542 19.849L29.1006 16.7882C25.3133 21.68 23.5285 27.9258 23.5285 35.3061H28.5285ZM33.0619 19.839C35.9388 16.0839 39.5296 14.2971 44.0152 14.2971V9.29708C37.9122 9.29708 32.8777 11.8579 29.0929 16.7982L33.0619 19.839ZM44.0152 14.2971C50.296 14.2971 55.1856 17.3036 58.8128 23.8898L63.1926 21.4778C58.8256 13.5484 52.3903 9.29708 44.0152 9.29708V14.2971ZM63.3304 23.5959C64.8692 19.6686 67.0055 16.894 69.6566 15.0848C72.3075 13.2757 75.6684 12.2986 79.8835 12.2986V7.29856C74.8773 7.29856 70.4808 8.46897 66.8381 10.9549C63.1955 13.4408 60.5021 17.1088 58.675 21.7717L63.3304 23.5959ZM79.8835 12.2986C85.7126 12.2986 90.212 14.3724 93.6321 18.4948L97.4802 15.3023C93.0464 9.95806 87.0974 7.29856 79.8835 7.29856V12.2986ZM93.6251 18.4863C97.0513 22.6533 98.8939 28.3819 98.8939 35.9372H103.894C103.894 27.5744 101.845 20.6105 97.4872 15.3108L93.6251 18.4863ZM98.8939 35.9372C98.8939 42.0545 97.5911 47.6625 95.0059 52.8002L99.4723 55.0476C102.427 49.1759 103.894 42.7928 103.894 35.9372H98.8939ZM97.2391 51.4239H82.9865V56.4239H97.2391V51.4239ZM85.0321 55.361C89.1027 49.5669 91.3243 43.8985 91.3243 38.409H86.3243C86.3243 42.5265 84.654 47.2014 80.9408 52.4868L85.0321 55.361ZM91.3243 38.409C91.3243 34.5556 90.3019 31.1773 88.06 28.4958L84.2241 31.7029C85.5585 33.299 86.3243 35.4605 86.3243 38.409H91.3243ZM88.0446 28.4775C85.7339 25.767 82.6825 24.3912 79.0946 24.3912V29.3912C81.2569 29.3912 82.9037 30.1542 84.2395 31.7212L88.0446 28.4775ZM79.0946 24.3912C75.5391 24.3912 72.4708 25.7041 70.0607 28.2895L73.7181 31.6989C75.1647 30.147 76.8999 29.3912 79.0946 29.3912V24.3912ZM70.0753 28.274C67.633 30.8495 66.4466 34.2505 66.2884 38.2039L71.2844 38.4038C71.4068 35.3448 72.289 33.2061 73.7034 31.7144L70.0753 28.274Z" fill="white"/>
<path d="M153.938 3.76196L153.728 235.792" stroke="white" stroke-width="2" stroke-miterlimit="10" stroke-linecap="round"/>
</svg>
