<svg width="1135" height="282" viewBox="0 0 1135 282" fill="none" xmlns="http://www.w3.org/2000/svg">
<path d="M61.9767 194.673V192.173H59.4767V194.673H61.9767ZM76.9656 194.673H79.4656V192.173H76.9656V194.673ZM76.9656 243.216V245.716H79.4656V243.216H76.9656ZM74.9146 243.216L73.3301 245.15L74.0212 245.716H74.9146V243.216ZM54.2982 227.964L52.8797 230.023L52.8815 230.024L54.2982 227.964ZM18.9033 217.709L20.5912 219.553L20.5996 219.545L20.608 219.537L18.9033 217.709ZM24.9514 242.269V244.769H30.7782L26.7632 240.547L24.9514 242.269ZM9.54177 242.269L7.44447 243.63L8.18357 244.769H9.54177V242.269ZM8.12167 204.666L9.98158 206.336L9.98848 206.328L8.12167 204.666ZM61.9767 218.34L60.4275 220.302L64.4767 223.499V218.34H61.9767ZM61.9767 197.173H76.9656V192.173H61.9767V197.173ZM74.4657 194.673V243.216H79.4656V194.673H74.4657ZM76.9656 240.716H74.9146V245.716H76.9656V240.716ZM76.499 241.282C70.9927 236.771 64.0597 231.644 55.7149 225.904L52.8815 230.024C61.156 235.715 67.9673 240.756 73.3301 245.15L76.499 241.282ZM55.7167 225.906C47.3879 220.166 41.2733 216.399 37.5094 214.781L35.5343 219.374C38.7827 220.771 44.519 224.262 52.8797 230.023L55.7167 225.906ZM37.5094 214.781C33.7401 213.16 30.0037 212.316 26.3188 212.316V217.316C29.2257 217.316 32.2912 217.98 35.5343 219.374L37.5094 214.781ZM26.3188 212.316C22.8227 212.316 19.7385 213.512 17.1986 215.88L20.608 219.537C22.2053 218.048 24.0648 217.316 26.3188 217.316V212.316ZM17.2154 215.864C14.652 218.211 13.3003 221.167 13.3003 224.598H18.3003C18.3003 222.63 19.0173 220.993 20.5912 219.553L17.2154 215.864ZM13.3003 224.598C13.3003 230.911 16.868 237.396 23.1397 243.992L26.7632 240.547C20.8334 234.31 18.3003 229.014 18.3003 224.598H13.3003ZM24.9514 239.769H9.54177V244.769H24.9514V239.769ZM11.639 240.909C7.15757 234.001 5.04688 227.614 5.04688 221.706H0.046875C0.046875 228.84 2.59937 236.162 7.44447 243.63L11.639 240.909ZM5.04688 221.706C5.04688 214.911 6.78818 209.891 9.98158 206.336L6.26187 202.995C2.02227 207.715 0.046875 214.055 0.046875 221.706H5.04688ZM9.98848 206.328C13.1527 202.776 17.5266 200.907 23.4262 200.907V195.907C16.353 195.907 10.5239 198.21 6.25497 203.003L9.98848 206.328ZM23.4262 200.907C27.2862 200.907 32.2998 202.37 38.5686 205.611C44.8021 208.834 52.0841 213.714 60.4275 220.302L63.526 216.378C55.0397 209.677 47.4818 204.591 40.8651 201.17C34.2837 197.767 28.4369 195.907 23.4262 195.907V200.907ZM64.4767 218.34V194.673H59.4767V218.34H64.4767ZM12.5921 141.607L13.9535 143.704L13.9611 143.699L12.5921 141.607ZM67.9197 178.264L69.3014 180.348L69.309 180.342L67.9197 178.264ZM12.4869 178.159L11.0776 180.224L11.08 180.225L12.4869 178.159ZM58.8212 153.388L59.7015 151.048L59.694 151.045L58.8212 153.388ZM21.4277 153.388L22.3187 155.723L22.3333 155.718L22.3478 155.712L21.4277 153.388ZM21.3225 166.483L20.3524 168.787L20.3645 168.792L21.3225 166.483ZM58.7686 166.483L59.6539 168.821L59.6676 168.816L59.6813 168.811L58.7686 166.483ZM5.04688 159.804C5.04688 152.893 7.94478 147.605 13.9535 143.704L11.2308 139.51C3.84597 144.304 0.046875 151.148 0.046875 159.804H5.04688ZM13.9611 143.699C20.1096 139.675 28.6715 137.533 39.8878 137.533V132.533C28.1035 132.533 18.4683 134.773 11.2231 139.515L13.9611 143.699ZM39.8878 137.533C51.5944 137.533 60.3872 139.617 66.5292 143.508L69.205 139.285C61.9534 134.691 52.0933 132.533 39.8878 132.533V137.533ZM66.5292 143.508C72.5068 147.295 75.4124 152.566 75.4124 159.594H80.4126C80.4126 150.843 76.6206 143.983 69.205 139.285L66.5292 143.508ZM75.4124 159.594C75.4124 166.751 72.5001 172.195 66.5305 176.186L69.309 180.342C76.6626 175.427 80.4126 168.425 80.4126 159.594H75.4124ZM66.538 176.181C60.4371 180.226 51.7651 182.391 40.2559 182.391V187.391C52.3083 187.391 62.0788 185.137 69.3014 180.348L66.538 176.181ZM40.2559 182.391C28.6029 182.391 19.9122 180.19 13.8939 176.092L11.08 180.225C18.2449 185.104 28.0669 187.391 40.2559 187.391V182.391ZM13.8963 176.094C7.91937 172.014 5.04688 166.653 5.04688 159.804H0.046875C0.046875 168.383 3.80108 175.257 11.0776 180.224L13.8963 176.094ZM66.633 159.804C66.633 157.787 66.0109 155.943 64.7308 154.397C63.4851 152.892 61.7379 151.814 59.7015 151.048L57.9408 155.728C59.4457 156.294 60.3544 156.951 60.8794 157.585C61.3699 158.178 61.633 158.875 61.633 159.804H66.633ZM59.694 151.045C55.6426 149.536 48.5193 148.889 38.7307 148.889V153.889C48.5768 153.889 54.8472 154.575 57.9484 155.73L59.694 151.045ZM38.7307 148.889C30.5434 148.889 24.3534 149.541 20.5076 151.063L22.3478 155.712C25.2339 154.57 30.5793 153.889 38.7307 153.889V148.889ZM20.5367 151.052C18.5432 151.812 16.8389 152.908 15.6325 154.451C14.4018 156.024 13.8262 157.888 13.8262 159.909H18.8262C18.8262 158.88 19.1009 158.132 19.5707 157.531C20.0648 156.9 20.9112 156.26 22.3187 155.723L20.5367 151.052ZM13.8262 159.909C13.8262 161.898 14.3936 163.733 15.5849 165.301C16.7529 166.837 18.4062 167.968 20.3524 168.787L22.2927 164.179C20.908 163.596 20.0631 162.93 19.5657 162.275C19.0915 161.651 18.8262 160.901 18.8262 159.909H13.8262ZM20.3645 168.792C22.3503 169.616 25.1007 170.159 28.4525 170.508C31.8475 170.862 36.0344 171.034 40.9922 171.034V166.034C36.1327 166.034 32.1327 165.865 28.9711 165.535C25.7663 165.201 23.5906 164.718 22.2806 164.174L20.3645 168.792ZM40.9922 171.034C49.2699 171.034 55.5881 170.361 59.6539 168.821L57.8833 164.145C54.7263 165.341 49.1936 166.034 40.9922 166.034V171.034ZM59.6813 168.811C61.7405 168.003 63.4956 166.878 64.7411 165.327C66.0169 163.739 66.633 161.857 66.633 159.804H61.633C61.633 160.802 61.3551 161.558 60.8428 162.196C60.3002 162.872 59.373 163.561 57.8559 164.156L59.6813 168.811ZM61.9767 75.8132V73.3132H59.4767V75.8132H61.9767ZM76.9656 75.8132H79.4656V73.3132H76.9656V75.8132ZM76.9656 124.356V126.856H79.4656V124.356H76.9656ZM74.9146 124.356L73.3301 126.29L74.0212 126.856H74.9146V124.356ZM54.2982 109.105L52.8797 111.163L52.8815 111.164L54.2982 109.105ZM18.9033 98.8489L20.5912 100.693L20.5996 100.685L20.608 100.678L18.9033 98.8489ZM24.9514 123.41V125.91H30.7782L26.7632 121.687L24.9514 123.41ZM9.54177 123.41L7.44447 124.77L8.18357 125.91H9.54177V123.41ZM8.12167 85.8058L9.98158 87.4765L9.98848 87.4687L8.12167 85.8058ZM61.9767 99.4799L60.4275 101.442L64.4767 104.639V99.4799H61.9767ZM61.9767 78.3132H76.9656V73.3132H61.9767V78.3132ZM74.4657 75.8132V124.356H79.4656V75.8132H74.4657ZM76.9656 121.856H74.9146V126.856H76.9656V121.856ZM76.499 122.423C70.9927 117.911 64.0597 112.784 55.7149 107.045L52.8815 111.164C61.156 116.855 67.9673 121.896 73.3301 126.29L76.499 122.423ZM55.7167 107.046C47.3879 101.307 41.2733 97.5399 37.5094 95.9209L35.5343 100.514C38.7827 101.911 44.519 105.402 52.8797 111.163L55.7167 107.046ZM37.5094 95.9209C33.7401 94.2999 30.0037 93.4559 26.3188 93.4559V98.4559C29.2257 98.4559 32.2912 99.1199 35.5343 100.514L37.5094 95.9209ZM26.3188 93.4559C22.8227 93.4559 19.7385 94.6529 17.1986 97.0199L20.608 100.678C22.2053 99.1889 24.0648 98.4559 26.3188 98.4559V93.4559ZM17.2154 97.0049C14.652 99.3509 13.3003 102.307 13.3003 105.739H18.3003C18.3003 103.77 19.0173 102.134 20.5912 100.693L17.2154 97.0049ZM13.3003 105.739C13.3003 112.052 16.868 118.536 23.1397 125.132L26.7632 121.687C20.8334 115.451 18.3003 110.154 18.3003 105.739H13.3003ZM24.9514 120.91H9.54177V125.91H24.9514V120.91ZM11.639 122.049C7.15757 115.142 5.04688 108.755 5.04688 102.846H0.046875C0.046875 109.98 2.59937 117.303 7.44447 124.77L11.639 122.049ZM5.04688 102.846C5.04688 96.0509 6.78818 91.0315 9.98158 87.4765L6.26187 84.1352C2.02227 88.8548 0.046875 95.1959 0.046875 102.846H5.04688ZM9.98848 87.4687C13.1527 83.9165 17.5266 82.0473 23.4262 82.0473V77.0473C16.353 77.0473 10.5239 79.3504 6.25497 84.143L9.98848 87.4687ZM23.4262 82.0473C27.2862 82.0473 32.2998 83.5099 38.5686 86.7512C44.8021 89.9742 52.0841 94.8539 60.4275 101.442L63.526 97.5179C55.0397 90.8172 47.4818 85.7309 40.8651 82.3097C34.2837 78.9068 28.4369 77.0473 23.4262 77.0473V82.0473ZM64.4767 99.4799V75.8132H59.4767V99.4799H64.4767ZM45.3048 48.8857V51.3857H47.7068L47.8028 48.9856L45.3048 48.8857ZM32.367 48.8857H29.867V51.3857H32.367V48.8857ZM29.79 41.5753L27.9543 43.2725L27.9624 43.2812L27.9705 43.2898L29.79 41.5753ZM18.6929 62.665V65.165H22.699L20.9386 61.5664L18.6929 62.665ZM5.75507 62.665L3.46577 63.6697L4.12207 65.165H5.75507V62.665ZM7.59577 28.9005L9.57267 30.4309L9.58027 30.4209L7.59577 28.9005ZM37.5211 33.2657L35.3312 34.4717L37.9035 39.1423L39.8488 34.1777L37.5211 33.2657ZM72.0746 27.4805L74.0056 25.8927L73.9986 25.8842L72.0746 27.4805ZM73.7575 64.5058V67.0058H75.2982L75.9907 65.6295L73.7575 64.5058ZM59.5049 64.5058L57.4592 63.0686L54.6933 67.0058H59.5049V64.5058ZM62.6605 40.6812L64.5784 39.0777L64.5708 39.0685L64.563 39.0594L62.6605 40.6812ZM48.4078 40.5761L50.2219 42.2963L50.2292 42.2885L50.2365 42.2807L48.4078 40.5761ZM45.3048 46.3857H32.367V51.3857H45.3048V46.3857ZM34.867 48.8857C34.867 45.3444 33.8556 42.2445 31.6094 39.8608L27.9705 43.2898C29.1604 44.5526 29.867 46.3262 29.867 48.8857H34.867ZM31.6256 39.8782C29.4671 37.5434 26.7646 36.2879 23.6366 36.2879V41.2879C25.277 41.2879 26.6768 41.8907 27.9543 43.2725L31.6256 39.8782ZM23.6366 36.2879C20.4042 36.2879 17.6724 37.6282 15.604 40.1462L19.4677 43.3199C20.625 41.911 21.9604 41.2879 23.6366 41.2879V36.2879ZM15.604 40.1462C13.5581 42.637 12.6166 45.72 12.6166 49.2013H17.6166C17.6166 46.6519 18.2879 44.7561 19.4677 43.3199L15.604 40.1462ZM12.6166 49.2013C12.6166 53.7866 13.9473 58.6536 16.4472 63.7636L20.9386 61.5664C18.67 56.9292 17.6166 52.8204 17.6166 49.2013H12.6166ZM18.6929 60.165H5.75507V65.165H18.6929V60.165ZM8.04427 61.6604C6.06787 57.1567 5.04688 51.9165 5.04688 45.8879H0.046875C0.046875 52.4816 1.16467 58.4261 3.46577 63.6697L8.04427 61.6604ZM5.04688 45.8879C5.04688 39.3135 6.62807 34.2344 9.57267 30.4309L5.61897 27.37C1.83177 32.2619 0.046875 38.5077 0.046875 45.8879H5.04688ZM9.58027 30.4209C12.4572 26.6658 16.048 24.879 20.5336 24.879V19.879C14.4306 19.879 9.39617 22.4398 5.61127 27.3801L9.58027 30.4209ZM20.5336 24.879C26.8144 24.879 31.704 27.8854 35.3312 34.4717L39.711 32.0596C35.3441 24.1303 28.9087 19.879 20.5336 19.879V24.879ZM39.8488 34.1777C41.3876 30.2504 43.524 27.4759 46.175 25.6667C48.8259 23.8576 52.1868 22.8804 56.4019 22.8804V17.8804C51.3957 17.8804 46.9992 19.0508 43.3565 21.5368C39.714 24.0226 37.0205 27.6907 35.1934 32.3536L39.8488 34.1777ZM56.4019 22.8804C62.231 22.8804 66.7304 24.9543 70.1505 29.0767L73.9986 25.8842C69.5648 20.5399 63.6159 17.8804 56.4019 17.8804V22.8804ZM70.1435 29.0682C73.5697 33.2352 75.4124 38.9637 75.4124 46.519H80.4126C80.4126 38.1563 78.3636 31.1924 74.0056 25.8927L70.1435 29.0682ZM75.4124 46.519C75.4124 52.6363 74.1095 58.2443 71.5243 63.382L75.9907 65.6295C78.9456 59.7578 80.4126 53.3746 80.4126 46.519H75.4124ZM73.7575 62.0058H59.5049V67.0058H73.7575V62.0058ZM61.5505 65.9429C65.6211 60.1487 67.8427 54.4804 67.8427 48.9909H62.8427C62.8427 53.1084 61.1724 57.7833 57.4592 63.0686L61.5505 65.9429ZM67.8427 48.9909C67.8427 45.1374 66.8203 41.7591 64.5784 39.0777L60.7425 42.2848C62.0769 43.8809 62.8427 46.0424 62.8427 48.9909H67.8427ZM64.563 39.0594C62.2524 36.3489 59.2009 34.9731 55.613 34.9731V39.9731C57.7753 39.9731 59.4221 40.7361 60.7579 42.3031L64.563 39.0594ZM55.613 34.9731C52.0575 34.9731 48.9893 36.286 46.5791 38.8714L50.2365 42.2807C51.6832 40.7288 53.4183 39.9731 55.613 39.9731V34.9731ZM46.5938 38.8558C44.1514 41.4314 42.965 44.8324 42.8068 48.7858L47.8028 48.9856C47.9252 45.9267 48.8074 43.7879 50.2219 42.2963L46.5938 38.8558Z" fill="white"/>
<path d="M130.622 14.3438L130.412 246.374" stroke="white" stroke-width="2" stroke-miterlimit="10" stroke-linecap="round"/>
<path d="M201.599 35.2238C201.599 36.2878 202.207 37.1238 202.739 37.1238C216.039 37.1238 218.623 37.0478 220.067 37.1238C220.371 37.1238 220.979 35.9838 220.979 35.6798C220.979 30.5118 220.979 26.2558 220.675 24.4318C220.447 23.0638 220.295 22.3038 217.027 21.4678C214.215 20.7078 213.759 19.5678 213.759 19.0358C213.759 18.2758 215.127 17.3638 216.723 17.3638C219.839 17.3638 221.967 17.5918 224.855 17.5918C227.819 17.5918 235.419 17.3638 236.939 17.3638C238.459 17.3638 239.371 18.1238 239.371 19.0358C239.371 19.8718 238.459 20.7078 236.483 21.1638C234.127 21.6958 233.595 22.8358 233.367 24.6598C233.063 26.8638 232.987 32.7918 232.987 39.4038C232.987 48.8278 233.215 51.4878 233.367 54.2998C233.595 57.9478 234.887 58.5558 237.243 59.1638C239.371 59.6958 240.131 60.6078 240.131 61.4438C240.131 62.4318 238.915 63.2678 237.243 63.2678C235.799 63.2678 232.911 63.0398 230.099 63.0398C226.147 63.0398 219.611 63.4198 217.331 63.4198C215.811 63.4198 214.367 62.8118 214.367 61.5958C214.367 60.8358 215.051 60.2278 217.407 59.3158C220.219 58.2518 220.523 56.5798 220.751 55.3638C221.131 53.0078 221.283 46.8518 220.979 44.1918C220.751 42.2918 220.067 42.1398 219.991 42.1398C214.367 42.1398 203.575 42.3678 202.511 42.3678C201.979 42.3678 201.599 43.8878 201.599 44.2678C201.599 46.3198 201.675 53.6918 201.751 54.8318C201.979 57.4158 202.283 58.6318 206.083 59.5438C206.995 59.7718 208.515 60.7598 208.515 61.7478C208.515 63.0398 207.451 63.3438 205.551 63.3438C203.347 63.3438 197.875 63.0398 194.607 63.0398C192.175 63.0398 187.767 63.4198 185.487 63.4198C183.891 63.4198 182.599 62.5838 182.599 61.6718C182.599 60.8358 183.967 59.9998 185.335 59.4678C188.527 58.1758 189.135 57.4918 189.287 54.2238C189.515 50.8798 189.515 42.4438 189.515 31.4998C189.515 25.7998 189.287 25.2678 189.135 24.3558C188.831 22.6078 187.919 21.5438 184.423 20.7078C183.587 20.4798 182.751 19.7958 182.751 18.9598C182.751 18.1238 184.423 17.2878 185.867 17.2878C189.591 17.2878 194.835 17.5918 196.887 17.5918C199.243 17.5918 200.763 17.4398 203.423 17.4398C204.639 17.4398 206.159 17.8198 206.159 19.1878C206.159 20.3278 204.335 21.0118 203.423 21.3158C202.207 21.7718 201.599 23.2918 201.599 25.1918C201.599 27.5478 201.599 30.3598 201.599 35.2238ZM243.378 18.8838C243.378 17.7438 245.202 17.2118 246.114 17.2118C247.558 17.2118 256.602 17.5918 258.73 17.5918C261.77 17.5918 264.582 17.4398 265.874 17.4398C267.242 17.4398 268.306 18.1998 268.306 19.0358C268.306 19.4918 267.622 20.4798 265.722 21.2398C264.126 21.9238 264.202 22.5318 264.962 24.2038C267.394 29.2958 271.27 35.6798 272.486 37.7318C272.79 38.1878 273.398 38.1118 273.778 37.8078C274.614 37.0478 278.946 28.6878 280.314 25.6478C281.606 22.9118 281.15 22.1518 278.338 21.1638C277.198 20.7838 275.906 20.0998 275.906 19.1118C275.906 18.0478 277.274 17.4398 278.87 17.4398C282.29 17.4398 282.214 17.5918 284.114 17.5918C287.002 17.5918 290.498 17.2878 293.158 17.2878C294.45 17.2878 295.362 18.1238 295.362 18.8078C295.362 19.7198 294.222 20.6318 292.778 21.0878C290.27 21.9238 288.142 23.1398 285.786 26.3318C282.442 30.8918 277.122 39.2518 275.602 42.5958C275.146 43.5838 275.146 44.4198 275.07 46.0158C274.918 48.5998 274.918 53.6158 274.918 55.8198C275.146 57.7198 277.122 58.5558 280.162 59.6198C281.53 60.0758 282.214 60.8358 282.214 61.6718C282.214 62.4318 281.074 63.4958 279.554 63.4958C276.59 63.4958 273.93 63.0398 269.294 63.0398C262.834 63.0398 261.998 63.2678 259.262 63.2678C257.058 63.2678 255.842 62.5838 255.842 61.3678C255.842 60.5318 257.134 59.5438 259.186 59.0118C261.694 58.4038 262.378 57.9478 262.606 54.0718C262.758 51.5638 262.758 47.1558 262.758 45.6358C262.758 44.3438 262.454 43.1278 261.238 40.9998C257.97 34.9198 254.094 28.2318 251.738 25.0398C250.598 23.4438 249.306 21.9238 246.266 21.0878C244.29 20.5558 243.378 19.8718 243.378 18.8838ZM322.545 17.0598C329.841 17.0598 337.365 18.6558 342.989 23.3678C349.373 28.7638 350.665 35.5278 350.665 40.2398C350.665 51.8678 342.913 57.8718 338.809 60.1518C333.413 63.0398 327.713 63.6478 322.089 63.6478C318.973 63.6478 310.689 63.0398 308.257 63.0398C305.825 63.0398 302.405 63.0398 298.757 63.3438C298.149 63.4198 297.541 62.8878 297.541 62.3558C297.541 61.5198 298.681 59.6958 300.581 59.1638C303.013 58.4798 304.305 58.7078 304.913 55.2878C305.445 52.3238 305.445 48.5238 305.445 38.4918C305.445 28.0798 305.597 26.7878 305.065 24.1278C304.913 23.2918 304.761 22.1518 301.189 21.3918C299.365 21.0118 298.301 20.1758 298.301 19.1118C298.301 17.9718 299.517 17.5158 301.721 17.5158L306.965 17.5918C309.625 17.6678 317.225 17.0598 322.545 17.0598ZM322.545 21.0878C321.937 21.0878 319.429 21.3918 318.897 21.6958C318.593 21.8478 317.833 23.2918 317.833 23.5958C317.681 26.1798 317.377 29.4478 317.377 35.1478V40.6198C317.377 50.3478 317.681 51.5638 317.909 53.8438C318.061 55.4398 318.897 57.0358 319.809 57.7958C320.645 58.4798 323.381 59.7718 324.369 59.7718C325.205 59.7718 329.309 58.8598 332.653 55.6678C336.073 52.3998 337.517 46.0158 337.517 40.9238C337.517 35.3758 336.073 29.6758 332.197 25.8758C328.853 22.5318 324.977 21.0878 322.545 21.0878ZM398.514 29.5238C398.514 32.4118 397.07 35.6798 395.094 37.3518C393.954 38.3398 392.89 38.5678 391.294 39.4798C390.914 39.7078 391.294 41.1518 391.522 41.6078C393.194 44.9518 396.614 50.5758 399.502 54.2238C402.162 57.5678 404.518 58.8598 406.874 59.7718C407.634 60.0758 408.622 60.7598 408.622 61.4438C408.622 63.4198 406.19 64.0278 404.138 64.0278C398.058 64.0278 392.206 63.4198 386.886 56.5038C384.15 52.9318 382.098 49.1318 379.97 45.7118C378.754 43.7358 377.69 43.3558 376.474 43.3558C375.942 43.3558 375.866 44.2678 375.866 44.4958C375.866 50.5758 375.866 52.3998 376.094 55.0598C376.322 57.7958 377.082 57.8718 380.122 59.3158C381.49 59.9998 382.402 60.8358 382.402 61.4438C382.402 62.2798 380.806 63.3438 379.514 63.3438C377.614 63.3438 371.762 63.0398 369.102 63.0398C366.746 63.0398 363.174 63.3438 360.362 63.3438C358.538 63.3438 357.474 62.4318 357.474 61.6718C357.474 60.6078 358.538 59.8478 359.982 59.4678C363.098 58.5558 363.858 57.9478 364.01 54.1478C364.086 51.4118 364.086 50.0438 364.086 36.3638C364.086 27.0158 363.858 26.5598 363.706 24.9638C363.554 23.4438 362.87 21.9238 359.982 21.3918C358.538 21.0878 357.626 19.9478 357.626 19.4158C357.626 18.1238 359.146 17.4398 360.97 17.4398C364.846 17.4398 366.138 17.5918 367.126 17.5918C372.142 17.5918 376.322 17.1358 381.642 17.1358C388.33 17.1358 391.826 18.5798 393.65 19.9478C396.918 22.4558 398.514 25.4958 398.514 29.5238ZM386.81 30.8158C386.81 26.0278 383.542 21.3158 378.07 21.3158C377.766 21.3158 376.626 21.6198 376.17 21.9238C375.942 22.0758 375.714 22.4558 375.714 23.1398C375.714 25.2678 375.866 32.3358 375.866 37.4278C375.866 37.7318 376.17 38.6438 376.474 38.7958C377.538 39.2518 378.526 39.4798 379.818 39.4798C381.49 39.4798 384.226 37.7318 384.682 37.4278C385.138 37.1238 386.81 34.4638 386.81 30.8158ZM437.318 16.0718C453.126 16.0718 463.766 26.7118 463.766 40.3158C463.766 49.8158 458.142 57.2638 450.998 61.2158C447.73 63.0398 442.41 64.4078 437.546 64.4078C421.51 64.4078 411.022 53.4638 411.022 40.3158C411.022 34.4638 413.226 28.6878 417.938 23.9758C422.878 19.0358 430.174 16.0718 437.318 16.0718ZM435.95 20.0238C432.378 20.0238 429.186 23.0638 429.11 23.1398C425.918 26.6358 424.55 31.8038 424.55 38.9478C424.55 49.2838 429.262 60.5318 439.522 60.5318C442.106 60.5318 445.146 58.2518 445.526 57.9478C447.958 55.6678 449.934 50.8798 449.934 40.8478C449.934 32.8678 445.982 20.0238 435.95 20.0238ZM484.655 17.5918H507.911C512.167 17.5918 514.067 17.0598 514.371 16.6798C515.283 15.5398 516.119 14.8558 516.651 14.8558C517.107 14.8558 519.083 16.0718 519.083 17.2878C519.083 17.8198 518.171 22.6078 518.171 27.6998C518.171 29.2198 517.031 30.8918 515.587 30.8918C514.523 30.8918 513.915 28.9918 513.763 28.3078C512.623 23.2918 511.331 23.1398 508.595 22.8358C507.455 22.6838 507.227 22.4558 500.767 22.4558C500.387 22.4558 500.159 23.0638 500.083 23.8238C500.007 24.8878 499.551 35.1478 499.551 39.9358C499.551 44.5718 499.475 49.5878 499.703 52.3238C500.159 57.8718 501.451 58.0998 504.567 59.2398C505.935 59.7718 507.227 60.4558 507.227 61.3678C507.227 63.0398 505.403 63.4198 503.883 63.4198C503.123 63.4198 494.763 63.0398 490.203 63.0398C487.999 63.0398 483.895 63.2678 481.843 63.2678C480.247 63.2678 478.727 62.5838 478.727 61.2158C478.727 60.6078 479.487 59.5438 481.235 59.0878C485.947 57.7958 487.239 56.8078 487.239 52.6278C487.239 51.0318 487.391 40.9238 487.391 35.9838C487.391 31.2718 487.467 26.2558 487.467 23.8998C487.467 23.2918 486.707 22.4558 486.479 22.4558C484.579 22.4558 481.767 22.4558 479.791 22.5318C477.663 22.6078 475.611 22.6078 473.559 28.3078C473.103 29.5998 472.191 30.5878 471.355 30.5878C470.367 30.5878 469.227 29.2198 469.227 27.3958C469.227 25.0398 470.063 21.6198 470.063 17.4398C470.063 16.1478 471.203 15.0078 472.115 15.0078C472.343 15.0078 473.255 15.4638 473.787 15.8438C475.079 16.9078 476.219 17.3638 478.423 17.4398C481.539 17.5918 482.223 17.5918 484.655 17.5918ZM543.599 35.2238C543.599 36.2878 544.207 37.1238 544.739 37.1238C558.039 37.1238 560.623 37.0478 562.067 37.1238C562.371 37.1238 562.979 35.9838 562.979 35.6798C562.979 30.5118 562.979 26.2558 562.675 24.4318C562.447 23.0638 562.295 22.3038 559.027 21.4678C556.215 20.7078 555.759 19.5678 555.759 19.0358C555.759 18.2758 557.127 17.3638 558.723 17.3638C561.839 17.3638 563.967 17.5918 566.855 17.5918C569.819 17.5918 577.419 17.3638 578.939 17.3638C580.459 17.3638 581.371 18.1238 581.371 19.0358C581.371 19.8718 580.459 20.7078 578.483 21.1638C576.127 21.6958 575.595 22.8358 575.367 24.6598C575.063 26.8638 574.987 32.7918 574.987 39.4038C574.987 48.8278 575.215 51.4878 575.367 54.2998C575.595 57.9478 576.887 58.5558 579.243 59.1638C581.371 59.6958 582.131 60.6078 582.131 61.4438C582.131 62.4318 580.915 63.2678 579.243 63.2678C577.799 63.2678 574.911 63.0398 572.099 63.0398C568.147 63.0398 561.611 63.4198 559.331 63.4198C557.811 63.4198 556.367 62.8118 556.367 61.5958C556.367 60.8358 557.051 60.2278 559.407 59.3158C562.219 58.2518 562.523 56.5798 562.751 55.3638C563.131 53.0078 563.283 46.8518 562.979 44.1918C562.751 42.2918 562.067 42.1398 561.991 42.1398C556.367 42.1398 545.575 42.3678 544.511 42.3678C543.979 42.3678 543.599 43.8878 543.599 44.2678C543.599 46.3198 543.675 53.6918 543.751 54.8318C543.979 57.4158 544.283 58.6318 548.083 59.5438C548.995 59.7718 550.515 60.7598 550.515 61.7478C550.515 63.0398 549.451 63.3438 547.551 63.3438C545.347 63.3438 539.875 63.0398 536.607 63.0398C534.175 63.0398 529.767 63.4198 527.487 63.4198C525.891 63.4198 524.599 62.5838 524.599 61.6718C524.599 60.8358 525.967 59.9998 527.335 59.4678C530.527 58.1758 531.135 57.4918 531.287 54.2238C531.515 50.8798 531.515 42.4438 531.515 31.4998C531.515 25.7998 531.287 25.2678 531.135 24.3558C530.831 22.6078 529.919 21.5438 526.423 20.7078C525.587 20.4798 524.751 19.7958 524.751 18.9598C524.751 18.1238 526.423 17.2878 527.867 17.2878C531.591 17.2878 536.835 17.5918 538.887 17.5918C541.243 17.5918 542.763 17.4398 545.423 17.4398C546.639 17.4398 548.159 17.8198 548.159 19.1878C548.159 20.3278 546.335 21.0118 545.423 21.3158C544.207 21.7718 543.599 23.2918 543.599 25.1918C543.599 27.5478 543.599 30.3598 543.599 35.2238ZM605.082 17.5918H612.91C619.826 17.5918 620.89 17.5918 622.638 17.2118C623.474 17.0598 624.006 17.5158 624.234 17.8958C624.69 18.6558 625.298 24.4318 625.298 26.1038C625.298 28.0798 624.386 28.5358 623.93 28.5358C622.562 28.5358 621.802 27.6998 620.89 25.6478C619.446 22.5318 618.382 21.9998 617.774 21.9998C613.442 21.9998 609.262 22.2278 608.198 22.2278C607.818 22.2278 607.21 23.0638 607.21 23.3678C607.134 24.8118 606.982 30.2838 606.982 35.5278C606.982 36.7438 607.21 37.5038 607.59 37.5798C608.426 37.8078 611.086 37.7318 612.454 37.6558C615.874 37.4278 616.938 36.2118 617.774 34.3118C618.23 33.1718 618.99 32.2598 619.826 32.2598C620.89 32.2598 621.574 33.3238 621.422 35.5278C621.346 36.4398 621.27 38.1878 621.27 39.9358C621.27 41.6838 621.422 43.4318 621.498 44.5718C621.65 46.6238 620.51 47.5358 619.75 47.5358C619.066 47.5358 618.078 46.6998 617.394 45.1798C616.634 43.4318 616.406 42.8998 614.81 42.7478C611.694 42.5198 611.238 42.3678 607.818 42.3678C607.438 42.3678 606.982 43.4318 606.982 45.3318C606.982 47.3838 607.21 51.7918 607.286 53.4638C607.438 55.6678 607.742 56.5038 607.97 56.8078C608.73 57.9478 612.378 58.9358 616.026 58.9358C617.242 58.9358 619.37 58.7078 621.118 57.7198C622.562 56.9598 623.322 56.0478 624.994 53.7678C626.21 52.0958 627.046 50.2718 628.262 50.2718C629.706 50.2718 630.162 52.4758 629.858 54.0718C629.402 56.2758 627.578 61.3678 627.274 62.0518C627.046 62.5838 625.45 63.4198 624.994 63.4198C624.006 63.4198 620.966 63.0398 607.134 63.0398C602.346 63.0398 592.77 63.3438 589.502 63.3438C587.906 63.3438 586.766 62.7358 586.766 62.1278C586.766 61.2158 587.374 60.1518 588.97 59.6958C594.214 58.2518 594.366 56.5038 594.518 55.1358C594.822 51.4878 594.898 49.8918 594.898 38.1878C594.898 26.4838 594.746 26.0278 594.518 24.6598C594.138 22.3798 593.15 21.5438 590.11 20.7838C588.134 20.3278 587.83 19.2638 587.83 18.7318C587.83 17.7438 589.35 17.2118 590.338 17.2118C591.63 17.2118 600.066 17.5918 605.082 17.5918ZM678.171 29.5238C678.171 32.4118 676.727 35.6798 674.751 37.3518C673.611 38.3398 672.547 38.5678 670.951 39.4798C670.571 39.7078 670.951 41.1518 671.179 41.6078C672.851 44.9518 676.271 50.5758 679.159 54.2238C681.819 57.5678 684.175 58.8598 686.531 59.7718C687.291 60.0758 688.279 60.7598 688.279 61.4438C688.279 63.4198 685.847 64.0278 683.795 64.0278C677.715 64.0278 671.863 63.4198 666.543 56.5038C663.807 52.9318 661.755 49.1318 659.627 45.7118C658.411 43.7358 657.347 43.3558 656.131 43.3558C655.599 43.3558 655.523 44.2678 655.523 44.4958C655.523 50.5758 655.523 52.3998 655.751 55.0598C655.979 57.7958 656.739 57.8718 659.779 59.3158C661.147 59.9998 662.059 60.8358 662.059 61.4438C662.059 62.2798 660.463 63.3438 659.171 63.3438C657.271 63.3438 651.419 63.0398 648.759 63.0398C646.403 63.0398 642.831 63.3438 640.019 63.3438C638.195 63.3438 637.131 62.4318 637.131 61.6718C637.131 60.6078 638.195 59.8478 639.639 59.4678C642.755 58.5558 643.515 57.9478 643.667 54.1478C643.743 51.4118 643.743 50.0438 643.743 36.3638C643.743 27.0158 643.515 26.5598 643.363 24.9638C643.211 23.4438 642.527 21.9238 639.639 21.3918C638.195 21.0878 637.283 19.9478 637.283 19.4158C637.283 18.1238 638.803 17.4398 640.627 17.4398C644.503 17.4398 645.795 17.5918 646.783 17.5918C651.799 17.5918 655.979 17.1358 661.299 17.1358C667.987 17.1358 671.483 18.5798 673.307 19.9478C676.575 22.4558 678.171 25.4958 678.171 29.5238ZM666.467 30.8158C666.467 26.0278 663.199 21.3158 657.727 21.3158C657.423 21.3158 656.283 21.6198 655.827 21.9238C655.599 22.0758 655.371 22.4558 655.371 23.1398C655.371 25.2678 655.523 32.3358 655.523 37.4278C655.523 37.7318 655.827 38.6438 656.131 38.7958C657.195 39.2518 658.183 39.4798 659.475 39.4798C661.147 39.4798 663.883 37.7318 664.339 37.4278C664.795 37.1238 666.467 34.4638 666.467 30.8158ZM693.062 19.4158C693.062 18.5798 694.202 17.2878 695.874 17.2878C697.774 17.2878 709.782 17.5918 710.238 17.5918C710.618 17.5918 711.682 18.8838 711.758 19.0358C712.062 20.0998 713.05 21.9238 714.646 25.6478C716.318 29.5238 722.17 42.5198 723.918 44.6478C723.918 44.7238 724.602 45.0278 724.83 44.4958C727.338 39.0998 730.682 32.1078 733.19 26.3318C734.634 22.9878 735.166 20.8598 735.774 19.1878C735.926 18.7318 736.762 17.7438 737.218 17.7438C738.51 17.7438 749.454 17.2118 751.886 17.2118C752.646 17.2118 754.394 17.9718 754.394 19.0358C754.394 19.9478 753.71 20.4038 752.19 20.8598C747.326 22.3038 747.174 22.6838 747.174 24.6598C747.174 35.4518 747.706 44.1918 748.01 52.0958C748.238 58.3278 749.834 58.7838 752.418 59.3918C754.774 59.9238 755.534 60.7598 755.534 61.6718C755.534 62.4318 754.09 63.4958 752.494 63.4958C751.582 63.4958 743.07 63.0398 739.422 63.0398C736.002 63.0398 734.102 63.3438 732.278 63.3438C730.378 63.3438 729.846 61.7478 729.846 61.2158C729.846 60.6078 731.062 59.9998 731.442 59.8478C735.166 58.5558 735.85 57.6438 735.926 53.4638C736.002 51.4878 735.85 37.8078 736.078 30.5118C736.078 30.1318 735.546 30.2078 735.166 30.8918C734.178 32.7158 727.566 48.5998 725.97 52.3998C725.134 54.3758 723.918 58.0238 722.854 60.6078C722.094 62.3558 720.726 63.5718 719.054 63.5718C718.37 63.5718 717.23 62.2798 716.85 60.9878C715.71 57.2638 714.19 53.6158 713.506 51.6398C710.162 42.2158 707.122 36.4398 705.222 31.8038C704.918 31.0438 704.31 31.1958 704.31 31.7278C703.702 40.4678 703.322 49.2078 703.322 53.0838C703.322 57.6438 703.854 57.8718 707.882 59.4678C709.554 60.1518 710.314 60.6078 710.314 61.5958C710.314 62.4318 709.25 63.3438 707.502 63.3438C706.438 63.3438 703.702 63.0398 701.498 63.0398C699.066 63.0398 693.518 63.4958 692.53 63.4958C691.086 63.4958 689.718 62.7358 689.718 61.7478C689.718 61.0638 690.402 60.3038 692.226 59.6958C696.026 58.4798 697.242 56.9598 697.774 53.7678C698.686 48.5238 700.434 30.8158 700.586 26.8638C700.738 22.7598 699.598 22.2278 695.798 21.1638C693.898 20.6318 693.062 20.0238 693.062 19.4158ZM789.307 16.0718C790.675 16.0718 791.131 18.3518 793.107 23.4438C797.211 34.4638 803.443 49.2078 805.495 53.8438C807.395 58.0998 808.459 58.1758 811.423 59.3918C813.171 60.1518 813.779 61.2918 813.779 62.1278C813.779 63.0398 812.563 63.4198 811.119 63.4198C808.763 63.4198 802.835 63.0398 799.111 63.0398C795.843 63.0398 793.791 63.4198 791.055 63.4198C788.927 63.4198 788.243 62.5078 788.243 61.9758C788.243 61.0638 789.155 59.9998 790.599 59.3918C793.259 58.2518 793.259 56.5798 792.879 55.2878C792.195 53.3878 792.119 53.0078 791.131 50.7278C791.055 50.4998 790.371 49.6638 789.155 49.5118C787.863 49.3598 778.363 49.2078 776.615 49.5878C776.159 49.6638 775.551 50.4238 775.399 50.7278C774.791 52.2478 774.183 55.1358 774.183 56.1238C774.183 57.4918 775.171 58.6318 777.603 59.4678C778.667 59.8478 779.807 60.4558 779.807 61.4438C779.807 61.8238 778.743 63.2678 776.767 63.2678C775.855 63.2678 774.183 63.0398 771.751 63.0398C768.939 63.0398 765.823 63.4198 762.631 63.4198C760.959 63.4198 759.819 62.6598 759.819 61.7478C759.819 60.9878 760.427 60.2278 762.099 59.5438C764.911 58.4038 766.431 58.1758 768.863 53.0838C770.763 49.0558 776.159 35.3758 780.719 23.3678C780.795 23.1398 780.947 22.6078 780.947 21.7718C780.947 21.4678 781.327 20.9358 781.631 20.7078C782.619 20.0998 786.419 17.5918 787.255 16.9078C787.711 16.4518 788.927 16.0718 789.307 16.0718ZM787.787 44.4198C788.167 44.4198 788.623 43.7358 788.547 43.5078C787.407 39.7838 784.215 31.6518 783.531 30.4358C783.227 29.9038 782.771 30.1318 782.543 30.4358C781.327 32.9438 778.059 42.2918 777.831 43.4318C777.755 43.8878 778.135 44.4958 778.667 44.4958C779.655 44.4958 786.723 44.4958 787.787 44.4198ZM817.776 18.9598C817.776 17.7438 819.22 17.4398 820.208 17.4398C820.588 17.4398 827.2 17.5918 830.24 17.5918C833.28 17.5918 839.208 17.3638 840.728 17.3638C842.324 17.3638 843.236 18.1238 843.236 19.0358C843.236 19.9478 842.248 20.7078 840.652 21.0118C836.396 21.9238 836.168 23.5958 836.092 25.1918C835.94 26.9398 835.636 31.1958 835.636 37.7318C835.636 45.7118 835.864 53.0078 836.016 55.5918C836.092 56.7318 837.916 58.3278 840.804 59.0118C841.868 59.2398 844.376 59.3158 847.112 58.7838C849.392 58.3278 853.192 53.8438 854.788 50.9558C855.548 49.5118 856.384 48.9798 856.612 48.9798C857.98 48.9798 858.892 50.5758 858.512 51.9438C857.98 53.8438 856.536 59.8478 856.004 61.3678C855.548 62.5078 854.18 63.2678 852.66 63.2678C850 63.2678 841.944 63.0398 832.52 63.0398C827.352 63.0398 819.752 63.4198 818.08 63.4198C816.408 63.4198 815.116 62.5838 815.116 61.5198C815.116 60.4558 816.256 59.9238 817.548 59.6958C822.64 58.7078 823.172 56.8838 823.324 55.1358C823.476 52.8558 823.628 49.6638 823.628 40.6198C823.628 26.8638 823.704 27.0158 823.552 24.9638C823.324 22.4558 822.488 22.0758 819.98 21.0118C818.384 20.3278 817.776 19.7958 817.776 18.9598ZM875.371 18.9598C875.371 18.1998 876.663 17.1358 878.411 17.1358C880.919 17.1358 885.783 17.5918 888.595 17.5918C891.331 17.5918 894.751 17.5158 896.803 17.5158C898.551 17.5158 899.919 18.4278 899.919 19.6438C899.919 20.4798 898.475 21.1638 897.259 21.6958C895.815 22.3038 895.663 23.1398 896.195 24.9638C896.955 27.6998 904.327 45.0278 905.239 46.2438C905.543 46.6238 905.999 46.8518 906.303 46.3198C909.419 39.4038 912.915 30.8918 914.587 25.9518C915.423 23.4438 915.195 22.6078 912.459 21.6198C911.015 21.0878 909.799 20.3278 909.799 19.2638C909.799 18.2758 911.091 17.5158 912.915 17.5158C914.587 17.5158 916.791 17.5918 918.387 17.5918C921.275 17.5918 923.555 17.2118 926.063 17.2118C927.811 17.2118 929.103 18.0478 929.103 18.8838C929.103 20.0998 928.115 20.7838 926.443 21.2398C922.339 22.4558 921.199 24.5838 919.527 27.6998C917.247 31.9558 911.167 45.2558 908.355 52.7038C906.759 56.8838 905.391 60.5318 904.935 61.5198C904.555 62.4318 902.123 64.6358 901.211 64.6358C899.767 64.6358 899.007 63.8758 898.475 62.2798C898.095 61.1398 896.575 57.2638 895.131 53.4638C893.611 49.4358 886.315 32.5638 882.743 25.0398C881.831 23.0638 880.919 22.3798 877.955 21.1638C876.587 20.6318 875.371 19.8718 875.371 18.9598ZM949.16 17.5918H956.988C963.904 17.5918 964.968 17.5918 966.716 17.2118C967.552 17.0598 968.084 17.5158 968.312 17.8958C968.768 18.6558 969.376 24.4318 969.376 26.1038C969.376 28.0798 968.464 28.5358 968.008 28.5358C966.64 28.5358 965.88 27.6998 964.968 25.6478C963.524 22.5318 962.46 21.9998 961.852 21.9998C957.52 21.9998 953.34 22.2278 952.276 22.2278C951.896 22.2278 951.288 23.0638 951.288 23.3678C951.212 24.8118 951.06 30.2838 951.06 35.5278C951.06 36.7438 951.288 37.5038 951.668 37.5798C952.504 37.8078 955.164 37.7318 956.532 37.6558C959.952 37.4278 961.016 36.2118 961.852 34.3118C962.308 33.1718 963.068 32.2598 963.904 32.2598C964.968 32.2598 965.652 33.3238 965.5 35.5278C965.424 36.4398 965.348 38.1878 965.348 39.9358C965.348 41.6838 965.5 43.4318 965.576 44.5718C965.728 46.6238 964.588 47.5358 963.828 47.5358C963.144 47.5358 962.156 46.6998 961.472 45.1798C960.712 43.4318 960.484 42.8998 958.888 42.7478C955.772 42.5198 955.316 42.3678 951.896 42.3678C951.516 42.3678 951.06 43.4318 951.06 45.3318C951.06 47.3838 951.288 51.7918 951.364 53.4638C951.516 55.6678 951.82 56.5038 952.048 56.8078C952.808 57.9478 956.456 58.9358 960.104 58.9358C961.32 58.9358 963.448 58.7078 965.196 57.7198C966.64 56.9598 967.4 56.0478 969.072 53.7678C970.288 52.0958 971.124 50.2718 972.34 50.2718C973.784 50.2718 974.24 52.4758 973.936 54.0718C973.48 56.2758 971.656 61.3678 971.352 62.0518C971.124 62.5838 969.528 63.4198 969.072 63.4198C968.084 63.4198 965.044 63.0398 951.212 63.0398C946.424 63.0398 936.848 63.3438 933.58 63.3438C931.984 63.3438 930.844 62.7358 930.844 62.1278C930.844 61.2158 931.452 60.1518 933.048 59.6958C938.292 58.2518 938.444 56.5038 938.596 55.1358C938.9 51.4878 938.976 49.8918 938.976 38.1878C938.976 26.4838 938.824 26.0278 938.596 24.6598C938.216 22.3798 937.228 21.5438 934.188 20.7838C932.212 20.3278 931.908 19.2638 931.908 18.7318C931.908 17.7438 933.428 17.2118 934.416 17.2118C935.708 17.2118 944.144 17.5918 949.16 17.5918ZM979.309 18.4278C979.309 17.8958 979.917 17.1358 981.285 17.1358C984.325 17.1358 990.405 17.7438 995.269 17.7438C995.953 17.7438 997.017 18.2758 997.245 18.5798C998.537 20.3278 1000.89 22.8358 1004.54 26.7878C1008.57 31.1198 1020.65 43.8878 1022.32 44.7998C1022.55 44.8758 1023.16 44.7238 1023.24 44.4958C1023.69 42.4438 1023.69 35.1478 1023.46 29.9038C1023.24 24.7358 1023.62 22.7598 1017.69 21.3918C1015.86 20.9358 1015.18 19.6438 1015.18 19.1878C1015.18 18.6558 1016.02 17.5158 1017.84 17.5158C1020.58 17.5158 1020.42 17.5918 1022.4 17.5918C1025.52 17.5918 1031.29 17.2118 1032.81 17.2118C1034.41 17.2118 1035.47 17.6678 1035.47 18.9598C1035.47 19.7958 1034.86 20.3278 1032.43 21.3918C1029.32 22.7598 1028.86 23.5958 1028.78 24.5838C1028.63 28.0798 1028.02 43.7358 1028.02 48.8278C1028.02 52.1718 1028.33 55.5158 1028.33 59.0118C1028.33 62.2038 1027.72 64.5598 1026.35 64.5598C1023.92 64.5598 1021.94 63.1918 1020.5 61.5198C1017.69 58.3278 1014.12 54.1478 1011.99 51.7918C1009.1 48.4478 997.245 35.8318 993.901 32.1838C993.673 31.9558 993.141 32.4118 993.141 32.7158C993.065 34.3878 992.913 34.6158 992.913 37.8838C992.913 41.3038 993.065 48.1438 993.141 50.1958C993.369 56.1238 994.357 57.9478 997.017 59.0118C999.601 59.9998 1000.44 60.8358 1000.44 61.8998C1000.44 62.8118 999.601 63.3438 997.853 63.3438C995.725 63.3438 993.141 63.0398 989.569 63.0398C985.997 63.0398 984.097 63.3438 983.109 63.3438C980.829 63.3438 980.069 62.5078 980.069 61.7478C980.069 60.7598 980.981 60.0758 982.349 59.6198C985.845 58.4798 987.213 58.2518 987.593 53.1598C987.973 48.0678 988.581 29.9038 988.581 27.4718C988.581 27.0158 988.201 25.4198 987.213 24.2798C985.617 22.4558 984.249 21.5438 982.501 21.1638C980.753 20.7838 979.309 19.8718 979.309 18.4278ZM1055.69 17.5918H1078.95C1083.21 17.5918 1085.11 17.0598 1085.41 16.6798C1086.32 15.5398 1087.16 14.8558 1087.69 14.8558C1088.15 14.8558 1090.12 16.0718 1090.12 17.2878C1090.12 17.8198 1089.21 22.6078 1089.21 27.6998C1089.21 29.2198 1088.07 30.8918 1086.63 30.8918C1085.56 30.8918 1084.95 28.9918 1084.8 28.3078C1083.66 23.2918 1082.37 23.1398 1079.63 22.8358C1078.49 22.6838 1078.27 22.4558 1071.81 22.4558C1071.43 22.4558 1071.2 23.0638 1071.12 23.8238C1071.05 24.8878 1070.59 35.1478 1070.59 39.9358C1070.59 44.5718 1070.51 49.5878 1070.74 52.3238C1071.2 57.8718 1072.49 58.0998 1075.61 59.2398C1076.97 59.7718 1078.27 60.4558 1078.27 61.3678C1078.27 63.0398 1076.44 63.4198 1074.92 63.4198C1074.16 63.4198 1065.8 63.0398 1061.24 63.0398C1059.04 63.0398 1054.93 63.2678 1052.88 63.2678C1051.29 63.2678 1049.77 62.5838 1049.77 61.2158C1049.77 60.6078 1050.53 59.5438 1052.27 59.0878C1056.99 57.7958 1058.28 56.8078 1058.28 52.6278C1058.28 51.0318 1058.43 40.9238 1058.43 35.9838C1058.43 31.2718 1058.51 26.2558 1058.51 23.8998C1058.51 23.2918 1057.75 22.4558 1057.52 22.4558C1055.62 22.4558 1052.81 22.4558 1050.83 22.5318C1048.7 22.6078 1046.65 22.6078 1044.6 28.3078C1044.14 29.5998 1043.23 30.5878 1042.39 30.5878C1041.41 30.5878 1040.27 29.2198 1040.27 27.3958C1040.27 25.0398 1041.1 21.6198 1041.1 17.4398C1041.1 16.1478 1042.24 15.0078 1043.15 15.0078C1043.38 15.0078 1044.29 15.4638 1044.83 15.8438C1046.12 16.9078 1047.26 17.3638 1049.46 17.4398C1052.58 17.5918 1053.26 17.5918 1055.69 17.5918ZM1114.76 16.1478C1119.01 16.1478 1123.04 17.5158 1126 18.1998C1126.46 18.2758 1126.99 19.4918 1126.99 20.3278C1126.99 21.2398 1127.52 25.4198 1127.52 26.5598C1127.52 29.1438 1126.31 30.2078 1125.24 30.2078C1124.41 30.2078 1123.72 28.9158 1123.5 28.3078C1121.82 23.7478 1117.87 19.6438 1113.54 19.6438C1110.35 19.6438 1107.46 22.6078 1107.46 25.4958C1107.46 28.9158 1109.97 31.4238 1114.3 33.6278C1123.88 38.4918 1129.5 42.7478 1129.5 49.9678C1129.5 56.1998 1125.24 59.6958 1122.51 61.3678C1119.54 63.1158 1114.53 64.4078 1111.03 64.4078C1104.57 64.4078 1100.85 63.0398 1099.1 62.3558C1098.57 62.1278 1097.35 61.4438 1096.97 60.6078C1095.68 57.8718 1095.45 53.9198 1095.45 52.0958C1095.45 50.6518 1096.21 48.8278 1097.43 48.8278C1098.26 48.8278 1099.25 49.7398 1100.32 51.7158C1103.13 56.8838 1107.31 60.6078 1112.02 60.6078C1114.76 60.6078 1118.18 58.7078 1118.18 55.2118C1118.18 52.9318 1118.33 50.4238 1110.58 46.2438C1100.62 40.9238 1096.74 36.8198 1096.74 29.7518C1096.74 24.8118 1100.24 20.7838 1103.89 18.7318C1106.78 17.1358 1110.42 16.1478 1114.76 16.1478Z" fill="white"/>
<path d="M219.44 96.7564C240.24 96.7564 254.24 110.756 254.24 128.656C254.24 141.156 246.84 150.956 237.44 156.156C233.14 158.556 226.14 160.356 219.74 160.356C198.64 160.356 184.84 145.956 184.84 128.656C184.84 120.956 187.74 113.356 193.94 107.156C200.44 100.656 210.04 96.7564 219.44 96.7564ZM217.64 101.956C212.94 101.956 208.74 105.956 208.64 106.056C204.44 110.656 202.64 117.456 202.64 126.856C202.64 140.456 208.84 155.256 222.34 155.256C225.74 155.256 229.74 152.256 230.24 151.856C233.44 148.856 236.04 142.556 236.04 129.356C236.04 118.856 230.84 101.956 217.64 101.956ZM280.511 98.7564H296.611C309.511 98.7564 311.711 98.1564 312.111 98.1564C313.011 98.1564 314.011 99.2564 314.011 100.156V109.956C314.011 112.756 312.411 114.356 311.211 114.356C310.411 114.356 309.211 112.956 308.611 110.856C307.911 108.556 306.511 104.856 303.011 104.556C300.211 104.356 292.411 104.356 289.311 104.356C288.211 104.356 287.511 106.056 287.411 107.156C287.111 110.756 287.011 121.856 287.211 124.656C287.311 125.756 287.611 126.356 288.511 126.356C290.611 126.356 294.611 126.156 297.311 125.856C300.511 125.456 300.811 124.656 302.111 121.756C302.611 120.656 303.911 118.656 305.111 118.656C306.511 118.656 307.111 120.556 307.111 122.256C307.111 125.156 306.711 127.756 306.711 129.456C306.711 131.356 307.111 135.556 307.111 136.356C307.111 137.956 306.011 139.756 304.511 139.756C303.711 139.756 302.711 138.756 301.911 137.156C300.311 134.056 300.011 132.956 297.711 132.656C296.611 132.456 295.111 132.256 288.311 132.256C287.911 132.256 287.311 133.656 287.211 134.856C287.011 138.256 287.011 144.856 287.211 147.056C287.611 151.356 288.911 152.556 293.811 153.856C296.411 154.556 297.211 155.756 297.211 156.756C297.211 157.756 295.511 159.056 293.611 159.056C287.311 159.056 282.711 158.556 278.711 158.556C276.611 158.556 273.211 158.956 265.511 158.956C263.811 158.956 262.311 158.156 262.311 156.856C262.311 155.756 263.511 154.556 265.511 154.056C269.311 153.156 270.711 151.356 270.911 148.656C271.211 145.656 271.311 142.656 271.311 129.356C271.311 114.356 271.311 112.156 271.111 108.656C270.911 105.456 269.611 104.356 265.811 103.256C264.011 102.756 262.511 102.156 262.511 100.456C262.511 99.0564 265.111 98.4564 266.211 98.4564C274.011 98.5564 276.611 98.7564 280.511 98.7564ZM362.194 98.7564H392.794C398.394 98.7564 400.894 98.0564 401.294 97.5564C402.494 96.0564 403.594 95.1564 404.294 95.1564C404.894 95.1564 407.494 96.7564 407.494 98.3564C407.494 99.0564 406.294 105.356 406.294 112.056C406.294 114.056 404.794 116.256 402.894 116.256C401.494 116.256 400.694 113.756 400.494 112.856C398.994 106.256 397.294 106.056 393.694 105.656C392.194 105.456 391.894 105.156 383.394 105.156C382.894 105.156 382.594 105.956 382.494 106.956C382.394 108.356 381.794 121.856 381.794 128.156C381.794 134.256 381.694 140.856 381.994 144.456C382.594 151.756 384.294 152.056 388.394 153.556C390.194 154.256 391.894 155.156 391.894 156.356C391.894 158.556 389.494 159.056 387.494 159.056C386.494 159.056 375.494 158.556 369.494 158.556C366.594 158.556 361.194 158.856 358.494 158.856C356.394 158.856 354.394 157.956 354.394 156.156C354.394 155.356 355.394 153.956 357.694 153.356C363.894 151.656 365.594 150.356 365.594 144.856C365.594 142.756 365.794 129.456 365.794 122.956C365.794 116.756 365.894 110.156 365.894 107.056C365.894 106.256 364.894 105.156 364.594 105.156C362.094 105.156 358.394 105.156 355.794 105.256C352.994 105.356 350.294 105.356 347.594 112.856C346.994 114.556 345.794 115.856 344.694 115.856C343.394 115.856 341.894 114.056 341.894 111.656C341.894 108.556 342.994 104.056 342.994 98.5564C342.994 96.8564 344.494 95.3564 345.694 95.3564C345.994 95.3564 347.194 95.9564 347.894 96.4564C349.594 97.8564 351.094 98.4564 353.994 98.5564C358.094 98.7564 358.994 98.7564 362.194 98.7564ZM439.752 121.956C439.752 123.356 440.552 124.456 441.252 124.456C458.752 124.456 462.152 124.356 464.052 124.456C464.452 124.456 465.252 122.956 465.252 122.556C465.252 115.756 465.252 110.156 464.852 107.756C464.552 105.956 464.352 104.956 460.052 103.856C456.352 102.856 455.752 101.356 455.752 100.656C455.752 99.6564 457.552 98.4564 459.652 98.4564C463.752 98.4564 466.552 98.7564 470.352 98.7564C474.252 98.7564 484.252 98.4564 486.252 98.4564C488.252 98.4564 489.452 99.4564 489.452 100.656C489.452 101.756 488.252 102.856 485.652 103.456C482.552 104.156 481.852 105.656 481.552 108.056C481.152 110.956 481.052 118.756 481.052 127.456C481.052 139.856 481.352 143.356 481.552 147.056C481.852 151.856 483.552 152.656 486.652 153.456C489.452 154.156 490.452 155.356 490.452 156.456C490.452 157.756 488.852 158.856 486.652 158.856C484.752 158.856 480.952 158.556 477.252 158.556C472.052 158.556 463.452 159.056 460.452 159.056C458.452 159.056 456.552 158.256 456.552 156.656C456.552 155.656 457.452 154.856 460.552 153.656C464.252 152.256 464.652 150.056 464.952 148.456C465.452 145.356 465.652 137.256 465.252 133.756C464.952 131.256 464.052 131.056 463.952 131.056C456.552 131.056 442.352 131.356 440.952 131.356C440.252 131.356 439.752 133.356 439.752 133.856C439.752 136.556 439.852 146.256 439.952 147.756C440.252 151.156 440.652 152.756 445.652 153.956C446.852 154.256 448.852 155.556 448.852 156.856C448.852 158.556 447.452 158.956 444.952 158.956C442.052 158.956 434.852 158.556 430.552 158.556C427.352 158.556 421.552 159.056 418.552 159.056C416.452 159.056 414.752 157.956 414.752 156.756C414.752 155.656 416.552 154.556 418.352 153.856C422.552 152.156 423.352 151.256 423.552 146.956C423.852 142.556 423.852 131.456 423.852 117.056C423.852 109.556 423.552 108.856 423.352 107.656C422.952 105.356 421.752 103.956 417.152 102.856C416.052 102.556 414.952 101.656 414.952 100.556C414.952 99.4564 417.152 98.3564 419.052 98.3564C423.952 98.3564 430.852 98.7564 433.552 98.7564C436.652 98.7564 438.652 98.5564 442.152 98.5564C443.752 98.5564 445.752 99.0564 445.752 100.856C445.752 102.356 443.352 103.256 442.152 103.656C440.552 104.256 439.752 106.256 439.752 108.756C439.752 111.856 439.752 115.556 439.752 121.956ZM520.651 98.7564H530.951C540.051 98.7564 541.451 98.7564 543.751 98.2564C544.851 98.0564 545.551 98.6564 545.851 99.1564C546.451 100.156 547.251 107.756 547.251 109.956C547.251 112.556 546.051 113.156 545.451 113.156C543.651 113.156 542.651 112.056 541.451 109.356C539.551 105.256 538.151 104.556 537.351 104.556C531.651 104.556 526.151 104.856 524.751 104.856C524.251 104.856 523.451 105.956 523.451 106.356C523.351 108.256 523.151 115.456 523.151 122.356C523.151 123.956 523.451 124.956 523.951 125.056C525.051 125.356 528.551 125.256 530.351 125.156C534.851 124.856 536.251 123.256 537.351 120.756C537.951 119.256 538.951 118.056 540.051 118.056C541.451 118.056 542.351 119.456 542.151 122.356C542.051 123.556 541.951 125.856 541.951 128.156C541.951 130.456 542.151 132.756 542.251 134.256C542.451 136.956 540.951 138.156 539.951 138.156C539.051 138.156 537.751 137.056 536.851 135.056C535.851 132.756 535.551 132.056 533.451 131.856C529.351 131.556 528.751 131.356 524.251 131.356C523.751 131.356 523.151 132.756 523.151 135.256C523.151 137.956 523.451 143.756 523.551 145.956C523.751 148.856 524.151 149.956 524.451 150.356C525.451 151.856 530.251 153.156 535.051 153.156C536.651 153.156 539.451 152.856 541.751 151.556C543.651 150.556 544.651 149.356 546.851 146.356C548.451 144.156 549.551 141.756 551.151 141.756C553.051 141.756 553.651 144.656 553.251 146.756C552.651 149.656 550.251 156.356 549.851 157.256C549.551 157.956 547.451 159.056 546.851 159.056C545.551 159.056 541.551 158.556 523.351 158.556C517.051 158.556 504.451 158.956 500.151 158.956C498.051 158.956 496.551 158.156 496.551 157.356C496.551 156.156 497.351 154.756 499.451 154.156C506.351 152.256 506.551 149.956 506.751 148.156C507.151 143.356 507.251 141.256 507.251 125.856C507.251 110.456 507.051 109.856 506.751 108.056C506.251 105.056 504.951 103.956 500.951 102.956C498.351 102.356 497.951 100.956 497.951 100.256C497.951 98.9564 499.951 98.2564 501.251 98.2564C502.951 98.2564 514.051 98.7564 520.651 98.7564ZM575.182 99.9564C575.182 99.0564 577.382 98.0564 578.782 98.0564C584.282 98.0564 593.282 98.7564 595.082 98.7564C598.682 98.7564 599.882 98.5564 604.882 98.5564C607.482 98.5564 608.682 100.156 608.682 100.756C608.682 102.356 606.882 103.456 605.282 103.756C601.782 104.356 601.082 105.856 601.782 108.556C602.582 111.256 611.682 133.756 613.182 136.456C613.482 136.956 613.982 136.856 614.382 136.556C616.782 130.356 618.482 127.456 622.282 115.756C622.582 114.856 622.282 113.156 621.882 111.656C621.782 110.956 621.282 109.956 620.582 108.056C619.982 106.356 617.082 104.256 615.782 103.856C614.082 103.356 612.082 102.456 612.082 100.656C612.082 99.3564 613.982 98.4564 615.582 98.4564C620.682 98.4564 624.782 98.7564 627.382 98.7564C629.882 98.7564 633.382 98.4564 639.682 98.4564C641.582 98.4564 643.482 99.4564 643.482 100.656C643.482 101.656 642.182 103.156 640.482 103.656C637.082 104.556 636.582 105.656 636.582 106.956C636.582 108.356 636.782 108.956 637.482 111.256C639.782 118.656 646.082 133.956 647.782 137.156C648.082 137.756 648.482 137.756 648.782 137.256C650.382 134.156 654.882 122.556 657.382 115.356C659.182 109.856 659.182 109.056 659.182 107.556C659.182 105.756 656.582 104.456 654.582 103.856C652.882 103.356 651.382 102.156 651.382 100.756C651.382 100.156 652.382 98.4564 654.882 98.4564C658.082 98.4564 658.782 98.7564 661.982 98.7564C665.282 98.7564 670.682 98.2564 673.582 98.2564C675.482 98.2564 677.582 98.6564 677.582 100.656C677.582 101.756 675.382 103.356 674.382 103.656C668.682 105.356 666.982 108.856 665.082 113.156C662.982 117.856 656.582 131.856 652.782 142.656C651.882 145.156 650.082 150.156 648.882 153.056C647.682 155.956 644.282 160.556 642.482 160.556C640.082 160.556 638.182 156.856 637.082 153.956C634.182 146.456 627.582 128.956 625.682 125.156C625.482 124.756 624.782 124.956 624.582 125.356C621.782 132.556 615.882 145.456 614.782 149.456C614.682 149.656 613.682 152.256 611.982 155.356C611.482 156.256 609.382 160.656 607.982 160.656C605.582 160.656 604.182 158.356 603.582 156.756C602.382 153.156 601.282 149.856 599.682 145.256C595.882 134.756 590.682 122.956 586.782 112.856C583.982 105.556 582.682 104.556 578.682 103.156C576.382 102.356 575.182 101.556 575.182 99.9564ZM701.12 98.7564H711.42C720.52 98.7564 721.92 98.7564 724.22 98.2564C725.32 98.0564 726.02 98.6564 726.32 99.1564C726.92 100.156 727.72 107.756 727.72 109.956C727.72 112.556 726.52 113.156 725.92 113.156C724.12 113.156 723.12 112.056 721.92 109.356C720.02 105.256 718.62 104.556 717.82 104.556C712.12 104.556 706.62 104.856 705.22 104.856C704.72 104.856 703.92 105.956 703.92 106.356C703.82 108.256 703.62 115.456 703.62 122.356C703.62 123.956 703.92 124.956 704.42 125.056C705.52 125.356 709.02 125.256 710.82 125.156C715.32 124.856 716.72 123.256 717.82 120.756C718.42 119.256 719.42 118.056 720.52 118.056C721.92 118.056 722.82 119.456 722.62 122.356C722.52 123.556 722.42 125.856 722.42 128.156C722.42 130.456 722.62 132.756 722.72 134.256C722.92 136.956 721.42 138.156 720.42 138.156C719.52 138.156 718.22 137.056 717.32 135.056C716.32 132.756 716.02 132.056 713.92 131.856C709.82 131.556 709.22 131.356 704.72 131.356C704.22 131.356 703.62 132.756 703.62 135.256C703.62 137.956 703.92 143.756 704.02 145.956C704.22 148.856 704.62 149.956 704.92 150.356C705.92 151.856 710.72 153.156 715.52 153.156C717.12 153.156 719.92 152.856 722.22 151.556C724.12 150.556 725.12 149.356 727.32 146.356C728.92 144.156 730.02 141.756 731.62 141.756C733.52 141.756 734.12 144.656 733.72 146.756C733.12 149.656 730.72 156.356 730.32 157.256C730.02 157.956 727.92 159.056 727.32 159.056C726.02 159.056 722.02 158.556 703.82 158.556C697.52 158.556 684.92 158.956 680.62 158.956C678.52 158.956 677.02 158.156 677.02 157.356C677.02 156.156 677.82 154.756 679.92 154.156C686.82 152.256 687.02 149.956 687.22 148.156C687.62 143.356 687.72 141.256 687.72 125.856C687.72 110.456 687.52 109.856 687.22 108.056C686.72 105.056 685.42 103.956 681.42 102.956C678.82 102.356 678.42 100.956 678.42 100.256C678.42 98.9564 680.42 98.2564 681.72 98.2564C683.42 98.2564 694.52 98.7564 701.12 98.7564ZM767.543 96.8564C773.143 96.8564 778.443 98.6564 782.343 99.5564C782.943 99.6564 783.643 101.256 783.643 102.356C783.643 103.556 784.343 109.056 784.343 110.556C784.343 113.956 782.743 115.356 781.343 115.356C780.243 115.356 779.343 113.656 779.043 112.856C776.843 106.856 771.643 101.456 765.943 101.456C761.743 101.456 757.943 105.356 757.943 109.156C757.943 113.656 761.243 116.956 766.943 119.856C779.543 126.256 786.943 131.856 786.943 141.356C786.943 149.556 781.343 154.156 777.743 156.356C773.843 158.656 767.243 160.356 762.643 160.356C754.143 160.356 749.243 158.556 746.943 157.656C746.243 157.356 744.643 156.456 744.143 155.356C742.443 151.756 742.143 146.556 742.143 144.156C742.143 142.256 743.143 139.856 744.743 139.856C745.843 139.856 747.143 141.056 748.543 143.656C752.243 150.456 757.743 155.356 763.943 155.356C767.543 155.356 772.043 152.856 772.043 148.256C772.043 145.256 772.243 141.956 762.043 136.456C748.943 129.456 743.843 124.056 743.843 114.756C743.843 108.256 748.443 102.956 753.243 100.256C757.043 98.1564 761.843 96.8564 767.543 96.8564ZM815.026 98.7564H845.626C851.226 98.7564 853.726 98.0564 854.126 97.5564C855.326 96.0564 856.426 95.1564 857.126 95.1564C857.726 95.1564 860.326 96.7564 860.326 98.3564C860.326 99.0564 859.126 105.356 859.126 112.056C859.126 114.056 857.626 116.256 855.726 116.256C854.326 116.256 853.526 113.756 853.326 112.856C851.826 106.256 850.126 106.056 846.526 105.656C845.026 105.456 844.726 105.156 836.226 105.156C835.726 105.156 835.426 105.956 835.326 106.956C835.226 108.356 834.626 121.856 834.626 128.156C834.626 134.256 834.526 140.856 834.826 144.456C835.426 151.756 837.126 152.056 841.226 153.556C843.026 154.256 844.726 155.156 844.726 156.356C844.726 158.556 842.326 159.056 840.326 159.056C839.326 159.056 828.326 158.556 822.326 158.556C819.426 158.556 814.026 158.856 811.326 158.856C809.226 158.856 807.226 157.956 807.226 156.156C807.226 155.356 808.226 153.956 810.526 153.356C816.726 151.656 818.426 150.356 818.426 144.856C818.426 142.756 818.626 129.456 818.626 122.956C818.626 116.756 818.726 110.156 818.726 107.056C818.726 106.256 817.726 105.156 817.426 105.156C814.926 105.156 811.226 105.156 808.626 105.256C805.826 105.356 803.126 105.356 800.426 112.856C799.826 114.556 798.626 115.856 797.526 115.856C796.226 115.856 794.726 114.056 794.726 111.656C794.726 108.556 795.826 104.056 795.826 98.5564C795.826 96.8564 797.326 95.3564 798.526 95.3564C798.826 95.3564 800.026 95.9564 800.726 96.4564C802.426 97.8564 803.926 98.4564 806.826 98.5564C810.926 98.7564 811.826 98.7564 815.026 98.7564ZM890.084 98.7564H900.384C909.484 98.7564 910.884 98.7564 913.184 98.2564C914.284 98.0564 914.984 98.6564 915.284 99.1564C915.884 100.156 916.684 107.756 916.684 109.956C916.684 112.556 915.484 113.156 914.884 113.156C913.084 113.156 912.084 112.056 910.884 109.356C908.984 105.256 907.584 104.556 906.784 104.556C901.084 104.556 895.584 104.856 894.184 104.856C893.684 104.856 892.884 105.956 892.884 106.356C892.784 108.256 892.584 115.456 892.584 122.356C892.584 123.956 892.884 124.956 893.384 125.056C894.484 125.356 897.984 125.256 899.784 125.156C904.284 124.856 905.684 123.256 906.784 120.756C907.384 119.256 908.384 118.056 909.484 118.056C910.884 118.056 911.784 119.456 911.584 122.356C911.484 123.556 911.384 125.856 911.384 128.156C911.384 130.456 911.584 132.756 911.684 134.256C911.884 136.956 910.384 138.156 909.384 138.156C908.484 138.156 907.184 137.056 906.284 135.056C905.284 132.756 904.984 132.056 902.884 131.856C898.784 131.556 898.184 131.356 893.684 131.356C893.184 131.356 892.584 132.756 892.584 135.256C892.584 137.956 892.884 143.756 892.984 145.956C893.184 148.856 893.584 149.956 893.884 150.356C894.884 151.856 899.684 153.156 904.484 153.156C906.084 153.156 908.884 152.856 911.184 151.556C913.084 150.556 914.084 149.356 916.284 146.356C917.884 144.156 918.984 141.756 920.584 141.756C922.484 141.756 923.084 144.656 922.684 146.756C922.084 149.656 919.684 156.356 919.284 157.256C918.984 157.956 916.884 159.056 916.284 159.056C914.984 159.056 910.984 158.556 892.784 158.556C886.484 158.556 873.884 158.956 869.584 158.956C867.484 158.956 865.984 158.156 865.984 157.356C865.984 156.156 866.784 154.756 868.884 154.156C875.784 152.256 875.984 149.956 876.184 148.156C876.584 143.356 876.684 141.256 876.684 125.856C876.684 110.456 876.484 109.856 876.184 108.056C875.684 105.056 874.384 103.956 870.384 102.956C867.784 102.356 867.384 100.956 867.384 100.256C867.384 98.9564 869.384 98.2564 870.684 98.2564C872.384 98.2564 883.484 98.7564 890.084 98.7564ZM986.254 114.456C986.254 118.256 984.354 122.556 981.754 124.756C980.254 126.056 978.854 126.356 976.754 127.556C976.254 127.856 976.754 129.756 977.054 130.356C979.254 134.756 983.754 142.156 987.554 146.956C991.054 151.356 994.154 153.056 997.254 154.256C998.254 154.656 999.554 155.556 999.554 156.456C999.554 159.056 996.354 159.856 993.654 159.856C985.654 159.856 977.954 159.056 970.954 149.956C967.354 145.256 964.654 140.256 961.854 135.756C960.254 133.156 958.854 132.656 957.254 132.656C956.554 132.656 956.454 133.856 956.454 134.156C956.454 142.156 956.454 144.556 956.754 148.056C957.054 151.656 958.054 151.756 962.054 153.656C963.854 154.556 965.054 155.656 965.054 156.456C965.054 157.556 962.954 158.956 961.254 158.956C958.754 158.956 951.054 158.556 947.554 158.556C944.454 158.556 939.754 158.956 936.054 158.956C933.654 158.956 932.254 157.756 932.254 156.756C932.254 155.356 933.654 154.356 935.554 153.856C939.654 152.656 940.654 151.856 940.854 146.856C940.954 143.256 940.954 141.456 940.954 123.456C940.954 111.156 940.654 110.556 940.454 108.456C940.254 106.456 939.354 104.456 935.554 103.756C933.654 103.356 932.454 101.856 932.454 101.156C932.454 99.4564 934.454 98.5564 936.854 98.5564C941.954 98.5564 943.654 98.7564 944.954 98.7564C951.554 98.7564 957.054 98.1564 964.054 98.1564C972.854 98.1564 977.454 100.056 979.854 101.856C984.154 105.156 986.254 109.156 986.254 114.456ZM970.854 116.156C970.854 109.856 966.554 103.656 959.354 103.656C958.954 103.656 957.454 104.056 956.854 104.456C956.554 104.656 956.254 105.156 956.254 106.056C956.254 108.856 956.454 118.156 956.454 124.856C956.454 125.256 956.854 126.456 957.254 126.656C958.654 127.256 959.954 127.556 961.654 127.556C963.854 127.556 967.454 125.256 968.054 124.856C968.654 124.456 970.854 120.956 970.854 116.156ZM1000.55 99.8564C1000.55 99.1564 1001.35 98.1564 1003.15 98.1564C1007.15 98.1564 1015.15 98.9564 1021.55 98.9564C1022.45 98.9564 1023.85 99.6564 1024.15 100.056C1025.85 102.356 1028.95 105.656 1033.75 110.856C1039.05 116.556 1054.95 133.356 1057.15 134.556C1057.45 134.656 1058.25 134.456 1058.35 134.156C1058.95 131.456 1058.95 121.856 1058.65 114.956C1058.35 108.156 1058.85 105.556 1051.05 103.756C1048.65 103.156 1047.75 101.456 1047.75 100.856C1047.75 100.156 1048.85 98.6564 1051.25 98.6564C1054.85 98.6564 1054.65 98.7564 1057.25 98.7564C1061.35 98.7564 1068.95 98.2564 1070.95 98.2564C1073.05 98.2564 1074.45 98.8564 1074.45 100.556C1074.45 101.656 1073.65 102.356 1070.45 103.756C1066.35 105.556 1065.75 106.656 1065.65 107.956C1065.45 112.556 1064.65 133.156 1064.65 139.856C1064.65 144.256 1065.05 148.656 1065.05 153.256C1065.05 157.456 1064.25 160.556 1062.45 160.556C1059.25 160.556 1056.65 158.756 1054.75 156.556C1051.05 152.356 1046.35 146.856 1043.55 143.756C1039.75 139.356 1024.15 122.756 1019.75 117.956C1019.45 117.656 1018.75 118.256 1018.75 118.656C1018.65 120.856 1018.45 121.156 1018.45 125.456C1018.45 129.956 1018.65 138.956 1018.75 141.656C1019.05 149.456 1020.35 151.856 1023.85 153.256C1027.25 154.556 1028.35 155.656 1028.35 157.056C1028.35 158.256 1027.25 158.956 1024.95 158.956C1022.15 158.956 1018.75 158.556 1014.05 158.556C1009.35 158.556 1006.85 158.956 1005.55 158.956C1002.55 158.956 1001.55 157.856 1001.55 156.856C1001.55 155.556 1002.75 154.656 1004.55 154.056C1009.15 152.556 1010.95 152.256 1011.45 145.556C1011.95 138.856 1012.75 114.956 1012.75 111.756C1012.75 111.156 1012.25 109.056 1010.95 107.556C1008.85 105.156 1007.05 103.956 1004.75 103.456C1002.45 102.956 1000.55 101.756 1000.55 99.8564ZM231.18 184.396C238.98 184.396 243.42 185.716 248.46 187.036C250.98 187.756 253.5 188.116 255.06 188.116C255.9 188.116 257.22 189.436 257.46 190.756C258.18 193.996 259.86 200.116 259.86 204.916C259.86 206.716 258.66 209.596 256.86 209.596C255.66 209.596 254.82 209.236 253.02 205.996C251.46 203.116 250.26 199.876 247.26 197.236C241.02 191.716 233.7 190.876 230.46 190.876C213.78 190.876 207.9 206.716 207.9 220.756C207.9 240.556 219.18 254.356 232.98 254.356C234.06 254.356 237.06 253.636 238.38 252.676C239.58 251.836 240.06 247.756 240.06 244.996C240.06 240.436 239.94 235.996 239.82 234.436C239.58 232.036 239.1 229.996 234.66 228.916C230.58 227.956 229.02 226.756 229.02 224.956C229.02 223.876 230.34 222.196 233.94 222.196C237.3 222.196 240.78 222.796 244.74 222.796C248.34 222.796 260.1 222.196 262.5 222.196C265.86 222.196 266.94 223.516 266.94 224.956C266.94 226.636 264.66 227.956 263.1 228.556C258.9 229.996 259.14 232.036 259.02 233.716C258.78 236.476 258.78 232.516 258.78 243.436C258.78 244.996 258.9 246.676 259.14 248.596C259.26 249.436 259.5 250.636 259.5 252.076C259.5 252.436 258.06 254.236 257.82 254.356C256.38 255.436 253.38 256.996 248.34 258.436C243.66 259.756 237.78 260.956 231.9 260.956C212.22 260.956 201.06 255.076 193.38 245.716C187.98 239.116 185.94 230.356 185.94 222.556C185.94 209.596 191.46 200.596 200.94 193.396C207.78 188.116 220.26 184.396 231.18 184.396ZM317.529 184.396C319.689 184.396 320.409 187.996 323.529 196.036C330.009 213.436 339.849 236.716 343.089 244.036C346.089 250.756 347.769 250.876 352.449 252.796C355.209 253.996 356.169 255.796 356.169 257.116C356.169 258.556 354.249 259.156 351.969 259.156C348.249 259.156 338.889 258.556 333.009 258.556C327.849 258.556 324.609 259.156 320.289 259.156C316.929 259.156 315.849 257.716 315.849 256.876C315.849 255.436 317.289 253.756 319.569 252.796C323.769 250.996 323.769 248.356 323.169 246.316C322.089 243.316 321.969 242.716 320.409 239.116C320.289 238.756 319.209 237.436 317.289 237.196C315.249 236.956 300.249 236.716 297.489 237.316C296.769 237.436 295.809 238.636 295.569 239.116C294.609 241.516 293.649 246.076 293.649 247.636C293.649 249.796 295.209 251.596 299.049 252.916C300.729 253.516 302.529 254.476 302.529 256.036C302.529 256.636 300.849 258.916 297.729 258.916C296.289 258.916 293.649 258.556 289.809 258.556C285.369 258.556 280.449 259.156 275.409 259.156C272.769 259.156 270.969 257.956 270.969 256.516C270.969 255.316 271.929 254.116 274.569 253.036C279.009 251.236 281.409 250.876 285.249 242.836C288.249 236.476 296.769 214.876 303.969 195.916C304.089 195.556 304.329 194.716 304.329 193.396C304.329 192.916 304.929 192.076 305.409 191.716C306.969 190.756 312.969 186.796 314.289 185.716C315.009 184.996 316.929 184.396 317.529 184.396ZM315.129 229.156C315.729 229.156 316.449 228.076 316.329 227.716C314.529 221.836 309.489 208.996 308.409 207.076C307.929 206.236 307.209 206.596 306.849 207.076C304.929 211.036 299.769 225.796 299.409 227.596C299.289 228.316 299.889 229.276 300.729 229.276C302.289 229.276 313.449 229.276 315.129 229.156ZM362.48 188.956C362.48 187.036 364.76 186.556 366.32 186.556C366.92 186.556 377.36 186.796 382.16 186.796C386.96 186.796 396.32 186.436 398.72 186.436C401.24 186.436 402.68 187.636 402.68 189.076C402.68 190.516 401.12 191.716 398.6 192.196C391.88 193.636 391.52 196.276 391.4 198.796C391.16 201.556 390.68 208.276 390.68 218.596C390.68 231.196 391.04 242.716 391.28 246.796C391.4 248.596 394.28 251.116 398.84 252.196C400.52 252.556 404.48 252.676 408.8 251.836C412.4 251.116 418.4 244.036 420.92 239.476C422.12 237.196 423.44 236.356 423.8 236.356C425.96 236.356 427.4 238.876 426.8 241.036C425.96 244.036 423.68 253.516 422.84 255.916C422.12 257.716 419.96 258.916 417.56 258.916C413.36 258.916 400.64 258.556 385.76 258.556C377.6 258.556 365.6 259.156 362.96 259.156C360.32 259.156 358.28 257.836 358.28 256.156C358.28 254.476 360.08 253.636 362.12 253.276C370.16 251.716 371 248.836 371.24 246.076C371.48 242.476 371.72 237.436 371.72 223.156C371.72 201.436 371.84 201.676 371.6 198.436C371.24 194.476 369.92 193.876 365.96 192.196C363.44 191.116 362.48 190.276 362.48 188.956ZM480.303 184.396C482.463 184.396 483.183 187.996 486.303 196.036C492.783 213.436 502.623 236.716 505.863 244.036C508.863 250.756 510.543 250.876 515.223 252.796C517.983 253.996 518.943 255.796 518.943 257.116C518.943 258.556 517.023 259.156 514.743 259.156C511.023 259.156 501.663 258.556 495.783 258.556C490.623 258.556 487.383 259.156 483.063 259.156C479.703 259.156 478.623 257.716 478.623 256.876C478.623 255.436 480.063 253.756 482.343 252.796C486.543 250.996 486.543 248.356 485.943 246.316C484.863 243.316 484.743 242.716 483.183 239.116C483.063 238.756 481.983 237.436 480.063 237.196C478.023 236.956 463.023 236.716 460.263 237.316C459.543 237.436 458.583 238.636 458.343 239.116C457.383 241.516 456.423 246.076 456.423 247.636C456.423 249.796 457.983 251.596 461.823 252.916C463.503 253.516 465.303 254.476 465.303 256.036C465.303 256.636 463.623 258.916 460.503 258.916C459.063 258.916 456.423 258.556 452.583 258.556C448.143 258.556 443.223 259.156 438.183 259.156C435.543 259.156 433.743 257.956 433.743 256.516C433.743 255.316 434.703 254.116 437.343 253.036C441.783 251.236 444.183 250.876 448.023 242.836C451.023 236.476 459.543 214.876 466.743 195.916C466.863 195.556 467.103 194.716 467.103 193.396C467.103 192.916 467.703 192.076 468.183 191.716C469.743 190.756 475.743 186.796 477.063 185.716C477.783 184.996 479.703 184.396 480.303 184.396ZM477.903 229.156C478.503 229.156 479.223 228.076 479.103 227.716C477.303 221.836 472.263 208.996 471.183 207.076C470.703 206.236 469.983 206.596 469.623 207.076C467.703 211.036 462.543 225.796 462.183 227.596C462.063 228.316 462.663 229.276 463.503 229.276C465.063 229.276 476.223 229.276 477.903 229.156ZM484.383 163.996C486.183 162.556 489.543 162.436 490.143 162.796C492.663 164.116 495.543 168.676 495.543 170.476C495.543 172.156 493.983 173.716 492.423 174.436C485.703 177.796 479.343 180.076 474.303 181.756C470.823 182.956 468.543 181.876 467.703 180.556C467.103 179.476 468.543 177.316 469.863 176.116C474.423 171.916 479.223 168.076 484.383 163.996ZM571.453 209.596C571.453 202.876 568.693 197.956 568.093 197.116C567.613 196.516 563.293 192.556 558.853 192.556C557.533 192.556 555.973 193.036 555.493 193.516C555.133 193.876 554.653 194.596 554.653 195.196C554.293 199.996 554.173 215.356 554.173 220.276C554.173 232.276 554.293 241.516 554.293 242.716C554.293 249.436 555.853 251.236 562.333 253.036C565.213 253.876 566.413 254.716 566.413 256.396C566.413 257.476 564.733 258.916 561.613 258.916C558.013 258.916 552.733 258.556 547.813 258.556C543.493 258.556 532.213 259.276 528.253 259.276C525.253 259.276 523.213 258.196 523.213 256.636C523.213 255.076 524.413 253.996 527.893 252.916C533.053 251.236 533.893 249.196 534.253 246.076C534.493 243.676 535.333 228.916 535.333 212.236C535.333 207.076 535.213 201.316 534.853 198.556C534.613 195.796 533.653 193.636 528.373 192.436C526.453 191.956 524.173 190.156 524.173 188.956C524.173 186.796 525.853 186.316 527.893 186.316C533.053 186.316 536.413 186.796 542.413 186.796C546.493 186.796 552.853 186.196 562.213 186.196C572.653 186.196 580.333 189.436 584.413 193.636C587.293 196.636 590.893 203.236 590.893 209.476C590.893 218.836 585.373 225.436 582.973 227.476C578.053 231.556 572.893 233.356 567.373 233.356C564.253 233.356 562.453 232.876 560.653 231.676C559.333 230.836 558.253 229.636 558.253 229.036C558.253 227.716 558.733 226.876 559.693 226.756C560.173 226.636 560.773 226.636 561.373 226.516C564.253 225.796 571.453 223.996 571.453 209.596ZM634.873 184.396C637.033 184.396 637.753 187.996 640.873 196.036C647.353 213.436 657.193 236.716 660.433 244.036C663.433 250.756 665.113 250.876 669.793 252.796C672.553 253.996 673.513 255.796 673.513 257.116C673.513 258.556 671.593 259.156 669.313 259.156C665.593 259.156 656.233 258.556 650.353 258.556C645.193 258.556 641.953 259.156 637.633 259.156C634.273 259.156 633.193 257.716 633.193 256.876C633.193 255.436 634.633 253.756 636.913 252.796C641.113 250.996 641.113 248.356 640.513 246.316C639.433 243.316 639.313 242.716 637.753 239.116C637.633 238.756 636.553 237.436 634.633 237.196C632.593 236.956 617.593 236.716 614.833 237.316C614.113 237.436 613.153 238.636 612.913 239.116C611.953 241.516 610.993 246.076 610.993 247.636C610.993 249.796 612.553 251.596 616.393 252.916C618.073 253.516 619.873 254.476 619.873 256.036C619.873 256.636 618.193 258.916 615.073 258.916C613.633 258.916 610.993 258.556 607.153 258.556C602.713 258.556 597.793 259.156 592.753 259.156C590.113 259.156 588.313 257.956 588.313 256.516C588.313 255.316 589.273 254.116 591.913 253.036C596.353 251.236 598.753 250.876 602.593 242.836C605.593 236.476 614.113 214.876 621.313 195.916C621.433 195.556 621.673 194.716 621.673 193.396C621.673 192.916 622.273 192.076 622.753 191.716C624.313 190.756 630.313 186.796 631.633 185.716C632.353 184.996 634.273 184.396 634.873 184.396ZM632.473 229.156C633.073 229.156 633.793 228.076 633.673 227.716C631.873 221.836 626.833 208.996 625.753 207.076C625.273 206.236 624.553 206.596 624.193 207.076C622.273 211.036 617.113 225.796 616.753 227.596C616.633 228.316 617.233 229.276 618.073 229.276C619.633 229.276 630.793 229.276 632.473 229.156ZM723.953 184.396C731.753 184.396 736.193 185.716 741.233 187.036C743.753 187.756 746.273 188.116 747.833 188.116C748.673 188.116 749.993 189.436 750.233 190.756C750.953 193.996 752.633 200.116 752.633 204.916C752.633 206.716 751.433 209.596 749.633 209.596C748.433 209.596 747.593 209.236 745.793 205.996C744.233 203.116 743.033 199.876 740.033 197.236C733.793 191.716 726.473 190.876 723.233 190.876C706.553 190.876 700.673 206.716 700.673 220.756C700.673 240.556 711.953 254.356 725.753 254.356C726.833 254.356 729.833 253.636 731.153 252.676C732.353 251.836 732.833 247.756 732.833 244.996C732.833 240.436 732.713 235.996 732.593 234.436C732.353 232.036 731.873 229.996 727.433 228.916C723.353 227.956 721.793 226.756 721.793 224.956C721.793 223.876 723.113 222.196 726.713 222.196C730.073 222.196 733.553 222.796 737.513 222.796C741.113 222.796 752.873 222.196 755.273 222.196C758.633 222.196 759.713 223.516 759.713 224.956C759.713 226.636 757.433 227.956 755.873 228.556C751.673 229.996 751.913 232.036 751.793 233.716C751.553 236.476 751.553 232.516 751.553 243.436C751.553 244.996 751.673 246.676 751.913 248.596C752.033 249.436 752.273 250.636 752.273 252.076C752.273 252.436 750.833 254.236 750.593 254.356C749.153 255.436 746.153 256.996 741.113 258.436C736.433 259.756 730.553 260.956 724.673 260.956C704.993 260.956 693.833 255.076 686.153 245.716C680.753 239.116 678.713 230.356 678.713 222.556C678.713 209.596 684.233 200.596 693.713 193.396C700.553 188.116 713.033 184.396 723.953 184.396ZM812.577 184.396C837.537 184.396 854.337 201.196 854.337 222.676C854.337 237.676 845.457 249.436 834.177 255.676C829.017 258.556 820.617 260.716 812.937 260.716C787.617 260.716 771.057 243.436 771.057 222.676C771.057 213.436 774.537 204.316 781.977 196.876C789.777 189.076 801.297 184.396 812.577 184.396ZM810.417 190.636C804.777 190.636 799.737 195.436 799.617 195.556C794.577 201.076 792.417 209.236 792.417 220.516C792.417 236.836 799.857 254.596 816.057 254.596C820.137 254.596 824.937 250.996 825.537 250.516C829.377 246.916 832.497 239.356 832.497 223.516C832.497 210.916 826.257 190.636 810.417 190.636ZM897.371 184.516C904.091 184.516 910.451 186.676 915.131 187.756C915.851 187.876 916.691 189.796 916.691 191.116C916.691 192.556 917.531 199.156 917.531 200.956C917.531 205.036 915.611 206.716 913.931 206.716C912.611 206.716 911.531 204.676 911.171 203.716C908.531 196.516 902.291 190.036 895.451 190.036C890.411 190.036 885.851 194.716 885.851 199.276C885.851 204.676 889.811 208.636 896.651 212.116C911.771 219.796 920.651 226.516 920.651 237.916C920.651 247.756 913.931 253.276 909.611 255.916C904.931 258.676 897.011 260.716 891.491 260.716C881.291 260.716 875.411 258.556 872.651 257.476C871.811 257.116 869.891 256.036 869.291 254.716C867.251 250.396 866.891 244.156 866.891 241.276C866.891 238.996 868.091 236.116 870.011 236.116C871.331 236.116 872.891 237.556 874.571 240.676C879.011 248.836 885.611 254.716 893.051 254.716C897.371 254.716 902.771 251.716 902.771 246.196C902.771 242.596 903.011 238.636 890.771 232.036C875.051 223.636 868.931 217.156 868.931 205.996C868.931 198.196 874.451 191.836 880.211 188.596C884.771 186.076 890.531 184.516 897.371 184.516Z" fill="white"/>
</svg>
