<svg width="754" height="215" viewBox="0 0 754 215" fill="none" xmlns="http://www.w3.org/2000/svg">
<path d="M141.178 150.777V148.887H139.288V150.777H141.178ZM152.512 150.777H154.402V148.887H152.512V150.777ZM152.512 187.482V189.372H154.402V187.482H152.512ZM150.961 187.482L149.763 188.944L150.285 189.372H150.961V187.482ZM135.372 175.949L134.3 177.506L134.301 177.507L135.372 175.949ZM108.609 168.195L109.886 169.59L109.892 169.583L109.898 169.577L108.609 168.195ZM113.182 186.766V188.656H117.588L114.552 185.464L113.182 186.766ZM101.531 186.766L99.9451 187.795L100.504 188.656H101.531V186.766ZM100.457 158.333L101.863 159.596L101.869 159.59L100.457 158.333ZM141.178 168.672L140.007 170.156L143.069 172.573V168.672H141.178ZM141.178 152.667H152.512V148.887H141.178V152.667ZM150.621 150.777V187.482H154.402V150.777H150.621ZM152.512 185.591H150.961V189.372H152.512V185.591ZM152.159 186.019C147.995 182.608 142.753 178.732 136.444 174.392L134.301 177.507C140.558 181.81 145.708 185.622 149.763 188.944L152.159 186.019ZM136.445 174.393C130.147 170.053 125.524 167.205 122.678 165.981L121.184 169.454C123.641 170.51 127.978 173.15 134.3 177.506L136.445 174.393ZM122.678 165.981C119.828 164.756 117.003 164.117 114.216 164.117V167.898C116.414 167.898 118.732 168.4 121.184 169.454L122.678 165.981ZM114.216 164.117C111.573 164.117 109.241 165.022 107.32 166.812L109.898 169.577C111.106 168.452 112.512 167.898 114.216 167.898V164.117ZM107.333 166.8C105.395 168.575 104.373 170.81 104.373 173.404H108.153C108.153 171.916 108.696 170.678 109.886 169.59L107.333 166.8ZM104.373 173.404C104.373 178.178 107.07 183.081 111.813 188.068L114.552 185.464C110.069 180.748 108.153 176.743 108.153 173.404H104.373ZM113.182 184.875H101.531V188.656H113.182V184.875ZM103.117 185.737C99.7281 180.514 98.1322 175.685 98.1322 171.217H94.3516C94.3516 176.612 96.2816 182.148 99.9451 187.795L103.117 185.737ZM98.1322 171.217C98.1322 166.08 99.4488 162.284 101.863 159.596L99.0509 157.07C95.8452 160.639 94.3516 165.432 94.3516 171.217H98.1322ZM101.869 159.59C104.261 156.904 107.568 155.491 112.029 155.491V151.71C106.681 151.71 102.273 153.452 99.0457 157.076L101.869 159.59ZM112.029 155.491C114.948 155.491 118.739 156.597 123.479 159.048C128.192 161.485 133.698 165.175 140.007 170.156L142.35 167.189C135.933 162.122 130.218 158.276 125.215 155.69C120.239 153.117 115.818 151.71 112.029 151.71V155.491ZM143.069 168.672V150.777H139.288V168.672H143.069ZM103.837 110.653L104.867 112.238L104.872 112.234L103.837 110.653ZM145.672 138.37L146.717 139.946L146.722 139.941L145.672 138.37ZM103.758 138.29L102.692 139.852L102.694 139.853L103.758 138.29ZM138.792 119.561L139.458 117.791L139.452 117.789L138.792 119.561ZM110.518 119.561L111.192 121.326L111.203 121.322L111.214 121.318L110.518 119.561ZM110.439 129.462L109.705 131.204L109.714 131.208L110.439 129.462ZM138.753 129.462L139.422 131.23L139.432 131.226L139.443 131.222L138.753 129.462ZM98.1322 124.412C98.1322 119.186 100.323 115.188 104.867 112.238L102.808 109.067C97.2242 112.692 94.3516 117.867 94.3516 124.412H98.1322ZM104.872 112.234C109.521 109.192 115.995 107.572 124.476 107.572V103.792C115.566 103.792 108.28 105.485 102.802 109.071L104.872 112.234ZM124.476 107.572C133.328 107.572 139.976 109.148 144.621 112.09L146.644 108.897C141.161 105.423 133.705 103.792 124.476 103.792V107.572ZM144.621 112.09C149.14 114.953 151.337 118.939 151.337 124.253H155.118C155.118 117.636 152.251 112.449 146.644 108.897L144.621 112.09ZM151.337 124.253C151.337 129.665 149.135 133.781 144.621 136.799L146.722 139.941C152.283 136.225 155.118 130.93 155.118 124.253H151.337ZM144.627 136.795C140.014 139.853 133.457 141.49 124.755 141.49V145.271C133.868 145.271 141.255 143.567 146.717 139.946L144.627 136.795ZM124.755 141.49C115.943 141.49 109.372 139.826 104.822 136.728L102.694 139.853C108.112 143.542 115.538 145.271 124.755 145.271V141.49ZM104.823 136.729C100.304 133.644 98.1322 129.591 98.1322 124.412H94.3516C94.3516 130.899 97.1902 136.096 102.692 139.852L104.823 136.729ZM144.699 124.412C144.699 122.887 144.229 121.492 143.261 120.323C142.319 119.185 140.998 118.37 139.458 117.791L138.127 121.33C139.264 121.758 139.952 122.255 140.349 122.734C140.719 123.182 140.918 123.709 140.918 124.412H144.699ZM139.452 117.789C136.389 116.648 131.003 116.159 123.601 116.159V119.939C131.046 119.939 135.787 120.458 138.132 121.331L139.452 117.789ZM123.601 116.159C117.411 116.159 112.73 116.652 109.822 117.803L111.214 121.318C113.396 120.454 117.438 119.939 123.601 119.939V116.159ZM109.844 117.794C108.337 118.369 107.048 119.198 106.136 120.364C105.206 121.554 104.77 122.963 104.77 124.491H108.551C108.551 123.713 108.759 123.148 109.114 122.693C109.488 122.216 110.128 121.732 111.192 121.326L109.844 117.794ZM104.77 124.491C104.77 125.995 105.199 127.383 106.1 128.568C106.983 129.73 108.233 130.585 109.705 131.204L111.172 127.72C110.125 127.279 109.486 126.775 109.11 126.28C108.752 125.808 108.551 125.241 108.551 124.491H104.77ZM109.714 131.208C111.216 131.831 113.295 132.241 115.83 132.505C118.397 132.773 121.563 132.903 125.311 132.903V129.122C121.637 129.122 118.612 128.995 116.222 128.745C113.799 128.493 112.154 128.127 111.163 127.716L109.714 131.208ZM125.311 132.903C131.57 132.903 136.348 132.394 139.422 131.23L138.083 127.694C135.696 128.598 131.513 129.122 125.311 129.122V132.903ZM139.443 131.222C141 130.611 142.327 129.761 143.268 128.588C144.233 127.387 144.699 125.964 144.699 124.412H140.918C140.918 125.166 140.708 125.738 140.321 126.22C139.911 126.732 139.21 127.253 138.062 127.702L139.443 131.222ZM141.178 60.9043V59.014H139.288V60.9043H141.178ZM152.512 60.9043H154.402V59.014H152.512V60.9043ZM152.512 97.6087V99.499H154.402V97.6087H152.512ZM150.961 97.6087L149.763 99.071L150.285 99.499H150.961V97.6087ZM135.372 86.077L134.3 87.6331L134.301 87.6339L135.372 86.077ZM108.609 78.3222L109.886 79.7165L109.892 79.7104L109.898 79.7051L108.609 78.3222ZM113.182 96.8934V98.7837H117.588L114.552 95.5906L113.182 96.8934ZM101.531 96.8934L99.9451 97.9217L100.504 98.7837H101.531V96.8934ZM100.457 68.46L101.863 69.7232L101.869 69.7173L100.457 68.46ZM141.178 78.7993L140.007 80.2828L143.069 82.7001V78.7993H141.178ZM141.178 62.7946H152.512V59.014H141.178V62.7946ZM150.621 60.9043V97.6087H154.402V60.9043H150.621ZM152.512 95.7184H150.961V99.499H152.512V95.7184ZM152.159 96.1471C147.995 92.7354 142.753 88.8588 136.444 84.5194L134.301 87.6339C140.558 91.937 145.708 95.7486 149.763 99.071L152.159 96.1471ZM136.445 84.5201C130.147 80.1807 125.524 77.3324 122.678 76.1082L121.184 79.5811C123.641 80.6374 127.978 83.2771 134.3 87.6331L136.445 84.5201ZM122.678 76.1082C119.828 74.8826 117.003 74.2444 114.216 74.2444V78.025C116.414 78.025 118.732 78.5271 121.184 79.5811L122.678 76.1082ZM114.216 74.2444C111.573 74.2444 109.241 75.1495 107.32 76.9392L109.898 79.7051C111.106 78.5793 112.512 78.025 114.216 78.025V74.2444ZM107.333 76.9279C105.395 78.7018 104.373 80.9369 104.373 83.5319H108.153C108.153 82.0431 108.696 80.8061 109.886 79.7165L107.333 76.9279ZM104.373 83.5319C104.373 88.3053 107.07 93.208 111.813 98.1954L114.552 95.5906C110.069 90.8754 108.153 86.8702 108.153 83.5319H104.373ZM113.182 95.0031H101.531V98.7837H113.182V95.0031ZM103.117 95.8643C99.7281 90.6417 98.1322 85.8124 98.1322 81.3444H94.3516C94.3516 86.7386 96.2816 92.2757 99.9451 97.9217L103.117 95.8643ZM98.1322 81.3444C98.1322 76.2065 99.4488 72.4112 101.863 69.7232L99.0509 67.1968C95.8452 70.7654 94.3516 75.5601 94.3516 81.3444H98.1322ZM101.869 69.7173C104.261 67.0314 107.568 65.6181 112.029 65.6181V61.8374C106.681 61.8374 102.273 63.5789 99.0457 67.2027L101.869 69.7173ZM112.029 65.6181C114.948 65.6181 118.739 66.724 123.479 69.1748C128.192 71.6118 133.698 75.3015 140.007 80.2828L142.35 77.3158C135.933 72.2492 130.218 68.4033 125.215 65.8165C120.239 63.2435 115.818 61.8374 112.029 61.8374V65.6181ZM143.069 78.7993V60.9043H139.288V78.7993H143.069ZM128.572 40.5437V42.4341H130.388L130.461 40.6193L128.572 40.5437ZM118.79 40.5437H116.899V42.4341H118.79V40.5437ZM116.841 35.0162L115.453 36.2995L115.459 36.306L115.465 36.3125L116.841 35.0162ZM108.45 50.9626V52.8529H111.479L110.148 50.1319L108.45 50.9626ZM98.6677 50.9626L96.9367 51.7223L97.4329 52.8529H98.6677V50.9626ZM100.059 25.4324L101.554 26.5896L101.56 26.582L100.059 25.4324ZM122.687 28.7331L121.031 29.645L122.976 33.1765L124.447 29.4227L122.687 28.7331ZM148.814 24.3587L150.274 23.1582L150.268 23.1517L148.814 24.3587ZM150.086 52.3545V54.2448H151.251L151.775 53.2042L150.086 52.3545ZM139.309 52.3545L137.762 51.2678L135.671 54.2448H139.309V52.3545ZM141.695 34.3401L143.145 33.1277L143.14 33.1207L143.134 33.1138L141.695 34.3401ZM130.918 34.2606L132.29 35.5613L132.296 35.5554L132.301 35.5495L130.918 34.2606ZM128.572 38.6534H118.79V42.4341H128.572V38.6534ZM120.68 40.5437C120.68 37.8661 119.915 35.5222 118.217 33.7198L115.465 36.3125C116.365 37.2674 116.899 38.6084 116.899 40.5437H120.68ZM118.229 33.7329C116.597 31.9675 114.553 31.0182 112.188 31.0182V34.7989C113.429 34.7989 114.487 35.2546 115.453 36.2995L118.229 33.7329ZM112.188 31.0182C109.744 31.0182 107.679 32.0317 106.115 33.9356L109.036 36.3353C109.911 35.27 110.921 34.7989 112.188 34.7989V31.0182ZM106.115 33.9356C104.568 35.8189 103.856 38.1501 103.856 40.7824H107.636C107.636 38.8547 108.144 37.4213 109.036 36.3353L106.115 33.9356ZM103.856 40.7824C103.856 44.2494 104.862 47.9295 106.752 51.7933L110.148 50.1319C108.433 46.6256 107.636 43.5189 107.636 40.7824H103.856ZM108.45 49.0723H98.6677V52.8529H108.45V49.0723ZM100.399 50.203C98.9042 46.7977 98.1322 42.8354 98.1322 38.277H94.3516C94.3516 43.2627 95.1968 47.7575 96.9367 51.7223L100.399 50.203ZM98.1322 38.277C98.1322 33.306 99.3278 29.4655 101.554 26.5896L98.5648 24.2752C95.7012 27.9741 94.3516 32.6967 94.3516 38.277H98.1322ZM101.56 26.582C103.735 23.7427 106.45 22.3917 109.842 22.3917V18.611C105.227 18.611 101.421 20.5473 98.5589 24.2828L101.56 26.582ZM109.842 22.3917C114.591 22.3917 118.288 24.6649 121.031 29.645L124.343 27.8211C121.041 21.8256 116.175 18.611 109.842 18.611V22.3917ZM124.447 29.4227C125.61 26.4531 127.226 24.3553 129.23 22.9873C131.235 21.6194 133.776 20.8805 136.963 20.8805V17.0999C133.178 17.0999 129.853 17.9848 127.099 19.8646C124.345 21.7441 122.308 24.5177 120.927 28.0434L124.447 29.4227ZM136.963 20.8805C141.371 20.8805 144.773 22.4486 147.359 25.5657L150.268 23.1517C146.916 19.1108 142.418 17.0999 136.963 17.0999V20.8805ZM147.353 25.5592C149.944 28.71 151.337 33.0415 151.337 38.7542H155.118C155.118 32.431 153.569 27.1654 150.274 23.1582L147.353 25.5592ZM151.337 38.7542C151.337 43.3797 150.352 47.62 148.397 51.5048L151.775 53.2042C154.009 48.7644 155.118 43.9379 155.118 38.7542H151.337ZM150.086 50.4642H139.309V54.2448H150.086V50.4642ZM140.856 53.4411C143.934 49.06 145.614 44.774 145.614 40.6233H141.833C141.833 43.7366 140.57 47.2714 137.762 51.2678L140.856 53.4411ZM145.614 40.6233C145.614 37.7096 144.841 35.1551 143.145 33.1277L140.245 35.5526C141.254 36.7595 141.833 38.3939 141.833 40.6233H145.614ZM143.134 33.1138C141.387 31.0644 139.079 30.0241 136.366 30.0241V33.8047C138.001 33.8047 139.247 34.3816 140.257 35.5665L143.134 33.1138ZM136.366 30.0241C133.678 30.0241 131.358 31.0168 129.536 32.9717L132.301 35.5495C133.395 34.3761 134.707 33.8047 136.366 33.8047V30.0241ZM129.547 32.9599C127.7 34.9074 126.803 37.4789 126.683 40.4682L130.461 40.6193C130.554 38.3064 131.221 36.6892 132.29 35.5613L129.547 32.9599Z" fill="white"/>
<path fill-rule="evenodd" clip-rule="evenodd" d="M193.084 13.6694C193.501 13.6698 193.839 14.0086 193.839 14.4262L193.68 189.87C193.68 190.288 193.341 190.626 192.923 190.625C192.506 190.625 192.168 190.286 192.168 189.869L192.327 14.4249C192.327 14.0073 192.666 13.6691 193.084 13.6694Z" fill="white"/>
<path d="M623.607 7.10547C627.248 7.10547 630.695 8.27595 633.231 8.86119C633.621 8.92622 634.076 9.96665 634.076 10.6819C634.076 11.4623 634.531 15.0387 634.531 16.0141C634.531 18.225 633.491 19.1354 632.58 19.1354C631.865 19.1354 631.28 18.03 631.085 17.5098C629.654 13.6081 626.273 10.0967 622.566 10.0967C619.835 10.0967 617.364 12.6327 617.364 15.1038C617.364 18.03 619.51 20.1759 623.216 22.0616C631.41 26.2233 636.222 29.8648 636.222 36.0424C636.222 41.3746 632.58 44.3658 630.239 45.7964C627.703 47.292 623.412 48.3975 620.42 48.3975C614.893 48.3975 611.707 47.227 610.211 46.6418C609.756 46.4467 608.716 45.8614 608.39 45.1461C607.285 42.8052 607.09 39.4238 607.09 37.8631C607.09 36.6276 607.74 35.067 608.781 35.067C609.496 35.067 610.341 35.8473 611.252 37.538C613.658 41.9598 617.234 45.1461 621.266 45.1461C623.607 45.1461 626.533 43.5205 626.533 40.5292C626.533 38.5784 626.663 36.4325 620.03 32.8561C611.512 28.3042 608.195 24.7928 608.195 18.7453C608.195 14.5185 611.187 11.0721 614.308 9.31638C616.779 7.95082 619.9 7.10547 623.607 7.10547Z" fill="white"/>
<path d="M587.665 7.10547C591.307 7.10547 594.753 8.27595 597.289 8.86119C597.679 8.92622 598.135 9.96665 598.135 10.6819C598.135 11.4623 598.59 15.0387 598.59 16.0141C598.59 18.225 597.549 19.1354 596.639 19.1354C595.924 19.1354 595.338 18.03 595.143 17.5098C593.713 13.6081 590.331 10.0967 586.625 10.0967C583.894 10.0967 581.423 12.6327 581.423 15.1038C581.423 18.03 583.569 20.1759 587.275 22.0616C595.468 26.2233 600.28 29.8648 600.28 36.0424C600.28 41.3746 596.639 44.3658 594.298 45.7964C591.762 47.292 587.47 48.3975 584.479 48.3975C578.952 48.3975 575.765 47.227 574.27 46.6418C573.815 46.4467 572.774 45.8614 572.449 45.1461C571.344 42.8052 571.148 39.4238 571.148 37.8631C571.148 36.6276 571.799 35.067 572.839 35.067C573.554 35.067 574.4 35.8473 575.31 37.538C577.716 41.9598 581.293 45.1461 585.324 45.1461C587.665 45.1461 590.591 43.5205 590.591 40.5292C590.591 38.5784 590.722 36.4325 584.089 32.8561C575.57 28.3042 572.254 24.7928 572.254 18.7453C572.254 14.5185 575.245 11.0721 578.366 9.31638C580.837 7.95082 583.959 7.10547 587.665 7.10547Z" fill="white"/>
<path d="M544.468 8.34104H551.166C557.084 8.34104 557.994 8.34104 559.49 8.0159C560.205 7.88585 560.66 8.27601 560.855 8.60114C561.245 9.25141 561.765 14.1934 561.765 15.624C561.765 17.3147 560.985 17.7049 560.595 17.7049C559.424 17.7049 558.774 16.9896 557.994 15.2339C556.758 12.5678 555.848 12.1126 555.328 12.1126C551.621 12.1126 548.045 12.3077 547.134 12.3077C546.809 12.3077 546.289 13.023 546.289 13.2831C546.224 14.5186 546.094 19.2005 546.094 23.6874C546.094 24.7278 546.289 25.3781 546.614 25.4431C547.33 25.6382 549.605 25.5731 550.776 25.5081C553.702 25.313 554.613 24.2726 555.328 22.6469C555.718 21.6715 556.368 20.8912 557.084 20.8912C557.994 20.8912 558.579 21.8016 558.449 23.6874C558.384 24.4677 558.319 25.9633 558.319 27.4589C558.319 28.9545 558.449 30.4501 558.514 31.4255C558.644 33.1813 557.669 33.9616 557.018 33.9616C556.433 33.9616 555.588 33.2463 555.003 31.9458C554.352 30.4501 554.157 29.995 552.792 29.8649C550.126 29.6698 549.736 29.5398 546.809 29.5398C546.484 29.5398 546.094 30.4501 546.094 32.0758C546.094 33.8315 546.289 37.6031 546.354 39.0337C546.484 40.9195 546.744 41.6347 546.939 41.8949C547.59 42.8703 550.711 43.7156 553.832 43.7156C554.873 43.7156 556.693 43.5205 558.189 42.6752C559.424 42.0249 560.075 41.2446 561.505 39.2938C562.546 37.8632 563.261 36.3026 564.302 36.3026C565.537 36.3026 565.927 38.1883 565.667 39.5539C565.277 41.4397 563.716 45.7965 563.456 46.3817C563.261 46.8369 561.896 47.5522 561.505 47.5522C560.66 47.5522 558.059 47.2271 546.224 47.2271C542.127 47.2271 533.934 47.4872 531.138 47.4872C529.772 47.4872 528.797 46.9669 528.797 46.4467C528.797 45.6664 529.317 44.756 530.683 44.3659C535.17 43.1304 535.3 41.6347 535.43 40.4643C535.69 37.343 535.755 35.9774 535.755 25.9633C535.755 15.9492 535.625 15.559 535.43 14.3885C535.104 12.4377 534.259 11.7224 531.658 11.0722C529.967 10.682 529.707 9.77163 529.707 9.31644C529.707 8.47109 531.008 8.0159 531.853 8.0159C532.959 8.0159 540.177 8.34104 544.468 8.34104Z" fill="white"/>
<path d="M491.241 9.51156C491.241 8.47113 492.476 8.21102 493.322 8.21102C493.647 8.21102 499.304 8.34107 501.905 8.34107C504.506 8.34107 509.578 8.146 510.879 8.146C512.244 8.146 513.025 8.79626 513.025 9.57658C513.025 10.3569 512.179 11.0072 510.814 11.2673C507.172 12.0476 506.977 13.4782 506.912 14.8438C506.782 16.3394 506.522 19.9809 506.522 25.5732C506.522 32.401 506.717 38.6436 506.847 40.8545C506.912 41.8299 508.473 43.1954 510.944 43.7807C511.854 43.9758 514 44.0408 516.341 43.5856C518.292 43.1954 521.543 39.3589 522.909 36.8878C523.559 35.6523 524.274 35.1971 524.469 35.1971C525.64 35.1971 526.42 36.5627 526.095 37.7332C525.64 39.3589 524.404 44.496 523.949 45.7965C523.559 46.7719 522.389 47.4222 521.088 47.4222C518.812 47.4222 511.919 47.2271 503.856 47.2271C499.434 47.2271 492.931 47.5522 491.501 47.5522C490.07 47.5522 488.965 46.8369 488.965 45.9266C488.965 45.0162 489.94 44.561 491.046 44.3659C495.402 43.5206 495.858 41.9599 495.988 40.4643C496.118 38.5135 496.248 35.7824 496.248 28.0442C496.248 16.2743 496.313 16.4044 496.183 14.6487C495.988 12.5028 495.272 12.1777 493.127 11.2673C491.761 10.682 491.241 10.2269 491.241 9.51156Z" fill="white"/>
<path d="M456.607 8.34096H476.505C480.146 8.34096 481.772 7.88578 482.032 7.56064C482.812 6.58524 483.528 6 483.983 6C484.373 6 486.064 7.04043 486.064 8.08085C486.064 8.53604 485.283 12.6327 485.283 16.9895C485.283 18.2901 484.308 19.7206 483.073 19.7206C482.162 19.7206 481.642 18.095 481.512 17.5097C480.537 13.218 479.431 13.0879 477.09 12.8278C476.115 12.6978 475.92 12.5027 470.392 12.5027C470.067 12.5027 469.872 13.0229 469.807 13.6732C469.742 14.5835 469.352 23.3621 469.352 27.4588C469.352 31.4255 469.287 35.7172 469.482 38.0582C469.872 42.8052 470.978 43.0002 473.644 43.9756C474.814 44.4308 475.92 45.0161 475.92 45.7964C475.92 47.227 474.359 47.5521 473.058 47.5521C472.408 47.5521 465.255 47.227 461.354 47.227C459.468 47.227 455.956 47.4221 454.201 47.4221C452.835 47.4221 451.535 46.8368 451.535 45.6663C451.535 45.1461 452.185 44.2357 453.68 43.8456C457.712 42.7401 458.818 41.8948 458.818 38.3183C458.818 36.9527 458.948 28.3042 458.948 24.0774C458.948 20.0458 459.013 15.754 459.013 13.7382C459.013 13.218 458.362 12.5027 458.167 12.5027C456.542 12.5027 454.136 12.5027 452.445 12.5677C450.624 12.6327 448.869 12.6327 447.113 17.5097C446.723 18.6152 445.942 19.4605 445.227 19.4605C444.382 19.4605 443.406 18.2901 443.406 16.7294C443.406 14.7136 444.122 11.7874 444.122 8.21091C444.122 7.10545 445.097 6.13005 445.877 6.13005C446.072 6.13005 446.853 6.52021 447.308 6.84535C448.413 7.75572 449.389 8.14588 451.274 8.21091C453.941 8.34096 454.526 8.34096 456.607 8.34096Z" fill="white"/>
<path d="M423.043 32.9863V17.9651C423.043 12.5029 422.783 11.7876 419.271 11.0073C418.166 10.7472 417.516 9.96683 417.516 9.38159C417.516 8.40619 419.076 8.08105 419.727 8.08105C420.962 8.08105 425.059 8.34116 427.92 8.34116C431.822 8.34116 435.008 8.14608 436.894 8.14608C437.869 8.14608 438.909 8.6663 438.909 9.51165C438.909 10.292 437.804 10.8122 437.284 10.9422C434.097 11.6575 433.902 12.5029 433.642 15.8843C433.447 18.6804 433.382 24.3378 433.382 28.7596C433.382 35.8475 433.512 38.3835 433.512 39.2289C433.642 42.2851 433.967 43.5857 437.219 44.366C438.454 44.6911 439.3 45.3414 439.3 46.2518C439.3 47.0321 437.869 47.4223 437.089 47.4223C436.438 47.4223 430.131 47.2272 427.92 47.2272C425.644 47.2272 420.897 47.4873 419.727 47.4873C418.881 47.4873 417.516 47.2922 417.516 46.2518C417.516 45.5365 418.556 44.6911 419.466 44.431C422.068 43.5857 422.458 42.8054 422.783 40.8546C422.978 39.489 423.043 38.3185 423.043 32.9863Z" fill="white"/>
<path d="M359.51 9.9014C359.51 9.18611 360.485 8.08065 361.916 8.08065C363.541 8.08065 373.816 8.34076 374.206 8.34076C374.531 8.34076 375.441 9.44622 375.506 9.57627C375.766 10.4866 376.612 12.0473 377.977 15.2336C379.408 18.55 384.415 29.6695 385.91 31.4903C385.91 31.5553 386.496 31.8154 386.691 31.3602C388.837 26.7433 391.698 20.7609 393.844 15.8188C395.079 12.9577 395.534 11.1369 396.055 9.70632C396.185 9.31616 396.9 8.47081 397.29 8.47081C398.396 8.47081 407.759 8.01562 409.84 8.01562C410.491 8.01562 411.986 8.66589 411.986 9.57627C411.986 10.3566 411.401 10.7467 410.1 11.1369C405.939 12.3724 405.809 12.6976 405.809 14.3883C405.809 23.6221 406.264 31.1001 406.524 37.8629C406.719 43.1951 408.085 43.5853 410.296 44.1055C412.311 44.5607 412.962 45.276 412.962 46.0563C412.962 46.7066 411.726 47.6169 410.361 47.6169C409.58 47.6169 402.297 47.2268 399.176 47.2268C396.25 47.2268 394.624 47.4869 393.063 47.4869C391.438 47.4869 390.983 46.1213 390.983 45.6661C390.983 45.1459 392.023 44.6257 392.348 44.4956C395.534 43.3902 396.12 42.6099 396.185 39.0334C396.25 37.3427 396.12 25.6379 396.315 19.3953C396.315 19.0702 395.86 19.1352 395.534 19.7204C394.689 21.2811 389.032 34.8717 387.666 38.123C386.951 39.8137 385.91 42.935 385 45.1459C384.35 46.6415 383.179 47.682 381.749 47.682C381.164 47.682 380.188 46.5765 379.863 45.471C378.888 42.2847 377.587 39.1634 377.002 37.4728C374.141 29.4094 371.54 24.4674 369.914 20.5008C369.654 19.8505 369.134 19.9806 369.134 20.4357C368.613 27.9138 368.288 35.3919 368.288 38.7083C368.288 42.6099 368.743 42.805 372.19 44.1705C373.62 44.7558 374.271 45.1459 374.271 45.9913C374.271 46.7066 373.36 47.4869 371.865 47.4869C370.954 47.4869 368.613 47.2268 366.728 47.2268C364.647 47.2268 359.9 47.6169 359.054 47.6169C357.819 47.6169 356.648 46.9667 356.648 46.1213C356.648 45.5361 357.234 44.8858 358.794 44.3656C362.046 43.3252 363.086 42.0246 363.541 39.2935C364.322 34.8067 365.817 19.6554 365.947 16.274C366.077 12.7626 365.102 12.3074 361.851 11.397C360.225 10.9418 359.51 10.4216 359.51 9.9014Z" fill="white"/>
<path d="M337.059 32.9863V17.9651C337.059 12.5029 336.798 11.7876 333.287 11.0073C332.182 10.7472 331.531 9.96683 331.531 9.38159C331.531 8.40619 333.092 8.08105 333.742 8.08105C334.978 8.08105 339.074 8.34116 341.936 8.34116C345.837 8.34116 349.023 8.14608 350.909 8.14608C351.885 8.14608 352.925 8.6663 352.925 9.51165C352.925 10.292 351.82 10.8122 351.299 10.9422C348.113 11.6575 347.918 12.5029 347.658 15.8843C347.463 18.6804 347.398 24.3378 347.398 28.7596C347.398 35.8475 347.528 38.3835 347.528 39.2289C347.658 42.2851 347.983 43.5857 351.234 44.366C352.47 44.6911 353.315 45.3414 353.315 46.2518C353.315 47.0321 351.885 47.4223 351.104 47.4223C350.454 47.4223 344.146 47.2272 341.936 47.2272C339.66 47.2272 334.913 47.4873 333.742 47.4873C332.897 47.4873 331.531 47.2922 331.531 46.2518C331.531 45.5365 332.572 44.6911 333.482 44.431C336.083 43.5857 336.473 42.8054 336.798 40.8546C336.994 39.489 337.059 38.3185 337.059 32.9863Z" fill="white"/>
<path d="M292.542 9.51156C292.542 8.47113 293.777 8.21102 294.622 8.21102C294.948 8.21102 300.605 8.34107 303.206 8.34107C305.807 8.34107 310.879 8.146 312.18 8.146C313.545 8.146 314.326 8.79626 314.326 9.57658C314.326 10.3569 313.48 11.0072 312.115 11.2673C308.473 12.0476 308.278 13.4782 308.213 14.8438C308.083 16.3394 307.823 19.9809 307.823 25.5732C307.823 32.401 308.018 38.6436 308.148 40.8545C308.213 41.8299 309.774 43.1954 312.245 43.7807C313.155 43.9758 315.301 44.0408 317.642 43.5856C319.593 43.1954 322.844 39.3589 324.21 36.8878C324.86 35.6523 325.575 35.1971 325.77 35.1971C326.941 35.1971 327.721 36.5627 327.396 37.7332C326.941 39.3589 325.705 44.496 325.25 45.7965C324.86 46.7719 323.689 47.4222 322.389 47.4222C320.113 47.4222 313.22 47.2271 305.157 47.2271C300.735 47.2271 294.232 47.5522 292.802 47.5522C291.371 47.5522 290.266 46.8369 290.266 45.9266C290.266 45.0162 291.241 44.561 292.346 44.3659C296.703 43.5206 297.158 41.9599 297.289 40.4643C297.419 38.5135 297.549 35.7824 297.549 28.0442C297.549 16.2743 297.614 16.4044 297.484 14.6487C297.289 12.5028 296.573 12.1777 294.427 11.2673C293.062 10.682 292.542 10.2269 292.542 9.51156Z" fill="white"/>
<path d="M255.863 7.04053C257.034 7.04053 257.424 8.99133 259.115 13.3481C262.626 22.777 267.958 35.3922 269.714 39.3588C271.34 43.0003 272.25 43.0654 274.786 44.1058C276.282 44.7561 276.802 45.7315 276.802 46.4468C276.802 47.2271 275.761 47.5522 274.526 47.5522C272.51 47.5522 267.438 47.2271 264.252 47.2271C261.456 47.2271 259.7 47.5522 257.359 47.5522C255.538 47.5522 254.953 46.7719 254.953 46.3167C254.953 45.5364 255.733 44.626 256.969 44.1058C259.245 43.1304 259.245 41.6998 258.919 40.5943C258.334 38.9687 258.269 38.6435 257.424 36.6927C257.359 36.4977 256.774 35.7824 255.733 35.6523C254.628 35.5223 246.499 35.3922 245.004 35.7173C244.614 35.7824 244.093 36.4326 243.963 36.6927C243.443 37.9933 242.923 40.4643 242.923 41.3096C242.923 42.4801 243.768 43.4555 245.849 44.1708C246.759 44.496 247.735 45.0162 247.735 45.8615C247.735 46.1867 246.824 47.4222 245.134 47.4222C244.353 47.4222 242.923 47.2271 240.842 47.2271C238.436 47.2271 235.77 47.5522 233.039 47.5522C231.608 47.5522 230.633 46.9019 230.633 46.1216C230.633 45.4714 231.153 44.8211 232.584 44.2358C234.99 43.2604 236.29 43.0654 238.371 38.7086C239.997 35.2621 244.614 23.5573 248.515 13.2831C248.58 13.088 248.71 12.6328 248.71 11.9175C248.71 11.6574 249.035 11.2022 249.295 11.0072C250.141 10.4869 253.392 8.34106 254.107 7.75582C254.498 7.36566 255.538 7.04053 255.863 7.04053ZM254.563 31.2955C254.888 31.2955 255.278 30.7103 255.213 30.5152C254.238 27.3289 251.506 20.371 250.921 19.3306C250.661 18.8754 250.271 19.0705 250.076 19.3306C249.035 21.4765 246.239 29.4748 246.044 30.4502C245.979 30.8403 246.304 31.3605 246.759 31.3605C247.605 31.3605 253.652 31.3605 254.563 31.2955Z" fill="white"/>
<path d="M627.838 134.883C629.607 134.883 630.197 137.832 632.753 144.418C638.061 158.671 646.121 177.74 648.775 183.737C651.233 189.241 652.609 189.339 656.442 190.912C658.703 191.895 659.49 193.37 659.49 194.451C659.49 195.63 657.917 196.122 656.049 196.122C653.002 196.122 645.335 195.63 640.518 195.63C636.292 195.63 633.638 196.122 630.099 196.122C627.347 196.122 626.462 194.942 626.462 194.254C626.462 193.075 627.642 191.699 629.509 190.912C632.95 189.438 632.95 187.275 632.458 185.604C631.573 183.147 631.475 182.655 630.197 179.706C630.099 179.412 629.214 178.33 627.642 178.134C625.971 177.937 613.683 177.74 611.423 178.232C610.833 178.33 610.047 179.313 609.85 179.706C609.064 181.672 608.277 185.408 608.277 186.685C608.277 188.455 609.555 189.929 612.701 191.01C614.077 191.502 615.551 192.288 615.551 193.566C615.551 194.058 614.175 195.925 611.619 195.925C610.44 195.925 608.277 195.63 605.132 195.63C601.495 195.63 597.465 196.122 593.336 196.122C591.174 196.122 589.699 195.139 589.699 193.959C589.699 192.976 590.486 191.993 592.648 191.109C596.285 189.634 598.251 189.339 601.396 182.754C603.854 177.544 610.833 159.851 616.731 144.32C616.829 144.025 617.026 143.337 617.026 142.256C617.026 141.862 617.517 141.174 617.91 140.879C619.188 140.093 624.103 136.849 625.184 135.965C625.774 135.375 627.347 134.883 627.838 134.883ZM625.872 171.548C626.364 171.548 626.954 170.663 626.855 170.368C625.381 165.552 621.252 155.034 620.368 153.461C619.974 152.773 619.385 153.068 619.09 153.461C617.517 156.705 613.29 168.796 612.995 170.27C612.897 170.86 613.389 171.646 614.077 171.646C615.355 171.646 624.496 171.646 625.872 171.548Z" fill="white"/>
<path d="M550.009 136.849H580.088C585.592 136.849 588.05 136.161 588.443 135.67C589.622 134.195 590.704 133.311 591.392 133.311C591.981 133.311 594.537 134.883 594.537 136.456C594.537 137.144 593.358 143.337 593.358 149.923C593.358 151.889 591.883 154.051 590.015 154.051C588.639 154.051 587.853 151.594 587.656 150.709C586.182 144.221 584.511 144.025 580.972 143.632C579.498 143.435 579.203 143.14 570.848 143.14C570.356 143.14 570.061 143.927 569.963 144.91C569.865 146.286 569.275 159.556 569.275 165.748C569.275 171.744 569.177 178.232 569.472 181.771C570.061 188.946 571.732 189.241 575.762 190.716C577.532 191.404 579.203 192.288 579.203 193.468C579.203 195.63 576.844 196.122 574.878 196.122C573.895 196.122 563.082 195.63 557.184 195.63C554.334 195.63 549.026 195.925 546.372 195.925C544.308 195.925 542.342 195.041 542.342 193.271C542.342 192.485 543.325 191.109 545.586 190.519C551.68 188.848 553.351 187.57 553.351 182.164C553.351 180.1 553.548 167.026 553.548 160.637C553.548 154.543 553.646 148.055 553.646 145.008C553.646 144.221 552.663 143.14 552.368 143.14C549.911 143.14 546.274 143.14 543.718 143.238C540.966 143.337 538.312 143.337 535.658 150.709C535.068 152.38 533.888 153.658 532.807 153.658C531.529 153.658 530.055 151.889 530.055 149.529C530.055 146.482 531.136 142.059 531.136 136.653C531.136 134.982 532.61 133.507 533.79 133.507C534.085 133.507 535.264 134.097 535.952 134.588C537.624 135.965 539.098 136.554 541.949 136.653C545.979 136.849 546.863 136.849 550.009 136.849Z" fill="white"/>
<path d="M500.553 134.883C502.322 134.883 502.912 137.832 505.468 144.418C510.776 158.671 518.836 177.74 521.49 183.737C523.948 189.241 525.324 189.339 529.157 190.912C531.418 191.895 532.204 193.37 532.204 194.451C532.204 195.63 530.632 196.122 528.764 196.122C525.717 196.122 518.05 195.63 513.233 195.63C509.007 195.63 506.353 196.122 502.814 196.122C500.062 196.122 499.177 194.942 499.177 194.254C499.177 193.075 500.356 191.699 502.224 190.912C505.664 189.438 505.664 187.275 505.173 185.604C504.288 183.147 504.19 182.655 502.912 179.706C502.814 179.412 501.929 178.33 500.356 178.134C498.685 177.937 486.398 177.74 484.138 178.232C483.548 178.33 482.761 179.313 482.565 179.706C481.778 181.672 480.992 185.408 480.992 186.685C480.992 188.455 482.27 189.929 485.415 191.01C486.792 191.502 488.266 192.288 488.266 193.566C488.266 194.058 486.89 195.925 484.334 195.925C483.155 195.925 480.992 195.63 477.847 195.63C474.21 195.63 470.179 196.122 466.051 196.122C463.889 196.122 462.414 195.139 462.414 193.959C462.414 192.976 463.2 191.993 465.363 191.109C469 189.634 470.966 189.339 474.111 182.754C476.569 177.544 483.548 159.851 489.446 144.32C489.544 144.025 489.74 143.337 489.74 142.256C489.74 141.862 490.232 141.174 490.625 140.879C491.903 140.093 496.818 136.849 497.899 135.965C498.489 135.375 500.062 134.883 500.553 134.883ZM498.587 171.548C499.079 171.548 499.668 170.663 499.57 170.368C498.096 165.552 493.967 155.034 493.083 153.461C492.689 152.773 492.1 153.068 491.805 153.461C490.232 156.705 486.005 168.796 485.71 170.27C485.612 170.86 486.103 171.646 486.792 171.646C488.069 171.646 497.211 171.646 498.587 171.548Z" fill="white"/>
<path d="M422.035 136.161C431.471 136.161 441.203 138.225 448.476 144.32C456.733 151.299 458.404 160.047 458.404 166.142C458.404 181.181 448.378 188.946 443.07 191.895C436.091 195.63 428.719 196.417 421.445 196.417C417.415 196.417 406.701 195.63 403.555 195.63C400.41 195.63 395.986 195.63 391.268 196.024C390.482 196.122 389.695 195.434 389.695 194.746C389.695 193.664 391.17 191.305 393.627 190.617C396.773 189.733 398.444 190.028 399.23 185.604C399.918 181.771 399.918 176.856 399.918 163.881C399.918 150.414 400.115 148.743 399.427 145.303C399.23 144.221 399.033 142.747 394.414 141.764C392.054 141.273 390.678 140.191 390.678 138.815C390.678 137.341 392.251 136.751 395.102 136.751L401.884 136.849C405.324 136.948 415.154 136.161 422.035 136.161ZM422.035 141.371C421.248 141.371 418.005 141.764 417.317 142.157C416.923 142.354 415.94 144.221 415.94 144.615C415.744 147.957 415.351 152.183 415.351 159.556V166.633C415.351 179.215 415.744 180.788 416.039 183.737C416.235 185.801 417.317 187.865 418.496 188.848C419.577 189.733 423.116 191.404 424.394 191.404C425.475 191.404 430.783 190.224 435.108 186.096C439.532 181.869 441.399 173.612 441.399 167.026C441.399 159.851 439.532 152.478 434.518 147.564C430.193 143.238 425.18 141.371 422.035 141.371Z" fill="white"/>
<path d="M330.335 136.849H346.161C358.841 136.849 361.004 136.26 361.397 136.26C362.282 136.26 363.265 137.341 363.265 138.225V147.858C363.265 150.611 361.692 152.184 360.512 152.184C359.726 152.184 358.546 150.807 357.957 148.743C357.268 146.482 355.892 142.845 352.452 142.55C349.7 142.354 342.032 142.354 338.985 142.354C337.904 142.354 337.216 144.025 337.118 145.106C336.823 148.645 336.724 159.556 336.921 162.308C337.019 163.389 337.314 163.979 338.199 163.979C340.263 163.979 344.195 163.782 346.849 163.488C349.995 163.094 350.289 162.308 351.567 159.457C352.059 158.376 353.337 156.41 354.516 156.41C355.892 156.41 356.482 158.278 356.482 159.949C356.482 162.8 356.089 165.355 356.089 167.026C356.089 168.894 356.482 173.022 356.482 173.809C356.482 175.381 355.401 177.151 353.926 177.151C353.14 177.151 352.157 176.168 351.371 174.595C349.798 171.548 349.503 170.467 347.242 170.172C346.161 169.975 344.687 169.779 338.002 169.779C337.609 169.779 337.019 171.155 336.921 172.334C336.724 175.676 336.724 182.164 336.921 184.326C337.314 188.553 338.592 189.733 343.409 191.011C345.964 191.699 346.751 192.878 346.751 193.861C346.751 194.844 345.08 196.122 343.212 196.122C337.019 196.122 332.498 195.63 328.566 195.63C326.502 195.63 323.16 196.024 315.591 196.024C313.92 196.024 312.445 195.237 312.445 193.959C312.445 192.878 313.625 191.699 315.591 191.207C319.326 190.322 320.702 188.553 320.899 185.899C321.194 182.95 321.292 180.001 321.292 166.928C321.292 152.184 321.292 150.021 321.095 146.581C320.899 143.435 319.621 142.354 315.886 141.273C314.116 140.781 312.642 140.191 312.642 138.52C312.642 137.144 315.198 136.554 316.279 136.554C323.946 136.653 326.502 136.849 330.335 136.849Z" fill="white"/>
<path d="M270.307 134.883C290.753 134.883 304.515 148.645 304.515 166.24C304.515 178.527 297.241 188.16 288.001 193.271C283.774 195.63 276.893 197.4 270.602 197.4C249.862 197.4 236.297 183.245 236.297 166.24C236.297 158.671 239.147 151.2 245.242 145.106C251.631 138.717 261.068 134.883 270.307 134.883ZM268.538 139.995C263.918 139.995 259.79 143.927 259.691 144.025C255.563 148.546 253.794 155.231 253.794 164.47C253.794 177.839 259.888 192.387 273.158 192.387C276.5 192.387 280.432 189.438 280.923 189.045C284.069 186.096 286.625 179.903 286.625 166.928C286.625 156.607 281.513 139.995 268.538 139.995Z" fill="white"/>
<path d="M516.773 63.0739C516.773 62.3858 517.56 61.4028 519.329 61.4028C523.261 61.4028 531.125 62.1892 537.416 62.1892C538.3 62.1892 539.676 62.8773 539.971 63.2705C541.642 65.5313 544.69 68.7751 549.408 73.8865C554.618 79.4894 570.247 96.0031 572.409 97.1827C572.704 97.281 573.49 97.0844 573.589 96.7895C574.178 94.1355 574.178 84.6991 573.884 77.9166C573.589 71.2325 574.08 68.6768 566.413 66.9074C564.054 66.3176 563.169 64.6466 563.169 64.0568C563.169 63.3688 564.251 61.8943 566.61 61.8943C570.148 61.8943 569.952 61.9926 572.507 61.9926C576.538 61.9926 584.008 61.5011 585.974 61.5011C588.038 61.5011 589.414 62.0909 589.414 63.7619C589.414 64.8432 588.628 65.5313 585.483 66.9074C581.452 68.6768 580.863 69.758 580.764 71.0359C580.568 75.5575 579.781 95.8065 579.781 102.392C579.781 106.717 580.175 111.042 580.175 115.564C580.175 119.693 579.388 122.74 577.619 122.74C574.473 122.74 571.918 120.97 570.05 118.808C566.413 114.679 561.793 109.273 559.041 106.226C555.306 101.901 539.971 85.5837 535.646 80.8655C535.351 80.5706 534.663 81.1604 534.663 81.5536C534.565 83.7161 534.368 84.011 534.368 88.2377C534.368 92.6611 534.565 101.508 534.663 104.162C534.958 111.829 536.236 114.188 539.676 115.564C543.019 116.842 544.1 117.923 544.1 119.299C544.1 120.479 543.019 121.167 540.758 121.167C538.005 121.167 534.663 120.774 530.043 120.774C525.424 120.774 522.966 121.167 521.688 121.167C518.739 121.167 517.756 120.086 517.756 119.103C517.756 117.825 518.936 116.94 520.705 116.35C525.227 114.876 526.996 114.581 527.488 107.995C527.979 101.409 528.766 77.9166 528.766 74.7711C528.766 74.1813 528.274 72.1171 526.996 70.6427C524.932 68.2836 523.163 67.104 520.902 66.6125C518.641 66.1211 516.773 64.9415 516.773 63.0739Z" fill="white"/>
<path d="M482.217 60.0269C483.986 60.0269 484.576 62.9757 487.132 69.5616C492.44 83.8146 500.5 102.884 503.154 108.88C505.612 114.385 506.988 114.483 510.821 116.056C513.082 117.039 513.868 118.513 513.868 119.594C513.868 120.774 512.296 121.265 510.428 121.265C507.381 121.265 499.714 120.774 494.897 120.774C490.671 120.774 488.017 121.265 484.478 121.265C481.726 121.265 480.841 120.086 480.841 119.398C480.841 118.218 482.02 116.842 483.888 116.056C487.328 114.581 487.328 112.419 486.837 110.748C485.952 108.29 485.854 107.799 484.576 104.85C484.478 104.555 483.593 103.474 482.02 103.277C480.349 103.081 468.062 102.884 465.802 103.376C465.212 103.474 464.425 104.457 464.229 104.85C463.442 106.816 462.656 110.551 462.656 111.829C462.656 113.598 463.934 115.073 467.079 116.154C468.456 116.646 469.93 117.432 469.93 118.71C469.93 119.201 468.554 121.069 465.998 121.069C464.819 121.069 462.656 120.774 459.511 120.774C455.874 120.774 451.844 121.265 447.715 121.265C445.553 121.265 444.078 120.282 444.078 119.103C444.078 118.12 444.864 117.137 447.027 116.252C450.664 114.778 452.63 114.483 455.775 107.897C458.233 102.687 465.212 84.9941 471.11 69.4633C471.208 69.1684 471.404 68.4803 471.404 67.3991C471.404 67.0059 471.896 66.3178 472.289 66.0229C473.567 65.2366 478.482 61.9928 479.563 61.1081C480.153 60.5183 481.726 60.0269 482.217 60.0269ZM480.251 96.6914C480.743 96.6914 481.332 95.8067 481.234 95.5118C479.76 90.6953 475.631 80.1776 474.747 78.6049C474.353 77.9168 473.764 78.2117 473.469 78.6049C471.896 81.8486 467.669 93.9391 467.374 95.4135C467.276 96.0033 467.768 96.7897 468.456 96.7897C469.733 96.7897 478.875 96.7897 480.251 96.6914Z" fill="white"/>
<path d="M405.689 61.9924H415.814C424.759 61.9924 426.135 61.9924 428.396 61.501C429.477 61.3044 430.165 61.8941 430.46 62.3856C431.05 63.3686 431.836 70.8391 431.836 73.0016C431.836 75.5573 430.657 76.1471 430.067 76.1471C428.298 76.1471 427.315 75.0658 426.135 72.4119C424.267 68.3817 422.891 67.6936 422.105 67.6936C416.502 67.6936 411.096 67.9885 409.72 67.9885C409.228 67.9885 408.442 69.0698 408.442 69.463C408.343 71.3306 408.147 78.4079 408.147 85.1904C408.147 86.7631 408.442 87.7461 408.933 87.8444C410.014 88.1393 413.455 88.041 415.224 87.9427C419.647 87.6478 421.024 86.075 422.105 83.6176C422.695 82.1432 423.678 80.9636 424.759 80.9636C426.135 80.9636 427.02 82.3398 426.823 85.1904C426.725 86.3699 426.627 88.6307 426.627 90.8916C426.627 93.1524 426.823 95.4132 426.921 96.8876C427.118 99.5416 425.644 100.721 424.661 100.721C423.776 100.721 422.498 99.6399 421.613 97.674C420.63 95.4132 420.336 94.7251 418.271 94.5285C414.241 94.2336 413.651 94.037 409.228 94.037C408.737 94.037 408.147 95.4132 408.147 97.8706C408.147 100.525 408.442 106.226 408.54 108.388C408.737 111.239 409.13 112.32 409.425 112.713C410.408 114.188 415.126 115.466 419.844 115.466C421.417 115.466 424.169 115.171 426.43 113.893C428.298 112.91 429.281 111.73 431.443 108.781C433.016 106.619 434.097 104.26 435.67 104.26C437.537 104.26 438.127 107.11 437.734 109.175C437.144 112.025 434.785 118.611 434.392 119.496C434.097 120.184 432.033 121.265 431.443 121.265C430.165 121.265 426.233 120.774 408.343 120.774C402.151 120.774 389.765 121.167 385.539 121.167C383.474 121.167 382 120.38 382 119.594C382 118.415 382.786 117.038 384.851 116.449C391.633 114.581 391.83 112.32 392.026 110.551C392.419 105.833 392.518 103.768 392.518 88.6307C392.518 73.4931 392.321 72.9033 392.026 71.134C391.535 68.1851 390.257 67.1039 386.325 66.1209C383.769 65.5311 383.376 64.155 383.376 63.4669C383.376 62.189 385.342 61.501 386.62 61.501C388.291 61.501 399.202 61.9924 405.689 61.9924Z" fill="white"/>
<path d="M352.938 60.0269C357.46 60.0269 361.981 61.0098 364.635 61.6979C367.093 62.386 370.631 63.4672 371.418 63.4672C371.909 63.4672 373.089 64.7451 373.089 65.3349C373.089 68.8735 374.072 73.8866 374.072 76.344C374.072 79.0963 372.204 80.6691 370.926 80.6691C370.14 80.6691 369.648 79.8827 368.862 77.7202C367.387 73.69 366.798 71.5275 363.161 68.8735C360.114 66.6127 356.673 64.9417 352.446 64.9417C348.22 64.9417 342.813 67.3991 339.57 71.3309C335.343 76.344 333.377 83.8146 333.377 89.7123C333.377 97.1829 335.834 103.867 338.685 107.897C342.224 112.91 348.711 116.547 354.609 116.547C357.066 116.547 361.49 114.974 363.456 113.893C364.242 113.402 366.011 111.534 368.469 107.602C370.336 104.653 371.516 103.474 372.499 103.474C374.366 103.474 374.563 105.341 374.465 107.406C374.465 108.29 372.597 114.876 372.597 116.744C372.597 117.039 371.811 118.415 371.516 118.611C368.076 120.282 359.327 122.543 352.545 122.543C341.634 122.543 330.035 119.3 323.056 111.632C318.731 106.914 315.684 100.427 315.684 91.6783C315.684 81.1606 320.402 72.3139 329.052 66.3178C333.475 63.2706 342.715 60.0269 352.938 60.0269Z" fill="white"/>
<path d="M270.307 60.0269C290.753 60.0269 304.515 73.7883 304.515 91.3834C304.515 103.67 297.241 113.303 288.001 118.415C283.774 120.774 276.893 122.543 270.602 122.543C249.862 122.543 236.297 108.389 236.297 91.3834C236.297 83.8146 239.147 76.344 245.242 70.2497C251.631 63.8604 261.068 60.0269 270.307 60.0269ZM268.538 65.1383C263.918 65.1383 259.79 69.0701 259.691 69.1684C255.563 73.69 253.794 80.3742 253.794 89.614C253.794 102.982 259.888 117.53 273.158 117.53C276.5 117.53 280.432 114.581 280.923 114.188C284.069 111.239 286.625 105.047 286.625 92.0714C286.625 81.7503 281.513 65.1383 268.538 65.1383Z" fill="white"/>
</svg>
