<svg width="990" height="239" viewBox="0 0 990 239" fill="none" xmlns="http://www.w3.org/2000/svg">
<path d="M177.959 30.5488C177.959 29.8178 178.795 28.7735 180.675 28.7735C184.852 28.7735 193.206 29.6089 199.89 29.6089C200.83 29.6089 202.292 30.3399 202.605 30.7577C204.38 33.1596 207.617 36.6057 212.63 42.0361C218.165 47.9886 234.769 65.5329 237.067 66.786C237.38 66.8904 238.215 66.6816 238.32 66.3683C238.946 63.5487 238.946 53.5234 238.633 46.3177C238.32 39.2165 238.842 36.5013 230.696 34.6216C228.19 33.995 227.25 32.2197 227.25 31.5931C227.25 30.8621 228.399 29.2956 230.905 29.2956C234.665 29.2956 234.456 29.4001 237.171 29.4001C241.453 29.4001 249.389 28.8779 251.478 28.8779C253.671 28.8779 255.133 29.5045 255.133 31.2798C255.133 32.4285 254.298 33.1596 250.956 34.6216C246.674 36.5013 246.048 37.65 245.943 39.0076C245.734 43.8114 244.899 65.324 244.899 72.3208C244.899 76.9157 245.317 81.5104 245.317 86.3144C245.317 90.7004 244.481 93.9374 242.602 93.9374C239.26 93.9374 236.545 92.0584 234.56 89.7604C230.696 85.3744 225.788 79.6309 222.864 76.3936C218.896 71.7987 202.605 54.4633 198.01 49.4506C197.697 49.1373 196.966 49.7639 196.966 50.1816C196.861 52.4791 196.652 52.7924 196.652 57.2829C196.652 61.9822 196.861 71.3809 196.966 74.2005C197.279 82.3464 198.636 84.8524 202.292 86.3144C205.842 87.6724 206.991 88.8204 206.991 90.2824C206.991 91.5364 205.842 92.2674 203.44 92.2674C200.516 92.2674 196.966 91.8494 192.057 91.8494C187.149 91.8494 184.538 92.2674 183.181 92.2674C180.048 92.2674 179.004 91.1184 179.004 90.0744C179.004 88.7164 180.257 87.7764 182.137 87.1494C186.94 85.5834 188.82 85.2704 189.342 78.2733C189.864 71.2765 190.7 46.3177 190.7 42.976C190.7 42.3494 190.178 40.1564 188.82 38.5899C186.627 36.0836 184.747 34.8304 182.345 34.3083C179.944 33.7861 177.959 32.533 177.959 30.5488ZM283.489 29.4001H294.245C303.749 29.4001 305.211 29.4001 307.612 28.8779C308.761 28.6691 309.492 29.2956 309.805 29.8178C310.432 30.8621 311.268 38.7988 311.268 41.0962C311.268 43.8114 310.014 44.438 309.388 44.438C307.508 44.438 306.464 43.2893 305.211 40.4697C303.226 36.188 301.764 35.457 300.929 35.457C294.976 35.457 289.233 35.7703 287.771 35.7703C287.249 35.7703 286.413 36.919 286.413 37.3368C286.309 39.3209 286.1 46.8399 286.1 54.0456C286.1 55.7164 286.413 56.7607 286.935 56.8652C288.084 57.1785 291.739 57.074 293.619 56.9696C298.318 56.6563 299.78 54.9854 300.929 52.3747C301.556 50.8082 302.6 49.5551 303.749 49.5551C305.211 49.5551 306.15 51.0171 305.942 54.0456C305.837 55.2987 305.733 57.7006 305.733 60.1025C305.733 62.5044 305.942 64.9063 306.046 66.4727C306.255 69.2923 304.688 70.5455 303.644 70.5455C302.704 70.5455 301.347 69.3968 300.407 67.3082C299.362 64.9063 299.049 64.1753 296.856 63.9664C292.575 63.6531 291.948 63.4443 287.249 63.4443C286.726 63.4443 286.1 64.9063 286.1 67.517C286.1 70.3366 286.413 76.3936 286.518 78.691C286.726 81.7194 287.144 82.8684 287.457 83.2864C288.502 84.8524 293.514 86.2104 298.527 86.2104C300.198 86.2104 303.122 85.8964 305.524 84.5394C307.508 83.4944 308.552 82.2414 310.85 79.1088C312.521 76.8113 313.669 74.305 315.34 74.305C317.324 74.305 317.951 77.3334 317.533 79.5265C316.907 82.5554 314.4 89.5514 313.983 90.4914C313.669 91.2224 311.476 92.3714 310.85 92.3714C309.492 92.3714 305.315 91.8494 286.309 91.8494C279.73 91.8494 266.571 92.2674 262.081 92.2674C259.888 92.2674 258.321 91.4314 258.321 90.5964C258.321 89.3424 259.157 87.8804 261.35 87.2544C268.556 85.2704 268.764 82.8684 268.973 80.9884C269.391 75.9759 269.496 73.7828 269.496 57.7006C269.496 41.6184 269.287 40.9918 268.973 39.1121C268.451 35.9792 267.094 34.8304 262.916 33.7861C260.201 33.1596 259.784 31.6975 259.784 30.9665C259.784 29.6089 261.872 28.8779 263.23 28.8779C265.005 28.8779 276.597 29.4001 283.489 29.4001ZM318 30.6532C318 29.7134 320.297 28.6691 321.759 28.6691C327.503 28.6691 336.902 29.4001 338.782 29.4001C342.541 29.4001 343.794 29.1912 349.016 29.1912C351.731 29.1912 352.984 30.8621 352.984 31.4887C352.984 33.1596 351.104 34.3083 349.433 34.6216C345.778 35.2482 345.047 36.8146 345.778 39.6342C346.614 42.4538 356.117 65.9506 357.683 68.7702C357.997 69.2923 358.519 69.1879 358.937 68.8746C361.443 62.4 363.218 59.3715 367.186 47.1532C367.5 46.2133 367.186 44.438 366.769 42.8715C366.664 42.1405 366.142 41.0962 365.411 39.1121C364.785 37.3368 361.756 35.1437 360.399 34.726C358.623 34.2039 356.535 33.264 356.535 31.3842C356.535 30.0267 358.519 29.0868 360.19 29.0868C365.516 29.0868 369.797 29.4001 372.512 29.4001C375.123 29.4001 378.778 29.0868 385.357 29.0868C387.341 29.0868 389.326 30.1311 389.326 31.3842C389.326 32.4285 387.968 33.995 386.193 34.5171C382.642 35.457 382.12 36.6057 382.12 37.9633C382.12 39.4254 382.329 40.0519 383.06 42.4538C385.462 50.1816 392.041 66.1594 393.816 69.5012C394.129 70.1278 394.547 70.1278 394.86 69.6056C396.531 66.3683 401.231 54.2544 403.841 46.7355C405.721 40.9918 405.721 40.1564 405.721 38.5899C405.721 36.7102 403.006 35.3526 400.917 34.726C399.142 34.2039 397.576 32.9507 397.576 31.4887C397.576 30.8621 398.62 29.0868 401.231 29.0868C404.572 29.0868 405.303 29.4001 408.645 29.4001C412.091 29.4001 417.731 28.8779 420.759 28.8779C422.743 28.8779 424.936 29.2956 424.936 31.3842C424.936 32.533 422.639 34.2039 421.595 34.5171C415.642 36.2925 413.867 39.9475 411.883 44.438C409.69 49.3462 403.006 63.9664 399.038 75.2448C398.098 77.8556 396.218 83.0774 394.965 86.1054C393.712 89.1344 390.161 93.9374 388.281 93.9374C385.775 93.9374 383.791 90.0744 382.642 87.0454C379.614 79.2132 372.721 60.9379 370.737 56.9696C370.528 56.5519 369.797 56.7607 369.588 57.1785C366.664 64.6974 360.503 78.1689 359.354 82.3464C359.25 82.5554 358.206 85.2704 356.43 88.5074C355.908 89.4474 353.715 94.0424 352.253 94.0424C349.747 94.0424 348.285 91.6404 347.658 89.9694C346.405 86.2104 345.256 82.7634 343.585 77.96C339.617 66.9949 334.187 54.6721 330.114 44.1247C327.19 36.5013 325.832 35.457 321.655 33.995C319.253 33.1596 318 32.3241 318 30.6532ZM475.03 27.4159C480.878 27.4159 486.413 29.2956 490.486 30.2355C491.112 30.3399 491.843 32.0108 491.843 33.1596C491.843 34.4127 492.574 40.1564 492.574 41.7228C492.574 45.2734 490.903 46.7355 489.441 46.7355C488.293 46.7355 487.353 44.9601 487.04 44.1247C484.742 37.8589 479.312 32.2197 473.359 32.2197C468.973 32.2197 465.005 36.2925 465.005 40.2608C465.005 44.9601 468.451 48.4063 474.403 51.4348C487.562 58.1183 495.289 63.9664 495.289 73.8873C495.289 82.4504 489.441 87.2544 485.682 89.5514C481.609 91.9534 474.717 93.7294 469.913 93.7294C461.036 93.7294 455.919 91.8494 453.517 90.9094C452.786 90.5964 451.116 89.6564 450.593 88.5074C448.818 84.7484 448.505 79.3176 448.505 76.8113C448.505 74.8271 449.549 72.3208 451.22 72.3208C452.369 72.3208 453.726 73.574 455.188 76.2891C459.052 83.3904 464.796 88.5074 471.271 88.5074C475.03 88.5074 479.729 85.8964 479.729 81.0934C479.729 77.96 479.938 74.5138 469.286 68.7702C455.606 61.4601 450.28 55.8209 450.28 46.1089C450.28 39.3209 455.084 33.7861 460.097 30.9665C464.065 28.7735 469.078 27.4159 475.03 27.4159ZM545.075 49.2418C545.075 43.3937 542.673 39.1121 542.151 38.3811C541.733 37.8589 537.974 34.4127 534.11 34.4127C532.961 34.4127 531.603 34.8304 531.186 35.2482C530.872 35.5614 530.455 36.188 530.455 36.7102C530.141 40.8874 530.037 54.2544 530.037 58.536C530.037 68.979 530.141 77.0202 530.141 78.0645C530.141 83.9124 531.499 85.4794 537.138 87.0454C539.644 87.7764 540.689 88.5074 540.689 89.9694C540.689 90.9094 539.227 92.1624 536.512 92.1624C533.379 92.1624 528.784 91.8494 524.502 91.8494C520.743 91.8494 510.926 92.4754 507.48 92.4754C504.869 92.4754 503.094 91.5364 503.094 90.1784C503.094 88.8204 504.138 87.8804 507.167 86.9414C511.657 85.4794 512.388 83.7034 512.702 80.9884C512.91 78.8999 513.641 66.055 513.641 51.5392C513.641 47.0487 513.537 42.0361 513.224 39.6342C513.015 37.2323 512.179 35.3526 507.584 34.3083C505.914 33.8906 503.929 32.3241 503.929 31.2798C503.929 29.4001 505.391 28.9824 507.167 28.9824C511.657 28.9824 514.581 29.4001 519.803 29.4001C523.353 29.4001 528.888 28.8779 537.034 28.8779C546.119 28.8779 552.803 31.6975 556.353 35.3526C558.86 37.9633 561.993 43.707 561.993 49.1373C561.993 57.2829 557.189 63.0265 555.1 64.8018C550.818 68.3525 546.328 69.9189 541.524 69.9189C538.809 69.9189 537.243 69.5012 535.676 68.4569C534.527 67.7259 533.588 66.6816 533.588 66.1594C533.588 65.0107 534.005 64.2797 534.841 64.1753C535.258 64.0708 535.781 64.0708 536.303 63.9664C538.809 63.3398 545.075 61.7734 545.075 49.2418ZM593.72 29.4001H604.476C613.979 29.4001 615.441 29.4001 617.843 28.8779C618.992 28.6691 619.723 29.2956 620.036 29.8178C620.663 30.8621 621.498 38.7988 621.498 41.0962C621.498 43.8114 620.245 44.438 619.618 44.438C617.739 44.438 616.694 43.2893 615.441 40.4697C613.457 36.188 611.995 35.457 611.159 35.457C605.207 35.457 599.463 35.7703 598.001 35.7703C597.479 35.7703 596.644 36.919 596.644 37.3368C596.539 39.3209 596.33 46.8399 596.33 54.0456C596.33 55.7164 596.644 56.7607 597.166 56.8652C598.315 57.1785 601.97 57.074 603.849 56.9696C608.549 56.6563 610.011 54.9854 611.159 52.3747C611.786 50.8082 612.83 49.5551 613.979 49.5551C615.441 49.5551 616.381 51.0171 616.172 54.0456C616.068 55.2987 615.963 57.7006 615.963 60.1025C615.963 62.5044 616.172 64.9063 616.277 66.4727C616.485 69.2923 614.919 70.5455 613.875 70.5455C612.935 70.5455 611.577 69.3968 610.637 67.3082C609.593 64.9063 609.28 64.1753 607.087 63.9664C602.805 63.6531 602.178 63.4443 597.479 63.4443C596.957 63.4443 596.33 64.9063 596.33 67.517C596.33 70.3366 596.644 76.3936 596.748 78.691C596.957 81.7194 597.375 82.8684 597.688 83.2864C598.732 84.8524 603.745 86.2104 608.758 86.2104C610.428 86.2104 613.352 85.8964 615.754 84.5394C617.739 83.4944 618.783 82.2414 621.08 79.1088C622.751 76.8113 623.9 74.305 625.571 74.305C627.555 74.305 628.182 77.3334 627.764 79.5265C627.137 82.5554 624.631 89.5514 624.213 90.4914C623.9 91.2224 621.707 92.3714 621.08 92.3714C619.723 92.3714 615.546 91.8494 596.539 91.8494C589.96 91.8494 576.802 92.2674 572.312 92.2674C570.118 92.2674 568.552 91.4314 568.552 90.5964C568.552 89.3424 569.387 87.8804 571.58 87.2544C578.786 85.2704 578.995 82.8684 579.204 80.9884C579.622 75.9759 579.726 73.7828 579.726 57.7006C579.726 41.6184 579.517 40.9918 579.204 39.1121C578.682 35.9792 577.324 34.8304 573.147 33.7861C570.432 33.1596 570.014 31.6975 570.014 30.9665C570.014 29.6089 572.103 28.8779 573.46 28.8779C575.236 28.8779 586.827 29.4001 593.72 29.4001ZM676.059 27.3115C680.863 27.3115 685.667 28.3558 688.487 29.0868C691.097 29.8178 694.857 30.9665 695.692 30.9665C696.214 30.9665 697.468 32.3241 697.468 32.9507C697.468 36.7102 698.512 42.0361 698.512 44.6469C698.512 47.5709 696.528 49.2418 695.17 49.2418C694.335 49.2418 693.813 48.4063 692.977 46.1089C691.411 41.8272 690.784 39.5298 686.92 36.7102C683.683 34.3083 680.028 32.533 675.537 32.533C671.047 32.533 665.303 35.1437 661.857 39.3209C657.366 44.6469 655.278 52.5835 655.278 58.8493C655.278 66.786 657.889 73.8873 660.917 78.1689C664.677 83.4944 671.569 87.3584 677.835 87.3584C680.445 87.3584 685.145 85.6874 687.233 84.5394C688.069 84.0174 689.949 82.0324 692.559 77.8556C694.544 74.7227 695.797 73.4695 696.841 73.4695C698.825 73.4695 699.034 75.4537 698.93 77.6467C698.93 78.5866 696.945 85.5834 696.945 87.5674C696.945 87.8804 696.11 89.3424 695.797 89.5514C692.142 91.3274 682.847 93.7294 675.642 93.7294C664.05 93.7294 651.727 90.2824 644.313 82.1374C639.718 77.1246 636.48 70.2322 636.48 60.9379C636.48 49.7639 641.493 40.3652 650.683 33.995C655.382 30.7577 665.199 27.3115 676.059 27.3115ZM718.116 68.979V44.8557C718.116 36.0836 717.698 34.9349 712.059 33.6817C710.284 33.264 709.24 32.0108 709.24 31.071C709.24 29.5045 711.746 28.9824 712.79 28.9824C714.774 28.9824 721.354 29.4001 725.948 29.4001C732.214 29.4001 737.331 29.0868 740.36 29.0868C741.926 29.0868 743.597 29.9222 743.597 31.2798C743.597 32.533 741.822 33.3684 740.986 33.5773C735.869 34.726 735.556 36.0836 735.138 41.514C734.825 46.0044 734.721 55.0899 734.721 62.1911C734.721 73.574 734.929 77.6467 734.929 79.0043C735.138 83.9124 735.66 86.0014 740.882 87.2544C742.866 87.7764 744.224 88.8204 744.224 90.2824C744.224 91.5364 741.926 92.1624 740.673 92.1624C739.629 92.1624 729.499 91.8494 725.948 91.8494C722.293 91.8494 714.67 92.2674 712.79 92.2674C711.433 92.2674 709.24 91.9534 709.24 90.2824C709.24 89.1344 710.911 87.7764 712.373 87.3584C716.55 86.0014 717.176 84.7484 717.698 81.6154C718.012 79.422 718.116 77.5423 718.116 68.979ZM776.166 29.4001H786.923C796.426 29.4001 797.888 29.4001 800.29 28.8779C801.438 28.6691 802.169 29.2956 802.483 29.8178C803.109 30.8621 803.945 38.7988 803.945 41.0962C803.945 43.8114 802.691 44.438 802.065 44.438C800.185 44.438 799.141 43.2893 797.888 40.4697C795.903 36.188 794.441 35.457 793.606 35.457C787.654 35.457 781.91 35.7703 780.448 35.7703C779.926 35.7703 779.09 36.919 779.09 37.3368C778.986 39.3209 778.777 46.8399 778.777 54.0456C778.777 55.7164 779.09 56.7607 779.612 56.8652C780.761 57.1785 784.416 57.074 786.296 56.9696C790.995 56.6563 792.457 54.9854 793.606 52.3747C794.233 50.8082 795.277 49.5551 796.426 49.5551C797.888 49.5551 798.828 51.0171 798.619 54.0456C798.514 55.2987 798.41 57.7006 798.41 60.1025C798.41 62.5044 798.619 64.9063 798.723 66.4727C798.932 69.2923 797.366 70.5455 796.321 70.5455C795.381 70.5455 794.024 69.3968 793.084 67.3082C792.04 64.9063 791.726 64.1753 789.533 63.9664C785.252 63.6531 784.625 63.4443 779.926 63.4443C779.404 63.4443 778.777 64.9063 778.777 67.517C778.777 70.3366 779.09 76.3936 779.195 78.691C779.404 81.7194 779.821 82.8684 780.135 83.2864C781.179 84.8524 786.191 86.2104 791.204 86.2104C792.875 86.2104 795.799 85.8964 798.201 84.5394C800.185 83.4944 801.229 82.2414 803.527 79.1088C805.198 76.8113 806.346 74.305 808.017 74.305C810.002 74.305 810.628 77.3334 810.21 79.5265C809.584 82.5554 807.078 89.5514 806.66 90.4914C806.346 91.2224 804.153 92.3714 803.527 92.3714C802.169 92.3714 797.992 91.8494 778.986 91.8494C772.407 91.8494 759.249 92.2674 754.758 92.2674C752.565 92.2674 750.999 91.4314 750.999 90.5964C750.999 89.3424 751.834 87.8804 754.027 87.2544C761.233 85.2704 761.442 82.8684 761.65 80.9884C762.068 75.9759 762.173 73.7828 762.173 57.7006C762.173 41.6184 761.964 40.9918 761.65 39.1121C761.128 35.9792 759.771 34.8304 755.594 33.7861C752.878 33.1596 752.461 31.6975 752.461 30.9665C752.461 29.6089 754.549 28.8779 755.907 28.8779C757.682 28.8779 769.274 29.4001 776.166 29.4001ZM845.532 27.4159C851.38 27.4159 856.915 29.2956 860.988 30.2355C861.614 30.3399 862.345 32.0108 862.345 33.1596C862.345 34.4127 863.076 40.1564 863.076 41.7228C863.076 45.2734 861.406 46.7355 859.944 46.7355C858.795 46.7355 857.855 44.9601 857.542 44.1247C855.244 37.8589 849.814 32.2197 843.861 32.2197C839.475 32.2197 835.507 36.2925 835.507 40.2608C835.507 44.9601 838.953 48.4063 844.906 51.4348C858.064 58.1183 865.792 63.9664 865.792 73.8873C865.792 82.4504 859.944 87.2544 856.184 89.5514C852.111 91.9534 845.219 93.7294 840.415 93.7294C831.539 93.7294 826.421 91.8494 824.02 90.9094C823.289 90.5964 821.618 89.6564 821.096 88.5074C819.32 84.7484 819.007 79.3176 819.007 76.8113C819.007 74.8271 820.051 72.3208 821.722 72.3208C822.871 72.3208 824.228 73.574 825.69 76.2891C829.554 83.3904 835.298 88.5074 841.773 88.5074C845.532 88.5074 850.232 85.8964 850.232 81.0934C850.232 77.96 850.44 74.5138 839.789 68.7702C826.108 61.4601 820.782 55.8209 820.782 46.1089C820.782 39.3209 825.586 33.7861 830.599 30.9665C834.567 28.7735 839.58 27.4159 845.532 27.4159Z" fill="white"/>
<path d="M207.199 141.79C213.647 141.79 219.748 143.864 224.237 144.899C224.928 145.014 225.734 146.857 225.734 148.122C225.734 149.503 226.54 155.835 226.54 157.563C226.54 161.477 224.697 163.089 223.085 163.089C221.82 163.089 220.783 161.131 220.439 160.209C217.905 153.302 211.92 147.086 205.357 147.086C200.523 147.086 196.147 151.577 196.147 155.951C196.147 161.131 199.946 164.929 206.509 168.269C221.014 175.635 229.533 182.083 229.533 193.02C229.533 202.458 223.085 207.753 218.942 210.287C214.451 212.935 206.853 214.891 201.558 214.891C191.773 214.891 186.132 212.82 183.485 211.783C182.679 211.439 180.837 210.402 180.261 209.136C178.305 204.991 177.959 199.005 177.959 196.242C177.959 194.055 179.111 191.292 180.952 191.292C182.218 191.292 183.716 192.673 185.326 195.666C189.586 203.495 195.918 209.136 203.054 209.136C207.199 209.136 212.379 206.257 212.379 200.962C212.379 197.509 212.61 193.71 200.867 187.378C185.787 179.319 179.915 173.104 179.915 162.398C179.915 154.914 185.212 148.813 190.737 145.704C195.112 143.287 200.637 141.79 207.199 141.79ZM284.414 165.851C284.414 159.403 281.766 154.685 281.19 153.879C280.731 153.302 276.586 149.503 272.325 149.503C271.06 149.503 269.563 149.965 269.103 150.425C268.757 150.771 268.297 151.461 268.297 152.036C267.951 156.641 267.836 171.377 267.836 176.097C267.836 187.609 267.951 196.472 267.951 197.624C267.951 204.07 269.448 205.797 275.664 207.524C278.428 208.33 279.579 209.136 279.579 210.748C279.579 211.783 277.967 213.164 274.974 213.164C271.521 213.164 266.455 212.82 261.735 212.82C257.591 212.82 246.77 213.51 242.971 213.51C240.092 213.51 238.136 212.474 238.136 210.977C238.136 209.481 239.288 208.446 242.625 207.409C247.576 205.797 248.382 203.841 248.726 200.846C248.957 198.544 249.763 184.385 249.763 168.384C249.763 163.433 249.648 157.907 249.302 155.26C249.072 152.612 248.151 150.54 243.087 149.388C241.244 148.928 239.057 147.201 239.057 146.051C239.057 143.979 240.669 143.517 242.625 143.517C247.576 143.517 250.8 143.979 256.555 143.979C260.469 143.979 266.57 143.402 275.549 143.402C285.564 143.402 292.933 146.51 296.847 150.54C299.61 153.418 303.062 159.75 303.062 165.735C303.062 174.714 297.767 181.046 295.465 183.004C290.744 186.918 285.795 188.644 280.5 188.644C277.507 188.644 275.78 188.184 274.053 187.032C272.787 186.226 271.75 185.076 271.75 184.501C271.75 183.233 272.212 182.427 273.131 182.314C273.593 182.198 274.168 182.198 274.743 182.083C277.507 181.392 284.414 179.665 284.414 165.851ZM355.867 141.677C379.812 141.677 395.929 157.793 395.929 178.399C395.929 192.789 387.41 204.07 376.589 210.056C371.639 212.82 363.58 214.891 356.213 214.891C331.922 214.891 316.036 198.315 316.036 178.399C316.036 169.534 319.375 160.786 326.513 153.648C333.995 146.166 345.046 141.677 355.867 141.677ZM353.795 147.662C348.385 147.662 343.549 152.267 343.434 152.383C338.6 157.678 336.527 165.505 336.527 176.326C336.527 191.983 343.665 209.021 359.206 209.021C363.12 209.021 367.725 205.566 368.3 205.107C371.984 201.652 374.977 194.401 374.977 179.205C374.977 167.116 368.991 147.662 353.795 147.662ZM427.569 143.979H462.797C469.242 143.979 472.12 143.173 472.582 142.596C473.963 140.871 475.228 139.834 476.034 139.834C476.725 139.834 479.719 141.677 479.719 143.517C479.719 144.323 478.337 151.577 478.337 159.29C478.337 161.592 476.611 164.124 474.422 164.124C472.812 164.124 471.891 161.246 471.66 160.209C469.933 152.612 467.977 152.383 463.832 151.921C462.105 151.69 461.76 151.346 451.975 151.346C451.399 151.346 451.054 152.267 450.939 153.418C450.824 155.029 450.133 170.571 450.133 177.822C450.133 184.845 450.017 192.443 450.364 196.588C451.054 204.991 453.01 205.337 457.731 207.063C459.802 207.869 461.76 208.905 461.76 210.287C461.76 212.82 458.998 213.395 456.696 213.395C455.544 213.395 442.881 212.82 435.974 212.82C432.635 212.82 426.419 213.164 423.31 213.164C420.892 213.164 418.59 212.129 418.59 210.056C418.59 209.136 419.742 207.524 422.389 206.834C429.527 204.876 431.483 203.379 431.483 197.047C431.483 194.631 431.714 179.319 431.714 171.837C431.714 164.7 431.829 157.101 431.829 153.533C431.829 152.612 430.677 151.346 430.333 151.346C427.455 151.346 423.195 151.346 420.202 151.461C416.978 151.577 413.87 151.577 410.762 160.209C410.071 162.167 408.69 163.664 407.424 163.664C405.928 163.664 404.201 161.592 404.201 158.828C404.201 155.26 405.466 150.08 405.466 143.748C405.466 141.79 407.194 140.065 408.575 140.065C408.921 140.065 410.302 140.755 411.108 141.33C413.064 142.942 414.791 143.633 418.13 143.748C422.85 143.979 423.885 143.979 427.569 143.979ZM488.881 146.051C488.881 144.208 491.068 143.748 492.565 143.748C493.14 143.748 503.155 143.979 507.76 143.979C512.365 143.979 521.344 143.633 523.646 143.633C526.064 143.633 527.445 144.783 527.445 146.166C527.445 147.547 525.948 148.697 523.531 149.159C517.085 150.54 516.739 153.073 516.623 155.491C516.394 158.138 515.933 164.585 515.933 174.485C515.933 186.572 516.279 197.624 516.51 201.539C516.623 203.264 519.387 205.682 523.761 206.718C525.373 207.063 529.172 207.178 533.317 206.372C536.77 205.682 542.526 198.89 544.944 194.516C546.095 192.329 547.36 191.523 547.706 191.523C549.778 191.523 551.159 193.939 550.584 196.012C549.778 198.89 547.591 207.984 546.785 210.287C546.095 212.014 544.023 213.164 541.721 213.164C537.691 213.164 525.489 212.82 511.214 212.82C503.386 212.82 491.874 213.395 489.341 213.395C486.808 213.395 484.852 212.129 484.852 210.517C484.852 208.905 486.579 208.1 488.535 207.753C496.248 206.257 497.054 203.495 497.285 200.846C497.514 197.394 497.745 192.558 497.745 178.859C497.745 158.022 497.86 158.253 497.629 155.145C497.285 151.346 496.017 150.771 492.219 149.159C489.801 148.122 488.881 147.316 488.881 146.051ZM567.69 187.609V161.015C567.69 151.346 567.23 150.08 561.013 148.697C559.055 148.238 557.905 146.857 557.905 145.82C557.905 144.093 560.667 143.517 561.819 143.517C564.006 143.517 571.258 143.979 576.324 143.979C583.231 143.979 588.871 143.633 592.21 143.633C593.937 143.633 595.778 144.554 595.778 146.051C595.778 147.432 593.822 148.353 592.9 148.584C587.259 149.849 586.915 151.346 586.455 157.332C586.109 162.283 585.993 172.298 585.993 180.125C585.993 192.673 586.224 197.163 586.224 198.659C586.455 204.07 587.03 206.372 592.785 207.753C594.972 208.33 596.468 209.481 596.468 211.092C596.468 212.474 593.937 213.164 592.556 213.164C591.404 213.164 580.238 212.82 576.324 212.82C572.294 212.82 563.891 213.279 561.819 213.279C560.323 213.279 557.905 212.935 557.905 211.092C557.905 209.827 559.746 208.33 561.358 207.869C565.962 206.372 566.653 204.991 567.23 201.539C567.574 199.121 567.69 197.047 567.69 187.609ZM649.145 141.677C656.629 141.677 660.887 142.942 665.723 144.208C668.141 144.899 670.557 145.245 672.053 145.245C672.859 145.245 674.127 146.51 674.356 147.778C675.048 150.886 676.658 156.757 676.658 161.361C676.658 163.089 675.508 165.851 673.78 165.851C672.63 165.851 671.824 165.505 670.097 162.398C668.601 159.634 667.448 156.526 664.571 153.993C658.585 148.697 651.563 147.891 648.454 147.891C632.453 147.891 626.811 163.089 626.811 176.557C626.811 195.551 637.633 208.79 650.872 208.79C651.909 208.79 654.786 208.1 656.052 207.178C657.204 206.372 657.664 202.458 657.664 199.811C657.664 195.436 657.548 191.177 657.433 189.68C657.204 187.378 656.743 185.422 652.484 184.385C648.57 183.464 647.073 182.314 647.073 180.586C647.073 179.55 648.339 177.938 651.793 177.938C655.017 177.938 658.354 178.515 662.153 178.515C665.608 178.515 676.889 177.938 679.191 177.938C682.415 177.938 683.451 179.205 683.451 180.586C683.451 182.198 681.263 183.464 679.766 184.039C675.738 185.422 675.968 187.378 675.852 188.99C675.623 191.637 675.623 187.838 675.623 198.315C675.623 199.811 675.738 201.423 675.967 203.264C676.083 204.07 676.314 205.222 676.314 206.603C676.314 206.948 674.933 208.675 674.702 208.79C673.321 209.827 670.443 211.323 665.608 212.704C661.118 213.97 655.477 215.122 649.835 215.122C630.956 215.122 620.25 209.481 612.883 200.502C607.702 194.17 605.746 185.766 605.746 178.284C605.746 165.851 611.041 157.216 620.135 150.309C626.698 145.245 638.67 141.677 649.145 141.677ZM720.449 170.686C720.449 172.298 721.369 173.564 722.175 173.564C742.321 173.564 746.235 173.448 748.422 173.564C748.884 173.564 749.804 171.837 749.804 171.377C749.804 163.548 749.804 157.101 749.344 154.339C748.998 152.267 748.769 151.115 743.818 149.849C739.559 148.697 738.868 146.972 738.868 146.166C738.868 145.014 740.94 143.633 743.358 143.633C748.078 143.633 751.3 143.979 755.676 143.979C760.165 143.979 771.677 143.633 773.979 143.633C776.282 143.633 777.663 144.783 777.663 146.166C777.663 147.432 776.282 148.697 773.289 149.388C769.719 150.194 768.915 151.921 768.569 154.685C768.109 158.022 767.994 167.003 767.994 177.017C767.994 191.292 768.338 195.322 768.569 199.581C768.915 205.107 770.871 206.028 774.439 206.948C777.663 207.753 778.815 209.136 778.815 210.402C778.815 211.898 776.972 213.164 774.439 213.164C772.252 213.164 767.878 212.82 763.618 212.82C757.632 212.82 747.732 213.395 744.279 213.395C741.977 213.395 739.788 212.474 739.788 210.633C739.788 209.481 740.825 208.559 744.393 207.178C748.653 205.566 749.113 203.035 749.459 201.192C750.034 197.624 750.265 188.299 749.804 184.27C749.459 181.392 748.422 181.162 748.307 181.162C739.788 181.162 723.442 181.508 721.83 181.508C721.025 181.508 720.449 183.81 720.449 184.385C720.449 187.493 720.565 198.659 720.679 200.386C721.025 204.301 721.484 206.143 727.241 207.524C728.622 207.869 730.925 209.365 730.925 210.862C730.925 212.82 729.313 213.279 726.435 213.279C723.096 213.279 714.808 212.82 709.857 212.82C706.174 212.82 699.497 213.395 696.043 213.395C693.627 213.395 691.669 212.129 691.669 210.748C691.669 209.481 693.741 208.215 695.814 207.409C700.648 205.451 701.569 204.416 701.8 199.465C702.146 194.401 702.146 181.621 702.146 165.045C702.146 156.41 701.8 155.605 701.569 154.223C701.109 151.577 699.728 149.965 694.433 148.697C693.165 148.353 691.9 147.316 691.9 146.051C691.9 144.783 694.433 143.517 696.62 143.517C702.259 143.517 710.203 143.979 713.312 143.979C716.88 143.979 719.182 143.748 723.212 143.748C725.054 143.748 727.357 144.323 727.357 146.395C727.357 148.122 724.593 149.159 723.212 149.619C721.369 150.309 720.449 152.612 720.449 155.491C720.449 159.059 720.449 163.318 720.449 170.686ZM809.015 143.979H844.241C850.688 143.979 853.566 143.173 854.025 142.596C855.407 140.871 856.674 139.834 857.48 139.834C858.17 139.834 861.163 141.677 861.163 143.517C861.163 144.323 859.782 151.577 859.782 159.29C859.782 161.592 858.055 164.124 855.868 164.124C854.256 164.124 853.335 161.246 853.104 160.209C851.379 152.612 849.421 152.383 845.277 151.921C843.55 151.69 843.204 151.346 833.419 151.346C832.844 151.346 832.498 152.267 832.383 153.418C832.269 155.029 831.577 170.571 831.577 177.822C831.577 184.845 831.463 192.443 831.808 196.588C832.498 204.991 834.456 205.337 839.176 207.063C841.248 207.869 843.204 208.905 843.204 210.287C843.204 212.82 840.442 213.395 838.14 213.395C836.988 213.395 824.325 212.82 817.418 212.82C814.079 212.82 807.862 213.164 804.754 213.164C802.338 213.164 800.036 212.129 800.036 210.056C800.036 209.136 801.186 207.524 803.835 206.834C810.971 204.876 812.929 203.379 812.929 197.047C812.929 194.631 813.158 179.319 813.158 171.837C813.158 164.7 813.273 157.101 813.273 153.533C813.273 152.612 812.123 151.346 811.777 151.346C808.899 151.346 804.64 151.346 801.646 151.461C798.424 151.577 795.316 151.577 792.207 160.209C791.517 162.167 790.134 163.664 788.868 163.664C787.372 163.664 785.645 161.592 785.645 158.828C785.645 155.26 786.912 150.08 786.912 143.748C786.912 141.79 788.637 140.065 790.02 140.065C790.365 140.065 791.746 140.755 792.552 141.33C794.51 142.942 796.235 143.633 799.574 143.748C804.294 143.979 805.331 143.979 809.015 143.979Z" fill="white"/>
<path d="M85.9358 184.091V181.591H83.4358V184.091H85.9358ZM100.925 184.091H103.425V181.591H100.925V184.091ZM100.925 232.634V235.134H103.425V232.634H100.925ZM98.8736 232.634L97.2891 234.568L97.9802 235.134H98.8736V232.634ZM78.2572 217.382L76.8387 219.441L76.8405 219.442L78.2572 217.382ZM42.8623 207.127L44.5502 208.971L44.5586 208.963L44.567 208.955L42.8623 207.127ZM48.9105 231.687V234.187H54.7372L50.7222 229.965L48.9105 231.687ZM33.5008 231.687L31.4035 233.048L32.1427 234.187H33.5008V231.687ZM32.0808 194.084L33.9406 195.754L33.9476 195.746L32.0808 194.084ZM85.9358 207.758L84.3865 209.72L88.4358 212.917V207.758H85.9358ZM85.9358 186.591H100.925V181.591H85.9358V186.591ZM98.4247 184.091V232.634H103.425V184.091H98.4247ZM100.925 230.134H98.8736V235.134H100.925V230.134ZM100.458 230.7C94.9517 226.189 88.0187 221.062 79.6739 215.322L76.8405 219.442C85.115 225.133 91.9263 230.174 97.2891 234.568L100.458 230.7ZM79.6757 215.324C71.347 209.584 65.2323 205.817 61.4684 204.199L59.4933 208.792C62.7418 210.189 68.478 213.68 76.8387 219.441L79.6757 215.324ZM61.4684 204.199C57.6991 202.578 53.9627 201.734 50.2779 201.734V206.734C53.1847 206.734 56.2502 207.398 59.4933 208.792L61.4684 204.199ZM50.2779 201.734C46.7818 201.734 43.6975 202.93 41.1576 205.298L44.567 208.955C46.1643 207.466 48.0238 206.734 50.2779 206.734V201.734ZM41.1744 205.282C38.611 207.629 37.2593 210.585 37.2593 214.016H42.2593C42.2593 212.048 42.9763 210.411 44.5502 208.971L41.1744 205.282ZM37.2593 214.016C37.2593 220.329 40.827 226.814 47.0987 233.41L50.7222 229.965C44.7924 223.728 42.2593 218.432 42.2593 214.016H37.2593ZM48.9105 229.187H33.5008V234.187H48.9105V229.187ZM35.598 230.327C31.1166 223.419 29.0059 217.032 29.0059 211.124H24.0059C24.0059 218.258 26.5584 225.58 31.4035 233.048L35.598 230.327ZM29.0059 211.124C29.0059 204.329 30.7471 199.309 33.9406 195.754L30.221 192.413C25.9813 197.133 24.0059 203.473 24.0059 211.124H29.0059ZM33.9476 195.746C37.1117 192.194 41.4856 190.325 47.3853 190.325V185.325C40.3121 185.325 34.483 187.628 30.214 192.421L33.9476 195.746ZM47.3853 190.325C51.2452 190.325 56.2588 191.788 62.5276 195.029C68.7611 198.252 76.0431 203.132 84.3865 209.72L87.485 205.796C78.9987 199.095 71.4408 194.009 64.8241 190.588C58.2428 187.185 52.396 185.325 47.3853 185.325V190.325ZM88.4358 207.758V184.091H83.4358V207.758H88.4358ZM36.5512 131.025L37.9125 133.122L37.9202 133.117L36.5512 131.025ZM91.8787 167.682L93.2604 169.766L93.268 169.76L91.8787 167.682ZM36.446 167.577L35.0366 169.642L35.039 169.643L36.446 167.577ZM82.7802 142.806L83.6605 140.466L83.653 140.463L82.7802 142.806ZM45.3867 142.806L46.2777 145.142L46.2923 145.136L46.3069 145.13L45.3867 142.806ZM45.2816 155.901L44.3114 158.205L44.3235 158.21L45.2816 155.901ZM82.7276 155.901L83.6129 158.239L83.6266 158.234L83.6403 158.229L82.7276 155.901ZM29.0059 149.222C29.0059 142.311 31.9037 137.023 37.9125 133.122L35.1898 128.928C27.805 133.722 24.0059 140.566 24.0059 149.222H29.0059ZM37.9202 133.117C44.0686 129.093 52.6305 126.951 63.8468 126.951V121.951C52.0625 121.951 42.4273 124.191 35.1821 128.933L37.9202 133.117ZM63.8468 126.951C75.5534 126.951 84.3462 129.035 90.4883 132.926L93.164 128.703C85.9124 124.109 76.0524 121.951 63.8468 121.951V126.951ZM90.4883 132.926C96.4658 136.713 99.3714 141.984 99.3714 149.012H104.371C104.371 140.261 100.58 133.401 93.164 128.703L90.4883 132.926ZM99.3714 149.012C99.3714 156.169 96.4592 161.613 90.4895 165.604L93.268 169.76C100.622 164.845 104.371 157.843 104.371 149.012H99.3714ZM90.4971 165.599C84.3962 169.644 75.7241 171.809 64.2149 171.809V176.809C76.2673 176.809 86.0378 174.555 93.2604 169.766L90.4971 165.599ZM64.2149 171.809C52.5619 171.809 43.8713 169.608 37.8529 165.51L35.039 169.643C42.2039 174.522 52.0259 176.809 64.2149 176.809V171.809ZM37.8553 165.512C31.8784 161.433 29.0059 156.071 29.0059 149.222H24.0059C24.0059 157.801 27.7602 164.675 35.0366 169.642L37.8553 165.512ZM90.5921 149.222C90.5921 147.205 89.9699 145.361 88.6898 143.815C87.4441 142.31 85.6969 141.232 83.6605 140.466L81.8999 145.146C83.4047 145.712 84.3134 146.369 84.8384 147.003C85.3289 147.596 85.5921 148.293 85.5921 149.222H90.5921ZM83.653 140.463C79.6016 138.954 72.4784 138.307 62.6898 138.307V143.307C72.5358 143.307 78.8062 143.993 81.9074 145.148L83.653 140.463ZM62.6898 138.307C54.5024 138.307 48.3124 138.959 44.4666 140.481L46.3069 145.13C49.1929 143.988 54.5383 143.307 62.6898 143.307V138.307ZM44.4957 140.47C42.5022 141.23 40.7979 142.326 39.5915 143.869C38.3608 145.442 37.7852 147.306 37.7852 149.327H42.7852C42.7852 148.298 43.06 147.55 43.5297 146.949C44.0238 146.318 44.8702 145.678 46.2777 145.142L44.4957 140.47ZM37.7852 149.327C37.7852 151.316 38.3527 153.151 39.5439 154.719C40.7119 156.255 42.3652 157.386 44.3114 158.205L46.2517 153.597C44.867 153.014 44.0221 152.348 43.5247 151.693C43.0505 151.069 42.7852 150.319 42.7852 149.327H37.7852ZM44.3235 158.21C46.3093 159.034 49.0597 159.577 52.4115 159.926C55.8066 160.28 59.9934 160.452 64.9512 160.452V155.452C60.0917 155.452 56.0917 155.283 52.9301 154.953C49.7254 154.619 47.5496 154.136 46.2396 153.592L44.3235 158.21ZM64.9512 160.452C73.229 160.452 79.5471 159.779 83.6129 158.239L81.8423 153.563C78.6853 154.759 73.1526 155.452 64.9512 155.452V160.452ZM83.6403 158.229C85.6995 157.421 87.4546 156.296 88.7001 154.745C89.976 153.157 90.5921 151.275 90.5921 149.222H85.5921C85.5921 150.22 85.3141 150.976 84.8018 151.614C84.2592 152.29 83.332 152.979 81.8149 153.574L83.6403 158.229ZM85.9358 65.2316V62.7316H83.4358V65.2316H85.9358ZM100.925 65.2316H103.425V62.7316H100.925V65.2316ZM100.925 113.774V116.274H103.425V113.774H100.925ZM98.8736 113.774L97.2891 115.708L97.9802 116.274H98.8736V113.774ZM78.2572 98.5229L76.8387 100.581L76.8405 100.582L78.2572 98.5229ZM42.8623 88.2673L44.5502 90.1114L44.5586 90.1037L44.567 90.0959L42.8623 88.2673ZM48.9105 112.828V115.328H54.7372L50.7222 111.105L48.9105 112.828ZM33.5008 112.828L31.4035 114.188L32.1427 115.328H33.5008V112.828ZM32.0808 75.2243L33.9406 76.8949L33.9476 76.8871L32.0808 75.2243ZM85.9358 88.8984L84.3865 90.8605L88.4358 94.0577V88.8984H85.9358ZM85.9358 67.7316H100.925V62.7316H85.9358V67.7316ZM98.4247 65.2316V113.774H103.425V65.2316H98.4247ZM100.925 111.274H98.8736V116.274H100.925V111.274ZM100.458 111.841C94.9517 107.329 88.0187 102.202 79.6739 96.463L76.8405 100.582C85.115 106.273 91.9263 111.314 97.2891 115.708L100.458 111.841ZM79.6757 96.4643C71.347 90.7251 65.2323 86.958 61.4684 85.3395L59.4933 89.9328C62.7418 91.3297 68.478 94.8203 76.8387 100.581L79.6757 96.4643ZM61.4684 85.3395C57.6991 83.7187 53.9627 82.8747 50.2779 82.8747V87.8747C53.1847 87.8747 56.2502 88.5383 59.4933 89.9328L61.4684 85.3395ZM50.2779 82.8747C46.7818 82.8747 43.6975 84.0709 41.1576 86.4386L44.567 90.0959C46.1643 88.6069 48.0238 87.8747 50.2779 87.8747V82.8747ZM41.1744 86.4231C38.611 88.7692 37.2593 91.7256 37.2593 95.1569H42.2593C42.2593 93.1888 42.9763 91.552 44.5502 90.1114L41.1744 86.4231ZM37.2593 95.1569C37.2593 101.47 40.827 107.954 47.0987 114.55L50.7222 111.105C44.7924 104.869 42.2593 99.5728 42.2593 95.1569H37.2593ZM48.9105 110.328H33.5008V115.328H48.9105V110.328ZM35.598 111.467C31.1166 104.56 29.0059 98.1729 29.0059 92.2643H24.0059C24.0059 99.3987 26.5584 106.721 31.4035 114.188L35.598 111.467ZM29.0059 92.2643C29.0059 85.4693 30.7471 80.4499 33.9406 76.8949L30.221 73.5536C25.9813 78.2732 24.0059 84.6138 24.0059 92.2643H29.0059ZM33.9476 76.8871C37.1117 73.3349 41.4856 71.4657 47.3853 71.4657V66.4657C40.3121 66.4657 34.483 68.7689 30.214 73.5614L33.9476 76.8871ZM47.3853 71.4657C51.2452 71.4657 56.2588 72.9283 62.5276 76.1696C68.7611 79.3926 76.0431 84.2727 84.3865 90.8605L87.485 86.9363C78.9987 80.2357 71.4408 75.1494 64.8241 71.7282C58.2428 68.3253 52.396 66.4657 47.3853 66.4657V71.4657ZM88.4358 88.8984V65.2316H83.4358V88.8984H88.4358ZM69.2639 38.3041V40.8041H71.6659L71.7619 38.4041L69.2639 38.3041ZM56.326 38.3041H53.826V40.8041H56.326V38.3041ZM53.749 30.9937L51.9133 32.6909L51.9214 32.6996L51.9295 32.7082L53.749 30.9937ZM42.6519 52.0834V54.5834H46.6581L44.8976 50.9848L42.6519 52.0834ZM29.7141 52.0834L27.4248 53.0881L28.0811 54.5834H29.7141V52.0834ZM31.5548 18.3189L33.5317 19.8493L33.5394 19.8393L31.5548 18.3189ZM61.4801 22.6841L59.2903 23.8901L61.8625 28.5608L63.8078 23.5962L61.4801 22.6841ZM96.0336 16.8989L97.9647 15.3111L97.9576 15.3026L96.0336 16.8989ZM97.7165 53.9242V56.4242H99.2572L99.9498 55.0479L97.7165 53.9242ZM83.4639 53.9242L81.4183 52.4871L78.6523 56.4242H83.4639V53.9242ZM86.6195 30.0997L88.5374 28.4961L88.5298 28.4869L88.522 28.4778L86.6195 30.0997ZM72.3668 29.9945L74.1809 31.7147L74.1882 31.707L74.1955 31.6992L72.3668 29.9945ZM69.2639 35.8041H56.326V40.8041H69.2639V35.8041ZM58.826 38.3041C58.826 34.7629 57.8146 31.6629 55.5685 29.2792L51.9295 32.7082C53.1194 33.971 53.826 35.7447 53.826 38.3041H58.826ZM55.5847 29.2966C53.4261 26.9619 50.7236 25.7063 47.5956 25.7063V30.7063C49.236 30.7063 50.6358 31.3091 51.9133 32.6909L55.5847 29.2966ZM47.5956 25.7063C44.3632 25.7063 41.6314 27.0467 39.5631 29.5647L43.4267 32.7384C44.584 31.3295 45.9194 30.7063 47.5956 30.7063V25.7063ZM39.5631 29.5647C37.5171 32.0554 36.5756 35.1384 36.5756 38.6197H41.5756C41.5756 36.0704 42.2469 34.1746 43.4267 32.7384L39.5631 29.5647ZM36.5756 38.6197C36.5756 43.205 37.9064 48.072 40.4062 53.1821L44.8976 50.9848C42.629 46.3477 41.5756 42.2388 41.5756 38.6197H36.5756ZM42.6519 49.5834H29.7141V54.5834H42.6519V49.5834ZM32.0033 51.0788C30.0269 46.5751 29.0059 41.3349 29.0059 35.3064H24.0059C24.0059 41.9 25.1237 47.8446 27.4248 53.0881L32.0033 51.0788ZM29.0059 35.3064C29.0059 28.732 30.5871 23.6528 33.5317 19.8493L29.578 16.7885C25.7908 21.6803 24.0059 27.9261 24.0059 35.3064H29.0059ZM33.5394 19.8393C36.4162 16.0842 40.0071 14.2974 44.4927 14.2974V9.29735C38.3896 9.29735 33.3552 11.8582 29.5703 16.7985L33.5394 19.8393ZM44.4927 14.2974C50.7734 14.2974 55.6631 17.3039 59.2903 23.8901L63.67 21.4781C59.3031 13.5487 52.8678 9.29735 44.4927 9.29735V14.2974ZM63.8078 23.5962C65.3467 19.6689 67.483 16.8943 70.134 15.0851C72.785 13.276 76.1458 12.2989 80.3609 12.2989V7.29883C75.3547 7.29883 70.9582 8.46924 67.3155 10.9552C63.673 13.4411 60.9795 17.1091 59.1524 21.772L63.8078 23.5962ZM80.3609 12.2989C86.19 12.2989 90.6894 14.3727 94.1095 18.4951L97.9576 15.3026C93.5239 9.95833 87.5749 7.29883 80.3609 7.29883V12.2989ZM94.1025 18.4866C97.5287 22.6536 99.3714 28.3822 99.3714 35.9375H104.371C104.371 27.5747 102.322 20.6108 97.9647 15.3111L94.1025 18.4866ZM99.3714 35.9375C99.3714 42.0548 98.0685 47.6628 95.4833 52.8005L99.9498 55.0479C102.904 49.1762 104.371 42.7931 104.371 35.9375H99.3714ZM97.7165 51.4242H83.4639V56.4242H97.7165V51.4242ZM85.5095 55.3613C89.5801 49.5672 91.8017 43.8988 91.8017 38.4093H86.8017C86.8017 42.5268 85.1314 47.2017 81.4183 52.4871L85.5095 55.3613ZM91.8017 38.4093C91.8017 34.5559 90.7793 31.1776 88.5374 28.4961L84.7015 31.7032C86.0359 33.2993 86.8017 35.4608 86.8017 38.4093H91.8017ZM88.522 28.4778C86.2114 25.7673 83.1599 24.3915 79.572 24.3915V29.3915C81.7343 29.3915 83.3811 30.1545 84.7169 31.7215L88.522 28.4778ZM79.572 24.3915C76.0166 24.3915 72.9483 25.7044 70.5382 28.2898L74.1955 31.6992C75.6422 30.1473 77.3774 29.3915 79.572 29.3915V24.3915ZM70.5528 28.2743C68.1105 30.8498 66.924 34.2508 66.7659 38.2042L71.7619 38.4041C71.8842 35.3451 72.7664 33.2064 74.1809 31.7147L70.5528 28.2743Z" fill="white"/>
<path d="M154.425 3.76172L154.215 235.792" stroke="white" stroke-width="2" stroke-miterlimit="10" stroke-linecap="round"/>
</svg>
