<svg width="990" height="239" viewBox="0 0 990 239" fill="none" xmlns="http://www.w3.org/2000/svg">
<path d="M177.959 50.5614C177.959 49.8304 178.795 48.7861 180.675 48.7861C184.852 48.7861 193.206 49.6215 199.89 49.6215C200.83 49.6215 202.292 50.3525 202.605 50.7703C204.38 53.1722 207.617 56.6183 212.63 62.0487C218.165 68.0012 234.769 85.5455 237.067 86.7986C237.38 86.903 238.215 86.6942 238.32 86.3809C238.946 83.5613 238.946 73.536 238.633 66.3303C238.32 59.2291 238.842 56.5139 230.696 54.6342C228.19 54.0076 227.25 52.2323 227.25 51.6057C227.25 50.8747 228.399 49.3082 230.905 49.3082C234.665 49.3082 234.456 49.4127 237.171 49.4127C241.453 49.4127 249.389 48.8905 251.478 48.8905C253.671 48.8905 255.133 49.5171 255.133 51.2924C255.133 52.4411 254.298 53.1722 250.956 54.6342C246.674 56.5139 246.048 57.6626 245.943 59.0202C245.734 63.824 244.899 85.3366 244.899 92.3334C244.899 96.9283 245.317 101.523 245.317 106.327C245.317 110.713 244.481 113.95 242.602 113.95C239.26 113.95 236.545 112.071 234.56 109.773C230.696 105.387 225.788 99.6435 222.864 96.4062C218.896 91.8113 202.605 74.4759 198.01 69.4632C197.697 69.1499 196.966 69.7765 196.966 70.1942C196.861 72.4917 196.652 72.805 196.652 77.2955C196.652 81.9948 196.861 91.3935 196.966 94.2131C197.279 102.359 198.636 104.865 202.292 106.327C205.842 107.685 206.991 108.833 206.991 110.295C206.991 111.549 205.842 112.28 203.44 112.28C200.516 112.28 196.966 111.862 192.057 111.862C187.149 111.862 184.538 112.28 183.181 112.28C180.048 112.28 179.004 111.131 179.004 110.087C179.004 108.729 180.257 107.789 182.137 107.162C186.94 105.596 188.82 105.283 189.342 98.2859C189.864 91.2891 190.7 66.3303 190.7 62.9886C190.7 62.362 190.178 60.169 188.82 58.6025C186.627 56.0962 184.747 54.843 182.345 54.3209C179.944 53.7987 177.959 52.5456 177.959 50.5614ZM283.489 49.4127H294.245C303.749 49.4127 305.211 49.4127 307.612 48.8905C308.761 48.6817 309.492 49.3082 309.805 49.8304C310.432 50.8747 311.268 58.8114 311.268 61.1088C311.268 63.824 310.014 64.4506 309.388 64.4506C307.508 64.4506 306.464 63.3019 305.211 60.4823C303.226 56.2006 301.764 55.4696 300.929 55.4696C294.976 55.4696 289.233 55.7829 287.771 55.7829C287.249 55.7829 286.413 56.9316 286.413 57.3494C286.309 59.3335 286.1 66.8525 286.1 74.0582C286.1 75.729 286.413 76.7733 286.935 76.8778C288.084 77.1911 291.739 77.0866 293.619 76.9822C298.318 76.6689 299.78 74.998 300.929 72.3873C301.556 70.8208 302.6 69.5677 303.749 69.5677C305.211 69.5677 306.15 71.0297 305.942 74.0582C305.837 75.3113 305.733 77.7132 305.733 80.1151C305.733 82.517 305.942 84.9189 306.046 86.4853C306.255 89.3049 304.688 90.5581 303.644 90.5581C302.704 90.5581 301.347 89.4094 300.407 87.3208C299.362 84.9189 299.049 84.1879 296.856 83.979C292.575 83.6657 291.948 83.4569 287.249 83.4569C286.726 83.4569 286.1 84.9189 286.1 87.5296C286.1 90.3492 286.413 96.4062 286.518 98.7036C286.726 101.732 287.144 102.881 287.457 103.299C288.502 104.865 293.514 106.223 298.527 106.223C300.198 106.223 303.122 105.909 305.524 104.552C307.508 103.507 308.552 102.254 310.85 99.1214C312.521 96.8239 313.669 94.3176 315.34 94.3176C317.324 94.3176 317.951 97.346 317.533 99.5391C316.907 102.568 314.4 109.564 313.983 110.504C313.669 111.235 311.476 112.384 310.85 112.384C309.492 112.384 305.315 111.862 286.309 111.862C279.73 111.862 266.571 112.28 262.081 112.28C259.888 112.28 258.321 111.444 258.321 110.609C258.321 109.355 259.157 107.893 261.35 107.267C268.556 105.283 268.764 102.881 268.973 101.001C269.391 95.9885 269.496 93.7954 269.496 77.7132C269.496 61.631 269.287 61.0044 268.973 59.1247C268.451 55.9918 267.094 54.843 262.916 53.7987C260.201 53.1722 259.784 51.7101 259.784 50.9791C259.784 49.6215 261.872 48.8905 263.23 48.8905C265.005 48.8905 276.597 49.4127 283.489 49.4127ZM318 50.6658C318 49.726 320.297 48.6817 321.759 48.6817C327.503 48.6817 336.902 49.4127 338.782 49.4127C342.541 49.4127 343.794 49.2038 349.016 49.2038C351.731 49.2038 352.984 50.8747 352.984 51.5013C352.984 53.1722 351.104 54.3209 349.433 54.6342C345.778 55.2608 345.047 56.8272 345.778 59.6468C346.614 62.4664 356.117 85.9632 357.683 88.7828C357.997 89.3049 358.519 89.2005 358.937 88.8872C361.443 82.4126 363.218 79.3841 367.186 67.1658C367.5 66.2259 367.186 64.4506 366.769 62.8841C366.664 62.1531 366.142 61.1088 365.411 59.1247C364.785 57.3494 361.756 55.1563 360.399 54.7386C358.623 54.2165 356.535 53.2766 356.535 51.3968C356.535 50.0393 358.519 49.0994 360.19 49.0994C365.516 49.0994 369.797 49.4127 372.512 49.4127C375.123 49.4127 378.778 49.0994 385.357 49.0994C387.341 49.0994 389.326 50.1437 389.326 51.3968C389.326 52.4411 387.968 54.0076 386.193 54.5297C382.642 55.4696 382.12 56.6183 382.12 57.9759C382.12 59.438 382.329 60.0645 383.06 62.4664C385.462 70.1942 392.041 86.172 393.816 89.5138C394.129 90.1404 394.547 90.1404 394.86 89.6182C396.531 86.3809 401.231 74.267 403.841 66.7481C405.721 61.0044 405.721 60.169 405.721 58.6025C405.721 56.7228 403.006 55.3652 400.917 54.7386C399.142 54.2165 397.576 52.9633 397.576 51.5013C397.576 50.8747 398.62 49.0994 401.231 49.0994C404.572 49.0994 405.303 49.4127 408.645 49.4127C412.091 49.4127 417.731 48.8905 420.759 48.8905C422.743 48.8905 424.936 49.3082 424.936 51.3968C424.936 52.5456 422.639 54.2165 421.595 54.5297C415.642 56.3051 413.867 59.9601 411.883 64.4506C409.69 69.3588 403.006 83.979 399.038 95.2574C398.098 97.8682 396.218 103.09 394.965 106.118C393.712 109.147 390.161 113.95 388.281 113.95C385.775 113.95 383.791 110.087 382.642 107.058C379.614 99.2258 372.721 80.9505 370.737 76.9822C370.528 76.5645 369.797 76.7733 369.588 77.1911C366.664 84.71 360.503 98.1815 359.354 102.359C359.25 102.568 358.206 105.283 356.43 108.52C355.908 109.46 353.715 114.055 352.253 114.055C349.747 114.055 348.285 111.653 347.658 109.982C346.405 106.223 345.256 102.776 343.585 97.9726C339.617 87.0075 334.187 74.6847 330.114 64.1373C327.19 56.5139 325.832 55.4696 321.655 54.0076C319.253 53.1722 318 52.3367 318 50.6658ZM475.03 47.4285C480.878 47.4285 486.413 49.3082 490.486 50.2481C491.112 50.3525 491.843 52.0234 491.843 53.1722C491.843 54.4253 492.574 60.169 492.574 61.7354C492.574 65.286 490.903 66.7481 489.441 66.7481C488.293 66.7481 487.353 64.9727 487.04 64.1373C484.742 57.8715 479.312 52.2323 473.359 52.2323C468.973 52.2323 465.005 56.3051 465.005 60.2734C465.005 64.9727 468.451 68.4189 474.403 71.4474C487.562 78.1309 495.289 83.979 495.289 93.8999C495.289 102.463 489.441 107.267 485.682 109.564C481.609 111.966 474.717 113.742 469.913 113.742C461.036 113.742 455.919 111.862 453.517 110.922C452.786 110.609 451.116 109.669 450.593 108.52C448.818 104.761 448.505 99.3302 448.505 96.8239C448.505 94.8397 449.549 92.3334 451.22 92.3334C452.369 92.3334 453.726 93.5866 455.188 96.3017C459.052 103.403 464.796 108.52 471.271 108.52C475.03 108.52 479.729 105.909 479.729 101.106C479.729 97.9726 479.938 94.5264 469.286 88.7828C455.606 81.4727 450.28 75.8335 450.28 66.1215C450.28 59.3335 455.084 53.7987 460.097 50.9791C464.065 48.7861 469.078 47.4285 475.03 47.4285ZM545.075 69.2544C545.075 63.4063 542.673 59.1247 542.151 58.3937C541.733 57.8715 537.974 54.4253 534.11 54.4253C532.961 54.4253 531.603 54.843 531.186 55.2608C530.872 55.574 530.455 56.2006 530.455 56.7228C530.141 60.9 530.037 74.267 530.037 78.5486C530.037 88.9916 530.141 97.0328 530.141 98.0771C530.141 103.925 531.499 105.492 537.138 107.058C539.644 107.789 540.689 108.52 540.689 109.982C540.689 110.922 539.227 112.175 536.512 112.175C533.379 112.175 528.784 111.862 524.502 111.862C520.743 111.862 510.926 112.488 507.48 112.488C504.869 112.488 503.094 111.549 503.094 110.191C503.094 108.833 504.138 107.893 507.167 106.954C511.657 105.492 512.388 103.716 512.702 101.001C512.91 98.9125 513.641 86.0676 513.641 71.5518C513.641 67.0613 513.537 62.0487 513.224 59.6468C513.015 57.2449 512.179 55.3652 507.584 54.3209C505.914 53.9032 503.929 52.3367 503.929 51.2924C503.929 49.4127 505.391 48.995 507.167 48.995C511.657 48.995 514.581 49.4127 519.803 49.4127C523.353 49.4127 528.888 48.8905 537.034 48.8905C546.119 48.8905 552.803 51.7101 556.353 55.3652C558.86 57.9759 561.993 63.7196 561.993 69.1499C561.993 77.2955 557.189 83.0391 555.1 84.8144C550.818 88.3651 546.328 89.9315 541.524 89.9315C538.809 89.9315 537.243 89.5138 535.676 88.4695C534.527 87.7385 533.588 86.6942 533.588 86.172C533.588 85.0233 534.005 84.2923 534.841 84.1879C535.258 84.0834 535.781 84.0834 536.303 83.979C538.809 83.3524 545.075 81.786 545.075 69.2544ZM593.72 49.4127H604.476C613.979 49.4127 615.441 49.4127 617.843 48.8905C618.992 48.6817 619.723 49.3082 620.036 49.8304C620.663 50.8747 621.498 58.8114 621.498 61.1088C621.498 63.824 620.245 64.4506 619.618 64.4506C617.739 64.4506 616.694 63.3019 615.441 60.4823C613.457 56.2006 611.995 55.4696 611.159 55.4696C605.207 55.4696 599.463 55.7829 598.001 55.7829C597.479 55.7829 596.644 56.9316 596.644 57.3494C596.539 59.3335 596.33 66.8525 596.33 74.0582C596.33 75.729 596.644 76.7733 597.166 76.8778C598.315 77.1911 601.97 77.0866 603.849 76.9822C608.549 76.6689 610.011 74.998 611.159 72.3873C611.786 70.8208 612.83 69.5677 613.979 69.5677C615.441 69.5677 616.381 71.0297 616.172 74.0582C616.068 75.3113 615.963 77.7132 615.963 80.1151C615.963 82.517 616.172 84.9189 616.277 86.4853C616.485 89.3049 614.919 90.5581 613.875 90.5581C612.935 90.5581 611.577 89.4094 610.637 87.3208C609.593 84.9189 609.28 84.1879 607.087 83.979C602.805 83.6657 602.178 83.4569 597.479 83.4569C596.957 83.4569 596.33 84.9189 596.33 87.5296C596.33 90.3492 596.644 96.4062 596.748 98.7036C596.957 101.732 597.375 102.881 597.688 103.299C598.732 104.865 603.745 106.223 608.758 106.223C610.428 106.223 613.352 105.909 615.754 104.552C617.739 103.507 618.783 102.254 621.08 99.1214C622.751 96.8239 623.9 94.3176 625.571 94.3176C627.555 94.3176 628.182 97.346 627.764 99.5391C627.137 102.568 624.631 109.564 624.213 110.504C623.9 111.235 621.707 112.384 621.08 112.384C619.723 112.384 615.546 111.862 596.539 111.862C589.96 111.862 576.802 112.28 572.312 112.28C570.118 112.28 568.552 111.444 568.552 110.609C568.552 109.355 569.387 107.893 571.58 107.267C578.786 105.283 578.995 102.881 579.204 101.001C579.622 95.9885 579.726 93.7954 579.726 77.7132C579.726 61.631 579.517 61.0044 579.204 59.1247C578.682 55.9918 577.324 54.843 573.147 53.7987C570.432 53.1722 570.014 51.7101 570.014 50.9791C570.014 49.6215 572.103 48.8905 573.46 48.8905C575.236 48.8905 586.827 49.4127 593.72 49.4127ZM676.059 47.3241C680.863 47.3241 685.667 48.3684 688.487 49.0994C691.097 49.8304 694.857 50.9791 695.692 50.9791C696.214 50.9791 697.468 52.3367 697.468 52.9633C697.468 56.7228 698.512 62.0487 698.512 64.6595C698.512 67.5835 696.528 69.2544 695.17 69.2544C694.335 69.2544 693.813 68.4189 692.977 66.1215C691.411 61.8398 690.784 59.5424 686.92 56.7228C683.683 54.3209 680.028 52.5456 675.537 52.5456C671.047 52.5456 665.303 55.1563 661.857 59.3335C657.366 64.6595 655.278 72.5961 655.278 78.8619C655.278 86.7986 657.889 93.8999 660.917 98.1815C664.677 103.507 671.569 107.371 677.835 107.371C680.445 107.371 685.145 105.7 687.233 104.552C688.069 104.03 689.949 102.045 692.559 97.8682C694.544 94.7353 695.797 93.4821 696.841 93.4821C698.825 93.4821 699.034 95.4663 698.93 97.6593C698.93 98.5992 696.945 105.596 696.945 107.58C696.945 107.893 696.11 109.355 695.797 109.564C692.142 111.34 682.847 113.742 675.642 113.742C664.05 113.742 651.727 110.295 644.313 102.15C639.718 97.1372 636.48 90.2448 636.48 80.9505C636.48 69.7765 641.493 60.3778 650.683 54.0076C655.382 50.7703 665.199 47.3241 676.059 47.3241ZM718.116 88.9916V64.8683C718.116 56.0962 717.698 54.9475 712.059 53.6943C710.284 53.2766 709.24 52.0234 709.24 51.0836C709.24 49.5171 711.746 48.995 712.79 48.995C714.774 48.995 721.354 49.4127 725.948 49.4127C732.214 49.4127 737.331 49.0994 740.36 49.0994C741.926 49.0994 743.597 49.9348 743.597 51.2924C743.597 52.5456 741.822 53.381 740.986 53.5899C735.869 54.7386 735.556 56.0962 735.138 61.5266C734.825 66.017 734.721 75.1025 734.721 82.2037C734.721 93.5866 734.929 97.6593 734.929 99.0169C735.138 103.925 735.66 106.014 740.882 107.267C742.866 107.789 744.224 108.833 744.224 110.295C744.224 111.549 741.926 112.175 740.673 112.175C739.629 112.175 729.499 111.862 725.948 111.862C722.293 111.862 714.67 112.28 712.79 112.28C711.433 112.28 709.24 111.966 709.24 110.295C709.24 109.147 710.911 107.789 712.373 107.371C716.55 106.014 717.176 104.761 717.698 101.628C718.012 99.4346 718.116 97.5549 718.116 88.9916ZM776.166 49.4127H786.923C796.426 49.4127 797.888 49.4127 800.29 48.8905C801.438 48.6817 802.169 49.3082 802.483 49.8304C803.109 50.8747 803.945 58.8114 803.945 61.1088C803.945 63.824 802.691 64.4506 802.065 64.4506C800.185 64.4506 799.141 63.3019 797.888 60.4823C795.903 56.2006 794.441 55.4696 793.606 55.4696C787.654 55.4696 781.91 55.7829 780.448 55.7829C779.926 55.7829 779.09 56.9316 779.09 57.3494C778.986 59.3335 778.777 66.8525 778.777 74.0582C778.777 75.729 779.09 76.7733 779.612 76.8778C780.761 77.1911 784.416 77.0866 786.296 76.9822C790.995 76.6689 792.457 74.998 793.606 72.3873C794.233 70.8208 795.277 69.5677 796.426 69.5677C797.888 69.5677 798.828 71.0297 798.619 74.0582C798.514 75.3113 798.41 77.7132 798.41 80.1151C798.41 82.517 798.619 84.9189 798.723 86.4853C798.932 89.3049 797.366 90.5581 796.321 90.5581C795.381 90.5581 794.024 89.4094 793.084 87.3208C792.04 84.9189 791.726 84.1879 789.533 83.979C785.252 83.6657 784.625 83.4569 779.926 83.4569C779.404 83.4569 778.777 84.9189 778.777 87.5296C778.777 90.3492 779.09 96.4062 779.195 98.7036C779.404 101.732 779.821 102.881 780.135 103.299C781.179 104.865 786.191 106.223 791.204 106.223C792.875 106.223 795.799 105.909 798.201 104.552C800.185 103.507 801.229 102.254 803.527 99.1214C805.198 96.8239 806.346 94.3176 808.017 94.3176C810.002 94.3176 810.628 97.346 810.21 99.5391C809.584 102.568 807.078 109.564 806.66 110.504C806.346 111.235 804.153 112.384 803.527 112.384C802.169 112.384 797.992 111.862 778.986 111.862C772.407 111.862 759.249 112.28 754.758 112.28C752.565 112.28 750.999 111.444 750.999 110.609C750.999 109.355 751.834 107.893 754.027 107.267C761.233 105.283 761.442 102.881 761.65 101.001C762.068 95.9885 762.173 93.7954 762.173 77.7132C762.173 61.631 761.964 61.0044 761.65 59.1247C761.128 55.9918 759.771 54.843 755.594 53.7987C752.878 53.1722 752.461 51.7101 752.461 50.9791C752.461 49.6215 754.549 48.8905 755.907 48.8905C757.682 48.8905 769.274 49.4127 776.166 49.4127ZM845.532 47.4285C851.38 47.4285 856.915 49.3082 860.988 50.2481C861.614 50.3525 862.345 52.0234 862.345 53.1722C862.345 54.4253 863.076 60.169 863.076 61.7354C863.076 65.286 861.406 66.7481 859.944 66.7481C858.795 66.7481 857.855 64.9727 857.542 64.1373C855.244 57.8715 849.814 52.2323 843.861 52.2323C839.475 52.2323 835.507 56.3051 835.507 60.2734C835.507 64.9727 838.953 68.4189 844.906 71.4474C858.064 78.1309 865.792 83.979 865.792 93.8999C865.792 102.463 859.944 107.267 856.184 109.564C852.111 111.966 845.219 113.742 840.415 113.742C831.539 113.742 826.421 111.862 824.02 110.922C823.289 110.609 821.618 109.669 821.096 108.52C819.32 104.761 819.007 99.3302 819.007 96.8239C819.007 94.8397 820.051 92.3334 821.722 92.3334C822.871 92.3334 824.228 93.5866 825.69 96.3017C829.554 103.403 835.298 108.52 841.773 108.52C845.532 108.52 850.232 105.909 850.232 101.106C850.232 97.9726 850.44 94.5264 839.789 88.7828C826.108 81.4727 820.782 75.8335 820.782 66.1215C820.782 59.3335 825.586 53.7987 830.599 50.9791C834.567 48.7861 839.58 47.4285 845.532 47.4285ZM925.203 47.3241C935.541 47.5329 942.329 54.2165 942.329 61.5266C942.329 66.9569 939.301 69.2544 933.244 72.805C932.721 73.1183 933.035 73.7449 933.452 73.9537C937.63 76.46 944.94 82.6214 948.177 86.172C948.386 86.3809 949.221 86.2765 949.326 86.172C951.414 83.8746 953.816 79.6974 955.592 77.3999C956.427 76.2512 957.054 74.7892 957.054 73.6404C957.054 73.0139 956.218 71.5518 953.294 70.9253C951.206 70.4031 949.952 69.2544 949.952 68.2101C949.952 66.2259 952.25 65.5993 953.607 65.5993C954.861 65.5993 959.456 65.8082 967.601 65.0772C970.212 64.8683 972.718 64.3462 974.702 64.3462C976.373 64.3462 978.671 64.7639 978.671 66.5392C978.671 68.4189 976.582 69.4632 974.702 69.9854C969.481 71.5518 967.392 74.4759 963.424 78.3398C959.873 81.6815 955.696 87.3208 952.772 90.3492C952.563 90.5581 952.668 91.3935 952.876 91.6024C954.338 93.2733 955.07 93.7954 957.576 96.5106C961.231 100.583 965.408 102.776 969.063 102.776C971.361 102.776 973.136 102.15 974.911 101.21C976.478 100.375 978.253 101.001 978.253 102.359C978.253 104.761 977.313 106.014 975.956 107.371C971.883 111.235 966.87 113.95 958.829 113.95C956.427 113.95 953.19 113.533 950.997 112.802C948.49 111.862 947.551 111.026 946.82 109.982C945.253 107.685 942.747 104.134 941.598 103.09C941.285 102.776 940.449 102.776 940.345 102.881C937.734 105.492 934.81 108.311 930.842 110.818C927.813 112.802 923.009 113.846 919.354 113.846C905.57 113.846 898.468 104.552 898.468 95.3619C898.468 87.7385 902.75 82.517 912.149 77.2955C912.566 76.9822 912.462 76.46 912.358 76.3556C908.285 72.7006 906.823 67.8968 906.823 64.0329C906.823 57.0361 911.313 52.7544 913.82 50.8747C916.953 48.4728 921.339 47.2196 925.203 47.3241ZM923.741 52.2323C920.503 52.2323 918.519 55.6785 918.519 59.2291C918.519 63.4063 923.323 68.0012 927.604 69.881C928.231 70.1942 928.962 70.2987 929.484 70.0898C930.737 69.2544 931.468 66.2259 931.468 62.7797C931.468 59.1247 929.171 52.2323 923.741 52.2323ZM927.396 102.672C929.693 102.672 933.87 102.254 936.377 98.9125C936.585 98.5992 936.69 97.346 936.168 96.7195C930.424 89.7227 920.712 81.9948 917.997 80.5328C917.579 80.324 916.326 79.9062 916.013 80.324C914.655 81.6815 913.089 86.4853 913.089 88.4695C913.089 92.0201 915.073 96.8239 918.206 99.2258C920.816 101.21 924.576 102.672 927.396 102.672Z" fill="white"/>
<path d="M197.87 161.034C201.782 161.034 205.484 162.292 208.208 162.92C208.627 162.99 209.116 164.108 209.116 164.876C209.116 165.714 209.605 169.556 209.605 170.604C209.605 172.979 208.487 173.957 207.509 173.957C206.741 173.957 206.112 172.769 205.903 172.21C204.366 168.019 200.734 164.247 196.752 164.247C193.819 164.247 191.164 166.972 191.164 169.626C191.164 172.769 193.469 175.074 197.451 177.1C206.252 181.57 211.421 185.482 211.421 192.118C211.421 197.845 207.509 201.058 204.995 202.595C202.271 204.202 197.66 205.389 194.447 205.389C188.51 205.389 185.087 204.132 183.481 203.503C182.992 203.294 181.874 202.665 181.525 201.897C180.338 199.382 180.128 195.75 180.128 194.073C180.128 192.746 180.827 191.07 181.944 191.07C182.713 191.07 183.621 191.908 184.599 193.724C187.183 198.474 191.025 201.897 195.355 201.897C197.87 201.897 201.013 200.15 201.013 196.937C201.013 194.842 201.153 192.537 194.028 188.695C184.878 183.805 181.316 180.034 181.316 173.538C181.316 168.997 184.529 165.295 187.881 163.409C190.536 161.942 193.889 161.034 197.87 161.034ZM233.056 162.362H240.25C246.607 162.362 247.585 162.362 249.191 162.012C249.96 161.873 250.449 162.292 250.658 162.641C251.077 163.339 251.636 168.648 251.636 170.185C251.636 172.001 250.798 172.42 250.379 172.42C249.121 172.42 248.423 171.652 247.585 169.766C246.258 166.902 245.28 166.413 244.721 166.413C240.739 166.413 236.898 166.622 235.92 166.622C235.57 166.622 235.012 167.391 235.012 167.67C234.942 168.997 234.802 174.026 234.802 178.846C234.802 179.964 235.012 180.662 235.361 180.732C236.129 180.942 238.574 180.872 239.831 180.802C242.975 180.592 243.952 179.475 244.721 177.729C245.14 176.681 245.838 175.843 246.607 175.843C247.585 175.843 248.213 176.82 248.074 178.846C248.004 179.684 247.934 181.291 247.934 182.897C247.934 184.504 248.074 186.111 248.143 187.158C248.283 189.044 247.235 189.882 246.537 189.882C245.908 189.882 245 189.114 244.372 187.717C243.673 186.111 243.464 185.622 241.997 185.482C239.133 185.272 238.714 185.133 235.57 185.133C235.221 185.133 234.802 186.111 234.802 187.857C234.802 189.743 235.012 193.794 235.082 195.331C235.221 197.356 235.501 198.125 235.71 198.404C236.409 199.452 239.761 200.36 243.114 200.36C244.232 200.36 246.188 200.15 247.794 199.242C249.121 198.544 249.82 197.706 251.357 195.61C252.474 194.073 253.243 192.397 254.36 192.397C255.687 192.397 256.106 194.423 255.827 195.89C255.408 197.915 253.731 202.595 253.452 203.224C253.243 203.713 251.776 204.481 251.357 204.481C250.449 204.481 247.655 204.132 234.942 204.132C230.541 204.132 221.74 204.411 218.737 204.411C217.27 204.411 216.222 203.852 216.222 203.294C216.222 202.455 216.781 201.478 218.248 201.058C223.067 199.731 223.207 198.125 223.347 196.867C223.626 193.515 223.696 192.048 223.696 181.291C223.696 170.534 223.556 170.115 223.347 168.858C222.997 166.762 222.089 165.994 219.295 165.295C217.479 164.876 217.2 163.898 217.2 163.409C217.2 162.501 218.597 162.012 219.505 162.012C220.692 162.012 228.446 162.362 233.056 162.362ZM287.435 160.965C288.692 160.965 289.111 163.06 290.927 167.74C294.699 177.868 300.427 191.419 302.313 195.68C304.059 199.592 305.037 199.661 307.761 200.779C309.368 201.478 309.926 202.525 309.926 203.294C309.926 204.132 308.809 204.481 307.482 204.481C305.316 204.481 299.868 204.132 296.445 204.132C293.442 204.132 291.556 204.481 289.041 204.481C287.085 204.481 286.457 203.643 286.457 203.154C286.457 202.316 287.295 201.338 288.622 200.779C291.067 199.731 291.067 198.195 290.718 197.007C290.089 195.261 290.019 194.912 289.111 192.816C289.041 192.607 288.413 191.838 287.295 191.699C286.108 191.559 277.376 191.419 275.77 191.768C275.351 191.838 274.792 192.537 274.652 192.816C274.093 194.213 273.535 196.867 273.535 197.775C273.535 199.033 274.443 200.081 276.678 200.849C277.656 201.198 278.703 201.757 278.703 202.665C278.703 203.014 277.726 204.341 275.909 204.341C275.071 204.341 273.535 204.132 271.299 204.132C268.715 204.132 265.851 204.481 262.917 204.481C261.381 204.481 260.333 203.783 260.333 202.944C260.333 202.246 260.892 201.547 262.428 200.919C265.013 199.871 266.41 199.661 268.645 194.981C270.391 191.279 275.351 178.706 279.542 167.67C279.611 167.461 279.751 166.972 279.751 166.203C279.751 165.924 280.1 165.435 280.38 165.225C281.288 164.667 284.78 162.362 285.549 161.733C285.968 161.314 287.085 160.965 287.435 160.965ZM286.038 187.019C286.387 187.019 286.806 186.39 286.736 186.18C285.688 182.758 282.755 175.284 282.126 174.166C281.847 173.677 281.428 173.887 281.218 174.166C280.1 176.471 277.097 185.063 276.887 186.111C276.817 186.53 277.167 187.088 277.656 187.088C278.564 187.088 285.06 187.088 286.038 187.019ZM325.823 162.362H337.069C346.08 162.362 347.616 161.942 347.896 161.942C348.524 161.942 349.223 162.711 349.223 163.339V170.185C349.223 172.141 348.105 173.258 347.267 173.258C346.708 173.258 345.87 172.28 345.451 170.813C344.962 169.207 343.984 166.622 341.539 166.413C339.584 166.273 334.135 166.273 331.97 166.273C331.202 166.273 330.713 167.461 330.643 168.229C330.433 170.744 330.363 178.497 330.503 180.453C330.573 181.221 330.783 181.64 331.411 181.64C332.878 181.64 335.672 181.5 337.558 181.291C339.793 181.011 340.003 180.453 340.911 178.427C341.26 177.659 342.168 176.262 343.006 176.262C343.984 176.262 344.403 177.589 344.403 178.776C344.403 180.802 344.124 182.618 344.124 183.805C344.124 185.133 344.403 188.066 344.403 188.625C344.403 189.743 343.635 191 342.587 191C342.028 191 341.33 190.302 340.771 189.184C339.654 187.019 339.444 186.25 337.837 186.041C337.069 185.901 336.021 185.761 331.272 185.761C330.992 185.761 330.573 186.739 330.503 187.577C330.363 189.952 330.363 194.562 330.503 196.099C330.783 199.103 331.691 199.941 335.113 200.849C336.929 201.338 337.488 202.176 337.488 202.875C337.488 203.573 336.301 204.481 334.974 204.481C330.573 204.481 327.36 204.132 324.566 204.132C323.099 204.132 320.724 204.411 315.346 204.411C314.158 204.411 313.111 203.852 313.111 202.944C313.111 202.176 313.949 201.338 315.346 200.989C318 200.36 318.978 199.103 319.118 197.217C319.327 195.121 319.397 193.026 319.397 183.736C319.397 173.258 319.397 171.721 319.257 169.277C319.118 167.041 318.21 166.273 315.555 165.505C314.298 165.156 313.25 164.736 313.25 163.549C313.25 162.571 315.066 162.152 315.835 162.152C321.283 162.222 323.099 162.362 325.823 162.362ZM354.8 163.619C354.8 162.501 356.127 162.222 357.035 162.222C357.385 162.222 363.461 162.362 366.255 162.362C369.049 162.362 374.498 162.152 375.895 162.152C377.362 162.152 378.2 162.85 378.2 163.689C378.2 164.527 377.292 165.225 375.825 165.505C371.913 166.343 371.704 167.88 371.634 169.347C371.494 170.953 371.215 174.865 371.215 180.872C371.215 188.206 371.424 194.912 371.564 197.287C371.634 198.334 373.31 199.801 375.965 200.43C376.943 200.639 379.248 200.709 381.762 200.22C383.858 199.801 387.35 195.68 388.817 193.026C389.516 191.699 390.284 191.21 390.493 191.21C391.751 191.21 392.589 192.676 392.24 193.934C391.751 195.68 390.424 201.198 389.935 202.595C389.516 203.643 388.258 204.341 386.861 204.341C384.416 204.341 377.012 204.132 368.351 204.132C363.601 204.132 356.616 204.481 355.079 204.481C353.543 204.481 352.355 203.713 352.355 202.735C352.355 201.757 353.403 201.268 354.591 201.058C359.27 200.15 359.759 198.474 359.899 196.867C360.039 194.772 360.179 191.838 360.179 183.526C360.179 170.883 360.248 171.023 360.109 169.137C359.899 166.832 359.131 166.483 356.826 165.505C355.359 164.876 354.8 164.387 354.8 163.619ZM421.433 160.965C435.961 160.965 445.74 170.744 445.74 183.247C445.74 191.978 440.571 198.823 434.006 202.455C431.002 204.132 426.113 205.389 421.642 205.389C406.904 205.389 397.264 195.331 397.264 183.247C397.264 177.868 399.29 172.56 403.621 168.229C408.161 163.689 414.867 160.965 421.433 160.965ZM420.175 164.597C416.892 164.597 413.959 167.391 413.889 167.461C410.955 170.674 409.698 175.423 409.698 181.989C409.698 191.489 414.028 201.827 423.458 201.827C425.833 201.827 428.627 199.731 428.976 199.452C431.212 197.356 433.028 192.956 433.028 183.736C433.028 176.401 429.395 164.597 420.175 164.597ZM477.845 160.965C492.373 160.965 502.152 170.744 502.152 183.247C502.152 191.978 496.984 198.823 490.418 202.455C487.414 204.132 482.525 205.389 478.054 205.389C463.316 205.389 453.677 195.331 453.677 183.247C453.677 177.868 455.702 172.56 460.033 168.229C464.573 163.689 471.279 160.965 477.845 160.965ZM476.587 164.597C473.304 164.597 470.371 167.391 470.301 167.461C467.367 170.674 466.11 175.423 466.11 181.989C466.11 191.489 470.441 201.827 479.87 201.827C482.245 201.827 485.039 199.731 485.388 199.452C487.624 197.356 489.44 192.956 489.44 183.736C489.44 176.401 485.808 164.597 476.587 164.597ZM546.138 173.328C546.138 175.982 544.811 178.986 542.995 180.523C541.947 181.431 540.969 181.64 539.502 182.478C539.153 182.688 539.502 184.015 539.712 184.434C541.248 187.508 544.391 192.676 547.046 196.029C549.491 199.103 551.656 200.29 553.821 201.128C554.52 201.408 555.428 202.036 555.428 202.665C555.428 204.481 553.193 205.04 551.307 205.04C545.719 205.04 540.34 204.481 535.451 198.125C532.936 194.842 531.05 191.349 529.094 188.206C527.977 186.39 526.999 186.041 525.881 186.041C525.392 186.041 525.322 186.879 525.322 187.088C525.322 192.676 525.322 194.353 525.532 196.798C525.742 199.312 526.44 199.382 529.234 200.709C530.491 201.338 531.33 202.106 531.33 202.665C531.33 203.433 529.863 204.411 528.675 204.411C526.929 204.411 521.551 204.132 519.106 204.132C516.94 204.132 513.657 204.411 511.073 204.411C509.397 204.411 508.419 203.573 508.419 202.875C508.419 201.897 509.397 201.198 510.724 200.849C513.588 200.011 514.286 199.452 514.426 195.959C514.496 193.445 514.496 192.187 514.496 179.614C514.496 171.023 514.286 170.604 514.146 169.137C514.007 167.74 513.378 166.343 510.724 165.854C509.397 165.575 508.558 164.527 508.558 164.038C508.558 162.85 509.955 162.222 511.632 162.222C515.194 162.222 516.382 162.362 517.29 162.362C521.9 162.362 525.742 161.942 530.631 161.942C536.778 161.942 539.991 163.27 541.667 164.527C544.671 166.832 546.138 169.626 546.138 173.328ZM535.381 174.515C535.381 170.115 532.377 165.784 527.348 165.784C527.069 165.784 526.021 166.064 525.602 166.343C525.392 166.483 525.183 166.832 525.183 167.461C525.183 169.416 525.322 175.912 525.322 180.592C525.322 180.872 525.602 181.71 525.881 181.85C526.859 182.269 527.767 182.478 528.955 182.478C530.491 182.478 533.006 180.872 533.425 180.592C533.844 180.313 535.381 177.868 535.381 174.515ZM590.026 161.034C593.938 161.034 597.64 162.292 600.364 162.92C600.783 162.99 601.272 164.108 601.272 164.876C601.272 165.714 601.761 169.556 601.761 170.604C601.761 172.979 600.643 173.957 599.665 173.957C598.897 173.957 598.268 172.769 598.059 172.21C596.522 168.019 592.89 164.247 588.908 164.247C585.975 164.247 583.32 166.972 583.32 169.626C583.32 172.769 585.625 175.074 589.607 177.1C598.408 181.57 603.577 185.482 603.577 192.118C603.577 197.845 599.665 201.058 597.151 202.595C594.426 204.202 589.816 205.389 586.603 205.389C580.666 205.389 577.243 204.132 575.637 203.503C575.148 203.294 574.03 202.665 573.681 201.897C572.494 199.382 572.284 195.75 572.284 194.073C572.284 192.746 572.983 191.07 574.1 191.07C574.868 191.07 575.777 191.908 576.754 193.724C579.339 198.474 583.181 201.897 587.511 201.897C590.026 201.897 593.169 200.15 593.169 196.937C593.169 194.842 593.309 192.537 586.184 188.695C577.034 183.805 573.471 180.034 573.471 173.538C573.471 168.997 576.685 165.295 580.037 163.409C582.692 161.942 586.044 161.034 590.026 161.034ZM636.877 175.633C636.877 171.721 635.27 168.858 634.921 168.369C634.642 168.019 632.127 165.714 629.542 165.714C628.774 165.714 627.866 165.994 627.587 166.273C627.377 166.483 627.098 166.902 627.098 167.251C626.888 170.045 626.818 178.986 626.818 181.85C626.818 188.835 626.888 194.213 626.888 194.912C626.888 198.823 627.796 199.871 631.568 200.919C633.245 201.408 633.943 201.897 633.943 202.875C633.943 203.503 632.965 204.341 631.149 204.341C629.054 204.341 625.98 204.132 623.116 204.132C620.602 204.132 614.036 204.551 611.731 204.551C609.984 204.551 608.797 203.922 608.797 203.014C608.797 202.106 609.496 201.478 611.521 200.849C614.525 199.871 615.014 198.684 615.223 196.867C615.363 195.47 615.852 186.879 615.852 177.17C615.852 174.166 615.782 170.813 615.572 169.207C615.433 167.6 614.874 166.343 611.801 165.644C610.683 165.365 609.356 164.317 609.356 163.619C609.356 162.362 610.334 162.082 611.521 162.082C614.525 162.082 616.481 162.362 619.973 162.362C622.348 162.362 626.05 162.012 631.498 162.012C637.575 162.012 642.046 163.898 644.421 166.343C646.097 168.089 648.192 171.931 648.192 175.563C648.192 181.011 644.979 184.853 643.582 186.041C640.718 188.416 637.715 189.463 634.502 189.463C632.686 189.463 631.638 189.184 630.59 188.485C629.822 187.996 629.193 187.298 629.193 186.949C629.193 186.18 629.473 185.691 630.031 185.622C630.311 185.552 630.66 185.552 631.009 185.482C632.686 185.063 636.877 184.015 636.877 175.633ZM680.232 160.965C694.761 160.965 704.54 170.744 704.54 183.247C704.54 191.978 699.371 198.823 692.805 202.455C689.802 204.132 684.912 205.389 680.442 205.389C665.703 205.389 656.064 195.331 656.064 183.247C656.064 177.868 658.09 172.56 662.421 168.229C666.961 163.689 673.666 160.965 680.232 160.965ZM678.975 164.597C675.692 164.597 672.758 167.391 672.688 167.461C669.755 170.674 668.497 175.423 668.497 181.989C668.497 191.489 672.828 201.827 682.258 201.827C684.633 201.827 687.427 199.731 687.776 199.452C690.011 197.356 691.827 192.956 691.827 183.736C691.827 176.401 688.195 164.597 678.975 164.597ZM723.738 162.362H745.113C749.024 162.362 750.77 161.873 751.05 161.523C751.888 160.476 752.656 159.847 753.145 159.847C753.564 159.847 755.381 160.965 755.381 162.082C755.381 162.571 754.542 166.972 754.542 171.652C754.542 173.049 753.495 174.585 752.167 174.585C751.19 174.585 750.631 172.839 750.491 172.21C749.443 167.6 748.256 167.461 745.741 167.181C744.693 167.041 744.484 166.832 738.547 166.832C738.197 166.832 737.988 167.391 737.918 168.089C737.848 169.067 737.429 178.497 737.429 182.897C737.429 187.158 737.359 191.768 737.569 194.283C737.988 199.382 739.175 199.592 742.039 200.639C743.296 201.128 744.484 201.757 744.484 202.595C744.484 204.132 742.808 204.481 741.411 204.481C740.712 204.481 733.029 204.132 728.838 204.132C726.812 204.132 723.04 204.341 721.154 204.341C719.687 204.341 718.29 203.713 718.29 202.455C718.29 201.897 718.989 200.919 720.595 200.5C724.926 199.312 726.113 198.404 726.113 194.562C726.113 193.096 726.253 183.805 726.253 179.265C726.253 174.935 726.323 170.324 726.323 168.159C726.323 167.6 725.624 166.832 725.415 166.832C723.669 166.832 721.084 166.832 719.268 166.902C717.312 166.972 715.426 166.972 713.54 172.21C713.121 173.398 712.283 174.306 711.515 174.306C710.607 174.306 709.559 173.049 709.559 171.372C709.559 169.207 710.327 166.064 710.327 162.222C710.327 161.034 711.375 159.987 712.213 159.987C712.423 159.987 713.261 160.406 713.75 160.755C714.937 161.733 715.985 162.152 718.011 162.222C720.875 162.362 721.503 162.362 723.738 162.362ZM760.94 163.619C760.94 162.501 762.267 162.222 763.175 162.222C763.524 162.222 769.601 162.362 772.395 162.362C775.189 162.362 780.637 162.152 782.034 162.152C783.501 162.152 784.339 162.85 784.339 163.689C784.339 164.527 783.431 165.225 781.964 165.505C778.053 166.343 777.843 167.88 777.773 169.347C777.634 170.953 777.354 174.865 777.354 180.872C777.354 188.206 777.564 194.912 777.704 197.287C777.773 198.334 779.45 199.801 782.104 200.43C783.082 200.639 785.387 200.709 787.902 200.22C789.997 199.801 793.49 195.68 794.957 193.026C795.655 191.699 796.423 191.21 796.633 191.21C797.89 191.21 798.728 192.676 798.379 193.934C797.89 195.68 796.563 201.198 796.074 202.595C795.655 203.643 794.398 204.341 793.001 204.341C790.556 204.341 783.152 204.132 774.491 204.132C769.741 204.132 762.756 204.481 761.219 204.481C759.682 204.481 758.495 203.713 758.495 202.735C758.495 201.757 759.543 201.268 760.73 201.058C765.41 200.15 765.899 198.474 766.039 196.867C766.178 194.772 766.318 191.838 766.318 183.526C766.318 170.883 766.388 171.023 766.248 169.137C766.039 166.832 765.27 166.483 762.965 165.505C761.498 164.876 760.94 164.387 760.94 163.619ZM808.758 188.835V172.699C808.758 166.832 808.479 166.064 804.707 165.225C803.519 164.946 802.821 164.108 802.821 163.479C802.821 162.431 804.497 162.082 805.196 162.082C806.523 162.082 810.923 162.362 813.997 162.362C818.188 162.362 821.61 162.152 823.636 162.152C824.684 162.152 825.801 162.711 825.801 163.619C825.801 164.457 824.614 165.016 824.055 165.156C820.632 165.924 820.423 166.832 820.144 170.464C819.934 173.468 819.864 179.545 819.864 184.294C819.864 191.908 820.004 194.632 820.004 195.54C820.144 198.823 820.493 200.22 823.985 201.058C825.312 201.408 826.22 202.106 826.22 203.084C826.22 203.922 824.684 204.341 823.846 204.341C823.147 204.341 816.372 204.132 813.997 204.132C811.552 204.132 806.453 204.411 805.196 204.411C804.288 204.411 802.821 204.202 802.821 203.084C802.821 202.316 803.938 201.408 804.916 201.128C807.71 200.22 808.129 199.382 808.479 197.287C808.688 195.82 808.758 194.562 808.758 188.835ZM858.182 160.965C862.723 160.965 865.307 161.733 868.241 162.501C869.708 162.92 871.174 163.13 872.082 163.13C872.571 163.13 873.34 163.898 873.479 164.667C873.899 166.553 874.876 170.115 874.876 172.909C874.876 173.957 874.178 175.633 873.13 175.633C872.432 175.633 871.943 175.423 870.895 173.538C869.987 171.861 869.288 169.975 867.542 168.438C863.91 165.225 859.649 164.736 857.763 164.736C848.054 164.736 844.631 173.957 844.631 182.129C844.631 193.654 851.197 201.687 859.23 201.687C859.859 201.687 861.605 201.268 862.373 200.709C863.072 200.22 863.351 197.845 863.351 196.239C863.351 193.584 863.281 191 863.211 190.092C863.072 188.695 862.792 187.508 860.208 186.879C857.833 186.32 856.925 185.622 856.925 184.574C856.925 183.945 857.693 182.967 859.789 182.967C861.745 182.967 863.77 183.317 866.075 183.317C868.171 183.317 875.016 182.967 876.413 182.967C878.369 182.967 878.998 183.736 878.998 184.574C878.998 185.552 877.67 186.32 876.762 186.669C874.318 187.508 874.457 188.695 874.387 189.673C874.248 191.279 874.248 188.974 874.248 195.331C874.248 196.239 874.318 197.217 874.457 198.334C874.527 198.823 874.667 199.522 874.667 200.36C874.667 200.569 873.829 201.617 873.689 201.687C872.851 202.316 871.105 203.224 868.171 204.062C865.447 204.83 862.024 205.529 858.601 205.529C847.146 205.529 840.65 202.106 836.18 196.658C833.036 192.816 831.849 187.717 831.849 183.177C831.849 175.633 835.062 170.394 840.58 166.203C844.562 163.13 851.826 160.965 858.182 160.965ZM901.447 178.567C901.447 179.545 902.005 180.313 902.494 180.313C914.718 180.313 917.093 180.243 918.42 180.313C918.7 180.313 919.258 179.265 919.258 178.986C919.258 174.236 919.258 170.324 918.979 168.648C918.769 167.391 918.63 166.692 915.626 165.924C913.042 165.225 912.623 164.178 912.623 163.689C912.623 162.99 913.88 162.152 915.347 162.152C918.211 162.152 920.166 162.362 922.821 162.362C925.545 162.362 932.53 162.152 933.927 162.152C935.324 162.152 936.162 162.85 936.162 163.689C936.162 164.457 935.324 165.225 933.508 165.644C931.342 166.133 930.854 167.181 930.644 168.858C930.365 170.883 930.295 176.332 930.295 182.408C930.295 191.07 930.504 193.515 930.644 196.099C930.854 199.452 932.041 200.011 934.206 200.569C936.162 201.058 936.861 201.897 936.861 202.665C936.861 203.573 935.743 204.341 934.206 204.341C932.879 204.341 930.225 204.132 927.64 204.132C924.008 204.132 918.001 204.481 915.906 204.481C914.509 204.481 913.181 203.922 913.181 202.805C913.181 202.106 913.81 201.547 915.975 200.709C918.56 199.731 918.839 198.195 919.049 197.077C919.398 194.912 919.538 189.254 919.258 186.809C919.049 185.063 918.42 184.923 918.35 184.923C913.181 184.923 903.263 185.133 902.285 185.133C901.796 185.133 901.447 186.53 901.447 186.879C901.447 188.765 901.517 195.54 901.586 196.588C901.796 198.963 902.075 200.081 905.568 200.919C906.406 201.128 907.803 202.036 907.803 202.944C907.803 204.132 906.825 204.411 905.079 204.411C903.053 204.411 898.024 204.132 895.02 204.132C892.785 204.132 888.734 204.481 886.638 204.481C885.172 204.481 883.984 203.713 883.984 202.875C883.984 202.106 885.241 201.338 886.499 200.849C889.432 199.661 889.991 199.033 890.131 196.029C890.341 192.956 890.341 185.202 890.341 175.144C890.341 169.905 890.131 169.416 889.991 168.578C889.712 166.972 888.874 165.994 885.661 165.225C884.892 165.016 884.124 164.387 884.124 163.619C884.124 162.85 885.661 162.082 886.988 162.082C890.41 162.082 895.23 162.362 897.116 162.362C899.281 162.362 900.678 162.222 903.123 162.222C904.241 162.222 905.638 162.571 905.638 163.828C905.638 164.876 903.961 165.505 903.123 165.784C902.005 166.203 901.447 167.6 901.447 169.347C901.447 171.512 901.447 174.096 901.447 178.567ZM955.185 162.362H976.559C980.471 162.362 982.217 161.873 982.496 161.523C983.334 160.476 984.103 159.847 984.592 159.847C985.011 159.847 986.827 160.965 986.827 162.082C986.827 162.571 985.989 166.972 985.989 171.652C985.989 173.049 984.941 174.585 983.614 174.585C982.636 174.585 982.077 172.839 981.937 172.21C980.89 167.6 979.702 167.461 977.188 167.181C976.14 167.041 975.93 166.832 969.993 166.832C969.644 166.832 969.434 167.391 969.364 168.089C969.295 169.067 968.875 178.497 968.875 182.897C968.875 187.158 968.806 191.768 969.015 194.283C969.434 199.382 970.622 199.592 973.486 200.639C974.743 201.128 975.93 201.757 975.93 202.595C975.93 204.132 974.254 204.481 972.857 204.481C972.158 204.481 964.475 204.132 960.284 204.132C958.258 204.132 954.486 204.341 952.6 204.341C951.134 204.341 949.737 203.713 949.737 202.455C949.737 201.897 950.435 200.919 952.042 200.5C956.372 199.312 957.56 198.404 957.56 194.562C957.56 193.096 957.699 183.805 957.699 179.265C957.699 174.935 957.769 170.324 957.769 168.159C957.769 167.6 957.071 166.832 956.861 166.832C955.115 166.832 952.531 166.832 950.714 166.902C948.759 166.972 946.873 166.972 944.987 172.21C944.568 173.398 943.729 174.306 942.961 174.306C942.053 174.306 941.005 173.049 941.005 171.372C941.005 169.207 941.774 166.064 941.774 162.222C941.774 161.034 942.821 159.987 943.66 159.987C943.869 159.987 944.707 160.406 945.196 160.755C946.384 161.733 947.431 162.152 949.457 162.222C952.321 162.362 952.95 162.362 955.185 162.362Z" fill="white"/>
<path d="M85.9359 184.091V181.591H83.4359V184.091H85.9359ZM100.925 184.091H103.425V181.591H100.925V184.091ZM100.925 232.634V235.134H103.425V232.634H100.925ZM98.8737 232.634L97.2892 234.568L97.9803 235.134H98.8737V232.634ZM78.2573 217.382L76.8388 219.441L76.8406 219.442L78.2573 217.382ZM42.8624 207.127L44.5503 208.971L44.5587 208.963L44.5671 208.955L42.8624 207.127ZM48.9106 231.687V234.187H54.7373L50.7223 229.965L48.9106 231.687ZM33.5009 231.687L31.4036 233.048L32.1428 234.187H33.5009V231.687ZM32.0809 194.084L33.9407 195.754L33.9477 195.746L32.0809 194.084ZM85.9359 207.758L84.3866 209.72L88.4359 212.917V207.758H85.9359ZM85.9359 186.591H100.925V181.591H85.9359V186.591ZM98.4248 184.091V232.634H103.425V184.091H98.4248ZM100.925 230.134H98.8737V235.134H100.925V230.134ZM100.458 230.7C94.9518 226.189 88.0188 221.062 79.674 215.322L76.8406 219.442C85.1151 225.133 91.9264 230.174 97.2892 234.568L100.458 230.7ZM79.6758 215.324C71.3471 209.584 65.2324 205.817 61.4685 204.199L59.4934 208.792C62.7419 210.189 68.4781 213.68 76.8388 219.441L79.6758 215.324ZM61.4685 204.199C57.6992 202.578 53.9628 201.734 50.278 201.734V206.734C53.1848 206.734 56.2503 207.398 59.4934 208.792L61.4685 204.199ZM50.278 201.734C46.7819 201.734 43.6976 202.93 41.1577 205.298L44.5671 208.955C46.1644 207.466 48.0239 206.734 50.278 206.734V201.734ZM41.1745 205.282C38.6111 207.629 37.2594 210.585 37.2594 214.016H42.2594C42.2594 212.048 42.9764 210.411 44.5503 208.971L41.1745 205.282ZM37.2594 214.016C37.2594 220.329 40.8271 226.814 47.0988 233.41L50.7223 229.965C44.7925 223.728 42.2594 218.432 42.2594 214.016H37.2594ZM48.9106 229.187H33.5009V234.187H48.9106V229.187ZM35.5981 230.327C31.1167 223.419 29.006 217.032 29.006 211.124H24.006C24.006 218.258 26.5585 225.58 31.4036 233.048L35.5981 230.327ZM29.006 211.124C29.006 204.329 30.7472 199.309 33.9407 195.754L30.2211 192.413C25.9814 197.133 24.006 203.473 24.006 211.124H29.006ZM33.9477 195.746C37.1118 192.194 41.4857 190.325 47.3854 190.325V185.325C40.3122 185.325 34.4831 187.628 30.2141 192.421L33.9477 195.746ZM47.3854 190.325C51.2453 190.325 56.2589 191.788 62.5277 195.029C68.7612 198.252 76.0432 203.132 84.3866 209.72L87.4851 205.796C78.9988 199.095 71.4409 194.009 64.8242 190.588C58.2429 187.185 52.3961 185.325 47.3854 185.325V190.325ZM88.4359 207.758V184.091H83.4359V207.758H88.4359ZM36.5513 131.025L37.9126 133.122L37.9203 133.117L36.5513 131.025ZM91.8263 130.815L90.4884 132.926L91.8263 130.815ZM91.8788 167.682L93.2605 169.766L93.2681 169.76L91.8788 167.682ZM36.4461 167.577L35.0367 169.642L35.0391 169.643L36.4461 167.577ZM82.7803 142.806L83.6606 140.466L83.6531 140.463L82.7803 142.806ZM45.3868 142.806L46.2778 145.142L46.2924 145.136L46.307 145.13L45.3868 142.806ZM45.2817 155.901L44.3115 158.205L44.3236 158.21L45.2817 155.901ZM82.7277 155.901L83.613 158.239L83.6267 158.234L83.6404 158.229L82.7277 155.901ZM29.006 149.222C29.006 142.311 31.9038 137.023 37.9126 133.122L35.1899 128.928C27.8051 133.722 24.006 140.566 24.006 149.222H29.006ZM37.9203 133.117C44.0687 129.093 52.6306 126.951 63.8469 126.951V121.951C52.0626 121.951 42.4274 124.191 35.1822 128.933L37.9203 133.117ZM63.8469 126.951C75.5535 126.951 84.3463 129.035 90.4884 132.926L93.1641 128.703C85.9125 124.109 76.0525 121.951 63.8469 121.951V126.951ZM90.4884 132.926C96.4659 136.713 99.3715 141.984 99.3715 149.012H104.371C104.371 140.261 100.58 133.401 93.1641 128.703L90.4884 132.926ZM99.3715 149.012C99.3715 156.169 96.4593 161.613 90.4896 165.604L93.2681 169.76C100.622 164.845 104.371 157.843 104.371 149.012H99.3715ZM90.4972 165.599C84.3963 169.644 75.7242 171.809 64.215 171.809V176.809C76.2674 176.809 86.0379 174.555 93.2605 169.766L90.4972 165.599ZM64.215 171.809C52.562 171.809 43.8714 169.608 37.853 165.51L35.0391 169.643C42.204 174.522 52.026 176.809 64.215 176.809V171.809ZM37.8554 165.512C31.8785 161.433 29.006 156.071 29.006 149.222H24.006C24.006 157.801 27.7603 164.675 35.0367 169.642L37.8554 165.512ZM90.5922 149.222C90.5922 147.205 89.97 145.361 88.6899 143.815C87.4442 142.31 85.697 141.232 83.6606 140.466L81.9 145.146C83.4048 145.712 84.3135 146.369 84.8385 147.003C85.329 147.596 85.5922 148.293 85.5922 149.222H90.5922ZM83.6531 140.463C79.6017 138.954 72.4785 138.307 62.6899 138.307V143.307C72.5359 143.307 78.8063 143.993 81.9075 145.148L83.6531 140.463ZM62.6899 138.307C54.5025 138.307 48.3125 138.959 44.4667 140.481L46.307 145.13C49.193 143.988 54.5384 143.307 62.6899 143.307V138.307ZM44.4958 140.47C42.5023 141.23 40.798 142.326 39.5916 143.869C38.3609 145.442 37.7853 147.306 37.7853 149.327H42.7853C42.7853 148.298 43.0601 147.55 43.5298 146.949C44.0239 146.318 44.8703 145.678 46.2778 145.142L44.4958 140.47ZM37.7853 149.327C37.7853 151.316 38.3528 153.151 39.544 154.719C40.712 156.255 42.3653 157.386 44.3115 158.205L46.2518 153.597C44.8671 153.014 44.0222 152.348 43.5248 151.693C43.0506 151.069 42.7853 150.319 42.7853 149.327H37.7853ZM44.3236 158.21C46.3094 159.034 49.0598 159.577 52.4116 159.926C55.8067 160.28 59.9935 160.452 64.9513 160.452V155.452C60.0918 155.452 56.0918 155.283 52.9302 154.953C49.7255 154.619 47.5497 154.136 46.2397 153.592L44.3236 158.21ZM64.9513 160.452C73.2291 160.452 79.5472 159.779 83.613 158.239L81.8424 153.563C78.6854 154.759 73.1527 155.452 64.9513 155.452V160.452ZM83.6404 158.229C85.6996 157.421 87.4547 156.296 88.7002 154.745C89.9761 153.157 90.5922 151.275 90.5922 149.222H85.5922C85.5922 150.22 85.3142 150.976 84.8019 151.614C84.2593 152.29 83.3321 152.979 81.815 153.574L83.6404 158.229ZM85.9359 65.2313V62.7313H83.4359V65.2313H85.9359ZM100.925 65.2313H103.425V62.7313H100.925V65.2313ZM100.925 113.774V116.274H103.425V113.774H100.925ZM98.8737 113.774L97.2892 115.708L97.9803 116.274H98.8737V113.774ZM78.2573 98.5226L76.8388 100.581L76.8406 100.582L78.2573 98.5226ZM42.8624 88.267L44.5503 90.1111L44.5587 90.1034L44.5671 90.0956L42.8624 88.267ZM48.9106 112.828V115.328H54.7373L50.7223 111.105L48.9106 112.828ZM33.5009 112.828L31.4036 114.188L32.1428 115.328H33.5009V112.828ZM32.0809 75.224L33.9407 76.8946L33.9477 76.8868L32.0809 75.224ZM85.9359 88.8981L84.3866 90.8602L88.4359 94.0574V88.8981H85.9359ZM85.9359 67.7313H100.925V62.7313H85.9359V67.7313ZM98.4248 65.2313V113.774H103.425V65.2313H98.4248ZM100.925 111.274H98.8737V116.274H100.925V111.274ZM100.458 111.841C94.9518 107.329 88.0188 102.202 79.674 96.4627L76.8406 100.582C85.1151 106.273 91.9264 111.314 97.2892 115.708L100.458 111.841ZM79.6758 96.464C71.3471 90.7248 65.2324 86.9577 61.4685 85.3392L59.4934 89.9325C62.7419 91.3294 68.4781 94.82 76.8388 100.581L79.6758 96.464ZM61.4685 85.3392C57.6992 83.7184 53.9628 82.8744 50.278 82.8744V87.8744C53.1848 87.8744 56.2503 88.538 59.4934 89.9325L61.4685 85.3392ZM50.278 82.8744C46.7819 82.8744 43.6976 84.0706 41.1577 86.4383L44.5671 90.0956C46.1644 88.6066 48.0239 87.8744 50.278 87.8744V82.8744ZM41.1745 86.4228C38.6111 88.7689 37.2594 91.7253 37.2594 95.1566H42.2594C42.2594 93.1885 42.9764 91.5517 44.5503 90.1111L41.1745 86.4228ZM37.2594 95.1566C37.2594 101.47 40.8271 107.954 47.0988 114.55L50.7223 111.105C44.7925 104.869 42.2594 99.5725 42.2594 95.1566H37.2594ZM48.9106 110.328H33.5009V115.328H48.9106V110.328ZM35.5981 111.467C31.1167 104.56 29.006 98.1726 29.006 92.264H24.006C24.006 99.3984 26.5585 106.721 31.4036 114.188L35.5981 111.467ZM29.006 92.264C29.006 85.469 30.7472 80.4496 33.9407 76.8946L30.2211 73.5533C25.9814 78.2729 24.006 84.6135 24.006 92.264H29.006ZM33.9477 76.8868C37.1118 73.3346 41.4857 71.4654 47.3854 71.4654V66.4654C40.3122 66.4654 34.4831 68.7686 30.2141 73.5611L33.9477 76.8868ZM47.3854 71.4654C51.2453 71.4654 56.2589 72.928 62.5277 76.1693C68.7612 79.3923 76.0432 84.2724 84.3866 90.8602L87.4851 86.936C78.9988 80.2354 71.4409 75.1491 64.8242 71.7279C58.2429 68.325 52.3961 66.4654 47.3854 66.4654V71.4654ZM88.4359 88.8981V65.2313H83.4359V88.8981H88.4359ZM69.264 38.3038V40.8038H71.666L71.762 38.4038L69.264 38.3038ZM56.3261 38.3038H53.8261V40.8038H56.3261V38.3038ZM53.7491 30.9934L51.9134 32.6906L51.9215 32.6993L51.9296 32.7079L53.7491 30.9934ZM42.652 52.0831V54.5831H46.6582L44.8977 50.9845L42.652 52.0831ZM29.7142 52.0831L27.4249 53.0878L28.0812 54.5831H29.7142V52.0831ZM31.5549 18.3186L33.5318 19.849L33.5395 19.839L31.5549 18.3186ZM61.4802 22.6838L59.2904 23.8898L61.8626 28.5605L63.8079 23.5959L61.4802 22.6838ZM96.0337 16.8986L97.9648 15.3108L97.9577 15.3023L96.0337 16.8986ZM97.7166 53.9239V56.4239H99.2573L99.9499 55.0476L97.7166 53.9239ZM83.464 53.9239L81.4184 52.4868L78.6524 56.4239H83.464V53.9239ZM86.6196 30.0994L88.5375 28.4958L88.5299 28.4866L88.5221 28.4775L86.6196 30.0994ZM72.3669 29.9942L74.181 31.7144L74.1883 31.7067L74.1956 31.6989L72.3669 29.9942ZM69.264 35.8038H56.3261V40.8038H69.264V35.8038ZM58.8261 38.3038C58.8261 34.7626 57.8147 31.6626 55.5686 29.2789L51.9296 32.7079C53.1195 33.9707 53.8261 35.7444 53.8261 38.3038H58.8261ZM55.5848 29.2963C53.4262 26.9616 50.7237 25.706 47.5957 25.706V30.706C49.2361 30.706 50.6359 31.3088 51.9134 32.6906L55.5848 29.2963ZM47.5957 25.706C44.3633 25.706 41.6315 27.0464 39.5632 29.5644L43.4268 32.7381C44.5841 31.3292 45.9195 30.706 47.5957 30.706V25.706ZM39.5632 29.5644C37.5172 32.0551 36.5757 35.1381 36.5757 38.6194H41.5757C41.5757 36.0701 42.247 34.1743 43.4268 32.7381L39.5632 29.5644ZM36.5757 38.6194C36.5757 43.2047 37.9065 48.0717 40.4063 53.1818L44.8977 50.9845C42.6291 46.3474 41.5757 42.2385 41.5757 38.6194H36.5757ZM42.652 49.5831H29.7142V54.5831H42.652V49.5831ZM32.0034 51.0785C30.027 46.5748 29.006 41.3346 29.006 35.3061H24.006C24.006 41.8997 25.1238 47.8443 27.4249 53.0878L32.0034 51.0785ZM29.006 35.3061C29.006 28.7317 30.5871 23.6525 33.5317 19.849L29.5781 16.7882C25.7909 21.68 24.006 27.9258 24.006 35.3061H29.006ZM33.5395 19.839C36.4163 16.0839 40.0072 14.2971 44.4928 14.2971V9.29708C38.3897 9.29708 33.3553 11.8579 29.5704 16.7982L33.5395 19.839ZM44.4928 14.2971C50.7735 14.2971 55.6632 17.3036 59.2904 23.8898L63.6701 21.4778C59.3032 13.5484 52.8679 9.29708 44.4928 9.29708V14.2971ZM63.8079 23.5959C65.3468 19.6686 67.4831 16.894 70.1341 15.0848C72.7851 13.2757 76.1459 12.2986 80.361 12.2986V7.29856C75.3548 7.29856 70.9583 8.46897 67.3156 10.9549C63.6731 13.4408 60.9796 17.1088 59.1525 21.7717L63.8079 23.5959ZM80.361 12.2986C86.1901 12.2986 90.6895 14.3724 94.1096 18.4948L97.9577 15.3023C93.524 9.95806 87.575 7.29856 80.361 7.29856V12.2986ZM94.1026 18.4863C97.5288 22.6533 99.3715 28.3819 99.3715 35.9372H104.371C104.371 27.5744 102.322 20.6105 97.9647 15.3108L94.1026 18.4863ZM99.3715 35.9372C99.3715 42.0545 98.0686 47.6625 95.4834 52.8002L99.9499 55.0476C102.904 49.1759 104.371 42.7928 104.371 35.9372H99.3715ZM97.7166 51.4239H83.464V56.4239H97.7166V51.4239ZM85.5096 55.361C89.5802 49.5669 91.8018 43.8985 91.8018 38.409H86.8018C86.8018 42.5265 85.1315 47.2014 81.4184 52.4868L85.5096 55.361ZM91.8018 38.409C91.8018 34.5556 90.7794 31.1773 88.5375 28.4958L84.7016 31.7029C86.036 33.299 86.8018 35.4605 86.8018 38.409H91.8018ZM88.5221 28.4775C86.2115 25.767 83.16 24.3912 79.5721 24.3912V29.3912C81.7344 29.3912 83.3812 30.1542 84.717 31.7212L88.5221 28.4775ZM79.5721 24.3912C76.0167 24.3912 72.9484 25.7041 70.5383 28.2895L74.1956 31.6989C75.6423 30.147 77.3775 29.3912 79.5721 29.3912V24.3912ZM70.5529 28.274C68.1106 30.8495 66.9241 34.2505 66.766 38.2039L71.762 38.4038C71.8843 35.3448 72.7665 33.2061 74.181 31.7144L70.5529 28.274Z" fill="white"/>
<path d="M154.425 3.76196L154.215 235.792" stroke="white" stroke-width="2" stroke-miterlimit="10" stroke-linecap="round"/>
</svg>
