<svg width="80" height="81" viewBox="0 0 80 81" fill="none" xmlns="http://www.w3.org/2000/svg">
<path d="M80 40.5C80 62.5914 62.0914 80.5 40 80.5C17.9086 80.5 0 62.5914 0 40.5C0 18.4086 17.9086 0.5 40 0.5C62.0914 0.5 80 18.4086 80 40.5Z" fill="#445971"/>
<path d="M30.5026 39.7363C30.4244 39.7437 30.3474 39.7599 30.2729 39.7846C29.8922 39.8632 28.2485 40.3043 26.6954 40.7153C26.7043 40.6953 26.7088 40.6737 26.7088 40.6518C26.7088 40.63 26.7043 40.6084 26.6954 40.5884L26.1818 39.0836C25.9038 37.2707 26.0488 37.1136 24.9309 37.446H24.8886C24.5562 37.5668 24.5381 37.7179 24.8523 37.8932H24.9369C25.2209 37.9778 25.5049 37.9959 25.4808 38.57C25.4645 39.1239 25.5892 39.6729 25.8434 40.1654C26.0669 40.6065 25.9884 40.7697 25.7588 40.9328H25.8071L24.8462 41.1866C24.6891 40.5823 24.3447 40.8543 24.0607 40.9268C23.9035 41.0537 24.1996 41.3498 23.9156 41.3981C23.6316 41.4465 23.7041 41.1564 23.6255 41.0114C23.547 40.8663 23.3174 40.9328 23.1602 40.9449C23.0031 40.957 22.9246 41.0356 22.9608 41.2048C22.9971 41.374 23.0394 41.5734 23.0817 41.7607H23.1179C22.0423 42.2986 19.6794 43.4649 19.0207 43.8939C18.8153 43.9725 18.6642 44.1719 18.4164 44.2263L18.1203 44.0692L17.8 43.4649C17.7638 43.1567 17.6006 43.0842 17.3226 43.199C17.073 43.2574 16.8397 43.3709 16.6398 43.5313C16.5249 43.7972 16.676 44.039 16.7304 44.2807C16.954 45.2355 17.099 46.2084 17.4193 47.1451C17.4224 47.1574 17.4283 47.1689 17.4365 47.1787C17.4447 47.1885 17.455 47.1962 17.4666 47.2015C17.4782 47.2067 17.4909 47.2092 17.5036 47.2089C17.5164 47.2086 17.5289 47.2053 17.5402 47.1995C17.7123 47.2266 17.8877 47.2266 18.0599 47.1995C18.4587 47.1995 18.6642 47.133 18.5433 46.6314C18.4809 46.4609 18.4848 46.2731 18.5542 46.1053C18.6235 45.9374 18.7534 45.8017 18.918 45.725C19.1255 45.7871 19.3431 45.8077 19.5586 45.7854C19.8245 45.8398 20.0904 45.9244 20.3562 45.9546C22.6466 46.1963 27.1003 45.5014 27.1003 45.5014C27.2149 45.5111 27.3302 45.5111 27.4448 45.5014L31.5903 44.601C29.717 41.8755 30.5026 39.7786 30.5026 39.7363Z" fill="white"/>
<path d="M45.5134 36.6179C43.9241 36.9684 41.8876 37.4337 40.2862 37.6694C40.0747 37.4518 39.8752 37.2282 39.6819 37.0228C39.4885 36.8173 39.3434 36.7931 39.2468 37.1134C39.1501 37.4337 39.0473 37.6815 38.9446 37.9655C38.7952 38.0824 38.6142 38.1519 38.4249 38.1649C36.5455 38.5758 32.1159 39.4581 31.0644 39.8086C30.2486 42.3769 32.1643 44.5947 32.1703 44.6008C33.8805 44.2382 35.5967 43.8817 37.3069 43.507L46.571 41.4946L45.5134 36.6179ZM39.2045 37.8386C39.4583 37.331 39.5066 37.3189 39.9598 37.6694C39.7203 37.771 39.4644 37.8283 39.2045 37.8386Z" fill="white"/>
<path d="M58.5848 33.8501C58.4672 33.8464 58.3496 33.8565 58.2343 33.8803L51.738 35.2944L45.9065 36.5634L46.8915 41.1078L47.2178 41.0353C48.7237 40.9935 50.2208 40.7909 51.6836 40.431C54.4091 39.8267 57.1224 39.2224 59.866 38.7389L59.588 38.7994C59.5698 38.6845 60.4038 35.8322 58.5848 33.8501Z" fill="white"/>
<path d="M63.0626 35.2637C63.0152 34.7825 62.7961 34.3345 62.4455 34.0016C62.0948 33.6686 61.636 33.4731 61.153 33.4508C60.4594 33.4548 59.7691 33.5462 59.0984 33.7227C59.0984 33.7227 60.7179 35.2697 60.1136 38.5693C60.3855 38.5149 60.9173 38.394 61.1893 38.3517C61.8039 38.2819 62.3684 37.9791 62.7665 37.5057C62.8738 37.416 62.9618 37.3055 63.0252 37.1809C63.0885 37.0562 63.1259 36.92 63.1351 36.7805C63.187 36.3319 63.1748 35.8781 63.0989 35.4329L63.0626 35.2637Z" fill="white"/>
</svg>
