<svg width="67" height="67" viewBox="0 0 67 67" fill="none" xmlns="http://www.w3.org/2000/svg">
<path d="M56.9615 8H10.0385C6.15123 8 3 11.134 3 15V57C3 60.866 6.15123 64 10.0385 64H56.9615C60.8488 64 64 60.866 64 57V15C64 11.134 60.8488 8 56.9615 8Z" stroke="#445971" stroke-width="5" stroke-linejoin="round"/>
<path d="M39.5 33C41.433 33 43 31.433 43 29.5C43 27.567 41.433 26 39.5 26C37.567 26 36 27.567 36 29.5C36 31.433 37.567 33 39.5 33Z" fill="#445971"/>
<path d="M51 33C53.2091 33 55 31.433 55 29.5C55 27.567 53.2091 26 51 26C48.7909 26 47 27.567 47 29.5C47 31.433 48.7909 33 51 33Z" fill="#445971"/>
<path d="M39.5 45C41.433 45 43 43.433 43 41.5C43 39.567 41.433 38 39.5 38C37.567 38 36 39.567 36 41.5C36 43.433 37.567 45 39.5 45Z" fill="#445971"/>
<path d="M51 45C53.2091 45 55 43.433 55 41.5C55 39.567 53.2091 38 51 38C48.7909 38 47 39.567 47 41.5C47 43.433 48.7909 45 51 45Z" fill="#445971"/>
<path d="M16 45C18.2091 45 20 43.433 20 41.5C20 39.567 18.2091 38 16 38C13.7909 38 12 39.567 12 41.5C12 43.433 13.7909 45 16 45Z" fill="#445971"/>
<path d="M27.5 45C29.433 45 31 43.433 31 41.5C31 39.567 29.433 38 27.5 38C25.567 38 24 39.567 24 41.5C24 43.433 25.567 45 27.5 45Z" fill="#445971"/>
<path d="M16 57C18.2091 57 20 55.433 20 53.5C20 51.567 18.2091 50 16 50C13.7909 50 12 51.567 12 53.5C12 55.433 13.7909 57 16 57Z" fill="#445971"/>
<path d="M27.5 57C29.433 57 31 55.433 31 53.5C31 51.567 29.433 50 27.5 50C25.567 50 24 51.567 24 53.5C24 55.433 25.567 57 27.5 57Z" fill="#445971"/>
<path d="M39.5 57C41.433 57 43 55.433 43 53.5C43 51.567 41.433 50 39.5 50C37.567 50 36 51.567 36 53.5C36 55.433 37.567 57 39.5 57Z" fill="#445971"/>
<path d="M15 3V8M52 3V8" stroke="#445971" stroke-width="5" stroke-linecap="round" stroke-linejoin="round"/>
<path d="M64 20H3" stroke="#445971" stroke-width="5" stroke-linejoin="round"/>
</svg>
