<svg width="80" height="81" viewBox="0 0 80 81" fill="none" xmlns="http://www.w3.org/2000/svg">
<path d="M80 40.5C80 62.5914 62.0914 80.5 40 80.5C17.9086 80.5 0 62.5914 0 40.5C0 18.4086 17.9086 0.5 40 0.5C62.0914 0.5 80 18.4086 80 40.5Z" fill="#445971"/>
<g clip-path="url(#clip0_26_18)">
<path d="M40 34.6353C31.8105 34.6353 23 32.973 23 29.3177C23 25.6623 31.8105 24 40 24C48.1895 24 57 25.6962 57 29.3177C57 32.9391 48.1728 34.6353 40 34.6353ZM40 26.1542C30.3588 26.1796 25.1565 28.4102 25.1565 29.3177C25.1565 30.2251 30.3588 32.4811 40 32.4811C49.6412 32.4811 54.8855 30.2251 54.8855 29.3177C54.8855 28.4102 49.6412 26.1796 40 26.1796V26.1542Z" fill="white"/>
<path d="M39.7567 31.0139C46.6013 31.0139 52.1501 30.2659 52.1501 29.3431C52.1501 28.4204 46.6013 27.6723 39.7567 27.6723C32.912 27.6723 27.3633 28.4204 27.3633 29.3431C27.3633 30.2659 32.912 31.0139 39.7567 31.0139Z" fill="white"/>
<path d="M40 57C31.8105 57 23 55.3801 23 51.6823C23 47.9846 31.8105 46.3647 40 46.3647C48.1895 46.3647 57 48.0609 57 51.6823C57 55.3038 48.1728 57 40 57ZM40 48.5189C30.3588 48.5189 25.1565 50.7494 25.1565 51.6569C25.1565 52.5644 30.3588 54.7949 40 54.7949C49.6412 54.7949 54.8855 52.5898 54.8855 51.6823C54.8855 50.7749 49.6412 48.5443 40 48.5443V48.5189Z" fill="white"/>
<path d="M28.2443 53.8196H27.036C26.6302 53.8107 26.2439 53.6415 25.96 53.3482C25.6761 53.0549 25.5172 52.6609 25.5173 52.2506V31.0478C25.5173 30.1997 26.2137 31.421 27.0696 31.421H28.2443C28.6576 31.4232 29.0533 31.5901 29.3455 31.8855C29.6377 32.1808 29.8028 32.5808 29.805 32.9985L30.2246 55.1342C30.2246 55.9823 29.1002 53.8196 28.2443 53.8196Z" fill="white"/>
<path d="M36.0227 32.9561H32.6412C32.2056 32.9561 31.8524 33.313 31.8524 33.7533V55.5328C31.8524 55.9731 32.2056 56.33 32.6412 56.33H36.0227C36.4583 56.33 36.8114 55.9731 36.8114 55.5328V33.7533C36.8114 33.313 36.4583 32.9561 36.0227 32.9561Z" fill="white"/>
<path d="M45.2695 32.9561H41.888C41.4523 32.9561 41.0992 33.313 41.0992 33.7533V55.5328C41.0992 55.9731 41.4523 56.33 41.888 56.33H45.2695C45.7051 56.33 46.0582 55.9731 46.0582 55.5328V33.7533C46.0582 33.313 45.7051 32.9561 45.2695 32.9561Z" fill="white"/>
<path d="M54.3149 53.1411C54.3127 53.5588 54.1476 53.9587 53.8554 54.2541C53.5631 54.5495 53.1675 54.7164 52.7542 54.7186H51.5291C50.69 54.7186 49.851 55.872 49.851 55.007L49.9852 32.9561C49.9896 32.5444 50.1539 32.1509 50.4428 31.8605C50.7316 31.5702 51.1218 31.4062 51.5291 31.404H52.7206C53.1331 31.404 53.5288 31.5691 53.8213 31.8631C54.1137 32.1571 54.2791 32.5561 54.2814 32.973L54.3149 53.1411Z" fill="white"/>
</g>
<defs>
<clipPath id="clip0_26_18">
<rect width="34" height="33" fill="white" transform="translate(23 24)"/>
</clipPath>
</defs>
</svg>