<svg width="80" height="80" viewBox="0 0 80 80" fill="none" xmlns="http://www.w3.org/2000/svg">
<path d="M80 40C80 62.0914 62.0914 80 40 80C17.9086 80 0 62.0914 0 40C0 17.9086 17.9086 0 40 0C62.0914 0 80 17.9086 80 40Z" fill="#445971"/>
<path d="M54 37.5763V53.9615C54 55.0326 53.5733 56.0598 52.8138 56.8172C52.0543 57.5745 51.0241 58 49.95 58H31.05C29.9759 58 28.9457 57.5745 28.1862 56.8172C27.4267 56.0598 27 55.0326 27 53.9615V27.0385C27 25.9674 27.4267 24.9402 28.1862 24.1828C28.9457 23.4255 29.9759 23 31.05 23H39.382C40.0979 23.0001 40.7844 23.2837 41.2906 23.7883L53.2094 35.6732C53.7155 36.178 53.9999 36.8625 54 37.5763Z" stroke="white" stroke-width="3" stroke-linejoin="round"/>
<path d="M40.5517 23V33.3846C40.5517 34.1191 40.8278 34.8234 41.3193 35.3428C41.8108 35.8621 42.4774 36.1538 43.1724 36.1538H53M34 43.0769H47.1034M34 50H47.1034" stroke="white" stroke-width="3" stroke-linecap="round" stroke-linejoin="round"/>
</svg>
