<svg width="32" height="34" viewBox="0 0 32 34" fill="none" xmlns="http://www.w3.org/2000/svg">
<path d="M28.4341 1.50427H26.8641V0.754272C26.8615 0.596882 26.7971 0.446794 26.6848 0.336426C26.5726 0.226058 26.4215 0.164285 26.2641 0.164307H25.8841C25.7284 0.16688 25.5798 0.229872 25.4697 0.339966C25.3596 0.450059 25.2966 0.598598 25.2941 0.754272V1.50427H21.6341V0.754272C21.6341 0.597795 21.5719 0.447683 21.4613 0.337036C21.3506 0.22639 21.2005 0.164307 21.0441 0.164307H20.6641C20.5076 0.164307 20.3575 0.22639 20.2469 0.337036C20.1362 0.447683 20.0741 0.597795 20.0741 0.754272V1.50427H16.3841V0.754272C16.3814 0.596882 16.3171 0.446794 16.2048 0.336426C16.0926 0.226058 15.9415 0.164285 15.7841 0.164307H15.4041C15.2484 0.16688 15.0998 0.229872 14.9897 0.339966C14.8796 0.450059 14.8167 0.598598 14.8141 0.754272V1.50427H11.0541V0.754272C11.0541 0.597795 10.9919 0.447683 10.8813 0.337036C10.7706 0.22639 10.6206 0.164307 10.4641 0.164307H10.0841C9.9276 0.164307 9.77752 0.22639 9.66687 0.337036C9.55622 0.447683 9.49408 0.597795 9.49408 0.754272V1.50427H5.86407V0.754272C5.86407 0.597795 5.8019 0.447683 5.69125 0.337036C5.58061 0.22639 5.43056 0.164307 5.27408 0.164307H4.89407C4.7376 0.164307 4.58751 0.22639 4.47687 0.337036C4.36622 0.447683 4.30408 0.597795 4.30408 0.754272V1.50427H2.74408C2.05982 1.50427 1.40358 1.77604 0.919739 2.25989C0.435895 2.74373 0.164062 3.39997 0.164062 4.08423V8.62427H31.0141V4.08423C31.0141 3.39997 30.7423 2.74373 30.2584 2.25989C29.7746 1.77604 29.1183 1.50427 28.4341 1.50427ZM5.60406 5.41431C5.43553 5.49604 5.25135 5.54039 5.06409 5.54431C4.74648 5.53924 4.44313 5.41142 4.21759 5.18774C3.99205 4.96407 3.86177 4.6618 3.85406 4.34424C3.84976 4.16809 3.88636 3.99337 3.96097 3.83374C4.03558 3.67411 4.14619 3.534 4.28409 3.42432V4.06421C4.28273 4.14206 4.29706 4.21943 4.32623 4.29163C4.3554 4.36382 4.3988 4.42944 4.45386 4.4845C4.50892 4.53956 4.5745 4.58289 4.6467 4.61206C4.71889 4.64123 4.79623 4.65565 4.87408 4.6543H5.25406C5.33191 4.65565 5.40925 4.64123 5.48145 4.61206C5.55364 4.58289 5.61923 4.53956 5.67429 4.4845C5.72934 4.42944 5.77274 4.36382 5.80191 4.29163C5.83108 4.21943 5.84544 4.14206 5.84409 4.06421V3.36426C5.9949 3.49516 6.11094 3.66136 6.18192 3.84802C6.25289 4.03468 6.27657 4.23605 6.25082 4.43408C6.22508 4.63211 6.15073 4.8206 6.03439 4.98291C5.91805 5.14522 5.76334 5.27627 5.58408 5.36426L5.60406 5.41431ZM10.3441 5.52429C10.0508 5.52444 9.7674 5.418 9.54666 5.22485C9.32593 5.03171 9.18286 4.76497 9.14407 4.47424C9.13925 4.41768 9.13925 4.36076 9.14407 4.3042C9.14005 4.14264 9.17103 3.98219 9.23489 3.83374C9.29876 3.68529 9.394 3.55238 9.51407 3.44421V4.04431C9.51271 4.12216 9.52704 4.19941 9.55621 4.27161C9.58538 4.3438 9.62881 4.40942 9.68387 4.46448C9.73893 4.51954 9.80451 4.56299 9.87671 4.59216C9.9489 4.62133 10.0262 4.63563 10.1041 4.63428H10.4841C10.5619 4.63563 10.6393 4.62133 10.7115 4.59216C10.7837 4.56299 10.8492 4.51954 10.9043 4.46448C10.9594 4.40942 11.0028 4.3438 11.0319 4.27161C11.0611 4.19941 11.0754 4.12216 11.0741 4.04431V3.34424C11.131 3.38293 11.1815 3.43016 11.2241 3.48425C11.3767 3.65472 11.4774 3.86525 11.5143 4.09106C11.5513 4.31688 11.5229 4.54858 11.4325 4.75879C11.3421 4.96899 11.1935 5.14893 11.0042 5.27747C10.8149 5.406 10.5928 5.47777 10.3641 5.48425L10.3441 5.52429ZM15.6641 5.52429H15.5541C15.2365 5.51922 14.9331 5.3914 14.7076 5.16772C14.482 4.94405 14.3518 4.64178 14.3441 4.32422C14.3312 4.13136 14.3676 3.93848 14.4498 3.76355C14.532 3.58862 14.6574 3.43739 14.8141 3.32422V3.99426C14.8141 4.15074 14.8762 4.30085 14.9869 4.4115C15.0975 4.52215 15.2476 4.58423 15.4041 4.58423H15.7841C15.8624 4.58556 15.9402 4.57129 16.0129 4.54224C16.0857 4.51318 16.1519 4.46996 16.2077 4.41504C16.2636 4.36012 16.308 4.29465 16.3382 4.22241C16.3685 4.15017 16.3841 4.07259 16.3841 3.99426V3.36426C16.513 3.48039 16.6161 3.62229 16.6867 3.78076C16.7573 3.93924 16.7939 4.1108 16.7941 4.2843C16.805 4.59764 16.6929 4.90278 16.4818 5.13452C16.2706 5.36626 15.9771 5.50619 15.6641 5.52429ZM21.7341 5.12427C21.588 5.29111 21.3971 5.41255 21.1841 5.47424C21.0745 5.5104 20.9595 5.52737 20.8441 5.52429C20.6527 5.52869 20.4633 5.48392 20.2941 5.39429C20.0959 5.29441 19.9293 5.14153 19.8127 4.95264C19.6962 4.76374 19.6344 4.54616 19.6341 4.32422C19.6246 4.09718 19.6877 3.87301 19.8141 3.6842C19.8844 3.57402 19.9722 3.47615 20.0741 3.39429V4.04431C20.0727 4.12216 20.087 4.19941 20.1162 4.27161C20.1454 4.3438 20.1888 4.40942 20.2439 4.46448C20.2989 4.51954 20.3645 4.56299 20.4367 4.59216C20.5089 4.62133 20.5862 4.63563 20.6641 4.63428H21.0441C21.1219 4.63563 21.1993 4.62133 21.2715 4.59216C21.3436 4.56299 21.4092 4.51954 21.4643 4.46448C21.5194 4.40942 21.5627 4.3438 21.5919 4.27161C21.6211 4.19941 21.6354 4.12216 21.6341 4.04431V3.41431C21.8713 3.62459 22.0182 3.9183 22.0441 4.23425C22.0392 4.26406 22.0392 4.29441 22.0441 4.32422C22.0499 4.62127 21.9386 4.90872 21.7341 5.12427ZM26.8441 5.25427C26.7507 5.33261 26.6463 5.39659 26.5341 5.44421C26.393 5.49571 26.2442 5.52285 26.0941 5.52429C25.9466 5.52968 25.7997 5.50228 25.6641 5.44421C25.4349 5.36009 25.2371 5.20756 25.0975 5.0072C24.958 4.80685 24.8835 4.56837 24.8841 4.32422C24.8791 4.28437 24.8791 4.24407 24.8841 4.20422C24.889 4.07932 24.9197 3.95678 24.9741 3.84424C25.0446 3.67992 25.1505 3.53319 25.2841 3.41431V4.04431C25.2841 4.20079 25.3462 4.35078 25.4569 4.46143C25.5675 4.57207 25.7176 4.63428 25.8741 4.63428H26.2541C26.3324 4.6356 26.4102 4.62134 26.4829 4.59229C26.5557 4.56323 26.6219 4.51989 26.6777 4.46497C26.7336 4.41005 26.778 4.34458 26.8082 4.27234C26.8385 4.2001 26.8541 4.12264 26.8541 4.04431V3.36426C27.0685 3.54654 27.2134 3.79734 27.2641 4.07422C27.2745 4.14718 27.2745 4.22135 27.2641 4.29431C27.2785 4.47654 27.2477 4.65943 27.1745 4.8269C27.1012 4.99438 26.9877 5.14121 26.8441 5.25427Z" fill="#5D808F"/>
<path d="M0.143574 9.61426V30.7643C0.142252 31.1061 0.208601 31.4447 0.338795 31.7607C0.468989 32.0768 0.660453 32.364 0.902149 32.6057C1.14385 32.8474 1.43099 33.0389 1.74703 33.1691C2.06307 33.2993 2.40177 33.3656 2.74358 33.3643H28.3936C28.7354 33.3656 29.0741 33.2993 29.3901 33.1691C29.7062 33.0389 29.9933 32.8474 30.235 32.6057C30.4767 32.364 30.6682 32.0768 30.7984 31.7607C30.9286 31.4447 30.9949 31.1061 30.9936 30.7643V9.61426H0.143574ZM5.25356 29.7843C5.25489 29.8534 5.24244 29.9221 5.21691 29.9863C5.19137 30.0506 5.15327 30.1091 5.10485 30.1584C5.05643 30.2078 4.99865 30.2469 4.9349 30.2737C4.87114 30.3004 4.80271 30.3142 4.73357 30.3142H2.79357C2.653 30.3142 2.51821 30.2585 2.41881 30.1591C2.31942 30.0597 2.26357 29.9249 2.26357 29.7843V27.8542C2.26357 27.7137 2.31942 27.5789 2.41881 27.4795C2.51821 27.3801 2.653 27.3242 2.79357 27.3242H4.73357C4.80271 27.3242 4.87114 27.338 4.9349 27.3647C4.99865 27.3915 5.05643 27.4308 5.10485 27.4801C5.15327 27.5295 5.19137 27.588 5.21691 27.6522C5.24244 27.7165 5.25489 27.7851 5.25356 27.8542V29.7843ZM5.25356 24.6443C5.25356 24.7822 5.1988 24.9144 5.10128 25.012C5.00376 25.1095 4.87148 25.1643 4.73357 25.1643H2.79357C2.72444 25.1656 2.65576 25.1531 2.59151 25.1276C2.52726 25.102 2.46874 25.0639 2.41939 25.0155C2.37004 24.9671 2.33085 24.9093 2.3041 24.8456C2.27734 24.7818 2.26356 24.7134 2.26357 24.6443V22.7042C2.26357 22.5637 2.31942 22.4289 2.41881 22.3295C2.51821 22.2301 2.653 22.1743 2.79357 22.1743H4.73357C4.80271 22.1743 4.87114 22.188 4.9349 22.2147C4.99865 22.2415 5.05643 22.2807 5.10485 22.3301C5.15327 22.3794 5.19137 22.4379 5.21691 22.5022C5.24244 22.5664 5.25489 22.6351 5.25356 22.7042V24.6443ZM5.25356 19.4943C5.25489 19.5634 5.24244 19.632 5.21691 19.6963C5.19137 19.7605 5.15327 19.8191 5.10485 19.8684C5.05643 19.9178 4.99865 19.957 4.9349 19.9838C4.87114 20.0105 4.80271 20.0243 4.73357 20.0243H2.79357C2.653 20.0243 2.51821 19.9684 2.41881 19.869C2.31942 19.7696 2.26357 19.6348 2.26357 19.4943V17.5542C2.26357 17.4136 2.31942 17.2788 2.41881 17.1794C2.51821 17.08 2.653 17.0243 2.79357 17.0243H4.73357C4.80271 17.0243 4.87114 17.0381 4.9349 17.0648C4.99865 17.0916 5.05643 17.1307 5.10485 17.1801C5.15327 17.2294 5.19137 17.2879 5.21691 17.3522C5.24244 17.4164 5.25489 17.4851 5.25356 17.5542V19.4943ZM5.25356 14.3442C5.25489 14.4134 5.24244 14.482 5.21691 14.5463C5.19137 14.6105 5.15327 14.669 5.10485 14.7184C5.05643 14.7677 4.99865 14.807 4.9349 14.8337C4.87114 14.8605 4.80271 14.8743 4.73357 14.8743H2.79357C2.653 14.8743 2.51821 14.8184 2.41881 14.719C2.31942 14.6196 2.26357 14.4848 2.26357 14.3442V12.3643C2.26357 12.2237 2.31942 12.0889 2.41881 11.9895C2.51821 11.8901 2.653 11.8342 2.79357 11.8342H4.73357C4.80271 11.8342 4.87114 11.848 4.9349 11.8748C4.99865 11.9015 5.05643 11.9408 5.10485 11.9901C5.15327 12.0395 5.19137 12.098 5.21691 12.1622C5.24244 12.2265 5.25489 12.2951 5.25356 12.3643V14.3442ZM10.0836 29.7843C10.0836 29.9249 10.0277 30.0597 9.92833 30.1591C9.82894 30.2585 9.69414 30.3142 9.55358 30.3142H7.61358C7.47301 30.3142 7.33821 30.2585 7.23882 30.1591C7.13943 30.0597 7.08358 29.9249 7.08358 29.7843V27.8542C7.08358 27.7137 7.13943 27.5789 7.23882 27.4795C7.33821 27.3801 7.47301 27.3242 7.61358 27.3242H9.55358C9.69414 27.3242 9.82894 27.3801 9.92833 27.4795C10.0277 27.5789 10.0836 27.7137 10.0836 27.8542V29.7843ZM10.0836 24.6443C10.0836 24.7134 10.0698 24.7818 10.043 24.8456C10.0163 24.9093 9.9771 24.9671 9.92775 25.0155C9.8784 25.0639 9.81988 25.102 9.75563 25.1276C9.69139 25.1531 9.6227 25.1656 9.55358 25.1643H7.61358C7.54445 25.1656 7.47577 25.1531 7.41152 25.1276C7.34727 25.102 7.28875 25.0639 7.2394 25.0155C7.19005 24.9671 7.15086 24.9093 7.1241 24.8456C7.09735 24.7818 7.08356 24.7134 7.08358 24.6443V22.7042C7.08358 22.5637 7.13943 22.4289 7.23882 22.3295C7.33821 22.2301 7.47301 22.1743 7.61358 22.1743H9.55358C9.69414 22.1743 9.82894 22.2301 9.92833 22.3295C10.0277 22.4289 10.0836 22.5637 10.0836 22.7042V24.6443ZM10.0836 19.4943C10.0836 19.6348 10.0277 19.7696 9.92833 19.869C9.82894 19.9684 9.69414 20.0243 9.55358 20.0243H7.61358C7.47301 20.0243 7.33821 19.9684 7.23882 19.869C7.13943 19.7696 7.08358 19.6348 7.08358 19.4943V17.5542C7.08358 17.4136 7.13943 17.2788 7.23882 17.1794C7.33821 17.08 7.47301 17.0243 7.61358 17.0243H9.55358C9.69414 17.0243 9.82894 17.08 9.92833 17.1794C10.0277 17.2788 10.0836 17.4136 10.0836 17.5542V19.4943ZM10.0836 14.3442C10.0836 14.4848 10.0277 14.6196 9.92833 14.719C9.82894 14.8184 9.69414 14.8743 9.55358 14.8743H7.61358C7.47301 14.8743 7.33821 14.8184 7.23882 14.719C7.13943 14.6196 7.08358 14.4848 7.08358 14.3442V12.3643C7.08358 12.2237 7.13943 12.0889 7.23882 11.9895C7.33821 11.8901 7.47301 11.8342 7.61358 11.8342H9.55358C9.69414 11.8342 9.82894 11.8901 9.92833 11.9895C10.0277 12.0889 10.0836 12.2237 10.0836 12.3643V14.3442ZM14.9036 29.7843C14.9036 29.9249 14.8477 30.0597 14.7483 30.1591C14.6489 30.2585 14.5141 30.3142 14.3736 30.3142H12.4336C12.3644 30.3142 12.296 30.3004 12.2322 30.2737C12.1685 30.2469 12.1107 30.2078 12.0623 30.1584C12.0139 30.1091 11.9758 30.0506 11.9502 29.9863C11.9247 29.9221 11.9122 29.8534 11.9136 29.7843V27.8542C11.9122 27.7851 11.9247 27.7165 11.9502 27.6522C11.9758 27.588 12.0139 27.5295 12.0623 27.4801C12.1107 27.4308 12.1685 27.3915 12.2322 27.3647C12.296 27.338 12.3644 27.3242 12.4336 27.3242H14.3736C14.5141 27.3242 14.6489 27.3801 14.7483 27.4795C14.8477 27.5789 14.9036 27.7137 14.9036 27.8542V29.7843ZM14.9036 24.6443C14.9036 24.7134 14.8898 24.7818 14.8631 24.8456C14.8363 24.9093 14.7971 24.9671 14.7478 25.0155C14.6984 25.0639 14.6399 25.102 14.5756 25.1276C14.5114 25.1531 14.4427 25.1656 14.3736 25.1643H12.4336C12.2957 25.1643 12.1634 25.1095 12.0659 25.012C11.9684 24.9144 11.9136 24.7822 11.9136 24.6443V22.7042C11.9122 22.6351 11.9247 22.5664 11.9502 22.5022C11.9758 22.4379 12.0139 22.3794 12.0623 22.3301C12.1107 22.2807 12.1685 22.2415 12.2322 22.2147C12.296 22.188 12.3644 22.1743 12.4336 22.1743H14.3736C14.5141 22.1743 14.6489 22.2301 14.7483 22.3295C14.8477 22.4289 14.9036 22.5637 14.9036 22.7042V24.6443ZM14.9036 19.4943C14.9036 19.6348 14.8477 19.7696 14.7483 19.869C14.6489 19.9684 14.5141 20.0243 14.3736 20.0243H12.4336C12.3644 20.0243 12.296 20.0105 12.2322 19.9838C12.1685 19.957 12.1107 19.9178 12.0623 19.8684C12.0139 19.8191 11.9758 19.7605 11.9502 19.6963C11.9247 19.632 11.9122 19.5634 11.9136 19.4943V17.5542C11.9122 17.4851 11.9247 17.4164 11.9502 17.3522C11.9758 17.2879 12.0139 17.2294 12.0623 17.1801C12.1107 17.1307 12.1685 17.0916 12.2322 17.0648C12.296 17.0381 12.3644 17.0243 12.4336 17.0243H14.3736C14.5141 17.0243 14.6489 17.08 14.7483 17.1794C14.8477 17.2788 14.9036 17.4136 14.9036 17.5542V19.4943ZM14.9036 14.3442C14.9036 14.4848 14.8477 14.6196 14.7483 14.719C14.6489 14.8184 14.5141 14.8743 14.3736 14.8743H12.4336C12.3644 14.8743 12.296 14.8605 12.2322 14.8337C12.1685 14.807 12.1107 14.7677 12.0623 14.7184C12.0139 14.669 11.9758 14.6105 11.9502 14.5463C11.9247 14.482 11.9122 14.4134 11.9136 14.3442V12.3643C11.9122 12.2951 11.9247 12.2265 11.9502 12.1622C11.9758 12.098 12.0139 12.0395 12.0623 11.9901C12.1107 11.9408 12.1685 11.9015 12.2322 11.8748C12.296 11.848 12.3644 11.8342 12.4336 11.8342H14.3736C14.5141 11.8342 14.6489 11.8901 14.7483 11.9895C14.8477 12.0889 14.9036 12.2237 14.9036 12.3643V14.3442ZM19.7236 29.7843C19.7249 29.8534 19.7124 29.9221 19.6869 29.9863C19.6614 30.0506 19.6233 30.1091 19.5748 30.1584C19.5264 30.2078 19.4686 30.2469 19.4049 30.2737C19.3411 30.3004 19.2727 30.3142 19.2036 30.3142H17.2636C17.123 30.3142 16.9882 30.2585 16.8888 30.1591C16.7894 30.0597 16.7336 29.9249 16.7336 29.7843V27.8542C16.7336 27.7137 16.7894 27.5789 16.8888 27.4795C16.9882 27.3801 17.123 27.3242 17.2636 27.3242H19.2036C19.2727 27.3242 19.3411 27.338 19.4049 27.3647C19.4686 27.3915 19.5264 27.4308 19.5748 27.4801C19.6233 27.5295 19.6614 27.588 19.6869 27.6522C19.7124 27.7165 19.7249 27.7851 19.7236 27.8542V29.7843ZM19.7236 24.6443C19.7236 24.7822 19.6688 24.9144 19.5713 25.012C19.4738 25.1095 19.3415 25.1643 19.2036 25.1643H17.2636C17.1944 25.1656 17.1258 25.1531 17.0615 25.1276C16.9973 25.102 16.9387 25.0639 16.8894 25.0155C16.84 24.9671 16.8009 24.9093 16.7741 24.8456C16.7473 24.7818 16.7336 24.7134 16.7336 24.6443V22.7042C16.7336 22.5637 16.7894 22.4289 16.8888 22.3295C16.9882 22.2301 17.123 22.1743 17.2636 22.1743H19.2036C19.2727 22.1743 19.3411 22.188 19.4049 22.2147C19.4686 22.2415 19.5264 22.2807 19.5748 22.3301C19.6233 22.3794 19.6614 22.4379 19.6869 22.5022C19.7124 22.5664 19.7249 22.6351 19.7236 22.7042V24.6443ZM19.7236 19.4943C19.7249 19.5634 19.7124 19.632 19.6869 19.6963C19.6614 19.7605 19.6233 19.8191 19.5748 19.8684C19.5264 19.9178 19.4686 19.957 19.4049 19.9838C19.3411 20.0105 19.2727 20.0243 19.2036 20.0243H17.2636C17.123 20.0243 16.9882 19.9684 16.8888 19.869C16.7894 19.7696 16.7336 19.6348 16.7336 19.4943V17.5542C16.7336 17.4136 16.7894 17.2788 16.8888 17.1794C16.9882 17.08 17.123 17.0243 17.2636 17.0243H19.2036C19.2727 17.0243 19.3411 17.0381 19.4049 17.0648C19.4686 17.0916 19.5264 17.1307 19.5748 17.1801C19.6233 17.2294 19.6614 17.2879 19.6869 17.3522C19.7124 17.4164 19.7249 17.4851 19.7236 17.5542V19.4943ZM19.7236 14.3442C19.7249 14.4134 19.7124 14.482 19.6869 14.5463C19.6614 14.6105 19.6233 14.669 19.5748 14.7184C19.5264 14.7677 19.4686 14.807 19.4049 14.8337C19.3411 14.8605 19.2727 14.8743 19.2036 14.8743H17.2636C17.123 14.8743 16.9882 14.8184 16.8888 14.719C16.7894 14.6196 16.7336 14.4848 16.7336 14.3442V12.3643C16.7336 12.2237 16.7894 12.0889 16.8888 11.9895C16.9882 11.8901 17.123 11.8342 17.2636 11.8342H19.2036C19.2727 11.8342 19.3411 11.848 19.4049 11.8748C19.4686 11.9015 19.5264 11.9408 19.5748 11.9901C19.6233 12.0395 19.6614 12.098 19.6869 12.1622C19.7124 12.2265 19.7249 12.2951 19.7236 12.3643V14.3442ZM24.5536 29.7843C24.5536 29.9249 24.4977 30.0597 24.3983 30.1591C24.2989 30.2585 24.1641 30.3142 24.0236 30.3142H22.1436C22.0744 30.3142 22.006 30.3004 21.9422 30.2737C21.8785 30.2469 21.8207 30.2078 21.7723 30.1584C21.7239 30.1091 21.6858 30.0506 21.6602 29.9863C21.6347 29.9221 21.6223 29.8534 21.6236 29.7843V27.8542C21.6223 27.7851 21.6347 27.7165 21.6602 27.6522C21.6858 27.588 21.7239 27.5295 21.7723 27.4801C21.8207 27.4308 21.8785 27.3915 21.9422 27.3647C22.006 27.338 22.0744 27.3242 22.1436 27.3242H24.0836C24.2241 27.3242 24.3589 27.3801 24.4583 27.4795C24.5577 27.5789 24.6136 27.7137 24.6136 27.8542L24.5536 29.7843ZM24.5536 24.6443C24.5536 24.7134 24.5398 24.7818 24.5131 24.8456C24.4863 24.9093 24.4471 24.9671 24.3978 25.0155C24.3484 25.0639 24.2899 25.102 24.2256 25.1276C24.1614 25.1531 24.0927 25.1656 24.0236 25.1643H22.1436C22.0057 25.1643 21.8734 25.1095 21.7759 25.012C21.6783 24.9144 21.6236 24.7822 21.6236 24.6443V22.7042C21.6223 22.6351 21.6347 22.5664 21.6602 22.5022C21.6858 22.4379 21.7239 22.3794 21.7723 22.3301C21.8207 22.2807 21.8785 22.2415 21.9422 22.2147C22.006 22.188 22.0744 22.1743 22.1436 22.1743H24.0836C24.2241 22.1743 24.3589 22.2301 24.4583 22.3295C24.5577 22.4289 24.6136 22.5637 24.6136 22.7042L24.5536 24.6443ZM24.5536 19.4943C24.5536 19.6348 24.4977 19.7696 24.3983 19.869C24.2989 19.9684 24.1641 20.0243 24.0236 20.0243H22.1436C22.0744 20.0243 22.006 20.0105 21.9422 19.9838C21.8785 19.957 21.8207 19.9178 21.7723 19.8684C21.7239 19.8191 21.6858 19.7605 21.6602 19.6963C21.6347 19.632 21.6223 19.5634 21.6236 19.4943V17.5542C21.6223 17.4851 21.6347 17.4164 21.6602 17.3522C21.6858 17.2879 21.7239 17.2294 21.7723 17.1801C21.8207 17.1307 21.8785 17.0916 21.9422 17.0648C22.006 17.0381 22.0744 17.0243 22.1436 17.0243H24.0836C24.2241 17.0243 24.3589 17.08 24.4583 17.1794C24.5577 17.2788 24.6136 17.4136 24.6136 17.5542L24.5536 19.4943ZM24.5536 14.3442C24.5536 14.4848 24.4977 14.6196 24.3983 14.719C24.2989 14.8184 24.1641 14.8743 24.0236 14.8743H22.1436C22.0744 14.8743 22.006 14.8605 21.9422 14.8337C21.8785 14.807 21.8207 14.7677 21.7723 14.7184C21.7239 14.669 21.6858 14.6105 21.6602 14.5463C21.6347 14.482 21.6223 14.4134 21.6236 14.3442V12.3643C21.6223 12.2951 21.6347 12.2265 21.6602 12.1622C21.6858 12.098 21.7239 12.0395 21.7723 11.9901C21.8207 11.9408 21.8785 11.9015 21.9422 11.8748C22.006 11.848 22.0744 11.8342 22.1436 11.8342H24.0836C24.2241 11.8342 24.3589 11.8901 24.4583 11.9895C24.5577 12.0889 24.6136 12.2237 24.6136 12.3643L24.5536 14.3442ZM29.3736 29.7843C29.3749 29.8534 29.3624 29.9221 29.3369 29.9863C29.3114 30.0506 29.2733 30.1091 29.2248 30.1584C29.1764 30.2078 29.1187 30.2469 29.0549 30.2737C28.9912 30.3004 28.9227 30.3142 28.8536 30.3142H26.9136C26.773 30.3142 26.6382 30.2585 26.5388 30.1591C26.4394 30.0597 26.3836 29.9249 26.3836 29.7843V27.8542C26.3836 27.7137 26.4394 27.5789 26.5388 27.4795C26.6382 27.3801 26.773 27.3242 26.9136 27.3242H28.8536C28.9227 27.3242 28.9912 27.338 29.0549 27.3647C29.1187 27.3915 29.1764 27.4308 29.2248 27.4801C29.2733 27.5295 29.3114 27.588 29.3369 27.6522C29.3624 27.7165 29.3749 27.7851 29.3736 27.8542V29.7843ZM29.3736 24.6443C29.3736 24.7822 29.3188 24.9144 29.2213 25.012C29.1238 25.1095 28.9915 25.1643 28.8536 25.1643H26.9136C26.8444 25.1656 26.7758 25.1531 26.7115 25.1276C26.6473 25.102 26.5887 25.0639 26.5394 25.0155C26.49 24.9671 26.4508 24.9093 26.4241 24.8456C26.3973 24.7818 26.3836 24.7134 26.3836 24.6443V22.7042C26.3836 22.5637 26.4394 22.4289 26.5388 22.3295C26.6382 22.2301 26.773 22.1743 26.9136 22.1743H28.8536C28.9227 22.1743 28.9912 22.188 29.0549 22.2147C29.1187 22.2415 29.1764 22.2807 29.2248 22.3301C29.2733 22.3794 29.3114 22.4379 29.3369 22.5022C29.3624 22.5664 29.3749 22.6351 29.3736 22.7042V24.6443ZM29.3736 19.4943C29.3749 19.5634 29.3624 19.632 29.3369 19.6963C29.3114 19.7605 29.2733 19.8191 29.2248 19.8684C29.1764 19.9178 29.1187 19.957 29.0549 19.9838C28.9912 20.0105 28.9227 20.0243 28.8536 20.0243H26.9136C26.773 20.0243 26.6382 19.9684 26.5388 19.869C26.4394 19.7696 26.3836 19.6348 26.3836 19.4943V17.5542C26.3836 17.4136 26.4394 17.2788 26.5388 17.1794C26.6382 17.08 26.773 17.0243 26.9136 17.0243H28.8536C28.9227 17.0243 28.9912 17.0381 29.0549 17.0648C29.1187 17.0916 29.1764 17.1307 29.2248 17.1801C29.2733 17.2294 29.3114 17.2879 29.3369 17.3522C29.3624 17.4164 29.3749 17.4851 29.3736 17.5542V19.4943ZM29.3736 14.3442C29.3749 14.4134 29.3624 14.482 29.3369 14.5463C29.3114 14.6105 29.2733 14.669 29.2248 14.7184C29.1764 14.7677 29.1187 14.807 29.0549 14.8337C28.9912 14.8605 28.9227 14.8743 28.8536 14.8743H26.9136C26.773 14.8743 26.6382 14.8184 26.5388 14.719C26.4394 14.6196 26.3836 14.4848 26.3836 14.3442V12.3643C26.3836 12.2237 26.4394 12.0889 26.5388 11.9895C26.6382 11.8901 26.773 11.8342 26.9136 11.8342H28.8536C28.9227 11.8342 28.9912 11.848 29.0549 11.8748C29.1187 11.9015 29.1764 11.9408 29.2248 11.9901C29.2733 12.0395 29.3114 12.098 29.3369 12.1622C29.3624 12.2265 29.3749 12.2951 29.3736 12.3643V14.3442Z" fill="#5D808F"/>
</svg>
