<svg width="80" height="81" viewBox="0 0 80 81" fill="none" xmlns="http://www.w3.org/2000/svg">
<path d="M80 40.5C80 62.5914 62.0914 80.5 40 80.5C17.9086 80.5 0 62.5914 0 40.5C0 18.4086 17.9086 0.5 40 0.5C62.0914 0.5 80 18.4086 80 40.5Z" fill="#445971"/>
<g clip-path="url(#clip0_26_2)">
<path d="M26 33.8238V53.5723C25.9988 53.8914 26.059 54.2077 26.1771 54.5028C26.2952 54.7979 26.469 55.066 26.6883 55.2917C26.9076 55.5174 27.1681 55.6961 27.4548 55.8177C27.7416 55.9393 28.0489 56.0012 28.359 56H51.6409C51.9507 56 52.2575 55.9372 52.5437 55.8152C52.8299 55.6932 53.09 55.5144 53.309 55.2889C53.5281 55.0635 53.7019 54.7959 53.8204 54.5013C53.939 54.2068 54 53.8911 54 53.5723V33.8238H26ZM30.6455 52.6572C30.6455 52.7885 30.5948 52.9144 30.5046 53.0072C30.4145 53.1 30.2921 53.1521 30.1646 53.1521H28.4044C28.2769 53.1521 28.1545 53.1 28.0644 53.0072C27.9742 52.9144 27.9235 52.7885 27.9235 52.6572V50.8551C27.9235 50.7239 27.9742 50.598 28.0644 50.5052C28.1545 50.4124 28.2769 50.3602 28.4044 50.3602H30.1646C30.2921 50.3602 30.4145 50.4124 30.5046 50.5052C30.5948 50.598 30.6455 50.7239 30.6455 50.8551V52.6572ZM30.6455 47.8578C30.6455 47.9224 30.633 47.9863 30.6087 48.0458C30.5844 48.1053 30.5489 48.1593 30.5041 48.2045C30.4593 48.2497 30.4062 48.2853 30.3479 48.3091C30.2896 48.333 30.2273 48.3446 30.1646 48.3434H28.4044C28.3417 48.3446 28.2793 48.333 28.2211 48.3091C28.1628 48.2853 28.1097 48.2497 28.0649 48.2045C28.0201 48.1593 27.9846 48.1053 27.9603 48.0458C27.936 47.9863 27.9235 47.9224 27.9235 47.8578V46.0464C27.9223 45.9806 27.9339 45.9153 27.9575 45.8541C27.9811 45.793 28.0163 45.7373 28.0611 45.6904C28.1059 45.6435 28.1593 45.6062 28.2182 45.5807C28.2772 45.5553 28.3405 45.5422 28.4044 45.5422H30.1646C30.2921 45.5422 30.4145 45.5943 30.5046 45.6871C30.5948 45.7799 30.6455 45.9058 30.6455 46.037V47.8578ZM30.6455 43.0491C30.6455 43.1803 30.5948 43.3062 30.5046 43.399C30.4145 43.4918 30.2921 43.544 30.1646 43.544H28.4044C28.2769 43.544 28.1545 43.4918 28.0644 43.399C27.9742 43.3062 27.9235 43.1803 27.9235 43.0491V41.2376C27.9235 41.1064 27.9742 40.9805 28.0644 40.8877C28.1545 40.7949 28.2769 40.7428 28.4044 40.7428H30.1646C30.2921 40.7428 30.4145 40.7949 30.5046 40.8877C30.5948 40.9805 30.6455 41.1064 30.6455 41.2376V43.0491ZM30.6455 38.2404C30.6455 38.3716 30.5948 38.4975 30.5046 38.5903C30.4145 38.6831 30.2921 38.7352 30.1646 38.7352H28.4044C28.2769 38.7352 28.1545 38.6831 28.0644 38.5903C27.9742 38.4975 27.9235 38.3716 27.9235 38.2404V36.4289C27.9235 36.2977 27.9742 36.1718 28.0644 36.079C28.1545 35.9862 28.2769 35.934 28.4044 35.934H30.1646C30.2921 35.934 30.4145 35.9862 30.5046 36.079C30.5948 36.1718 30.6455 36.2977 30.6455 36.4289V38.2404ZM35.0188 52.6572C35.0188 52.7885 34.9681 52.9144 34.8779 53.0072C34.7878 53.1 34.6654 53.1521 34.5379 53.1521H32.7777C32.659 53.1403 32.549 53.0828 32.4699 52.991C32.3908 52.8991 32.3484 52.7799 32.3513 52.6572V50.8551C32.35 50.7906 32.3614 50.7264 32.3845 50.6664C32.4077 50.6065 32.4423 50.5518 32.4862 50.5057C32.5301 50.4597 32.5825 50.4231 32.6404 50.3981C32.6982 50.3731 32.7603 50.3602 32.8231 50.3602H34.5379C34.6654 50.3602 34.7878 50.4124 34.8779 50.5052C34.9681 50.598 35.0188 50.7239 35.0188 50.8551V52.6572ZM35.0188 47.8578C35.0188 47.9224 35.0063 47.9863 34.982 48.0458C34.9577 48.1053 34.9222 48.1593 34.8774 48.2045C34.8326 48.2497 34.7795 48.2853 34.7212 48.3091C34.6629 48.333 34.6006 48.3446 34.5379 48.3434H32.7777C32.6606 48.3317 32.5519 48.2755 32.473 48.1857C32.3941 48.0958 32.3507 47.9789 32.3513 47.8578V46.0464C32.3461 45.9221 32.3874 45.8005 32.4667 45.7067C32.5461 45.6129 32.6574 45.554 32.7777 45.5422H34.5379C34.6654 45.5422 34.7878 45.5943 34.8779 45.6871C34.9681 45.7799 35.0188 45.9058 35.0188 46.037V47.8578ZM35.0188 43.0491C35.0188 43.1803 34.9681 43.3062 34.8779 43.399C34.7878 43.4918 34.6654 43.544 34.5379 43.544H32.7777C32.659 43.5322 32.549 43.4746 32.4699 43.3828C32.3908 43.291 32.3484 43.1718 32.3513 43.0491V41.2376C32.35 41.1731 32.3614 41.109 32.3845 41.049C32.4077 40.989 32.4423 40.9343 32.4862 40.8883C32.5301 40.8422 32.5825 40.8056 32.6404 40.7806C32.6982 40.7556 32.7603 40.7428 32.8231 40.7428H34.5379C34.6654 40.7428 34.7878 40.7949 34.8779 40.8877C34.9681 40.9805 35.0188 41.1064 35.0188 41.2376V43.0491ZM35.0188 38.2404C35.0188 38.3716 34.9681 38.4975 34.8779 38.5903C34.7878 38.6831 34.6654 38.7352 34.5379 38.7352H32.7777C32.659 38.7235 32.549 38.6659 32.4699 38.5741C32.3908 38.4823 32.3484 38.363 32.3513 38.2404V36.4289C32.35 36.3644 32.3614 36.3002 32.3845 36.2402C32.4077 36.1802 32.4423 36.1256 32.4862 36.0795C32.5301 36.0334 32.5825 35.9968 32.6404 35.9719C32.6982 35.9469 32.7603 35.934 32.8231 35.934H34.5379C34.6654 35.934 34.7878 35.9862 34.8779 36.079C34.9681 36.1718 35.0188 36.2977 35.0188 36.4289V38.2404ZM39.3921 52.6572C39.3933 52.7218 39.382 52.7859 39.3588 52.8459C39.3356 52.9059 39.3011 52.9605 39.2571 53.0066C39.2132 53.0527 39.1608 53.0893 39.1029 53.1143C39.0451 53.1393 38.983 53.1521 38.9203 53.1521H37.1601C37.0325 53.1521 36.9102 53.1 36.82 53.0072C36.7298 52.9144 36.6792 52.7885 36.6792 52.6572V50.8551C36.6792 50.7239 36.7298 50.598 36.82 50.5052C36.9102 50.4124 37.0325 50.3602 37.1601 50.3602H38.9203C38.983 50.3602 39.0451 50.3731 39.1029 50.3981C39.1608 50.4231 39.2132 50.4597 39.2571 50.5057C39.3011 50.5518 39.3356 50.6065 39.3588 50.6664C39.382 50.7264 39.3933 50.7906 39.3921 50.8551V52.6572ZM39.3921 47.8578C39.3921 47.9866 39.3424 48.1101 39.2539 48.2012C39.1654 48.2922 39.0454 48.3434 38.9203 48.3434H37.1601C37.0973 48.3446 37.035 48.333 36.9767 48.3091C36.9184 48.2853 36.8653 48.2497 36.8206 48.2045C36.7758 48.1593 36.7402 48.1053 36.7159 48.0458C36.6917 47.9863 36.6792 47.9224 36.6792 47.8578V46.0464C36.678 45.9806 36.6895 45.9153 36.7132 45.8541C36.7368 45.793 36.772 45.7373 36.8168 45.6904C36.8616 45.6435 36.915 45.6062 36.9739 45.5807C37.0329 45.5553 37.0961 45.5422 37.1601 45.5422H38.9203C38.983 45.5422 39.0451 45.555 39.1029 45.58C39.1608 45.605 39.2132 45.6416 39.2571 45.6877C39.3011 45.7337 39.3356 45.7884 39.3588 45.8484C39.382 45.9084 39.3933 45.9725 39.3921 46.037V47.8578ZM39.3921 43.0491C39.3933 43.1136 39.382 43.1778 39.3588 43.2378C39.3356 43.2978 39.3011 43.3524 39.2571 43.3985C39.2132 43.4446 39.1608 43.4812 39.1029 43.5061C39.0451 43.5311 38.983 43.544 38.9203 43.544H37.1601C37.0325 43.544 36.9102 43.4918 36.82 43.399C36.7298 43.3062 36.6792 43.1803 36.6792 43.0491V41.2376C36.6792 41.1064 36.7298 40.9805 36.82 40.8877C36.9102 40.7949 37.0325 40.7428 37.1601 40.7428H38.9203C38.983 40.7428 39.0451 40.7556 39.1029 40.7806C39.1608 40.8056 39.2132 40.8422 39.2571 40.8883C39.3011 40.9343 39.3356 40.989 39.3588 41.049C39.382 41.109 39.3933 41.1731 39.3921 41.2376V43.0491ZM39.3921 38.2404C39.3933 38.3049 39.382 38.369 39.3588 38.429C39.3356 38.489 39.3011 38.5437 39.2571 38.5897C39.2132 38.6358 39.1608 38.6724 39.1029 38.6974C39.0451 38.7224 38.983 38.7352 38.9203 38.7352H37.1601C37.0325 38.7352 36.9102 38.6831 36.82 38.5903C36.7298 38.4975 36.6792 38.3716 36.6792 38.2404V36.4289C36.6792 36.2977 36.7298 36.1718 36.82 36.079C36.9102 35.9862 37.0325 35.934 37.1601 35.934H38.9203C38.983 35.934 39.0451 35.9469 39.1029 35.9719C39.1608 35.9968 39.2132 36.0334 39.2571 36.0795C39.3011 36.1256 39.3356 36.1802 39.3588 36.2402C39.382 36.3002 39.3933 36.3644 39.3921 36.4289V38.2404ZM43.7745 52.6572C43.7745 52.7885 43.7238 52.9144 43.6336 53.0072C43.5434 53.1 43.4211 53.1521 43.2936 53.1521H41.5334C41.4058 53.1521 41.2835 53.1 41.1933 53.0072C41.1031 52.9144 41.0525 52.7885 41.0525 52.6572V50.8551C41.0525 50.7239 41.1031 50.598 41.1933 50.5052C41.2835 50.4124 41.4058 50.3602 41.5334 50.3602H43.2936C43.4211 50.3602 43.5434 50.4124 43.6336 50.5052C43.7238 50.598 43.7745 50.7239 43.7745 50.8551V52.6572ZM43.7745 47.8578C43.7745 47.9224 43.762 47.9863 43.7377 48.0458C43.7134 48.1053 43.6778 48.1593 43.6331 48.2045C43.5883 48.2497 43.5352 48.2853 43.4769 48.3091C43.4186 48.333 43.3563 48.3446 43.2936 48.3434H41.5334C41.4706 48.3446 41.4083 48.333 41.35 48.3091C41.2917 48.2853 41.2386 48.2497 41.1939 48.2045C41.1491 48.1593 41.1135 48.1053 41.0892 48.0458C41.065 47.9863 41.0525 47.9224 41.0525 47.8578V46.0464C41.0525 45.9151 41.1031 45.7893 41.1933 45.6965C41.2835 45.6036 41.4058 45.5515 41.5334 45.5515H43.2936C43.4211 45.5515 43.5434 45.6036 43.6336 45.6965C43.7238 45.7893 43.7745 45.9151 43.7745 46.0464V47.8578ZM43.7745 43.0491C43.7745 43.1803 43.7238 43.3062 43.6336 43.399C43.5434 43.4918 43.4211 43.544 43.2936 43.544H41.5334C41.4058 43.544 41.2835 43.4918 41.1933 43.399C41.1031 43.3062 41.0525 43.1803 41.0525 43.0491V41.2376C41.0525 41.1064 41.1031 40.9805 41.1933 40.8877C41.2835 40.7949 41.4058 40.7428 41.5334 40.7428H43.2936C43.4211 40.7428 43.5434 40.7949 43.6336 40.8877C43.7238 40.9805 43.7745 41.1064 43.7745 41.2376V43.0491ZM43.7745 38.2404C43.7745 38.3716 43.7238 38.4975 43.6336 38.5903C43.5434 38.6831 43.4211 38.7352 43.2936 38.7352H41.5334C41.4058 38.7352 41.2835 38.6831 41.1933 38.5903C41.1031 38.4975 41.0525 38.3716 41.0525 38.2404V36.4289C41.0525 36.2977 41.1031 36.1718 41.1933 36.079C41.2835 35.9862 41.4058 35.934 41.5334 35.934H43.2936C43.4211 35.934 43.5434 35.9862 43.6336 36.079C43.7238 36.1718 43.7745 36.2977 43.7745 36.4289V38.2404ZM48.1477 52.6572C48.149 52.7226 48.1374 52.7875 48.1137 52.8481C48.0899 52.9087 48.0546 52.9638 48.0096 53.01C47.9647 53.0562 47.9112 53.0926 47.8523 53.117C47.7934 53.1414 47.7304 53.1534 47.6669 53.1521H45.9611C45.8976 53.1534 45.8345 53.1414 45.7756 53.117C45.7167 53.0926 45.6632 53.0562 45.6183 53.01C45.5734 52.9638 45.538 52.9087 45.5143 52.8481C45.4906 52.7875 45.479 52.7226 45.4802 52.6572V50.8551C45.479 50.7898 45.4906 50.7249 45.5143 50.6642C45.538 50.6036 45.5734 50.5486 45.6183 50.5024C45.6632 50.4561 45.7167 50.4197 45.7756 50.3953C45.8345 50.3709 45.8976 50.359 45.9611 50.3602H47.7122C47.7757 50.359 47.8388 50.3709 47.8977 50.3953C47.9566 50.4197 48.0101 50.4561 48.055 50.5024C48.0999 50.5486 48.1353 50.6036 48.159 50.6642C48.1828 50.7249 48.1943 50.7898 48.1931 50.8551L48.1477 52.6572ZM48.1477 47.8578C48.1478 47.9224 48.1353 47.9863 48.111 48.0458C48.0867 48.1053 48.0511 48.1593 48.0064 48.2045C47.9616 48.2497 47.9085 48.2853 47.8502 48.3091C47.7919 48.333 47.7296 48.3446 47.6669 48.3434H45.9611C45.8984 48.3446 45.8361 48.333 45.7778 48.3091C45.7195 48.2853 45.6664 48.2497 45.6216 48.2045C45.5768 48.1593 45.5413 48.1053 45.517 48.0458C45.4927 47.9863 45.4802 47.9224 45.4802 47.8578V46.0464C45.479 45.9806 45.4906 45.9153 45.5142 45.8541C45.5378 45.793 45.573 45.7373 45.6178 45.6904C45.6626 45.6435 45.716 45.6062 45.775 45.5807C45.8339 45.5553 45.8972 45.5422 45.9611 45.5422H47.7122C47.8398 45.5422 47.9621 45.5943 48.0523 45.6871C48.1425 45.7799 48.1931 45.9058 48.1931 46.037L48.1477 47.8578ZM48.1477 43.0491C48.1477 43.1803 48.0971 43.3062 48.0069 43.399C47.9167 43.4918 47.7944 43.544 47.6669 43.544H45.9611C45.8336 43.544 45.7112 43.4918 45.6211 43.399C45.5309 43.3062 45.4802 43.1803 45.4802 43.0491V41.2376C45.4802 41.1064 45.5309 40.9805 45.6211 40.8877C45.7112 40.7949 45.8336 40.7428 45.9611 40.7428H47.7122C47.8398 40.7428 47.9621 40.7949 48.0523 40.8877C48.1425 40.9805 48.1931 41.1064 48.1931 41.2376L48.1477 43.0491ZM48.1477 38.2404C48.1477 38.3716 48.0971 38.4975 48.0069 38.5903C47.9167 38.6831 47.7944 38.7352 47.6669 38.7352H45.9611C45.8336 38.7352 45.7112 38.6831 45.6211 38.5903C45.5309 38.4975 45.4802 38.3716 45.4802 38.2404V36.4289C45.4802 36.2977 45.5309 36.1718 45.6211 36.079C45.7112 35.9862 45.8336 35.934 45.9611 35.934H47.7122C47.8398 35.934 47.9621 35.9862 48.0523 36.079C48.1425 36.1718 48.1931 36.2977 48.1931 36.4289L48.1477 38.2404ZM52.5301 52.6572C52.5301 52.7222 52.5177 52.7866 52.4935 52.8466C52.4694 52.9066 52.4339 52.9612 52.3893 53.0072C52.3446 53.0531 52.2916 53.0896 52.2333 53.1144C52.1749 53.1393 52.1124 53.1521 52.0492 53.1521H50.289C50.2259 53.1521 50.1634 53.1393 50.105 53.1144C50.0467 53.0896 49.9937 53.0531 49.949 53.0072C49.9043 52.9612 49.8689 52.9066 49.8448 52.8466C49.8206 52.7866 49.8082 52.7222 49.8082 52.6572V50.8551C49.8082 50.7901 49.8206 50.7258 49.8448 50.6657C49.8689 50.6057 49.9043 50.5511 49.949 50.5052C49.9937 50.4592 50.0467 50.4228 50.105 50.3979C50.1634 50.373 50.2259 50.3602 50.289 50.3602H52.0492C52.1124 50.3602 52.1749 50.373 52.2333 50.3979C52.2916 50.4228 52.3446 50.4592 52.3893 50.5052C52.4339 50.5511 52.4694 50.6057 52.4935 50.6657C52.5177 50.7258 52.5301 50.7901 52.5301 50.8551V52.6572ZM52.5301 47.8578C52.5301 47.9224 52.5176 47.9863 52.4934 48.0458C52.4691 48.1053 52.4335 48.1593 52.3887 48.2045C52.344 48.2497 52.2909 48.2853 52.2326 48.3091C52.1743 48.333 52.112 48.3446 52.0492 48.3434H50.289C50.2263 48.3446 50.164 48.333 50.1057 48.3091C50.0474 48.2853 49.9943 48.2497 49.9495 48.2045C49.9048 48.1593 49.8692 48.1053 49.8449 48.0458C49.8206 47.9863 49.8081 47.9224 49.8082 47.8578V46.0464C49.8082 45.9814 49.8206 45.917 49.8448 45.857C49.8689 45.797 49.9043 45.7424 49.949 45.6965C49.9937 45.6505 50.0467 45.614 50.105 45.5892C50.1634 45.5643 50.2259 45.5515 50.289 45.5515H52.0492C52.1124 45.5515 52.1749 45.5643 52.2333 45.5892C52.2916 45.614 52.3446 45.6505 52.3893 45.6965C52.4339 45.7424 52.4694 45.797 52.4935 45.857C52.5177 45.917 52.5301 45.9814 52.5301 46.0464V47.8578ZM52.5301 43.0491C52.5301 43.1141 52.5177 43.1784 52.4935 43.2385C52.4694 43.2985 52.4339 43.3531 52.3893 43.399C52.3446 43.445 52.2916 43.4814 52.2333 43.5063C52.1749 43.5312 52.1124 43.544 52.0492 43.544H50.289C50.2259 43.544 50.1634 43.5312 50.105 43.5063C50.0467 43.4814 49.9937 43.445 49.949 43.399C49.9043 43.3531 49.8689 43.2985 49.8448 43.2385C49.8206 43.1784 49.8082 43.1141 49.8082 43.0491V41.2376C49.8082 41.1727 49.8206 41.1083 49.8448 41.0483C49.8689 40.9882 49.9043 40.9337 49.949 40.8877C49.9937 40.8418 50.0467 40.8053 50.105 40.7804C50.1634 40.7556 50.2259 40.7428 50.289 40.7428H52.0492C52.1124 40.7428 52.1749 40.7556 52.2333 40.7804C52.2916 40.8053 52.3446 40.8418 52.3893 40.8877C52.4339 40.9337 52.4694 40.9882 52.4935 41.0483C52.5177 41.1083 52.5301 41.1727 52.5301 41.2376V43.0491ZM52.5301 38.2404C52.5301 38.3053 52.5177 38.3697 52.4935 38.4297C52.4694 38.4898 52.4339 38.5443 52.3893 38.5903C52.3446 38.6362 52.2916 38.6727 52.2333 38.6976C52.1749 38.7224 52.1124 38.7352 52.0492 38.7352H50.289C50.2259 38.7352 50.1634 38.7224 50.105 38.6976C50.0467 38.6727 49.9937 38.6362 49.949 38.5903C49.9043 38.5443 49.8689 38.4898 49.8448 38.4297C49.8206 38.3697 49.8082 38.3053 49.8082 38.2404V36.4289C49.8082 36.3639 49.8206 36.2996 49.8448 36.2395C49.8689 36.1795 49.9043 36.1249 49.949 36.079C49.9937 36.033 50.0467 35.9966 50.105 35.9717C50.1634 35.9468 50.2259 35.934 50.289 35.934H52.0492C52.1124 35.934 52.1749 35.9468 52.2333 35.9717C52.2916 35.9966 52.3446 36.033 52.3893 36.079C52.4339 36.1249 52.4694 36.1795 52.4935 36.2395C52.5177 36.2996 52.5301 36.3639 52.5301 36.4289V38.2404Z" fill="white"/>
<path d="M51.6591 26.2512H50.2255V25.5509C50.2232 25.4055 50.166 25.2668 50.0662 25.164C49.9663 25.0612 49.8315 25.0024 49.6902 25H49.3454C49.2026 25 49.0655 25.0577 48.9637 25.1608C48.8618 25.2638 48.8034 25.4039 48.801 25.5509V26.2512H45.4893V25.5509C45.4869 25.4039 45.4285 25.2638 45.3267 25.1608C45.2248 25.0577 45.0877 25 44.9449 25H44.6001C44.4582 25 44.322 25.058 44.2216 25.1614C44.1212 25.2647 44.0648 25.4048 44.0648 25.5509V26.2512H40.7168V25.5509C40.7144 25.4055 40.6573 25.2668 40.5574 25.164C40.4575 25.0612 40.3227 25.0024 40.1815 25H39.8367C39.6939 25 39.5567 25.0577 39.4549 25.1608C39.3531 25.2638 39.2947 25.4039 39.2923 25.5509V26.2512H35.8898V25.5509C35.8874 25.4039 35.829 25.2638 35.7272 25.1608C35.6254 25.0577 35.4883 25 35.3454 25H35.0006C34.8594 25.0024 34.7246 25.0612 34.6247 25.164C34.5248 25.2668 34.4677 25.4055 34.4653 25.5509V26.2512H31.1808V25.5509C31.1784 25.4039 31.12 25.2638 31.0182 25.1608C30.9164 25.0577 30.7792 25 30.6364 25H30.2916C30.1504 25.0024 30.0156 25.0612 29.9157 25.164C29.8158 25.2668 29.7587 25.4055 29.7563 25.5509V26.2512H28.3409C27.7208 26.2537 27.1268 26.5083 26.6883 26.9595C26.2498 27.4108 26.0024 28.0221 26 28.6602V32.8994H54V28.6602C53.9976 28.0221 53.7502 27.4108 53.3117 26.9595C52.8732 26.5083 52.2792 26.2537 51.6591 26.2512ZM30.9358 29.9021C30.7833 29.9796 30.6159 30.021 30.4459 30.0235C30.1577 30.0188 29.8825 29.8995 29.6778 29.6906C29.4732 29.4818 29.355 29.1995 29.348 28.903C29.3441 28.7385 29.3773 28.5754 29.445 28.4263C29.5127 28.2773 29.6131 28.1464 29.7382 28.044V28.6416C29.7382 28.7877 29.7946 28.9278 29.895 29.0311C29.9954 29.1344 30.1315 29.1925 30.2735 29.1925H30.6183C30.6893 29.1937 30.7599 29.1804 30.8259 29.1532C30.8919 29.1261 30.952 29.0857 31.0027 29.0345C31.0534 28.9832 31.0936 28.922 31.1211 28.8546C31.1485 28.7871 31.1627 28.7147 31.1627 28.6416V28.016C31.2829 28.1242 31.3791 28.2578 31.4448 28.4076C31.5106 28.5574 31.5443 28.72 31.5437 28.8843C31.546 29.0957 31.4902 29.3035 31.3826 29.4836C31.275 29.6636 31.1201 29.8088 30.9358 29.9021ZM35.2366 30.0048C34.9736 30.0005 34.7208 29.8991 34.5243 29.7192C34.3278 29.5393 34.2007 29.2927 34.1659 29.0244C34.1659 28.9684 34.1659 28.9217 34.1659 28.8657C34.1646 28.7152 34.1937 28.566 34.2515 28.4278C34.3094 28.2895 34.3945 28.1651 34.5016 28.0627V28.6229C34.5016 28.769 34.558 28.9091 34.6584 29.0124C34.7588 29.1158 34.895 29.1738 35.0369 29.1738H35.3817C35.4528 29.175 35.5234 29.1617 35.5894 29.1346C35.6554 29.1074 35.7155 29.0671 35.7661 29.0158C35.8168 28.9645 35.8571 28.9033 35.8845 28.8359C35.912 28.7684 35.9261 28.696 35.9261 28.6229V27.9693L36.0622 28.1C36.1974 28.2611 36.2856 28.4581 36.3167 28.6685C36.3478 28.8789 36.3205 29.094 36.2381 29.2891C36.1556 29.4843 36.0212 29.6515 35.8505 29.7715C35.6797 29.8915 35.4795 29.9594 35.2728 29.9675L35.2366 30.0048ZM40.0726 30.0048H39.9637C39.6755 30.0001 39.4003 29.8808 39.1957 29.6719C38.991 29.4631 38.8728 29.1809 38.8658 28.8843C38.8542 28.7043 38.8872 28.5241 38.9618 28.3607C39.0364 28.1974 39.1501 28.0563 39.2923 27.9506V28.5762C39.2923 28.6493 39.3064 28.7218 39.3339 28.7892C39.3614 28.8567 39.4016 28.9178 39.4523 28.9691C39.5029 29.0204 39.563 29.0608 39.629 29.0879C39.695 29.115 39.7656 29.1283 39.8367 29.1271H40.1815C40.3234 29.1271 40.4596 29.0691 40.56 28.9658C40.6604 28.8624 40.7168 28.7223 40.7168 28.5762V28.0253C40.8337 28.1337 40.9273 28.2662 40.9914 28.4142C41.0554 28.5622 41.0886 28.7223 41.0888 28.8843C41.0894 29.169 40.9847 29.4432 40.796 29.6514C40.6072 29.8595 40.3486 29.9858 40.0726 30.0048ZM45.571 29.6687C45.4402 29.8266 45.2663 29.9404 45.0719 29.9955C44.9725 30.0292 44.8681 30.045 44.7634 30.0422C44.5898 30.0463 44.4179 30.0045 44.2644 29.9208C44.0859 29.8259 43.9358 29.6827 43.8303 29.5067C43.7248 29.3307 43.6679 29.1285 43.6656 28.9217C43.6548 28.708 43.7157 28.4971 43.838 28.3241C43.8985 28.2215 43.9751 28.13 44.0648 28.0533V28.6602C44.0636 28.7329 44.0766 28.8051 44.1031 28.8725C44.1295 28.94 44.1689 29.0012 44.2189 29.0526C44.2688 29.104 44.3283 29.1445 44.3938 29.1718C44.4593 29.199 44.5295 29.2124 44.6001 29.2111H44.9449C45.016 29.2124 45.0866 29.199 45.1526 29.1719C45.2186 29.1448 45.2786 29.1044 45.3293 29.0531C45.38 29.0018 45.4202 28.9407 45.4477 28.8732C45.4752 28.8058 45.4893 28.7334 45.4893 28.6602V28.0346C45.5965 28.1307 45.6839 28.248 45.7463 28.3796C45.8086 28.5111 45.8447 28.6542 45.8522 28.8003C45.8522 28.8003 45.8522 28.8563 45.8522 28.8843C45.862 29.0281 45.842 29.1724 45.7935 29.3076C45.745 29.4428 45.6691 29.5659 45.571 29.6687ZM50.2074 29.7901C50.124 29.8651 50.0289 29.9251 49.9261 29.9675C49.8011 30.0147 49.6692 30.0399 49.536 30.0422C49.3993 30.0462 49.2633 30.0208 49.1367 29.9675C48.9302 29.8867 48.7522 29.7436 48.6259 29.5571C48.4997 29.3705 48.431 29.149 48.429 28.9217C48.429 28.9217 48.429 28.847 48.429 28.8096C48.4379 28.6937 48.4655 28.5801 48.5107 28.4735C48.5747 28.3201 48.6707 28.183 48.792 28.072V28.6602C48.792 28.7334 48.8061 28.8058 48.8336 28.8732C48.861 28.9407 48.9013 29.0018 48.9519 29.0531C49.0026 29.1044 49.0627 29.1448 49.1287 29.1719C49.1947 29.199 49.2653 29.2124 49.3364 29.2111H49.6811C49.8231 29.2111 49.9593 29.1531 50.0597 29.0498C50.1601 28.9465 50.2165 28.8063 50.2165 28.6602V28.016C50.4133 28.1857 50.5478 28.4197 50.5975 28.6789C50.6024 28.7473 50.6024 28.816 50.5975 28.8843C50.6051 29.0507 50.5736 29.2165 50.5056 29.3676C50.4377 29.5188 50.3354 29.6509 50.2074 29.7527V29.7901Z" fill="white"/>
</g>
<defs>
<clipPath id="clip0_26_2">
<rect width="28" height="31" fill="white" transform="translate(26 25)"/>
</clipPath>
</defs>
</svg>
