<svg width="32" height="36" viewBox="0 0 32 36" fill="none" xmlns="http://www.w3.org/2000/svg">
<path d="M26.904 33.2243H25.404C27.5309 31.8209 29.2043 29.8297 30.2206 27.493C31.2369 25.1562 31.5523 22.5744 31.1286 20.0617C30.7049 17.5489 29.5602 15.2134 27.8338 13.3391C26.1074 11.4649 23.8735 10.1326 21.404 9.5043L23.884 4.81424C24.0216 4.54739 24.0483 4.23705 23.9584 3.95059C23.8686 3.66413 23.6693 3.42477 23.404 3.28433L17.484 0.414337C17.2113 0.304759 16.9067 0.304759 16.634 0.414337C16.3504 0.52681 16.1188 0.740626 15.984 1.01431L8.98401 14.3042C8.84789 14.5706 8.76576 14.8614 8.74237 15.1597C8.71899 15.458 8.75479 15.7579 8.84772 16.0423C8.94065 16.3266 9.08887 16.5898 9.28387 16.8167C9.47888 17.0436 9.71684 17.2297 9.98401 17.3643L8.98401 19.3643L12.984 21.2743L13.984 19.2743C14.2557 19.3977 14.549 19.4661 14.8472 19.4755C15.1454 19.4849 15.4425 19.4352 15.7214 19.3293C16.0003 19.2233 16.2555 19.0632 16.4722 18.8581C16.6889 18.653 16.8629 18.407 16.984 18.1343L19.364 13.6143C21.5858 13.8754 23.6233 14.9776 25.0577 16.6945C26.492 18.4113 27.2143 20.6125 27.076 22.8454C26.9377 25.0783 25.9494 27.1733 24.3142 28.7001C22.679 30.2269 20.5211 31.0692 18.284 31.0542C15.9119 31.0528 13.6038 30.2847 11.704 28.8643V27.7643C11.704 27.6203 11.7325 27.4778 11.7879 27.3449C11.8433 27.212 11.9245 27.0914 12.0267 26.99C12.129 26.8887 12.2504 26.8086 12.3838 26.7544C12.5172 26.7002 12.66 26.673 12.804 26.6743H18.144V24.4743H0.583984V26.6743H6.06396C6.20794 26.673 6.35079 26.7002 6.48419 26.7544C6.61759 26.8086 6.73891 26.8887 6.84119 26.99C6.94346 27.0914 7.02468 27.212 7.08008 27.3449C7.13548 27.4778 7.16401 27.6203 7.164 27.7643V33.2543C4.734 33.2543 2.77399 33.0242 2.77399 35.4442H31.294C31.294 32.9942 29.324 33.2243 26.904 33.2243ZM19.224 3.22427C18.9163 3.37869 18.6697 3.63233 18.524 3.94424L13.524 13.4643L11.594 12.5343C11.6187 12.3872 11.6589 12.243 11.714 12.1043L16.534 3.17435C16.6651 2.89571 16.8976 2.67745 17.184 2.56424C17.3184 2.50731 17.463 2.47806 17.609 2.47806C17.755 2.47806 17.8995 2.50731 18.034 2.56424L19.304 3.18423L19.224 3.22427Z" fill="#3E5973"/>
</svg>
