<svg width="80" height="81" viewBox="0 0 80 81" fill="none" xmlns="http://www.w3.org/2000/svg">
<path d="M80 40.5C80 62.5914 62.0914 80.5 40 80.5C17.9086 80.5 0 62.5914 0 40.5C0 18.4086 17.9086 0.5 40 0.5C62.0914 0.5 80 18.4086 80 40.5Z" fill="#445971"/>
<path d="M27.4731 41.5211H27.3178L24.4446 35.3477L22.1539 35.9379L24.7941 41.5211H20.1271V45.1941H46.2652V41.5211H38.298L41.8467 36.4892L39.8743 35.3477L35.5801 41.5211" fill="white"/>
<path d="M51.1496 48.4711C51.0675 48.4867 50.9832 48.4867 50.9011 48.4711C50.7116 48.4025 50.5562 48.2628 50.4679 48.0817C50.3795 47.9005 50.365 47.6921 50.4274 47.5005L54.9158 34.6256L57.7656 33.4763L63.7605 42.4608C63.8681 42.6307 63.9055 42.8357 63.8649 43.0327C63.8244 43.2297 63.709 43.4032 63.5431 43.5169C63.3747 43.6228 63.1721 43.6602 62.9771 43.6212C62.782 43.5821 62.6094 43.4698 62.4947 43.3072L57.1832 35.34L56.1272 35.7593L51.864 47.9664C51.8094 48.1126 51.7121 48.2389 51.5846 48.3289C51.4572 48.419 51.3056 48.4685 51.1496 48.4711Z" fill="white"/>
<path d="M51.3981 46.6696C51.5278 46.6696 51.6523 46.7211 51.744 46.8129C51.8358 46.9046 51.8873 47.0291 51.8873 47.1588C51.8873 47.2886 51.8358 47.413 51.744 47.5047C51.6523 47.5965 51.5278 47.648 51.3981 47.648C51.2683 47.648 51.1439 47.5965 51.0522 47.5047C50.9604 47.413 50.9089 47.2886 50.9089 47.1588C50.9089 47.0291 50.9604 46.9046 51.0522 46.8129C51.1439 46.7211 51.2683 46.6696 51.3981 46.6696ZM51.3981 45.8232C51.1336 45.8216 50.8746 45.8987 50.6539 46.0445C50.4333 46.1903 50.2609 46.3984 50.1586 46.6423C50.0563 46.8862 50.0288 47.155 50.0794 47.4146C50.1301 47.6742 50.2567 47.9129 50.4431 48.1005C50.6296 48.288 50.8676 48.416 51.1269 48.4682C51.3862 48.5204 51.6551 48.4944 51.8996 48.3935C52.1442 48.2926 52.3532 48.1215 52.5003 47.9017C52.6474 47.6818 52.726 47.4233 52.726 47.1588C52.726 46.8059 52.5863 46.4674 52.3375 46.2171C52.0887 45.9668 51.751 45.8252 51.3981 45.8232Z" fill="white"/>
<path d="M55.5836 36.1243C55.4017 36.1258 55.2235 36.0732 55.0716 35.9731C54.9197 35.873 54.8011 35.73 54.7308 35.5622C54.6605 35.3945 54.6417 35.2096 54.6768 35.0311C54.7119 34.8526 54.7993 34.6887 54.9279 34.5601C55.0565 34.4314 55.2205 34.344 55.399 34.3089C55.5775 34.2738 55.7623 34.2926 55.9301 34.3629C56.0978 34.4332 56.2409 34.5519 56.3409 34.7037C56.441 34.8556 56.4937 35.0338 56.4921 35.2157C56.4921 35.4567 56.3964 35.6878 56.226 35.8582C56.0556 36.0285 55.8245 36.1243 55.5836 36.1243Z" fill="white"/>
<path d="M55.5835 34.7265C55.7133 34.7265 55.8377 34.778 55.9295 34.8698C56.0212 34.9615 56.0727 35.0859 56.0727 35.2157C56.0727 35.3454 56.0212 35.4699 55.9295 35.5616C55.8377 35.6534 55.7133 35.7049 55.5835 35.7049C55.4538 35.7049 55.3294 35.6534 55.2376 35.5616C55.1459 35.4699 55.0943 35.3454 55.0943 35.2157C55.0943 35.0859 55.1459 34.9615 55.2376 34.8698C55.3294 34.778 55.4538 34.7265 55.5835 34.7265ZM55.5835 33.8801C55.3194 33.8801 55.0611 33.9584 54.8415 34.1052C54.6218 34.2519 54.4507 34.4605 54.3496 34.7046C54.2485 34.9486 54.222 35.2172 54.2736 35.4763C54.3251 35.7354 54.4523 35.9733 54.6391 36.1601C54.8259 36.3469 55.0639 36.4741 55.323 36.5257C55.5821 36.5772 55.8506 36.5508 56.0947 36.4497C56.3387 36.3486 56.5473 36.1774 56.6941 35.9577C56.8408 35.7381 56.9192 35.4799 56.9192 35.2157C56.9233 35.0377 56.8918 34.8607 56.8266 34.695C56.7613 34.5294 56.6636 34.3784 56.5391 34.2511C56.4147 34.1238 56.266 34.0226 56.1019 33.9536C55.9378 33.8845 55.7616 33.849 55.5835 33.849" fill="white"/>
<path d="M57.5094 35.3166C57.3297 35.3166 57.154 35.2633 57.0046 35.1635C56.8552 35.0637 56.7388 34.9218 56.67 34.7558C56.6012 34.5898 56.5832 34.4071 56.6183 34.2308C56.6533 34.0546 56.7399 33.8927 56.8669 33.7656C56.994 33.6386 57.1559 33.5521 57.3321 33.517C57.5084 33.4819 57.691 33.4999 57.8571 33.5687C58.0231 33.6375 58.165 33.7539 58.2648 33.9033C58.3646 34.0527 58.4179 34.2284 58.4179 34.4081C58.4179 34.5274 58.3944 34.6455 58.3488 34.7558C58.3031 34.866 58.2362 34.9662 58.1518 35.0505C58.0674 35.1349 57.9673 35.2018 57.8571 35.2475C57.7468 35.2931 57.6287 35.3166 57.5094 35.3166Z" fill="white"/>
<path d="M57.5094 33.0725C57.2449 33.071 56.9859 33.148 56.7652 33.2938C56.5446 33.4396 56.3722 33.6477 56.2699 33.8916C56.1676 34.1355 56.1401 34.4043 56.1907 34.6639C56.2414 34.9235 56.368 35.1622 56.5544 35.3498C56.7409 35.5374 56.9789 35.6653 57.2382 35.7175C57.4975 35.7697 57.7664 35.7437 58.0109 35.6428C58.2554 35.542 58.4645 35.3708 58.6116 35.151C58.7587 34.9312 58.8373 34.6726 58.8373 34.4081C58.8373 34.0552 58.6976 33.7167 58.4488 33.4664C58.2 33.2162 57.8623 33.0746 57.5094 33.0725ZM57.5094 34.8974C57.4123 34.8989 57.317 34.8715 57.2355 34.8187C57.154 34.7659 57.0901 34.69 57.0519 34.6008C57.0137 34.5116 57.0029 34.413 57.0209 34.3175C57.0389 34.2221 57.0848 34.1342 57.1529 34.0651C57.221 33.9959 57.3082 33.9485 57.4033 33.929C57.4984 33.9095 57.5972 33.9187 57.687 33.9555C57.7768 33.9923 57.8537 34.0549 57.9078 34.1356C57.9619 34.2162 57.9908 34.3111 57.9908 34.4081C57.9909 34.5366 57.9404 34.6598 57.8503 34.7514C57.7602 34.8429 57.6378 34.8953 57.5094 34.8974Z" fill="white"/>
<path d="M63.2014 46.3512C63.0441 46.3512 62.8913 46.2993 62.7665 46.2036L60.7242 44.7205L61.5007 42.9111C61.6048 42.7651 61.7562 42.6595 61.9293 42.6124C62.1023 42.5653 62.2863 42.5796 62.45 42.6528C62.6138 42.7259 62.7471 42.8535 62.8275 43.0139C62.9078 43.1742 62.9301 43.3574 62.8907 43.5324L62.5879 44.208L63.6129 44.9379C63.7747 45.0575 63.8838 45.2353 63.9171 45.4337C63.9504 45.6322 63.9054 45.8358 63.7915 46.0017C63.7265 46.1013 63.6394 46.1846 63.5371 46.2452C63.4348 46.3057 63.3199 46.342 63.2014 46.3512Z" fill="white"/>
<path d="M65.531 44.5962C65.3736 44.5952 65.2203 44.5463 65.0914 44.4562C64.9624 44.3661 64.8639 44.2389 64.8088 44.0915L64.3972 42.8956L63.6673 42.9966C63.4895 42.9835 63.3217 42.9096 63.1919 42.7873C63.0622 42.6651 62.9785 42.502 62.9548 42.3253C62.9311 42.1486 62.9689 41.9692 63.0619 41.8171C63.1549 41.665 63.2973 41.5496 63.4654 41.4901L65.4222 41.2261L66.2454 43.5557C66.3082 43.7463 66.2948 43.9539 66.208 44.1349C66.1211 44.3158 65.9675 44.4561 65.7795 44.5263C65.7015 44.5644 65.6173 44.588 65.531 44.5962Z" fill="white"/>
<path d="M62.8286 43.2839H62.6966C62.4584 43.2474 62.2438 43.1192 62.0987 42.9267C62.0256 42.8317 61.9727 42.7228 61.9433 42.6066C61.914 42.4904 61.9087 42.3694 61.9279 42.2511C61.9596 42.035 62.0681 41.8376 62.2335 41.695C62.399 41.5524 62.6102 41.4741 62.8286 41.4746H62.9607C63.1989 41.5111 63.4135 41.6393 63.5586 41.8318C63.6588 41.9677 63.7194 42.1287 63.7339 42.2969C63.7483 42.4652 63.716 42.6341 63.6405 42.7852C63.565 42.9362 63.4492 43.0634 63.3059 43.1528C63.1627 43.2422 62.9975 43.2902 62.8286 43.2917" fill="white"/>
<path d="M62.8286 41.8861H62.8985C62.9623 41.8956 63.0237 41.9176 63.0789 41.9509C63.1342 41.9842 63.1824 42.0281 63.2206 42.08C63.2589 42.132 63.2865 42.191 63.3018 42.2537C63.3172 42.3164 63.32 42.3815 63.3101 42.4452C63.2916 42.5598 63.2331 42.6641 63.1449 42.7394C63.0567 42.8148 62.9446 42.8564 62.8286 42.8568H62.7587C62.6953 42.8477 62.6344 42.8257 62.5796 42.7924C62.5249 42.759 62.4775 42.7149 62.4403 42.6627C62.3991 42.6139 62.3693 42.5565 62.3532 42.4946C62.337 42.4328 62.335 42.3682 62.3472 42.3055C62.3639 42.1895 62.4217 42.0834 62.5101 42.0064C62.5984 41.9295 62.7114 41.8868 62.8286 41.8861ZM62.8286 41.0397C62.4928 41.0419 62.1701 41.1706 61.9248 41.4C61.6796 41.6295 61.5298 41.943 61.5053 42.2779C61.4808 42.6129 61.5834 42.9448 61.7927 43.2075C62.002 43.4702 62.3025 43.6444 62.6345 43.6954H62.8286C63.1736 43.7093 63.5103 43.5882 63.7675 43.3579C64.0247 43.1276 64.1821 42.8062 64.2063 42.4619C64.2306 42.1175 64.1197 41.7772 63.8973 41.5132C63.6749 41.2492 63.3585 41.0821 63.015 41.0475C62.9531 41.04 62.8905 41.04 62.8286 41.0475" fill="white"/>
<path d="M54.0228 27.6367H46.669V28.0483H19.7155V52.9595H47.8959V53.3633H49.1229L54.8381 51.0337V48.4634H53.6112V47.4461L51.336 46.9413L49.1229 47.4461V48.3857L46.6768 45.5824V35.604L53.6656 33.8412C54.4965 33.5927 55.2186 33.1346 55.2186 32.2882V29.3451C55.2167 28.9255 55.0507 28.5232 54.7562 28.2243C54.4616 27.9254 54.0618 27.7536 53.6423 27.7454M21.3463 36.6212H45.4188V45.2019H21.3463V36.6212ZM30.7423 52.1519H21.3463V46.4211H30.7423V52.1519ZM34.8269 52.1519H31.9692V47.648H34.8269V52.1519ZM43.8114 52.1519H36.0227V47.648H43.7881L43.8114 52.1519ZM46.9175 47.6558L47.8571 48.8904V52.1519H45.0383V47.648L46.9175 47.6558ZM53.6112 31.8921C53.495 31.9539 53.3727 32.0034 53.2462 32.0397L46.669 33.7092V29.2675H53.6112V31.8921Z" fill="white"/>
</svg>
