<svg width="61" height="34" viewBox="0 0 61 34" fill="none" xmlns="http://www.w3.org/2000/svg">
<path d="M10.5936 18.2443H10.3936L6.68353 10.2943L3.74353 11.0542L7.14355 18.2443H1.12354V22.9843H34.7836V18.2443H24.5336L29.1036 11.7643L26.5535 10.2943L21.0336 18.2443" fill="#5D808F"/>
<path d="M41.0733 27.1942C40.9674 27.2127 40.8592 27.2127 40.7533 27.1942C40.5111 27.1038 40.3134 26.9232 40.2015 26.6902C40.0896 26.4571 40.0724 26.1897 40.1533 25.9442L45.9333 9.38428L49.6033 7.9342L57.3133 19.5043C57.4528 19.7219 57.5026 19.9851 57.4523 20.2386C57.4019 20.4922 57.2554 20.7164 57.0433 20.8643C56.8266 21.0007 56.5657 21.0488 56.3145 20.9985C56.0633 20.9483 55.8409 20.8036 55.6933 20.5942L48.8533 10.3342L47.4833 10.8743L42.0033 26.5942C41.9246 26.7747 41.7944 26.9279 41.6289 27.0347C41.4635 27.1414 41.2702 27.1969 41.0733 27.1942Z" fill="#5D808F"/>
<path d="M41.3933 24.8743C41.5183 24.8723 41.6411 24.9076 41.7461 24.9756C41.851 25.0436 41.9332 25.1412 41.9824 25.2561C42.0317 25.371 42.0456 25.4981 42.0224 25.621C41.9993 25.7438 41.9401 25.8569 41.8524 25.946C41.7647 26.0352 41.6525 26.0962 41.53 26.1213C41.4075 26.1465 41.2803 26.1345 41.1646 26.0872C41.0489 26.0398 40.95 25.959 40.8803 25.8552C40.8106 25.7514 40.7734 25.6293 40.7733 25.5043C40.7733 25.3389 40.8383 25.1801 40.9543 25.0623C41.0703 24.9444 41.228 24.8769 41.3933 24.8743ZM41.3933 23.7843C41.0532 23.7843 40.7206 23.8851 40.4378 24.0741C40.1549 24.2631 39.9345 24.5318 39.8043 24.8461C39.6741 25.1604 39.64 25.5062 39.7064 25.8398C39.7728 26.1735 39.9365 26.4799 40.1771 26.7205C40.4176 26.961 40.7241 27.1248 41.0578 27.1912C41.3914 27.2575 41.7372 27.2236 42.0515 27.0934C42.3658 26.9632 42.6345 26.7427 42.8234 26.4598C43.0124 26.177 43.1133 25.8445 43.1133 25.5043C43.1133 25.0481 42.9321 24.6106 42.6096 24.2881C42.287 23.9655 41.8495 23.7843 41.3933 23.7843Z" fill="#5D808F"/>
<path d="M46.7935 11.2943C46.5593 11.2963 46.3297 11.2285 46.1341 11.0996C45.9386 10.9707 45.7858 10.7865 45.6952 10.5704C45.6047 10.3544 45.5805 10.1163 45.6257 9.88647C45.6709 9.65665 45.7835 9.44553 45.9491 9.2799C46.1148 9.11428 46.3259 9.00175 46.5558 8.95654C46.7856 8.91133 47.0236 8.93545 47.2397 9.026C47.4557 9.11655 47.6399 9.26939 47.7688 9.46496C47.8977 9.66054 47.9655 9.89004 47.9635 10.1243C47.9609 10.4338 47.8368 10.7299 47.6179 10.9487C47.399 11.1676 47.103 11.2917 46.7935 11.2943Z" fill="#5D808F"/>
<path d="M46.7933 9.49426C46.876 9.49426 46.9579 9.51058 47.0343 9.54224C47.1108 9.5739 47.1802 9.62033 47.2387 9.67883C47.2972 9.73733 47.3436 9.80674 47.3753 9.88318C47.4069 9.95961 47.4233 10.0415 47.4233 10.1243C47.4207 10.2906 47.3535 10.4493 47.2359 10.5669C47.1183 10.6845 46.9595 10.7517 46.7933 10.7543C46.6262 10.7543 46.4659 10.6878 46.3478 10.5697C46.2296 10.4516 46.1632 10.2914 46.1632 10.1243C46.1632 10.0415 46.1795 9.95961 46.2112 9.88318C46.2428 9.80674 46.2893 9.73733 46.3478 9.67883C46.4063 9.62033 46.4757 9.5739 46.5522 9.54224C46.6286 9.51058 46.7105 9.49426 46.7933 9.49426ZM46.7933 8.4043C46.4531 8.4043 46.1205 8.5051 45.8376 8.69409C45.5548 8.88309 45.3343 9.15178 45.2041 9.46606C45.074 9.78035 45.0399 10.1262 45.1063 10.4598C45.1727 10.7935 45.3365 11.0999 45.577 11.3405C45.8176 11.581 46.124 11.7448 46.4577 11.8112C46.7913 11.8775 47.1372 11.8436 47.4515 11.7134C47.7657 11.5832 48.0344 11.3627 48.2234 11.0798C48.4124 10.797 48.5132 10.4645 48.5132 10.1243C48.5132 9.6681 48.332 9.23064 48.0094 8.90808C47.6869 8.58552 47.2494 8.4043 46.7933 8.4043Z" fill="#5D808F"/>
<path d="M49.2635 10.2543C49.0326 10.2523 48.8073 10.182 48.6162 10.0523C48.4252 9.92253 48.2768 9.73914 48.1897 9.52518C48.1027 9.31123 48.081 9.07631 48.1272 8.85001C48.1735 8.62372 48.2857 8.41608 48.4497 8.25345C48.6138 8.09082 48.8222 7.98041 49.0489 7.93607C49.2756 7.89173 49.5103 7.91547 49.7235 8.00431C49.9368 8.09315 50.1189 8.24316 50.247 8.43534C50.3752 8.62752 50.4435 8.85329 50.4435 9.08426C50.4435 9.23876 50.413 9.39173 50.3535 9.53434C50.2941 9.67694 50.207 9.80642 50.0973 9.9152C49.9876 10.024 49.8574 10.1099 49.7143 10.1681C49.5712 10.2263 49.418 10.2556 49.2635 10.2543Z" fill="#5D808F"/>
<path d="M49.2635 7.36429C48.9233 7.36429 48.5907 7.46521 48.3079 7.6542C48.025 7.8432 47.8046 8.11177 47.6744 8.42605C47.5442 8.74034 47.5101 9.08618 47.5765 9.41983C47.6429 9.75348 47.8067 10.06 48.0472 10.3006C48.2878 10.5411 48.5942 10.7049 48.9279 10.7713C49.2615 10.8376 49.6074 10.8036 49.9217 10.6734C50.2359 10.5432 50.5046 10.3227 50.6936 10.0398C50.8826 9.75697 50.9835 9.42444 50.9835 9.08426C50.9848 8.85801 50.9412 8.63375 50.8552 8.42447C50.7693 8.21519 50.6426 8.02512 50.4826 7.86514C50.3226 7.70516 50.1325 7.57843 49.9232 7.49246C49.714 7.40649 49.4897 7.36296 49.2635 7.36429ZM49.2635 9.71426C49.1388 9.71426 49.0171 9.67729 48.9135 9.60806C48.8099 9.53884 48.7291 9.44046 48.6814 9.32535C48.6337 9.21023 48.6212 9.08354 48.6455 8.96133C48.6698 8.83913 48.7298 8.72693 48.818 8.63882C48.9061 8.55072 49.0183 8.49065 49.1405 8.46634C49.2627 8.44203 49.3894 8.45454 49.5045 8.50223C49.6197 8.54991 49.718 8.63068 49.7873 8.73428C49.8565 8.83789 49.8935 8.95966 49.8935 9.08426C49.8935 9.25134 49.8271 9.41167 49.7089 9.52981C49.5908 9.64796 49.4305 9.71426 49.2635 9.71426Z" fill="#5D808F"/>
<path d="M56.6036 24.4643C56.3986 24.4609 56.1996 24.3946 56.0336 24.2743L53.4136 22.4043L54.4136 20.0743C54.5498 19.8925 54.7438 19.7625 54.9638 19.7057C55.1838 19.6489 55.4166 19.6686 55.6238 19.7618C55.831 19.8549 56.0003 20.0159 56.1039 20.2181C56.2074 20.4203 56.2391 20.6517 56.1935 20.8743L55.8135 21.7443L57.1335 22.6843C57.3419 22.8383 57.4824 23.0672 57.5253 23.3228C57.5682 23.5784 57.5102 23.8406 57.3635 24.0542C57.2755 24.175 57.1616 24.2747 57.0301 24.3456C56.8986 24.4166 56.7528 24.4571 56.6036 24.4643Z" fill="#5D808F"/>
<path d="M59.6136 22.2042C59.4127 22.2008 59.2176 22.1371 59.0535 22.0211C58.8894 21.9052 58.764 21.7424 58.6937 21.5542L58.1537 20.0143L57.2237 20.1443C56.9674 20.1731 56.7099 20.1018 56.5049 19.9453C56.2999 19.7888 56.1633 19.559 56.1236 19.3042C56.0945 19.0494 56.1645 18.7932 56.319 18.5885C56.4734 18.3838 56.7007 18.2462 56.9537 18.2042L59.4737 17.8643L60.5437 20.8643C60.6241 21.111 60.6054 21.3794 60.4916 21.6127C60.3777 21.8459 60.1777 22.0258 59.9336 22.1143C59.8338 22.1648 59.7251 22.1953 59.6136 22.2042Z" fill="#5D808F"/>
<path d="M56.1433 20.5143H55.9734C55.6659 20.4672 55.3891 20.3017 55.2022 20.0531C55.0153 19.8045 54.9332 19.4926 54.9734 19.1842C55.0181 18.9076 55.1589 18.6558 55.3711 18.4729C55.5832 18.29 55.8532 18.1877 56.1333 18.1842H56.3033C56.589 18.236 56.8455 18.3913 57.0239 18.6204C57.2023 18.8494 57.2899 19.1361 57.2701 19.4258C57.2503 19.7154 57.1244 19.9877 56.9165 20.1903C56.7086 20.393 56.4334 20.5119 56.1433 20.5243" fill="#5D808F"/>
<path d="M56.1436 18.7142H56.2436C56.397 18.7414 56.5349 18.8246 56.6306 18.9475C56.7264 19.0704 56.7732 19.2244 56.762 19.3798C56.7508 19.5352 56.6824 19.681 56.5701 19.7889C56.4577 19.8969 56.3094 19.9593 56.1536 19.9642H56.0636C55.9107 19.9376 55.773 19.8554 55.677 19.7334C55.5809 19.6114 55.5332 19.4583 55.5432 19.3033C55.5531 19.1484 55.6198 19.0026 55.7307 18.8939C55.8415 18.7852 55.9885 18.7212 56.1436 18.7142ZM56.1436 17.6243C55.7119 17.6295 55.2979 17.7968 54.9839 18.0931C54.6699 18.3895 54.4788 18.7931 54.4486 19.2238C54.4183 19.6544 54.5512 20.0807 54.8208 20.418C55.0903 20.7552 55.4769 20.9789 55.9036 21.0443H56.1436C56.5878 21.0621 57.0215 20.9062 57.3527 20.6096C57.6839 20.3131 57.8866 19.8992 57.9178 19.4557C57.949 19.0122 57.8063 18.574 57.5199 18.234C57.2335 17.894 56.8259 17.6789 56.3836 17.6343C56.3006 17.6244 56.2167 17.6244 56.1336 17.6343" fill="#5D808F"/>
<path d="M44.7835 0.364258H35.3135V0.894287H0.603516V32.9742H36.8935V33.4943H38.4635L45.8335 30.4943V27.1842H44.2535V25.8743L41.3235 25.2242L38.4635 25.8743V27.0842L35.3235 23.4742V10.6243L44.3235 8.35425C45.3935 8.03425 46.3235 7.44425 46.3235 6.35425V2.60425C46.3209 2.05871 46.103 1.53627 45.7172 1.15051C45.3315 0.764756 44.809 0.546941 44.2635 0.544312M2.67352 11.9742H33.6735V22.9742H2.67352V11.9742ZM14.7735 31.9742H2.67352V24.6042H14.7735V31.9742ZM20.0335 31.9742H16.3535V26.1842H20.0335V31.9742ZM31.6035 31.9742H21.6035V26.1842H31.6035V31.9742ZM35.6035 26.1842L36.8235 27.7743V31.9742H33.1435V26.1842H35.6035ZM44.1835 5.89429C44.0339 5.97383 43.8764 6.03746 43.7135 6.08423L35.2435 8.23425V2.51428H44.1835V5.89429Z" fill="#5D808F"/>
</svg>
