<svg width="80" height="81" viewBox="0 0 80 81" fill="none" xmlns="http://www.w3.org/2000/svg">
<path d="M80 40.5C80 62.5914 62.0914 80.5 40 80.5C17.9086 80.5 0 62.5914 0 40.5C0 18.4086 17.9086 0.5 40 0.5C62.0914 0.5 80 18.4086 80 40.5Z" fill="#445971"/>
<g clip-path="url(#clip0_26_31)">
<path d="M31.8358 37.5382C33.0671 37.6818 34.3134 37.6608 35.5387 37.4761C35.6202 37.4761 35.7099 37.3672 35.7752 37.305C36.388 36.6303 37.1027 36.0461 37.8957 35.5715H36.5745C36.2401 35.5715 35.8975 35.3461 35.5631 35.4938C34.2545 36.0736 32.9995 36.7575 31.8113 37.5382M48.1887 37.6082C47.0124 36.8378 45.7742 36.1568 44.4858 35.5715C44.3771 35.5209 44.2542 35.5046 44.1351 35.5249C43.4823 35.6435 42.816 35.6801 42.1532 35.6337C42.9271 36.102 43.6273 36.6725 44.233 37.3284C44.3064 37.4139 44.4124 37.5227 44.5103 37.5305C45.7365 37.7027 46.9807 37.7262 48.2131 37.6004M36.3624 35.2062V35.3849C38.7811 35.1712 41.2137 35.14 43.6376 35.2917C42.4957 34.6698 41.3621 34.1412 40.2202 33.6048C40.1493 33.5666 40.0692 33.5466 39.9878 33.5466C39.9063 33.5466 39.8263 33.5666 39.7553 33.6048L36.3624 35.2062ZM36.5337 31.3193L39.7553 33.014C39.8109 33.0561 39.8772 33.0833 39.9474 33.0928C40.0176 33.1024 40.0893 33.094 40.155 33.0684L43.4826 31.3193C42.3734 30.713 41.3539 30.1611 40.3426 29.5936C40.2456 29.5294 40.1303 29.495 40.0122 29.495C39.8942 29.495 39.7789 29.5294 39.6819 29.5936C38.6706 30.1611 37.6511 30.713 36.5337 31.3193ZM44.7876 35.3694C46.0678 35.9589 47.3025 36.6343 48.4823 37.3905C48.5478 37.4347 48.6233 37.4634 48.7028 37.4742C48.7822 37.485 48.8632 37.4776 48.939 37.4527C50.0391 37.1068 51.0908 36.6343 52.0709 36.0457C50.7904 35.3461 49.5589 34.6775 48.3436 33.9935C48.0908 33.8535 47.9277 33.9935 47.7319 34.0557C46.7872 34.5855 45.7901 35.0256 44.755 35.3694M27.8883 36.0457C28.6712 36.4938 29.4893 36.8836 30.3351 37.2118C30.6125 37.3627 30.9318 37.4287 31.2498 37.4009C31.5678 37.3731 31.8692 37.2528 32.1131 37.0563C33.0958 36.4135 34.1292 35.8443 35.2043 35.3539C34.1767 35.0172 33.1874 34.5822 32.2518 34.0557C32.0642 33.9546 31.8929 33.8458 31.6401 33.9935C30.4248 34.6775 29.1933 35.3461 27.9128 36.0457M19.7567 40.5L23.0191 42.2957C23.0683 42.3281 23.1266 42.3455 23.1863 42.3455C23.2461 42.3455 23.3044 42.3281 23.3535 42.2957L26.616 40.4378L23.5248 38.7432C23.4603 38.7 23.3834 38.6769 23.3046 38.6769C23.2258 38.6769 23.1489 38.7 23.0844 38.7432L19.822 40.5311M60.2677 40.5311L57.0543 38.7743C56.9928 38.7245 56.9167 38.6941 56.8364 38.6872C56.7561 38.6802 56.6755 38.6971 56.6057 38.7354L53.3433 40.4922L56.5404 42.2879C56.6003 42.3372 56.6744 42.368 56.753 42.3764C56.8317 42.3847 56.9111 42.3701 56.9809 42.3346L60.2433 40.5311M43.4582 49.6962L40.2691 47.8694C40.2026 47.8276 40.1246 47.8053 40.0449 47.8053C39.9651 47.8053 39.8872 47.8276 39.8206 47.8694L36.5582 49.7428C37.6511 50.3414 38.6869 50.9011 39.7145 51.4764C39.8045 51.5355 39.9111 51.5672 40.0204 51.5672C40.1297 51.5672 40.2363 51.5355 40.3262 51.4764L43.45 49.7584M32.2436 33.6747C33.165 34.2227 34.1504 34.6662 35.1798 34.9963C35.3837 35.0585 35.5794 35.1828 35.816 35.074L39.6574 33.3249L36.444 31.6147C36.3758 31.5732 36.2965 31.5511 36.2156 31.5511C36.1347 31.5511 36.0554 31.5732 35.9872 31.6147L32.2436 33.6747ZM47.789 33.6747L43.9965 31.5992C43.9457 31.5671 43.8861 31.55 43.8252 31.55C43.7642 31.55 43.7047 31.5671 43.6539 31.5992L40.3915 33.356L44.1596 35.074C44.2318 35.1031 44.3095 35.1181 44.3879 35.1181C44.4664 35.1181 44.544 35.1031 44.6163 35.074C45.7383 34.7313 46.8121 34.2587 47.8135 33.667M30.9957 37.7481C30.0892 37.4939 29.2225 37.1252 28.4184 36.6521C28.1878 36.4543 27.8886 36.3449 27.5784 36.3449C27.2682 36.3449 26.9689 36.4543 26.7383 36.6521C26.4798 36.8278 26.207 36.9837 25.9227 37.1185L23.5738 38.4322L26.7872 40.1269C26.8751 40.1742 26.9768 40.1929 27.0768 40.1803C27.1769 40.1677 27.2699 40.1244 27.3418 40.0569L30.9957 37.7248M56.4589 38.4089L52.5929 36.3178C52.53 36.2883 52.4594 36.2769 52.3898 36.2852C52.3203 36.2935 52.2548 36.321 52.2014 36.3644C51.1966 36.9253 50.1367 37.3913 49.0369 37.7559C50.3255 38.5333 51.5326 39.3106 52.7397 40.088C52.8138 40.1375 52.9021 40.1641 52.9926 40.1641C53.083 40.1641 53.1713 40.1375 53.2454 40.088L56.4589 38.3933M31.0447 42.4356L27.244 40.671C27.1932 40.6389 27.1336 40.6218 27.0727 40.6218C27.0118 40.6218 26.9522 40.6389 26.9014 40.671L23.5982 42.5911L27.3418 44.6511C27.5621 44.7755 27.717 44.6511 27.8965 44.5812C29.0155 43.9786 30.07 43.273 31.0447 42.4745M56.4262 42.5911L53.2291 40.7565C53.1678 40.7072 53.0928 40.6758 53.0132 40.6661C52.9336 40.6565 52.8528 40.669 52.7805 40.7021L48.9798 42.4745C50.0035 43.3116 51.1129 44.0486 52.2911 44.6744C52.3494 44.7106 52.4174 44.7298 52.4869 44.7298C52.5564 44.7298 52.6244 44.7106 52.6826 44.6744L56.4262 42.6222M47.8053 47.3175C46.6567 46.6935 45.5654 45.9784 44.5429 45.1797C44.5094 45.1458 44.4689 45.1189 44.424 45.1004C44.3792 45.082 44.3308 45.0724 44.2819 45.0724C44.233 45.0724 44.1847 45.082 44.1398 45.1004C44.0949 45.1189 44.0545 45.1458 44.0209 45.1797C42.8057 45.9571 41.5741 46.7345 40.3018 47.5818L43.5642 49.4164C43.6324 49.4579 43.7116 49.48 43.7926 49.48C43.8735 49.48 43.9527 49.4579 44.0209 49.4164L47.7809 47.3563M39.6248 47.5973C38.3362 46.7655 37.1209 45.9804 35.8975 45.203C35.767 45.1175 35.6447 45.0009 35.4734 45.1486C34.4318 45.9646 33.3277 46.7052 32.1702 47.3641L35.922 49.4241C35.9886 49.4659 36.0665 49.4882 36.1463 49.4882C36.226 49.4882 36.304 49.4659 36.3706 49.4241L39.633 47.5896M27.9046 44.9543L31.6156 46.991C31.6945 47.0471 31.7904 47.0775 31.8888 47.0775C31.9873 47.0775 32.0831 47.0471 32.1621 46.991C33.1856 46.4059 34.169 45.7594 35.1064 45.0553C35.3592 44.861 35.3429 44.7599 35.1064 44.5967C34.0031 43.9244 32.8592 43.3144 31.6809 42.7699C31.6024 42.7093 31.5045 42.6762 31.4035 42.6762C31.3026 42.6762 31.2047 42.7093 31.1262 42.7699C30.1062 43.5786 29.0147 44.3016 27.8638 44.931M52.0791 44.931C50.9284 44.2976 49.8345 43.5748 48.8085 42.7699C48.6209 42.6222 48.466 42.7699 48.3028 42.8165C47.1594 43.3508 46.0509 43.9505 44.9833 44.6122C44.6979 44.7833 44.6652 44.8843 44.9833 45.102C45.9222 45.8017 46.9055 46.4456 47.9277 47.0298C48.0013 47.0804 48.0897 47.1077 48.1805 47.1077C48.2713 47.1077 48.3597 47.0804 48.4333 47.0298C49.6486 46.3535 50.8801 45.685 52.1688 44.9776M52.65 40.4378L48.7514 37.9347C48.6921 37.9004 48.6258 37.8784 48.5569 37.8704C48.488 37.8623 48.418 37.8684 48.3518 37.8881C47.6748 38.0122 46.9827 38.0436 46.2965 37.9813L44.7305 37.9036C45.8807 39.3508 47.1199 40.7317 48.4415 42.0392C48.504 42.1128 48.5936 42.161 48.6921 42.174C48.7905 42.187 48.8905 42.1638 48.9716 42.1091L52.65 40.4378ZM27.3663 40.4378C28.5897 40.9975 29.7397 41.5028 30.8652 42.047C30.9933 42.1281 31.149 42.1596 31.3005 42.135C31.4521 42.1105 31.5881 42.0317 31.6809 41.9148C32.8949 40.7035 34.041 39.432 35.1145 38.1057C35.1145 38.1057 35.1145 38.0047 35.1145 37.9425C33.9243 38.0771 32.7208 38.064 31.534 37.9036C31.4847 37.898 31.4347 37.902 31.387 37.9154C31.3394 37.9287 31.295 37.9512 31.2567 37.9813C29.9844 38.7587 28.7202 39.5983 27.3663 40.4689M43.9149 37.5616C41.5415 34.5532 37.8957 35.0507 36.1504 37.5616C36.8344 37.6399 37.495 37.848 38.0932 38.1738C38.6914 38.4996 39.2149 38.9364 39.633 39.4583C39.9266 39.7537 40.0652 39.7771 40.367 39.4583C40.7938 38.9306 41.3281 38.4906 41.9377 38.1646C42.5474 37.8387 43.2199 37.6336 43.9149 37.5616ZM44.0291 44.7677L43.8496 44.5734C42.6008 43.3584 41.4451 42.0594 40.3915 40.6866C40.0489 40.2823 39.8858 40.3912 39.5759 40.6866C38.5256 42.0334 37.3811 43.3112 36.1504 44.5112C35.9057 44.7211 36.028 44.8066 36.2156 44.931C37.3656 45.6539 38.5074 46.3769 39.6493 47.1154C39.7392 47.1882 39.8534 47.2282 39.9715 47.2282C40.0895 47.2282 40.2037 47.1882 40.2936 47.1154C41.4273 46.338 42.5773 45.6539 43.7191 44.9232C43.817 44.861 43.8986 44.7833 44.0046 44.7055M39.7227 40.0414C39.6656 39.9636 39.6411 39.9092 39.6085 39.8703C38.8228 38.8755 37.703 38.1676 36.4358 37.8647C36.2351 37.8122 36.0223 37.8189 35.8257 37.8842C35.629 37.9494 35.4578 38.0701 35.3348 38.2301C34.2742 39.5977 33.1189 40.8962 31.8766 42.1169C31.6238 42.3423 31.7135 42.4356 31.9745 42.5522C33.0978 43.062 34.1777 43.6546 35.2043 44.3246C35.2623 44.3811 35.3327 44.4246 35.4104 44.4521C35.4881 44.4796 35.5712 44.4903 35.6538 44.4837C35.7364 44.477 35.8164 44.453 35.8882 44.4134C35.9599 44.3738 36.0216 44.3196 36.0688 44.2547C37.3656 43.0264 38.4096 41.6039 39.5922 40.2901C39.6519 40.2213 39.7064 40.1486 39.7553 40.0724M43.9149 37.8647C42.8055 37.9661 41.7772 38.4631 41.0358 39.2562C40.2202 40.0336 40.2202 40.0336 40.9135 40.8109C41.2152 41.153 41.5007 41.5028 41.7862 41.8448C42.4726 42.72 43.2221 43.5485 44.0291 44.3246C44.184 44.4568 44.2982 44.6589 44.5837 44.4723C45.7066 43.7519 46.8812 43.1077 48.0989 42.5445C48.2784 42.459 48.3599 42.3812 48.1723 42.2102C46.8647 40.9037 45.6288 39.5337 44.4695 38.1057C44.4124 38.0192 44.3278 37.9522 44.2281 37.9145C44.1284 37.8768 44.0187 37.8702 43.9149 37.8958M17 40.5L21.5021 38.028C27.505 34.7475 33.5051 31.4567 39.5025 28.1555C39.6517 28.0518 39.8316 27.996 40.0163 27.996C40.201 27.996 40.3809 28.0518 40.5301 28.1555L62.4209 40.1657C62.5922 40.259 62.7553 40.3601 63 40.5078L60.9773 41.6349C54.1643 45.3663 47.3676 49.0976 40.5872 52.829C40.4297 52.9383 40.2398 52.9972 40.0449 52.9972C39.85 52.9972 39.6601 52.9383 39.5025 52.829C32.1566 48.8022 24.8135 44.7807 17.473 40.7643L17 40.5Z" fill="white"/>
</g>
<defs>
<clipPath id="clip0_26_31">
<rect width="46" height="25" fill="white" transform="translate(17 28)"/>
</clipPath>
</defs>
</svg>
