<svg width="150" height="151" viewBox="0 0 150 151" fill="none" xmlns="http://www.w3.org/2000/svg">
<path d="M75 115.871L56.25 106.496M56.25 106.496L18.75 125.246V43.9961L56.25 25.2461M56.25 106.496V25.2461M56.25 25.2461L93.75 43.9961M93.75 43.9961L131.25 25.2461V72.1211M93.75 43.9961V78.3711M118.75 112.746V112.809M132.006 126.002C134.629 123.38 136.415 120.039 137.139 116.402C137.863 112.765 137.492 108.995 136.073 105.568C134.654 102.142 132.251 99.213 129.168 97.1524C126.084 95.0919 122.459 93.9921 118.75 93.9921C115.041 93.9921 111.416 95.0919 108.332 97.1524C105.249 99.213 102.846 102.142 101.427 105.568C100.008 108.995 99.6367 112.765 100.361 116.402C101.085 120.039 102.871 123.38 105.494 126.002C108.106 128.619 112.525 132.534 118.75 137.746C125.321 132.184 129.74 128.269 132.006 126.002Z" stroke="#3E5A73" stroke-width="12" stroke-linecap="round" stroke-linejoin="round"/>
</svg>
