<svg width="80" height="81" viewBox="0 0 80 81" fill="none" xmlns="http://www.w3.org/2000/svg">
<path d="M80 40.5C80 62.5914 62.0914 80.5 40 80.5C17.9086 80.5 0 62.5914 0 40.5C0 18.4086 17.9086 0.5 40 0.5C62.0914 0.5 80 18.4086 80 40.5Z" fill="#445971"/>
<g clip-path="url(#clip0_26_38)">
<path d="M23.9268 39.1433C23.7677 39.3182 23.5913 39.4763 23.4005 39.615C22.8162 40.0427 22.1287 40.3035 21.4102 40.3699C20.6917 40.4363 19.9688 40.3059 19.3174 39.9923L23.0694 55H27.857L23.9268 39.1433Z" fill="white"/>
<path d="M49.0447 37.9341L28.2305 30.1559C28.4068 30.9352 28.3528 31.7496 28.0752 32.4981C27.7975 33.2466 27.3084 33.8964 26.6686 34.3666L26.5158 34.4609L47.5591 42.3335C47.3306 41.5348 47.3506 40.6844 47.6163 39.8976C47.882 39.1107 48.3806 38.4253 49.0447 37.9341Z" fill="white"/>
<path d="M54.8254 43.4227C55.0107 43.2198 55.1523 42.9804 55.2414 42.7194C55.3048 42.5392 55.3475 42.3521 55.3687 42.162C55.2604 42.6106 55.0767 43.037 54.8254 43.4227Z" fill="white"/>
<path d="M20.1663 35.31C20.403 35.137 20.6851 35.0389 20.977 35.0279C21.2689 35.017 21.5575 35.0937 21.8062 35.2485C22.055 35.4032 22.2527 35.629 22.3745 35.8972C22.4962 36.1655 22.5365 36.4642 22.4902 36.7556C22.4439 37.0469 22.3131 37.3179 22.1144 37.5342C21.9157 37.7505 21.6579 37.9024 21.3738 37.9707C21.0896 38.0391 20.7918 38.0207 20.5179 37.918C20.244 37.8154 20.0065 37.633 19.8352 37.3939C19.7215 37.2351 19.6398 37.0552 19.5949 36.8646C19.55 36.6739 19.5427 36.4761 19.5735 36.2826C19.6042 36.0891 19.6724 35.9036 19.7741 35.7367C19.8758 35.5698 20.0091 35.4248 20.1663 35.31ZM18.6977 33.2175C18.0472 33.6874 17.5497 34.3422 17.2685 35.0986C16.9873 35.8549 16.9351 36.6787 17.1186 37.4651C17.302 38.2515 17.7127 38.9651 18.2986 39.515C18.8845 40.065 19.619 40.4265 20.4087 40.5536C21.1985 40.6808 22.0079 40.5678 22.7339 40.229C23.4599 39.8902 24.0699 39.3409 24.4861 38.6511C24.9024 37.9612 25.1061 37.1618 25.0715 36.3546C25.0369 35.5474 24.7655 34.7689 24.2918 34.1179C23.6638 33.255 22.7246 32.6766 21.6776 32.5081C20.6307 32.3396 19.5601 32.5944 18.6977 33.2175Z" fill="white"/>
<path d="M21.9319 27.7804C21.2888 28.2579 20.8005 28.9175 20.5287 29.6757C20.257 30.4338 20.214 31.2563 20.4053 32.0391C20.5967 32.8219 21.0136 33.5298 21.6034 34.073C22.1932 34.6162 22.9293 34.9704 23.7185 35.0906C24.5077 35.2109 25.3145 35.0918 26.0366 34.7485C26.7588 34.4052 27.3639 33.8531 27.7752 33.1621C28.1866 32.4712 28.3857 31.6724 28.3473 30.867C28.309 30.0617 28.035 29.2859 27.5599 28.638C27.2462 28.2082 26.8517 27.8451 26.3991 27.5694C25.9464 27.2938 25.4444 27.1109 24.9218 27.0312C24.3991 26.9516 23.8661 26.9768 23.3531 27.1053C22.8401 27.2339 22.3571 27.4633 21.9319 27.7804ZM25.1661 32.2741C24.9303 32.4493 24.6483 32.5498 24.3559 32.5628C24.0635 32.5758 23.7739 32.5007 23.5237 32.3471C23.2736 32.1935 23.0743 31.9683 22.9512 31.7001C22.828 31.4318 22.7864 31.1327 22.8318 30.8406C22.8772 30.5484 23.0075 30.2765 23.2062 30.0594C23.4048 29.8422 23.6628 29.6895 23.9475 29.6208C24.2322 29.552 24.5306 29.5702 24.805 29.6731C25.0794 29.776 25.3174 29.959 25.4887 30.1988C25.6037 30.3559 25.6867 30.5346 25.7328 30.7245C25.7788 30.9143 25.7871 31.1115 25.7571 31.3046C25.7271 31.4977 25.6594 31.6829 25.5579 31.8493C25.4565 32.0157 25.3233 32.1601 25.1661 32.2741Z" fill="white"/>
<path d="M57.7965 46.0726H54.2822L53.9341 44.4175L53.8832 44.4689C53.7329 44.5791 53.5739 44.6766 53.4078 44.7605C52.8554 45.0585 52.2388 45.2144 51.6125 45.2144C50.9862 45.2144 50.3696 45.0585 49.8171 44.7605L49.5795 44.932L50.7424 50.532L57.9578 50.4806C58.4117 50.4726 58.8526 50.3261 59.2226 50.0603C59.5283 49.8268 59.7678 49.5159 59.9168 49.1591C60.0658 48.8023 60.1192 48.4121 60.0714 48.0279C59.9912 47.4788 59.7163 46.9778 59.2979 46.6181C58.8794 46.2584 58.3458 46.0646 57.7965 46.0726Z" fill="white"/>
<path d="M61.9899 38.0371L55.7847 33.672L52.1515 37.1966C52.7569 37.299 53.3307 37.541 53.8283 37.9039C54.3259 38.2669 54.734 38.7409 55.0207 39.2891C55.2057 39.6569 55.3372 40.0497 55.4112 40.4554L56.26 39.6407L59.4008 41.8447C59.7888 42.1235 60.2532 42.2734 60.7293 42.2734C61.2054 42.2734 61.6698 42.1235 62.0578 41.8447C62.265 41.6897 62.4456 41.5014 62.5926 41.2873C62.7672 41.0349 62.8902 40.7499 62.9545 40.4489C63.0188 40.1479 63.023 39.837 62.9668 39.5343C62.9107 39.2316 62.7954 38.9433 62.6277 38.6862C62.4599 38.4292 62.2431 38.2085 61.9899 38.0371Z" fill="white"/>
<path d="M50.5811 39.9838L50.7679 39.8723C51.1044 39.663 51.5095 39.5974 51.894 39.6899C52.2784 39.7824 52.6108 40.0254 52.8179 40.3654C53.025 40.7054 53.0899 41.1146 52.9984 41.503C52.9069 41.8914 52.6664 42.2272 52.3298 42.4364L52.143 42.5479C51.9728 42.6404 51.786 42.6979 51.5936 42.7169C51.4011 42.7359 51.2069 42.7161 51.0221 42.6587C50.8373 42.6012 50.6657 42.5073 50.5171 42.3823C50.3685 42.2573 50.246 42.1037 50.1567 41.9305C49.9894 41.6145 49.9402 41.2483 50.0181 40.8987C50.0961 40.5492 50.2959 40.2396 50.5811 40.0266M49.0871 37.8998C48.3174 38.5243 47.8011 39.4123 47.6362 40.3957C47.4713 41.379 47.6692 42.3893 48.1925 43.235C48.7157 44.0808 49.5278 44.7032 50.475 44.9844C51.4222 45.2655 52.4385 45.1859 53.3314 44.7605C53.5016 44.6677 53.666 44.5646 53.8238 44.4518C54.5935 43.8273 55.1098 42.9393 55.2747 41.9559C55.4396 40.9726 55.2417 39.9623 54.7184 39.1166C54.1952 38.2708 53.3831 37.6484 52.4359 37.3672C51.4887 37.0861 50.4724 37.1657 49.5795 37.5911C49.4121 37.6839 49.2505 37.787 49.0956 37.8998" fill="white"/>
</g>
<defs>
<clipPath id="clip0_26_38">
<rect width="46" height="28" fill="white" transform="translate(17 27)"/>
</clipPath>
</defs>
</svg>