<svg width="42" height="36" viewBox="0 0 42 36" fill="none" xmlns="http://www.w3.org/2000/svg">
<path d="M38.3047 0.436326H3.65466C2.73517 0.438965 1.85404 0.805372 1.20386 1.45555C0.553677 2.10573 0.187209 2.98681 0.18457 3.9063V22.9663C0.189841 23.884 0.557501 24.7626 1.2074 25.4106C1.85729 26.0587 2.7369 26.4237 3.65466 26.4263H17.4946V33.3563H15.7646C15.5347 33.3508 15.3059 33.3921 15.0923 33.4776C14.8787 33.5631 14.6848 33.6911 14.5221 33.8537C14.3594 34.0164 14.2314 34.2104 14.1459 34.424C14.0604 34.6376 14.0192 34.8663 14.0247 35.0963H27.8846C27.8901 34.8672 27.8491 34.6393 27.7642 34.4264C27.6793 34.2135 27.5522 34.0199 27.3906 33.8574C27.229 33.6949 27.0363 33.5667 26.8239 33.4806C26.6114 33.3945 26.3838 33.3522 26.1547 33.3563H24.4946V26.4263H38.3546C39.2724 26.4237 40.152 26.0587 40.8019 25.4106C41.4518 24.7626 41.8193 23.884 41.8246 22.9663V3.9063C41.8233 3.44675 41.7311 2.99203 41.5531 2.56835C41.3751 2.14466 41.115 1.76041 40.7877 1.43779C40.4605 1.11518 40.0725 0.8606 39.6464 0.688707C39.2202 0.516813 38.7642 0.431042 38.3047 0.436326ZM38.3047 22.9663H3.65466V3.9063H38.3047V22.9663Z" fill="#3E5973"/>
<path opacity="0.25" d="M36.6001 5.63635H5.41016V21.2263H36.6001V5.63635Z" fill="#3E5973"/>
</svg>
