<svg width="62" height="31" viewBox="0 0 62 31" fill="none" xmlns="http://www.w3.org/2000/svg">
<path d="M61.314 24.5243C61.014 24.1543 60.694 23.7943 60.394 23.4243C57.644 19.9943 54.014 19.9043 51.094 23.2243C50.334 24.0943 49.694 25.0643 48.904 25.9043C47.044 27.9043 45.574 27.8143 43.664 25.9043C42.5581 24.6449 41.3136 23.5144 39.954 22.5343C36.404 20.3143 32.954 21.1143 30.484 24.4743L30.414 24.5842C28.094 28.1142 25.344 27.8542 22.714 24.4642C20.084 21.0742 16.994 20.6042 13.784 23.5742C13.194 24.1142 12.694 24.7542 12.144 25.3342C10.004 27.6042 8.41401 27.5743 6.29401 25.1343L4.06396 26.3743C4.34859 27.0632 4.7693 27.6875 5.3009 28.21C5.83251 28.7324 6.46406 29.1423 7.15778 29.4149C7.85149 29.6876 8.59312 29.8174 9.3382 29.7966C10.0833 29.7759 10.8165 29.6051 11.494 29.2943C12.549 28.6452 13.5284 27.8804 14.414 27.0143C14.984 26.5143 15.414 25.8743 16.004 25.3843C17.684 23.9543 18.954 24.1643 20.274 25.9043C20.869 26.7336 21.5681 27.4831 22.354 28.1343C26.024 30.9743 29.714 30.3743 32.484 26.5443C34.554 23.6843 36.684 23.3643 39.484 25.5443C39.9233 25.9168 40.3344 26.3212 40.714 26.7543C40.8019 26.8583 40.8821 26.9685 40.954 27.0842C44.114 31.2042 48.474 31.2242 51.654 27.0842C52.224 26.3542 52.754 25.5643 53.394 24.8943C55.094 23.0843 56.624 23.1843 58.174 25.1443L58.804 25.9642L61.314 24.7843V24.5243Z" fill="#5D808F"/>
<path d="M25.7538 9.46423L26.8238 5.21423C29.1038 5.21423 31.2838 5.21423 33.4638 5.21423C34.2038 5.21423 34.5738 5.02423 34.7438 4.21423C35.0069 3.04831 35.3408 1.89957 35.7438 0.774292C35.808 0.610839 35.9091 0.464389 36.0392 0.346436C36.1693 0.228482 36.3248 0.142161 36.4938 0.0942383C38.6238 0.0342383 40.7638 0.094292 42.9838 0.024292L41.9838 5.13428H51.4238L50.4238 9.4043L59.8238 9.34424C59.8238 9.61424 59.9038 9.76427 59.8238 9.87427C58.5571 12.9409 57.2705 16.0042 55.9638 19.0642C55.8907 19.2164 55.7859 19.3513 55.6566 19.46C55.5273 19.5686 55.3764 19.6484 55.2138 19.6942C52.2138 20.0342 50.2938 21.9643 48.6238 24.2443C46.7338 26.8143 46.2338 26.7642 44.2338 24.3042C43.3501 23.1511 42.2373 22.1935 40.9655 21.4913C39.6937 20.7892 38.2904 20.3578 36.8438 20.2242C33.3438 19.9142 30.7538 21.6542 28.8438 24.4442C27.5638 26.3642 26.3438 26.3343 24.5338 24.5243C24.2238 24.2143 24.0338 23.7842 23.7538 23.4442C23.0063 22.3508 21.9571 21.4983 20.7338 20.9905C19.5105 20.4827 18.1659 20.3415 16.8638 20.5842C14.9365 21.0109 13.2057 22.0663 11.9438 23.5842L10.3838 25.2543C5.15379 21.3043 2.62383 15.8843 0.923828 9.64429L25.7538 9.46423ZM43.2538 14.0343H40.5638V16.6842H43.2538V14.0343ZM36.4638 13.9843C36.2752 13.9947 36.0878 14.0214 35.9038 14.0642V16.6942C36.7338 16.6942 37.9038 17.0142 38.3938 16.5842C38.8838 16.1542 38.6438 14.9742 38.7438 13.9642C37.7938 13.9642 37.1438 13.9643 36.4638 13.9843ZM29.6138 14.1243H26.9638C26.4738 16.8743 26.8738 17.2643 29.6338 16.6743L29.6138 14.1243ZM45.3038 16.6743H48.0438V13.9943H45.3038V16.6743ZM22.1438 16.7943H24.8038V14.1243H22.1438V16.7943ZM20.2238 14.1842H17.4938V16.8042H20.2138L20.2238 14.1842ZM31.6538 14.0542V16.7743H34.2138V14.0642L31.6538 14.0542Z" fill="#5D808F"/>
</svg>
