<svg width="80" height="81" viewBox="0 0 80 81" fill="none" xmlns="http://www.w3.org/2000/svg">
<path d="M80 40.5C80 62.5914 62.0914 80.5 40 80.5C17.9086 80.5 0 62.5914 0 40.5C0 18.4086 17.9086 0.5 40 0.5C62.0914 0.5 80 18.4086 80 40.5Z" fill="#445971"/>
<g clip-path="url(#clip0_26_69)">
<path d="M63 47.7009C62.7635 47.4183 62.527 47.1434 62.2982 46.8609C60.2003 44.2417 57.4235 44.173 55.2036 46.7082C54.6239 47.3649 54.1357 48.1132 53.5254 48.7546C52.1141 50.2819 50.9927 50.2055 49.5356 48.7546C48.6942 47.7886 47.7445 46.9226 46.7055 46.1736C43.9897 44.4861 41.3655 45.0969 39.4813 47.6627L39.4279 47.7467C37.6504 50.4422 35.5602 50.2437 33.5539 47.655C31.5476 45.0664 29.1904 44.7075 26.734 46.9754C26.2915 47.3878 25.9101 47.8765 25.4905 48.3194C23.8657 50.0451 22.6451 50.0222 21.0279 48.159L19.3267 49.1059C19.5428 49.6327 19.8633 50.1101 20.2689 50.5095C20.6744 50.9088 21.1566 51.2218 21.6863 51.4295C22.216 51.6371 22.7822 51.7352 23.3509 51.7178C23.9195 51.7003 24.4787 51.5677 24.9947 51.328C25.8013 50.8468 26.5489 50.2728 27.2222 49.6175C27.657 49.2434 27.9851 48.7546 28.4351 48.3805C29.7091 47.2885 30.7237 47.4489 31.6849 48.7776C32.1396 49.4103 32.6757 49.9803 33.2793 50.4728C36.0713 52.6185 38.8939 52.1604 40.9993 49.2357C42.5784 47.0518 44.2109 46.8074 46.3393 48.4721C46.6726 48.7612 46.9861 49.0724 47.2776 49.4037C47.3404 49.482 47.3989 49.5636 47.4531 49.6481C49.8713 52.8018 53.1973 52.8171 55.6232 49.6481C56.058 49.083 56.4623 48.4874 56.9506 47.9681C58.2474 46.5936 59.4146 46.67 60.597 48.159C60.742 48.3423 60.8793 48.5332 61.0776 48.7928L62.9847 47.8918L63 47.7009Z" fill="white"/>
<path d="M35.8653 36.2009L36.6892 32.9555C38.4285 32.9555 40.0915 32.9555 41.7469 32.9555C42.3191 32.9555 42.6013 32.8028 42.731 32.1919C42.9317 31.2991 43.1865 30.4193 43.4939 29.5574C43.5443 29.4343 43.622 29.3243 43.7211 29.2357C43.8202 29.1471 43.9382 29.0821 44.066 29.0458C45.6909 29 47.3234 29 49.0398 29L48.277 32.9021L55.4783 32.8562L54.7154 36.1245L61.8939 36.0787C61.8939 36.2849 61.9549 36.3994 61.8939 36.4758C60.925 38.8201 59.9562 41.1643 58.9569 43.5086C58.9028 43.626 58.8234 43.73 58.7245 43.8132C58.6256 43.8964 58.5096 43.9566 58.3847 43.9897C56.0962 44.2493 54.6391 45.7231 53.3575 47.4641C51.9234 49.4266 51.542 49.3884 50.0163 47.51C49.3397 46.6295 48.4894 45.8979 47.5183 45.3606C46.5471 44.8233 45.4758 44.4918 44.3711 44.3868C41.7088 44.1501 39.733 45.4788 38.3065 47.6169C37.33 49.083 36.3993 49.0601 35.0186 47.678C34.8056 47.4113 34.607 47.1335 34.4235 46.8456C33.851 46.0135 33.05 45.3651 32.1173 44.9789C31.1845 44.5927 30.16 44.4852 29.1675 44.6693C27.6959 44.9919 26.3746 45.7983 25.4143 46.9602L24.2166 48.2354C20.2269 45.2115 18.2968 41.0803 17 36.3154L35.8653 36.2009ZM49.2229 39.6906H47.1708V41.7218H49.2229V39.6906ZM44.0431 39.6448C43.8995 39.6594 43.7569 39.6824 43.6159 39.7135V41.7218C44.2491 41.7218 45.1416 41.9661 45.5154 41.6378C45.8892 41.3094 45.7061 40.4084 45.7824 39.6371L44.0431 39.6448ZM38.8176 39.7517H36.7884C36.4222 41.8516 36.7197 42.1494 38.8252 41.6989L38.8176 39.7517ZM50.7867 41.7065H52.8769V39.6906H50.7791L50.7867 41.7065ZM33.1114 41.7981H35.1483V39.7669H33.1191L33.1114 41.7981ZM31.6544 39.8051H29.5718V41.7981H31.6544V39.8051ZM40.3738 39.6906V41.7676H42.3191V39.6906H40.3738Z" fill="white"/>
</g>
<defs>
<clipPath id="clip0_26_69">
<rect width="46" height="23" fill="white" transform="translate(17 29)"/>
</clipPath>
</defs>
</svg>
