<svg width="1048" height="260" viewBox="0 0 1048 260" fill="none" xmlns="http://www.w3.org/2000/svg">
<path d="M212.665 23.2918C222.691 23.2918 233.029 25.4848 240.757 31.9595C249.529 39.374 251.304 48.6683 251.304 55.1429C251.304 71.1207 240.652 79.3707 235.013 82.5036C227.599 86.4719 219.766 87.3074 212.039 87.3074C207.757 87.3074 196.374 86.4719 193.032 86.4719C189.691 86.4719 184.991 86.4719 179.979 86.8896C179.143 86.9941 178.308 86.2631 178.308 85.5321C178.308 84.3833 179.874 81.877 182.485 81.146C185.827 80.2061 187.602 80.5194 188.437 75.8201C189.169 71.7473 189.169 66.5258 189.169 52.741C189.169 38.4341 189.377 36.6588 188.646 33.0038C188.437 31.855 188.229 30.2886 183.32 29.2443C180.814 28.7221 179.352 27.5734 179.352 26.1114C179.352 24.5449 181.023 23.9183 184.051 23.9183L191.257 24.0228C194.912 24.1272 205.355 23.2918 212.665 23.2918ZM212.665 28.8266C211.83 28.8266 208.384 29.2443 207.653 29.662C207.235 29.8709 206.191 31.855 206.191 32.2727C205.982 35.8234 205.564 40.3139 205.564 48.1461V55.6651C205.564 69.0321 205.982 70.703 206.295 73.8359C206.504 76.0289 207.653 78.222 208.906 79.2663C210.055 80.2061 213.814 81.9814 215.172 81.9814C216.32 81.9814 221.96 80.7283 226.554 76.3422C231.254 71.8517 233.238 63.0796 233.238 56.0828C233.238 48.4594 231.254 40.6272 225.928 35.4057C221.333 30.8107 216.007 28.8266 212.665 28.8266ZM269.225 63.6018V39.4784C269.225 30.7063 268.807 29.5576 263.168 28.3044C261.392 27.8867 260.348 26.6335 260.348 25.6937C260.348 24.1272 262.854 23.6051 263.899 23.6051C265.883 23.6051 272.462 24.0228 277.057 24.0228C283.323 24.0228 288.44 23.7095 291.468 23.7095C293.035 23.7095 294.706 24.5449 294.706 25.9025C294.706 27.1557 292.93 27.9911 292.095 28.2C286.978 29.3487 286.665 30.7063 286.247 36.1367C285.934 40.6272 285.829 49.7126 285.829 56.8138C285.829 68.1967 286.038 72.2694 286.038 73.627C286.247 78.5352 286.769 80.6238 291.99 81.877C293.975 82.3992 295.332 83.4435 295.332 84.9055C295.332 86.1586 293.035 86.7852 291.782 86.7852C290.737 86.7852 280.608 86.4719 277.057 86.4719C273.402 86.4719 265.779 86.8896 263.899 86.8896C262.541 86.8896 260.348 86.5764 260.348 84.9055C260.348 83.7567 262.019 82.3992 263.481 81.9814C267.658 80.6238 268.285 79.3707 268.807 76.2378C269.12 74.0448 269.225 72.165 269.225 63.6018ZM329.74 22.0386C335.588 22.0386 341.123 23.9183 345.196 24.8582C345.822 24.9626 346.553 26.6335 346.553 27.7823C346.553 29.0354 347.284 34.7791 347.284 36.3455C347.284 39.8961 345.614 41.3582 344.152 41.3582C343.003 41.3582 342.063 39.5829 341.75 38.7474C339.452 32.4816 334.022 26.8424 328.069 26.8424C323.683 26.8424 319.715 30.9152 319.715 34.8835C319.715 39.5829 323.161 43.029 329.114 46.0575C342.272 52.741 350 58.5891 350 68.51C350 77.0732 344.152 81.877 340.392 84.1745C336.319 86.5764 329.427 88.3517 324.623 88.3517C315.747 88.3517 310.63 86.4719 308.228 85.5321C307.497 85.2188 305.826 84.2789 305.304 83.1302C303.528 79.3707 303.215 73.9403 303.215 71.434C303.215 69.4498 304.259 66.9435 305.93 66.9435C307.079 66.9435 308.437 68.1967 309.899 70.9119C313.762 78.0131 319.506 83.1302 325.981 83.1302C329.74 83.1302 334.44 80.5194 334.44 75.7156C334.44 72.5827 334.648 69.1365 323.997 63.3929C310.316 56.0828 304.99 50.4436 304.99 40.7316C304.99 33.9436 309.794 28.4088 314.807 25.5892C318.775 23.3962 323.788 22.0386 329.74 22.0386ZM387.462 22.0386C393.31 22.0386 398.845 23.9183 402.918 24.8582C403.545 24.9626 404.276 26.6335 404.276 27.7823C404.276 29.0354 405.007 34.7791 405.007 36.3455C405.007 39.8961 403.336 41.3582 401.874 41.3582C400.725 41.3582 399.785 39.5829 399.472 38.7474C397.174 32.4816 391.744 26.8424 385.791 26.8424C381.405 26.8424 377.437 30.9152 377.437 34.8835C377.437 39.5829 380.883 43.029 386.836 46.0575C399.994 52.741 407.722 58.5891 407.722 68.51C407.722 77.0732 401.874 81.877 398.114 84.1745C394.041 86.5764 387.149 88.3517 382.345 88.3517C373.469 88.3517 368.352 86.4719 365.95 85.5321C365.219 85.2188 363.548 84.2789 363.026 83.1302C361.25 79.3707 360.937 73.9403 360.937 71.434C360.937 69.4498 361.981 66.9435 363.652 66.9435C364.801 66.9435 366.159 68.1967 367.621 70.9119C371.485 78.0131 377.228 83.1302 383.703 83.1302C387.462 83.1302 392.162 80.5194 392.162 75.7156C392.162 72.5827 392.371 69.1365 381.719 63.3929C368.038 56.0828 362.712 50.4436 362.712 40.7316C362.712 33.9436 367.516 28.4088 372.529 25.5892C376.497 23.3962 381.51 22.0386 387.462 22.0386ZM440.067 24.0228H450.824C460.327 24.0228 461.789 24.0228 464.191 23.5006C465.339 23.2918 466.07 23.9183 466.384 24.4405C467.01 25.4848 467.846 33.4215 467.846 35.7189C467.846 38.4341 466.593 39.0607 465.966 39.0607C464.086 39.0607 463.042 37.912 461.789 35.0924C459.805 30.8107 458.343 30.0797 457.507 30.0797C451.555 30.0797 445.811 30.393 444.349 30.393C443.827 30.393 442.991 31.5417 442.991 31.9595C442.887 33.9436 442.678 41.4626 442.678 48.6683C442.678 50.3391 442.991 51.3834 443.513 51.4879C444.662 51.8012 448.317 51.6967 450.197 51.5923C454.896 51.279 456.358 49.6081 457.507 46.9974C458.134 45.4309 459.178 44.1778 460.327 44.1778C461.789 44.1778 462.729 45.6398 462.52 48.6683C462.415 49.9214 462.311 52.3233 462.311 54.7252C462.311 57.1271 462.52 59.529 462.624 61.0954C462.833 63.915 461.267 65.1682 460.222 65.1682C459.282 65.1682 457.925 64.0195 456.985 61.9309C455.941 59.529 455.627 58.798 453.434 58.5891C449.153 58.2758 448.526 58.067 443.827 58.067C443.305 58.067 442.678 59.529 442.678 62.1397C442.678 64.9593 442.991 71.0163 443.096 73.3137C443.305 76.3422 443.722 77.4909 444.036 77.9087C445.08 79.4751 450.093 80.8327 455.105 80.8327C456.776 80.8327 459.7 80.5194 462.102 79.1618C464.086 78.1175 465.13 76.8644 467.428 73.7315C469.099 71.434 470.248 68.9277 471.918 68.9277C473.903 68.9277 474.529 71.9562 474.111 74.1492C473.485 77.1777 470.979 84.1745 470.561 85.1143C470.248 85.8453 468.055 86.9941 467.428 86.9941C466.07 86.9941 461.893 86.4719 442.887 86.4719C436.308 86.4719 423.15 86.8896 418.659 86.8896C416.466 86.8896 414.9 86.0542 414.9 85.2188C414.9 83.9656 415.735 82.5036 417.928 81.877C425.134 79.8928 425.343 77.4909 425.552 75.6112C425.969 70.5986 426.074 68.4055 426.074 52.3233C426.074 36.2411 425.865 35.6145 425.552 33.7348C425.029 30.6019 423.672 29.4531 419.495 28.4088C416.779 27.7823 416.362 26.3202 416.362 25.5892C416.362 24.2316 418.45 23.5006 419.808 23.5006C421.583 23.5006 433.175 24.0228 440.067 24.0228ZM484.88 26.5291C484.88 25.3804 486.446 23.6051 488.744 23.6051C491.355 23.6051 507.855 24.0228 508.481 24.0228C509.003 24.0228 510.465 25.7981 510.57 26.0069C510.987 27.469 512.345 29.9753 514.538 35.0924C516.836 40.4183 524.877 58.2758 527.279 61.1999C527.279 61.3043 528.218 61.722 528.532 60.991C531.978 53.5765 536.573 43.9689 540.019 36.0322C542.003 31.4373 542.734 28.5133 543.57 26.2158C543.779 25.5892 544.927 24.2316 545.554 24.2316C547.329 24.2316 562.367 23.5006 565.709 23.5006C566.753 23.5006 569.155 24.5449 569.155 26.0069C569.155 27.2601 568.215 27.8867 566.127 28.5133C559.443 30.4974 559.234 31.0196 559.234 33.7348C559.234 48.5638 559.965 60.5733 560.383 71.434C560.696 79.9973 562.889 80.6238 566.44 81.4593C569.677 82.1903 570.721 83.339 570.721 84.5922C570.721 85.6365 568.737 87.0985 566.544 87.0985C565.291 87.0985 553.595 86.4719 548.582 86.4719C543.883 86.4719 541.272 86.8896 538.766 86.8896C536.155 86.8896 535.424 84.6966 535.424 83.9656C535.424 83.1302 537.095 82.2947 537.617 82.0859C542.734 80.3106 543.674 79.0574 543.779 73.3137C543.883 70.5986 543.674 51.8012 543.987 41.7759C543.987 41.2537 543.256 41.3582 542.734 42.298C541.377 44.8044 532.291 66.6302 530.098 71.8517C528.949 74.5669 527.279 79.5795 525.817 83.1302C524.772 85.5321 522.893 87.2029 520.595 87.2029C519.655 87.2029 518.089 85.4276 517.567 83.6523C516 78.5352 513.912 73.5226 512.972 70.8074C508.377 57.8581 504.2 49.9214 501.589 43.5512C501.171 42.5069 500.336 42.7158 500.336 43.4468C499.5 55.4562 498.978 67.4657 498.978 72.7916C498.978 79.0574 499.709 79.3707 505.244 81.5637C507.541 82.5036 508.586 83.1302 508.586 84.4878C508.586 85.6365 507.124 86.8896 504.722 86.8896C503.26 86.8896 499.5 86.4719 496.472 86.4719C493.13 86.4719 485.507 87.0985 484.149 87.0985C482.165 87.0985 480.285 86.0542 480.285 84.6966C480.285 83.7567 481.225 82.7124 483.731 81.877C488.953 80.2061 490.624 78.1175 491.355 73.7315C492.608 66.5258 495.01 42.1936 495.219 36.7632C495.427 31.124 493.861 30.393 488.639 28.931C486.029 28.2 484.88 27.3645 484.88 26.5291ZM586.9 63.6018V39.4784C586.9 30.7063 586.482 29.5576 580.843 28.3044C579.068 27.8867 578.023 26.6335 578.023 25.6937C578.023 24.1272 580.53 23.6051 581.574 23.6051C583.558 23.6051 590.137 24.0228 594.732 24.0228C600.998 24.0228 606.115 23.7095 609.144 23.7095C610.71 23.7095 612.381 24.5449 612.381 25.9025C612.381 27.1557 610.606 27.9911 609.77 28.2C604.653 29.3487 604.34 30.7063 603.922 36.1367C603.609 40.6272 603.504 49.7126 603.504 56.8138C603.504 68.1967 603.713 72.2694 603.713 73.627C603.922 78.5352 604.444 80.6238 609.666 81.877C611.65 82.3992 613.007 83.4435 613.007 84.9055C613.007 86.1586 610.71 86.7852 609.457 86.7852C608.413 86.7852 598.283 86.4719 594.732 86.4719C591.077 86.4719 583.454 86.8896 581.574 86.8896C580.216 86.8896 578.023 86.5764 578.023 84.9055C578.023 83.7567 579.694 82.3992 581.156 81.9814C585.334 80.6238 585.96 79.3707 586.482 76.2378C586.796 74.0448 586.9 72.165 586.9 63.6018ZM619.782 25.1715C619.782 24.4405 620.618 23.3962 622.498 23.3962C626.675 23.3962 635.029 24.2316 641.713 24.2316C642.653 24.2316 644.115 24.9626 644.428 25.3804C646.203 27.7823 649.44 31.2284 654.453 36.6588C659.988 42.6113 676.592 60.1556 678.89 61.4087C679.203 61.5132 680.038 61.3043 680.143 60.991C680.769 58.1714 680.769 48.1461 680.456 40.9404C680.143 33.8392 680.665 31.124 672.519 29.2443C670.013 28.6177 669.073 26.8424 669.073 26.2158C669.073 25.4848 670.222 23.9183 672.728 23.9183C676.488 23.9183 676.279 24.0228 678.994 24.0228C683.276 24.0228 691.212 23.5006 693.301 23.5006C695.494 23.5006 696.956 24.1272 696.956 25.9025C696.956 27.0513 696.121 27.7823 692.779 29.2443C688.497 31.124 687.871 32.2727 687.766 33.6303C687.557 38.4341 686.722 59.9467 686.722 66.9435C686.722 71.5384 687.14 76.1334 687.14 80.9371C687.14 85.3232 686.304 88.5605 684.425 88.5605C681.083 88.5605 678.368 86.6808 676.383 84.3833C672.519 79.9973 667.611 74.2536 664.687 71.0163C660.719 66.4214 644.428 49.086 639.833 44.0733C639.52 43.7601 638.789 44.3866 638.789 44.8044C638.684 47.1018 638.475 47.4151 638.475 51.9056C638.475 56.6049 638.684 66.0036 638.789 68.8233C639.102 76.9688 640.459 79.4751 644.115 80.9371C647.665 82.2947 648.814 83.4435 648.814 84.9055C648.814 86.1586 647.665 86.8896 645.263 86.8896C642.339 86.8896 638.789 86.4719 633.88 86.4719C628.972 86.4719 626.361 86.8896 625.004 86.8896C621.871 86.8896 620.827 85.7409 620.827 84.6966C620.827 83.339 622.08 82.3992 623.96 81.7726C628.763 80.2061 630.643 79.8928 631.165 72.896C631.687 65.8992 632.523 40.9404 632.523 37.5987C632.523 36.9721 632.001 34.7791 630.643 33.2126C628.45 30.7063 626.57 29.4531 624.168 28.931C621.767 28.4088 619.782 27.1557 619.782 25.1715ZM737.468 21.9342C739.347 21.9342 739.974 25.0671 742.689 32.0639C748.328 47.2062 756.892 67.4657 759.711 73.8359C762.322 79.684 763.784 79.7884 767.857 81.4593C770.259 82.5036 771.094 84.07 771.094 85.2188C771.094 86.4719 769.423 86.9941 767.439 86.9941C764.202 86.9941 756.056 86.4719 750.939 86.4719C746.449 86.4719 743.629 86.9941 739.87 86.9941C736.945 86.9941 736.006 85.7409 736.006 85.0099C736.006 83.7567 737.259 82.2947 739.243 81.4593C742.898 79.8928 742.898 77.5954 742.376 75.8201C741.436 73.2093 741.332 72.6872 739.974 69.5543C739.87 69.241 738.93 68.0922 737.259 67.8834C735.483 67.6745 722.43 67.4657 720.028 67.9878C719.401 68.0922 718.566 69.1365 718.357 69.5543C717.522 71.6429 716.686 75.6112 716.686 76.9688C716.686 78.8485 718.044 80.415 721.385 81.5637C722.847 82.0859 724.414 82.9213 724.414 84.2789C724.414 84.801 722.952 86.7852 720.237 86.7852C718.984 86.7852 716.686 86.4719 713.344 86.4719C709.48 86.4719 705.199 86.9941 700.813 86.9941C698.515 86.9941 696.949 85.9498 696.949 84.6966C696.949 83.6523 697.784 82.608 700.082 81.6681C703.946 80.1017 706.034 79.7884 709.376 72.7916C711.987 67.2568 719.401 48.4594 725.667 31.9595C725.771 31.6462 725.98 30.9152 725.98 29.7664C725.98 29.3487 726.502 28.6177 726.92 28.3044C728.278 27.469 733.499 24.0228 734.648 23.0829C735.275 22.4563 736.945 21.9342 737.468 21.9342ZM735.379 60.8866C735.901 60.8866 736.528 59.9467 736.423 59.6334C734.857 54.5163 730.471 43.3423 729.531 41.6715C729.113 40.9404 728.487 41.2537 728.173 41.6715C726.502 45.1176 722.012 57.9625 721.699 59.529C721.594 60.1556 722.116 60.991 722.847 60.991C724.205 60.991 733.917 60.991 735.379 60.8866ZM790.01 24.0228H821.965C827.813 24.0228 830.424 23.2918 830.842 22.7696C832.095 21.2032 833.244 20.2633 833.975 20.2633C834.601 20.2633 837.317 21.9342 837.317 23.6051C837.317 24.3361 836.063 30.9152 836.063 37.912C836.063 40.0006 834.497 42.298 832.513 42.298C831.051 42.298 830.215 39.6873 830.006 38.7474C828.44 31.855 826.665 31.6462 822.905 31.2284C821.339 31.0196 821.025 30.7063 812.149 30.7063C811.627 30.7063 811.313 31.5417 811.209 32.586C811.105 34.0481 810.478 48.1461 810.478 54.7252C810.478 61.0954 810.374 67.9878 810.687 71.7473C811.313 79.3707 813.089 79.684 817.37 81.2504C819.25 81.9814 821.025 82.9213 821.025 84.1745C821.025 86.4719 818.519 86.9941 816.431 86.9941C815.386 86.9941 803.899 86.4719 797.633 86.4719C794.605 86.4719 788.965 86.7852 786.146 86.7852C783.953 86.7852 781.864 85.8453 781.864 83.9656C781.864 83.1302 782.909 81.6681 785.31 81.0416C791.785 79.2663 793.56 77.9087 793.56 72.165C793.56 69.972 793.769 56.0828 793.769 49.2948C793.769 42.8202 793.874 35.9278 793.874 32.6905C793.874 31.855 792.829 30.7063 792.516 30.7063C789.905 30.7063 786.041 30.7063 783.326 30.8107C780.402 30.9152 777.583 30.9152 774.763 38.7474C774.136 40.5227 772.883 41.8803 771.734 41.8803C770.377 41.8803 768.81 40.0006 768.81 37.4943C768.81 34.2569 769.959 29.5576 769.959 23.8139C769.959 22.0386 771.526 20.4722 772.779 20.4722C773.092 20.4722 774.345 21.0987 775.076 21.6209C776.852 23.0829 778.418 23.7095 781.446 23.8139C785.728 24.0228 786.668 24.0228 790.01 24.0228ZM854.4 63.6018V39.4784C854.4 30.7063 853.982 29.5576 848.343 28.3044C846.568 27.8867 845.523 26.6335 845.523 25.6937C845.523 24.1272 848.03 23.6051 849.074 23.6051C851.058 23.6051 857.637 24.0228 862.232 24.0228C868.498 24.0228 873.615 23.7095 876.643 23.7095C878.21 23.7095 879.881 24.5449 879.881 25.9025C879.881 27.1557 878.105 27.9911 877.27 28.2C872.153 29.3487 871.84 30.7063 871.422 36.1367C871.109 40.6272 871.004 49.7126 871.004 56.8138C871.004 68.1967 871.213 72.2694 871.213 73.627C871.422 78.5352 871.944 80.6238 877.166 81.877C879.15 82.3992 880.507 83.4435 880.507 84.9055C880.507 86.1586 878.21 86.7852 876.957 86.7852C875.912 86.7852 865.783 86.4719 862.232 86.4719C858.577 86.4719 850.954 86.8896 849.074 86.8896C847.716 86.8896 845.523 86.5764 845.523 84.9055C845.523 83.7567 847.194 82.3992 848.656 81.9814C852.833 80.6238 853.46 79.3707 853.982 76.2378C854.295 74.0448 854.4 72.165 854.4 63.6018ZM887.282 25.1715C887.282 24.4405 888.118 23.3962 889.997 23.3962C894.175 23.3962 902.529 24.2316 909.213 24.2316C910.152 24.2316 911.614 24.9626 911.928 25.3804C913.703 27.7823 916.94 31.2284 921.953 36.6588C927.488 42.6113 944.092 60.1556 946.39 61.4087C946.703 61.5132 947.538 61.3043 947.643 60.991C948.269 58.1714 948.269 48.1461 947.956 40.9404C947.643 33.8392 948.165 31.124 940.019 29.2443C937.513 28.6177 936.573 26.8424 936.573 26.2158C936.573 25.4848 937.722 23.9183 940.228 23.9183C943.988 23.9183 943.779 24.0228 946.494 24.0228C950.776 24.0228 958.712 23.5006 960.801 23.5006C962.994 23.5006 964.456 24.1272 964.456 25.9025C964.456 27.0513 963.621 27.7823 960.279 29.2443C955.997 31.124 955.371 32.2727 955.266 33.6303C955.057 38.4341 954.222 59.9467 954.222 66.9435C954.222 71.5384 954.64 76.1334 954.64 80.9371C954.64 85.3232 953.804 88.5605 951.924 88.5605C948.583 88.5605 945.867 86.6808 943.883 84.3833C940.019 79.9973 935.111 74.2536 932.187 71.0163C928.219 66.4214 911.928 49.086 907.333 44.0733C907.019 43.7601 906.288 44.3866 906.288 44.8044C906.184 47.1018 905.975 47.4151 905.975 51.9056C905.975 56.6049 906.184 66.0036 906.288 68.8233C906.602 76.9688 907.959 79.4751 911.614 80.9371C915.165 82.2947 916.314 83.4435 916.314 84.9055C916.314 86.1586 915.165 86.8896 912.763 86.8896C909.839 86.8896 906.288 86.4719 901.38 86.4719C896.472 86.4719 893.861 86.8896 892.504 86.8896C889.371 86.8896 888.327 85.7409 888.327 84.6966C888.327 83.339 889.58 82.3992 891.459 81.7726C896.263 80.2061 898.143 79.8928 898.665 72.896C899.187 65.8992 900.023 40.9404 900.023 37.5987C900.023 36.9721 899.501 34.7791 898.143 33.2126C895.95 30.7063 894.07 29.4531 891.668 28.931C889.266 28.4088 887.282 27.1557 887.282 25.1715ZM1011.31 21.9342C1018.09 21.9342 1021.96 23.0829 1026.34 24.2316C1028.54 24.8582 1030.73 25.1715 1032.09 25.1715C1032.82 25.1715 1033.97 26.3202 1034.18 27.469C1034.8 30.2886 1036.26 35.6145 1036.26 39.7917C1036.26 41.3582 1035.22 43.8645 1033.65 43.8645C1032.61 43.8645 1031.88 43.5512 1030.31 40.7316C1028.95 38.2253 1027.91 35.4057 1025.3 33.1082C1019.87 28.3044 1013.5 27.5734 1010.68 27.5734C996.164 27.5734 991.046 41.3582 991.046 53.5765C991.046 70.8074 1000.86 82.8169 1012.87 82.8169C1013.81 82.8169 1016.42 82.1903 1017.57 81.3549C1018.62 80.6238 1019.03 77.0732 1019.03 74.6713C1019.03 70.703 1018.93 66.8391 1018.82 65.4815C1018.62 63.3929 1018.2 61.6176 1014.33 60.6777C1010.78 59.8423 1009.43 58.798 1009.43 57.2315C1009.43 56.2917 1010.57 54.8296 1013.71 54.8296C1016.63 54.8296 1019.66 55.3518 1023.11 55.3518C1026.24 55.3518 1036.47 54.8296 1038.56 54.8296C1041.49 54.8296 1042.43 55.9784 1042.43 57.2315C1042.43 58.6935 1040.44 59.8423 1039.08 60.3644C1035.43 61.6176 1035.64 63.3929 1035.53 64.8549C1035.32 67.2568 1035.32 63.8106 1035.32 73.3137C1035.32 74.6713 1035.43 76.1334 1035.64 77.8042C1035.74 78.5352 1035.95 79.5795 1035.95 80.8327C1035.95 81.146 1034.7 82.7124 1034.49 82.8169C1033.24 83.7567 1030.63 85.1143 1026.24 86.3675C1022.17 87.5162 1017.05 88.5605 1011.93 88.5605C994.806 88.5605 985.094 83.4435 978.41 75.2979C973.711 69.5543 971.936 61.9309 971.936 55.1429C971.936 43.8645 976.74 36.0322 984.99 29.7664C990.942 25.1715 1001.8 21.9342 1011.31 21.9342Z" fill="white"/>
<path d="M207.243 129.846H248.259C255.766 129.846 259.117 128.908 259.653 128.238C261.261 126.227 262.736 125.021 263.674 125.021C264.478 125.021 267.963 127.165 267.963 129.31C267.963 130.248 266.355 138.693 266.355 147.673C266.355 150.354 264.344 153.303 261.798 153.303C259.921 153.303 258.849 149.952 258.581 148.746C256.57 139.899 254.291 139.631 249.466 139.095C247.455 138.827 247.053 138.425 235.66 138.425C234.99 138.425 234.587 139.497 234.453 140.837C234.319 142.714 233.515 160.809 233.515 169.254C233.515 177.43 233.381 186.277 233.783 191.102C234.587 200.887 236.866 201.289 242.362 203.3C244.774 204.238 247.053 205.445 247.053 207.053C247.053 210.002 243.836 210.672 241.155 210.672C239.815 210.672 225.071 210.002 217.028 210.002C213.141 210.002 205.903 210.404 202.284 210.404C199.469 210.404 196.788 209.198 196.788 206.785C196.788 205.713 198.129 203.836 201.211 203.032C209.522 200.753 211.801 199.011 211.801 191.638C211.801 188.824 212.069 170.996 212.069 162.284C212.069 153.973 212.203 145.127 212.203 140.971C212.203 139.899 210.862 138.425 210.46 138.425C207.109 138.425 202.15 138.425 198.665 138.559C194.912 138.693 191.292 138.693 187.673 148.746C186.869 151.024 185.261 152.767 183.786 152.767C182.044 152.767 180.033 150.354 180.033 147.137C180.033 142.982 181.508 136.95 181.508 129.578C181.508 127.299 183.518 125.289 185.127 125.289C185.529 125.289 187.137 126.093 188.076 126.763C190.354 128.64 192.365 129.444 196.252 129.578C201.748 129.846 202.954 129.846 207.243 129.846ZM311.203 160.943C311.203 162.82 312.275 164.294 313.213 164.294C336.67 164.294 341.228 164.16 343.774 164.294C344.311 164.294 345.383 162.284 345.383 161.748C345.383 152.633 345.383 145.127 344.847 141.91C344.445 139.497 344.177 138.157 338.413 136.682C333.453 135.342 332.649 133.331 332.649 132.393C332.649 131.052 335.062 129.444 337.877 129.444C343.372 129.444 347.125 129.846 352.219 129.846C357.447 129.846 370.851 129.444 373.531 129.444C376.212 129.444 377.821 130.784 377.821 132.393C377.821 133.867 376.212 135.342 372.727 136.146C368.572 137.084 367.634 139.095 367.231 142.312C366.695 146.199 366.561 156.654 366.561 168.316C366.561 184.936 366.963 189.628 367.231 194.587C367.634 201.021 369.912 202.094 374.068 203.166C377.821 204.104 379.161 205.713 379.161 207.187C379.161 208.93 377.016 210.404 374.068 210.404C371.521 210.404 366.427 210.002 361.468 210.002C354.498 210.002 342.97 210.672 338.949 210.672C336.268 210.672 333.721 209.6 333.721 207.455C333.721 206.115 334.928 205.042 339.083 203.434C344.043 201.557 344.579 198.609 344.981 196.464C345.651 192.309 345.919 181.451 345.383 176.76C344.981 173.409 343.774 173.141 343.64 173.141C333.721 173.141 314.688 173.543 312.811 173.543C311.873 173.543 311.203 176.224 311.203 176.894C311.203 180.513 311.337 193.515 311.471 195.526C311.873 200.083 312.409 202.228 319.111 203.836C320.72 204.238 323.4 205.981 323.4 207.723C323.4 210.002 321.524 210.538 318.173 210.538C314.286 210.538 304.635 210.002 298.871 210.002C294.582 210.002 286.807 210.672 282.786 210.672C279.971 210.672 277.693 209.198 277.693 207.589C277.693 206.115 280.105 204.64 282.518 203.702C288.148 201.423 289.22 200.217 289.488 194.453C289.89 188.556 289.89 173.677 289.89 154.375C289.89 144.322 289.488 143.384 289.22 141.776C288.684 138.693 287.076 136.816 280.91 135.342C279.435 134.94 277.961 133.733 277.961 132.259C277.961 130.784 280.91 129.31 283.456 129.31C290.024 129.31 299.273 129.846 302.892 129.846C307.048 129.846 309.728 129.578 314.42 129.578C316.564 129.578 319.245 130.248 319.245 132.661C319.245 134.671 316.028 135.878 314.42 136.414C312.275 137.218 311.203 139.899 311.203 143.25C311.203 147.405 311.203 152.365 311.203 160.943ZM419.639 129.846H433.445C445.643 129.846 447.519 129.846 450.602 129.176C452.077 128.908 453.015 129.712 453.417 130.382C454.221 131.723 455.294 141.91 455.294 144.859C455.294 148.344 453.685 149.148 452.881 149.148C450.468 149.148 449.128 147.673 447.519 144.054C444.973 138.559 443.096 137.62 442.024 137.62C434.383 137.62 427.011 138.022 425.135 138.022C424.464 138.022 423.392 139.497 423.392 140.033C423.258 142.58 422.99 152.231 422.99 161.479C422.99 163.624 423.392 164.965 424.062 165.099C425.537 165.501 430.228 165.367 432.641 165.233C438.673 164.83 440.549 162.686 442.024 159.335C442.828 157.324 444.168 155.716 445.643 155.716C447.519 155.716 448.726 157.592 448.458 161.479C448.324 163.088 448.19 166.171 448.19 169.254C448.19 172.337 448.458 175.42 448.592 177.43C448.86 181.049 446.849 182.658 445.509 182.658C444.302 182.658 442.56 181.183 441.354 178.503C440.013 175.42 439.611 174.481 436.796 174.213C431.301 173.811 430.496 173.543 424.464 173.543C423.794 173.543 422.99 175.42 422.99 178.771C422.99 182.39 423.392 190.164 423.526 193.113C423.794 197 424.33 198.475 424.733 199.011C426.073 201.021 432.507 202.764 438.941 202.764C441.085 202.764 444.839 202.362 447.921 200.619C450.468 199.279 451.809 197.67 454.758 193.649C456.902 190.7 458.377 187.483 460.521 187.483C463.068 187.483 463.872 191.37 463.336 194.185C462.532 198.072 459.315 207.053 458.779 208.259C458.377 209.198 455.562 210.672 454.758 210.672C453.015 210.672 447.653 210.002 423.258 210.002C414.814 210.002 397.925 210.538 392.161 210.538C389.346 210.538 387.335 209.466 387.335 208.393C387.335 206.785 388.408 204.908 391.223 204.104C400.471 201.557 400.739 198.475 401.007 196.062C401.544 189.628 401.678 186.813 401.678 166.171C401.678 145.529 401.41 144.724 401.007 142.312C400.337 138.291 398.595 136.816 393.233 135.476C389.748 134.671 389.212 132.795 389.212 131.857C389.212 130.114 391.893 129.176 393.635 129.176C395.914 129.176 410.792 129.846 419.639 129.846ZM541.791 128.908C554.659 128.908 567.929 131.723 577.848 140.033C589.107 149.55 591.386 161.479 591.386 169.79C591.386 190.298 577.714 200.887 570.476 204.908C560.959 210.002 550.906 211.074 540.987 211.074C535.491 211.074 520.881 210.002 516.592 210.002C512.303 210.002 506.271 210.002 499.837 210.538C498.765 210.672 497.692 209.734 497.692 208.796C497.692 207.321 499.703 204.104 503.054 203.166C507.343 201.96 509.622 202.362 510.694 196.33C511.632 191.102 511.632 184.4 511.632 166.707C511.632 148.344 511.9 146.065 510.962 141.373C510.694 139.899 510.426 137.888 504.126 136.548C500.909 135.878 499.033 134.403 499.033 132.527C499.033 130.516 501.177 129.712 505.064 129.712L514.313 129.846C519.005 129.98 532.409 128.908 541.791 128.908ZM541.791 136.012C540.719 136.012 536.296 136.548 535.357 137.084C534.821 137.352 533.481 139.899 533.481 140.435C533.213 144.993 532.677 150.756 532.677 160.809V170.46C532.677 187.617 533.213 189.762 533.615 193.783C533.883 196.598 535.357 199.413 536.966 200.753C538.44 201.96 543.266 204.238 545.008 204.238C546.483 204.238 553.721 202.63 559.619 197C565.65 191.236 568.197 179.977 568.197 170.996C568.197 161.211 565.65 151.158 558.814 144.456C552.917 138.559 546.081 136.012 541.791 136.012ZM632.349 129.846H646.155C658.353 129.846 660.229 129.846 663.312 129.176C664.787 128.908 665.725 129.712 666.127 130.382C666.931 131.723 668.004 141.91 668.004 144.859C668.004 148.344 666.395 149.148 665.591 149.148C663.178 149.148 661.838 147.673 660.229 144.054C657.683 138.559 655.806 137.62 654.734 137.62C647.093 137.62 639.721 138.022 637.845 138.022C637.174 138.022 636.102 139.497 636.102 140.033C635.968 142.58 635.7 152.231 635.7 161.479C635.7 163.624 636.102 164.965 636.772 165.099C638.247 165.501 642.938 165.367 645.351 165.233C651.383 164.83 653.259 162.686 654.734 159.335C655.538 157.324 656.878 155.716 658.353 155.716C660.229 155.716 661.436 157.592 661.168 161.479C661.034 163.088 660.9 166.171 660.9 169.254C660.9 172.337 661.168 175.42 661.302 177.43C661.57 181.049 659.559 182.658 658.219 182.658C657.012 182.658 655.27 181.183 654.063 178.503C652.723 175.42 652.321 174.481 649.506 174.213C644.01 173.811 643.206 173.543 637.174 173.543C636.504 173.543 635.7 175.42 635.7 178.771C635.7 182.39 636.102 190.164 636.236 193.113C636.504 197 637.04 198.475 637.443 199.011C638.783 201.021 645.217 202.764 651.651 202.764C653.795 202.764 657.549 202.362 660.631 200.619C663.178 199.279 664.519 197.67 667.467 193.649C669.612 190.7 671.087 187.483 673.231 187.483C675.778 187.483 676.582 191.37 676.046 194.185C675.242 198.072 672.025 207.053 671.489 208.259C671.087 209.198 668.272 210.672 667.467 210.672C665.725 210.672 660.363 210.002 635.968 210.002C627.524 210.002 610.635 210.538 604.871 210.538C602.056 210.538 600.045 209.466 600.045 208.393C600.045 206.785 601.118 204.908 603.933 204.104C613.181 201.557 613.449 198.475 613.717 196.062C614.254 189.628 614.388 186.813 614.388 166.171C614.388 145.529 614.12 144.724 613.717 142.312C613.047 138.291 611.305 136.816 605.943 135.476C602.458 134.671 601.922 132.795 601.922 131.857C601.922 130.114 604.603 129.176 606.345 129.176C608.624 129.176 623.502 129.846 632.349 129.846ZM740.21 155.314C740.21 147.807 737.127 142.312 736.457 141.373C735.921 140.703 731.096 136.28 726.136 136.28C724.662 136.28 722.919 136.816 722.383 137.352C721.981 137.754 721.445 138.559 721.445 139.229C721.043 144.59 720.909 161.748 720.909 167.243C720.909 180.647 721.043 190.968 721.043 192.309C721.043 199.815 722.785 201.826 730.023 203.836C733.24 204.774 734.581 205.713 734.581 207.589C734.581 208.796 732.704 210.404 729.219 210.404C725.198 210.404 719.3 210.002 713.804 210.002C708.979 210.002 696.379 210.806 691.956 210.806C688.605 210.806 686.326 209.6 686.326 207.857C686.326 206.115 687.667 204.908 691.554 203.702C697.318 201.826 698.256 199.547 698.658 196.062C698.926 193.381 699.864 176.894 699.864 158.263C699.864 152.499 699.73 146.065 699.328 142.982C699.06 139.899 697.988 137.486 692.09 136.146C689.945 135.61 687.399 133.599 687.399 132.259C687.399 129.846 689.275 129.31 691.554 129.31C697.318 129.31 701.071 129.846 707.773 129.846C712.33 129.846 719.434 129.176 729.889 129.176C741.551 129.176 750.129 132.795 754.687 137.486C757.904 140.837 761.925 148.21 761.925 155.18C761.925 165.635 755.759 173.007 753.078 175.286C747.583 179.843 741.819 181.854 735.653 181.854C732.168 181.854 730.157 181.317 728.147 179.977C726.672 179.039 725.466 177.698 725.466 177.028C725.466 175.554 726.002 174.615 727.074 174.481C727.611 174.347 728.281 174.347 728.951 174.213C732.168 173.409 740.21 171.398 740.21 155.314ZM798.773 129.846H839.79C847.296 129.846 850.647 128.908 851.183 128.238C852.791 126.227 854.266 125.021 855.204 125.021C856.008 125.021 859.493 127.165 859.493 129.31C859.493 130.248 857.885 138.693 857.885 147.673C857.885 150.354 855.874 153.303 853.328 153.303C851.451 153.303 850.379 149.952 850.111 148.746C848.1 139.899 845.821 139.631 840.996 139.095C838.985 138.827 838.583 138.425 827.19 138.425C826.52 138.425 826.117 139.497 825.983 140.837C825.849 142.714 825.045 160.809 825.045 169.254C825.045 177.43 824.911 186.277 825.313 191.102C826.117 200.887 828.396 201.289 833.892 203.3C836.304 204.238 838.583 205.445 838.583 207.053C838.583 210.002 835.366 210.672 832.685 210.672C831.345 210.672 816.601 210.002 808.558 210.002C804.671 210.002 797.433 210.404 793.814 210.404C790.999 210.404 788.318 209.198 788.318 206.785C788.318 205.713 789.659 203.836 792.741 203.032C801.052 200.753 803.331 199.011 803.331 191.638C803.331 188.824 803.599 170.996 803.599 162.284C803.599 153.973 803.733 145.127 803.733 140.971C803.733 139.899 802.392 138.425 801.99 138.425C798.639 138.425 793.68 138.425 790.195 138.559C786.442 138.693 782.823 138.693 779.203 148.746C778.399 151.024 776.791 152.767 775.316 152.767C773.574 152.767 771.563 150.354 771.563 147.137C771.563 142.982 773.038 136.95 773.038 129.578C773.038 127.299 775.048 125.289 776.657 125.289C777.059 125.289 778.667 126.093 779.606 126.763C781.884 128.64 783.895 129.444 787.782 129.578C793.278 129.846 794.484 129.846 798.773 129.846ZM902.733 160.943C902.733 162.82 903.805 164.294 904.743 164.294C928.2 164.294 932.758 164.16 935.304 164.294C935.841 164.294 936.913 162.284 936.913 161.748C936.913 152.633 936.913 145.127 936.377 141.91C935.975 139.497 935.707 138.157 929.943 136.682C924.983 135.342 924.179 133.331 924.179 132.393C924.179 131.052 926.592 129.444 929.407 129.444C934.902 129.444 938.655 129.846 943.749 129.846C948.977 129.846 962.381 129.444 965.061 129.444C967.742 129.444 969.351 130.784 969.351 132.393C969.351 133.867 967.742 135.342 964.257 136.146C960.102 137.084 959.164 139.095 958.761 142.312C958.225 146.199 958.091 156.654 958.091 168.316C958.091 184.936 958.493 189.628 958.761 194.587C959.164 201.021 961.442 202.094 965.598 203.166C969.351 204.104 970.691 205.713 970.691 207.187C970.691 208.93 968.546 210.404 965.598 210.404C963.051 210.404 957.957 210.002 952.998 210.002C946.028 210.002 934.5 210.672 930.479 210.672C927.798 210.672 925.251 209.6 925.251 207.455C925.251 206.115 926.458 205.042 930.613 203.434C935.573 201.557 936.109 198.609 936.511 196.464C937.181 192.309 937.449 181.451 936.913 176.76C936.511 173.409 935.304 173.141 935.17 173.141C925.251 173.141 906.218 173.543 904.341 173.543C903.403 173.543 902.733 176.224 902.733 176.894C902.733 180.513 902.867 193.515 903.001 195.526C903.403 200.083 903.939 202.228 910.641 203.836C912.25 204.238 914.93 205.981 914.93 207.723C914.93 210.002 913.054 210.538 909.703 210.538C905.816 210.538 896.165 210.002 890.401 210.002C886.112 210.002 878.337 210.672 874.316 210.672C871.501 210.672 869.223 209.198 869.223 207.589C869.223 206.115 871.635 204.64 874.048 203.702C879.678 201.423 880.75 200.217 881.018 194.453C881.42 188.556 881.42 173.677 881.42 154.375C881.42 144.322 881.018 143.384 880.75 141.776C880.214 138.693 878.606 136.816 872.44 135.342C870.965 134.94 869.491 133.733 869.491 132.259C869.491 130.784 872.44 129.31 874.986 129.31C881.554 129.31 890.803 129.846 894.422 129.846C898.578 129.846 901.258 129.578 905.95 129.578C908.094 129.578 910.775 130.248 910.775 132.661C910.775 134.671 907.558 135.878 905.95 136.414C903.805 137.218 902.733 139.899 902.733 143.25C902.733 147.405 902.733 152.365 902.733 160.943ZM1014.33 127.299C1021.84 127.299 1028.94 129.712 1034.17 130.918C1034.98 131.052 1035.91 133.197 1035.91 134.671C1035.91 136.28 1036.85 143.652 1036.85 145.663C1036.85 150.22 1034.71 152.097 1032.83 152.097C1031.36 152.097 1030.15 149.818 1029.75 148.746C1026.8 140.703 1019.83 133.465 1012.19 133.465C1006.56 133.465 1001.47 138.693 1001.47 143.786C1001.47 149.818 1005.89 154.241 1013.53 158.128C1030.42 166.707 1040.34 174.213 1040.34 186.947C1040.34 197.938 1032.83 204.104 1028.01 207.053C1022.78 210.136 1013.93 212.415 1007.77 212.415C996.372 212.415 989.804 210.002 986.721 208.796C985.783 208.393 983.638 207.187 982.968 205.713C980.69 200.887 980.287 193.917 980.287 190.7C980.287 188.153 981.628 184.936 983.773 184.936C985.247 184.936 986.989 186.545 988.866 190.03C993.826 199.145 1001.2 205.713 1009.51 205.713C1014.33 205.713 1020.37 202.362 1020.37 196.196C1020.37 192.175 1020.63 187.751 1006.96 180.379C989.402 170.996 982.566 163.758 982.566 151.292C982.566 142.58 988.732 135.476 995.166 131.857C1000.26 129.042 1006.69 127.299 1014.33 127.299Z" fill="white"/>
<path d="M85.971 192.701V190.201H83.471V192.701H85.971ZM100.96 192.701H103.46V190.201H100.96V192.701ZM100.96 241.244V243.744H103.46V241.244H100.96ZM98.9088 241.244L97.3244 243.178L98.0154 243.744H98.9088V241.244ZM78.2925 225.992L76.874 228.051L76.8758 228.052L78.2925 225.992ZM42.8975 215.737L44.5854 217.581L44.5939 217.573L44.6022 217.565L42.8975 215.737ZM48.9457 240.297V242.797H54.7724L50.7575 238.575L48.9457 240.297ZM33.536 240.297L31.4387 241.658L32.1779 242.797H33.536V240.297ZM32.116 202.694L33.9758 204.364L33.9828 204.356L32.116 202.694ZM85.971 216.368L84.4218 218.33L88.471 221.527V216.368H85.971ZM85.971 195.201H100.96V190.201H85.971V195.201ZM98.46 192.701V241.244H103.46V192.701H98.46ZM100.96 238.744H98.9088V243.744H100.96V238.744ZM100.493 239.31C94.9869 234.799 88.054 229.672 79.7092 223.932L76.8758 228.052C85.1503 233.743 91.9616 238.784 97.3244 243.178L100.493 239.31ZM79.711 223.934C71.3822 218.194 65.2676 214.427 61.5037 212.809L59.5285 217.402C62.777 218.799 68.5133 222.29 76.874 228.051L79.711 223.934ZM61.5037 212.809C57.7344 211.188 53.9979 210.344 50.3131 210.344V215.344C53.2199 215.344 56.2855 216.008 59.5285 217.402L61.5037 212.809ZM50.3131 210.344C46.817 210.344 43.7328 211.54 41.1928 213.908L44.6022 217.565C46.1996 216.076 48.0591 215.344 50.3131 215.344V210.344ZM41.2096 213.892C38.6462 216.239 37.2946 219.195 37.2946 222.626H42.2946C42.2946 220.658 43.0115 219.021 44.5854 217.581L41.2096 213.892ZM37.2946 222.626C37.2946 228.939 40.8622 235.424 47.134 242.02L50.7575 238.575C44.8277 232.338 42.2946 227.042 42.2946 222.626H37.2946ZM48.9457 237.797H33.536V242.797H48.9457V237.797ZM35.6333 238.937C31.1519 232.029 29.0412 225.642 29.0412 219.734H24.0412C24.0412 226.868 26.5937 234.19 31.4387 241.658L35.6333 238.937ZM29.0412 219.734C29.0412 212.939 30.7824 207.919 33.9758 204.364L30.2562 201.023C26.0165 205.743 24.0412 212.083 24.0412 219.734H29.0412ZM33.9828 204.356C37.1469 200.804 41.5208 198.935 47.4205 198.935V193.935C40.3473 193.935 34.5182 196.238 30.2492 201.031L33.9828 204.356ZM47.4205 198.935C51.2805 198.935 56.2941 200.398 62.5629 203.639C68.7964 206.862 76.0784 211.742 84.4218 218.33L87.5203 214.406C79.034 207.705 71.4761 202.619 64.8594 199.198C58.278 195.795 52.4312 193.935 47.4205 193.935V198.935ZM88.471 216.368V192.701H83.471V216.368H88.471ZM36.5864 139.635L37.9477 141.732L37.9554 141.727L36.5864 139.635ZM91.8614 139.425L90.5235 141.536L91.8614 139.425ZM91.914 176.292L93.2957 178.376L93.3033 178.37L91.914 176.292ZM36.4812 176.187L35.0719 178.252L35.0742 178.253L36.4812 176.187ZM82.8155 151.416L83.6958 149.076L83.6882 149.073L82.8155 151.416ZM45.422 151.416L46.313 153.751L46.3276 153.746L46.3421 153.74L45.422 151.416ZM45.3168 164.511L44.3467 166.815L44.3588 166.82L45.3168 164.511ZM82.7629 164.511L83.6481 166.849L83.6619 166.844L83.6756 166.839L82.7629 164.511ZM29.0412 157.832C29.0412 150.921 31.9389 145.633 37.9477 141.732L35.2251 137.538C27.8403 142.332 24.0412 149.176 24.0412 157.832H29.0412ZM37.9554 141.727C44.1039 137.703 52.6658 135.561 63.8821 135.561V130.561C52.0977 130.561 42.4626 132.801 35.2174 137.543L37.9554 141.727ZM63.8821 135.561C75.5887 135.561 84.3815 137.645 90.5235 141.536L93.1993 137.313C85.9477 132.719 76.0876 130.561 63.8821 130.561V135.561ZM90.5235 141.536C96.5011 145.323 99.4066 150.594 99.4066 157.622H104.407C104.407 148.871 100.615 142.011 93.1993 137.313L90.5235 141.536ZM99.4066 157.622C99.4066 164.779 96.4944 170.223 90.5247 174.214L93.3033 178.37C100.657 173.455 104.407 166.453 104.407 157.622H99.4066ZM90.5323 174.209C84.4314 178.254 75.7594 180.419 64.2502 180.419V185.419C76.3026 185.419 86.0731 183.165 93.2957 178.376L90.5323 174.209ZM64.2502 180.419C52.5972 180.419 43.9065 178.218 37.8882 174.12L35.0742 178.253C42.2392 183.132 52.0612 185.419 64.2502 185.419V180.419ZM37.8906 174.122C31.9137 170.042 29.0412 164.681 29.0412 157.832H24.0412C24.0412 166.411 27.7954 173.285 35.0719 178.252L37.8906 174.122ZM90.6273 157.832C90.6273 155.815 90.0052 153.971 88.7251 152.425C87.4794 150.92 85.7322 149.842 83.6958 149.076L81.9351 153.756C83.44 154.322 84.3487 154.979 84.8736 155.613C85.3641 156.206 85.6273 156.903 85.6273 157.832H90.6273ZM83.6882 149.073C79.6369 147.564 72.5136 146.917 62.725 146.917V151.917C72.571 151.917 78.8414 152.603 81.9427 153.758L83.6882 149.073ZM62.725 146.917C54.5376 146.917 48.3477 147.569 44.5019 149.091L46.3421 153.74C49.2282 152.598 54.5736 151.917 62.725 151.917V146.917ZM44.531 149.08C42.5375 149.84 40.8332 150.936 39.6268 152.479C38.396 154.052 37.8205 155.916 37.8205 157.937H42.8205C42.8205 156.908 43.0952 156.16 43.565 155.559C44.059 154.928 44.9055 154.288 46.313 153.751L44.531 149.08ZM37.8205 157.937C37.8205 159.926 38.3879 161.761 39.5792 163.329C40.7472 164.865 42.4005 165.996 44.3467 166.815L46.2869 162.207C44.9023 161.624 44.0574 160.958 43.56 160.303C43.0858 159.679 42.8205 158.929 42.8205 157.937H37.8205ZM44.3588 166.82C46.3445 167.644 49.095 168.187 52.4468 168.536C55.8418 168.89 60.0287 169.062 64.9865 169.062V164.062C60.127 164.062 56.1269 163.893 52.9654 163.563C49.7606 163.229 47.5849 162.746 46.2749 162.202L44.3588 166.82ZM64.9865 169.062C73.2642 169.062 79.5824 168.389 83.6481 166.849L81.8776 162.173C78.7206 163.369 73.1879 164.062 64.9865 164.062V169.062ZM83.6756 166.839C85.7347 166.031 87.4898 164.906 88.7354 163.355C90.0112 161.767 90.6273 159.885 90.6273 157.832H85.6273C85.6273 158.83 85.3494 159.586 84.837 160.224C84.2944 160.9 83.3673 161.589 81.8501 162.184L83.6756 166.839ZM85.971 73.8413V71.3413H83.471V73.8413H85.971ZM100.96 73.8413H103.46V71.3413H100.96V73.8413ZM100.96 122.384V124.884H103.46V122.384H100.96ZM98.9088 122.384L97.3244 124.318L98.0154 124.884H98.9088V122.384ZM78.2925 107.133L76.874 109.191L76.8758 109.192L78.2925 107.133ZM42.8975 96.877L44.5854 98.7211L44.5939 98.7134L44.6022 98.7056L42.8975 96.877ZM48.9457 121.438V123.938H54.7724L50.7575 119.715L48.9457 121.438ZM33.536 121.438L31.4387 122.798L32.1779 123.938H33.536V121.438ZM32.116 83.8339L33.9758 85.5046L33.9828 85.4968L32.116 83.8339ZM85.971 97.5081L84.4218 99.4702L88.471 102.667V97.5081H85.971ZM85.971 76.3413H100.96V71.3413H85.971V76.3413ZM98.46 73.8413V122.384H103.46V73.8413H98.46ZM100.96 119.884H98.9088V124.884H100.96V119.884ZM100.493 120.451C94.9869 115.939 88.054 110.812 79.7092 105.073L76.8758 109.192C85.1503 114.883 91.9616 119.924 97.3244 124.318L100.493 120.451ZM79.711 105.074C71.3822 99.3348 65.2676 95.5676 61.5037 93.9492L59.5285 98.5425C62.777 99.9394 68.5133 103.43 76.874 109.191L79.711 105.074ZM61.5037 93.9492C57.7344 92.3284 53.9979 91.4843 50.3131 91.4843V96.4843C53.2199 96.4843 56.2855 97.148 59.5285 98.5425L61.5037 93.9492ZM50.3131 91.4843C46.817 91.4843 43.7328 92.6806 41.1928 95.0483L44.6022 98.7056C46.1996 97.2165 48.0591 96.4843 50.3131 96.4843V91.4843ZM41.2096 95.0328C38.6462 97.3789 37.2946 100.335 37.2946 103.767H42.2946C42.2946 101.798 43.0115 100.162 44.5854 98.7211L41.2096 95.0328ZM37.2946 103.767C37.2946 110.08 40.8622 116.564 47.134 123.16L50.7575 119.715C44.8277 113.479 42.2946 108.182 42.2946 103.767H37.2946ZM48.9457 118.938H33.536V123.938H48.9457V118.938ZM35.6333 120.077C31.1519 113.17 29.0412 106.783 29.0412 100.874H24.0412C24.0412 108.008 26.5937 115.331 31.4387 122.798L35.6333 120.077ZM29.0412 100.874C29.0412 94.079 30.7824 89.0596 33.9758 85.5046L30.2562 82.1633C26.0165 86.8829 24.0412 93.2235 24.0412 100.874H29.0412ZM33.9828 85.4968C37.1469 81.9446 41.5208 80.0754 47.4205 80.0754V75.0754C40.3473 75.0754 34.5182 77.3786 30.2492 82.1711L33.9828 85.4968ZM47.4205 80.0754C51.2805 80.0754 56.2941 81.538 62.5629 84.7793C68.7964 88.0023 76.0784 92.8823 84.4218 99.4702L87.5203 95.546C79.034 88.8454 71.4761 83.759 64.8594 80.3379C58.278 76.935 52.4312 75.0754 47.4205 75.0754V80.0754ZM88.471 97.5081V73.8413H83.471V97.5081H88.471ZM69.2991 46.9138V49.4138H71.7011L71.7971 47.0137L69.2991 46.9138ZM56.3613 46.9138H53.8613V49.4138H56.3613V46.9138ZM53.7842 39.6034L51.9486 41.3006L51.9566 41.3093L51.9648 41.3179L53.7842 39.6034ZM42.6872 60.6931V63.1931H46.6933L44.9328 59.5945L42.6872 60.6931ZM29.7493 60.6931L27.4601 61.6978L28.1163 63.1931H29.7493V60.6931ZM31.5901 26.9286L33.5669 28.459L33.5746 28.449L31.5901 26.9286ZM61.5154 31.2938L59.3255 32.4998L61.8978 37.1704L63.8431 32.2058L61.5154 31.2938ZM96.0688 25.5086L97.9999 23.9208L97.9929 23.9123L96.0688 25.5086ZM97.7518 62.5339V65.0339H99.2925L99.985 63.6576L97.7518 62.5339ZM83.4992 62.5339L81.4535 61.0967L78.6876 65.0339H83.4992V62.5339ZM86.6547 38.7094L88.5727 37.1058L88.565 37.0966L88.5573 37.0875L86.6547 38.7094ZM72.4021 38.6042L74.2161 40.3244L74.2235 40.3167L74.2308 40.3089L72.4021 38.6042ZM69.2991 44.4138H56.3613V49.4138H69.2991V44.4138ZM58.8613 46.9138C58.8613 43.3725 57.8499 40.2726 55.6037 37.8889L51.9648 41.3179C53.1547 42.5807 53.8613 44.3544 53.8613 46.9138H58.8613ZM55.6199 37.9063C53.4614 35.5715 50.7589 34.316 47.6309 34.316V39.316C49.2713 39.316 50.671 39.9188 51.9486 41.3006L55.6199 37.9063ZM47.6309 34.316C44.3985 34.316 41.6667 35.6564 39.5983 38.1744L43.4619 41.3481C44.6193 39.9391 45.9547 39.316 47.6309 39.316V34.316ZM39.5983 38.1744C37.5524 40.6651 36.6109 43.7481 36.6109 47.2294H41.6109C41.6109 44.68 42.2822 42.7843 43.4619 41.3481L39.5983 38.1744ZM36.6109 47.2294C36.6109 51.8147 37.9416 56.6817 40.4415 61.7917L44.9328 59.5945C42.6643 54.9574 41.6109 50.8485 41.6109 47.2294H36.6109ZM42.6872 58.1931H29.7493V63.1931H42.6872V58.1931ZM32.0386 59.6885C30.0622 55.1848 29.0412 49.9446 29.0412 43.916H24.0412C24.0412 50.5097 25.159 56.4542 27.4601 61.6978L32.0386 59.6885ZM29.0412 43.916C29.0412 37.3417 30.6223 32.2625 33.5669 28.459L29.6133 25.3981C25.826 30.29 24.0412 36.5358 24.0412 43.916H29.0412ZM33.5746 28.449C36.4515 24.6939 40.0423 22.9071 44.5279 22.9071V17.9071C38.4248 17.9071 33.3904 20.4679 29.6056 25.4082L33.5746 28.449ZM44.5279 22.9071C50.8087 22.9071 55.6983 25.9136 59.3255 32.4998L63.7053 30.0878C59.3383 22.1584 52.903 17.9071 44.5279 17.9071V22.9071ZM63.8431 32.2058C65.3819 28.2786 67.5182 25.504 70.1693 23.6948C72.8202 21.8857 76.1811 20.9085 80.3962 20.9085V15.9085C75.39 15.9085 70.9935 17.079 67.3508 19.5649C63.7082 22.0508 61.0148 25.7188 59.1877 30.3817L63.8431 32.2058ZM80.3962 20.9085C86.2252 20.9085 90.7247 22.9824 94.1448 27.1048L97.9929 23.9123C93.5591 18.568 87.6101 15.9085 80.3962 15.9085V20.9085ZM94.1378 27.0963C97.564 31.2633 99.4066 36.9918 99.4066 44.5472H104.407C104.407 36.1844 102.357 29.2205 97.9999 23.9208L94.1378 27.0963ZM99.4066 44.5472C99.4066 50.6644 98.1038 56.2724 95.5186 61.4102L99.985 63.6576C102.94 57.7859 104.407 51.4027 104.407 44.5472H99.4066ZM97.7518 60.0339H83.4992V65.0339H97.7518V60.0339ZM85.5448 63.971C89.6154 58.1768 91.837 52.5085 91.837 47.019H86.837C86.837 51.1365 85.1667 55.8114 81.4535 61.0967L85.5448 63.971ZM91.837 47.019C91.837 43.1655 90.8146 39.7873 88.5727 37.1058L84.7368 40.3129C86.0712 41.909 86.837 44.0705 86.837 47.019H91.837ZM88.5573 37.0875C86.2466 34.377 83.1952 33.0012 79.6073 33.0012V38.0012C81.7696 38.0012 83.4164 38.7642 84.7522 40.3312L88.5573 37.0875ZM79.6073 33.0012C76.0518 33.0012 72.9835 34.3141 70.5734 36.8995L74.2308 40.3089C75.6774 38.757 77.4126 38.0012 79.6073 38.0012V33.0012ZM70.588 36.8839C68.1457 39.4595 66.9592 42.8605 66.8011 46.8139L71.7971 47.0137C71.9195 43.9548 72.8017 41.816 74.2161 40.3244L70.588 36.8839Z" fill="white"/>
<path d="M154.46 12.3718L154.25 244.402" stroke="white" stroke-width="2" stroke-miterlimit="10" stroke-linecap="round"/>
</svg>
