<svg width="928" height="271" viewBox="0 0 928 271" fill="none" xmlns="http://www.w3.org/2000/svg">
<path d="M61.9767 194.852V192.352H59.4767V194.852H61.9767ZM76.9656 194.852H79.4656V192.352H76.9656V194.852ZM76.9656 243.395V245.895H79.4656V243.395H76.9656ZM74.9146 243.395L73.3301 245.329L74.0212 245.895H74.9146V243.395ZM54.2982 228.143L52.8797 230.202L52.8815 230.203L54.2982 228.143ZM18.9033 217.888L20.5912 219.732L20.5996 219.724L20.608 219.716L18.9033 217.888ZM24.9514 242.448V244.948H30.7782L26.7632 240.726L24.9514 242.448ZM9.54177 242.448L7.44447 243.809L8.18357 244.948H9.54177V242.448ZM8.12167 204.845L9.98158 206.515L9.98848 206.507L8.12167 204.845ZM61.9767 218.519L60.4275 220.481L64.4767 223.678V218.519H61.9767ZM61.9767 197.352H76.9656V192.352H61.9767V197.352ZM74.4657 194.852V243.395H79.4656V194.852H74.4657ZM76.9656 240.895H74.9146V245.895H76.9656V240.895ZM76.499 241.461C70.9927 236.95 64.0597 231.823 55.7149 226.083L52.8815 230.203C61.156 235.894 67.9673 240.935 73.3301 245.329L76.499 241.461ZM55.7167 226.085C47.3879 220.345 41.2733 216.578 37.5094 214.96L35.5343 219.553C38.7827 220.95 44.519 224.441 52.8797 230.202L55.7167 226.085ZM37.5094 214.96C33.7401 213.339 30.0037 212.495 26.3188 212.495V217.495C29.2257 217.495 32.2912 218.159 35.5343 219.553L37.5094 214.96ZM26.3188 212.495C22.8227 212.495 19.7385 213.691 17.1986 216.059L20.608 219.716C22.2053 218.227 24.0648 217.495 26.3188 217.495V212.495ZM17.2154 216.043C14.652 218.39 13.3003 221.346 13.3003 224.777H18.3003C18.3003 222.809 19.0173 221.172 20.5912 219.732L17.2154 216.043ZM13.3003 224.777C13.3003 231.09 16.868 237.575 23.1397 244.171L26.7632 240.726C20.8334 234.489 18.3003 229.193 18.3003 224.777H13.3003ZM24.9514 239.948H9.54177V244.948H24.9514V239.948ZM11.639 241.088C7.15757 234.18 5.04688 227.793 5.04688 221.885H0.046875C0.046875 229.019 2.59937 236.341 7.44447 243.809L11.639 241.088ZM5.04688 221.885C5.04688 215.09 6.78818 210.07 9.98158 206.515L6.26187 203.174C2.02227 207.894 0.046875 214.234 0.046875 221.885H5.04688ZM9.98848 206.507C13.1527 202.955 17.5266 201.086 23.4262 201.086V196.086C16.353 196.086 10.5239 198.389 6.25497 203.182L9.98848 206.507ZM23.4262 201.086C27.2862 201.086 32.2998 202.549 38.5686 205.79C44.8021 209.013 52.0841 213.893 60.4275 220.481L63.526 216.557C55.0397 209.856 47.4818 204.77 40.8651 201.349C34.2837 197.946 28.4369 196.086 23.4262 196.086V201.086ZM64.4767 218.519V194.852H59.4767V218.519H64.4767ZM12.5921 141.786L13.9535 143.883L13.9611 143.878L12.5921 141.786ZM67.9197 178.443L69.3014 180.527L69.309 180.521L67.9197 178.443ZM12.4869 178.338L11.0776 180.403L11.08 180.404L12.4869 178.338ZM58.8212 153.567L59.7015 151.227L59.694 151.224L58.8212 153.567ZM21.4277 153.567L22.3187 155.902L22.3333 155.897L22.3478 155.891L21.4277 153.567ZM21.3225 166.662L20.3524 168.966L20.3645 168.971L21.3225 166.662ZM58.7686 166.662L59.6539 169L59.6676 168.995L59.6813 168.99L58.7686 166.662ZM5.04688 159.983C5.04688 153.072 7.94478 147.784 13.9535 143.883L11.2308 139.689C3.84597 144.483 0.046875 151.327 0.046875 159.983H5.04688ZM13.9611 143.878C20.1096 139.854 28.6715 137.712 39.8878 137.712V132.712C28.1035 132.712 18.4683 134.952 11.2231 139.694L13.9611 143.878ZM39.8878 137.712C51.5944 137.712 60.3872 139.796 66.5292 143.687L69.205 139.464C61.9534 134.87 52.0933 132.712 39.8878 132.712V137.712ZM66.5292 143.687C72.5068 147.474 75.4124 152.745 75.4124 159.773H80.4126C80.4126 151.022 76.6206 144.162 69.205 139.464L66.5292 143.687ZM75.4124 159.773C75.4124 166.93 72.5001 172.374 66.5305 176.365L69.309 180.521C76.6626 175.606 80.4126 168.604 80.4126 159.773H75.4124ZM66.538 176.36C60.4371 180.405 51.7651 182.57 40.2559 182.57V187.57C52.3083 187.57 62.0788 185.316 69.3014 180.527L66.538 176.36ZM40.2559 182.57C28.6029 182.57 19.9122 180.369 13.8939 176.271L11.08 180.404C18.2449 185.283 28.0669 187.57 40.2559 187.57V182.57ZM13.8963 176.273C7.91937 172.193 5.04688 166.832 5.04688 159.983H0.046875C0.046875 168.562 3.80108 175.436 11.0776 180.403L13.8963 176.273ZM66.633 159.983C66.633 157.966 66.0109 156.122 64.7308 154.576C63.4851 153.071 61.7379 151.993 59.7015 151.227L57.9408 155.907C59.4457 156.473 60.3544 157.13 60.8794 157.764C61.3699 158.357 61.633 159.054 61.633 159.983H66.633ZM59.694 151.224C55.6426 149.715 48.5193 149.068 38.7307 149.068V154.068C48.5768 154.068 54.8472 154.754 57.9484 155.909L59.694 151.224ZM38.7307 149.068C30.5434 149.068 24.3534 149.72 20.5076 151.242L22.3478 155.891C25.2339 154.749 30.5793 154.068 38.7307 154.068V149.068ZM20.5367 151.231C18.5432 151.991 16.8389 153.087 15.6325 154.63C14.4018 156.203 13.8262 158.067 13.8262 160.088H18.8262C18.8262 159.059 19.1009 158.311 19.5707 157.71C20.0648 157.079 20.9112 156.439 22.3187 155.902L20.5367 151.231ZM13.8262 160.088C13.8262 162.077 14.3936 163.912 15.5849 165.48C16.7529 167.016 18.4062 168.147 20.3524 168.966L22.2927 164.358C20.908 163.775 20.0631 163.109 19.5657 162.454C19.0915 161.83 18.8262 161.08 18.8262 160.088H13.8262ZM20.3645 168.971C22.3503 169.795 25.1007 170.338 28.4525 170.687C31.8475 171.041 36.0344 171.213 40.9922 171.213V166.213C36.1327 166.213 32.1327 166.044 28.9711 165.714C25.7663 165.38 23.5906 164.897 22.2806 164.353L20.3645 168.971ZM40.9922 171.213C49.2699 171.213 55.5881 170.54 59.6539 169L57.8833 164.324C54.7263 165.52 49.1936 166.213 40.9922 166.213V171.213ZM59.6813 168.99C61.7405 168.182 63.4956 167.057 64.7411 165.506C66.0169 163.918 66.633 162.036 66.633 159.983H61.633C61.633 160.981 61.3551 161.737 60.8428 162.375C60.3002 163.051 59.373 163.74 57.8559 164.335L59.6813 168.99ZM61.9767 75.9919V73.4919H59.4767V75.9919H61.9767ZM76.9656 75.9919H79.4656V73.4919H76.9656V75.9919ZM76.9656 124.535V127.035H79.4656V124.535H76.9656ZM74.9146 124.535L73.3301 126.469L74.0212 127.035H74.9146V124.535ZM54.2982 109.284L52.8797 111.342L52.8815 111.343L54.2982 109.284ZM18.9033 99.0276L20.5912 100.872L20.5996 100.864L20.608 100.857L18.9033 99.0276ZM24.9514 123.589V126.089H30.7782L26.7632 121.866L24.9514 123.589ZM9.54177 123.589L7.44447 124.949L8.18357 126.089H9.54177V123.589ZM8.12167 85.9845L9.98158 87.6552L9.98848 87.6474L8.12167 85.9845ZM61.9767 99.6586L60.4275 101.621L64.4767 104.818V99.6586H61.9767ZM61.9767 78.4919H76.9656V73.4919H61.9767V78.4919ZM74.4657 75.9919V124.535H79.4656V75.9919H74.4657ZM76.9656 122.035H74.9146V127.035H76.9656V122.035ZM76.499 122.602C70.9927 118.09 64.0597 112.963 55.7149 107.224L52.8815 111.343C61.156 117.034 67.9673 122.075 73.3301 126.469L76.499 122.602ZM55.7167 107.225C47.3879 101.486 41.2733 97.7186 37.5094 96.0996L35.5343 100.693C38.7827 102.09 44.519 105.581 52.8797 111.342L55.7167 107.225ZM37.5094 96.0996C33.7401 94.4786 30.0037 93.6346 26.3188 93.6346V98.6346C29.2257 98.6346 32.2912 99.2986 35.5343 100.693L37.5094 96.0996ZM26.3188 93.6346C22.8227 93.6346 19.7385 94.8316 17.1986 97.1986L20.608 100.857C22.2053 99.3676 24.0648 98.6346 26.3188 98.6346V93.6346ZM17.2154 97.1836C14.652 99.5296 13.3003 102.486 13.3003 105.918H18.3003C18.3003 103.949 19.0173 102.313 20.5912 100.872L17.2154 97.1836ZM13.3003 105.918C13.3003 112.231 16.868 118.715 23.1397 125.311L26.7632 121.866C20.8334 115.63 18.3003 110.333 18.3003 105.918H13.3003ZM24.9514 121.089H9.54177V126.089H24.9514V121.089ZM11.639 122.228C7.15757 115.321 5.04688 108.934 5.04688 103.025H0.046875C0.046875 110.159 2.59937 117.482 7.44447 124.949L11.639 122.228ZM5.04688 103.025C5.04688 96.2296 6.78818 91.2102 9.98158 87.6552L6.26187 84.3139C2.02227 89.0335 0.046875 95.3746 0.046875 103.025H5.04688ZM9.98848 87.6474C13.1527 84.0952 17.5266 82.226 23.4262 82.226V77.226C16.353 77.226 10.5239 79.5291 6.25497 84.3217L9.98848 87.6474ZM23.4262 82.226C27.2862 82.226 32.2998 83.6886 38.5686 86.9299C44.8021 90.1529 52.0841 95.0326 60.4275 101.621L63.526 97.6966C55.0397 90.9959 47.4818 85.9096 40.8651 82.4884C34.2837 79.0855 28.4369 77.226 23.4262 77.226V82.226ZM64.4767 99.6586V75.9919H59.4767V99.6586H64.4767ZM45.3048 49.0644V51.5644H47.7068L47.8028 49.1643L45.3048 49.0644ZM32.367 49.0644H29.867V51.5644H32.367V49.0644ZM29.79 41.754L27.9543 43.4512L27.9624 43.4599L27.9705 43.4685L29.79 41.754ZM18.6929 62.8437V65.3437H22.699L20.9386 61.7451L18.6929 62.8437ZM5.75507 62.8437L3.46577 63.8484L4.12207 65.3437H5.75507V62.8437ZM7.59577 29.0792L9.57267 30.6096L9.58027 30.5996L7.59577 29.0792ZM37.5211 33.4444L35.3312 34.6504L37.9035 39.321L39.8488 34.3564L37.5211 33.4444ZM72.0746 27.6592L74.0056 26.0714L73.9986 26.0629L72.0746 27.6592ZM73.7575 64.6845V67.1845H75.2982L75.9907 65.8082L73.7575 64.6845ZM59.5049 64.6845L57.4592 63.2473L54.6933 67.1845H59.5049V64.6845ZM62.6605 40.8599L64.5784 39.2564L64.5708 39.2472L64.563 39.2381L62.6605 40.8599ZM48.4078 40.7548L50.2219 42.475L50.2292 42.4672L50.2365 42.4594L48.4078 40.7548ZM45.3048 46.5644H32.367V51.5644H45.3048V46.5644ZM34.867 49.0644C34.867 45.5231 33.8556 42.4232 31.6094 40.0395L27.9705 43.4685C29.1604 44.7313 29.867 46.5049 29.867 49.0644H34.867ZM31.6256 40.0569C29.4671 37.7221 26.7646 36.4666 23.6366 36.4666V41.4666C25.277 41.4666 26.6768 42.0694 27.9543 43.4512L31.6256 40.0569ZM23.6366 36.4666C20.4042 36.4666 17.6724 37.8069 15.604 40.3249L19.4677 43.4986C20.625 42.0897 21.9604 41.4666 23.6366 41.4666V36.4666ZM15.604 40.3249C13.5581 42.8157 12.6166 45.8987 12.6166 49.38H17.6166C17.6166 46.8306 18.2879 44.9348 19.4677 43.4986L15.604 40.3249ZM12.6166 49.38C12.6166 53.9653 13.9473 58.8323 16.4472 63.9423L20.9386 61.7451C18.67 57.1079 17.6166 52.9991 17.6166 49.38H12.6166ZM18.6929 60.3437H5.75507V65.3437H18.6929V60.3437ZM8.04427 61.8391C6.06787 57.3354 5.04688 52.0952 5.04688 46.0666H0.046875C0.046875 52.6603 1.16467 58.6048 3.46577 63.8484L8.04427 61.8391ZM5.04688 46.0666C5.04688 39.4922 6.62807 34.4131 9.57267 30.6096L5.61897 27.5487C1.83177 32.4406 0.046875 38.6864 0.046875 46.0666H5.04688ZM9.58027 30.5996C12.4572 26.8445 16.048 25.0577 20.5336 25.0577V20.0577C14.4306 20.0577 9.39617 22.6185 5.61127 27.5588L9.58027 30.5996ZM20.5336 25.0577C26.8144 25.0577 31.704 28.0641 35.3312 34.6504L39.711 32.2383C35.3441 24.309 28.9087 20.0577 20.5336 20.0577V25.0577ZM39.8488 34.3564C41.3876 30.4291 43.524 27.6546 46.175 25.8454C48.8259 24.0363 52.1868 23.0591 56.4019 23.0591V18.0591C51.3957 18.0591 46.9992 19.2295 43.3565 21.7155C39.714 24.2013 37.0205 27.8694 35.1934 32.5323L39.8488 34.3564ZM56.4019 23.0591C62.231 23.0591 66.7304 25.133 70.1505 29.2554L73.9986 26.0629C69.5648 20.7186 63.6159 18.0591 56.4019 18.0591V23.0591ZM70.1435 29.2469C73.5697 33.4139 75.4124 39.1424 75.4124 46.6977H80.4126C80.4126 38.335 78.3636 31.3711 74.0056 26.0714L70.1435 29.2469ZM75.4124 46.6977C75.4124 52.815 74.1095 58.423 71.5243 63.5607L75.9907 65.8082C78.9456 59.9365 80.4126 53.5533 80.4126 46.6977H75.4124ZM73.7575 62.1845H59.5049V67.1845H73.7575V62.1845ZM61.5505 66.1216C65.6211 60.3274 67.8427 54.6591 67.8427 49.1696H62.8427C62.8427 53.2871 61.1724 57.962 57.4592 63.2473L61.5505 66.1216ZM67.8427 49.1696C67.8427 45.3161 66.8203 41.9378 64.5784 39.2564L60.7425 42.4635C62.0769 44.0596 62.8427 46.2211 62.8427 49.1696H67.8427ZM64.563 39.2381C62.2524 36.5276 59.2009 35.1518 55.613 35.1518V40.1518C57.7753 40.1518 59.4221 40.9148 60.7579 42.4818L64.563 39.2381ZM55.613 35.1518C52.0575 35.1518 48.9893 36.4647 46.5791 39.0501L50.2365 42.4594C51.6832 40.9075 53.4183 40.1518 55.613 40.1518V35.1518ZM46.5938 39.0345C44.1514 41.6101 42.965 45.0111 42.8068 48.9645L47.8028 49.1643C47.9252 46.1054 48.8074 43.9666 50.2219 42.475L46.5938 39.0345Z" fill="white"/>
<path d="M130.622 14.5225L130.412 246.553" stroke="white" stroke-width="2" stroke-miterlimit="10" stroke-linecap="round"/>
<path d="M180.015 19.1385C180.015 18.3785 181.307 17.3145 183.055 17.3145C185.563 17.3145 190.427 17.7705 193.239 17.7705C195.975 17.7705 199.395 17.6945 201.447 17.6945C203.195 17.6945 204.563 18.6065 204.563 19.8225C204.563 20.6585 203.119 21.3425 201.903 21.8745C200.459 22.4825 200.307 23.3185 200.839 25.1425C201.599 27.8785 208.971 45.2065 209.883 46.4225C210.187 46.8025 210.643 47.0305 210.947 46.4985C214.063 39.5825 217.559 31.0705 219.231 26.1305C220.067 23.6225 219.839 22.7865 217.103 21.7985C215.659 21.2665 214.443 20.5065 214.443 19.4425C214.443 18.4545 215.735 17.6945 217.559 17.6945C219.231 17.6945 221.435 17.7705 223.031 17.7705C225.919 17.7705 228.199 17.3905 230.707 17.3905C232.455 17.3905 233.747 18.2265 233.747 19.0625C233.747 20.2785 232.759 20.9625 231.087 21.4185C226.983 22.6345 225.843 24.7625 224.171 27.8785C221.891 32.1345 215.811 45.4345 212.999 52.8825C211.403 57.0625 210.035 60.7105 209.579 61.6985C209.199 62.6105 206.767 64.8145 205.855 64.8145C204.411 64.8145 203.651 64.0545 203.119 62.4585C202.739 61.3185 201.219 57.4425 199.775 53.6425C198.255 49.6145 190.959 32.7425 187.387 25.2185C186.475 23.2425 185.563 22.5585 182.599 21.3425C181.231 20.8105 180.015 20.0505 180.015 19.1385ZM253.805 17.7705H261.633C268.549 17.7705 269.613 17.7705 271.361 17.3905C272.197 17.2385 272.729 17.6945 272.957 18.0745C273.413 18.8345 274.021 24.6105 274.021 26.2825C274.021 28.2585 273.109 28.7145 272.653 28.7145C271.285 28.7145 270.525 27.8785 269.613 25.8265C268.169 22.7105 267.105 22.1785 266.497 22.1785C262.165 22.1785 257.985 22.4065 256.921 22.4065C256.541 22.4065 255.933 23.2425 255.933 23.5465C255.857 24.9905 255.705 30.4625 255.705 35.7065C255.705 36.9225 255.933 37.6825 256.313 37.7585C257.149 37.9865 259.809 37.9105 261.177 37.8345C264.597 37.6065 265.661 36.3905 266.497 34.4905C266.953 33.3505 267.713 32.4385 268.549 32.4385C269.613 32.4385 270.297 33.5025 270.145 35.7065C270.069 36.6185 269.993 38.3665 269.993 40.1145C269.993 41.8625 270.145 43.6105 270.221 44.7505C270.373 46.8025 269.233 47.7145 268.473 47.7145C267.789 47.7145 266.801 46.8785 266.117 45.3585C265.357 43.6105 265.129 43.0785 263.533 42.9265C260.417 42.6985 259.961 42.5465 256.541 42.5465C256.161 42.5465 255.705 43.6105 255.705 45.5105C255.705 47.5625 255.933 51.9705 256.009 53.6425C256.161 55.8465 256.465 56.6825 256.693 56.9865C257.453 58.1265 261.101 59.1145 264.749 59.1145C265.965 59.1145 268.093 58.8865 269.841 57.8985C271.285 57.1385 272.045 56.2265 273.717 53.9465C274.933 52.2745 275.769 50.4505 276.985 50.4505C278.429 50.4505 278.885 52.6545 278.581 54.2505C278.125 56.4545 276.301 61.5465 275.997 62.2305C275.769 62.7625 274.173 63.5985 273.717 63.5985C272.729 63.5985 269.689 63.2185 255.857 63.2185C251.069 63.2185 241.493 63.5225 238.225 63.5225C236.629 63.5225 235.489 62.9145 235.489 62.3065C235.489 61.3945 236.097 60.3305 237.693 59.8745C242.937 58.4305 243.089 56.6825 243.241 55.3145C243.545 51.6665 243.621 50.0705 243.621 38.3665C243.621 26.6625 243.469 26.2065 243.241 24.8385C242.861 22.5585 241.873 21.7225 238.833 20.9625C236.857 20.5065 236.553 19.4425 236.553 18.9105C236.553 17.9225 238.073 17.3905 239.061 17.3905C240.353 17.3905 248.789 17.7705 253.805 17.7705ZM326.893 29.7025C326.893 32.5905 325.449 35.8585 323.473 37.5305C322.333 38.5185 321.269 38.7465 319.673 39.6585C319.293 39.8865 319.673 41.3305 319.901 41.7865C321.573 45.1305 324.993 50.7545 327.881 54.4025C330.541 57.7465 332.897 59.0385 335.253 59.9505C336.013 60.2545 337.001 60.9385 337.001 61.6225C337.001 63.5985 334.569 64.2065 332.517 64.2065C326.437 64.2065 320.585 63.5985 315.265 56.6825C312.529 53.1105 310.477 49.3105 308.349 45.8905C307.133 43.9145 306.069 43.5345 304.853 43.5345C304.321 43.5345 304.245 44.4465 304.245 44.6745C304.245 50.7545 304.245 52.5785 304.473 55.2385C304.701 57.9745 305.461 58.0505 308.501 59.4945C309.869 60.1785 310.781 61.0145 310.781 61.6225C310.781 62.4585 309.185 63.5225 307.893 63.5225C305.993 63.5225 300.141 63.2185 297.481 63.2185C295.125 63.2185 291.553 63.5225 288.741 63.5225C286.917 63.5225 285.853 62.6105 285.853 61.8505C285.853 60.7865 286.917 60.0265 288.361 59.6465C291.477 58.7345 292.237 58.1265 292.389 54.3265C292.465 51.5905 292.465 50.2225 292.465 36.5425C292.465 27.1945 292.237 26.7385 292.085 25.1425C291.933 23.6225 291.249 22.1025 288.361 21.5705C286.917 21.2665 286.005 20.1265 286.005 19.5945C286.005 18.3025 287.525 17.6185 289.349 17.6185C293.225 17.6185 294.517 17.7705 295.505 17.7705C300.521 17.7705 304.701 17.3145 310.021 17.3145C316.709 17.3145 320.205 18.7585 322.029 20.1265C325.297 22.6345 326.893 25.6745 326.893 29.7025ZM315.189 30.9945C315.189 26.2065 311.921 21.4945 306.449 21.4945C306.145 21.4945 305.005 21.7985 304.549 22.1025C304.321 22.2545 304.093 22.6345 304.093 23.3185C304.093 25.4465 304.245 32.5145 304.245 37.6065C304.245 37.9105 304.549 38.8225 304.853 38.9745C305.917 39.4305 306.905 39.6585 308.197 39.6585C309.869 39.6585 312.605 37.9105 313.061 37.6065C313.517 37.3025 315.189 34.6425 315.189 30.9945ZM350.615 17.7705H373.871C378.127 17.7705 380.027 17.2385 380.331 16.8585C381.243 15.7185 382.079 15.0345 382.611 15.0345C383.067 15.0345 385.043 16.2505 385.043 17.4665C385.043 17.9985 384.131 22.7865 384.131 27.8785C384.131 29.3985 382.991 31.0705 381.547 31.0705C380.483 31.0705 379.875 29.1705 379.723 28.4865C378.583 23.4705 377.291 23.3185 374.555 23.0145C373.415 22.8625 373.187 22.6345 366.727 22.6345C366.347 22.6345 366.119 23.2425 366.043 24.0025C365.967 25.0665 365.511 35.3265 365.511 40.1145C365.511 44.7505 365.435 49.7665 365.663 52.5025C366.119 58.0505 367.411 58.2785 370.527 59.4185C371.895 59.9505 373.187 60.6345 373.187 61.5465C373.187 63.2185 371.363 63.5985 369.843 63.5985C369.083 63.5985 360.723 63.2185 356.163 63.2185C353.959 63.2185 349.855 63.4465 347.803 63.4465C346.207 63.4465 344.687 62.7625 344.687 61.3945C344.687 60.7865 345.447 59.7225 347.195 59.2665C351.907 57.9745 353.199 56.9865 353.199 52.8065C353.199 51.2105 353.351 41.1025 353.351 36.1625C353.351 31.4505 353.427 26.4345 353.427 24.0785C353.427 23.4705 352.667 22.6345 352.439 22.6345C350.539 22.6345 347.727 22.6345 345.751 22.7105C343.623 22.7865 341.571 22.7865 339.519 28.4865C339.063 29.7785 338.151 30.7665 337.315 30.7665C336.327 30.7665 335.187 29.3985 335.187 27.5745C335.187 25.2185 336.023 21.7985 336.023 17.6185C336.023 16.3265 337.163 15.1865 338.075 15.1865C338.303 15.1865 339.215 15.6425 339.747 16.0225C341.039 17.0865 342.179 17.5425 344.383 17.6185C347.499 17.7705 348.183 17.7705 350.615 17.7705ZM397.476 46.5745V29.0185C397.476 22.6345 397.172 21.7985 393.068 20.8865C391.776 20.5825 391.016 19.6705 391.016 18.9865C391.016 17.8465 392.84 17.4665 393.6 17.4665C395.044 17.4665 399.832 17.7705 403.176 17.7705C407.736 17.7705 411.46 17.5425 413.664 17.5425C414.804 17.5425 416.02 18.1505 416.02 19.1385C416.02 20.0505 414.728 20.6585 414.12 20.8105C410.396 21.6465 410.168 22.6345 409.864 26.5865C409.636 29.8545 409.56 36.4665 409.56 41.6345C409.56 49.9185 409.712 52.8825 409.712 53.8705C409.864 57.4425 410.244 58.9625 414.044 59.8745C415.488 60.2545 416.476 61.0145 416.476 62.0785C416.476 62.9905 414.804 63.4465 413.892 63.4465C413.132 63.4465 405.76 63.2185 403.176 63.2185C400.516 63.2185 394.968 63.5225 393.6 63.5225C392.612 63.5225 391.016 63.2945 391.016 62.0785C391.016 61.2425 392.232 60.2545 393.296 59.9505C396.336 58.9625 396.792 58.0505 397.172 55.7705C397.4 54.1745 397.476 52.8065 397.476 46.5745ZM451.404 16.2505C454.9 16.2505 458.396 17.0105 460.448 17.5425C462.348 18.0745 465.084 18.9105 465.692 18.9105C466.072 18.9105 466.984 19.8985 466.984 20.3545C466.984 23.0905 467.744 26.9665 467.744 28.8665C467.744 30.9945 466.3 32.2105 465.312 32.2105C464.704 32.2105 464.324 31.6025 463.716 29.9305C462.576 26.8145 462.12 25.1425 459.308 23.0905C456.952 21.3425 454.292 20.0505 451.024 20.0505C447.756 20.0505 443.576 21.9505 441.068 24.9905C437.8 28.8665 436.28 34.6425 436.28 39.2025C436.28 44.9785 438.18 50.1465 440.384 53.2625C443.12 57.1385 448.136 59.9505 452.696 59.9505C454.596 59.9505 458.016 58.7345 459.536 57.8985C460.144 57.5185 461.512 56.0745 463.412 53.0345C464.856 50.7545 465.768 49.8425 466.528 49.8425C467.972 49.8425 468.124 51.2865 468.048 52.8825C468.048 53.5665 466.604 58.6585 466.604 60.1025C466.604 60.3305 465.996 61.3945 465.768 61.5465C463.108 62.8385 456.344 64.5865 451.1 64.5865C442.664 64.5865 433.696 62.0785 428.3 56.1505C424.956 52.5025 422.6 47.4865 422.6 40.7225C422.6 32.5905 426.248 25.7505 432.936 21.1145C436.356 18.7585 443.5 16.2505 451.404 16.2505ZM503.342 16.2505C504.71 16.2505 505.166 18.5305 507.142 23.6225C511.246 34.6425 517.478 49.3865 519.53 54.0225C521.43 58.2785 522.494 58.3545 525.458 59.5705C527.206 60.3305 527.814 61.4705 527.814 62.3065C527.814 63.2185 526.598 63.5985 525.154 63.5985C522.798 63.5985 516.87 63.2185 513.146 63.2185C509.878 63.2185 507.826 63.5985 505.09 63.5985C502.962 63.5985 502.278 62.6865 502.278 62.1545C502.278 61.2425 503.19 60.1785 504.634 59.5705C507.294 58.4305 507.294 56.7585 506.914 55.4665C506.23 53.5665 506.154 53.1865 505.166 50.9065C505.09 50.6785 504.406 49.8425 503.19 49.6905C501.898 49.5385 492.398 49.3865 490.65 49.7665C490.194 49.8425 489.586 50.6025 489.434 50.9065C488.826 52.4265 488.218 55.3145 488.218 56.3025C488.218 57.6705 489.206 58.8105 491.638 59.6465C492.702 60.0265 493.842 60.6345 493.842 61.6225C493.842 62.0025 492.778 63.4465 490.802 63.4465C489.89 63.4465 488.218 63.2185 485.786 63.2185C482.974 63.2185 479.858 63.5985 476.666 63.5985C474.994 63.5985 473.854 62.8385 473.854 61.9265C473.854 61.1665 474.462 60.4065 476.134 59.7225C478.946 58.5825 480.466 58.3545 482.898 53.2625C484.798 49.2345 490.194 35.5545 494.754 23.5465C494.83 23.3185 494.982 22.7865 494.982 21.9505C494.982 21.6465 495.362 21.1145 495.666 20.8865C496.654 20.2785 500.454 17.7705 501.29 17.0865C501.746 16.6305 502.962 16.2505 503.342 16.2505ZM501.822 44.5985C502.202 44.5985 502.658 43.9145 502.582 43.6865C501.442 39.9625 498.25 31.8305 497.566 30.6145C497.262 30.0825 496.806 30.3105 496.578 30.6145C495.362 33.1225 492.094 42.4705 491.866 43.6105C491.79 44.0665 492.17 44.6745 492.702 44.6745C493.69 44.6745 500.758 44.6745 501.822 44.5985ZM531.811 19.1385C531.811 17.9225 533.255 17.6185 534.243 17.6185C534.623 17.6185 541.235 17.7705 544.275 17.7705C547.315 17.7705 553.243 17.5425 554.763 17.5425C556.359 17.5425 557.271 18.3025 557.271 19.2145C557.271 20.1265 556.283 20.8865 554.687 21.1905C550.431 22.1025 550.203 23.7745 550.127 25.3705C549.975 27.1185 549.671 31.3745 549.671 37.9105C549.671 45.8905 549.899 53.1865 550.051 55.7705C550.127 56.9105 551.951 58.5065 554.839 59.1905C555.903 59.4185 558.411 59.4945 561.147 58.9625C563.427 58.5065 567.227 54.0225 568.823 51.1345C569.583 49.6905 570.419 49.1585 570.647 49.1585C572.015 49.1585 572.927 50.7545 572.547 52.1225C572.015 54.0225 570.571 60.0265 570.039 61.5465C569.583 62.6865 568.215 63.4465 566.695 63.4465C564.035 63.4465 555.979 63.2185 546.555 63.2185C541.387 63.2185 533.787 63.5985 532.115 63.5985C530.443 63.5985 529.151 62.7625 529.151 61.6985C529.151 60.6345 530.291 60.1025 531.583 59.8745C536.675 58.8865 537.207 57.0625 537.359 55.3145C537.511 53.0345 537.663 49.8425 537.663 40.7985C537.663 27.0425 537.739 27.1945 537.587 25.1425C537.359 22.6345 536.523 22.2545 534.015 21.1905C532.419 20.5065 531.811 19.9745 531.811 19.1385ZM633.714 29.7025C633.714 32.5905 632.27 35.8585 630.294 37.5305C629.154 38.5185 628.09 38.7465 626.494 39.6585C626.114 39.8865 626.494 41.3305 626.722 41.7865C628.394 45.1305 631.814 50.7545 634.702 54.4025C637.362 57.7465 639.718 59.0385 642.074 59.9505C642.834 60.2545 643.822 60.9385 643.822 61.6225C643.822 63.5985 641.39 64.2065 639.338 64.2065C633.258 64.2065 627.406 63.5985 622.086 56.6825C619.35 53.1105 617.298 49.3105 615.17 45.8905C613.954 43.9145 612.89 43.5345 611.674 43.5345C611.142 43.5345 611.066 44.4465 611.066 44.6745C611.066 50.7545 611.066 52.5785 611.294 55.2385C611.522 57.9745 612.282 58.0505 615.322 59.4945C616.69 60.1785 617.602 61.0145 617.602 61.6225C617.602 62.4585 616.006 63.5225 614.714 63.5225C612.814 63.5225 606.962 63.2185 604.302 63.2185C601.946 63.2185 598.374 63.5225 595.562 63.5225C593.738 63.5225 592.674 62.6105 592.674 61.8505C592.674 60.7865 593.738 60.0265 595.182 59.6465C598.298 58.7345 599.058 58.1265 599.21 54.3265C599.286 51.5905 599.286 50.2225 599.286 36.5425C599.286 27.1945 599.058 26.7385 598.906 25.1425C598.754 23.6225 598.07 22.1025 595.182 21.5705C593.738 21.2665 592.826 20.1265 592.826 19.5945C592.826 18.3025 594.346 17.6185 596.17 17.6185C600.046 17.6185 601.338 17.7705 602.326 17.7705C607.342 17.7705 611.522 17.3145 616.842 17.3145C623.53 17.3145 627.026 18.7585 628.85 20.1265C632.118 22.6345 633.714 25.6745 633.714 29.7025ZM622.01 30.9945C622.01 26.2065 618.742 21.4945 613.27 21.4945C612.966 21.4945 611.826 21.7985 611.37 22.1025C611.142 22.2545 610.914 22.6345 610.914 23.3185C610.914 25.4465 611.066 32.5145 611.066 37.6065C611.066 37.9105 611.37 38.8225 611.674 38.9745C612.738 39.4305 613.726 39.6585 615.018 39.6585C616.69 39.6585 619.426 37.9105 619.882 37.6065C620.338 37.3025 622.01 34.6425 622.01 30.9945ZM662.898 17.7705H670.726C677.642 17.7705 678.706 17.7705 680.454 17.3905C681.29 17.2385 681.822 17.6945 682.05 18.0745C682.506 18.8345 683.114 24.6105 683.114 26.2825C683.114 28.2585 682.202 28.7145 681.746 28.7145C680.378 28.7145 679.618 27.8785 678.706 25.8265C677.262 22.7105 676.198 22.1785 675.59 22.1785C671.258 22.1785 667.078 22.4065 666.014 22.4065C665.634 22.4065 665.026 23.2425 665.026 23.5465C664.95 24.9905 664.798 30.4625 664.798 35.7065C664.798 36.9225 665.026 37.6825 665.406 37.7585C666.242 37.9865 668.902 37.9105 670.27 37.8345C673.69 37.6065 674.754 36.3905 675.59 34.4905C676.046 33.3505 676.806 32.4385 677.642 32.4385C678.706 32.4385 679.39 33.5025 679.238 35.7065C679.162 36.6185 679.086 38.3665 679.086 40.1145C679.086 41.8625 679.238 43.6105 679.314 44.7505C679.466 46.8025 678.326 47.7145 677.566 47.7145C676.882 47.7145 675.894 46.8785 675.21 45.3585C674.45 43.6105 674.222 43.0785 672.626 42.9265C669.51 42.6985 669.054 42.5465 665.634 42.5465C665.254 42.5465 664.798 43.6105 664.798 45.5105C664.798 47.5625 665.026 51.9705 665.102 53.6425C665.254 55.8465 665.558 56.6825 665.786 56.9865C666.546 58.1265 670.194 59.1145 673.842 59.1145C675.058 59.1145 677.186 58.8865 678.934 57.8985C680.378 57.1385 681.138 56.2265 682.81 53.9465C684.026 52.2745 684.862 50.4505 686.078 50.4505C687.522 50.4505 687.978 52.6545 687.674 54.2505C687.218 56.4545 685.394 61.5465 685.09 62.2305C684.862 62.7625 683.266 63.5985 682.81 63.5985C681.822 63.5985 678.782 63.2185 664.95 63.2185C660.162 63.2185 650.586 63.5225 647.318 63.5225C645.722 63.5225 644.582 62.9145 644.582 62.3065C644.582 61.3945 645.19 60.3305 646.786 59.8745C652.03 58.4305 652.182 56.6825 652.334 55.3145C652.638 51.6665 652.714 50.0705 652.714 38.3665C652.714 26.6625 652.562 26.2065 652.334 24.8385C651.954 22.5585 650.966 21.7225 647.926 20.9625C645.95 20.5065 645.646 19.4425 645.646 18.9105C645.646 17.9225 647.166 17.3905 648.154 17.3905C649.446 17.3905 657.882 17.7705 662.898 17.7705ZM711.363 17.7705H719.191C726.107 17.7705 727.171 17.7705 728.919 17.3905C729.755 17.2385 730.287 17.6945 730.515 18.0745C730.971 18.8345 731.579 24.6105 731.579 26.2825C731.579 28.2585 730.667 28.7145 730.211 28.7145C728.843 28.7145 728.083 27.8785 727.171 25.8265C725.727 22.7105 724.663 22.1785 724.055 22.1785C719.723 22.1785 715.543 22.4065 714.479 22.4065C714.099 22.4065 713.491 23.2425 713.491 23.5465C713.415 24.9905 713.263 30.4625 713.263 35.7065C713.263 36.9225 713.491 37.6825 713.871 37.7585C714.707 37.9865 717.367 37.9105 718.735 37.8345C722.155 37.6065 723.219 36.3905 724.055 34.4905C724.511 33.3505 725.271 32.4385 726.107 32.4385C727.171 32.4385 727.855 33.5025 727.703 35.7065C727.627 36.6185 727.551 38.3665 727.551 40.1145C727.551 41.8625 727.703 43.6105 727.779 44.7505C727.931 46.8025 726.791 47.7145 726.031 47.7145C725.347 47.7145 724.359 46.8785 723.675 45.3585C722.915 43.6105 722.687 43.0785 721.091 42.9265C717.975 42.6985 717.519 42.5465 714.099 42.5465C713.719 42.5465 713.263 43.6105 713.263 45.5105C713.263 47.5625 713.491 51.9705 713.567 53.6425C713.719 55.8465 714.023 56.6825 714.251 56.9865C715.011 58.1265 718.659 59.1145 722.307 59.1145C723.523 59.1145 725.651 58.8865 727.399 57.8985C728.843 57.1385 729.603 56.2265 731.275 53.9465C732.491 52.2745 733.327 50.4505 734.543 50.4505C735.987 50.4505 736.443 52.6545 736.139 54.2505C735.683 56.4545 733.859 61.5465 733.555 62.2305C733.327 62.7625 731.731 63.5985 731.275 63.5985C730.287 63.5985 727.247 63.2185 713.415 63.2185C708.627 63.2185 699.051 63.5225 695.783 63.5225C694.187 63.5225 693.047 62.9145 693.047 62.3065C693.047 61.3945 693.655 60.3305 695.251 59.8745C700.495 58.4305 700.647 56.6825 700.799 55.3145C701.103 51.6665 701.179 50.0705 701.179 38.3665C701.179 26.6625 701.027 26.2065 700.799 24.8385C700.419 22.5585 699.431 21.7225 696.391 20.9625C694.415 20.5065 694.111 19.4425 694.111 18.9105C694.111 17.9225 695.631 17.3905 696.619 17.3905C697.911 17.3905 706.347 17.7705 711.363 17.7705ZM756.56 17.7705H768.796C778.6 17.7705 780.272 17.3145 780.576 17.3145C781.26 17.3145 782.02 18.1505 782.02 18.8345V26.2825C782.02 28.4105 780.804 29.6265 779.892 29.6265C779.284 29.6265 778.372 28.5625 777.916 26.9665C777.384 25.2185 776.32 22.4065 773.66 22.1785C771.532 22.0265 765.604 22.0265 763.248 22.0265C762.412 22.0265 761.88 23.3185 761.804 24.1545C761.576 26.8905 761.5 35.3265 761.652 37.4545C761.728 38.2905 761.956 38.7465 762.64 38.7465C764.236 38.7465 767.276 38.5945 769.328 38.3665C771.76 38.0625 771.988 37.4545 772.976 35.2505C773.356 34.4145 774.344 32.8945 775.256 32.8945C776.32 32.8945 776.776 34.3385 776.776 35.6305C776.776 37.8345 776.472 39.8105 776.472 41.1025C776.472 42.5465 776.776 45.7385 776.776 46.3465C776.776 47.5625 775.94 48.9305 774.8 48.9305C774.192 48.9305 773.432 48.1705 772.824 46.9545C771.608 44.5985 771.38 43.7625 769.632 43.5345C768.796 43.3825 767.656 43.2305 762.488 43.2305C762.184 43.2305 761.728 44.2945 761.652 45.2065C761.5 47.7905 761.5 52.8065 761.652 54.4785C761.956 57.7465 762.944 58.6585 766.668 59.6465C768.644 60.1785 769.252 61.0905 769.252 61.8505C769.252 62.6105 767.96 63.5985 766.516 63.5985C761.728 63.5985 758.232 63.2185 755.192 63.2185C753.596 63.2185 751.012 63.5225 745.16 63.5225C743.868 63.5225 742.728 62.9145 742.728 61.9265C742.728 61.0905 743.64 60.1785 745.16 59.7985C748.048 59.1145 749.112 57.7465 749.264 55.6945C749.492 53.4145 749.568 51.1345 749.568 41.0265C749.568 29.6265 749.568 27.9545 749.416 25.2945C749.264 22.8625 748.276 22.0265 745.388 21.1905C744.02 20.8105 742.88 20.3545 742.88 19.0625C742.88 17.9985 744.856 17.5425 745.692 17.5425C751.62 17.6185 753.596 17.7705 756.56 17.7705ZM808.306 16.3265C812.562 16.3265 816.59 17.6945 819.554 18.3785C820.01 18.4545 820.542 19.6705 820.542 20.5065C820.542 21.4185 821.074 25.5985 821.074 26.7385C821.074 29.3225 819.858 30.3865 818.794 30.3865C817.958 30.3865 817.274 29.0945 817.046 28.4865C815.374 23.9265 811.422 19.8225 807.09 19.8225C803.898 19.8225 801.01 22.7865 801.01 25.6745C801.01 29.0945 803.518 31.6025 807.85 33.8065C817.426 38.6705 823.05 42.9265 823.05 50.1465C823.05 56.3785 818.794 59.8745 816.058 61.5465C813.094 63.2945 808.078 64.5865 804.582 64.5865C798.122 64.5865 794.398 63.2185 792.65 62.5345C792.118 62.3065 790.902 61.6225 790.522 60.7865C789.23 58.0505 789.002 54.0985 789.002 52.2745C789.002 50.8305 789.762 49.0065 790.978 49.0065C791.814 49.0065 792.802 49.9185 793.866 51.8945C796.678 57.0625 800.858 60.7865 805.57 60.7865C808.306 60.7865 811.726 58.8865 811.726 55.3905C811.726 53.1105 811.878 50.6025 804.126 46.4225C794.17 41.1025 790.294 36.9985 790.294 29.9305C790.294 24.9905 793.79 20.9625 797.438 18.9105C800.326 17.3145 803.974 16.3265 808.306 16.3265Z" fill="white"/>
<path d="M219.44 83.9351C240.24 83.9351 254.24 97.9351 254.24 115.835C254.24 128.335 246.84 138.135 237.44 143.335C233.14 145.735 226.14 147.535 219.74 147.535C198.64 147.535 184.84 133.135 184.84 115.835C184.84 108.135 187.74 100.535 193.94 94.3351C200.44 87.8351 210.04 83.9351 219.44 83.9351ZM217.64 89.1351C212.94 89.1351 208.74 93.1351 208.64 93.2351C204.44 97.8351 202.64 104.635 202.64 114.035C202.64 127.635 208.84 142.435 222.34 142.435C225.74 142.435 229.74 139.435 230.24 139.035C233.44 136.035 236.04 129.735 236.04 116.535C236.04 106.035 230.84 89.1351 217.64 89.1351ZM280.511 85.9351H296.611C309.511 85.9351 311.711 85.3351 312.111 85.3351C313.011 85.3351 314.011 86.4351 314.011 87.3351V97.1351C314.011 99.9351 312.411 101.535 311.211 101.535C310.411 101.535 309.211 100.135 308.611 98.0351C307.911 95.7351 306.511 92.0351 303.011 91.7351C300.211 91.5351 292.411 91.5351 289.311 91.5351C288.211 91.5351 287.511 93.2351 287.411 94.3351C287.111 97.9351 287.011 109.035 287.211 111.835C287.311 112.935 287.611 113.535 288.511 113.535C290.611 113.535 294.611 113.335 297.311 113.035C300.511 112.635 300.811 111.835 302.111 108.935C302.611 107.835 303.911 105.835 305.111 105.835C306.511 105.835 307.111 107.735 307.111 109.435C307.111 112.335 306.711 114.935 306.711 116.635C306.711 118.535 307.111 122.735 307.111 123.535C307.111 125.135 306.011 126.935 304.511 126.935C303.711 126.935 302.711 125.935 301.911 124.335C300.311 121.235 300.011 120.135 297.711 119.835C296.611 119.635 295.111 119.435 288.311 119.435C287.911 119.435 287.311 120.835 287.211 122.035C287.011 125.435 287.011 132.035 287.211 134.235C287.611 138.535 288.911 139.735 293.811 141.035C296.411 141.735 297.211 142.935 297.211 143.935C297.211 144.935 295.511 146.235 293.611 146.235C287.311 146.235 282.711 145.735 278.711 145.735C276.611 145.735 273.211 146.135 265.511 146.135C263.811 146.135 262.311 145.335 262.311 144.035C262.311 142.935 263.511 141.735 265.511 141.235C269.311 140.335 270.711 138.535 270.911 135.835C271.211 132.835 271.311 129.835 271.311 116.535C271.311 101.535 271.311 99.3351 271.111 95.8351C270.911 92.6351 269.611 91.5351 265.811 90.4351C264.011 89.9351 262.511 89.3351 262.511 87.6351C262.511 86.2351 265.111 85.6351 266.211 85.6351C274.011 85.7351 276.611 85.9351 280.511 85.9351ZM362.194 85.9351H392.794C398.394 85.9351 400.894 85.2351 401.294 84.7351C402.494 83.2351 403.594 82.3351 404.294 82.3351C404.894 82.3351 407.494 83.9351 407.494 85.5351C407.494 86.2351 406.294 92.5351 406.294 99.2351C406.294 101.235 404.794 103.435 402.894 103.435C401.494 103.435 400.694 100.935 400.494 100.035C398.994 93.4351 397.294 93.2351 393.694 92.8351C392.194 92.6351 391.894 92.3351 383.394 92.3351C382.894 92.3351 382.594 93.1351 382.494 94.1351C382.394 95.5351 381.794 109.035 381.794 115.335C381.794 121.435 381.694 128.035 381.994 131.635C382.594 138.935 384.294 139.235 388.394 140.735C390.194 141.435 391.894 142.335 391.894 143.535C391.894 145.735 389.494 146.235 387.494 146.235C386.494 146.235 375.494 145.735 369.494 145.735C366.594 145.735 361.194 146.035 358.494 146.035C356.394 146.035 354.394 145.135 354.394 143.335C354.394 142.535 355.394 141.135 357.694 140.535C363.894 138.835 365.594 137.535 365.594 132.035C365.594 129.935 365.794 116.635 365.794 110.135C365.794 103.935 365.894 97.3351 365.894 94.2351C365.894 93.4351 364.894 92.3351 364.594 92.3351C362.094 92.3351 358.394 92.3351 355.794 92.4351C352.994 92.5351 350.294 92.5351 347.594 100.035C346.994 101.735 345.794 103.035 344.694 103.035C343.394 103.035 341.894 101.235 341.894 98.8351C341.894 95.7351 342.994 91.2351 342.994 85.7351C342.994 84.0351 344.494 82.5351 345.694 82.5351C345.994 82.5351 347.194 83.1351 347.894 83.6351C349.594 85.0351 351.094 85.6351 353.994 85.7351C358.094 85.9351 358.994 85.9351 362.194 85.9351ZM439.752 109.135C439.752 110.535 440.552 111.635 441.252 111.635C458.752 111.635 462.152 111.535 464.052 111.635C464.452 111.635 465.252 110.135 465.252 109.735C465.252 102.935 465.252 97.3351 464.852 94.9351C464.552 93.1351 464.352 92.1351 460.052 91.0351C456.352 90.0351 455.752 88.5351 455.752 87.8351C455.752 86.8351 457.552 85.6351 459.652 85.6351C463.752 85.6351 466.552 85.9351 470.352 85.9351C474.252 85.9351 484.252 85.6351 486.252 85.6351C488.252 85.6351 489.452 86.6351 489.452 87.8351C489.452 88.9351 488.252 90.0351 485.652 90.6351C482.552 91.3351 481.852 92.8351 481.552 95.2351C481.152 98.1351 481.052 105.935 481.052 114.635C481.052 127.035 481.352 130.535 481.552 134.235C481.852 139.035 483.552 139.835 486.652 140.635C489.452 141.335 490.452 142.535 490.452 143.635C490.452 144.935 488.852 146.035 486.652 146.035C484.752 146.035 480.952 145.735 477.252 145.735C472.052 145.735 463.452 146.235 460.452 146.235C458.452 146.235 456.552 145.435 456.552 143.835C456.552 142.835 457.452 142.035 460.552 140.835C464.252 139.435 464.652 137.235 464.952 135.635C465.452 132.535 465.652 124.435 465.252 120.935C464.952 118.435 464.052 118.235 463.952 118.235C456.552 118.235 442.352 118.535 440.952 118.535C440.252 118.535 439.752 120.535 439.752 121.035C439.752 123.735 439.852 133.435 439.952 134.935C440.252 138.335 440.652 139.935 445.652 141.135C446.852 141.435 448.852 142.735 448.852 144.035C448.852 145.735 447.452 146.135 444.952 146.135C442.052 146.135 434.852 145.735 430.552 145.735C427.352 145.735 421.552 146.235 418.552 146.235C416.452 146.235 414.752 145.135 414.752 143.935C414.752 142.835 416.552 141.735 418.352 141.035C422.552 139.335 423.352 138.435 423.552 134.135C423.852 129.735 423.852 118.635 423.852 104.235C423.852 96.7351 423.552 96.0351 423.352 94.8351C422.952 92.5351 421.752 91.1351 417.152 90.0351C416.052 89.7351 414.952 88.8351 414.952 87.7351C414.952 86.6351 417.152 85.5351 419.052 85.5351C423.952 85.5351 430.852 85.9351 433.552 85.9351C436.652 85.9351 438.652 85.7351 442.152 85.7351C443.752 85.7351 445.752 86.2351 445.752 88.0351C445.752 89.5351 443.352 90.4351 442.152 90.8351C440.552 91.4351 439.752 93.4351 439.752 95.9351C439.752 99.0351 439.752 102.735 439.752 109.135ZM520.651 85.9351H530.951C540.051 85.9351 541.451 85.9351 543.751 85.4351C544.851 85.2351 545.551 85.8351 545.851 86.3351C546.451 87.3351 547.251 94.9351 547.251 97.1351C547.251 99.7351 546.051 100.335 545.451 100.335C543.651 100.335 542.651 99.2351 541.451 96.5351C539.551 92.4351 538.151 91.7351 537.351 91.7351C531.651 91.7351 526.151 92.0351 524.751 92.0351C524.251 92.0351 523.451 93.1351 523.451 93.5351C523.351 95.4351 523.151 102.635 523.151 109.535C523.151 111.135 523.451 112.135 523.951 112.235C525.051 112.535 528.551 112.435 530.351 112.335C534.851 112.035 536.251 110.435 537.351 107.935C537.951 106.435 538.951 105.235 540.051 105.235C541.451 105.235 542.351 106.635 542.151 109.535C542.051 110.735 541.951 113.035 541.951 115.335C541.951 117.635 542.151 119.935 542.251 121.435C542.451 124.135 540.951 125.335 539.951 125.335C539.051 125.335 537.751 124.235 536.851 122.235C535.851 119.935 535.551 119.235 533.451 119.035C529.351 118.735 528.751 118.535 524.251 118.535C523.751 118.535 523.151 119.935 523.151 122.435C523.151 125.135 523.451 130.935 523.551 133.135C523.751 136.035 524.151 137.135 524.451 137.535C525.451 139.035 530.251 140.335 535.051 140.335C536.651 140.335 539.451 140.035 541.751 138.735C543.651 137.735 544.651 136.535 546.851 133.535C548.451 131.335 549.551 128.935 551.151 128.935C553.051 128.935 553.651 131.835 553.251 133.935C552.651 136.835 550.251 143.535 549.851 144.435C549.551 145.135 547.451 146.235 546.851 146.235C545.551 146.235 541.551 145.735 523.351 145.735C517.051 145.735 504.451 146.135 500.151 146.135C498.051 146.135 496.551 145.335 496.551 144.535C496.551 143.335 497.351 141.935 499.451 141.335C506.351 139.435 506.551 137.135 506.751 135.335C507.151 130.535 507.251 128.435 507.251 113.035C507.251 97.6351 507.051 97.0351 506.751 95.2351C506.251 92.2351 504.951 91.1351 500.951 90.1351C498.351 89.5351 497.951 88.1351 497.951 87.4351C497.951 86.1351 499.951 85.4351 501.251 85.4351C502.951 85.4351 514.051 85.9351 520.651 85.9351ZM231.18 172.575C238.98 172.575 243.42 173.895 248.46 175.215C250.98 175.935 253.5 176.295 255.06 176.295C255.9 176.295 257.22 177.615 257.46 178.935C258.18 182.175 259.86 188.295 259.86 193.095C259.86 194.895 258.66 197.775 256.86 197.775C255.66 197.775 254.82 197.415 253.02 194.175C251.46 191.295 250.26 188.055 247.26 185.415C241.02 179.895 233.7 179.055 230.46 179.055C213.78 179.055 207.9 194.895 207.9 208.935C207.9 228.735 219.18 242.535 232.98 242.535C234.06 242.535 237.06 241.815 238.38 240.855C239.58 240.015 240.06 235.935 240.06 233.175C240.06 228.615 239.94 224.175 239.82 222.615C239.58 220.215 239.1 218.175 234.66 217.095C230.58 216.135 229.02 214.935 229.02 213.135C229.02 212.055 230.34 210.375 233.94 210.375C237.3 210.375 240.78 210.975 244.74 210.975C248.34 210.975 260.1 210.375 262.5 210.375C265.86 210.375 266.94 211.695 266.94 213.135C266.94 214.815 264.66 216.135 263.1 216.735C258.9 218.175 259.14 220.215 259.02 221.895C258.78 224.655 258.78 220.695 258.78 231.615C258.78 233.175 258.9 234.855 259.14 236.775C259.26 237.615 259.5 238.815 259.5 240.255C259.5 240.615 258.06 242.415 257.82 242.535C256.38 243.615 253.38 245.175 248.34 246.615C243.66 247.935 237.78 249.135 231.9 249.135C212.22 249.135 201.06 243.255 193.38 233.895C187.98 227.295 185.94 218.535 185.94 210.735C185.94 197.775 191.46 188.775 200.94 181.575C207.78 176.295 220.26 172.575 231.18 172.575ZM317.529 172.575C319.689 172.575 320.409 176.175 323.529 184.215C330.009 201.615 339.849 224.895 343.089 232.215C346.089 238.935 347.769 239.055 352.449 240.975C355.209 242.175 356.169 243.975 356.169 245.295C356.169 246.735 354.249 247.335 351.969 247.335C348.249 247.335 338.889 246.735 333.009 246.735C327.849 246.735 324.609 247.335 320.289 247.335C316.929 247.335 315.849 245.895 315.849 245.055C315.849 243.615 317.289 241.935 319.569 240.975C323.769 239.175 323.769 236.535 323.169 234.495C322.089 231.495 321.969 230.895 320.409 227.295C320.289 226.935 319.209 225.615 317.289 225.375C315.249 225.135 300.249 224.895 297.489 225.495C296.769 225.615 295.809 226.815 295.569 227.295C294.609 229.695 293.649 234.255 293.649 235.815C293.649 237.975 295.209 239.775 299.049 241.095C300.729 241.695 302.529 242.655 302.529 244.215C302.529 244.815 300.849 247.095 297.729 247.095C296.289 247.095 293.649 246.735 289.809 246.735C285.369 246.735 280.449 247.335 275.409 247.335C272.769 247.335 270.969 246.135 270.969 244.695C270.969 243.495 271.929 242.295 274.569 241.215C279.009 239.415 281.409 239.055 285.249 231.015C288.249 224.655 296.769 203.055 303.969 184.095C304.089 183.735 304.329 182.895 304.329 181.575C304.329 181.095 304.929 180.255 305.409 179.895C306.969 178.935 312.969 174.975 314.289 173.895C315.009 173.175 316.929 172.575 317.529 172.575ZM315.129 217.335C315.729 217.335 316.449 216.255 316.329 215.895C314.529 210.015 309.489 197.175 308.409 195.255C307.929 194.415 307.209 194.775 306.849 195.255C304.929 199.215 299.769 213.975 299.409 215.775C299.289 216.495 299.889 217.455 300.729 217.455C302.289 217.455 313.449 217.455 315.129 217.335ZM362.48 177.135C362.48 175.215 364.76 174.735 366.32 174.735C366.92 174.735 377.36 174.975 382.16 174.975C386.96 174.975 396.32 174.615 398.72 174.615C401.24 174.615 402.68 175.815 402.68 177.255C402.68 178.695 401.12 179.895 398.6 180.375C391.88 181.815 391.52 184.455 391.4 186.975C391.16 189.735 390.68 196.455 390.68 206.775C390.68 219.375 391.04 230.895 391.28 234.975C391.4 236.775 394.28 239.295 398.84 240.375C400.52 240.735 404.48 240.855 408.8 240.015C412.4 239.295 418.4 232.215 420.92 227.655C422.12 225.375 423.44 224.535 423.8 224.535C425.96 224.535 427.4 227.055 426.8 229.215C425.96 232.215 423.68 241.695 422.84 244.095C422.12 245.895 419.96 247.095 417.56 247.095C413.36 247.095 400.64 246.735 385.76 246.735C377.6 246.735 365.6 247.335 362.96 247.335C360.32 247.335 358.28 246.015 358.28 244.335C358.28 242.655 360.08 241.815 362.12 241.455C370.16 239.895 371 237.015 371.24 234.255C371.48 230.655 371.72 225.615 371.72 211.335C371.72 189.615 371.84 189.855 371.6 186.615C371.24 182.655 369.92 182.055 365.96 180.375C363.44 179.295 362.48 178.455 362.48 177.135ZM480.303 172.575C482.463 172.575 483.183 176.175 486.303 184.215C492.783 201.615 502.623 224.895 505.863 232.215C508.863 238.935 510.543 239.055 515.223 240.975C517.983 242.175 518.943 243.975 518.943 245.295C518.943 246.735 517.023 247.335 514.743 247.335C511.023 247.335 501.663 246.735 495.783 246.735C490.623 246.735 487.383 247.335 483.063 247.335C479.703 247.335 478.623 245.895 478.623 245.055C478.623 243.615 480.063 241.935 482.343 240.975C486.543 239.175 486.543 236.535 485.943 234.495C484.863 231.495 484.743 230.895 483.183 227.295C483.063 226.935 481.983 225.615 480.063 225.375C478.023 225.135 463.023 224.895 460.263 225.495C459.543 225.615 458.583 226.815 458.343 227.295C457.383 229.695 456.423 234.255 456.423 235.815C456.423 237.975 457.983 239.775 461.823 241.095C463.503 241.695 465.303 242.655 465.303 244.215C465.303 244.815 463.623 247.095 460.503 247.095C459.063 247.095 456.423 246.735 452.583 246.735C448.143 246.735 443.223 247.335 438.183 247.335C435.543 247.335 433.743 246.135 433.743 244.695C433.743 243.495 434.703 242.295 437.343 241.215C441.783 239.415 444.183 239.055 448.023 231.015C451.023 224.655 459.543 203.055 466.743 184.095C466.863 183.735 467.103 182.895 467.103 181.575C467.103 181.095 467.703 180.255 468.183 179.895C469.743 178.935 475.743 174.975 477.063 173.895C477.783 173.175 479.703 172.575 480.303 172.575ZM477.903 217.335C478.503 217.335 479.223 216.255 479.103 215.895C477.303 210.015 472.263 197.175 471.183 195.255C470.703 194.415 469.983 194.775 469.623 195.255C467.703 199.215 462.543 213.975 462.183 215.775C462.063 216.495 462.663 217.455 463.503 217.455C465.063 217.455 476.223 217.455 477.903 217.335ZM484.383 152.175C486.183 150.735 489.543 150.615 490.143 150.975C492.663 152.295 495.543 156.855 495.543 158.655C495.543 160.335 493.983 161.895 492.423 162.615C485.703 165.975 479.343 168.255 474.303 169.935C470.823 171.135 468.543 170.055 467.703 168.735C467.103 167.655 468.543 165.495 469.863 164.295C474.423 160.095 479.223 156.255 484.383 152.175ZM571.453 197.775C571.453 191.055 568.693 186.135 568.093 185.295C567.613 184.695 563.293 180.735 558.853 180.735C557.533 180.735 555.973 181.215 555.493 181.695C555.133 182.055 554.653 182.775 554.653 183.375C554.293 188.175 554.173 203.535 554.173 208.455C554.173 220.455 554.293 229.695 554.293 230.895C554.293 237.615 555.853 239.415 562.333 241.215C565.213 242.055 566.413 242.895 566.413 244.575C566.413 245.655 564.733 247.095 561.613 247.095C558.013 247.095 552.733 246.735 547.813 246.735C543.493 246.735 532.213 247.455 528.253 247.455C525.253 247.455 523.213 246.375 523.213 244.815C523.213 243.255 524.413 242.175 527.893 241.095C533.053 239.415 533.893 237.375 534.253 234.255C534.493 231.855 535.333 217.095 535.333 200.415C535.333 195.255 535.213 189.495 534.853 186.735C534.613 183.975 533.653 181.815 528.373 180.615C526.453 180.135 524.173 178.335 524.173 177.135C524.173 174.975 525.853 174.495 527.893 174.495C533.053 174.495 536.413 174.975 542.413 174.975C546.493 174.975 552.853 174.375 562.213 174.375C572.653 174.375 580.333 177.615 584.413 181.815C587.293 184.815 590.893 191.415 590.893 197.655C590.893 207.015 585.373 213.615 582.973 215.655C578.053 219.735 572.893 221.535 567.373 221.535C564.253 221.535 562.453 221.055 560.653 219.855C559.333 219.015 558.253 217.815 558.253 217.215C558.253 215.895 558.733 215.055 559.693 214.935C560.173 214.815 560.773 214.815 561.373 214.695C564.253 213.975 571.453 212.175 571.453 197.775ZM634.873 172.575C637.033 172.575 637.753 176.175 640.873 184.215C647.353 201.615 657.193 224.895 660.433 232.215C663.433 238.935 665.113 239.055 669.793 240.975C672.553 242.175 673.513 243.975 673.513 245.295C673.513 246.735 671.593 247.335 669.313 247.335C665.593 247.335 656.233 246.735 650.353 246.735C645.193 246.735 641.953 247.335 637.633 247.335C634.273 247.335 633.193 245.895 633.193 245.055C633.193 243.615 634.633 241.935 636.913 240.975C641.113 239.175 641.113 236.535 640.513 234.495C639.433 231.495 639.313 230.895 637.753 227.295C637.633 226.935 636.553 225.615 634.633 225.375C632.593 225.135 617.593 224.895 614.833 225.495C614.113 225.615 613.153 226.815 612.913 227.295C611.953 229.695 610.993 234.255 610.993 235.815C610.993 237.975 612.553 239.775 616.393 241.095C618.073 241.695 619.873 242.655 619.873 244.215C619.873 244.815 618.193 247.095 615.073 247.095C613.633 247.095 610.993 246.735 607.153 246.735C602.713 246.735 597.793 247.335 592.753 247.335C590.113 247.335 588.313 246.135 588.313 244.695C588.313 243.495 589.273 242.295 591.913 241.215C596.353 239.415 598.753 239.055 602.593 231.015C605.593 224.655 614.113 203.055 621.313 184.095C621.433 183.735 621.673 182.895 621.673 181.575C621.673 181.095 622.273 180.255 622.753 179.895C624.313 178.935 630.313 174.975 631.633 173.895C632.353 173.175 634.273 172.575 634.873 172.575ZM632.473 217.335C633.073 217.335 633.793 216.255 633.673 215.895C631.873 210.015 626.833 197.175 625.753 195.255C625.273 194.415 624.553 194.775 624.193 195.255C622.273 199.215 617.113 213.975 616.753 215.775C616.633 216.495 617.233 217.455 618.073 217.455C619.633 217.455 630.793 217.455 632.473 217.335ZM723.953 172.575C731.753 172.575 736.193 173.895 741.233 175.215C743.753 175.935 746.273 176.295 747.833 176.295C748.673 176.295 749.993 177.615 750.233 178.935C750.953 182.175 752.633 188.295 752.633 193.095C752.633 194.895 751.433 197.775 749.633 197.775C748.433 197.775 747.593 197.415 745.793 194.175C744.233 191.295 743.033 188.055 740.033 185.415C733.793 179.895 726.473 179.055 723.233 179.055C706.553 179.055 700.673 194.895 700.673 208.935C700.673 228.735 711.953 242.535 725.753 242.535C726.833 242.535 729.833 241.815 731.153 240.855C732.353 240.015 732.833 235.935 732.833 233.175C732.833 228.615 732.713 224.175 732.593 222.615C732.353 220.215 731.873 218.175 727.433 217.095C723.353 216.135 721.793 214.935 721.793 213.135C721.793 212.055 723.113 210.375 726.713 210.375C730.073 210.375 733.553 210.975 737.513 210.975C741.113 210.975 752.873 210.375 755.273 210.375C758.633 210.375 759.713 211.695 759.713 213.135C759.713 214.815 757.433 216.135 755.873 216.735C751.673 218.175 751.913 220.215 751.793 221.895C751.553 224.655 751.553 220.695 751.553 231.615C751.553 233.175 751.673 234.855 751.913 236.775C752.033 237.615 752.273 238.815 752.273 240.255C752.273 240.615 750.833 242.415 750.593 242.535C749.153 243.615 746.153 245.175 741.113 246.615C736.433 247.935 730.553 249.135 724.673 249.135C704.993 249.135 693.833 243.255 686.153 233.895C680.753 227.295 678.713 218.535 678.713 210.735C678.713 197.775 684.233 188.775 693.713 181.575C700.553 176.295 713.033 172.575 723.953 172.575ZM812.577 172.575C837.537 172.575 854.337 189.375 854.337 210.855C854.337 225.855 845.457 237.615 834.177 243.855C829.017 246.735 820.617 248.895 812.937 248.895C787.617 248.895 771.057 231.615 771.057 210.855C771.057 201.615 774.537 192.495 781.977 185.055C789.777 177.255 801.297 172.575 812.577 172.575ZM810.417 178.815C804.777 178.815 799.737 183.615 799.617 183.735C794.577 189.255 792.417 197.415 792.417 208.695C792.417 225.015 799.857 242.775 816.057 242.775C820.137 242.775 824.937 239.175 825.537 238.695C829.377 235.095 832.497 227.535 832.497 211.695C832.497 199.095 826.257 178.815 810.417 178.815ZM897.371 172.695C904.091 172.695 910.451 174.855 915.131 175.935C915.851 176.055 916.691 177.975 916.691 179.295C916.691 180.735 917.531 187.335 917.531 189.135C917.531 193.215 915.611 194.895 913.931 194.895C912.611 194.895 911.531 192.855 911.171 191.895C908.531 184.695 902.291 178.215 895.451 178.215C890.411 178.215 885.851 182.895 885.851 187.455C885.851 192.855 889.811 196.815 896.651 200.295C911.771 207.975 920.651 214.695 920.651 226.095C920.651 235.935 913.931 241.455 909.611 244.095C904.931 246.855 897.011 248.895 891.491 248.895C881.291 248.895 875.411 246.735 872.651 245.655C871.811 245.295 869.891 244.215 869.291 242.895C867.251 238.575 866.891 232.335 866.891 229.455C866.891 227.175 868.091 224.295 870.011 224.295C871.331 224.295 872.891 225.735 874.571 228.855C879.011 237.015 885.611 242.895 893.051 242.895C897.371 242.895 902.771 239.895 902.771 234.375C902.771 230.775 903.011 226.815 890.771 220.215C875.051 211.815 868.931 205.335 868.931 194.175C868.931 186.375 874.451 180.015 880.211 176.775C884.771 174.255 890.531 172.695 897.371 172.695Z" fill="white"/>
</svg>
