<svg width="1040" height="253" viewBox="0 0 1040 253" fill="none" xmlns="http://www.w3.org/2000/svg">
<path d="M62.4298 181.644V179.144H59.9298V181.644H62.4298ZM77.4187 181.644H79.9187V179.144H77.4187V181.644ZM77.4187 230.187V232.687H79.9187V230.187H77.4187ZM75.3677 230.187L73.7832 232.121L74.4743 232.687H75.3677V230.187ZM54.7513 214.935L53.3328 216.994L53.3346 216.995L54.7513 214.935ZM19.3564 204.68L21.0443 206.524L21.0527 206.516L21.0611 206.508L19.3564 204.68ZM25.4045 229.24V231.74H31.2313L27.2163 227.518L25.4045 229.24ZM9.9949 229.24L7.8976 230.601L8.6367 231.74H9.9949V229.24ZM8.5748 191.637L10.4347 193.307L10.4416 193.299L8.5748 191.637ZM62.4298 205.311L60.8806 207.273L64.9298 210.47V205.311H62.4298ZM62.4298 184.144H77.4187V179.144H62.4298V184.144ZM74.9188 181.644V230.187H79.9187V181.644H74.9188ZM77.4187 227.687H75.3677V232.687H77.4187V227.687ZM76.9521 228.253C71.4458 223.742 64.5128 218.615 56.168 212.875L53.3346 216.995C61.6091 222.686 68.4204 227.727 73.7832 232.121L76.9521 228.253ZM56.1698 212.877C47.841 207.137 41.7264 203.37 37.9625 201.752L35.9874 206.345C39.2358 207.742 44.9721 211.233 53.3328 216.994L56.1698 212.877ZM37.9625 201.752C34.1932 200.131 30.4568 199.287 26.7719 199.287V204.287C29.6788 204.287 32.7443 204.951 35.9874 206.345L37.9625 201.752ZM26.7719 199.287C23.2758 199.287 20.1916 200.483 17.6517 202.851L21.0611 206.508C22.6584 205.019 24.5179 204.287 26.7719 204.287V199.287ZM17.6685 202.835C15.1051 205.182 13.7534 208.138 13.7534 211.569H18.7534C18.7534 209.601 19.4704 207.964 21.0443 206.524L17.6685 202.835ZM13.7534 211.569C13.7534 217.882 17.3211 224.367 23.5928 230.963L27.2163 227.518C21.2865 221.281 18.7534 215.985 18.7534 211.569H13.7534ZM25.4045 226.74H9.9949V231.74H25.4045V226.74ZM12.0921 227.88C7.6107 220.972 5.5 214.585 5.5 208.677H0.5C0.5 215.811 3.0525 223.133 7.8976 230.601L12.0921 227.88ZM5.5 208.677C5.5 201.882 7.2413 196.862 10.4347 193.307L6.715 189.966C2.4754 194.686 0.5 201.026 0.5 208.677H5.5ZM10.4416 193.299C13.6058 189.747 17.9797 187.878 23.8793 187.878V182.878C16.8061 182.878 10.977 185.181 6.7081 189.974L10.4416 193.299ZM23.8793 187.878C27.7393 187.878 32.7529 189.341 39.0217 192.582C45.2552 195.805 52.5372 200.685 60.8806 207.273L63.9791 203.349C55.4928 196.648 47.9349 191.562 41.3182 188.141C34.7368 184.738 28.89 182.878 23.8793 182.878V187.878ZM64.9298 205.311V181.644H59.9298V205.311H64.9298ZM13.0452 128.578L14.4066 130.675L14.4142 130.67L13.0452 128.578ZM68.3728 165.235L69.7545 167.319L69.7621 167.313L68.3728 165.235ZM12.94 165.13L11.5307 167.195L11.5331 167.196L12.94 165.13ZM59.2743 140.359L60.1546 138.019L60.1471 138.016L59.2743 140.359ZM21.8808 140.359L22.7718 142.694L22.7864 142.689L22.8009 142.683L21.8808 140.359ZM21.7756 153.454L20.8055 155.758L20.8176 155.763L21.7756 153.454ZM59.2217 153.454L60.107 155.792L60.1207 155.787L60.1344 155.782L59.2217 153.454ZM5.5 146.775C5.5 139.864 8.3979 134.576 14.4066 130.675L11.6839 126.481C4.2991 131.275 0.5 138.119 0.5 146.775H5.5ZM14.4142 130.67C20.5627 126.646 29.1246 124.504 40.3409 124.504V119.504C28.5566 119.504 18.9214 121.744 11.6762 126.486L14.4142 130.67ZM40.3409 124.504C52.0475 124.504 60.8403 126.588 66.9823 130.479L69.6581 126.256C62.4065 121.662 52.5464 119.504 40.3409 119.504V124.504ZM66.9823 130.479C72.9599 134.266 75.8655 139.537 75.8655 146.565H80.8657C80.8657 137.814 77.0737 130.954 69.6581 126.256L66.9823 130.479ZM75.8655 146.565C75.8655 153.722 72.9532 159.166 66.9836 163.157L69.7621 167.313C77.1157 162.398 80.8657 155.396 80.8657 146.565H75.8655ZM66.9911 163.152C60.8902 167.197 52.2182 169.362 40.709 169.362V174.362C52.7614 174.362 62.5319 172.108 69.7545 167.319L66.9911 163.152ZM40.709 169.362C29.056 169.362 20.3653 167.161 14.347 163.063L11.5331 167.196C18.698 172.075 28.52 174.362 40.709 174.362V169.362ZM14.3494 163.065C8.3725 158.985 5.5 153.624 5.5 146.775H0.5C0.5 155.354 4.2542 162.228 11.5307 167.195L14.3494 163.065ZM67.0861 146.775C67.0861 144.758 66.464 142.914 65.1839 141.368C63.9382 139.863 62.191 138.785 60.1546 138.019L58.3939 142.699C59.8988 143.265 60.8075 143.922 61.3325 144.556C61.823 145.149 62.0861 145.846 62.0861 146.775H67.0861ZM60.1471 138.016C56.0957 136.507 48.9724 135.86 39.1838 135.86V140.86C49.0299 140.86 55.3003 141.546 58.4015 142.701L60.1471 138.016ZM39.1838 135.86C30.9965 135.86 24.8065 136.512 20.9607 138.034L22.8009 142.683C25.687 141.541 31.0324 140.86 39.1838 140.86V135.86ZM20.9898 138.023C18.9963 138.783 17.292 139.879 16.0856 141.422C14.8549 142.995 14.2793 144.859 14.2793 146.88H19.2793C19.2793 145.851 19.554 145.103 20.0238 144.502C20.5179 143.871 21.3643 143.231 22.7718 142.694L20.9898 138.023ZM14.2793 146.88C14.2793 148.869 14.8467 150.704 16.038 152.272C17.206 153.808 18.8593 154.939 20.8055 155.758L22.7458 151.15C21.3611 150.567 20.5162 149.901 20.0188 149.246C19.5446 148.622 19.2793 147.872 19.2793 146.88H14.2793ZM20.8176 155.763C22.8034 156.587 25.5538 157.13 28.9056 157.479C32.3006 157.833 36.4875 158.005 41.4453 158.005V153.005C36.5858 153.005 32.5858 152.836 29.4242 152.506C26.2194 152.172 24.0437 151.689 22.7337 151.145L20.8176 155.763ZM41.4453 158.005C49.723 158.005 56.0412 157.332 60.107 155.792L58.3364 151.116C55.1794 152.312 49.6467 153.005 41.4453 153.005V158.005ZM60.1344 155.782C62.1936 154.974 63.9487 153.849 65.1942 152.298C66.47 150.71 67.0861 148.828 67.0861 146.775H62.0861C62.0861 147.773 61.8082 148.529 61.2959 149.167C60.7533 149.843 59.8261 150.532 58.309 151.127L60.1344 155.782ZM62.4298 62.7844V60.2844H59.9298V62.7844H62.4298ZM77.4187 62.7844H79.9187V60.2844H77.4187V62.7844ZM77.4187 111.327V113.827H79.9187V111.327H77.4187ZM75.3677 111.327L73.7832 113.261L74.4743 113.827H75.3677V111.327ZM54.7513 96.0761L53.3328 98.1341L53.3346 98.1351L54.7513 96.0761ZM19.3564 85.8201L21.0443 87.6641L21.0527 87.6561L21.0611 87.6491L19.3564 85.8201ZM25.4045 110.381V112.881H31.2313L27.2163 108.658L25.4045 110.381ZM9.9949 110.381L7.8976 111.741L8.6367 112.881H9.9949V110.381ZM8.5748 72.777L10.4347 74.4477L10.4416 74.4399L8.5748 72.777ZM62.4298 86.4511L60.8806 88.4131L64.9298 91.6101V86.4511H62.4298ZM62.4298 65.2844H77.4187V60.2844H62.4298V65.2844ZM74.9188 62.7844V111.327H79.9187V62.7844H74.9188ZM77.4187 108.827H75.3677V113.827H77.4187V108.827ZM76.9521 109.394C71.4458 104.882 64.5128 99.7551 56.168 94.0161L53.3346 98.1351C61.6091 103.826 68.4204 108.867 73.7832 113.261L76.9521 109.394ZM56.1698 94.0171C47.841 88.2781 41.7264 84.5111 37.9625 82.8921L35.9874 87.4851C39.2358 88.8821 44.9721 92.3731 53.3328 98.1341L56.1698 94.0171ZM37.9625 82.8921C34.1932 81.2711 30.4568 80.4271 26.7719 80.4271V85.4271C29.6788 85.4271 32.7443 86.0911 35.9874 87.4851L37.9625 82.8921ZM26.7719 80.4271C23.2758 80.4271 20.1916 81.6241 17.6517 83.9911L21.0611 87.6491C22.6584 86.1601 24.5179 85.4271 26.7719 85.4271V80.4271ZM17.6685 83.9761C15.1051 86.3221 13.7534 89.2781 13.7534 92.7101H18.7534C18.7534 90.7411 19.4704 89.1051 21.0443 87.6641L17.6685 83.9761ZM13.7534 92.7101C13.7534 99.0231 17.3211 105.507 23.5928 112.103L27.2163 108.658C21.2865 102.422 18.7534 97.1251 18.7534 92.7101H13.7534ZM25.4045 107.881H9.9949V112.881H25.4045V107.881ZM12.0921 109.02C7.6107 102.113 5.5 95.7261 5.5 89.8171H0.5C0.5 96.9511 3.0525 104.274 7.8976 111.741L12.0921 109.02ZM5.5 89.8171C5.5 83.0221 7.2413 78.0027 10.4347 74.4477L6.715 71.1064C2.4754 75.826 0.5 82.1671 0.5 89.8171H5.5ZM10.4416 74.4399C13.6058 70.8877 17.9797 69.0185 23.8793 69.0185V64.0185C16.8061 64.0185 10.977 66.3216 6.7081 71.1142L10.4416 74.4399ZM23.8793 69.0185C27.7393 69.0185 32.7529 70.4811 39.0217 73.7224C45.2552 76.9454 52.5372 81.8251 60.8806 88.4131L63.9791 84.4891C55.4928 77.7884 47.9349 72.7021 41.3182 69.2809C34.7368 65.878 28.89 64.0185 23.8793 64.0185V69.0185ZM64.9298 86.4511V62.7844H59.9298V86.4511H64.9298ZM45.7579 35.8569V38.3569H48.1599L48.2559 35.9568L45.7579 35.8569ZM32.8201 35.8569H30.3201V38.3569H32.8201V35.8569ZM30.2431 28.5465L28.4074 30.2437L28.4155 30.2524L28.4236 30.261L30.2431 28.5465ZM19.146 49.6362V52.1362H23.1521L21.3917 48.5376L19.146 49.6362ZM6.2082 49.6362L3.9189 50.6409L4.5752 52.1362H6.2082V49.6362ZM8.0489 15.8717L10.0258 17.4021L10.0334 17.3921L8.0489 15.8717ZM37.9742 20.2369L35.7843 21.4429L38.3566 26.1135L40.3019 21.1489L37.9742 20.2369ZM72.5277 14.4517L74.4587 12.8639L74.4517 12.8554L72.5277 14.4517ZM74.2106 51.477V53.977H75.7513L76.4438 52.6007L74.2106 51.477ZM59.958 51.477L57.9123 50.0398L55.1464 53.977H59.958V51.477ZM63.1136 27.6524L65.0315 26.0489L65.0239 26.0397L65.0161 26.0306L63.1136 27.6524ZM48.8609 27.5473L50.675 29.2675L50.6823 29.2597L50.6896 29.2519L48.8609 27.5473ZM45.7579 33.3569H32.8201V38.3569H45.7579V33.3569ZM35.3201 35.8569C35.3201 32.3156 34.3087 29.2157 32.0625 26.832L28.4236 30.261C29.6135 31.5238 30.3201 33.2974 30.3201 35.8569H35.3201ZM32.0787 26.8494C29.9202 24.5146 27.2177 23.2591 24.0897 23.2591V28.2591C25.7301 28.2591 27.1299 28.8619 28.4074 30.2437L32.0787 26.8494ZM24.0897 23.2591C20.8573 23.2591 18.1255 24.5994 16.0571 27.1174L19.9208 30.2911C21.0781 28.8822 22.4135 28.2591 24.0897 28.2591V23.2591ZM16.0571 27.1174C14.0112 29.6082 13.0697 32.6912 13.0697 36.1725H18.0697C18.0697 33.6231 18.741 31.7273 19.9208 30.2911L16.0571 27.1174ZM13.0697 36.1725C13.0697 40.7578 14.4004 45.6248 16.9003 50.7348L21.3917 48.5376C19.1231 43.9004 18.0697 39.7916 18.0697 36.1725H13.0697ZM19.146 47.1362H6.2082V52.1362H19.146V47.1362ZM8.4974 48.6316C6.521 44.1279 5.5 38.8877 5.5 32.8591H0.5C0.5 39.4528 1.6178 45.3973 3.9189 50.6409L8.4974 48.6316ZM5.5 32.8591C5.5 26.2847 7.0812 21.2056 10.0258 17.4021L6.0721 14.3412C2.2849 19.2331 0.5 25.4789 0.5 32.8591H5.5ZM10.0334 17.3921C12.9103 13.637 16.5011 11.8502 20.9867 11.8502V6.85016C14.8837 6.85016 9.8493 9.41096 6.0644 14.3513L10.0334 17.3921ZM20.9867 11.8502C27.2675 11.8502 32.1571 14.8566 35.7843 21.4429L40.1641 19.0308C35.7972 11.1015 29.3618 6.85016 20.9867 6.85016V11.8502ZM40.3019 21.1489C41.8407 17.2216 43.9771 14.4471 46.6281 12.6379C49.279 10.8288 52.6399 9.85156 56.855 9.85156V4.85156C51.8488 4.85156 47.4523 6.02196 43.8096 8.50796C40.1671 10.9938 37.4736 14.6619 35.6465 19.3248L40.3019 21.1489ZM56.855 9.85156C62.6841 9.85156 67.1835 11.9255 70.6036 16.0479L74.4517 12.8554C70.0179 7.51106 64.069 4.85156 56.855 4.85156V9.85156ZM70.5966 16.0394C74.0228 20.2064 75.8655 25.9349 75.8655 33.4902H80.8657C80.8657 25.1275 78.8167 18.1636 74.4587 12.8639L70.5966 16.0394ZM75.8655 33.4902C75.8655 39.6075 74.5626 45.2155 71.9774 50.3532L76.4438 52.6007C79.3987 46.729 80.8657 40.3458 80.8657 33.4902H75.8655ZM74.2106 48.977H59.958V53.977H74.2106V48.977ZM62.0036 52.9141C66.0742 47.1199 68.2958 41.4516 68.2958 35.9621H63.2958C63.2958 40.0796 61.6255 44.7545 57.9123 50.0398L62.0036 52.9141ZM68.2958 35.9621C68.2958 32.1086 67.2734 28.7303 65.0315 26.0489L61.1956 29.256C62.53 30.8521 63.2958 33.0136 63.2958 35.9621H68.2958ZM65.0161 26.0306C62.7055 23.3201 59.654 21.9443 56.0661 21.9443V26.9443C58.2284 26.9443 59.8752 27.7073 61.211 29.2743L65.0161 26.0306ZM56.0661 21.9443C52.5106 21.9443 49.4424 23.2572 47.0322 25.8426L50.6896 29.2519C52.1363 27.7 53.8714 26.9443 56.0661 26.9443V21.9443ZM47.0469 25.827C44.6045 28.4026 43.4181 31.8036 43.2599 35.757L48.2559 35.9568C48.3783 32.8979 49.2605 30.7591 50.675 29.2675L47.0469 25.827Z" fill="white"/>
<path d="M131.077 1.31445L130.867 233.345" stroke="white" stroke-width="2" stroke-miterlimit="10" stroke-linecap="round"/>
<path d="M242.493 37.5676C242.493 29.1676 239.043 23.0176 238.293 21.9676C237.693 21.2176 232.293 16.2676 226.743 16.2676C225.093 16.2676 223.143 16.8676 222.543 17.4676C222.093 17.9176 221.493 18.8176 221.493 19.5676C221.043 25.5676 220.893 44.7676 220.893 50.9176C220.893 65.9176 221.043 77.4676 221.043 78.9676C221.043 87.3676 222.993 89.6176 231.093 91.8676C234.693 92.9176 236.193 93.9676 236.193 96.0676C236.193 97.4176 234.093 99.2176 230.193 99.2176C225.693 99.2176 219.093 98.7676 212.943 98.7676C207.543 98.7676 193.443 99.6676 188.493 99.6676C184.743 99.6676 182.193 98.3176 182.193 96.3676C182.193 94.4176 183.693 93.0676 188.043 91.7176C194.493 89.6176 195.543 87.0676 195.993 83.1676C196.293 80.1676 197.343 61.7176 197.343 40.8676C197.343 34.4176 197.193 27.2176 196.743 23.7676C196.443 20.3176 195.243 17.6176 188.643 16.1176C186.243 15.5176 183.393 13.2676 183.393 11.7676C183.393 9.06757 185.493 8.46757 188.043 8.46757C194.493 8.46757 198.693 9.06757 206.193 9.06757C211.293 9.06757 219.243 8.31757 230.943 8.31757C243.993 8.31757 253.593 12.3676 258.693 17.6176C262.293 21.3676 266.793 29.6176 266.793 37.4176C266.793 49.1176 259.893 57.3676 256.893 59.9176C250.743 65.0176 244.293 67.2676 237.393 67.2676C233.493 67.2676 231.243 66.6676 228.993 65.1676C227.343 64.1176 225.993 62.6176 225.993 61.8676C225.993 60.2176 226.593 59.1676 227.793 59.0176C228.393 58.8676 229.143 58.8676 229.893 58.7176C233.493 57.8176 242.493 55.5676 242.493 37.5676ZM360.965 32.6176C360.965 38.3176 358.115 44.7676 354.215 48.0676C351.965 50.0176 349.865 50.4676 346.715 52.2676C345.965 52.7176 346.715 55.5676 347.165 56.4676C350.465 63.0676 357.215 74.1676 362.915 81.3676C368.165 87.9676 372.815 90.5176 377.465 92.3176C378.965 92.9176 380.915 94.2676 380.915 95.6176C380.915 99.5176 376.115 100.718 372.065 100.718C360.065 100.718 348.515 99.5176 338.015 85.8676C332.615 78.8176 328.565 71.3176 324.365 64.5676C321.965 60.6676 319.865 59.9176 317.465 59.9176C316.415 59.9176 316.265 61.7176 316.265 62.1676C316.265 74.1676 316.265 77.7676 316.715 83.0176C317.165 88.4176 318.665 88.5676 324.665 91.4176C327.365 92.7676 329.165 94.4176 329.165 95.6176C329.165 97.2676 326.015 99.3676 323.465 99.3676C319.715 99.3676 308.165 98.7676 302.915 98.7676C298.265 98.7676 291.215 99.3676 285.665 99.3676C282.065 99.3676 279.965 97.5676 279.965 96.0676C279.965 93.9676 282.065 92.4676 284.915 91.7176C291.065 89.9176 292.565 88.7176 292.865 81.2176C293.015 75.8176 293.015 73.1176 293.015 46.1176C293.015 27.6676 292.565 26.7676 292.265 23.6176C291.965 20.6176 290.615 17.6176 284.915 16.5676C282.065 15.9676 280.265 13.7176 280.265 12.6676C280.265 10.1176 283.265 8.76757 286.865 8.76757C294.515 8.76757 297.065 9.06757 299.015 9.06757C308.915 9.06757 317.165 8.16757 327.665 8.16757C340.865 8.16757 347.765 11.0176 351.365 13.7176C357.815 18.6676 360.965 24.6676 360.965 32.6176ZM337.865 35.1676C337.865 25.7176 331.415 16.4176 320.615 16.4176C320.015 16.4176 317.765 17.0176 316.865 17.6176C316.415 17.9176 315.965 18.6676 315.965 20.0176C315.965 24.2176 316.265 38.1676 316.265 48.2176C316.265 48.8176 316.865 50.6176 317.465 50.9176C319.565 51.8176 321.515 52.2676 324.065 52.2676C327.365 52.2676 332.765 48.8176 333.665 48.2176C334.565 47.6176 337.865 42.3676 337.865 35.1676ZM418.566 9.06757H434.016C447.666 9.06757 449.766 9.06757 453.216 8.31757C454.866 8.01758 455.916 8.91757 456.366 9.66757C457.266 11.1676 458.466 22.5676 458.466 25.8676C458.466 29.7676 456.666 30.6676 455.766 30.6676C453.066 30.6676 451.566 29.0176 449.766 24.9676C446.916 18.8176 444.816 17.7676 443.616 17.7676C435.066 17.7676 426.816 18.2176 424.716 18.2176C423.966 18.2176 422.766 19.8676 422.766 20.4676C422.616 23.3176 422.316 34.1176 422.316 44.4676C422.316 46.8676 422.766 48.3676 423.516 48.5176C425.166 48.9676 430.416 48.8176 433.116 48.6676C439.866 48.2176 441.966 45.8176 443.616 42.0676C444.516 39.8176 446.016 38.0176 447.666 38.0176C449.766 38.0176 451.116 40.1176 450.816 44.4676C450.666 46.2676 450.516 49.7176 450.516 53.1676C450.516 56.6176 450.816 60.0676 450.966 62.3176C451.266 66.3676 449.016 68.1676 447.516 68.1676C446.166 68.1676 444.216 66.5176 442.866 63.5176C441.366 60.0676 440.916 59.0176 437.766 58.7176C431.616 58.2676 430.716 57.9676 423.966 57.9676C423.216 57.9676 422.316 60.0676 422.316 63.8176C422.316 67.8676 422.766 76.5676 422.916 79.8676C423.216 84.2176 423.816 85.8676 424.266 86.4676C425.766 88.7176 432.966 90.6676 440.166 90.6676C442.566 90.6676 446.766 90.2176 450.216 88.2676C453.066 86.7676 454.566 84.9676 457.866 80.4676C460.266 77.1676 461.916 73.5676 464.316 73.5676C467.166 73.5676 468.066 77.9176 467.466 81.0676C466.566 85.4176 462.966 95.4676 462.366 96.8176C461.916 97.8676 458.766 99.5176 457.866 99.5176C455.916 99.5176 449.916 98.7676 422.616 98.7676C413.166 98.7676 394.266 99.3676 387.816 99.3676C384.666 99.3676 382.416 98.1676 382.416 96.9676C382.416 95.1676 383.616 93.0676 386.766 92.1676C397.116 89.3176 397.416 85.8676 397.716 83.1676C398.316 75.9676 398.466 72.8176 398.466 49.7176C398.466 26.6176 398.166 25.7176 397.716 23.0176C396.966 18.5176 395.016 16.8676 389.016 15.3676C385.116 14.4676 384.516 12.3676 384.516 11.3176C384.516 9.36758 387.516 8.31757 389.466 8.31757C392.016 8.31757 408.666 9.06757 418.566 9.06757ZM518.201 6.21757C526.601 6.21757 534.551 8.91757 540.401 10.2676C541.301 10.4176 542.351 12.8176 542.351 14.4676C542.351 16.2676 543.401 24.5176 543.401 26.7676C543.401 31.8676 541.001 33.9676 538.901 33.9676C537.251 33.9676 535.901 31.4176 535.451 30.2176C532.151 21.2176 524.351 13.1176 515.801 13.1176C509.501 13.1176 503.801 18.9676 503.801 24.6676C503.801 31.4176 508.751 36.3676 517.301 40.7176C536.201 50.3176 547.301 58.7176 547.301 72.9676C547.301 85.2676 538.901 92.1676 533.501 95.4676C527.651 98.9176 517.751 101.468 510.851 101.468C498.101 101.468 490.751 98.7676 487.301 97.4176C486.251 96.9676 483.851 95.6176 483.101 93.9676C480.551 88.5676 480.101 80.7676 480.101 77.1676C480.101 74.3176 481.601 70.7176 484.001 70.7176C485.651 70.7176 487.601 72.5176 489.701 76.4176C495.251 86.6176 503.501 93.9676 512.801 93.9676C518.201 93.9676 524.951 90.2176 524.951 83.3176C524.951 78.8176 525.251 73.8676 509.951 65.6176C490.301 55.1176 482.651 47.0176 482.651 33.0676C482.651 23.3176 489.551 15.3676 496.751 11.3176C502.451 8.16757 509.651 6.21757 518.201 6.21757ZM601.111 6.21757C609.511 6.21757 617.461 8.91757 623.311 10.2676C624.211 10.4176 625.261 12.8176 625.261 14.4676C625.261 16.2676 626.311 24.5176 626.311 26.7676C626.311 31.8676 623.911 33.9676 621.811 33.9676C620.161 33.9676 618.811 31.4176 618.361 30.2176C615.061 21.2176 607.261 13.1176 598.711 13.1176C592.411 13.1176 586.711 18.9676 586.711 24.6676C586.711 31.4176 591.661 36.3676 600.211 40.7176C619.111 50.3176 630.211 58.7176 630.211 72.9676C630.211 85.2676 621.811 92.1676 616.411 95.4676C610.561 98.9176 600.661 101.468 593.761 101.468C581.011 101.468 573.661 98.7676 570.211 97.4176C569.161 96.9676 566.761 95.6176 566.011 93.9676C563.461 88.5676 563.011 80.7676 563.011 77.1676C563.011 74.3176 564.511 70.7176 566.911 70.7176C568.561 70.7176 570.511 72.5176 572.611 76.4176C578.161 86.6176 586.411 93.9676 595.711 93.9676C601.111 93.9676 607.861 90.2176 607.861 83.3176C607.861 78.8176 608.161 73.8676 592.861 65.6176C573.211 55.1176 565.561 47.0176 565.561 33.0676C565.561 23.3176 572.461 15.3676 579.661 11.3176C585.361 8.16757 592.561 6.21757 601.111 6.21757ZM726.797 6.06757C729.497 6.06757 730.397 10.5676 734.297 20.6176C742.397 42.3676 754.697 71.4676 758.747 80.6176C762.497 89.0176 764.597 89.1676 770.447 91.5676C773.897 93.0676 775.097 95.3176 775.097 96.9676C775.097 98.7676 772.697 99.5176 769.847 99.5176C765.197 99.5176 753.497 98.7676 746.147 98.7676C739.697 98.7676 735.647 99.5176 730.247 99.5176C726.047 99.5176 724.697 97.7176 724.697 96.6676C724.697 94.8676 726.497 92.7676 729.347 91.5676C734.597 89.3176 734.597 86.0176 733.847 83.4676C732.497 79.7176 732.347 78.9676 730.397 74.4676C730.247 74.0176 728.897 72.3676 726.497 72.0676C723.947 71.7676 705.197 71.4676 701.747 72.2176C700.847 72.3676 699.647 73.8676 699.347 74.4676C698.147 77.4676 696.947 83.1676 696.947 85.1176C696.947 87.8176 698.897 90.0676 703.697 91.7176C705.797 92.4676 708.047 93.6676 708.047 95.6176C708.047 96.3676 705.947 99.2176 702.047 99.2176C700.247 99.2176 696.947 98.7676 692.147 98.7676C686.597 98.7676 680.447 99.5176 674.147 99.5176C670.847 99.5176 668.597 98.0176 668.597 96.2176C668.597 94.7176 669.797 93.2176 673.097 91.8676C678.647 89.6176 681.647 89.1676 686.447 79.1176C690.197 71.1676 700.847 44.1676 709.847 20.4676C709.997 20.0176 710.297 18.9676 710.297 17.3176C710.297 16.7176 711.047 15.6676 711.647 15.2176C713.597 14.0176 721.097 9.06757 722.747 7.71757C723.647 6.81757 726.047 6.06757 726.797 6.06757ZM723.797 62.0176C724.547 62.0176 725.447 60.6676 725.297 60.2176C723.047 52.8676 716.747 36.8176 715.397 34.4176C714.797 33.3676 713.897 33.8176 713.447 34.4176C711.047 39.3676 704.597 57.8176 704.147 60.0676C703.997 60.9676 704.747 62.1676 705.797 62.1676C707.747 62.1676 721.697 62.1676 723.797 62.0176ZM779.535 10.7176C779.535 9.66757 780.735 8.16757 783.435 8.16757C789.435 8.16757 801.435 9.36758 811.035 9.36758C812.385 9.36758 814.485 10.4176 814.935 11.0176C817.485 14.4676 822.135 19.4176 829.335 27.2176C837.285 35.7676 861.135 60.9676 864.435 62.7676C864.885 62.9176 866.085 62.6176 866.235 62.1676C867.135 58.1176 867.135 43.7176 866.685 33.3676C866.235 23.1676 866.985 19.2676 855.285 16.5676C851.685 15.6676 850.335 13.1176 850.335 12.2176C850.335 11.1676 851.985 8.91757 855.585 8.91757C860.985 8.91757 860.685 9.06757 864.585 9.06757C870.735 9.06757 882.135 8.31757 885.135 8.31757C888.285 8.31757 890.385 9.21758 890.385 11.7676C890.385 13.4176 889.185 14.4676 884.385 16.5676C878.235 19.2676 877.335 20.9176 877.185 22.8676C876.885 29.7676 875.685 60.6676 875.685 70.7176C875.685 77.3176 876.285 83.9176 876.285 90.8176C876.285 97.1176 875.085 101.768 872.385 101.768C867.585 101.768 863.685 99.0676 860.835 95.7676C855.285 89.4676 848.235 81.2176 844.035 76.5676C838.335 69.9676 814.935 45.0676 808.335 37.8676C807.885 37.4176 806.835 38.3176 806.835 38.9176C806.685 42.2176 806.385 42.6676 806.385 49.1176C806.385 55.8676 806.685 69.3676 806.835 73.4176C807.285 85.1176 809.235 88.7176 814.485 90.8176C819.585 92.7676 821.235 94.4176 821.235 96.5176C821.235 98.3176 819.585 99.3676 816.135 99.3676C811.935 99.3676 806.835 98.7676 799.785 98.7676C792.735 98.7676 788.985 99.3676 787.035 99.3676C782.535 99.3676 781.035 97.7176 781.035 96.2176C781.035 94.2676 782.835 92.9176 785.535 92.0176C792.435 89.7676 795.135 89.3176 795.885 79.2676C796.635 69.2176 797.835 33.3676 797.835 28.5676C797.835 27.6676 797.085 24.5176 795.135 22.2676C791.985 18.6676 789.285 16.8676 785.835 16.1176C782.385 15.3676 779.535 13.5676 779.535 10.7176ZM944.765 8.01758C959.165 8.01758 974.015 11.1676 985.115 20.4676C997.715 31.1176 1000.26 44.4676 1000.26 53.7676C1000.26 76.7176 984.965 88.5676 976.865 93.0676C966.215 98.7676 954.965 99.9676 943.865 99.9676C937.715 99.9676 921.365 98.7676 916.565 98.7676C911.765 98.7676 905.015 98.7676 897.815 99.3676C896.615 99.5176 895.415 98.4676 895.415 97.4176C895.415 95.7676 897.665 92.1676 901.415 91.1176C906.215 89.7676 908.765 90.2176 909.965 83.4676C911.015 77.6176 911.015 70.1176 911.015 50.3176C911.015 29.7676 911.315 27.2176 910.265 21.9676C909.965 20.3176 909.665 18.0676 902.615 16.5676C899.015 15.8176 896.915 14.1676 896.915 12.0676C896.915 9.81757 899.315 8.91757 903.665 8.91757L914.015 9.06757C919.265 9.21758 934.265 8.01758 944.765 8.01758ZM944.765 15.9676C943.565 15.9676 938.615 16.5676 937.565 17.1676C936.965 17.4676 935.465 20.3176 935.465 20.9176C935.165 26.0176 934.565 32.4676 934.565 43.7176V54.5176C934.565 73.7176 935.165 76.1176 935.615 80.6176C935.915 83.7676 937.565 86.9176 939.365 88.4176C941.015 89.7676 946.415 92.3176 948.365 92.3176C950.015 92.3176 958.115 90.5176 964.715 84.2176C971.465 77.7676 974.315 65.1676 974.315 55.1176C974.315 44.1676 971.465 32.9176 963.815 25.4176C957.215 18.8176 949.565 15.9676 944.765 15.9676ZM210.993 134.068H235.143C254.493 134.068 257.793 133.168 258.393 133.168C259.743 133.168 261.243 134.818 261.243 136.168V150.868C261.243 155.068 258.843 157.468 257.043 157.468C255.843 157.468 254.043 155.368 253.143 152.218C252.093 148.768 249.993 143.218 244.743 142.768C240.543 142.468 228.843 142.468 224.193 142.468C222.543 142.468 221.493 145.018 221.343 146.668C220.893 152.068 220.743 168.718 221.043 172.918C221.193 174.568 221.643 175.468 222.993 175.468C226.143 175.468 232.143 175.168 236.193 174.718C240.993 174.118 241.443 172.918 243.393 168.568C244.143 166.918 246.093 163.918 247.893 163.918C249.993 163.918 250.893 166.768 250.893 169.318C250.893 173.668 250.293 177.568 250.293 180.118C250.293 182.968 250.893 189.268 250.893 190.468C250.893 192.868 249.243 195.568 246.993 195.568C245.793 195.568 244.293 194.068 243.093 191.668C240.693 187.018 240.243 185.368 236.793 184.918C235.143 184.618 232.893 184.318 222.693 184.318C222.093 184.318 221.193 186.418 221.043 188.218C220.743 193.318 220.743 203.218 221.043 206.518C221.643 212.968 223.593 214.768 230.943 216.718C234.843 217.768 236.043 219.568 236.043 221.068C236.043 222.568 233.493 224.518 230.643 224.518C221.193 224.518 214.293 223.768 208.293 223.768C205.143 223.768 200.043 224.368 188.493 224.368C185.943 224.368 183.693 223.168 183.693 221.218C183.693 219.568 185.493 217.768 188.493 217.018C194.193 215.668 196.293 212.968 196.593 208.918C197.043 204.418 197.193 199.918 197.193 179.968C197.193 157.468 197.193 154.168 196.893 148.918C196.593 144.118 194.643 142.468 188.943 140.818C186.243 140.068 183.993 139.168 183.993 136.618C183.993 134.518 187.893 133.618 189.543 133.618C201.243 133.768 205.143 134.068 210.993 134.068ZM327.248 131.068C358.448 131.068 379.448 152.068 379.448 178.918C379.448 197.668 368.348 212.368 354.248 220.168C347.798 223.768 337.298 226.468 327.698 226.468C296.048 226.468 275.348 204.868 275.348 178.918C275.348 167.368 279.698 155.968 288.998 146.668C298.748 136.918 313.148 131.068 327.248 131.068ZM324.548 138.868C317.498 138.868 311.198 144.868 311.048 145.018C304.748 151.918 302.048 162.118 302.048 176.218C302.048 196.618 311.348 218.818 331.598 218.818C336.698 218.818 342.698 214.318 343.448 213.718C348.248 209.218 352.148 199.768 352.148 179.968C352.148 164.218 344.348 138.868 324.548 138.868ZM448.39 131.068C479.59 131.068 500.59 152.068 500.59 178.918C500.59 197.668 489.49 212.368 475.39 220.168C468.94 223.768 458.44 226.468 448.84 226.468C417.19 226.468 396.49 204.868 396.49 178.918C396.49 167.368 400.84 155.968 410.14 146.668C419.89 136.918 434.29 131.068 448.39 131.068ZM445.69 138.868C438.64 138.868 432.34 144.868 432.19 145.018C425.89 151.918 423.19 162.118 423.19 176.218C423.19 196.618 432.49 218.818 452.74 218.818C457.84 218.818 463.84 214.318 464.59 213.718C469.39 209.218 473.29 199.768 473.29 179.968C473.29 164.218 465.49 138.868 445.69 138.868ZM541.818 134.068H587.718C596.118 134.068 599.868 133.018 600.468 132.268C602.268 130.018 603.918 128.668 604.968 128.668C605.868 128.668 609.768 131.068 609.768 133.468C609.768 134.518 607.968 143.968 607.968 154.018C607.968 157.018 605.718 160.318 602.868 160.318C600.768 160.318 599.568 156.568 599.268 155.218C597.018 145.318 594.468 145.018 589.068 144.418C586.818 144.118 586.368 143.668 573.618 143.668C572.868 143.668 572.418 144.868 572.268 146.368C572.118 148.468 571.218 168.718 571.218 178.168C571.218 187.318 571.068 197.218 571.518 202.618C572.418 213.568 574.968 214.018 581.118 216.268C583.818 217.318 586.368 218.668 586.368 220.468C586.368 223.768 582.768 224.518 579.768 224.518C578.268 224.518 561.768 223.768 552.768 223.768C548.418 223.768 540.318 224.218 536.268 224.218C533.118 224.218 530.118 222.868 530.118 220.168C530.118 218.968 531.618 216.868 535.068 215.968C544.368 213.418 546.918 211.468 546.918 203.218C546.918 200.068 547.218 180.118 547.218 170.368C547.218 161.068 547.368 151.168 547.368 146.518C547.368 145.318 545.868 143.668 545.418 143.668C541.668 143.668 536.118 143.668 532.218 143.818C528.018 143.968 523.968 143.968 519.918 155.218C519.018 157.768 517.218 159.718 515.568 159.718C513.618 159.718 511.368 157.018 511.368 153.418C511.368 148.768 513.018 142.018 513.018 133.768C513.018 131.218 515.268 128.968 517.068 128.968C517.518 128.968 519.318 129.868 520.368 130.618C522.918 132.718 525.168 133.618 529.518 133.768C535.668 134.068 537.018 134.068 541.818 134.068ZM660.586 131.068C663.286 131.068 664.186 135.568 668.086 145.618C676.186 167.368 688.486 196.468 692.536 205.618C696.286 214.018 698.386 214.168 704.236 216.568C707.686 218.068 708.886 220.318 708.886 221.968C708.886 223.768 706.486 224.518 703.636 224.518C698.986 224.518 687.286 223.768 679.936 223.768C673.486 223.768 669.436 224.518 664.036 224.518C659.836 224.518 658.486 222.718 658.486 221.668C658.486 219.868 660.286 217.768 663.136 216.568C668.386 214.318 668.386 211.018 667.636 208.468C666.286 204.718 666.136 203.968 664.186 199.468C664.036 199.018 662.686 197.368 660.286 197.068C657.736 196.768 638.986 196.468 635.536 197.218C634.636 197.368 633.436 198.868 633.136 199.468C631.936 202.468 630.736 208.168 630.736 210.118C630.736 212.818 632.686 215.068 637.486 216.718C639.586 217.468 641.836 218.668 641.836 220.618C641.836 221.368 639.736 224.218 635.836 224.218C634.036 224.218 630.736 223.768 625.936 223.768C620.386 223.768 614.236 224.518 607.936 224.518C604.636 224.518 602.386 223.018 602.386 221.218C602.386 219.718 603.586 218.218 606.886 216.868C612.436 214.618 615.436 214.168 620.236 204.118C623.986 196.168 634.636 169.168 643.636 145.468C643.786 145.018 644.086 143.968 644.086 142.318C644.086 141.718 644.836 140.668 645.436 140.218C647.386 139.018 654.886 134.068 656.536 132.718C657.436 131.818 659.836 131.068 660.586 131.068ZM657.586 187.018C658.336 187.018 659.236 185.668 659.086 185.218C656.836 177.868 650.536 161.818 649.186 159.418C648.586 158.368 647.686 158.818 647.236 159.418C644.836 164.368 638.386 182.818 637.936 185.068C637.786 185.968 638.536 187.168 639.586 187.168C641.536 187.168 655.486 187.168 657.586 187.018ZM771.937 131.068C781.687 131.068 787.237 132.718 793.537 134.368C796.687 135.268 799.837 135.718 801.787 135.718C802.837 135.718 804.487 137.368 804.787 139.018C805.687 143.068 807.787 150.718 807.787 156.718C807.787 158.968 806.287 162.568 804.037 162.568C802.537 162.568 801.487 162.118 799.237 158.068C797.287 154.468 795.787 150.418 792.037 147.118C784.237 140.218 775.087 139.168 771.037 139.168C750.187 139.168 742.837 158.968 742.837 176.518C742.837 201.268 756.937 218.518 774.187 218.518C775.537 218.518 779.287 217.618 780.937 216.418C782.437 215.368 783.037 210.268 783.037 206.818C783.037 201.118 782.887 195.568 782.737 193.618C782.437 190.618 781.837 188.068 776.287 186.718C771.187 185.518 769.237 184.018 769.237 181.768C769.237 180.418 770.887 178.318 775.387 178.318C779.587 178.318 783.937 179.068 788.887 179.068C793.387 179.068 808.087 178.318 811.087 178.318C815.287 178.318 816.637 179.968 816.637 181.768C816.637 183.868 813.787 185.518 811.837 186.268C806.587 188.068 806.887 190.618 806.737 192.718C806.437 196.168 806.437 191.218 806.437 204.868C806.437 206.818 806.587 208.918 806.887 211.318C807.037 212.368 807.337 213.868 807.337 215.668C807.337 216.118 805.537 218.368 805.237 218.518C803.437 219.868 799.687 221.818 793.387 223.618C787.537 225.268 780.187 226.768 772.837 226.768C748.237 226.768 734.287 219.418 724.687 207.718C717.937 199.468 715.387 188.518 715.387 178.768C715.387 162.568 722.287 151.318 734.137 142.318C742.687 135.718 758.287 131.068 771.937 131.068ZM861.095 134.068H876.545C890.195 134.068 892.295 134.068 895.745 133.318C897.395 133.018 898.445 133.918 898.895 134.668C899.795 136.168 900.995 147.568 900.995 150.868C900.995 154.768 899.195 155.668 898.295 155.668C895.595 155.668 894.095 154.018 892.295 149.968C889.445 143.818 887.345 142.768 886.145 142.768C877.595 142.768 869.345 143.218 867.245 143.218C866.495 143.218 865.295 144.868 865.295 145.468C865.145 148.318 864.845 159.118 864.845 169.468C864.845 171.868 865.295 173.368 866.045 173.518C867.695 173.968 872.945 173.818 875.645 173.668C882.395 173.218 884.495 170.818 886.145 167.068C887.045 164.818 888.545 163.018 890.195 163.018C892.295 163.018 893.645 165.118 893.345 169.468C893.195 171.268 893.045 174.718 893.045 178.168C893.045 181.618 893.345 185.068 893.495 187.318C893.795 191.368 891.545 193.168 890.045 193.168C888.695 193.168 886.745 191.518 885.395 188.518C883.895 185.068 883.445 184.018 880.295 183.718C874.145 183.268 873.245 182.968 866.495 182.968C865.745 182.968 864.845 185.068 864.845 188.818C864.845 192.868 865.295 201.568 865.445 204.868C865.745 209.218 866.345 210.868 866.795 211.468C868.295 213.718 875.495 215.668 882.695 215.668C885.095 215.668 889.295 215.218 892.745 213.268C895.595 211.768 897.095 209.968 900.395 205.468C902.795 202.168 904.445 198.568 906.845 198.568C909.695 198.568 910.595 202.918 909.995 206.068C909.095 210.418 905.495 220.468 904.895 221.818C904.445 222.868 901.295 224.518 900.395 224.518C898.445 224.518 892.445 223.768 865.145 223.768C855.695 223.768 836.795 224.368 830.345 224.368C827.195 224.368 824.945 223.168 824.945 221.968C824.945 220.168 826.145 218.068 829.295 217.168C839.645 214.318 839.945 210.868 840.245 208.168C840.845 200.968 840.995 197.818 840.995 174.718C840.995 151.618 840.695 150.718 840.245 148.018C839.495 143.518 837.545 141.868 831.545 140.368C827.645 139.468 827.045 137.368 827.045 136.318C827.045 134.368 830.045 133.318 831.995 133.318C834.545 133.318 851.195 134.068 861.095 134.068Z" fill="white"/>
</svg>
