<svg width="1042" height="261" viewBox="0 0 1042 261" fill="none" xmlns="http://www.w3.org/2000/svg">
<path d="M220.466 39.8295C222.014 39.8295 222.53 42.4095 224.766 48.1715C229.41 60.6415 236.462 77.3255 238.784 82.5715C240.934 87.3875 242.138 87.4735 245.492 88.8495C247.47 89.7095 248.158 90.9995 248.158 91.9455C248.158 92.9775 246.782 93.4075 245.148 93.4075C242.482 93.4075 235.774 92.9775 231.56 92.9775C227.862 92.9775 225.54 93.4075 222.444 93.4075C220.036 93.4075 219.262 92.3755 219.262 91.7735C219.262 90.7415 220.294 89.5375 221.928 88.8495C224.938 87.5595 224.938 85.6675 224.508 84.2055C223.734 82.0555 223.648 81.6255 222.53 79.0455C222.444 78.7875 221.67 77.8415 220.294 77.6695C218.832 77.4975 208.082 77.3255 206.104 77.7555C205.588 77.8415 204.9 78.7015 204.728 79.0455C204.04 80.7655 203.352 84.0335 203.352 85.1515C203.352 86.6995 204.47 87.9895 207.222 88.9355C208.426 89.3655 209.716 90.0535 209.716 91.1715C209.716 91.6015 208.512 93.2355 206.276 93.2355C205.244 93.2355 203.352 92.9775 200.6 92.9775C197.418 92.9775 193.892 93.4075 190.28 93.4075C188.388 93.4075 187.098 92.5475 187.098 91.5155C187.098 90.6555 187.786 89.7955 189.678 89.0215C192.86 87.7315 194.58 87.4735 197.332 81.7115C199.482 77.1535 205.588 61.6735 210.748 48.0855C210.834 47.8275 211.006 47.2255 211.006 46.2795C211.006 45.9355 211.436 45.3335 211.78 45.0755C212.898 44.3875 217.198 41.5495 218.144 40.7755C218.66 40.2595 220.036 39.8295 220.466 39.8295ZM218.746 71.9075C219.176 71.9075 219.692 71.1335 219.606 70.8755C218.316 66.6615 214.704 57.4595 213.93 56.0835C213.586 55.4815 213.07 55.7395 212.812 56.0835C211.436 58.9215 207.738 69.4995 207.48 70.7895C207.394 71.3055 207.824 71.9935 208.426 71.9935C209.544 71.9935 217.542 71.9935 218.746 71.9075ZM264.072 42.5815C264.072 41.8075 265.964 40.9475 267.168 40.9475C271.898 40.9475 279.638 41.5495 281.186 41.5495C284.282 41.5495 285.314 41.3775 289.614 41.3775C291.85 41.3775 292.882 42.7535 292.882 43.2695C292.882 44.6455 291.334 45.5915 289.958 45.8495C286.948 46.3655 286.346 47.6555 286.948 49.9775C287.636 52.2995 295.462 71.6495 296.752 73.9715C297.01 74.4015 297.44 74.3155 297.784 74.0575C299.848 68.7255 301.31 66.2315 304.578 56.1695C304.836 55.3955 304.578 53.9335 304.234 52.6435C304.148 52.0415 303.718 51.1815 303.116 49.5475C302.6 48.0855 300.106 46.2795 298.988 45.9355C297.526 45.5055 295.806 44.7315 295.806 43.1835C295.806 42.0655 297.44 41.2915 298.816 41.2915C303.202 41.2915 306.728 41.5495 308.964 41.5495C311.114 41.5495 314.124 41.2915 319.542 41.2915C321.176 41.2915 322.81 42.1515 322.81 43.1835C322.81 44.0435 321.692 45.3335 320.23 45.7635C317.306 46.5375 316.876 47.4835 316.876 48.6015C316.876 49.8055 317.048 50.3215 317.65 52.2995C319.628 58.6635 325.046 71.8215 326.508 74.5735C326.766 75.0895 327.11 75.0895 327.368 74.6595C328.744 71.9935 332.614 62.0175 334.764 55.8255C336.312 51.0955 336.312 50.4075 336.312 49.1175C336.312 47.5695 334.076 46.4515 332.356 45.9355C330.894 45.5055 329.604 44.4735 329.604 43.2695C329.604 42.7535 330.464 41.2915 332.614 41.2915C335.366 41.2915 335.968 41.5495 338.72 41.5495C341.558 41.5495 346.202 41.1195 348.696 41.1195C350.33 41.1195 352.136 41.4635 352.136 43.1835C352.136 44.1295 350.244 45.5055 349.384 45.7635C344.482 47.2255 343.02 50.2355 341.386 53.9335C339.58 57.9755 334.076 70.0155 330.808 79.3035C330.034 81.4535 328.486 85.7535 327.454 88.2475C326.422 90.7415 323.498 94.6975 321.95 94.6975C319.886 94.6975 318.252 91.5155 317.306 89.0215C314.812 82.5715 309.136 67.5215 307.502 64.2535C307.33 63.9095 306.728 64.0815 306.556 64.4255C304.148 70.6175 299.074 81.7115 298.128 85.1515C298.042 85.3235 297.182 87.5595 295.72 90.2255C295.29 90.9995 293.484 94.7835 292.28 94.7835C290.216 94.7835 289.012 92.8055 288.496 91.4295C287.464 88.3335 286.518 85.4955 285.142 81.5395C281.874 72.5095 277.402 62.3615 274.048 53.6755C271.64 47.3975 270.522 46.5375 267.082 45.3335C265.104 44.6455 264.072 43.9575 264.072 42.5815ZM382.842 39.8295C400.73 39.8295 412.77 51.8695 412.77 67.2635C412.77 78.0135 406.406 86.4415 398.322 90.9135C394.624 92.9775 388.604 94.5255 383.1 94.5255C364.954 94.5255 353.086 82.1415 353.086 67.2635C353.086 60.6415 355.58 54.1055 360.912 48.7735C366.502 43.1835 374.758 39.8295 382.842 39.8295ZM381.294 44.3015C377.252 44.3015 373.64 47.7415 373.554 47.8275C369.942 51.7835 368.394 57.6315 368.394 65.7155C368.394 77.4115 373.726 90.1395 385.336 90.1395C388.26 90.1395 391.7 87.5595 392.13 87.2155C394.882 84.6355 397.118 79.2175 397.118 67.8655C397.118 58.8355 392.646 44.3015 381.294 44.3015ZM466.926 55.0515C466.926 58.3195 465.292 62.0175 463.056 63.9095C461.766 65.0275 460.562 65.2855 458.756 66.3175C458.326 66.5755 458.756 68.2095 459.014 68.7255C460.906 72.5095 464.776 78.8735 468.044 83.0015C471.054 86.7855 473.72 88.2475 476.386 89.2795C477.246 89.6235 478.364 90.3975 478.364 91.1715C478.364 93.4075 475.612 94.0955 473.29 94.0955C466.41 94.0955 459.788 93.4075 453.768 85.5815C450.672 81.5395 448.35 77.2395 445.942 73.3695C444.566 71.1335 443.362 70.7035 441.986 70.7035C441.384 70.7035 441.298 71.7355 441.298 71.9935C441.298 78.8735 441.298 80.9375 441.556 83.9475C441.814 87.0435 442.674 87.1295 446.114 88.7635C447.662 89.5375 448.694 90.4835 448.694 91.1715C448.694 92.1175 446.888 93.3215 445.426 93.3215C443.276 93.3215 436.654 92.9775 433.644 92.9775C430.978 92.9775 426.936 93.3215 423.754 93.3215C421.69 93.3215 420.486 92.2895 420.486 91.4295C420.486 90.2255 421.69 89.3655 423.324 88.9355C426.85 87.9035 427.71 87.2155 427.882 82.9155C427.968 79.8195 427.968 78.2715 427.968 62.7915C427.968 52.2135 427.71 51.6975 427.538 49.8915C427.366 48.1715 426.592 46.4515 423.324 45.8495C421.69 45.5055 420.658 44.2155 420.658 43.6135C420.658 42.1515 422.378 41.3775 424.442 41.3775C428.828 41.3775 430.29 41.5495 431.408 41.5495C437.084 41.5495 441.814 41.0335 447.834 41.0335C455.402 41.0335 459.358 42.6675 461.422 44.2155C465.12 47.0535 466.926 50.4935 466.926 55.0515ZM453.682 56.5135C453.682 51.0955 449.984 45.7635 443.792 45.7635C443.448 45.7635 442.158 46.1075 441.642 46.4515C441.384 46.6235 441.126 47.0535 441.126 47.8275C441.126 50.2355 441.298 58.2335 441.298 63.9955C441.298 64.3395 441.642 65.3715 441.986 65.5435C443.19 66.0595 444.308 66.3175 445.77 66.3175C447.662 66.3175 450.758 64.3395 451.274 63.9955C451.79 63.6515 453.682 60.6415 453.682 56.5135ZM507.776 40.9475C516.032 40.9475 524.546 42.7535 530.91 48.0855C538.134 54.1915 539.596 61.8455 539.596 67.1775C539.596 80.3355 530.824 87.1295 526.18 89.7095C520.074 92.9775 513.624 93.6655 507.26 93.6655C503.734 93.6655 494.36 92.9775 491.608 92.9775C488.856 92.9775 484.986 92.9775 480.858 93.3215C480.17 93.4075 479.482 92.8055 479.482 92.2035C479.482 91.2575 480.772 89.1935 482.922 88.5915C485.674 87.8175 487.136 88.0755 487.824 84.2055C488.426 80.8515 488.426 76.5515 488.426 65.1995C488.426 53.4175 488.598 51.9555 487.996 48.9455C487.824 47.9995 487.652 46.7095 483.61 45.8495C481.546 45.4195 480.342 44.4735 480.342 43.2695C480.342 41.9795 481.718 41.4635 484.212 41.4635L490.146 41.5495C493.156 41.6355 501.756 40.9475 507.776 40.9475ZM507.776 45.5055C507.088 45.5055 504.25 45.8495 503.648 46.1935C503.304 46.3655 502.444 47.9995 502.444 48.3435C502.272 51.2675 501.928 54.9655 501.928 61.4155V67.6075C501.928 78.6155 502.272 79.9915 502.53 82.5715C502.702 84.3775 503.648 86.1835 504.68 87.0435C505.626 87.8175 508.722 89.2795 509.84 89.2795C510.786 89.2795 515.43 88.2475 519.214 84.6355C523.084 80.9375 524.718 73.7135 524.718 67.9515C524.718 61.6735 523.084 55.2235 518.698 50.9235C514.914 47.1395 510.528 45.5055 507.776 45.5055ZM579.817 41.5495H593.663C604.757 41.5495 606.649 41.0335 606.993 41.0335C607.767 41.0335 608.627 41.9795 608.627 42.7535V51.1815C608.627 53.5895 607.251 54.9655 606.219 54.9655C605.531 54.9655 604.499 53.7615 603.983 51.9555C603.381 49.9775 602.177 46.7955 599.167 46.5375C596.759 46.3655 590.051 46.3655 587.385 46.3655C586.439 46.3655 585.837 47.8275 585.751 48.7735C585.493 51.8695 585.407 61.4155 585.579 63.8235C585.665 64.7695 585.923 65.2855 586.697 65.2855C588.503 65.2855 591.943 65.1135 594.265 64.8555C597.017 64.5115 597.275 63.8235 598.393 61.3295C598.823 60.3835 599.941 58.6635 600.973 58.6635C602.177 58.6635 602.693 60.2975 602.693 61.7595C602.693 64.2535 602.349 66.4895 602.349 67.9515C602.349 69.5855 602.693 73.1975 602.693 73.8855C602.693 75.2615 601.747 76.8095 600.457 76.8095C599.769 76.8095 598.909 75.9495 598.221 74.5735C596.845 71.9075 596.587 70.9615 594.609 70.7035C593.663 70.5315 592.373 70.3595 586.525 70.3595C586.181 70.3595 585.665 71.5635 585.579 72.5955C585.407 75.5195 585.407 81.1955 585.579 83.0875C585.923 86.7855 587.041 87.8175 591.255 88.9355C593.491 89.5375 594.179 90.5695 594.179 91.4295C594.179 92.2895 592.717 93.4075 591.083 93.4075C585.665 93.4075 581.709 92.9775 578.269 92.9775C576.463 92.9775 573.539 93.3215 566.917 93.3215C565.455 93.3215 564.165 92.6335 564.165 91.5155C564.165 90.5695 565.197 89.5375 566.917 89.1075C570.185 88.3335 571.389 86.7855 571.561 84.4635C571.819 81.8835 571.905 79.3035 571.905 67.8655C571.905 54.9655 571.905 53.0735 571.733 50.0635C571.561 47.3115 570.443 46.3655 567.175 45.4195C565.627 44.9895 564.337 44.4735 564.337 43.0115C564.337 41.8075 566.573 41.2915 567.519 41.2915C574.227 41.3775 576.463 41.5495 579.817 41.5495ZM662.105 55.0515C662.105 58.3195 660.471 62.0175 658.235 63.9095C656.945 65.0275 655.741 65.2855 653.935 66.3175C653.505 66.5755 653.935 68.2095 654.193 68.7255C656.085 72.5095 659.955 78.8735 663.223 83.0015C666.233 86.7855 668.899 88.2475 671.565 89.2795C672.425 89.6235 673.543 90.3975 673.543 91.1715C673.543 93.4075 670.791 94.0955 668.469 94.0955C661.589 94.0955 654.967 93.4075 648.947 85.5815C645.851 81.5395 643.529 77.2395 641.121 73.3695C639.745 71.1335 638.541 70.7035 637.165 70.7035C636.563 70.7035 636.477 71.7355 636.477 71.9935C636.477 78.8735 636.477 80.9375 636.735 83.9475C636.993 87.0435 637.853 87.1295 641.293 88.7635C642.841 89.5375 643.873 90.4835 643.873 91.1715C643.873 92.1175 642.067 93.3215 640.605 93.3215C638.455 93.3215 631.833 92.9775 628.823 92.9775C626.157 92.9775 622.115 93.3215 618.933 93.3215C616.869 93.3215 615.665 92.2895 615.665 91.4295C615.665 90.2255 616.869 89.3655 618.503 88.9355C622.029 87.9035 622.889 87.2155 623.061 82.9155C623.147 79.8195 623.147 78.2715 623.147 62.7915C623.147 52.2135 622.889 51.6975 622.717 49.8915C622.545 48.1715 621.771 46.4515 618.503 45.8495C616.869 45.5055 615.837 44.2155 615.837 43.6135C615.837 42.1515 617.557 41.3775 619.621 41.3775C624.007 41.3775 625.469 41.5495 626.587 41.5495C632.263 41.5495 636.993 41.0335 643.013 41.0335C650.581 41.0335 654.537 42.6675 656.601 44.2155C660.299 47.0535 662.105 50.4935 662.105 55.0515ZM648.861 56.5135C648.861 51.0955 645.163 45.7635 638.971 45.7635C638.627 45.7635 637.337 46.1075 636.821 46.4515C636.563 46.6235 636.305 47.0535 636.305 47.8275C636.305 50.2355 636.477 58.2335 636.477 63.9955C636.477 64.3395 636.821 65.3715 637.165 65.5435C638.369 66.0595 639.487 66.3175 640.949 66.3175C642.841 66.3175 645.937 64.3395 646.453 63.9955C646.969 63.6515 648.861 60.6415 648.861 56.5135ZM706.014 39.8295C723.902 39.8295 735.942 51.8695 735.942 67.2635C735.942 78.0135 729.578 86.4415 721.494 90.9135C717.796 92.9775 711.776 94.5255 706.272 94.5255C688.126 94.5255 676.258 82.1415 676.258 67.2635C676.258 60.6415 678.752 54.1055 684.084 48.7735C689.674 43.1835 697.93 39.8295 706.014 39.8295ZM704.466 44.3015C700.424 44.3015 696.812 47.7415 696.726 47.8275C693.114 51.7835 691.566 57.6315 691.566 65.7155C691.566 77.4115 696.898 90.1395 708.508 90.1395C711.432 90.1395 714.872 87.5595 715.302 87.2155C718.054 84.6355 720.29 79.2175 720.29 67.8655C720.29 58.8355 715.818 44.3015 704.466 44.3015ZM744.968 43.6135C744.968 42.6675 746.258 41.2055 748.15 41.2055C750.3 41.2055 763.888 41.5495 764.404 41.5495C764.834 41.5495 766.038 43.0115 766.124 43.1835C766.468 44.3875 767.586 46.4515 769.392 50.6655C771.284 55.0515 777.906 69.7575 779.884 72.1655C779.884 72.2515 780.658 72.5955 780.916 71.9935C783.754 65.8875 787.538 57.9755 790.376 51.4395C792.01 47.6555 792.612 45.2475 793.3 43.3555C793.472 42.8395 794.418 41.7215 794.934 41.7215C796.396 41.7215 808.78 41.1195 811.532 41.1195C812.392 41.1195 814.37 41.9795 814.37 43.1835C814.37 44.2155 813.596 44.7315 811.876 45.2475C806.372 46.8815 806.2 47.3115 806.2 49.5475C806.2 61.7595 806.802 71.6495 807.146 80.5935C807.404 87.6455 809.21 88.1615 812.134 88.8495C814.8 89.4515 815.66 90.3975 815.66 91.4295C815.66 92.2895 814.026 93.4935 812.22 93.4935C811.188 93.4935 801.556 92.9775 797.428 92.9775C793.558 92.9775 791.408 93.3215 789.344 93.3215C787.194 93.3215 786.592 91.5155 786.592 90.9135C786.592 90.2255 787.968 89.5375 788.398 89.3655C792.612 87.9035 793.386 86.8715 793.472 82.1415C793.558 79.9055 793.386 64.4255 793.644 56.1695C793.644 55.7395 793.042 55.8255 792.612 56.5995C791.494 58.6635 784.012 76.6375 782.206 80.9375C781.26 83.1735 779.884 87.3015 778.68 90.2255C777.82 92.2035 776.272 93.5795 774.38 93.5795C773.606 93.5795 772.316 92.1175 771.886 90.6555C770.596 86.4415 768.876 82.3135 768.102 80.0775C764.318 69.4135 760.878 62.8775 758.728 57.6315C758.384 56.7715 757.696 56.9435 757.696 57.5455C757.008 67.4355 756.578 77.3255 756.578 81.7115C756.578 86.8715 757.18 87.1295 761.738 88.9355C763.63 89.7095 764.49 90.2255 764.49 91.3435C764.49 92.2895 763.286 93.3215 761.308 93.3215C760.104 93.3215 757.008 92.9775 754.514 92.9775C751.762 92.9775 745.484 93.4935 744.366 93.4935C742.732 93.4935 741.184 92.6335 741.184 91.5155C741.184 90.7415 741.958 89.8815 744.022 89.1935C748.322 87.8175 749.698 86.0975 750.3 82.4855C751.332 76.5515 753.31 56.5135 753.482 52.0415C753.654 47.3975 752.364 46.7955 748.064 45.5915C745.914 44.9895 744.968 44.3015 744.968 43.6135ZM870.204 39.8295C888.092 39.8295 900.132 51.8695 900.132 67.2635C900.132 78.0135 893.768 86.4415 885.684 90.9135C881.986 92.9775 875.966 94.5255 870.462 94.5255C852.316 94.5255 840.448 82.1415 840.448 67.2635C840.448 60.6415 842.942 54.1055 848.274 48.7735C853.864 43.1835 862.12 39.8295 870.204 39.8295ZM868.656 44.3015C864.614 44.3015 861.002 47.7415 860.916 47.8275C857.304 51.7835 855.756 57.6315 855.756 65.7155C855.756 77.4115 861.088 90.1395 872.698 90.1395C875.622 90.1395 879.062 87.5595 879.492 87.2155C882.244 84.6355 884.48 79.2175 884.48 67.8655C884.48 58.8355 880.008 44.3015 868.656 44.3015ZM906.729 43.0975C906.729 41.8935 908.277 41.1195 911.115 41.1195C913.781 41.1195 920.231 41.5495 923.069 41.5495C926.853 41.5495 930.895 41.2915 932.099 41.2915C934.335 41.2915 935.883 42.4955 935.883 43.3555C935.883 44.3875 933.905 45.5055 932.615 45.8495C928.745 46.8815 928.229 47.9995 927.971 52.0415C927.627 56.6855 927.627 63.0495 928.057 70.4455C928.487 77.9275 930.121 81.8835 931.927 83.4315C934.335 85.4955 937.861 87.0435 941.473 87.0435C948.095 87.0435 953.427 83.8615 954.545 74.5735C954.975 71.1335 955.061 61.8455 955.061 56.8575C955.061 47.9135 954.975 47.2255 948.869 45.7635C947.149 45.3335 945.687 44.6455 945.687 43.1835C945.687 42.4955 946.891 41.2915 949.213 41.2915C950.933 41.2915 953.685 41.5495 956.953 41.5495C960.049 41.5495 963.575 41.1195 966.585 41.1195C968.219 41.1195 969.939 41.6355 969.939 43.0975C969.939 44.2155 968.477 45.0755 966.757 45.6775C962.801 47.1395 962.199 47.8275 961.683 52.0415C961.511 53.0735 961.167 60.2975 960.823 66.9195C960.049 80.8515 957.211 85.2375 952.997 89.3655C949.471 92.8055 943.451 94.5255 937.517 94.5255C930.551 94.5255 923.069 92.3755 919.457 87.5595C914.641 81.1955 914.297 74.5735 914.297 64.7695C914.297 54.4495 914.125 53.1595 913.953 50.5795C913.695 47.1395 913.093 46.7095 909.911 45.7635C908.191 45.2475 906.729 44.5595 906.729 43.0975ZM1021.39 55.0515C1021.39 58.3195 1019.76 62.0175 1017.52 63.9095C1016.23 65.0275 1015.03 65.2855 1013.22 66.3175C1012.79 66.5755 1013.22 68.2095 1013.48 68.7255C1015.37 72.5095 1019.24 78.8735 1022.51 83.0015C1025.52 86.7855 1028.18 88.2475 1030.85 89.2795C1031.71 89.6235 1032.83 90.3975 1032.83 91.1715C1032.83 93.4075 1030.08 94.0955 1027.75 94.0955C1020.87 94.0955 1014.25 93.4075 1008.23 85.5815C1005.14 81.5395 1002.81 77.2395 1000.41 73.3695C999.03 71.1335 997.826 70.7035 996.45 70.7035C995.848 70.7035 995.762 71.7355 995.762 71.9935C995.762 78.8735 995.762 80.9375 996.02 83.9475C996.278 87.0435 997.138 87.1295 1000.58 88.7635C1002.13 89.5375 1003.16 90.4835 1003.16 91.1715C1003.16 92.1175 1001.35 93.3215 999.89 93.3215C997.74 93.3215 991.118 92.9775 988.108 92.9775C985.442 92.9775 981.4 93.3215 978.218 93.3215C976.154 93.3215 974.95 92.2895 974.95 91.4295C974.95 90.2255 976.154 89.3655 977.788 88.9355C981.314 87.9035 982.174 87.2155 982.346 82.9155C982.432 79.8195 982.432 78.2715 982.432 62.7915C982.432 52.2135 982.174 51.6975 982.002 49.8915C981.83 48.1715 981.056 46.4515 977.788 45.8495C976.154 45.5055 975.122 44.2155 975.122 43.6135C975.122 42.1515 976.842 41.3775 978.906 41.3775C983.292 41.3775 984.754 41.5495 985.872 41.5495C991.548 41.5495 996.278 41.0335 1002.3 41.0335C1009.87 41.0335 1013.82 42.6675 1015.89 44.2155C1019.58 47.0535 1021.39 50.4935 1021.39 55.0515ZM1008.15 56.5135C1008.15 51.0955 1004.45 45.7635 998.256 45.7635C997.912 45.7635 996.622 46.1075 996.106 46.4515C995.848 46.6235 995.59 47.0535 995.59 47.8275C995.59 50.2355 995.762 58.2335 995.762 63.9955C995.762 64.3395 996.106 65.3715 996.45 65.5435C997.654 66.0595 998.772 66.3175 1000.23 66.3175C1002.13 66.3175 1005.22 64.3395 1005.74 63.9955C1006.25 63.6515 1008.15 60.6415 1008.15 56.5135Z" fill="white"/>
<path d="M208.685 109.842H233.542C253.458 109.842 256.855 108.915 257.473 108.915C258.862 108.915 260.406 110.614 260.406 112.003V127.133C260.406 131.456 257.936 133.927 256.083 133.927C254.848 133.927 252.995 131.765 252.069 128.523C250.988 124.972 248.827 119.26 243.423 118.796C239.1 118.488 227.058 118.488 222.272 118.488C220.573 118.488 219.493 121.112 219.338 122.811C218.875 128.369 218.721 145.506 219.03 149.829C219.184 151.527 219.647 152.453 221.037 152.453C224.279 152.453 230.454 152.145 234.623 151.681C239.563 151.064 240.027 149.829 242.034 145.351C242.806 143.653 244.813 140.565 246.665 140.565C248.827 140.565 249.753 143.499 249.753 146.123C249.753 150.601 249.136 154.615 249.136 157.24C249.136 160.173 249.753 166.657 249.753 167.892C249.753 170.363 248.055 173.142 245.739 173.142C244.504 173.142 242.96 171.598 241.725 169.128C239.255 164.341 238.791 162.643 235.24 162.18C233.542 161.871 231.226 161.562 220.728 161.562C220.11 161.562 219.184 163.724 219.03 165.577C218.721 170.826 218.721 181.016 219.03 184.412C219.647 191.051 221.654 192.904 229.219 194.911C233.233 195.991 234.469 197.844 234.469 199.388C234.469 200.932 231.844 202.939 228.91 202.939C219.184 202.939 212.082 202.167 205.906 202.167C202.664 202.167 197.415 202.785 185.527 202.785C182.902 202.785 180.586 201.549 180.586 199.542C180.586 197.844 182.439 195.991 185.527 195.219C191.394 193.83 193.555 191.051 193.864 186.882C194.327 182.251 194.482 177.619 194.482 157.085C194.482 133.927 194.482 130.53 194.173 125.126C193.864 120.186 191.857 118.488 185.99 116.789C183.211 116.017 180.895 115.091 180.895 112.466C180.895 110.305 184.909 109.379 186.608 109.379C198.65 109.533 202.664 109.842 208.685 109.842ZM328.342 106.754C360.456 106.754 382.07 128.369 382.07 156.004C382.07 175.303 370.645 190.433 356.133 198.462C349.494 202.167 338.687 204.946 328.806 204.946C296.229 204.946 274.924 182.714 274.924 156.004C274.924 144.116 279.401 132.383 288.973 122.811C299.008 112.775 313.83 106.754 328.342 106.754ZM325.563 114.782C318.307 114.782 311.823 120.958 311.668 121.112C305.184 128.214 302.405 138.713 302.405 153.225C302.405 174.222 311.977 197.072 332.82 197.072C338.069 197.072 344.245 192.44 345.017 191.823C349.957 187.191 353.971 177.465 353.971 157.085C353.971 140.874 345.943 114.782 325.563 114.782ZM393.914 112.621C393.914 110.459 396.693 109.07 401.787 109.07C406.574 109.07 418.153 109.842 423.248 109.842C430.041 109.842 437.297 109.379 439.459 109.379C443.473 109.379 446.252 111.54 446.252 113.084C446.252 114.937 442.701 116.944 440.385 117.561C433.437 119.414 432.511 121.421 432.048 128.677C431.43 137.014 431.43 148.439 432.202 161.717C432.974 175.149 435.908 182.251 439.15 185.03C443.473 188.735 449.803 191.514 456.287 191.514C468.175 191.514 477.747 185.802 479.754 169.128C480.526 162.952 480.681 146.278 480.681 137.323C480.681 121.267 480.526 120.032 469.565 117.407C466.477 116.635 463.852 115.4 463.852 112.775C463.852 111.54 466.014 109.379 470.182 109.379C473.27 109.379 478.211 109.842 484.077 109.842C489.635 109.842 495.965 109.07 501.369 109.07C504.302 109.07 507.39 109.996 507.39 112.621C507.39 114.628 504.766 116.172 501.678 117.252C494.576 119.877 493.495 121.112 492.569 128.677C492.26 130.53 491.642 143.499 491.025 155.387C489.635 180.398 484.541 188.272 476.975 195.683C470.645 201.858 459.838 204.946 449.185 204.946C436.68 204.946 423.248 201.086 416.763 192.44C408.117 181.016 407.5 169.128 407.5 151.527C407.5 133 407.191 130.684 406.882 126.053C406.419 119.877 405.338 119.105 399.626 117.407C396.538 116.481 393.914 115.245 393.914 112.621ZM512.527 111.54C512.527 110.459 513.762 108.915 516.541 108.915C522.717 108.915 535.068 110.151 544.949 110.151C546.339 110.151 548.5 111.231 548.963 111.849C551.588 115.4 556.374 120.495 563.785 128.523C571.967 137.323 596.515 163.261 599.912 165.113C600.375 165.268 601.61 164.959 601.765 164.496C602.691 160.327 602.691 145.506 602.228 134.853C601.765 124.354 602.537 120.34 590.494 117.561C586.789 116.635 585.399 114.01 585.399 113.084C585.399 112.003 587.098 109.687 590.803 109.687C596.361 109.687 596.052 109.842 600.066 109.842C606.396 109.842 618.13 109.07 621.218 109.07C624.46 109.07 626.622 109.996 626.622 112.621C626.622 114.319 625.386 115.4 620.446 117.561C614.116 120.34 613.19 122.039 613.035 124.046C612.726 131.148 611.491 162.952 611.491 173.296C611.491 180.089 612.109 186.882 612.109 193.984C612.109 200.469 610.874 205.255 608.095 205.255C603.154 205.255 599.14 202.476 596.207 199.079C590.494 192.595 583.238 184.103 578.915 179.317C573.048 172.524 548.963 146.895 542.17 139.485C541.707 139.021 540.626 139.948 540.626 140.565C540.472 143.962 540.163 144.425 540.163 151.064C540.163 158.011 540.472 171.907 540.626 176.075C541.089 188.118 543.097 191.823 548.5 193.984C553.749 195.991 555.448 197.69 555.448 199.851C555.448 201.704 553.749 202.785 550.198 202.785C545.876 202.785 540.626 202.167 533.37 202.167C526.114 202.167 522.254 202.785 520.247 202.785C515.615 202.785 514.071 201.086 514.071 199.542C514.071 197.535 515.924 196.146 518.703 195.219C525.805 192.904 528.584 192.44 529.356 182.096C530.128 171.752 531.363 134.853 531.363 129.912C531.363 128.986 530.591 125.744 528.584 123.428C525.342 119.723 522.563 117.87 519.012 117.098C515.461 116.326 512.527 114.473 512.527 111.54ZM682.593 108.761C697.414 108.761 712.699 112.003 724.124 121.575C737.092 132.537 739.717 146.278 739.717 155.85C739.717 179.472 723.969 191.668 715.632 196.3C704.671 202.167 693.091 203.402 681.666 203.402C675.336 203.402 658.508 202.167 653.567 202.167C648.627 202.167 641.679 202.167 634.269 202.785C633.034 202.939 631.798 201.858 631.798 200.777C631.798 199.079 634.114 195.374 637.974 194.293C642.915 192.904 645.539 193.367 646.774 186.419C647.855 180.398 647.855 172.679 647.855 152.299C647.855 131.148 648.164 128.523 647.083 123.119C646.774 121.421 646.465 119.105 639.209 117.561C635.504 116.789 633.342 115.091 633.342 112.93C633.342 110.614 635.813 109.687 640.29 109.687L650.943 109.842C656.346 109.996 671.785 108.761 682.593 108.761ZM682.593 116.944C681.358 116.944 676.263 117.561 675.182 118.179C674.564 118.488 673.021 121.421 673.021 122.039C672.712 127.288 672.094 133.927 672.094 145.506V156.622C672.094 176.384 672.712 178.854 673.175 183.486C673.484 186.728 675.182 189.97 677.035 191.514C678.733 192.904 684.291 195.528 686.298 195.528C687.996 195.528 696.333 193.676 703.127 187.191C710.074 180.552 713.008 167.584 713.008 157.24C713.008 145.969 710.074 134.39 702.2 126.67C695.407 119.877 687.533 116.944 682.593 116.944ZM786.899 109.842H802.801C816.851 109.842 819.012 109.842 822.563 109.07C824.261 108.761 825.342 109.687 825.805 110.459C826.731 112.003 827.967 123.737 827.967 127.133C827.967 131.148 826.114 132.074 825.188 132.074C822.409 132.074 820.865 130.376 819.012 126.207C816.079 119.877 813.917 118.796 812.682 118.796C803.882 118.796 795.39 119.26 793.229 119.26C792.457 119.26 791.222 120.958 791.222 121.575C791.067 124.509 790.759 135.625 790.759 146.278C790.759 148.748 791.222 150.292 791.994 150.446C793.692 150.91 799.096 150.755 801.875 150.601C808.822 150.138 810.984 147.667 812.682 143.808C813.608 141.492 815.152 139.639 816.851 139.639C819.012 139.639 820.401 141.8 820.093 146.278C819.938 148.13 819.784 151.681 819.784 155.232C819.784 158.783 820.093 162.334 820.247 164.65C820.556 168.819 818.24 170.671 816.696 170.671C815.307 170.671 813.3 168.973 811.91 165.885C810.366 162.334 809.903 161.254 806.661 160.945C800.331 160.482 799.404 160.173 792.457 160.173C791.685 160.173 790.759 162.334 790.759 166.194C790.759 170.363 791.222 179.317 791.376 182.714C791.685 187.191 792.303 188.889 792.766 189.507C794.31 191.823 801.72 193.83 809.131 193.83C811.601 193.83 815.924 193.367 819.475 191.36C822.409 189.816 823.952 187.963 827.349 183.331C829.819 179.935 831.518 176.229 833.988 176.229C836.921 176.229 837.848 180.707 837.23 183.949C836.304 188.426 832.598 198.77 831.981 200.16C831.518 201.241 828.275 202.939 827.349 202.939C825.342 202.939 819.166 202.167 791.067 202.167C781.341 202.167 761.888 202.785 755.249 202.785C752.007 202.785 749.691 201.549 749.691 200.314C749.691 198.462 750.926 196.3 754.168 195.374C764.821 192.44 765.13 188.889 765.439 186.11C766.056 178.7 766.211 175.458 766.211 151.681C766.211 127.905 765.902 126.979 765.439 124.2C764.667 119.568 762.66 117.87 756.484 116.326C752.47 115.4 751.852 113.238 751.852 112.158C751.852 110.151 754.94 109.07 756.947 109.07C759.572 109.07 776.709 109.842 786.899 109.842ZM935.375 134.081C935.375 139.948 932.442 146.587 928.427 149.983C926.112 151.99 923.95 152.453 920.708 154.306C919.936 154.769 920.708 157.703 921.171 158.629C924.568 165.422 931.515 176.847 937.382 184.258C942.786 191.051 947.572 193.676 952.358 195.528C953.902 196.146 955.909 197.535 955.909 198.925C955.909 202.939 950.968 204.174 946.8 204.174C934.449 204.174 922.561 202.939 911.753 188.889C906.195 181.633 902.027 173.914 897.704 166.966C895.234 162.952 893.072 162.18 890.602 162.18C889.521 162.18 889.367 164.033 889.367 164.496C889.367 176.847 889.367 180.552 889.83 185.956C890.293 191.514 891.837 191.668 898.013 194.602C900.792 195.991 902.644 197.69 902.644 198.925C902.644 200.623 899.402 202.785 896.777 202.785C892.918 202.785 881.03 202.167 875.626 202.167C870.84 202.167 863.584 202.785 857.871 202.785C854.166 202.785 852.004 200.932 852.004 199.388C852.004 197.227 854.166 195.683 857.099 194.911C863.429 193.058 864.973 191.823 865.282 184.103C865.436 178.545 865.436 175.766 865.436 147.976C865.436 128.986 864.973 128.06 864.664 124.818C864.356 121.73 862.966 118.642 857.099 117.561C854.166 116.944 852.313 114.628 852.313 113.547C852.313 110.922 855.401 109.533 859.106 109.533C866.98 109.533 869.605 109.842 871.612 109.842C881.802 109.842 890.293 108.915 901.1 108.915C914.687 108.915 921.789 111.849 925.494 114.628C932.133 119.723 935.375 125.898 935.375 134.081ZM911.599 136.706C911.599 126.979 904.96 117.407 893.844 117.407C893.226 117.407 890.911 118.024 889.984 118.642C889.521 118.951 889.058 119.723 889.058 121.112C889.058 125.435 889.367 139.793 889.367 150.138C889.367 150.755 889.984 152.608 890.602 152.917C892.763 153.843 894.77 154.306 897.395 154.306C900.792 154.306 906.35 150.755 907.276 150.138C908.202 149.52 911.599 144.116 911.599 136.706ZM1002.53 106.908C1011.17 106.908 1019.36 109.687 1025.38 111.077C1026.3 111.231 1027.39 113.702 1027.39 115.4C1027.39 117.252 1028.47 125.744 1028.47 128.06C1028.47 133.309 1026 135.471 1023.83 135.471C1022.14 135.471 1020.75 132.846 1020.28 131.611C1016.89 122.347 1008.86 114.01 1000.06 114.01C993.574 114.01 987.707 120.032 987.707 125.898C987.707 132.846 992.802 137.941 1001.6 142.418C1021.06 152.299 1032.48 160.945 1032.48 175.612C1032.48 188.272 1023.83 195.374 1018.28 198.77C1012.26 202.321 1002.07 204.946 994.964 204.946C981.84 204.946 974.275 202.167 970.724 200.777C969.644 200.314 967.173 198.925 966.401 197.227C963.777 191.668 963.314 183.64 963.314 179.935C963.314 177.001 964.857 173.296 967.328 173.296C969.026 173.296 971.033 175.149 973.195 179.163C978.907 189.661 987.398 197.227 996.971 197.227C1002.53 197.227 1009.48 193.367 1009.48 186.265C1009.48 181.633 1009.78 176.538 994.037 168.047C973.812 157.24 965.938 148.902 965.938 134.544C965.938 124.509 973.04 116.326 980.451 112.158C986.318 108.915 993.728 106.908 1002.53 106.908Z" fill="white"/>
<path d="M85.6029 184.066V181.566H83.1029V184.066H85.6029ZM100.592 184.066H103.092V181.566H100.592V184.066ZM100.592 232.609V235.109H103.092V232.609H100.592ZM98.5407 232.609L96.9562 234.543L97.6473 235.109H98.5407V232.609ZM77.9243 217.358L76.5058 219.416L76.5076 219.417L77.9243 217.358ZM42.5294 207.102L44.2173 208.946L44.2257 208.938L44.2341 208.931L42.5294 207.102ZM48.5775 231.663V234.163H54.4043L50.3893 229.94L48.5775 231.663ZM33.1679 231.663L31.0706 233.023L31.8098 234.163H33.1679V231.663ZM31.7479 194.059L33.6077 195.73L33.6146 195.722L31.7479 194.059ZM85.6029 207.733L84.0536 209.695L88.1029 212.892V207.733H85.6029ZM85.6029 186.566H100.592V181.566H85.6029V186.566ZM98.0918 184.066V232.609H103.092V184.066H98.0918ZM100.592 230.109H98.5407V235.109H100.592V230.109ZM100.125 230.676C94.6188 226.164 87.6858 221.037 79.341 215.298L76.5076 219.417C84.7821 225.108 91.5934 230.149 96.9562 234.543L100.125 230.676ZM79.3428 215.299C71.0141 209.56 64.8994 205.793 61.1355 204.174L59.1604 208.768C62.4089 210.164 68.1451 213.655 76.5058 219.416L79.3428 215.299ZM61.1355 204.174C57.3662 202.553 53.6298 201.709 49.945 201.709V206.709C52.8518 206.709 55.9173 207.373 59.1604 208.768L61.1355 204.174ZM49.945 201.709C46.4488 201.709 43.3646 202.906 40.8247 205.273L44.2341 208.931C45.8314 207.442 47.6909 206.709 49.945 206.709V201.709ZM40.8415 205.258C38.2781 207.604 36.9264 210.56 36.9264 213.992H41.9264C41.9264 212.023 42.6434 210.387 44.2173 208.946L40.8415 205.258ZM36.9264 213.992C36.9264 220.305 40.4941 226.789 46.7658 233.385L50.3893 229.94C44.4595 223.704 41.9264 218.407 41.9264 213.992H36.9264ZM48.5775 229.163H33.1679V234.163H48.5775V229.163ZM35.2651 230.302C30.7837 223.395 28.673 217.008 28.673 211.099H23.673C23.673 218.233 26.2255 225.556 31.0706 233.023L35.2651 230.302ZM28.673 211.099C28.673 204.304 30.4142 199.285 33.6077 195.73L29.8881 192.388C25.6484 197.108 23.673 203.449 23.673 211.099H28.673ZM33.6146 195.722C36.7788 192.17 41.1527 190.3 47.0524 190.3V185.3C39.9791 185.3 34.15 187.604 29.8811 192.396L33.6146 195.722ZM47.0524 190.3C50.9123 190.3 55.9259 191.763 62.1947 195.004C68.4282 198.227 75.7102 203.107 84.0536 209.695L87.1521 205.771C78.6658 199.07 71.1079 193.984 64.4912 190.563C57.9099 187.16 52.063 185.3 47.0524 185.3V190.3ZM88.1029 207.733V184.066H83.1029V207.733H88.1029ZM36.2182 131L37.5796 133.097L37.5873 133.092L36.2182 131ZM91.4932 130.79L90.1554 132.902L91.4932 130.79ZM91.5458 167.657L92.9275 169.741L92.9351 169.736L91.5458 167.657ZM36.1131 167.552L34.7037 169.617L34.7061 169.619L36.1131 167.552ZM82.4473 142.781L83.3276 140.441L83.3201 140.438L82.4473 142.781ZM45.0538 142.781L45.9448 145.117L45.9594 145.111L45.9739 145.106L45.0538 142.781ZM44.9486 155.877L43.9785 158.181L43.9906 158.186L44.9486 155.877ZM82.3947 155.877L83.28 158.215L83.2937 158.209L83.3074 158.204L82.3947 155.877ZM28.673 149.197C28.673 142.286 31.5708 136.998 37.5796 133.097L34.8569 128.903C27.4721 133.698 23.673 140.541 23.673 149.197H28.673ZM37.5873 133.092C43.7357 129.068 52.2976 126.926 63.5139 126.926V121.926C51.7296 121.926 42.0944 124.167 34.8492 128.908L37.5873 133.092ZM63.5139 126.926C75.2205 126.926 84.0133 129.011 90.1554 132.902L92.8311 128.678C85.5795 124.084 75.7195 121.926 63.5139 121.926V126.926ZM90.1554 132.902C96.1329 136.689 99.0385 141.96 99.0385 148.987H104.038C104.038 140.236 100.247 133.376 92.8311 128.678L90.1554 132.902ZM99.0385 148.987C99.0385 156.144 96.1263 161.589 90.1566 165.579L92.9351 169.736C100.289 164.82 104.038 157.818 104.038 148.987H99.0385ZM90.1642 165.574C84.0632 169.62 75.3912 171.784 63.882 171.784V176.784C75.9344 176.784 85.7049 174.531 92.9275 169.741L90.1642 165.574ZM63.882 171.784C52.229 171.784 43.5384 169.583 37.52 165.486L34.7061 169.619C41.871 174.497 51.693 176.784 63.882 176.784V171.784ZM37.5224 165.487C31.5455 161.408 28.673 156.046 28.673 149.197H23.673C23.673 157.776 27.4272 164.651 34.7037 169.617L37.5224 165.487ZM90.2592 149.197C90.2592 147.181 89.637 145.336 88.3569 143.79C87.1112 142.285 85.364 141.207 83.3276 140.441L81.5669 145.121C83.0718 145.687 83.9805 146.344 84.5055 146.979C84.996 147.571 85.2592 148.269 85.2592 149.197H90.2592ZM83.3201 140.438C79.2687 138.929 72.1455 138.282 62.3569 138.282V143.282C72.2029 143.282 78.4733 143.968 81.5745 145.124L83.3201 140.438ZM62.3569 138.282C54.1695 138.282 47.9795 138.934 44.1337 140.456L45.9739 145.106C48.86 143.963 54.2054 143.282 62.3569 143.282V138.282ZM44.1628 140.445C42.1693 141.206 40.465 142.302 39.2586 143.844C38.0279 145.417 37.4523 147.281 37.4523 149.303H42.4523C42.4523 148.273 42.727 147.525 43.1968 146.925C43.6909 146.293 44.5373 145.654 45.9448 145.117L44.1628 140.445ZM37.4523 149.303C37.4523 151.291 38.0198 153.127 39.211 154.694C40.379 156.231 42.0323 157.361 43.9785 158.181L45.9188 153.573C44.5341 152.99 43.6892 152.323 43.1918 151.669C42.7176 151.045 42.4523 150.294 42.4523 149.303H37.4523ZM43.9906 158.186C45.9764 159.01 48.7268 159.552 52.0786 159.901C55.4737 160.255 59.6605 160.428 64.6183 160.428V155.428C59.7588 155.428 55.7588 155.258 52.5972 154.928C49.3925 154.594 47.2167 154.111 45.9067 153.567L43.9906 158.186ZM64.6183 160.428C72.896 160.428 79.2142 159.754 83.28 158.215L81.5094 153.539C78.3524 154.734 72.8197 155.428 64.6183 155.428V160.428ZM83.3074 158.204C85.3666 157.397 87.1217 156.271 88.3672 154.72C89.6431 153.132 90.2592 151.25 90.2592 149.197H85.2592C85.2592 150.195 84.9812 150.952 84.4689 151.589C83.9263 152.265 82.9991 152.954 81.482 153.549L83.3074 158.204ZM85.6029 65.2067V62.7067H83.1029V65.2067H85.6029ZM100.592 65.2067H103.092V62.7067H100.592V65.2067ZM100.592 113.75V116.25H103.092V113.75H100.592ZM98.5407 113.75L96.9562 115.684L97.6473 116.25H98.5407V113.75ZM77.9243 98.4979L76.5058 100.556L76.5076 100.558L77.9243 98.4979ZM42.5294 88.2423L44.2173 90.0865L44.2257 90.0788L44.2341 90.071L42.5294 88.2423ZM48.5775 112.803V115.303H54.4043L50.3893 111.08L48.5775 112.803ZM33.1679 112.803L31.0706 114.164L31.8098 115.303H33.1679V112.803ZM31.7479 75.1993L33.6077 76.87L33.6146 76.8622L31.7479 75.1993ZM85.6029 88.8734L84.0536 90.8355L88.1029 94.0327V88.8734H85.6029ZM85.6029 67.7067H100.592V62.7067H85.6029V67.7067ZM98.0918 65.2067V113.75H103.092V65.2067H98.0918ZM100.592 111.25H98.5407V116.25H100.592V111.25ZM100.125 111.816C94.6188 107.304 87.6858 102.177 79.341 96.438L76.5076 100.558C84.7821 106.249 91.5934 111.29 96.9562 115.684L100.125 111.816ZM79.3428 96.4393C71.0141 90.7002 64.8994 86.933 61.1355 85.3145L59.1604 89.9079C62.4089 91.3047 68.1451 94.7954 76.5058 100.556L79.3428 96.4393ZM61.1355 85.3145C57.3662 83.6937 53.6298 82.8497 49.945 82.8497V87.8497C52.8518 87.8497 55.9173 88.5133 59.1604 89.9079L61.1355 85.3145ZM49.945 82.8497C46.4488 82.8497 43.3646 84.0459 40.8247 86.4136L44.2341 90.071C45.8314 88.5819 47.6909 87.8497 49.945 87.8497V82.8497ZM40.8415 86.3981C38.2781 88.7443 36.9264 91.7006 36.9264 95.132H41.9264C41.9264 93.1638 42.6434 91.527 44.2173 90.0865L40.8415 86.3981ZM36.9264 95.132C36.9264 101.445 40.4941 107.93 46.7658 114.526L50.3893 111.08C44.4595 104.844 41.9264 99.5478 41.9264 95.132H36.9264ZM48.5775 110.303H33.1679V115.303H48.5775V110.303ZM35.2651 111.442C30.7837 104.535 28.673 98.148 28.673 92.2394H23.673C23.673 99.3738 26.2255 106.696 31.0706 114.164L35.2651 111.442ZM28.673 92.2394C28.673 85.4444 30.4142 80.4249 33.6077 76.87L29.8881 73.5286C25.6484 78.2483 23.673 84.5889 23.673 92.2394H28.673ZM33.6146 76.8622C36.7788 73.31 41.1527 71.4408 47.0524 71.4408V66.4408C39.9791 66.4408 34.15 68.7439 29.8811 73.5364L33.6146 76.8622ZM47.0524 71.4408C50.9123 71.4408 55.9259 72.9033 62.1947 76.1446C68.4282 79.3677 75.7102 84.2477 84.0536 90.8355L87.1521 86.9113C78.6658 80.2107 71.1079 75.1244 64.4912 71.7032C57.9099 68.3003 52.063 66.4408 47.0524 66.4408V71.4408ZM88.1029 88.8734V65.2067H83.1029V88.8734H88.1029ZM68.9309 38.2792V40.7792H71.3329L71.4289 38.3791L68.9309 38.2792ZM55.9931 38.2792H53.4931V40.7792H55.9931V38.2792ZM53.4161 30.9688L51.5804 32.6659L51.5885 32.6746L51.5966 32.6833L53.4161 30.9688ZM42.319 52.0585V54.5585H46.3252L44.5647 50.9599L42.319 52.0585ZM29.3812 52.0585L27.0919 53.0631L27.7482 54.5585H29.3812V52.0585ZM31.2219 18.2939L33.1988 19.8244L33.2065 19.8143L31.2219 18.2939ZM61.1472 22.6591L58.9573 23.8651L61.5296 28.5358L63.4749 23.5712L61.1472 22.6591ZM95.7007 16.8739L97.6318 15.2861L97.6247 15.2777L95.7007 16.8739ZM97.3836 53.8992V56.3992H98.9243L99.6169 55.023L97.3836 53.8992ZM83.131 53.8992L81.0854 52.4621L78.3194 56.3992H83.131V53.8992ZM86.2866 30.0747L88.2045 28.4712L88.1969 28.462L88.1891 28.4529L86.2866 30.0747ZM72.0339 29.9695L73.848 31.6898L73.8553 31.682L73.8626 31.6742L72.0339 29.9695ZM68.9309 35.7792H55.9931V40.7792H68.9309V35.7792ZM58.4931 38.2792C58.4931 34.7379 57.4817 31.638 55.2356 29.2543L51.5966 32.6833C52.7865 33.946 53.4931 35.7197 53.4931 38.2792H58.4931ZM55.2518 29.2716C53.0932 26.9369 50.3907 25.6814 47.2627 25.6814V30.6814C48.9031 30.6814 50.3029 31.2841 51.5804 32.6659L55.2518 29.2716ZM47.2627 25.6814C44.0303 25.6814 41.2985 27.0217 39.2301 29.5397L43.0938 32.7134C44.2511 31.3045 45.5865 30.6814 47.2627 30.6814V25.6814ZM39.2301 29.5397C37.1842 32.0304 36.2427 35.1134 36.2427 38.5947H41.2427C41.2427 36.0454 41.914 34.1496 43.0938 32.7134L39.2301 29.5397ZM36.2427 38.5947C36.2427 43.1801 37.5735 48.0471 40.0733 53.1571L44.5647 50.9599C42.2961 46.3227 41.2427 42.2139 41.2427 38.5947H36.2427ZM42.319 49.5585H29.3812V54.5585H42.319V49.5585ZM31.6704 51.0539C29.694 46.5502 28.673 41.31 28.673 35.2814H23.673C23.673 41.8751 24.7908 47.8196 27.0919 53.0631L31.6704 51.0539ZM28.673 35.2814C28.673 28.707 30.2541 23.6278 33.1987 19.8244L29.2451 16.7635C25.4579 21.6554 23.673 27.9012 23.673 35.2814H28.673ZM33.2065 19.8143C36.0833 16.0593 39.6741 14.2724 44.1598 14.2724V9.27242C38.0567 9.27242 33.0223 11.8333 29.2374 16.7735L33.2065 19.8143ZM44.1598 14.2724C50.4405 14.2724 55.3302 17.2789 58.9573 23.8651L63.3371 21.4531C58.9702 13.5237 52.5348 9.27242 44.1598 9.27242V14.2724ZM63.4749 23.5712C65.0138 19.6439 67.1501 16.8694 69.8011 15.0602C72.4521 13.251 75.8129 12.2739 80.028 12.2739V7.2739C75.0218 7.2739 70.6253 8.44431 66.9826 10.9302C63.3401 13.4161 60.6466 17.0842 58.8195 21.7471L63.4749 23.5712ZM80.028 12.2739C85.8571 12.2739 90.3565 14.3478 93.7766 18.4702L97.6247 15.2777C93.191 9.9334 87.242 7.2739 80.028 7.2739V12.2739ZM93.7696 18.4617C97.1958 22.6287 99.0385 28.3572 99.0385 35.9125H104.038C104.038 27.5497 101.989 20.5859 97.6317 15.2862L93.7696 18.4617ZM99.0385 35.9125C99.0385 42.0298 97.7356 47.6378 95.1504 52.7755L99.6169 55.023C102.571 49.1513 104.038 42.7681 104.038 35.9125H99.0385ZM97.3836 51.3992H83.131V56.3992H97.3836V51.3992ZM85.1766 55.3364C89.2472 49.5422 91.4688 43.8738 91.4688 38.3844H86.4688C86.4688 42.5018 84.7985 47.1767 81.0854 52.4621L85.1766 55.3364ZM91.4688 38.3844C91.4688 34.5309 90.4464 31.1526 88.2045 28.4712L84.3686 31.6783C85.703 33.2744 86.4688 35.4358 86.4688 38.3844H91.4688ZM88.1891 28.4529C85.8785 25.7423 82.827 24.3666 79.2391 24.3666V29.3666C81.4014 29.3666 83.0482 30.1296 84.384 31.6965L88.1891 28.4529ZM79.2391 24.3666C75.6837 24.3666 72.6154 25.6794 70.2053 28.2648L73.8626 31.6742C75.3093 30.1223 77.0445 29.3666 79.2391 29.3666V24.3666ZM70.2199 28.2493C67.7775 30.8248 66.5911 34.2258 66.4329 38.1793L71.4289 38.3791C71.5513 35.3202 72.4335 33.1814 73.848 31.6898L70.2199 28.2493Z" fill="white"/>
<path d="M154.092 3.7373L153.872 235.767" stroke="white" stroke-width="2" stroke-miterlimit="10" stroke-linecap="round"/>
</svg>
