<svg width="1008" height="235" viewBox="0 0 1008 235" fill="none" xmlns="http://www.w3.org/2000/svg">
<path d="M194.934 37.8419C196.482 37.8419 196.998 40.4219 199.234 46.1839C203.878 58.6539 210.93 75.3379 213.252 80.5839C215.402 85.3999 216.606 85.4859 219.96 86.8619C221.938 87.7219 222.626 89.0119 222.626 89.9579C222.626 90.9899 221.25 91.4199 219.616 91.4199C216.95 91.4199 210.242 90.9899 206.028 90.9899C202.33 90.9899 200.008 91.4199 196.912 91.4199C194.504 91.4199 193.73 90.3879 193.73 89.7859C193.73 88.7539 194.762 87.5499 196.396 86.8619C199.406 85.5719 199.406 83.6799 198.976 82.2179C198.202 80.0679 198.116 79.6379 196.998 77.0579C196.912 76.7999 196.138 75.8539 194.762 75.6819C193.3 75.5099 182.55 75.3379 180.572 75.7679C180.056 75.8539 179.368 76.7139 179.196 77.0579C178.508 78.7779 177.82 82.0459 177.82 83.1639C177.82 84.7119 178.938 86.0019 181.69 86.9479C182.894 87.3779 184.184 88.0659 184.184 89.1839C184.184 89.6139 182.98 91.2479 180.744 91.2479C179.712 91.2479 177.82 90.9899 175.068 90.9899C171.886 90.9899 168.36 91.4199 164.748 91.4199C162.856 91.4199 161.566 90.5599 161.566 89.5279C161.566 88.6679 162.254 87.8079 164.146 87.0339C167.328 85.7439 169.048 85.4859 171.8 79.7239C173.95 75.1659 180.056 59.6859 185.216 46.0979C185.302 45.8399 185.474 45.2379 185.474 44.2919C185.474 43.9479 185.904 43.3459 186.248 43.0879C187.366 42.3999 191.666 39.5619 192.612 38.7879C193.128 38.2719 194.504 37.8419 194.934 37.8419ZM193.214 69.9199C193.644 69.9199 194.16 69.1459 194.074 68.8879C192.784 64.6739 189.172 55.4719 188.398 54.0959C188.054 53.4939 187.538 53.7519 187.28 54.0959C185.904 56.9339 182.206 67.5119 181.948 68.8019C181.862 69.3179 182.292 70.0059 182.894 70.0059C184.012 70.0059 192.01 70.0059 193.214 69.9199ZM238.539 40.5939C238.539 39.8199 240.431 38.9599 241.635 38.9599C246.365 38.9599 254.105 39.5619 255.653 39.5619C258.749 39.5619 259.781 39.3899 264.081 39.3899C266.317 39.3899 267.349 40.7659 267.349 41.2819C267.349 42.6579 265.801 43.6039 264.425 43.8619C261.415 44.3779 260.813 45.6679 261.415 47.9899C262.103 50.3119 269.929 69.6619 271.219 71.9839C271.477 72.4139 271.907 72.3279 272.251 72.0699C274.315 66.7379 275.777 64.2439 279.045 54.1819C279.303 53.4079 279.045 51.9459 278.701 50.6559C278.615 50.0539 278.185 49.1939 277.583 47.5599C277.067 46.0979 274.573 44.2919 273.455 43.9479C271.993 43.5179 270.273 42.7439 270.273 41.1959C270.273 40.0779 271.907 39.3039 273.283 39.3039C277.669 39.3039 281.195 39.5619 283.431 39.5619C285.581 39.5619 288.591 39.3039 294.009 39.3039C295.643 39.3039 297.277 40.1639 297.277 41.1959C297.277 42.0559 296.159 43.3459 294.697 43.7759C291.773 44.5499 291.343 45.4959 291.343 46.6139C291.343 47.8179 291.515 48.3339 292.117 50.3119C294.095 56.6759 299.513 69.8339 300.975 72.5859C301.233 73.1019 301.577 73.1019 301.835 72.6719C303.211 70.0059 307.081 60.0299 309.231 53.8379C310.779 49.1079 310.779 48.4199 310.779 47.1299C310.779 45.5819 308.543 44.4639 306.823 43.9479C305.361 43.5179 304.071 42.4859 304.071 41.2819C304.071 40.7659 304.931 39.3039 307.081 39.3039C309.833 39.3039 310.435 39.5619 313.187 39.5619C316.025 39.5619 320.669 39.1319 323.163 39.1319C324.797 39.1319 326.603 39.4759 326.603 41.1959C326.603 42.1419 324.711 43.5179 323.851 43.7759C318.949 45.2379 317.487 48.2479 315.853 51.9459C314.047 55.9879 308.543 68.0279 305.275 77.3159C304.501 79.4659 302.953 83.7659 301.921 86.2599C300.889 88.7539 297.965 92.7099 296.417 92.7099C294.353 92.7099 292.719 89.5279 291.773 87.0339C289.279 80.5839 283.603 65.5339 281.969 62.2659C281.797 61.9219 281.195 62.0939 281.023 62.4379C278.615 68.6299 273.541 79.7239 272.595 83.1639C272.509 83.3359 271.649 85.5719 270.187 88.2379C269.757 89.0119 267.951 92.7959 266.747 92.7959C264.683 92.7959 263.479 90.8179 262.963 89.4419C261.931 86.3459 260.985 83.5079 259.609 79.5519C256.341 70.5219 251.869 60.3739 248.515 51.6879C246.107 45.4099 244.989 44.5499 241.549 43.3459C239.571 42.6579 238.539 41.9699 238.539 40.5939ZM357.31 37.8419C375.198 37.8419 387.238 49.8819 387.238 65.2759C387.238 76.0259 380.874 84.4539 372.79 88.9259C369.092 90.9899 363.072 92.5379 357.568 92.5379C339.422 92.5379 327.554 80.1539 327.554 65.2759C327.554 58.6539 330.048 52.1179 335.38 46.7859C340.97 41.1959 349.226 37.8419 357.31 37.8419ZM355.762 42.3139C351.72 42.3139 348.108 45.7539 348.022 45.8399C344.41 49.7959 342.862 55.6439 342.862 63.7279C342.862 75.4239 348.194 88.1519 359.804 88.1519C362.728 88.1519 366.168 85.5719 366.598 85.2279C369.35 82.6479 371.586 77.2299 371.586 65.8779C371.586 56.8479 367.114 42.3139 355.762 42.3139ZM441.393 53.0639C441.393 56.3319 439.759 60.0299 437.523 61.9219C436.233 63.0399 435.029 63.2979 433.223 64.3299C432.793 64.5879 433.223 66.2219 433.481 66.7379C435.373 70.5219 439.243 76.8859 442.511 81.0139C445.521 84.7979 448.187 86.2599 450.853 87.2919C451.713 87.6359 452.831 88.4099 452.831 89.1839C452.831 91.4199 450.079 92.1079 447.757 92.1079C440.877 92.1079 434.255 91.4199 428.235 83.5939C425.139 79.5519 422.817 75.2519 420.409 71.3819C419.033 69.1459 417.829 68.7159 416.453 68.7159C415.851 68.7159 415.765 69.7479 415.765 70.0059C415.765 76.8859 415.765 78.9499 416.023 81.9599C416.281 85.0559 417.141 85.1419 420.581 86.7759C422.129 87.5499 423.161 88.4959 423.161 89.1839C423.161 90.1299 421.355 91.3339 419.893 91.3339C417.743 91.3339 411.121 90.9899 408.111 90.9899C405.445 90.9899 401.403 91.3339 398.221 91.3339C396.157 91.3339 394.953 90.3019 394.953 89.4419C394.953 88.2379 396.157 87.3779 397.791 86.9479C401.317 85.9159 402.177 85.2279 402.349 80.9279C402.435 77.8319 402.435 76.2839 402.435 60.8039C402.435 50.2259 402.177 49.7099 402.005 47.9039C401.833 46.1839 401.059 44.4639 397.791 43.8619C396.157 43.5179 395.125 42.2279 395.125 41.6259C395.125 40.1639 396.845 39.3899 398.909 39.3899C403.295 39.3899 404.757 39.5619 405.875 39.5619C411.551 39.5619 416.281 39.0459 422.301 39.0459C429.869 39.0459 433.825 40.6799 435.889 42.2279C439.587 45.0659 441.393 48.5059 441.393 53.0639ZM428.149 54.5259C428.149 49.1079 424.451 43.7759 418.259 43.7759C417.915 43.7759 416.625 44.1199 416.109 44.4639C415.851 44.6359 415.593 45.0659 415.593 45.8399C415.593 48.2479 415.765 56.2459 415.765 62.0079C415.765 62.3519 416.109 63.3839 416.453 63.5559C417.657 64.0719 418.775 64.3299 420.237 64.3299C422.129 64.3299 425.225 62.3519 425.741 62.0079C426.257 61.6639 428.149 58.6539 428.149 54.5259ZM482.244 38.9599C490.5 38.9599 499.014 40.7659 505.378 46.0979C512.602 52.2039 514.064 59.8579 514.064 65.1899C514.064 78.3479 505.292 85.1419 500.648 87.7219C494.542 90.9899 488.092 91.6779 481.728 91.6779C478.202 91.6779 468.828 90.9899 466.076 90.9899C463.324 90.9899 459.454 90.9899 455.326 91.3339C454.638 91.4199 453.95 90.8179 453.95 90.2159C453.95 89.2699 455.24 87.2059 457.39 86.6039C460.142 85.8299 461.604 86.0879 462.292 82.2179C462.894 78.8639 462.894 74.5639 462.894 63.2119C462.894 51.4299 463.066 49.9679 462.464 46.9579C462.292 46.0119 462.12 44.7219 458.078 43.8619C456.014 43.4319 454.81 42.4859 454.81 41.2819C454.81 39.9919 456.186 39.4759 458.68 39.4759L464.614 39.5619C467.624 39.6479 476.224 38.9599 482.244 38.9599ZM482.244 43.5179C481.556 43.5179 478.718 43.8619 478.116 44.2059C477.772 44.3779 476.912 46.0119 476.912 46.3559C476.74 49.2799 476.396 52.9779 476.396 59.4279V65.6199C476.396 76.6279 476.74 78.0039 476.998 80.5839C477.17 82.3899 478.116 84.1959 479.148 85.0559C480.094 85.8299 483.19 87.2919 484.308 87.2919C485.254 87.2919 489.898 86.2599 493.682 82.6479C497.552 78.9499 499.186 71.7259 499.186 65.9639C499.186 59.6859 497.552 53.2359 493.166 48.9359C489.382 45.1519 484.996 43.5179 482.244 43.5179ZM554.284 39.5619H568.13C579.224 39.5619 581.116 39.0459 581.46 39.0459C582.234 39.0459 583.094 39.9919 583.094 40.7659V49.1939C583.094 51.6019 581.718 52.9779 580.686 52.9779C579.998 52.9779 578.966 51.7739 578.45 49.9679C577.848 47.9899 576.644 44.8079 573.634 44.5499C571.226 44.3779 564.518 44.3779 561.852 44.3779C560.906 44.3779 560.304 45.8399 560.218 46.7859C559.96 49.8819 559.874 59.4279 560.046 61.8359C560.132 62.7819 560.39 63.2979 561.164 63.2979C562.97 63.2979 566.41 63.1259 568.732 62.8679C571.484 62.5239 571.742 61.8359 572.86 59.3419C573.29 58.3959 574.408 56.6759 575.44 56.6759C576.644 56.6759 577.16 58.3099 577.16 59.7719C577.16 62.2659 576.816 64.5019 576.816 65.9639C576.816 67.5979 577.16 71.2099 577.16 71.8979C577.16 73.2739 576.214 74.8219 574.924 74.8219C574.236 74.8219 573.376 73.9619 572.688 72.5859C571.312 69.9199 571.054 68.9739 569.076 68.7159C568.13 68.5439 566.84 68.3719 560.992 68.3719C560.648 68.3719 560.132 69.5759 560.046 70.6079C559.874 73.5319 559.874 79.2079 560.046 81.0999C560.39 84.7979 561.508 85.8299 565.722 86.9479C567.958 87.5499 568.646 88.5819 568.646 89.4419C568.646 90.3019 567.184 91.4199 565.55 91.4199C560.132 91.4199 556.176 90.9899 552.736 90.9899C550.93 90.9899 548.006 91.3339 541.384 91.3339C539.922 91.3339 538.632 90.6459 538.632 89.5279C538.632 88.5819 539.664 87.5499 541.384 87.1199C544.652 86.3459 545.856 84.7979 546.028 82.4759C546.286 79.8959 546.372 77.3159 546.372 65.8779C546.372 52.9779 546.372 51.0859 546.2 48.0759C546.028 45.3239 544.91 44.3779 541.642 43.4319C540.094 43.0019 538.804 42.4859 538.804 41.0239C538.804 39.8199 541.04 39.3039 541.986 39.3039C548.694 39.3899 550.93 39.5619 554.284 39.5619ZM636.573 53.0639C636.573 56.3319 634.939 60.0299 632.703 61.9219C631.413 63.0399 630.209 63.2979 628.403 64.3299C627.973 64.5879 628.403 66.2219 628.661 66.7379C630.553 70.5219 634.423 76.8859 637.691 81.0139C640.701 84.7979 643.367 86.2599 646.033 87.2919C646.893 87.6359 648.011 88.4099 648.011 89.1839C648.011 91.4199 645.259 92.1079 642.937 92.1079C636.057 92.1079 629.435 91.4199 623.415 83.5939C620.319 79.5519 617.997 75.2519 615.589 71.3819C614.213 69.1459 613.009 68.7159 611.633 68.7159C611.031 68.7159 610.945 69.7479 610.945 70.0059C610.945 76.8859 610.945 78.9499 611.203 81.9599C611.461 85.0559 612.321 85.1419 615.761 86.7759C617.309 87.5499 618.341 88.4959 618.341 89.1839C618.341 90.1299 616.535 91.3339 615.073 91.3339C612.923 91.3339 606.301 90.9899 603.291 90.9899C600.625 90.9899 596.583 91.3339 593.401 91.3339C591.337 91.3339 590.133 90.3019 590.133 89.4419C590.133 88.2379 591.337 87.3779 592.971 86.9479C596.497 85.9159 597.357 85.2279 597.529 80.9279C597.615 77.8319 597.615 76.2839 597.615 60.8039C597.615 50.2259 597.357 49.7099 597.185 47.9039C597.013 46.1839 596.239 44.4639 592.971 43.8619C591.337 43.5179 590.305 42.2279 590.305 41.6259C590.305 40.1639 592.025 39.3899 594.089 39.3899C598.475 39.3899 599.937 39.5619 601.055 39.5619C606.731 39.5619 611.461 39.0459 617.481 39.0459C625.049 39.0459 629.005 40.6799 631.069 42.2279C634.767 45.0659 636.573 48.5059 636.573 53.0639ZM623.329 54.5259C623.329 49.1079 619.631 43.7759 613.439 43.7759C613.095 43.7759 611.805 44.1199 611.289 44.4639C611.031 44.6359 610.773 45.0659 610.773 45.8399C610.773 48.2479 610.945 56.2459 610.945 62.0079C610.945 62.3519 611.289 63.3839 611.633 63.5559C612.837 64.0719 613.955 64.3299 615.417 64.3299C617.309 64.3299 620.405 62.3519 620.921 62.0079C621.437 61.6639 623.329 58.6539 623.329 54.5259ZM680.482 37.8419C698.37 37.8419 710.41 49.8819 710.41 65.2759C710.41 76.0259 704.046 84.4539 695.962 88.9259C692.264 90.9899 686.244 92.5379 680.74 92.5379C662.594 92.5379 650.726 80.1539 650.726 65.2759C650.726 58.6539 653.22 52.1179 658.552 46.7859C664.142 41.1959 672.398 37.8419 680.482 37.8419ZM678.934 42.3139C674.892 42.3139 671.28 45.7539 671.194 45.8399C667.582 49.7959 666.034 55.6439 666.034 63.7279C666.034 75.4239 671.366 88.1519 682.976 88.1519C685.9 88.1519 689.34 85.5719 689.77 85.2279C692.522 82.6479 694.758 77.2299 694.758 65.8779C694.758 56.8479 690.286 42.3139 678.934 42.3139ZM719.435 41.6259C719.435 40.6799 720.725 39.2179 722.617 39.2179C724.767 39.2179 738.355 39.5619 738.871 39.5619C739.301 39.5619 740.505 41.0239 740.591 41.1959C740.935 42.3999 742.053 44.4639 743.859 48.6779C745.751 53.0639 752.373 67.7699 754.351 70.1779C754.351 70.2639 755.125 70.6079 755.383 70.0059C758.221 63.8999 762.005 55.9879 764.843 49.4519C766.477 45.6679 767.079 43.2599 767.767 41.3679C767.939 40.8519 768.885 39.7339 769.401 39.7339C770.863 39.7339 783.247 39.1319 785.999 39.1319C786.859 39.1319 788.837 39.9919 788.837 41.1959C788.837 42.2279 788.063 42.7439 786.343 43.2599C780.839 44.8939 780.667 45.3239 780.667 47.5599C780.667 59.7719 781.269 69.6619 781.613 78.6059C781.871 85.6579 783.677 86.1739 786.601 86.8619C789.267 87.4639 790.127 88.4099 790.127 89.4419C790.127 90.3019 788.493 91.5059 786.687 91.5059C785.655 91.5059 776.023 90.9899 771.895 90.9899C768.025 90.9899 765.875 91.3339 763.811 91.3339C761.661 91.3339 761.059 89.5279 761.059 88.9259C761.059 88.2379 762.435 87.5499 762.865 87.3779C767.079 85.9159 767.853 84.8839 767.939 80.1539C768.025 77.9179 767.853 62.4379 768.111 54.1819C768.111 53.7519 767.509 53.8379 767.079 54.6119C765.961 56.6759 758.479 74.6499 756.673 78.9499C755.727 81.1859 754.351 85.3139 753.147 88.2379C752.287 90.2159 750.739 91.5919 748.847 91.5919C748.073 91.5919 746.783 90.1299 746.353 88.6679C745.063 84.4539 743.343 80.3259 742.569 78.0899C738.785 67.4259 735.345 60.8899 733.195 55.6439C732.851 54.7839 732.163 54.9559 732.163 55.5579C731.475 65.4479 731.045 75.3379 731.045 79.7239C731.045 84.8839 731.647 85.1419 736.205 86.9479C738.097 87.7219 738.957 88.2379 738.957 89.3559C738.957 90.3019 737.753 91.3339 735.775 91.3339C734.571 91.3339 731.475 90.9899 728.981 90.9899C726.229 90.9899 719.951 91.5059 718.833 91.5059C717.199 91.5059 715.651 90.6459 715.651 89.5279C715.651 88.7539 716.425 87.8939 718.489 87.2059C722.789 85.8299 724.165 84.1099 724.767 80.4979C725.799 74.5639 727.777 54.5259 727.949 50.0539C728.121 45.4099 726.831 44.8079 722.531 43.6039C720.381 43.0019 719.435 42.3139 719.435 41.6259ZM844.671 37.8419C862.559 37.8419 874.599 49.8819 874.599 65.2759C874.599 76.0259 868.235 84.4539 860.151 88.9259C856.453 90.9899 850.433 92.5379 844.929 92.5379C826.783 92.5379 814.915 80.1539 814.915 65.2759C814.915 58.6539 817.409 52.1179 822.741 46.7859C828.331 41.1959 836.587 37.8419 844.671 37.8419ZM843.123 42.3139C839.081 42.3139 835.469 45.7539 835.383 45.8399C831.771 49.7959 830.223 55.6439 830.223 63.7279C830.223 75.4239 835.555 88.1519 847.165 88.1519C850.089 88.1519 853.529 85.5719 853.959 85.2279C856.711 82.6479 858.947 77.2299 858.947 65.8779C858.947 56.8479 854.475 42.3139 843.123 42.3139ZM881.196 41.1099C881.196 39.9059 882.744 39.1319 885.582 39.1319C888.248 39.1319 894.698 39.5619 897.536 39.5619C901.32 39.5619 905.362 39.3039 906.566 39.3039C908.802 39.3039 910.35 40.5079 910.35 41.3679C910.35 42.3999 908.372 43.5179 907.082 43.8619C903.212 44.8939 902.696 46.0119 902.438 50.0539C902.094 54.6979 902.094 61.0619 902.524 68.4579C902.954 75.9399 904.588 79.8959 906.394 81.4439C908.802 83.5079 912.328 85.0559 915.94 85.0559C922.562 85.0559 927.894 81.8739 929.012 72.5859C929.442 69.1459 929.528 59.8579 929.528 54.8699C929.528 45.9259 929.442 45.2379 923.336 43.7759C921.616 43.3459 920.154 42.6579 920.154 41.1959C920.154 40.5079 921.358 39.3039 923.68 39.3039C925.4 39.3039 928.152 39.5619 931.42 39.5619C934.516 39.5619 938.042 39.1319 941.052 39.1319C942.686 39.1319 944.406 39.6479 944.406 41.1099C944.406 42.2279 942.944 43.0879 941.224 43.6899C937.268 45.1519 936.666 45.8399 936.15 50.0539C935.978 51.0859 935.634 58.3099 935.29 64.9319C934.516 78.8639 931.678 83.2499 927.464 87.3779C923.938 90.8179 917.918 92.5379 911.984 92.5379C905.018 92.5379 897.536 90.3879 893.924 85.5719C889.108 79.2079 888.764 72.5859 888.764 62.7819C888.764 52.4619 888.592 51.1719 888.42 48.5919C888.162 45.1519 887.56 44.7219 884.378 43.7759C882.658 43.2599 881.196 42.5719 881.196 41.1099ZM995.858 53.0639C995.858 56.3319 994.224 60.0299 991.988 61.9219C990.698 63.0399 989.494 63.2979 987.688 64.3299C987.258 64.5879 987.688 66.2219 987.946 66.7379C989.838 70.5219 993.708 76.8859 996.976 81.0139C999.986 84.7979 1002.65 86.2599 1005.32 87.2919C1006.18 87.6359 1007.3 88.4099 1007.3 89.1839C1007.3 91.4199 1004.54 92.1079 1002.22 92.1079C995.342 92.1079 988.72 91.4199 982.7 83.5939C979.604 79.5519 977.282 75.2519 974.874 71.3819C973.498 69.1459 972.294 68.7159 970.918 68.7159C970.316 68.7159 970.23 69.7479 970.23 70.0059C970.23 76.8859 970.23 78.9499 970.488 81.9599C970.746 85.0559 971.606 85.1419 975.046 86.7759C976.594 87.5499 977.626 88.4959 977.626 89.1839C977.626 90.1299 975.82 91.3339 974.358 91.3339C972.208 91.3339 965.586 90.9899 962.576 90.9899C959.91 90.9899 955.868 91.3339 952.686 91.3339C950.622 91.3339 949.418 90.3019 949.418 89.4419C949.418 88.2379 950.622 87.3779 952.256 86.9479C955.782 85.9159 956.642 85.2279 956.814 80.9279C956.9 77.8319 956.9 76.2839 956.9 60.8039C956.9 50.2259 956.642 49.7099 956.47 47.9039C956.298 46.1839 955.524 44.4639 952.256 43.8619C950.622 43.5179 949.59 42.2279 949.59 41.6259C949.59 40.1639 951.31 39.3899 953.374 39.3899C957.76 39.3899 959.222 39.5619 960.34 39.5619C966.016 39.5619 970.746 39.0459 976.766 39.0459C984.334 39.0459 988.29 40.6799 990.354 42.2279C994.052 45.0659 995.858 48.5059 995.858 53.0639ZM982.614 54.5259C982.614 49.1079 978.916 43.7759 972.724 43.7759C972.38 43.7759 971.09 44.1199 970.574 44.4639C970.316 44.6359 970.058 45.0659 970.058 45.8399C970.058 48.2479 970.23 56.2459 970.23 62.0079C970.23 62.3519 970.574 63.3839 970.918 63.5559C972.122 64.0719 973.24 64.3299 974.702 64.3299C976.594 64.3299 979.69 62.3519 980.206 62.0079C980.722 61.6639 982.614 58.6539 982.614 54.5259Z" fill="white"/>
<path d="M183.153 107.855H208.01C227.926 107.855 231.323 106.928 231.94 106.928C233.33 106.928 234.874 108.627 234.874 110.016V125.146C234.874 129.469 232.403 131.94 230.551 131.94C229.316 131.94 227.463 129.778 226.537 126.536C225.456 122.985 223.294 117.273 217.891 116.809C213.568 116.501 201.525 116.501 196.739 116.501C195.041 116.501 193.96 119.125 193.806 120.823C193.343 126.382 193.188 143.519 193.497 147.842C193.651 149.54 194.115 150.466 195.504 150.466C198.746 150.466 204.922 150.158 209.09 149.694C214.031 149.077 214.494 147.842 216.501 143.364C217.273 141.666 219.28 138.578 221.133 138.578C223.294 138.578 224.221 141.512 224.221 144.136C224.221 148.614 223.603 152.628 223.603 155.252C223.603 158.186 224.221 164.67 224.221 165.905C224.221 168.376 222.522 171.155 220.207 171.155C218.971 171.155 217.427 169.611 216.192 167.14C213.722 162.354 213.259 160.656 209.708 160.193C208.01 159.884 205.694 159.575 195.195 159.575C194.578 159.575 193.651 161.737 193.497 163.589C193.188 168.839 193.188 179.029 193.497 182.425C194.115 189.064 196.122 190.917 203.687 192.924C207.701 194.004 208.936 195.857 208.936 197.401C208.936 198.945 206.311 200.952 203.378 200.952C193.651 200.952 186.549 200.18 180.374 200.18C177.132 200.18 171.882 200.797 159.994 200.797C157.37 200.797 155.054 199.562 155.054 197.555C155.054 195.857 156.907 194.004 159.994 193.232C165.861 191.843 168.023 189.064 168.331 184.895C168.795 180.264 168.949 175.632 168.949 155.098C168.949 131.94 168.949 128.543 168.64 123.139C168.331 118.199 166.324 116.501 160.458 114.802C157.679 114.03 155.363 113.104 155.363 110.479C155.363 108.318 159.377 107.392 161.075 107.392C173.118 107.546 177.132 107.855 183.153 107.855ZM302.81 104.767C334.923 104.767 356.538 126.382 356.538 154.017C356.538 173.316 345.113 188.446 330.6 196.475C323.961 200.18 313.154 202.959 303.273 202.959C270.697 202.959 249.391 180.727 249.391 154.017C249.391 142.129 253.868 130.396 263.441 120.823C273.476 110.788 288.297 104.767 302.81 104.767ZM300.031 112.795C292.775 112.795 286.29 118.971 286.136 119.125C279.651 126.227 276.872 136.726 276.872 151.238C276.872 172.235 286.445 195.085 307.287 195.085C312.537 195.085 318.712 190.453 319.484 189.836C324.425 185.204 328.439 175.478 328.439 155.098C328.439 138.887 320.41 112.795 300.031 112.795ZM368.381 110.634C368.381 108.472 371.16 107.083 376.255 107.083C381.041 107.083 392.62 107.855 397.715 107.855C404.508 107.855 411.765 107.392 413.926 107.392C417.94 107.392 420.719 109.553 420.719 111.097C420.719 112.95 417.168 114.957 414.852 115.574C407.905 117.427 406.979 119.434 406.515 126.69C405.898 135.027 405.898 146.452 406.67 159.73C407.442 173.162 410.375 180.264 413.617 183.043C417.94 186.748 424.27 189.527 430.755 189.527C442.643 189.527 452.215 183.815 454.222 167.14C454.994 160.965 455.148 144.291 455.148 135.336C455.148 119.28 454.994 118.044 444.032 115.42C440.944 114.648 438.32 113.413 438.32 110.788C438.32 109.553 440.481 107.392 444.65 107.392C447.738 107.392 452.678 107.855 458.545 107.855C464.103 107.855 470.433 107.083 475.837 107.083C478.77 107.083 481.858 108.009 481.858 110.634C481.858 112.641 479.233 114.185 476.145 115.265C469.043 117.89 467.963 119.125 467.036 126.69C466.728 128.543 466.11 141.512 465.492 153.4C464.103 178.411 459.008 186.285 451.443 193.696C445.113 199.871 434.306 202.959 423.653 202.959C411.147 202.959 397.715 199.099 391.231 190.453C382.585 179.029 381.967 167.14 381.967 149.54C381.967 131.013 381.659 128.697 381.35 124.066C380.887 117.89 379.806 117.118 374.094 115.42C371.006 114.493 368.381 113.258 368.381 110.634ZM486.995 109.553C486.995 108.472 488.23 106.928 491.009 106.928C497.185 106.928 509.536 108.163 519.417 108.163C520.806 108.163 522.968 109.244 523.431 109.862C526.055 113.413 530.842 118.508 538.252 126.536C546.435 135.336 570.983 161.274 574.38 163.126C574.843 163.281 576.078 162.972 576.232 162.509C577.159 158.34 577.159 143.519 576.695 132.866C576.232 122.367 577.004 118.353 564.962 115.574C561.256 114.648 559.867 112.023 559.867 111.097C559.867 110.016 561.565 107.7 565.271 107.7C570.829 107.7 570.52 107.855 574.534 107.855C580.864 107.855 592.598 107.083 595.685 107.083C598.928 107.083 601.089 108.009 601.089 110.634C601.089 112.332 599.854 113.413 594.913 115.574C588.583 118.353 587.657 120.052 587.503 122.059C587.194 129.161 585.959 160.965 585.959 171.309C585.959 178.102 586.576 184.895 586.576 191.997C586.576 198.482 585.341 203.268 582.562 203.268C577.622 203.268 573.608 200.489 570.674 197.092C564.962 190.608 557.705 182.116 553.383 177.33C547.516 170.537 523.431 144.908 516.638 137.498C516.175 137.034 515.094 137.961 515.094 138.578C514.939 141.975 514.631 142.438 514.631 149.077C514.631 156.024 514.939 169.919 515.094 174.088C515.557 186.13 517.564 189.836 522.968 191.997C528.217 194.004 529.915 195.703 529.915 197.864C529.915 199.717 528.217 200.797 524.666 200.797C520.343 200.797 515.094 200.18 507.837 200.18C500.581 200.18 496.721 200.797 494.714 200.797C490.083 200.797 488.539 199.099 488.539 197.555C488.539 195.548 490.391 194.159 493.17 193.232C500.272 190.917 503.051 190.453 503.823 180.109C504.595 169.765 505.83 132.866 505.83 127.925C505.83 126.999 505.058 123.757 503.051 121.441C499.809 117.736 497.03 115.883 493.479 115.111C489.928 114.339 486.995 112.486 486.995 109.553ZM657.06 106.774C671.882 106.774 687.166 110.016 698.591 119.588C711.56 130.55 714.185 144.291 714.185 153.863C714.185 177.485 698.437 189.681 690.1 194.313C679.138 200.18 667.559 201.415 656.134 201.415C649.804 201.415 632.975 200.18 628.035 200.18C623.094 200.18 616.147 200.18 608.736 200.797C607.501 200.952 606.266 199.871 606.266 198.79C606.266 197.092 608.582 193.387 612.442 192.306C617.382 190.917 620.007 191.38 621.242 184.432C622.323 178.411 622.323 170.691 622.323 150.312C622.323 129.161 622.631 126.536 621.551 121.132C621.242 119.434 620.933 117.118 613.677 115.574C609.971 114.802 607.81 113.104 607.81 110.943C607.81 108.627 610.28 107.7 614.757 107.7L625.41 107.855C630.814 108.009 646.253 106.774 657.06 106.774ZM657.06 114.957C655.825 114.957 650.73 115.574 649.65 116.192C649.032 116.501 647.488 119.434 647.488 120.052C647.179 125.301 646.562 131.94 646.562 143.519V154.635C646.562 174.397 647.179 176.867 647.642 181.499C647.951 184.741 649.65 187.983 651.502 189.527C653.201 190.917 658.759 193.541 660.766 193.541C662.464 193.541 670.801 191.688 677.594 185.204C684.542 178.565 687.475 165.597 687.475 155.252C687.475 143.982 684.542 132.403 676.668 124.683C669.875 117.89 662.001 114.957 657.06 114.957ZM761.366 107.855H777.269C791.318 107.855 793.48 107.855 797.03 107.083C798.729 106.774 799.81 107.7 800.273 108.472C801.199 110.016 802.434 121.75 802.434 125.146C802.434 129.161 800.581 130.087 799.655 130.087C796.876 130.087 795.332 128.389 793.48 124.22C790.546 117.89 788.385 116.809 787.15 116.809C778.349 116.809 769.858 117.273 767.696 117.273C766.924 117.273 765.689 118.971 765.689 119.588C765.535 122.522 765.226 133.638 765.226 144.291C765.226 146.761 765.689 148.305 766.461 148.459C768.16 148.922 773.563 148.768 776.342 148.614C783.29 148.15 785.451 145.68 787.15 141.821C788.076 139.505 789.62 137.652 791.318 137.652C793.48 137.652 794.869 139.813 794.56 144.291C794.406 146.143 794.251 149.694 794.251 153.245C794.251 156.796 794.56 160.347 794.715 162.663C795.023 166.832 792.708 168.684 791.164 168.684C789.774 168.684 787.767 166.986 786.378 163.898C784.834 160.347 784.371 159.267 781.128 158.958C774.798 158.495 773.872 158.186 766.924 158.186C766.152 158.186 765.226 160.347 765.226 164.207C765.226 168.376 765.689 177.33 765.844 180.727C766.152 185.204 766.77 186.902 767.233 187.52C768.777 189.836 776.188 191.843 783.599 191.843C786.069 191.843 790.392 191.38 793.943 189.373C796.876 187.829 798.42 185.976 801.817 181.344C804.287 177.948 805.985 174.242 808.455 174.242C811.389 174.242 812.315 178.72 811.698 181.962C810.771 186.439 807.066 196.783 806.448 198.173C805.985 199.254 802.743 200.952 801.817 200.952C799.81 200.952 793.634 200.18 765.535 200.18C755.808 200.18 736.355 200.797 729.716 200.797C726.474 200.797 724.158 199.562 724.158 198.327C724.158 196.475 725.394 194.313 728.636 193.387C739.289 190.453 739.597 186.902 739.906 184.123C740.524 176.713 740.678 173.47 740.678 149.694C740.678 125.918 740.369 124.992 739.906 122.213C739.134 117.581 737.127 115.883 730.952 114.339C726.937 113.413 726.32 111.251 726.32 110.171C726.32 108.163 729.408 107.083 731.415 107.083C734.039 107.083 751.177 107.855 761.366 107.855ZM909.842 132.094C909.842 137.961 906.909 144.6 902.895 147.996C900.579 150.003 898.418 150.466 895.175 152.319C894.403 152.782 895.175 155.716 895.639 156.642C899.035 163.435 905.983 174.86 911.85 182.271C917.253 189.064 922.039 191.688 926.825 193.541C928.369 194.159 930.376 195.548 930.376 196.938C930.376 200.952 925.436 202.187 921.267 202.187C908.916 202.187 897.028 200.952 886.221 186.902C880.663 179.646 876.494 171.927 872.171 164.979C869.701 160.965 867.54 160.193 865.069 160.193C863.989 160.193 863.834 162.046 863.834 162.509C863.834 174.86 863.834 178.565 864.297 183.969C864.761 189.527 866.305 189.681 872.48 192.615C875.259 194.004 877.112 195.703 877.112 196.938C877.112 198.636 873.87 200.797 871.245 200.797C867.385 200.797 855.497 200.18 850.094 200.18C845.307 200.18 838.051 200.797 832.339 200.797C828.633 200.797 826.472 198.945 826.472 197.401C826.472 195.239 828.633 193.696 831.567 192.924C837.897 191.071 839.441 189.836 839.749 182.116C839.904 176.558 839.904 173.779 839.904 145.989C839.904 126.999 839.441 126.073 839.132 122.831C838.823 119.743 837.434 116.655 831.567 115.574C828.633 114.957 826.781 112.641 826.781 111.56C826.781 108.935 829.868 107.546 833.574 107.546C841.448 107.546 844.072 107.855 846.079 107.855C856.269 107.855 864.761 106.928 875.568 106.928C889.154 106.928 896.256 109.862 899.962 112.641C906.6 117.736 909.842 123.911 909.842 132.094ZM886.066 134.719C886.066 124.992 879.428 115.42 868.312 115.42C867.694 115.42 865.378 116.037 864.452 116.655C863.989 116.964 863.525 117.736 863.525 119.125C863.525 123.448 863.834 137.806 863.834 148.15C863.834 148.768 864.452 150.621 865.069 150.93C867.231 151.856 869.238 152.319 871.863 152.319C875.259 152.319 880.817 148.768 881.744 148.15C882.67 147.533 886.066 142.129 886.066 134.719ZM976.996 104.921C985.642 104.921 993.825 107.7 999.846 109.09C1000.77 109.244 1001.85 111.714 1001.85 113.413C1001.85 115.265 1002.93 123.757 1002.93 126.073C1002.93 131.322 1000.46 133.483 998.302 133.483C996.604 133.483 995.214 130.859 994.751 129.624C991.354 120.36 983.326 112.023 974.526 112.023C968.042 112.023 962.175 118.044 962.175 123.911C962.175 130.859 967.27 135.954 976.07 140.431C995.523 150.312 1006.95 158.958 1006.95 173.625C1006.95 186.285 998.302 193.387 992.744 196.783C986.723 200.334 976.533 202.959 969.431 202.959C956.308 202.959 948.743 200.18 945.192 198.79C944.111 198.327 941.641 196.938 940.869 195.239C938.244 189.681 937.781 181.653 937.781 177.948C937.781 175.014 939.325 171.309 941.795 171.309C943.494 171.309 945.501 173.162 947.662 177.176C953.374 187.674 961.866 195.239 971.438 195.239C976.996 195.239 983.944 191.38 983.944 184.278C983.944 179.646 984.252 174.551 968.505 166.06C948.28 155.252 940.406 146.915 940.406 132.557C940.406 122.522 947.508 114.339 954.918 110.171C960.785 106.928 968.196 104.921 976.996 104.921Z" fill="white"/>
<path d="M60.0701 182.079V179.579H57.5701V182.079H60.0701ZM75.0591 182.079H77.5591V179.579H75.0591V182.079ZM75.0591 230.622V233.122H77.5591V230.622H75.0591ZM73.008 230.622L71.4235 232.556L72.1146 233.122H73.008V230.622ZM52.3916 215.37L50.9731 217.429L50.9749 217.43L52.3916 215.37ZM16.9967 205.115L18.6846 206.959L18.693 206.951L18.7014 206.943L16.9967 205.115ZM23.0448 229.675V232.175H28.8716L24.8566 227.953L23.0448 229.675ZM7.63515 229.675L5.53787 231.036L6.27704 232.175H7.63515V229.675ZM6.21514 192.072L8.07496 193.742L8.08193 193.735L6.21514 192.072ZM60.0701 205.746L58.5209 207.708L62.5701 210.905V205.746H60.0701ZM60.0701 184.579H75.0591V179.579H60.0701V184.579ZM72.5591 182.079V230.622H77.5591V182.079H72.5591ZM75.0591 228.122H73.008V233.122H75.0591V228.122ZM74.5924 228.688C69.0861 224.177 62.1531 219.05 53.8083 213.31L50.9749 217.43C59.2494 223.121 66.0607 228.162 71.4235 232.556L74.5924 228.688ZM53.8101 213.312C45.4813 207.573 39.3667 203.805 35.6028 202.187L33.6277 206.78C36.8761 208.177 42.6124 211.668 50.9731 217.429L53.8101 213.312ZM35.6028 202.187C31.8335 200.566 28.0971 199.722 24.4122 199.722V204.722C27.3191 204.722 30.3846 205.386 33.6277 206.78L35.6028 202.187ZM24.4122 199.722C20.9161 199.722 17.8319 200.918 15.292 203.286L18.7014 206.943C20.2987 205.454 22.1582 204.722 24.4122 204.722V199.722ZM15.3088 203.27C12.7454 205.617 11.3937 208.573 11.3937 212.004H16.3937C16.3937 210.036 17.1107 208.399 18.6846 206.959L15.3088 203.27ZM11.3937 212.004C11.3937 218.317 14.9614 224.802 21.2331 231.398L24.8566 227.953C18.9268 221.716 16.3937 216.42 16.3937 212.004H11.3937ZM23.0448 227.175H7.63515V232.175H23.0448V227.175ZM9.73243 228.315C5.25102 221.407 3.14031 215.02 3.14031 209.112H-1.85969C-1.85969 216.246 0.692823 223.568 5.53787 231.036L9.73243 228.315ZM3.14031 209.112C3.14031 202.317 4.88151 197.297 8.07494 193.742L4.35534 190.401C0.115662 195.121 -1.85969 201.461 -1.85969 209.112H3.14031ZM8.08193 193.735C11.2461 190.182 15.62 188.313 21.5196 188.313V183.313C14.4464 183.313 8.61733 185.616 4.34835 190.409L8.08193 193.735ZM21.5196 188.313C25.3796 188.313 30.3932 189.776 36.662 193.017C42.8955 196.24 50.1775 201.12 58.5209 207.708L61.6194 203.784C53.1331 197.083 45.5752 191.997 38.9585 188.576C32.3771 185.173 26.5303 183.313 21.5196 183.313V188.313ZM62.5701 205.746V182.079H57.5701V205.746H62.5701ZM10.6855 129.013L12.0468 131.11L12.0545 131.105L10.6855 129.013ZM65.9605 128.803L64.6226 130.914L65.9605 128.803ZM66.0131 165.67L67.3948 167.754L67.4024 167.749L66.0131 165.67ZM10.5803 165.565L9.17098 167.63L9.17337 167.631L10.5803 165.565ZM56.9146 140.794L57.7949 138.454L57.7873 138.451L56.9146 140.794ZM19.5211 140.794L20.4121 143.13L20.4267 143.124L20.4412 143.118L19.5211 140.794ZM19.4159 153.889L18.4458 156.193L18.4579 156.198L19.4159 153.889ZM56.862 153.889L57.7472 156.227L57.761 156.222L57.7747 156.217L56.862 153.889ZM3.14031 147.21C3.14031 140.299 6.03806 135.011 12.0468 131.11L9.32421 126.916C1.93937 131.71 -1.85969 138.554 -1.85969 147.21H3.14031ZM12.0545 131.105C18.203 127.081 26.7649 124.939 37.9812 124.939V119.939C26.1969 119.939 16.5617 122.179 9.31652 126.921L12.0545 131.105ZM37.9812 124.939C49.6878 124.939 58.4806 127.023 64.6226 130.914L67.2984 126.691C60.0468 122.097 50.1867 119.939 37.9812 119.939V124.939ZM64.6226 130.914C70.6002 134.701 73.5058 139.972 73.5058 147H78.5058C78.5058 138.249 74.7145 131.389 67.2984 126.691L64.6226 130.914ZM73.5058 147C73.5058 154.157 70.5935 159.601 64.6238 163.592L67.4024 167.749C74.7562 162.833 78.5058 155.831 78.5058 147H73.5058ZM64.6314 163.587C58.5305 167.632 49.8585 169.797 38.3493 169.797V174.797C50.4017 174.797 60.1722 172.543 67.3948 167.754L64.6314 163.587ZM38.3493 169.797C26.6963 169.797 18.0056 167.596 11.9873 163.498L9.17337 167.631C16.3383 172.51 26.1603 174.797 38.3493 174.797V169.797ZM11.9897 163.5C6.01277 159.421 3.14031 154.059 3.14031 147.21H-1.85969C-1.85969 155.789 1.89453 162.663 9.17098 167.63L11.9897 163.5ZM64.7264 147.21C64.7264 145.194 64.1043 143.349 62.8242 141.803C61.5785 140.298 59.8313 139.22 57.7949 138.454L56.0342 143.134C57.5391 143.7 58.4478 144.357 58.9728 144.991C59.4633 145.584 59.7264 146.281 59.7264 147.21H64.7264ZM57.7873 138.451C53.736 136.942 46.6127 136.295 36.8241 136.295V141.295C46.6702 141.295 52.9406 141.981 56.0418 143.136L57.7873 138.451ZM36.8241 136.295C28.6368 136.295 22.4468 136.947 18.601 138.469L20.4412 143.118C23.3273 141.976 28.6727 141.295 36.8241 141.295V136.295ZM18.6301 138.458C16.6366 139.218 14.9323 140.314 13.7259 141.857C12.4952 143.43 11.9196 145.294 11.9196 147.315H16.9196C16.9196 146.286 17.1943 145.538 17.6641 144.937C18.1582 144.306 19.0046 143.666 20.4121 143.13L18.6301 138.458ZM11.9196 147.315C11.9196 149.304 12.487 151.139 13.6783 152.707C14.8463 154.244 16.4996 155.374 18.4458 156.193L20.3861 151.585C19.0014 151.002 18.1565 150.336 17.6591 149.681C17.1849 149.057 16.9196 148.307 16.9196 147.315H11.9196ZM18.4579 156.198C20.4437 157.022 23.1941 157.565 26.5459 157.914C29.9409 158.268 34.1278 158.44 39.0856 158.44V153.44C34.2261 153.44 30.2261 153.271 27.0645 152.941C23.8597 152.607 21.684 152.124 20.374 151.58L18.4579 156.198ZM39.0856 158.44C47.3633 158.44 53.6815 157.767 57.7472 156.227L55.9767 151.551C52.8197 152.747 47.287 153.44 39.0856 153.44V158.44ZM57.7747 156.217C59.8339 155.409 61.589 154.284 62.8345 152.733C64.1103 151.145 64.7264 149.263 64.7264 147.21H59.7264C59.7264 148.208 59.4485 148.964 58.9362 149.602C58.3936 150.278 57.4664 150.967 55.9493 151.562L57.7747 156.217ZM60.0701 63.2194V60.7194H57.5701V63.2194H60.0701ZM75.0591 63.2194H77.5591V60.7194H75.0591V63.2194ZM75.0591 111.762V114.262H77.5591V111.762H75.0591ZM73.008 111.762L71.4235 113.696L72.1146 114.262H73.008V111.762ZM52.3916 96.5106L50.9731 98.5692L50.9749 98.5704L52.3916 96.5106ZM16.9967 86.255L18.6846 88.0992L18.693 88.0915L18.7014 88.0837L16.9967 86.255ZM23.0448 110.816V113.316H28.8716L24.8566 109.093L23.0448 110.816ZM7.63515 110.816L5.53787 112.176L6.27704 113.316H7.63515V110.816ZM6.21514 73.212L8.07496 74.8827L8.08193 74.8748L6.21514 73.212ZM60.0701 86.8861L58.5209 88.8482L62.5701 92.0454V86.8861H60.0701ZM60.0701 65.7194H75.0591V60.7194H60.0701V65.7194ZM72.5591 63.2194V111.762H77.5591V63.2194H72.5591ZM75.0591 109.262H73.008V114.262H75.0591V109.262ZM74.5924 109.829C69.0861 105.317 62.1531 100.19 53.8083 94.4507L50.9749 98.5704C59.2494 104.261 66.0607 109.302 71.4235 113.696L74.5924 109.829ZM53.8101 94.452C45.4813 88.7128 39.3667 84.9457 35.6028 83.3272L33.6277 87.9206C36.8761 89.3174 42.6124 92.8081 50.9731 98.5692L53.8101 94.452ZM35.6028 83.3272C31.8335 81.7064 28.0971 80.8624 24.4122 80.8624V85.8624C27.3191 85.8624 30.3846 86.526 33.6277 87.9206L35.6028 83.3272ZM24.4122 80.8624C20.9161 80.8624 17.8319 82.0586 15.292 84.4263L18.7014 88.0837C20.2987 86.5946 22.1582 85.8624 24.4122 85.8624V80.8624ZM15.3088 84.4108C12.7454 86.757 11.3937 89.7133 11.3937 93.1447H16.3937C16.3937 91.1765 17.1107 89.5397 18.6846 88.0992L15.3088 84.4108ZM11.3937 93.1447C11.3937 99.4577 14.9614 105.942 21.2331 112.538L24.8566 109.093C18.9268 102.857 16.3937 97.5605 16.3937 93.1447H11.3937ZM23.0448 108.316H7.63515V113.316H23.0448V108.316ZM9.73243 109.455C5.25102 102.548 3.14031 96.1606 3.14031 90.2521H-1.85969C-1.85969 97.3865 0.692823 104.709 5.53787 112.176L9.73243 109.455ZM3.14031 90.2521C3.14031 83.457 4.88151 78.4376 8.07494 74.8827L4.35534 71.5413C0.115662 76.261 -1.85969 82.6016 -1.85969 90.2521H3.14031ZM8.08193 74.8748C11.2461 71.3227 15.62 69.4535 21.5196 69.4535V64.4535C14.4464 64.4535 8.61733 66.7566 4.34835 71.5491L8.08193 74.8748ZM21.5196 69.4535C25.3796 69.4535 30.3932 70.916 36.662 74.1573C42.8955 77.3804 50.1775 82.2604 58.5209 88.8482L61.6194 84.924C53.1331 78.2234 45.5752 73.1371 38.9585 69.7159C32.3771 66.313 26.5303 64.4535 21.5196 64.4535V69.4535ZM62.5701 86.8861V63.2194H57.5701V86.8861H62.5701ZM43.3982 36.2919V38.7919H45.8002L45.8962 36.3918L43.3982 36.2919ZM30.4604 36.2919H27.9604V38.7919H30.4604V36.2919ZM27.8834 28.9815L26.0477 30.6786L26.0557 30.6873L26.0639 30.696L27.8834 28.9815ZM16.7863 50.0712V52.5712H20.7924L19.032 48.9726L16.7863 50.0712ZM3.84847 50.0712L1.55921 51.0758L2.21545 52.5712H3.84847V50.0712ZM5.68921 16.3066L7.66605 17.8371L7.67374 17.827L5.68921 16.3066ZM35.6145 20.6718L33.4246 21.8778L35.9969 26.5485L37.9422 21.5839L35.6145 20.6718ZM70.168 14.8866L72.099 13.2988L72.092 13.2904L70.168 14.8866ZM71.8509 51.9119V54.4119H73.3916L74.0841 53.0356L71.8509 51.9119ZM57.5983 51.9119L55.5526 50.4748L52.7867 54.4119H57.5983V51.9119ZM60.7538 28.0874L62.6718 26.4839L62.6641 26.4747L62.6564 26.4656L60.7538 28.0874ZM46.5012 27.9822L48.3153 29.7025L48.3226 29.6947L48.3299 29.6869L46.5012 27.9822ZM43.3982 33.7919H30.4604V38.7919H43.3982V33.7919ZM32.9604 36.2919C32.9604 32.7506 31.949 29.6507 29.7028 27.267L26.0639 30.696C27.2538 31.9587 27.9604 33.7324 27.9604 36.2919H32.9604ZM29.719 27.2843C27.5605 24.9496 24.858 23.6941 21.73 23.6941V28.6941C23.3704 28.6941 24.7702 29.2968 26.0477 30.6786L29.719 27.2843ZM21.73 23.6941C18.4976 23.6941 15.7658 25.0344 13.6974 27.5524L17.5611 30.7261C18.7184 29.3172 20.0538 28.6941 21.73 28.6941V23.6941ZM13.6974 27.5524C11.6515 30.0431 10.71 33.1261 10.71 36.6074H15.71C15.71 34.0581 16.3813 32.1623 17.5611 30.7261L13.6974 27.5524ZM10.71 36.6074C10.71 41.1928 12.0407 46.0598 14.5406 51.1698L19.032 48.9726C16.7634 44.3354 15.71 40.2266 15.71 36.6074H10.71ZM16.7863 47.5712H3.84847V52.5712H16.7863V47.5712ZM6.13773 49.0665C4.1613 44.5629 3.14031 39.3227 3.14031 33.2941H-1.85969C-1.85969 39.8878 -0.741909 45.8323 1.55921 51.0758L6.13773 49.0665ZM3.14031 33.2941C3.14031 26.7197 4.7214 21.6405 7.66602 17.8371L3.7124 14.7762C-0.0748425 19.668 -1.85969 25.9139 -1.85969 33.2941H3.14031ZM7.67374 17.827C10.5506 14.072 14.1414 12.2851 18.627 12.2851V7.28513C12.524 7.28513 7.48956 9.84595 3.70468 14.7862L7.67374 17.827ZM18.627 12.2851C24.9078 12.2851 29.7974 15.2916 33.4246 21.8778L37.8044 19.4658C33.4375 11.5364 27.0021 7.28513 18.627 7.28513V12.2851ZM37.9422 21.5839C39.481 17.6566 41.6173 14.8821 44.2684 13.0729C46.9193 11.2637 50.2802 10.2866 54.4953 10.2866V5.28659C49.4891 5.28659 45.0926 6.457 41.4499 8.94295C37.8074 11.4288 35.1139 15.0969 33.2868 19.7598L37.9422 21.5839ZM54.4953 10.2866C60.3244 10.2866 64.8238 12.3604 68.2439 16.4829L72.092 13.2904C67.6582 7.94609 61.7093 5.28659 54.4953 5.28659V10.2866ZM68.2369 16.4744C71.6631 20.6414 73.5058 26.3699 73.5058 33.9252H78.5058C78.5058 25.5624 76.4566 18.5986 72.099 13.2989L68.2369 16.4744ZM73.5058 33.9252C73.5058 40.0425 72.2029 45.6505 69.6177 50.7882L74.0841 53.0356C77.0387 47.1639 78.5058 40.7808 78.5058 33.9252H73.5058ZM71.8509 49.4119H57.5983V54.4119H71.8509V49.4119ZM59.6439 53.3491C63.7145 47.5549 65.9361 41.8865 65.9361 36.3971H60.9361C60.9361 40.5145 59.2658 45.1894 55.5526 50.4748L59.6439 53.3491ZM65.9361 36.3971C65.9361 32.5436 64.9137 29.1653 62.6718 26.4839L58.8359 29.691C60.1703 31.287 60.9361 33.4485 60.9361 36.3971H65.9361ZM62.6564 26.4656C60.3457 23.755 57.2943 22.3792 53.7064 22.3792V27.3792C55.8687 27.3792 57.5155 28.1422 58.8513 29.7092L62.6564 26.4656ZM53.7064 22.3792C50.1509 22.3792 47.0826 23.6921 44.6725 26.2775L48.3299 29.6869C49.7766 28.135 51.5117 27.3792 53.7064 27.3792V22.3792ZM44.6871 26.262C42.2448 28.8375 41.0584 32.2385 40.9002 36.192L45.8962 36.3918C46.0186 33.3328 46.9008 31.1941 48.3153 29.7025L44.6871 26.262Z" fill="white"/>
<path d="M128.56 1.74994L128.34 233.78" stroke="white" stroke-width="2" stroke-miterlimit="10" stroke-linecap="round"/>
</svg>
