<svg width="52" height="51" viewBox="0 0 52 51" fill="none" xmlns="http://www.w3.org/2000/svg">
<path d="M14.7136 18.5842L17.5437 18.2543C17.4492 20.0388 17.5397 21.8283 17.8137 23.5942L18.2937 23.1443C19.8937 21.4743 21.4936 19.8143 23.0836 18.1443C23.1233 18.0916 23.1778 18.052 23.2402 18.0306C23.3026 18.0093 23.3701 18.007 23.4337 18.0243C23.8937 18.1043 24.3637 18.1643 24.8237 18.2343H25.0237C25.2137 18.3043 25.2737 18.4242 25.1637 18.5942C25.0645 18.778 24.9437 18.9493 24.8037 19.1042C23.6104 20.3842 22.417 21.6609 21.2236 22.9342C20.3236 23.9342 19.4037 24.8642 18.4937 25.8242C19.1308 27.2446 19.9805 28.5597 21.0137 29.7242C22.5537 28.1242 24.0936 26.5342 25.6136 24.9342C27.1336 23.3342 28.4937 21.8542 29.9237 20.3142C30.0737 20.1542 30.2137 19.9743 30.4037 19.7643C30.0337 19.4943 29.6936 19.2242 29.3336 18.9742C27.9124 17.9275 26.2585 17.2412 24.5137 16.9742C23.6868 16.8406 22.8512 16.7671 22.0137 16.7543C21.0137 16.7543 20.0137 16.8343 18.9437 16.9043C17.8737 16.9743 17.0037 17.0943 16.0337 17.1643C14.3137 17.2943 12.6037 17.4343 10.8837 17.4843C8.55427 17.5585 6.23771 17.111 4.10364 16.1743C2.98638 15.7216 1.93392 15.123 0.973633 14.3943L0.803711 14.2743L1.80371 13.1942L2.58362 12.3843C2.60506 12.3622 2.63072 12.3446 2.65906 12.3326C2.6874 12.3207 2.71789 12.3145 2.74866 12.3145C2.77943 12.3145 2.80991 12.3207 2.83826 12.3326C2.8666 12.3446 2.89226 12.3622 2.9137 12.3843C3.5437 12.7443 4.16372 13.1242 4.81372 13.4442C5.95562 13.9753 7.16805 14.3391 8.4137 14.5243C9.99027 14.7509 11.5883 14.7879 13.1737 14.6343C16.0437 14.3943 18.9137 14.0243 21.8037 13.9943C23.3087 13.9487 24.8127 14.1102 26.2737 14.4742C28.4989 15.056 30.5549 16.1559 32.2737 17.6842C33.337 18.5968 34.2901 19.6306 35.1136 20.7643C36.3044 22.4747 37.1315 24.4113 37.5437 26.4542C37.8413 28.0073 38.0052 29.5832 38.0337 31.1643C38.0337 31.4043 38.0337 31.6443 38.0337 31.8843C38.0413 31.9245 38.0397 31.966 38.0289 32.0055C38.0182 32.045 37.9987 32.0816 37.9717 32.1124C37.9447 32.1433 37.9111 32.1676 37.8733 32.1835C37.8355 32.1994 37.7946 32.2065 37.7537 32.2042C37.4637 32.2042 37.1737 32.2942 36.8837 32.3142C36.3537 32.3142 35.8237 32.3942 35.2637 32.4342C35.1137 30.8742 35.1137 29.2842 34.9137 27.7242H34.8436C34.7036 27.8442 34.5537 27.9442 34.4237 28.0742L31.1537 31.4843C30.7737 31.8843 30.4037 32.2942 30.0037 32.6842C29.3137 32.6042 28.6337 32.4943 27.9437 32.3943C27.8381 32.3727 27.7344 32.3425 27.6337 32.3042L28.6337 31.2343C30.2037 29.5543 31.7936 27.8843 33.3536 26.2343C33.5931 25.9666 33.8137 25.6826 34.0137 25.3843C34.0844 25.2813 34.1272 25.1617 34.1377 25.0372C34.1482 24.9127 34.1262 24.7877 34.0737 24.6743C33.518 23.4568 32.7906 22.3252 31.9137 21.3142L22.5836 31.1443C22.9736 31.4143 23.3637 31.7042 23.7737 31.9542C25.4133 32.9589 27.2598 33.5779 29.1737 33.7643C30.1737 33.8543 31.1037 33.8442 32.0737 33.8442C33.4096 33.8475 34.7448 33.7807 36.0737 33.6443C38.2906 33.3878 40.5229 33.2909 42.7537 33.3542C45.8716 33.4608 48.8996 34.4263 51.5037 36.1443C51.6337 36.2243 51.7537 36.3243 51.8737 36.4043C51.9937 36.4843 52.0437 36.6243 51.8737 36.7643C51.4537 37.2243 51.0336 37.6943 50.6036 38.1543C50.5078 38.2618 50.4042 38.3619 50.2937 38.4542C50.2338 38.5135 50.153 38.5468 50.0687 38.5468C49.9845 38.5468 49.9035 38.5135 49.8436 38.4542C48.9792 37.8853 48.0533 37.4157 47.0836 37.0542C45.7063 36.5204 44.2498 36.2198 42.7737 36.1643C41.2237 36.1643 39.6636 36.1643 38.1036 36.2743C35.8436 36.3943 33.5737 36.6342 31.3137 36.6842C28.7667 36.7828 26.2311 36.2935 23.9037 35.2543C22.3971 34.5445 21.0131 33.5992 19.8037 32.4542C18.581 31.3558 17.5324 30.0779 16.6937 28.6643C15.956 27.3206 15.433 25.8696 15.1437 24.3643C14.8272 22.5925 14.6899 20.7935 14.7336 18.9943C14.7336 18.8743 14.7336 18.7543 14.7336 18.6343C14.7336 18.5143 14.7336 18.6343 14.7336 18.5443" fill="#5D808F"/>
<path d="M37.8535 37.4442C37.8492 39.4121 38.0436 41.3753 38.4335 43.3042C38.5622 43.2074 38.6857 43.104 38.8035 42.9943L41.4435 40.2943C42.3535 39.2943 43.2435 38.3843 44.1435 37.4243L45.7935 37.7843C46.1435 37.8643 46.2235 38.0342 46.0035 38.3042C45.5735 38.8342 45.1335 39.3042 44.6635 39.8542C42.8535 41.7842 41.0236 43.6943 39.2036 45.6243C39.7636 46.5543 40.3435 47.4643 40.9335 48.3743L38.9335 50.3743L38.4734 49.7843C37.1628 48.0324 36.2144 46.0369 35.6835 43.9143C35.203 41.8676 35.0044 39.7648 35.0934 37.6643C35.9634 37.6043 36.8335 37.5242 37.6935 37.4542H37.8535" fill="#5D808F"/>
<path d="M17.7634 13.0642L14.9435 13.3843C14.9624 11.5016 14.8151 9.62102 14.5034 7.76428H14.4335C14.1335 8.07428 13.8234 8.38421 13.5334 8.69421C12.0134 10.2842 10.5334 11.8842 8.99341 13.4742C8.2168 13.4397 7.45208 13.2706 6.7334 12.9742L7.03345 12.6243L12.7334 6.51428C13.0634 6.15428 13.3734 5.77432 13.7334 5.42432C13.2534 4.62432 12.7935 3.8243 12.3035 3.0343C11.9735 2.5043 11.9335 2.65423 12.3035 2.21423C12.6735 1.77423 13.3735 1.10429 13.9535 0.524292C14.3735 1.12429 14.8334 1.73428 15.2434 2.38428C16.2907 4.02917 17.0042 5.86402 17.3434 7.7843C17.5134 8.7243 17.5935 9.6943 17.6735 10.6543C17.7335 11.4643 17.6734 12.2742 17.7434 13.0842" fill="#5D808F"/>
</svg>
