<svg width="1033" height="285" viewBox="0 0 1033 285" fill="none" xmlns="http://www.w3.org/2000/svg">
<path d="M61.9767 195.616V193.116H59.4767V195.616H61.9767ZM76.9656 195.616H79.4656V193.116H76.9656V195.616ZM76.9656 244.159V246.659H79.4656V244.159H76.9656ZM74.9146 244.159L73.3301 246.093L74.0212 246.659H74.9146V244.159ZM54.2982 228.907L52.8797 230.966L52.8815 230.967L54.2982 228.907ZM18.9033 218.652L20.5912 220.496L20.5996 220.488L20.608 220.48L18.9033 218.652ZM24.9514 243.212V245.712H30.7782L26.7632 241.49L24.9514 243.212ZM9.54177 243.212L7.44447 244.573L8.18357 245.712H9.54177V243.212ZM8.12167 205.609L9.98158 207.279L9.98848 207.271L8.12167 205.609ZM61.9767 219.283L60.4275 221.245L64.4767 224.442V219.283H61.9767ZM61.9767 198.116H76.9656V193.116H61.9767V198.116ZM74.4657 195.616V244.159H79.4656V195.616H74.4657ZM76.9656 241.659H74.9146V246.659H76.9656V241.659ZM76.499 242.225C70.9927 237.714 64.0597 232.587 55.7149 226.847L52.8815 230.967C61.156 236.658 67.9673 241.699 73.3301 246.093L76.499 242.225ZM55.7167 226.849C47.3879 221.109 41.2733 217.342 37.5094 215.724L35.5343 220.317C38.7827 221.714 44.519 225.205 52.8797 230.966L55.7167 226.849ZM37.5094 215.724C33.7401 214.103 30.0037 213.259 26.3188 213.259V218.259C29.2257 218.259 32.2912 218.923 35.5343 220.317L37.5094 215.724ZM26.3188 213.259C22.8227 213.259 19.7385 214.455 17.1986 216.823L20.608 220.48C22.2053 218.991 24.0648 218.259 26.3188 218.259V213.259ZM17.2154 216.807C14.652 219.154 13.3003 222.11 13.3003 225.541H18.3003C18.3003 223.573 19.0173 221.936 20.5912 220.496L17.2154 216.807ZM13.3003 225.541C13.3003 231.854 16.868 238.339 23.1397 244.935L26.7632 241.49C20.8334 235.253 18.3003 229.957 18.3003 225.541H13.3003ZM24.9514 240.712H9.54177V245.712H24.9514V240.712ZM11.639 241.852C7.15757 234.944 5.04688 228.557 5.04688 222.649H0.046875C0.046875 229.783 2.59937 237.105 7.44447 244.573L11.639 241.852ZM5.04688 222.649C5.04688 215.854 6.78818 210.834 9.98158 207.279L6.26187 203.938C2.02227 208.658 0.046875 214.998 0.046875 222.649H5.04688ZM9.98848 207.271C13.1527 203.719 17.5266 201.85 23.4262 201.85V196.85C16.353 196.85 10.5239 199.153 6.25497 203.946L9.98848 207.271ZM23.4262 201.85C27.2862 201.85 32.2998 203.313 38.5686 206.554C44.8021 209.777 52.0841 214.657 60.4275 221.245L63.526 217.321C55.0397 210.62 47.4818 205.534 40.8651 202.113C34.2837 198.71 28.4369 196.85 23.4262 196.85V201.85ZM64.4767 219.283V195.616H59.4767V219.283H64.4767ZM12.5921 142.55L13.9535 144.647L13.9611 144.642L12.5921 142.55ZM67.9197 179.207L69.3014 181.291L69.309 181.285L67.9197 179.207ZM12.4869 179.102L11.0776 181.167L11.08 181.168L12.4869 179.102ZM58.8212 154.331L59.7015 151.991L59.694 151.988L58.8212 154.331ZM21.4277 154.331L22.3187 156.666L22.3333 156.661L22.3478 156.655L21.4277 154.331ZM21.3225 167.426L20.3524 169.73L20.3645 169.735L21.3225 167.426ZM58.7686 167.426L59.6539 169.764L59.6676 169.759L59.6813 169.754L58.7686 167.426ZM5.04688 160.747C5.04688 153.836 7.94478 148.548 13.9535 144.647L11.2308 140.453C3.84597 145.247 0.046875 152.091 0.046875 160.747H5.04688ZM13.9611 144.642C20.1096 140.618 28.6715 138.476 39.8878 138.476V133.476C28.1035 133.476 18.4683 135.716 11.2231 140.458L13.9611 144.642ZM39.8878 138.476C51.5944 138.476 60.3872 140.56 66.5292 144.451L69.205 140.228C61.9534 135.634 52.0933 133.476 39.8878 133.476V138.476ZM66.5292 144.451C72.5068 148.238 75.4124 153.509 75.4124 160.537H80.4126C80.4126 151.786 76.6206 144.926 69.205 140.228L66.5292 144.451ZM75.4124 160.537C75.4124 167.694 72.5001 173.138 66.5305 177.129L69.309 181.285C76.6626 176.37 80.4126 169.368 80.4126 160.537H75.4124ZM66.538 177.124C60.4371 181.169 51.7651 183.334 40.2559 183.334V188.334C52.3083 188.334 62.0788 186.08 69.3014 181.291L66.538 177.124ZM40.2559 183.334C28.6029 183.334 19.9122 181.133 13.8939 177.035L11.08 181.168C18.2449 186.047 28.0669 188.334 40.2559 188.334V183.334ZM13.8963 177.037C7.91937 172.957 5.04688 167.596 5.04688 160.747H0.046875C0.046875 169.326 3.80108 176.2 11.0776 181.167L13.8963 177.037ZM66.633 160.747C66.633 158.73 66.0109 156.886 64.7308 155.34C63.4851 153.835 61.7379 152.757 59.7015 151.991L57.9408 156.671C59.4457 157.237 60.3544 157.894 60.8794 158.528C61.3699 159.121 61.633 159.818 61.633 160.747H66.633ZM59.694 151.988C55.6426 150.479 48.5193 149.832 38.7307 149.832V154.832C48.5768 154.832 54.8472 155.518 57.9484 156.673L59.694 151.988ZM38.7307 149.832C30.5434 149.832 24.3534 150.484 20.5076 152.006L22.3478 156.655C25.2339 155.513 30.5793 154.832 38.7307 154.832V149.832ZM20.5367 151.995C18.5432 152.755 16.8389 153.851 15.6325 155.394C14.4018 156.967 13.8262 158.831 13.8262 160.852H18.8262C18.8262 159.823 19.1009 159.075 19.5707 158.474C20.0648 157.843 20.9112 157.203 22.3187 156.666L20.5367 151.995ZM13.8262 160.852C13.8262 162.841 14.3936 164.676 15.5849 166.244C16.7529 167.78 18.4062 168.911 20.3524 169.73L22.2927 165.122C20.908 164.539 20.0631 163.873 19.5657 163.218C19.0915 162.594 18.8262 161.844 18.8262 160.852H13.8262ZM20.3645 169.735C22.3503 170.559 25.1007 171.102 28.4525 171.451C31.8475 171.805 36.0344 171.977 40.9922 171.977V166.977C36.1327 166.977 32.1327 166.808 28.9711 166.478C25.7663 166.144 23.5906 165.661 22.2806 165.117L20.3645 169.735ZM40.9922 171.977C49.2699 171.977 55.5881 171.304 59.6539 169.764L57.8833 165.088C54.7263 166.284 49.1936 166.977 40.9922 166.977V171.977ZM59.6813 169.754C61.7405 168.946 63.4956 167.821 64.7411 166.27C66.0169 164.682 66.633 162.8 66.633 160.747H61.633C61.633 161.745 61.3551 162.501 60.8428 163.139C60.3002 163.815 59.373 164.504 57.8559 165.099L59.6813 169.754ZM61.9767 76.7567V74.2567H59.4767V76.7567H61.9767ZM76.9656 76.7567H79.4656V74.2567H76.9656V76.7567ZM76.9656 125.299V127.799H79.4656V125.299H76.9656ZM74.9146 125.299L73.3301 127.233L74.0212 127.799H74.9146V125.299ZM54.2982 110.048L52.8797 112.106L52.8815 112.107L54.2982 110.048ZM18.9033 99.7924L20.5912 101.636L20.5996 101.628L20.608 101.621L18.9033 99.7924ZM24.9514 124.353V126.853H30.7782L26.7632 122.63L24.9514 124.353ZM9.54177 124.353L7.44447 125.713L8.18357 126.853H9.54177V124.353ZM8.12167 86.7493L9.98158 88.42L9.98848 88.4121L8.12167 86.7493ZM61.9767 100.423L60.4275 102.385L64.4767 105.582V100.423H61.9767ZM61.9767 79.2567H76.9656V74.2567H61.9767V79.2567ZM74.4657 76.7567V125.299H79.4656V76.7567H74.4657ZM76.9656 122.799H74.9146V127.799H76.9656V122.799ZM76.499 123.366C70.9927 118.854 64.0597 113.727 55.7149 107.988L52.8815 112.107C61.156 117.798 67.9673 122.839 73.3301 127.233L76.499 123.366ZM55.7167 107.989C47.3879 102.25 41.2733 98.4833 37.5094 96.8643L35.5343 101.457C38.7827 102.854 44.519 106.345 52.8797 112.106L55.7167 107.989ZM37.5094 96.8643C33.7401 95.2433 30.0037 94.3994 26.3188 94.3994V99.3994C29.2257 99.3994 32.2912 100.063 35.5343 101.457L37.5094 96.8643ZM26.3188 94.3994C22.8227 94.3994 19.7385 95.5963 17.1986 97.9633L20.608 101.621C22.2053 100.132 24.0648 99.3994 26.3188 99.3994V94.3994ZM17.2154 97.9483C14.652 100.294 13.3003 103.25 13.3003 106.682H18.3003C18.3003 104.713 19.0173 103.077 20.5912 101.636L17.2154 97.9483ZM13.3003 106.682C13.3003 112.995 16.868 119.479 23.1397 126.075L26.7632 122.63C20.8334 116.394 18.3003 111.097 18.3003 106.682H13.3003ZM24.9514 121.853H9.54177V126.853H24.9514V121.853ZM11.639 122.992C7.15757 116.085 5.04688 109.698 5.04688 103.789H0.046875C0.046875 110.923 2.59937 118.246 7.44447 125.713L11.639 122.992ZM5.04688 103.789C5.04688 96.9944 6.78818 91.975 9.98158 88.42L6.26187 85.0787C2.02227 89.7983 0.046875 96.1394 0.046875 103.789H5.04688ZM9.98848 88.4121C13.1527 84.8599 17.5266 82.9908 23.4262 82.9908V77.9908C16.353 77.9908 10.5239 80.2938 6.25497 85.0864L9.98848 88.4121ZM23.4262 82.9908C27.2862 82.9908 32.2998 84.4533 38.5686 87.6946C44.8021 90.9176 52.0841 95.7974 60.4275 102.385L63.526 98.4613C55.0397 91.7606 47.4818 86.6744 40.8651 83.2532C34.2837 79.8503 28.4369 77.9908 23.4262 77.9908V82.9908ZM64.4767 100.423V76.7567H59.4767V100.423H64.4767ZM45.3048 49.8292V52.3292H47.7068L47.8028 49.9291L45.3048 49.8292ZM32.367 49.8292H29.867V52.3292H32.367V49.8292ZM29.79 42.5188L27.9543 44.216L27.9624 44.2247L27.9705 44.2333L29.79 42.5188ZM18.6929 63.6085V66.1085H22.699L20.9386 62.5098L18.6929 63.6085ZM5.75507 63.6085L3.46577 64.6132L4.12207 66.1085H5.75507V63.6085ZM7.59577 29.844L9.57267 31.3744L9.58027 31.3644L7.59577 29.844ZM37.5211 34.2092L35.3312 35.4152L37.9035 40.0858L39.8488 35.1212L37.5211 34.2092ZM72.0746 28.424L74.0056 26.8362L73.9986 26.8277L72.0746 28.424ZM73.7575 65.4492V67.9492H75.2982L75.9907 66.573L73.7575 65.4492ZM59.5049 65.4492L57.4592 64.0121L54.6933 67.9492H59.5049V65.4492ZM62.6605 41.6247L64.5784 40.0212L64.5708 40.012L64.563 40.0029L62.6605 41.6247ZM48.4078 41.5196L50.2219 43.2398L50.2292 43.232L50.2365 43.2242L48.4078 41.5196ZM45.3048 47.3292H32.367V52.3292H45.3048V47.3292ZM34.867 49.8292C34.867 46.2879 33.8556 43.188 31.6094 40.8043L27.9705 44.2333C29.1604 45.4961 29.867 47.2697 29.867 49.8292H34.867ZM31.6256 40.8217C29.4671 38.4869 26.7646 37.2314 23.6366 37.2314V42.2314C25.277 42.2314 26.6768 42.8342 27.9543 44.216L31.6256 40.8217ZM23.6366 37.2314C20.4042 37.2314 17.6724 38.5717 15.604 41.0897L19.4677 44.2634C20.625 42.8545 21.9604 42.2314 23.6366 42.2314V37.2314ZM15.604 41.0897C13.5581 43.5805 12.6166 46.6635 12.6166 50.1448H17.6166C17.6166 47.5954 18.2879 45.6996 19.4677 44.2634L15.604 41.0897ZM12.6166 50.1448C12.6166 54.7301 13.9473 59.5971 16.4472 64.7071L20.9386 62.5098C18.67 57.8726 17.6166 53.7639 17.6166 50.1448H12.6166ZM18.6929 61.1085H5.75507V66.1085H18.6929V61.1085ZM8.04427 62.6039C6.06787 58.1002 5.04688 52.86 5.04688 46.8314H0.046875C0.046875 53.4251 1.16467 59.3696 3.46577 64.6132L8.04427 62.6039ZM5.04688 46.8314C5.04688 40.257 6.62807 35.1779 9.57267 31.3744L5.61897 28.3135C1.83177 33.2054 0.046875 39.4512 0.046875 46.8314H5.04688ZM9.58027 31.3644C12.4572 27.6093 16.048 25.8225 20.5336 25.8225V20.8225C14.4306 20.8225 9.39617 23.3833 5.61127 28.3236L9.58027 31.3644ZM20.5336 25.8225C26.8144 25.8225 31.704 28.8289 35.3312 35.4152L39.711 33.0031C35.3441 25.0738 28.9087 20.8225 20.5336 20.8225V25.8225ZM39.8488 35.1212C41.3876 31.1939 43.524 28.4194 46.175 26.6102C48.8259 24.8011 52.1868 23.8239 56.4019 23.8239V18.8239C51.3957 18.8239 46.9992 19.9943 43.3565 22.4803C39.714 24.9661 37.0205 28.6342 35.1934 33.2971L39.8488 35.1212ZM56.4019 23.8239C62.231 23.8239 66.7304 25.8978 70.1505 30.0202L73.9986 26.8277C69.5648 21.4834 63.6159 18.8239 56.4019 18.8239V23.8239ZM70.1435 30.0117C73.5697 34.1787 75.4124 39.9072 75.4124 47.4625H80.4126C80.4126 39.0998 78.3636 32.1359 74.0056 26.8362L70.1435 30.0117ZM75.4124 47.4625C75.4124 53.5798 74.1095 59.1878 71.5243 64.3255L75.9907 66.573C78.9456 60.7013 80.4126 54.3181 80.4126 47.4625H75.4124ZM73.7575 62.9492H59.5049V67.9492H73.7575V62.9492ZM61.5505 66.8864C65.6211 61.0922 67.8427 55.4239 67.8427 49.9344H62.8427C62.8427 54.0519 61.1724 58.7268 57.4592 64.0121L61.5505 66.8864ZM67.8427 49.9344C67.8427 46.0809 66.8203 42.7026 64.5784 40.0212L60.7425 43.2283C62.0769 44.8244 62.8427 46.9859 62.8427 49.9344H67.8427ZM64.563 40.0029C62.2524 37.2924 59.2009 35.9166 55.613 35.9166V40.9166C57.7753 40.9166 59.4221 41.6796 60.7579 43.2466L64.563 40.0029ZM55.613 35.9166C52.0575 35.9166 48.9893 37.2295 46.5791 39.8149L50.2365 43.2242C51.6832 41.6723 53.4183 40.9166 55.613 40.9166V35.9166ZM46.5938 39.7993C44.1514 42.3749 42.965 45.7759 42.8068 49.7293L47.8028 49.9291C47.9252 46.8702 48.8074 44.7314 50.2219 43.2398L46.5938 39.7993Z" fill="white"/>
<path d="M130.622 15.2872L130.412 247.317" stroke="white" stroke-width="2" stroke-miterlimit="10" stroke-linecap="round"/>
<path d="M201.599 36.1673C201.599 37.2313 202.207 38.0673 202.739 38.0673C216.039 38.0673 218.623 37.9913 220.067 38.0673C220.371 38.0673 220.979 36.9273 220.979 36.6233C220.979 31.4553 220.979 27.1993 220.675 25.3753C220.447 24.0073 220.295 23.2473 217.027 22.4113C214.215 21.6513 213.759 20.5113 213.759 19.9793C213.759 19.2193 215.127 18.3073 216.723 18.3073C219.839 18.3073 221.967 18.5353 224.855 18.5353C227.819 18.5353 235.419 18.3073 236.939 18.3073C238.459 18.3073 239.371 19.0673 239.371 19.9793C239.371 20.8153 238.459 21.6513 236.483 22.1073C234.127 22.6393 233.595 23.7793 233.367 25.6033C233.063 27.8073 232.987 33.7353 232.987 40.3473C232.987 49.7713 233.215 52.4313 233.367 55.2433C233.595 58.8913 234.887 59.4993 237.243 60.1073C239.371 60.6393 240.131 61.5513 240.131 62.3873C240.131 63.3753 238.915 64.2113 237.243 64.2113C235.799 64.2113 232.911 63.9833 230.099 63.9833C226.147 63.9833 219.611 64.3633 217.331 64.3633C215.811 64.3633 214.367 63.7553 214.367 62.5393C214.367 61.7793 215.051 61.1713 217.407 60.2593C220.219 59.1953 220.523 57.5233 220.751 56.3073C221.131 53.9513 221.283 47.7953 220.979 45.1353C220.751 43.2353 220.067 43.0833 219.991 43.0833C214.367 43.0833 203.575 43.3113 202.511 43.3113C201.979 43.3113 201.599 44.8313 201.599 45.2113C201.599 47.2633 201.675 54.6353 201.751 55.7753C201.979 58.3593 202.283 59.5753 206.083 60.4873C206.995 60.7153 208.515 61.7033 208.515 62.6913C208.515 63.9833 207.451 64.2873 205.551 64.2873C203.347 64.2873 197.875 63.9833 194.607 63.9833C192.175 63.9833 187.767 64.3633 185.487 64.3633C183.891 64.3633 182.599 63.5273 182.599 62.6153C182.599 61.7793 183.967 60.9433 185.335 60.4113C188.527 59.1193 189.135 58.4353 189.287 55.1673C189.515 51.8233 189.515 43.3873 189.515 32.4433C189.515 26.7433 189.287 26.2113 189.135 25.2993C188.831 23.5513 187.919 22.4873 184.423 21.6513C183.587 21.4233 182.751 20.7393 182.751 19.9033C182.751 19.0673 184.423 18.2313 185.867 18.2313C189.591 18.2313 194.835 18.5353 196.887 18.5353C199.243 18.5353 200.763 18.3833 203.423 18.3833C204.639 18.3833 206.159 18.7633 206.159 20.1313C206.159 21.2713 204.335 21.9553 203.423 22.2593C202.207 22.7153 201.599 24.2353 201.599 26.1353C201.599 28.4913 201.599 31.3033 201.599 36.1673ZM263.082 18.5353H270.91C277.826 18.5353 278.89 18.5353 280.638 18.1553C281.474 18.0033 282.006 18.4593 282.234 18.8393C282.69 19.5993 283.298 25.3753 283.298 27.0473C283.298 29.0233 282.386 29.4793 281.93 29.4793C280.562 29.4793 279.802 28.6433 278.89 26.5913C277.446 23.4753 276.382 22.9433 275.774 22.9433C271.442 22.9433 267.262 23.1713 266.198 23.1713C265.818 23.1713 265.21 24.0073 265.21 24.3113C265.134 25.7553 264.982 31.2273 264.982 36.4713C264.982 37.6873 265.21 38.4473 265.59 38.5233C266.426 38.7513 269.086 38.6753 270.454 38.5993C273.874 38.3713 274.938 37.1553 275.774 35.2553C276.23 34.1153 276.99 33.2033 277.826 33.2033C278.89 33.2033 279.574 34.2673 279.422 36.4713C279.346 37.3833 279.27 39.1313 279.27 40.8793C279.27 42.6273 279.422 44.3753 279.498 45.5153C279.65 47.5673 278.51 48.4793 277.75 48.4793C277.066 48.4793 276.078 47.6433 275.394 46.1233C274.634 44.3753 274.406 43.8433 272.81 43.6913C269.694 43.4633 269.238 43.3113 265.818 43.3113C265.438 43.3113 264.982 44.3753 264.982 46.2753C264.982 48.3273 265.21 52.7353 265.286 54.4073C265.438 56.6113 265.742 57.4473 265.97 57.7513C266.73 58.8913 270.378 59.8793 274.026 59.8793C275.242 59.8793 277.37 59.6513 279.118 58.6633C280.562 57.9033 281.322 56.9913 282.994 54.7113C284.21 53.0393 285.046 51.2153 286.262 51.2153C287.706 51.2153 288.162 53.4193 287.858 55.0153C287.402 57.2193 285.578 62.3113 285.274 62.9953C285.046 63.5273 283.45 64.3633 282.994 64.3633C282.006 64.3633 278.966 63.9833 265.134 63.9833C260.346 63.9833 250.77 64.2873 247.502 64.2873C245.906 64.2873 244.766 63.6793 244.766 63.0713C244.766 62.1593 245.374 61.0953 246.97 60.6393C252.214 59.1953 252.366 57.4473 252.518 56.0793C252.822 52.4313 252.898 50.8353 252.898 39.1313C252.898 27.4273 252.746 26.9713 252.518 25.6033C252.138 23.3233 251.15 22.4873 248.11 21.7273C246.134 21.2713 245.83 20.2073 245.83 19.6753C245.83 18.6873 247.35 18.1553 248.338 18.1553C249.63 18.1553 258.066 18.5353 263.082 18.5353ZM322.248 17.0153C323.616 17.0153 324.072 19.2953 326.048 24.3873C330.152 35.4073 336.384 50.1513 338.436 54.7873C340.336 59.0433 341.4 59.1193 344.364 60.3353C346.112 61.0953 346.72 62.2353 346.72 63.0713C346.72 63.9833 345.504 64.3633 344.06 64.3633C341.704 64.3633 335.776 63.9833 332.052 63.9833C328.784 63.9833 326.732 64.3633 323.996 64.3633C321.868 64.3633 321.184 63.4513 321.184 62.9193C321.184 62.0073 322.096 60.9433 323.54 60.3353C326.2 59.1953 326.2 57.5233 325.82 56.2313C325.136 54.3313 325.06 53.9513 324.072 51.6713C323.996 51.4433 323.312 50.6073 322.096 50.4553C320.804 50.3033 311.304 50.1513 309.556 50.5313C309.1 50.6073 308.492 51.3673 308.34 51.6713C307.732 53.1913 307.124 56.0793 307.124 57.0673C307.124 58.4353 308.112 59.5753 310.544 60.4113C311.608 60.7913 312.748 61.3993 312.748 62.3873C312.748 62.7673 311.684 64.2113 309.708 64.2113C308.796 64.2113 307.124 63.9833 304.692 63.9833C301.88 63.9833 298.764 64.3633 295.572 64.3633C293.9 64.3633 292.76 63.6033 292.76 62.6913C292.76 61.9313 293.368 61.1713 295.04 60.4873C297.852 59.3473 299.372 59.1193 301.804 54.0273C303.704 49.9993 309.1 36.3193 313.66 24.3113C313.736 24.0833 313.888 23.5513 313.888 22.7153C313.888 22.4113 314.268 21.8793 314.572 21.6513C315.56 21.0433 319.36 18.5353 320.196 17.8513C320.652 17.3953 321.868 17.0153 322.248 17.0153ZM320.728 45.3633C321.108 45.3633 321.564 44.6793 321.488 44.4513C320.348 40.7273 317.156 32.5953 316.472 31.3793C316.168 30.8473 315.712 31.0753 315.484 31.3793C314.268 33.8873 311 43.2353 310.772 44.3753C310.696 44.8313 311.076 45.4393 311.608 45.4393C312.596 45.4393 319.664 45.4393 320.728 45.3633ZM350.717 19.9033C350.717 18.6873 352.161 18.3833 353.149 18.3833C353.529 18.3833 360.141 18.5353 363.181 18.5353C366.221 18.5353 372.149 18.3073 373.669 18.3073C375.265 18.3073 376.177 19.0673 376.177 19.9793C376.177 20.8913 375.189 21.6513 373.593 21.9553C369.337 22.8673 369.109 24.5393 369.033 26.1353C368.881 27.8833 368.577 32.1393 368.577 38.6753C368.577 46.6553 368.805 53.9513 368.957 56.5353C369.033 57.6753 370.857 59.2713 373.745 59.9553C374.809 60.1833 377.317 60.2593 380.053 59.7273C382.333 59.2713 386.133 54.7873 387.729 51.8993C388.489 50.4553 389.325 49.9233 389.553 49.9233C390.921 49.9233 391.833 51.5193 391.453 52.8873C390.921 54.7873 389.477 60.7913 388.945 62.3113C388.489 63.4513 387.121 64.2113 385.601 64.2113C382.941 64.2113 374.885 63.9833 365.461 63.9833C360.293 63.9833 352.693 64.3633 351.021 64.3633C349.349 64.3633 348.057 63.5273 348.057 62.4633C348.057 61.3993 349.197 60.8673 350.489 60.6393C355.581 59.6513 356.113 57.8273 356.265 56.0793C356.417 53.7993 356.569 50.6073 356.569 41.5633C356.569 27.8073 356.645 27.9593 356.493 25.9073C356.265 23.3993 355.429 23.0193 352.921 21.9553C351.325 21.2713 350.717 20.7393 350.717 19.9033ZM406.28 18.5353H429.536C433.792 18.5353 435.692 18.0033 435.996 17.6233C436.908 16.4833 437.744 15.7993 438.276 15.7993C438.732 15.7993 440.708 17.0153 440.708 18.2313C440.708 18.7633 439.796 23.5513 439.796 28.6433C439.796 30.1633 438.656 31.8353 437.212 31.8353C436.148 31.8353 435.54 29.9353 435.388 29.2513C434.248 24.2353 432.956 24.0833 430.22 23.7793C429.08 23.6273 428.852 23.3993 422.392 23.3993C422.012 23.3993 421.784 24.0073 421.708 24.7673C421.632 25.8313 421.176 36.0913 421.176 40.8793C421.176 45.5153 421.1 50.5313 421.328 53.2673C421.784 58.8153 423.076 59.0433 426.192 60.1833C427.56 60.7153 428.852 61.3993 428.852 62.3113C428.852 63.9833 427.028 64.3633 425.508 64.3633C424.748 64.3633 416.388 63.9833 411.828 63.9833C409.624 63.9833 405.52 64.2113 403.468 64.2113C401.872 64.2113 400.352 63.5273 400.352 62.1593C400.352 61.5513 401.112 60.4873 402.86 60.0313C407.572 58.7393 408.864 57.7513 408.864 53.5713C408.864 51.9753 409.016 41.8673 409.016 36.9273C409.016 32.2153 409.092 27.1993 409.092 24.8433C409.092 24.2353 408.332 23.3993 408.104 23.3993C406.204 23.3993 403.392 23.3993 401.416 23.4753C399.288 23.5513 397.236 23.5513 395.184 29.2513C394.728 30.5433 393.816 31.5313 392.98 31.5313C391.992 31.5313 390.852 30.1633 390.852 28.3393C390.852 25.9833 391.688 22.5633 391.688 18.3833C391.688 17.0913 392.828 15.9513 393.74 15.9513C393.968 15.9513 394.88 16.4073 395.412 16.7873C396.704 17.8513 397.844 18.3073 400.048 18.3833C403.164 18.5353 403.848 18.5353 406.28 18.5353ZM465.224 36.1673C465.224 37.2313 465.832 38.0673 466.364 38.0673C479.664 38.0673 482.248 37.9913 483.692 38.0673C483.996 38.0673 484.604 36.9273 484.604 36.6233C484.604 31.4553 484.604 27.1993 484.3 25.3753C484.072 24.0073 483.92 23.2473 480.652 22.4113C477.84 21.6513 477.384 20.5113 477.384 19.9793C477.384 19.2193 478.752 18.3073 480.348 18.3073C483.464 18.3073 485.592 18.5353 488.48 18.5353C491.444 18.5353 499.044 18.3073 500.564 18.3073C502.084 18.3073 502.996 19.0673 502.996 19.9793C502.996 20.8153 502.084 21.6513 500.108 22.1073C497.752 22.6393 497.22 23.7793 496.992 25.6033C496.688 27.8073 496.612 33.7353 496.612 40.3473C496.612 49.7713 496.84 52.4313 496.992 55.2433C497.22 58.8913 498.512 59.4993 500.868 60.1073C502.996 60.6393 503.756 61.5513 503.756 62.3873C503.756 63.3753 502.54 64.2113 500.868 64.2113C499.424 64.2113 496.536 63.9833 493.724 63.9833C489.772 63.9833 483.236 64.3633 480.956 64.3633C479.436 64.3633 477.992 63.7553 477.992 62.5393C477.992 61.7793 478.676 61.1713 481.032 60.2593C483.844 59.1953 484.148 57.5233 484.376 56.3073C484.756 53.9513 484.908 47.7953 484.604 45.1353C484.376 43.2353 483.692 43.0833 483.616 43.0833C477.992 43.0833 467.2 43.3113 466.136 43.3113C465.604 43.3113 465.224 44.8313 465.224 45.2113C465.224 47.2633 465.3 54.6353 465.376 55.7753C465.604 58.3593 465.908 59.5753 469.708 60.4873C470.62 60.7153 472.14 61.7033 472.14 62.6913C472.14 63.9833 471.076 64.2873 469.176 64.2873C466.972 64.2873 461.5 63.9833 458.232 63.9833C455.8 63.9833 451.392 64.3633 449.112 64.3633C447.516 64.3633 446.224 63.5273 446.224 62.6153C446.224 61.7793 447.592 60.9433 448.96 60.4113C452.152 59.1193 452.76 58.4353 452.912 55.1673C453.14 51.8233 453.14 43.3873 453.14 32.4433C453.14 26.7433 452.912 26.2113 452.76 25.2993C452.456 23.5513 451.544 22.4873 448.048 21.6513C447.212 21.4233 446.376 20.7393 446.376 19.9033C446.376 19.0673 448.048 18.2313 449.492 18.2313C453.216 18.2313 458.46 18.5353 460.512 18.5353C462.868 18.5353 464.388 18.3833 467.048 18.3833C468.264 18.3833 469.784 18.7633 469.784 20.1313C469.784 21.2713 467.96 21.9553 467.048 22.2593C465.832 22.7153 465.224 24.2353 465.224 26.1353C465.224 28.4913 465.224 31.3033 465.224 36.1673ZM546.982 18.0033C554.278 18.0033 561.802 19.5993 567.426 24.3113C573.81 29.7073 575.102 36.4713 575.102 41.1833C575.102 52.8113 567.35 58.8153 563.246 61.0953C557.85 63.9833 552.15 64.5913 546.526 64.5913C543.41 64.5913 535.126 63.9833 532.694 63.9833C530.262 63.9833 526.842 63.9833 523.194 64.2873C522.586 64.3633 521.978 63.8313 521.978 63.2993C521.978 62.4633 523.118 60.6393 525.018 60.1073C527.45 59.4233 528.742 59.6513 529.35 56.2313C529.882 53.2673 529.882 49.4673 529.882 39.4353C529.882 29.0233 530.034 27.7313 529.502 25.0713C529.35 24.2353 529.198 23.0953 525.626 22.3353C523.802 21.9553 522.738 21.1193 522.738 20.0553C522.738 18.9153 523.954 18.4593 526.158 18.4593L531.402 18.5353C534.062 18.6113 541.662 18.0033 546.982 18.0033ZM546.982 22.0313C546.374 22.0313 543.866 22.3353 543.334 22.6393C543.03 22.7913 542.27 24.2353 542.27 24.5393C542.118 27.1233 541.814 30.3913 541.814 36.0913V41.5633C541.814 51.2913 542.118 52.5073 542.346 54.7873C542.498 56.3833 543.334 57.9793 544.246 58.7393C545.082 59.4233 547.818 60.7153 548.806 60.7153C549.642 60.7153 553.746 59.8033 557.09 56.6113C560.51 53.3433 561.954 46.9593 561.954 41.8673C561.954 36.3193 560.51 30.6193 556.634 26.8193C553.29 23.4753 549.414 22.0313 546.982 22.0313ZM588.144 47.3393V29.7833C588.144 23.3993 587.84 22.5633 583.736 21.6513C582.444 21.3473 581.684 20.4353 581.684 19.7513C581.684 18.6113 583.508 18.2313 584.268 18.2313C585.712 18.2313 590.5 18.5353 593.844 18.5353C598.404 18.5353 602.128 18.3073 604.332 18.3073C605.472 18.3073 606.688 18.9153 606.688 19.9033C606.688 20.8153 605.396 21.4233 604.788 21.5753C601.064 22.4113 600.836 23.3993 600.532 27.3513C600.304 30.6193 600.228 37.2313 600.228 42.3993C600.228 50.6833 600.38 53.6473 600.38 54.6353C600.532 58.2073 600.912 59.7273 604.712 60.6393C606.156 61.0193 607.144 61.7793 607.144 62.8433C607.144 63.7553 605.472 64.2113 604.56 64.2113C603.8 64.2113 596.428 63.9833 593.844 63.9833C591.184 63.9833 585.636 64.2873 584.268 64.2873C583.28 64.2873 581.684 64.0593 581.684 62.8433C581.684 62.0073 582.9 61.0193 583.964 60.7153C587.004 59.7273 587.46 58.8153 587.84 56.5353C588.068 54.9393 588.144 53.5713 588.144 47.3393ZM641.76 17.0153C643.128 17.0153 643.584 19.2953 645.56 24.3873C649.664 35.4073 655.896 50.1513 657.948 54.7873C659.848 59.0433 660.912 59.1193 663.876 60.3353C665.624 61.0953 666.232 62.2353 666.232 63.0713C666.232 63.9833 665.016 64.3633 663.572 64.3633C661.216 64.3633 655.288 63.9833 651.564 63.9833C648.296 63.9833 646.244 64.3633 643.508 64.3633C641.38 64.3633 640.696 63.4513 640.696 62.9193C640.696 62.0073 641.608 60.9433 643.052 60.3353C645.712 59.1953 645.712 57.5233 645.332 56.2313C644.648 54.3313 644.572 53.9513 643.584 51.6713C643.508 51.4433 642.824 50.6073 641.608 50.4553C640.316 50.3033 630.816 50.1513 629.068 50.5313C628.612 50.6073 628.004 51.3673 627.852 51.6713C627.244 53.1913 626.636 56.0793 626.636 57.0673C626.636 58.4353 627.624 59.5753 630.056 60.4113C631.12 60.7913 632.26 61.3993 632.26 62.3873C632.26 62.7673 631.196 64.2113 629.22 64.2113C628.308 64.2113 626.636 63.9833 624.204 63.9833C621.392 63.9833 618.276 64.3633 615.084 64.3633C613.412 64.3633 612.272 63.6033 612.272 62.6913C612.272 61.9313 612.88 61.1713 614.552 60.4873C617.364 59.3473 618.884 59.1193 621.316 54.0273C623.216 49.9993 628.612 36.3193 633.172 24.3113C633.248 24.0833 633.4 23.5513 633.4 22.7153C633.4 22.4113 633.78 21.8793 634.084 21.6513C635.072 21.0433 638.872 18.5353 639.708 17.8513C640.164 17.3953 641.38 17.0153 641.76 17.0153ZM640.24 45.3633C640.62 45.3633 641.076 44.6793 641 44.4513C639.86 40.7273 636.668 32.5953 635.984 31.3793C635.68 30.8473 635.224 31.0753 634.996 31.3793C633.78 33.8873 630.512 43.2353 630.284 44.3753C630.208 44.8313 630.588 45.4393 631.12 45.4393C632.108 45.4393 639.176 45.4393 640.24 45.3633ZM698.178 17.0153C703.118 17.0153 705.93 17.8513 709.122 18.6873C710.718 19.1433 712.314 19.3713 713.302 19.3713C713.834 19.3713 714.67 20.2073 714.822 21.0433C715.278 23.0953 716.342 26.9713 716.342 30.0113C716.342 31.1513 715.582 32.9753 714.442 32.9753C713.682 32.9753 713.15 32.7473 712.01 30.6953C711.022 28.8713 710.262 26.8193 708.362 25.1473C704.41 21.6513 699.774 21.1193 697.722 21.1193C687.158 21.1193 683.434 31.1513 683.434 40.0433C683.434 52.5833 690.578 61.3233 699.318 61.3233C700.002 61.3233 701.902 60.8673 702.738 60.2593C703.498 59.7273 703.802 57.1433 703.802 55.3953C703.802 52.5073 703.726 49.6953 703.65 48.7073C703.498 47.1873 703.194 45.8953 700.382 45.2113C697.798 44.6033 696.81 43.8433 696.81 42.7033C696.81 42.0193 697.646 40.9553 699.926 40.9553C702.054 40.9553 704.258 41.3353 706.766 41.3353C709.046 41.3353 716.494 40.9553 718.014 40.9553C720.142 40.9553 720.826 41.7913 720.826 42.7033C720.826 43.7673 719.382 44.6033 718.394 44.9833C715.734 45.8953 715.886 47.1873 715.81 48.2513C715.658 49.9993 715.658 47.4913 715.658 54.4073C715.658 55.3953 715.734 56.4593 715.886 57.6753C715.962 58.2073 716.114 58.9673 716.114 59.8793C716.114 60.1073 715.202 61.2473 715.05 61.3233C714.138 62.0073 712.238 62.9953 709.046 63.9073C706.082 64.7433 702.358 65.5033 698.634 65.5033C686.17 65.5033 679.102 61.7793 674.238 55.8513C670.818 51.6713 669.526 46.1233 669.526 41.1833C669.526 32.9753 673.022 27.2753 679.026 22.7153C683.358 19.3713 691.262 17.0153 698.178 17.0153ZM725.035 19.3713C725.035 18.8393 725.643 18.0793 727.011 18.0793C730.051 18.0793 736.131 18.6873 740.995 18.6873C741.679 18.6873 742.743 19.2193 742.971 19.5233C744.263 21.2713 746.619 23.7793 750.267 27.7313C754.295 32.0633 766.379 44.8313 768.051 45.7433C768.279 45.8193 768.887 45.6673 768.963 45.4393C769.419 43.3873 769.419 36.0913 769.191 30.8473C768.963 25.6793 769.343 23.7033 763.415 22.3353C761.591 21.8793 760.907 20.5873 760.907 20.1313C760.907 19.5993 761.743 18.4593 763.567 18.4593C766.303 18.4593 766.151 18.5353 768.127 18.5353C771.243 18.5353 777.019 18.1553 778.539 18.1553C780.135 18.1553 781.199 18.6113 781.199 19.9033C781.199 20.7393 780.591 21.2713 778.159 22.3353C775.043 23.7033 774.587 24.5393 774.511 25.5273C774.359 29.0233 773.751 44.6793 773.751 49.7713C773.751 53.1153 774.055 56.4593 774.055 59.9553C774.055 63.1473 773.447 65.5033 772.079 65.5033C769.647 65.5033 767.671 64.1353 766.227 62.4633C763.415 59.2713 759.843 55.0913 757.715 52.7353C754.827 49.3913 742.971 36.7753 739.627 33.1273C739.399 32.8993 738.867 33.3553 738.867 33.6593C738.791 35.3313 738.639 35.5593 738.639 38.8273C738.639 42.2473 738.791 49.0873 738.867 51.1393C739.095 57.0673 740.083 58.8913 742.743 59.9553C745.327 60.9433 746.163 61.7793 746.163 62.8433C746.163 63.7553 745.327 64.2873 743.579 64.2873C741.451 64.2873 738.867 63.9833 735.295 63.9833C731.723 63.9833 729.823 64.2873 728.835 64.2873C726.555 64.2873 725.795 63.4513 725.795 62.6913C725.795 61.7033 726.707 61.0193 728.075 60.5633C731.571 59.4233 732.939 59.1953 733.319 54.1033C733.699 49.0113 734.307 30.8473 734.307 28.4153C734.307 27.9593 733.927 26.3633 732.939 25.2233C731.343 23.3993 729.975 22.4873 728.227 22.1073C726.479 21.7273 725.035 20.8153 725.035 19.3713ZM812.939 17.0153C828.747 17.0153 839.387 27.6553 839.387 41.2593C839.387 50.7593 833.763 58.2073 826.619 62.1593C823.351 63.9833 818.031 65.3513 813.167 65.3513C797.131 65.3513 786.643 54.4073 786.643 41.2593C786.643 35.4073 788.847 29.6313 793.559 24.9193C798.499 19.9793 805.795 17.0153 812.939 17.0153ZM811.571 20.9673C807.999 20.9673 804.807 24.0073 804.731 24.0833C801.539 27.5793 800.171 32.7473 800.171 39.8913C800.171 50.2273 804.883 61.4753 815.143 61.4753C817.727 61.4753 820.767 59.1953 821.147 58.8913C823.579 56.6113 825.555 51.8233 825.555 41.7913C825.555 33.8113 821.603 20.9673 811.571 20.9673ZM866.642 17.0913C870.898 17.0913 874.926 18.4593 877.89 19.1433C878.346 19.2193 878.878 20.4353 878.878 21.2713C878.878 22.1833 879.41 26.3633 879.41 27.5033C879.41 30.0873 878.194 31.1513 877.13 31.1513C876.294 31.1513 875.61 29.8593 875.382 29.2513C873.71 24.6913 869.758 20.5873 865.426 20.5873C862.234 20.5873 859.346 23.5513 859.346 26.4393C859.346 29.8593 861.854 32.3673 866.186 34.5713C875.762 39.4353 881.386 43.6913 881.386 50.9113C881.386 57.1433 877.13 60.6393 874.394 62.3113C871.43 64.0593 866.414 65.3513 862.918 65.3513C856.458 65.3513 852.734 63.9833 850.986 63.2993C850.454 63.0713 849.238 62.3873 848.858 61.5513C847.566 58.8153 847.338 54.8633 847.338 53.0393C847.338 51.5953 848.098 49.7713 849.314 49.7713C850.15 49.7713 851.138 50.6833 852.202 52.6593C855.014 57.8273 859.194 61.5513 863.906 61.5513C866.642 61.5513 870.062 59.6513 870.062 56.1553C870.062 53.8753 870.214 51.3673 862.462 47.1873C852.506 41.8673 848.63 37.7633 848.63 30.6953C848.63 25.7553 852.126 21.7273 855.774 19.6753C858.662 18.0793 862.31 17.0913 866.642 17.0913ZM894.742 47.3393V29.7833C894.742 23.3993 894.438 22.5633 890.334 21.6513C889.042 21.3473 888.282 20.4353 888.282 19.7513C888.282 18.6113 890.106 18.2313 890.866 18.2313C892.31 18.2313 897.098 18.5353 900.442 18.5353C905.002 18.5353 908.726 18.3073 910.93 18.3073C912.07 18.3073 913.286 18.9153 913.286 19.9033C913.286 20.8153 911.994 21.4233 911.386 21.5753C907.662 22.4113 907.434 23.3993 907.13 27.3513C906.902 30.6193 906.826 37.2313 906.826 42.3993C906.826 50.6833 906.978 53.6473 906.978 54.6353C907.13 58.2073 907.51 59.7273 911.31 60.6393C912.754 61.0193 913.742 61.7793 913.742 62.8433C913.742 63.7553 912.07 64.2113 911.158 64.2113C910.398 64.2113 903.026 63.9833 900.442 63.9833C897.782 63.9833 892.234 64.2873 890.866 64.2873C889.878 64.2873 888.282 64.0593 888.282 62.8433C888.282 62.0073 889.498 61.0193 890.562 60.7153C893.602 59.7273 894.058 58.8153 894.438 56.5353C894.666 54.9393 894.742 53.5713 894.742 47.3393ZM938.782 17.0913C943.038 17.0913 947.066 18.4593 950.03 19.1433C950.486 19.2193 951.018 20.4353 951.018 21.2713C951.018 22.1833 951.55 26.3633 951.55 27.5033C951.55 30.0873 950.334 31.1513 949.27 31.1513C948.434 31.1513 947.75 29.8593 947.522 29.2513C945.85 24.6913 941.898 20.5873 937.566 20.5873C934.374 20.5873 931.486 23.5513 931.486 26.4393C931.486 29.8593 933.994 32.3673 938.326 34.5713C947.902 39.4353 953.526 43.6913 953.526 50.9113C953.526 57.1433 949.27 60.6393 946.534 62.3113C943.57 64.0593 938.554 65.3513 935.058 65.3513C928.598 65.3513 924.874 63.9833 923.126 63.2993C922.594 63.0713 921.378 62.3873 920.998 61.5513C919.706 58.8153 919.478 54.8633 919.478 53.0393C919.478 51.5953 920.238 49.7713 921.454 49.7713C922.29 49.7713 923.278 50.6833 924.342 52.6593C927.154 57.8273 931.334 61.5513 936.046 61.5513C938.782 61.5513 942.202 59.6513 942.202 56.1553C942.202 53.8753 942.354 51.3673 934.602 47.1873C924.646 41.8673 920.77 37.7633 920.77 30.6953C920.77 25.7553 924.266 21.7273 927.914 19.6753C930.802 18.0793 934.45 17.0913 938.782 17.0913Z" fill="white"/>
<path d="M221.2 88.1733C242.913 88.1733 257.528 102.788 257.528 121.474C257.528 134.522 249.803 144.753 239.99 150.181C235.502 152.686 228.194 154.565 221.513 154.565C199.487 154.565 185.081 139.533 185.081 121.474C185.081 113.436 188.109 105.502 194.581 99.0298C201.366 92.2445 211.388 88.1733 221.2 88.1733ZM219.321 93.6015C214.415 93.6015 210.031 97.7771 209.926 97.8815C205.542 102.683 203.663 109.782 203.663 119.595C203.663 133.792 210.135 149.241 224.228 149.241C227.777 149.241 231.952 146.11 232.474 145.692C235.815 142.56 238.529 135.984 238.529 122.204C238.529 111.243 233.101 93.6015 219.321 93.6015ZM284.952 90.2611H301.759C315.225 90.2611 317.522 89.6347 317.94 89.6347C318.879 89.6347 319.923 90.783 319.923 91.7225V101.953C319.923 104.876 318.253 106.546 317 106.546C316.165 106.546 314.912 105.084 314.286 102.892C313.555 100.491 312.094 96.6288 308.44 96.3157C305.517 96.1069 297.375 96.1069 294.139 96.1069C292.99 96.1069 292.26 97.8815 292.155 99.0298C291.842 102.788 291.738 114.375 291.946 117.298C292.051 118.446 292.364 119.073 293.304 119.073C295.496 119.073 299.671 118.864 302.49 118.551C305.83 118.133 306.144 117.298 307.501 114.271C308.023 113.122 309.38 111.035 310.632 111.035C312.094 111.035 312.72 113.018 312.72 114.793C312.72 117.82 312.303 120.534 312.303 122.309C312.303 124.292 312.72 128.677 312.72 129.512C312.72 131.182 311.572 133.061 310.006 133.061C309.171 133.061 308.127 132.017 307.292 130.347C305.622 127.111 305.308 125.962 302.907 125.649C301.759 125.44 300.193 125.232 293.095 125.232C292.677 125.232 292.051 126.693 291.946 127.946C291.738 131.495 291.738 138.385 291.946 140.681C292.364 145.17 293.721 146.423 298.836 147.78C301.55 148.511 302.385 149.763 302.385 150.807C302.385 151.851 300.611 153.208 298.627 153.208C292.051 153.208 287.249 152.686 283.073 152.686C280.881 152.686 277.332 153.104 269.294 153.104C267.519 153.104 265.953 152.269 265.953 150.912C265.953 149.763 267.206 148.511 269.294 147.989C273.261 147.049 274.722 145.17 274.931 142.352C275.244 139.22 275.348 136.088 275.348 122.204C275.348 106.546 275.348 104.249 275.14 100.596C274.931 97.2552 273.574 96.1069 269.607 94.9586C267.728 94.4367 266.162 93.8103 266.162 92.0357C266.162 90.5742 268.876 89.9479 270.025 89.9479C278.167 90.0523 280.881 90.2611 284.952 90.2611ZM382.33 89.5303C392.352 89.5303 402.686 91.7225 410.411 98.1947C419.18 105.606 420.955 114.897 420.955 121.369C420.955 137.341 410.307 145.588 404.67 148.719C397.258 152.686 389.429 153.521 381.704 153.521C377.424 153.521 366.045 152.686 362.705 152.686C359.364 152.686 354.667 152.686 349.656 153.104C348.821 153.208 347.986 152.477 347.986 151.747C347.986 150.598 349.552 148.093 352.162 147.362C355.502 146.423 357.277 146.736 358.112 142.038C358.843 137.967 358.843 132.748 358.843 118.968C358.843 104.667 359.051 102.892 358.321 99.2386C358.112 98.0903 357.903 96.5245 352.997 95.4806C350.491 94.9586 349.03 93.8103 349.03 92.3489C349.03 90.783 350.7 90.1567 353.727 90.1567L360.93 90.2611C364.584 90.3654 375.023 89.5303 382.33 89.5303ZM382.33 95.063C381.495 95.063 378.05 95.4806 377.32 95.8981C376.902 96.1069 375.858 98.0903 375.858 98.5079C375.649 102.057 375.232 106.546 375.232 114.375V121.891C375.232 135.253 375.649 136.923 375.962 140.055C376.171 142.247 377.32 144.439 378.572 145.483C379.721 146.423 383.479 148.198 384.836 148.198C385.984 148.198 391.621 146.945 396.214 142.56C400.912 138.072 402.895 129.303 402.895 122.309C402.895 114.688 400.912 106.859 395.588 101.64C390.995 97.0464 385.671 95.063 382.33 95.063ZM452.856 90.2611H463.608C473.108 90.2611 474.569 90.2611 476.97 89.7391C478.119 89.5303 478.849 90.1567 479.163 90.6786C479.789 91.7225 480.624 99.6562 480.624 101.953C480.624 104.667 479.371 105.293 478.745 105.293C476.866 105.293 475.822 104.145 474.569 101.326C472.586 97.0464 471.125 96.3157 470.289 96.3157C464.339 96.3157 458.598 96.6288 457.136 96.6288C456.614 96.6288 455.779 97.7771 455.779 98.1947C455.675 100.178 455.466 107.694 455.466 114.897C455.466 116.567 455.779 117.611 456.301 117.716C457.449 118.029 461.103 117.924 462.982 117.82C467.68 117.507 469.141 115.837 470.289 113.227C470.916 111.661 471.96 110.408 473.108 110.408C474.569 110.408 475.509 111.87 475.3 114.897C475.196 116.15 475.091 118.551 475.091 120.952C475.091 123.353 475.3 125.754 475.405 127.32C475.613 130.138 474.047 131.391 473.004 131.391C472.064 131.391 470.707 130.242 469.768 128.155C468.724 125.754 468.41 125.023 466.218 124.814C461.938 124.501 461.312 124.292 456.614 124.292C456.092 124.292 455.466 125.754 455.466 128.363C455.466 131.182 455.779 137.237 455.884 139.533C456.092 142.56 456.51 143.709 456.823 144.126C457.867 145.692 462.878 147.049 467.888 147.049C469.559 147.049 472.482 146.736 474.883 145.379C476.866 144.335 477.91 143.082 480.207 139.951C481.877 137.654 483.025 135.149 484.695 135.149C486.679 135.149 487.305 138.176 486.887 140.368C486.261 143.396 483.756 150.39 483.338 151.329C483.025 152.06 480.833 153.208 480.207 153.208C478.849 153.208 474.674 152.686 455.675 152.686C449.098 152.686 435.945 153.104 431.456 153.104C429.264 153.104 427.698 152.269 427.698 151.434C427.698 150.181 428.533 148.719 430.726 148.093C437.929 146.11 438.137 143.709 438.346 141.83C438.764 136.819 438.868 134.627 438.868 118.551C438.868 102.475 438.659 101.848 438.346 99.9693C437.824 96.8376 436.467 95.6893 432.291 94.6454C429.577 94.0191 429.16 92.5576 429.16 91.8269C429.16 90.4698 431.248 89.7391 432.605 89.7391C434.379 89.7391 445.967 90.2611 452.856 90.2611ZM519.425 90.2611H530.178C539.677 90.2611 541.138 90.2611 543.539 89.7391C544.688 89.5303 545.418 90.1567 545.732 90.6786C546.358 91.7225 547.193 99.6562 547.193 101.953C547.193 104.667 545.94 105.293 545.314 105.293C543.435 105.293 542.391 104.145 541.138 101.326C539.155 97.0464 537.694 96.3157 536.858 96.3157C530.908 96.3157 525.167 96.6288 523.705 96.6288C523.183 96.6288 522.348 97.7771 522.348 98.1947C522.244 100.178 522.035 107.694 522.035 114.897C522.035 116.567 522.348 117.611 522.87 117.716C524.019 118.029 527.672 117.924 529.551 117.82C534.249 117.507 535.71 115.837 536.858 113.227C537.485 111.661 538.529 110.408 539.677 110.408C541.138 110.408 542.078 111.87 541.869 114.897C541.765 116.15 541.66 118.551 541.66 120.952C541.66 123.353 541.869 125.754 541.974 127.32C542.182 130.138 540.617 131.391 539.573 131.391C538.633 131.391 537.276 130.242 536.337 128.155C535.293 125.754 534.979 125.023 532.787 124.814C528.507 124.501 527.881 124.292 523.183 124.292C522.661 124.292 522.035 125.754 522.035 128.363C522.035 131.182 522.348 137.237 522.453 139.533C522.661 142.56 523.079 143.709 523.392 144.126C524.436 145.692 529.447 147.049 534.458 147.049C536.128 147.049 539.051 146.736 541.452 145.379C543.435 144.335 544.479 143.082 546.776 139.951C548.446 137.654 549.594 135.149 551.264 135.149C553.248 135.149 553.874 138.176 553.456 140.368C552.83 143.396 550.325 150.39 549.907 151.329C549.594 152.06 547.402 153.208 546.776 153.208C545.418 153.208 541.243 152.686 522.244 152.686C515.667 152.686 502.514 153.104 498.025 153.104C495.833 153.104 494.267 152.269 494.267 151.434C494.267 150.181 495.102 148.719 497.295 148.093C504.498 146.11 504.706 143.709 504.915 141.83C505.333 136.819 505.437 134.627 505.437 118.551C505.437 102.475 505.228 101.848 504.915 99.9693C504.393 96.8376 503.036 95.6893 498.861 94.6454C496.146 94.0191 495.729 92.5576 495.729 91.8269C495.729 90.4698 497.817 89.7391 499.174 89.7391C500.948 89.7391 512.536 90.2611 519.425 90.2611ZM603.427 110.095C603.427 104.249 601.027 99.9693 600.505 99.2386C600.087 98.7166 596.329 95.2718 592.467 95.2718C591.318 95.2718 589.961 95.6893 589.544 96.1069C589.23 96.4201 588.813 97.0464 588.813 97.5684C588.5 101.744 588.395 115.106 588.395 119.386C588.395 129.825 588.5 137.863 588.5 138.907C588.5 144.753 589.857 146.318 595.494 147.884C597.999 148.615 599.043 149.346 599.043 150.807C599.043 151.747 597.582 152.999 594.867 152.999C591.736 152.999 587.143 152.686 582.863 152.686C579.105 152.686 569.292 153.313 565.847 153.313C563.237 153.313 561.463 152.373 561.463 151.016C561.463 149.659 562.507 148.719 565.534 147.78C570.023 146.318 570.753 144.544 571.067 141.83C571.275 139.742 572.006 126.902 572.006 112.392C572.006 107.903 571.902 102.892 571.589 100.491C571.38 98.0903 570.545 96.2113 565.951 95.1674C564.281 94.7498 562.298 93.184 562.298 92.1401C562.298 90.2611 563.759 89.8435 565.534 89.8435C570.023 89.8435 572.946 90.2611 578.165 90.2611C581.714 90.2611 587.247 89.7391 595.389 89.7391C604.471 89.7391 611.152 92.5576 614.702 96.2113C617.207 98.821 620.339 104.562 620.339 109.991C620.339 118.133 615.537 123.875 613.449 125.649C609.169 129.199 604.68 130.764 599.878 130.764C597.164 130.764 595.598 130.347 594.032 129.303C592.884 128.572 591.945 127.528 591.945 127.006C591.945 125.858 592.362 125.127 593.197 125.023C593.615 124.919 594.137 124.919 594.659 124.814C597.164 124.188 603.427 122.622 603.427 110.095ZM224.34 170.136C232.74 170.136 240.69 172.836 246.54 174.186C247.44 174.336 248.49 176.736 248.49 178.386C248.49 180.186 249.54 188.436 249.54 190.686C249.54 195.786 247.14 197.886 245.04 197.886C243.39 197.886 242.04 195.336 241.59 194.136C238.29 185.136 230.49 177.036 221.94 177.036C215.64 177.036 209.94 182.886 209.94 188.586C209.94 195.336 214.89 200.286 223.44 204.636C242.34 214.236 253.44 222.636 253.44 236.886C253.44 249.186 245.04 256.086 239.64 259.386C233.79 262.836 223.89 265.386 216.99 265.386C204.24 265.386 196.89 262.686 193.44 261.336C192.39 260.886 189.99 259.536 189.24 257.886C186.69 252.486 186.24 244.686 186.24 241.086C186.24 238.236 187.74 234.636 190.14 234.636C191.79 234.636 193.74 236.436 195.84 240.336C201.39 250.536 209.64 257.886 218.94 257.886C224.34 257.886 231.09 254.136 231.09 247.236C231.09 242.736 231.39 237.786 216.09 229.536C196.44 219.036 188.79 210.936 188.79 196.986C188.79 187.236 195.69 179.286 202.89 175.236C208.59 172.086 215.79 170.136 224.34 170.136ZM299.9 172.986H315.35C329 172.986 331.1 172.986 334.55 172.236C336.2 171.936 337.25 172.836 337.7 173.586C338.6 175.086 339.8 186.486 339.8 189.786C339.8 193.686 338 194.586 337.1 194.586C334.4 194.586 332.9 192.936 331.1 188.886C328.25 182.736 326.15 181.686 324.95 181.686C316.4 181.686 308.15 182.136 306.05 182.136C305.3 182.136 304.1 183.786 304.1 184.386C303.95 187.236 303.65 198.036 303.65 208.386C303.65 210.786 304.1 212.286 304.85 212.436C306.5 212.886 311.75 212.736 314.45 212.586C321.2 212.136 323.3 209.736 324.95 205.986C325.85 203.736 327.35 201.936 329 201.936C331.1 201.936 332.45 204.036 332.15 208.386C332 210.186 331.85 213.636 331.85 217.086C331.85 220.536 332.15 223.986 332.3 226.236C332.6 230.286 330.35 232.086 328.85 232.086C327.5 232.086 325.55 230.436 324.2 227.436C322.7 223.986 322.25 222.936 319.1 222.636C312.95 222.186 312.05 221.886 305.3 221.886C304.55 221.886 303.65 223.986 303.65 227.736C303.65 231.786 304.1 240.486 304.25 243.786C304.55 248.136 305.15 249.786 305.6 250.386C307.1 252.636 314.3 254.586 321.5 254.586C323.9 254.586 328.1 254.136 331.55 252.186C334.4 250.686 335.9 248.886 339.2 244.386C341.6 241.086 343.25 237.486 345.65 237.486C348.5 237.486 349.4 241.836 348.8 244.986C347.9 249.336 344.3 259.386 343.7 260.736C343.25 261.786 340.1 263.436 339.2 263.436C337.25 263.436 331.25 262.686 303.95 262.686C294.5 262.686 275.6 263.286 269.15 263.286C266 263.286 263.75 262.086 263.75 260.886C263.75 259.086 264.95 256.986 268.1 256.086C278.45 253.236 278.75 249.786 279.05 247.086C279.65 239.886 279.8 236.736 279.8 213.636C279.8 190.536 279.5 189.636 279.05 186.936C278.3 182.436 276.35 180.786 270.35 179.286C266.45 178.386 265.85 176.286 265.85 175.236C265.85 173.286 268.85 172.236 270.8 172.236C273.35 172.236 290 172.986 299.9 172.986ZM416.676 169.986C419.376 169.986 420.276 174.486 424.176 184.536C432.276 206.286 444.576 235.386 448.626 244.536C452.376 252.936 454.476 253.086 460.326 255.486C463.776 256.986 464.976 259.236 464.976 260.886C464.976 262.686 462.576 263.436 459.726 263.436C455.076 263.436 443.376 262.686 436.026 262.686C429.576 262.686 425.526 263.436 420.126 263.436C415.926 263.436 414.576 261.636 414.576 260.586C414.576 258.786 416.376 256.686 419.226 255.486C424.476 253.236 424.476 249.936 423.726 247.386C422.376 243.636 422.226 242.886 420.276 238.386C420.126 237.936 418.776 236.286 416.376 235.986C413.826 235.686 395.076 235.386 391.626 236.136C390.726 236.286 389.526 237.786 389.226 238.386C388.026 241.386 386.826 247.086 386.826 249.036C386.826 251.736 388.776 253.986 393.576 255.636C395.676 256.386 397.926 257.586 397.926 259.536C397.926 260.286 395.826 263.136 391.926 263.136C390.126 263.136 386.826 262.686 382.026 262.686C376.476 262.686 370.326 263.436 364.026 263.436C360.726 263.436 358.476 261.936 358.476 260.136C358.476 258.636 359.676 257.136 362.976 255.786C368.526 253.536 371.526 253.086 376.326 243.036C380.076 235.086 390.726 208.086 399.726 184.386C399.876 183.936 400.176 182.886 400.176 181.236C400.176 180.636 400.926 179.586 401.526 179.136C403.476 177.936 410.976 172.986 412.626 171.636C413.526 170.736 415.926 169.986 416.676 169.986ZM413.676 225.936C414.426 225.936 415.326 224.586 415.176 224.136C412.926 216.786 406.626 200.736 405.276 198.336C404.676 197.286 403.776 197.736 403.326 198.336C400.926 203.286 394.476 221.736 394.026 223.986C393.876 224.886 394.626 226.086 395.676 226.086C397.626 226.086 411.576 226.086 413.676 225.936ZM561.432 169.986C568.332 169.986 575.232 171.486 579.282 172.536C583.032 173.586 588.432 175.236 589.632 175.236C590.382 175.236 592.182 177.186 592.182 178.086C592.182 183.486 593.682 191.136 593.682 194.886C593.682 199.086 590.832 201.486 588.882 201.486C587.682 201.486 586.932 200.286 585.732 196.986C583.482 190.836 582.582 187.536 577.032 183.486C572.382 180.036 567.132 177.486 560.682 177.486C554.232 177.486 545.982 181.236 541.032 187.236C534.582 194.886 531.582 206.286 531.582 215.286C531.582 226.686 535.332 236.886 539.682 243.036C545.082 250.686 554.982 256.236 563.982 256.236C567.732 256.236 574.482 253.836 577.482 252.186C578.682 251.436 581.382 248.586 585.132 242.586C587.982 238.086 589.782 236.286 591.282 236.286C594.132 236.286 594.432 239.136 594.282 242.286C594.282 243.636 591.432 253.686 591.432 256.536C591.432 256.986 590.232 259.086 589.782 259.386C584.532 261.936 571.182 265.386 560.832 265.386C544.182 265.386 526.482 260.436 515.832 248.736C509.232 241.536 504.582 231.636 504.582 218.286C504.582 202.236 511.782 188.736 524.982 179.586C531.732 174.936 545.832 169.986 561.432 169.986ZM663.123 169.986C694.323 169.986 715.323 190.986 715.323 217.836C715.323 236.586 704.223 251.286 690.123 259.086C683.673 262.686 673.173 265.386 663.573 265.386C631.923 265.386 611.223 243.786 611.223 217.836C611.223 206.286 615.573 194.886 624.873 185.586C634.623 175.836 649.023 169.986 663.123 169.986ZM660.423 177.786C653.373 177.786 647.073 183.786 646.923 183.936C640.623 190.836 637.923 201.036 637.923 215.136C637.923 235.536 647.223 257.736 667.473 257.736C672.573 257.736 678.573 253.236 679.323 252.636C684.123 248.136 688.023 238.686 688.023 218.886C688.023 203.136 680.223 177.786 660.423 177.786ZM809.779 196.536C809.779 202.236 806.929 208.686 803.029 211.986C800.779 213.936 798.679 214.386 795.529 216.186C794.779 216.636 795.529 219.486 795.979 220.386C799.279 226.986 806.029 238.086 811.729 245.286C816.979 251.886 821.629 254.436 826.279 256.236C827.779 256.836 829.729 258.186 829.729 259.536C829.729 263.436 824.929 264.636 820.879 264.636C808.879 264.636 797.329 263.436 786.829 249.786C781.429 242.736 777.379 235.236 773.179 228.486C770.779 224.586 768.679 223.836 766.279 223.836C765.229 223.836 765.079 225.636 765.079 226.086C765.079 238.086 765.079 241.686 765.529 246.936C765.979 252.336 767.479 252.486 773.479 255.336C776.179 256.686 777.979 258.336 777.979 259.536C777.979 261.186 774.829 263.286 772.279 263.286C768.529 263.286 756.979 262.686 751.729 262.686C747.079 262.686 740.029 263.286 734.479 263.286C730.879 263.286 728.779 261.486 728.779 259.986C728.779 257.886 730.879 256.386 733.729 255.636C739.879 253.836 741.379 252.636 741.679 245.136C741.829 239.736 741.829 237.036 741.829 210.036C741.829 191.586 741.379 190.686 741.079 187.536C740.779 184.536 739.429 181.536 733.729 180.486C730.879 179.886 729.079 177.636 729.079 176.586C729.079 174.036 732.079 172.686 735.679 172.686C743.329 172.686 745.879 172.986 747.829 172.986C757.729 172.986 765.979 172.086 776.479 172.086C789.679 172.086 796.579 174.936 800.179 177.636C806.629 182.586 809.779 188.586 809.779 196.536ZM786.679 199.086C786.679 189.636 780.229 180.336 769.429 180.336C768.829 180.336 766.579 180.936 765.679 181.536C765.229 181.836 764.779 182.586 764.779 183.936C764.779 188.136 765.079 202.086 765.079 212.136C765.079 212.736 765.679 214.536 766.279 214.836C768.379 215.736 770.329 216.186 772.879 216.186C776.179 216.186 781.579 212.736 782.479 212.136C783.379 211.536 786.679 206.286 786.679 199.086ZM891.725 169.986C894.425 169.986 895.325 174.486 899.225 184.536C907.325 206.286 919.625 235.386 923.675 244.536C927.425 252.936 929.525 253.086 935.375 255.486C938.825 256.986 940.025 259.236 940.025 260.886C940.025 262.686 937.625 263.436 934.775 263.436C930.125 263.436 918.425 262.686 911.075 262.686C904.625 262.686 900.575 263.436 895.175 263.436C890.975 263.436 889.625 261.636 889.625 260.586C889.625 258.786 891.425 256.686 894.275 255.486C899.525 253.236 899.525 249.936 898.775 247.386C897.425 243.636 897.275 242.886 895.325 238.386C895.175 237.936 893.825 236.286 891.425 235.986C888.875 235.686 870.125 235.386 866.675 236.136C865.775 236.286 864.575 237.786 864.275 238.386C863.075 241.386 861.875 247.086 861.875 249.036C861.875 251.736 863.825 253.986 868.625 255.636C870.725 256.386 872.975 257.586 872.975 259.536C872.975 260.286 870.875 263.136 866.975 263.136C865.175 263.136 861.875 262.686 857.075 262.686C851.525 262.686 845.375 263.436 839.075 263.436C835.775 263.436 833.525 261.936 833.525 260.136C833.525 258.636 834.725 257.136 838.025 255.786C843.575 253.536 846.575 253.086 851.375 243.036C855.125 235.086 865.775 208.086 874.775 184.386C874.925 183.936 875.225 182.886 875.225 181.236C875.225 180.636 875.975 179.586 876.575 179.136C878.525 177.936 886.025 172.986 887.675 171.636C888.575 170.736 890.975 169.986 891.725 169.986ZM888.725 225.936C889.475 225.936 890.375 224.586 890.225 224.136C887.975 216.786 881.675 200.736 880.325 198.336C879.725 197.286 878.825 197.736 878.375 198.336C875.975 203.286 869.525 221.736 869.075 223.986C868.925 224.886 869.675 226.086 870.725 226.086C872.675 226.086 886.625 226.086 888.725 225.936ZM947.913 175.686C947.913 173.286 950.763 172.686 952.713 172.686C953.463 172.686 966.513 172.986 972.513 172.986C978.513 172.986 990.213 172.536 993.213 172.536C996.363 172.536 998.163 174.036 998.163 175.836C998.163 177.636 996.213 179.136 993.063 179.736C984.663 181.536 984.213 184.836 984.063 187.986C983.763 191.436 983.163 199.836 983.163 212.736C983.163 228.486 983.613 242.886 983.913 247.986C984.063 250.236 987.663 253.386 993.363 254.736C995.463 255.186 1000.41 255.336 1005.81 254.286C1010.31 253.386 1017.81 244.536 1020.96 238.836C1022.46 235.986 1024.11 234.936 1024.56 234.936C1027.26 234.936 1029.06 238.086 1028.31 240.786C1027.26 244.536 1024.41 256.386 1023.36 259.386C1022.46 261.636 1019.76 263.136 1016.76 263.136C1011.51 263.136 995.613 262.686 977.013 262.686C966.813 262.686 951.813 263.436 948.513 263.436C945.213 263.436 942.663 261.786 942.663 259.686C942.663 257.586 944.913 256.536 947.463 256.086C957.513 254.136 958.563 250.536 958.863 247.086C959.163 242.586 959.463 236.286 959.463 218.436C959.463 191.286 959.613 191.586 959.313 187.536C958.863 182.586 957.213 181.836 952.263 179.736C949.113 178.386 947.913 177.336 947.913 175.686Z" fill="white"/>
</svg>
