<svg width="1363" height="271" viewBox="0 0 1363 271" fill="none" xmlns="http://www.w3.org/2000/svg">
<path d="M62.4239 181.561V179.061H59.9239V181.561H62.4239ZM77.4128 181.561H79.9128V179.061H77.4128V181.561ZM77.4128 230.104V232.604H79.9128V230.104H77.4128ZM75.3618 230.104L73.7773 232.038L74.4684 232.604H75.3618V230.104ZM54.7454 214.852L53.3269 216.911L53.3287 216.912L54.7454 214.852ZM19.3505 204.597L21.0384 206.441L21.0468 206.433L21.0552 206.425L19.3505 204.597ZM25.3986 229.157V231.657H31.2254L27.2104 227.435L25.3986 229.157ZM9.98904 229.157L7.89174 230.518L8.63084 231.657H9.98904V229.157ZM8.56894 191.554L10.4288 193.224L10.4357 193.216L8.56894 191.554ZM62.4239 205.228L60.8747 207.19L64.9239 210.387V205.228H62.4239ZM62.4239 184.061H77.4128V179.061H62.4239V184.061ZM74.9129 181.561V230.104H79.9128V181.561H74.9129ZM77.4128 227.604H75.3618V232.604H77.4128V227.604ZM76.9462 228.17C71.4399 223.659 64.5069 218.532 56.1621 212.792L53.3287 216.912C61.6032 222.603 68.4145 227.644 73.7773 232.038L76.9462 228.17ZM56.1639 212.794C47.8351 207.054 41.7205 203.287 37.9566 201.669L35.9815 206.262C39.2299 207.659 44.9662 211.15 53.3269 216.911L56.1639 212.794ZM37.9566 201.669C34.1873 200.048 30.4509 199.204 26.766 199.204V204.204C29.6729 204.204 32.7384 204.868 35.9815 206.262L37.9566 201.669ZM26.766 199.204C23.2699 199.204 20.1857 200.4 17.6458 202.768L21.0552 206.425C22.6525 204.936 24.512 204.204 26.766 204.204V199.204ZM17.6626 202.752C15.0992 205.099 13.7475 208.055 13.7475 211.486H18.7475C18.7475 209.518 19.4645 207.881 21.0384 206.441L17.6626 202.752ZM13.7475 211.486C13.7475 217.799 17.3152 224.284 23.5869 230.88L27.2104 227.435C21.2806 221.198 18.7475 215.902 18.7475 211.486H13.7475ZM25.3986 226.657H9.98904V231.657H25.3986V226.657ZM12.0862 227.797C7.60484 220.889 5.49414 214.502 5.49414 208.594H0.494141C0.494141 215.728 3.04664 223.05 7.89174 230.518L12.0862 227.797ZM5.49414 208.594C5.49414 201.799 7.23544 196.779 10.4288 193.224L6.70914 189.883C2.46954 194.603 0.494141 200.943 0.494141 208.594H5.49414ZM10.4357 193.216C13.5999 189.664 17.9738 187.795 23.8734 187.795V182.795C16.8002 182.795 10.9711 185.098 6.70224 189.891L10.4357 193.216ZM23.8734 187.795C27.7334 187.795 32.747 189.258 39.0158 192.499C45.2493 195.722 52.5313 200.602 60.8747 207.19L63.9732 203.266C55.4869 196.565 47.929 191.479 41.3123 188.058C34.7309 184.655 28.8841 182.795 23.8734 182.795V187.795ZM64.9239 205.228V181.561H59.9239V205.228H64.9239ZM13.0393 128.495L14.4007 130.592L14.4083 130.587L13.0393 128.495ZM68.3669 165.152L69.7486 167.236L69.7562 167.23L68.3669 165.152ZM12.9341 165.047L11.5248 167.112L11.5272 167.113L12.9341 165.047ZM59.2684 140.276L60.1487 137.936L60.1412 137.933L59.2684 140.276ZM21.8749 140.276L22.7659 142.611L22.7805 142.606L22.795 142.6L21.8749 140.276ZM21.7697 153.371L20.7996 155.675L20.8117 155.68L21.7697 153.371ZM59.2158 153.371L60.1011 155.709L60.1148 155.704L60.1285 155.699L59.2158 153.371ZM5.49414 146.692C5.49414 139.781 8.39204 134.493 14.4007 130.592L11.678 126.398C4.29324 131.192 0.494141 138.036 0.494141 146.692H5.49414ZM14.4083 130.587C20.5568 126.563 29.1187 124.421 40.335 124.421V119.421C28.5507 119.421 18.9155 121.661 11.6703 126.403L14.4083 130.587ZM40.335 124.421C52.0416 124.421 60.8344 126.505 66.9764 130.396L69.6522 126.173C62.4006 121.579 52.5405 119.421 40.335 119.421V124.421ZM66.9764 130.396C72.954 134.183 75.8596 139.454 75.8596 146.482H80.8598C80.8598 137.731 77.0678 130.871 69.6522 126.173L66.9764 130.396ZM75.8596 146.482C75.8596 153.639 72.9473 159.083 66.9777 163.074L69.7562 167.23C77.1098 162.315 80.8598 155.313 80.8598 146.482H75.8596ZM66.9852 163.069C60.8843 167.114 52.2123 169.279 40.7031 169.279V174.279C52.7555 174.279 62.526 172.025 69.7486 167.236L66.9852 163.069ZM40.7031 169.279C29.0501 169.279 20.3594 167.078 14.3411 162.98L11.5272 167.113C18.6921 171.992 28.5141 174.279 40.7031 174.279V169.279ZM14.3435 162.982C8.36664 158.902 5.49414 153.541 5.49414 146.692H0.494141C0.494141 155.271 4.24834 162.145 11.5248 167.112L14.3435 162.982ZM67.0802 146.692C67.0802 144.675 66.4581 142.831 65.178 141.285C63.9323 139.78 62.1851 138.702 60.1487 137.936L58.388 142.616C59.8929 143.182 60.8016 143.839 61.3266 144.473C61.8171 145.066 62.0802 145.763 62.0802 146.692H67.0802ZM60.1412 137.933C56.0898 136.424 48.9665 135.777 39.1779 135.777V140.777C49.024 140.777 55.2944 141.463 58.3956 142.618L60.1412 137.933ZM39.1779 135.777C30.9906 135.777 24.8006 136.429 20.9548 137.951L22.795 142.6C25.6811 141.458 31.0265 140.777 39.1779 140.777V135.777ZM20.9839 137.94C18.9904 138.7 17.2861 139.796 16.0797 141.339C14.849 142.912 14.2734 144.776 14.2734 146.797H19.2734C19.2734 145.768 19.5481 145.02 20.0179 144.419C20.512 143.788 21.3584 143.148 22.7659 142.611L20.9839 137.94ZM14.2734 146.797C14.2734 148.786 14.8408 150.621 16.0321 152.189C17.2001 153.725 18.8534 154.856 20.7996 155.675L22.7399 151.067C21.3552 150.484 20.5103 149.818 20.0129 149.163C19.5387 148.539 19.2734 147.789 19.2734 146.797H14.2734ZM20.8117 155.68C22.7975 156.504 25.5479 157.047 28.8997 157.396C32.2947 157.75 36.4816 157.922 41.4394 157.922V152.922C36.5799 152.922 32.5799 152.753 29.4183 152.423C26.2135 152.089 24.0378 151.606 22.7278 151.062L20.8117 155.68ZM41.4394 157.922C49.7171 157.922 56.0353 157.249 60.1011 155.709L58.3305 151.033C55.1735 152.229 49.6408 152.922 41.4394 152.922V157.922ZM60.1285 155.699C62.1877 154.891 63.9428 153.766 65.1883 152.215C66.4641 150.627 67.0802 148.745 67.0802 146.692H62.0802C62.0802 147.69 61.8023 148.446 61.29 149.084C60.7474 149.76 59.8202 150.449 58.3031 151.044L60.1285 155.699ZM62.4239 62.7014V60.2014H59.9239V62.7014H62.4239ZM77.4128 62.7014H79.9128V60.2014H77.4128V62.7014ZM77.4128 111.244V113.744H79.9128V111.244H77.4128ZM75.3618 111.244L73.7773 113.178L74.4684 113.744H75.3618V111.244ZM54.7454 95.993L53.3269 98.0511L53.3287 98.0521L54.7454 95.993ZM19.3505 85.7371L21.0384 87.5811L21.0468 87.5731L21.0552 87.5661L19.3505 85.7371ZM25.3986 110.298V112.798H31.2254L27.2104 108.575L25.3986 110.298ZM9.98904 110.298L7.89174 111.658L8.63084 112.798H9.98904V110.298ZM8.56894 72.694L10.4288 74.3647L10.4357 74.3568L8.56894 72.694ZM62.4239 86.368L60.8747 88.3301L64.9239 91.5271V86.368H62.4239ZM62.4239 65.2014H77.4128V60.2014H62.4239V65.2014ZM74.9129 62.7014V111.244H79.9128V62.7014H74.9129ZM77.4128 108.744H75.3618V113.744H77.4128V108.744ZM76.9462 109.311C71.4399 104.799 64.5069 99.6721 56.1621 93.9331L53.3287 98.0521C61.6032 103.743 68.4145 108.784 73.7773 113.178L76.9462 109.311ZM56.1639 93.9341C47.8351 88.1951 41.7205 84.4281 37.9566 82.8091L35.9815 87.4021C39.2299 88.7991 44.9662 92.2901 53.3269 98.0511L56.1639 93.9341ZM37.9566 82.8091C34.1873 81.1881 30.4509 80.3441 26.766 80.3441V85.3441C29.6729 85.3441 32.7384 86.0081 35.9815 87.4021L37.9566 82.8091ZM26.766 80.3441C23.2699 80.3441 20.1857 81.5411 17.6458 83.9081L21.0552 87.5661C22.6525 86.0771 24.512 85.3441 26.766 85.3441V80.3441ZM17.6626 83.8931C15.0992 86.2391 13.7475 89.1951 13.7475 92.6271H18.7475C18.7475 90.6581 19.4645 89.0221 21.0384 87.5811L17.6626 83.8931ZM13.7475 92.6271C13.7475 98.9401 17.3152 105.424 23.5869 112.02L27.2104 108.575C21.2806 102.339 18.7475 97.0421 18.7475 92.6271H13.7475ZM25.3986 107.798H9.98904V112.798H25.3986V107.798ZM12.0862 108.937C7.60484 102.03 5.49414 95.6431 5.49414 89.7341H0.494141C0.494141 96.8681 3.04664 104.191 7.89174 111.658L12.0862 108.937ZM5.49414 89.7341C5.49414 82.9391 7.23544 77.9197 10.4288 74.3647L6.70914 71.0234C2.46954 75.743 0.494141 82.0841 0.494141 89.7341H5.49414ZM10.4357 74.3568C13.5999 70.8046 17.9738 68.9355 23.8734 68.9355V63.9355C16.8002 63.9355 10.9711 66.2386 6.70224 71.0312L10.4357 74.3568ZM23.8734 68.9355C27.7334 68.9355 32.747 70.3981 39.0158 73.6394C45.2493 76.8624 52.5313 81.7421 60.8747 88.3301L63.9732 84.4061C55.4869 77.7054 47.929 72.6191 41.3123 69.1979C34.7309 65.795 28.8841 63.9355 23.8734 63.9355V68.9355ZM64.9239 86.368V62.7014H59.9239V86.368H64.9239ZM45.752 35.7739V38.2739H48.154L48.25 35.8738L45.752 35.7739ZM32.8142 35.7739H30.3142V38.2739H32.8142V35.7739ZM30.2372 28.4635L28.4015 30.1607L28.4096 30.1694L28.4177 30.178L30.2372 28.4635ZM19.1401 49.5532V52.0532H23.1462L21.3858 48.4546L19.1401 49.5532ZM6.20234 49.5532L3.91304 50.5579L4.56934 52.0532H6.20234V49.5532ZM8.04304 15.7887L10.0199 17.3191L10.0275 17.3091L8.04304 15.7887ZM37.9683 20.1539L35.7784 21.3599L38.3507 26.0305L40.296 21.0659L37.9683 20.1539ZM72.5218 14.3687L74.4528 12.7809L74.4458 12.7724L72.5218 14.3687ZM74.2047 51.394V53.894H75.7454L76.4379 52.5177L74.2047 51.394ZM59.9521 51.394L57.9064 49.9568L55.1405 53.894H59.9521V51.394ZM63.1077 27.5694L65.0256 25.9659L65.018 25.9567L65.0102 25.9476L63.1077 27.5694ZM48.855 27.4643L50.6691 29.1845L50.6764 29.1767L50.6837 29.1689L48.855 27.4643ZM45.752 33.2739H32.8142V38.2739H45.752V33.2739ZM35.3142 35.7739C35.3142 32.2326 34.3028 29.1327 32.0566 26.749L28.4177 30.178C29.6076 31.4408 30.3142 33.2144 30.3142 35.7739H35.3142ZM32.0728 26.7664C29.9143 24.4316 27.2118 23.1761 24.0838 23.1761V28.1761C25.7242 28.1761 27.124 28.7789 28.4015 30.1607L32.0728 26.7664ZM24.0838 23.1761C20.8514 23.1761 18.1196 24.5164 16.0512 27.0344L19.9149 30.2081C21.0722 28.7992 22.4076 28.1761 24.0838 28.1761V23.1761ZM16.0512 27.0344C14.0053 29.5252 13.0638 32.6082 13.0638 36.0895H18.0638C18.0638 33.5401 18.7351 31.6443 19.9149 30.2081L16.0512 27.0344ZM13.0638 36.0895C13.0638 40.6748 14.3945 45.5418 16.8944 50.6518L21.3858 48.4546C19.1172 43.8174 18.0638 39.7086 18.0638 36.0895H13.0638ZM19.1401 47.0532H6.20234V52.0532H19.1401V47.0532ZM8.49154 48.5486C6.51514 44.0449 5.49414 38.8047 5.49414 32.7761H0.494141C0.494141 39.3698 1.61194 45.3143 3.91304 50.5579L8.49154 48.5486ZM5.49414 32.7761C5.49414 26.2017 7.07534 21.1226 10.0199 17.3191L6.06624 14.2582C2.27904 19.1501 0.494141 25.3959 0.494141 32.7761H5.49414ZM10.0275 17.3091C12.9044 13.554 16.4952 11.7672 20.9808 11.7672V6.76715C14.8778 6.76715 9.84344 9.32796 6.05854 14.2683L10.0275 17.3091ZM20.9808 11.7672C27.2616 11.7672 32.1512 14.7736 35.7784 21.3599L40.1582 18.9478C35.7913 11.0185 29.3559 6.76715 20.9808 6.76715V11.7672ZM40.296 21.0659C41.8348 17.1386 43.9712 14.3641 46.6222 12.5549C49.2731 10.7458 52.634 9.76855 56.8491 9.76855V4.76855C51.8429 4.76855 47.4464 5.93896 43.8037 8.42496C40.1612 10.9108 37.4677 14.5789 35.6406 19.2418L40.296 21.0659ZM56.8491 9.76855C62.6782 9.76855 67.1776 11.8425 70.5977 15.9649L74.4458 12.7724C70.012 7.42806 64.0631 4.76855 56.8491 4.76855V9.76855ZM70.5907 15.9564C74.0169 20.1234 75.8596 25.8519 75.8596 33.4072H80.8598C80.8598 25.0445 78.8108 18.0806 74.4528 12.7809L70.5907 15.9564ZM75.8596 33.4072C75.8596 39.5245 74.5567 45.1325 71.9715 50.2702L76.4379 52.5177C79.3928 46.646 80.8598 40.2628 80.8598 33.4072H75.8596ZM74.2047 48.894H59.9521V53.894H74.2047V48.894ZM61.9977 52.8311C66.0683 47.0369 68.2899 41.3686 68.2899 35.8791H63.2899C63.2899 39.9966 61.6196 44.6715 57.9064 49.9568L61.9977 52.8311ZM68.2899 35.8791C68.2899 32.0256 67.2675 28.6473 65.0256 25.9659L61.1897 29.173C62.5241 30.7691 63.2899 32.9306 63.2899 35.8791H68.2899ZM65.0102 25.9476C62.6996 23.2371 59.6481 21.8613 56.0602 21.8613V26.8613C58.2225 26.8613 59.8693 27.6243 61.2051 29.1913L65.0102 25.9476ZM56.0602 21.8613C52.5047 21.8613 49.4365 23.1742 47.0263 25.7596L50.6837 29.1689C52.1304 27.617 53.8655 26.8613 56.0602 26.8613V21.8613ZM47.041 25.744C44.5986 28.3196 43.4122 31.7206 43.254 35.674L48.25 35.8738C48.3724 32.8149 49.2546 30.6761 50.6691 29.1845L47.041 25.744Z" fill="white"/>
<path d="M130.901 1.23193L130.691 233.262" stroke="white" stroke-width="2" stroke-miterlimit="10" stroke-linecap="round"/>
<path d="M204.47 54.024C204.47 55.228 205.158 56.174 205.76 56.174C220.81 56.174 223.734 56.088 225.368 56.174C225.712 56.174 226.4 54.884 226.4 54.54C226.4 48.692 226.4 43.876 226.056 41.812C225.798 40.264 225.626 39.404 221.928 38.458C218.746 37.598 218.23 36.308 218.23 35.706C218.23 34.846 219.778 33.814 221.584 33.814C225.11 33.814 227.518 34.072 230.786 34.072C234.14 34.072 242.74 33.814 244.46 33.814C246.18 33.814 247.212 34.674 247.212 35.706C247.212 36.652 246.18 37.598 243.944 38.114C241.278 38.716 240.676 40.006 240.418 42.07C240.074 44.564 239.988 51.272 239.988 58.754C239.988 69.418 240.246 72.428 240.418 75.61C240.676 79.738 242.138 80.426 244.804 81.114C247.212 81.716 248.072 82.748 248.072 83.694C248.072 84.812 246.696 85.758 244.804 85.758C243.17 85.758 239.902 85.5 236.72 85.5C232.248 85.5 224.852 85.93 222.272 85.93C220.552 85.93 218.918 85.242 218.918 83.866C218.918 83.006 219.692 82.318 222.358 81.286C225.54 80.082 225.884 78.19 226.142 76.814C226.572 74.148 226.744 67.182 226.4 64.172C226.142 62.022 225.368 61.85 225.282 61.85C218.918 61.85 206.706 62.108 205.502 62.108C204.9 62.108 204.47 63.828 204.47 64.258C204.47 66.58 204.556 74.922 204.642 76.212C204.9 79.136 205.244 80.512 209.544 81.544C210.576 81.802 212.296 82.92 212.296 84.038C212.296 85.5 211.092 85.844 208.942 85.844C206.448 85.844 200.256 85.5 196.558 85.5C193.806 85.5 188.818 85.93 186.238 85.93C184.432 85.93 182.97 84.984 182.97 83.952C182.97 83.006 184.518 82.06 186.066 81.458C189.678 79.996 190.366 79.222 190.538 75.524C190.796 71.74 190.796 62.194 190.796 49.81C190.796 43.36 190.538 42.758 190.366 41.726C190.022 39.748 188.99 38.544 185.034 37.598C184.088 37.34 183.142 36.566 183.142 35.62C183.142 34.674 185.034 33.728 186.668 33.728C190.882 33.728 196.816 34.072 199.138 34.072C201.804 34.072 203.524 33.9 206.534 33.9C207.91 33.9 209.63 34.33 209.63 35.878C209.63 37.168 207.566 37.942 206.534 38.286C205.158 38.802 204.47 40.522 204.47 42.672C204.47 45.338 204.47 48.52 204.47 54.024ZM270.622 49.122C275.868 49.122 280.598 51.53 283.006 55.4C284.124 57.292 284.812 59.528 284.812 61.936C284.812 62.882 283.522 65.032 282.318 65.032C281.716 65.032 266.924 65.29 265.29 65.29C264.516 65.29 263.914 65.462 263.656 66.15C263.312 66.752 263.398 66.838 263.398 67.268C263.398 73.546 267.784 78.19 275.094 78.19C278.018 78.19 281.286 76.814 283.522 75.438C284.038 75.094 284.898 75.954 284.898 76.47C284.898 78.62 283.694 80.168 283.178 80.684C279.308 84.812 274.062 86.532 269.332 86.532C258.41 86.532 251.53 78.964 251.53 68.128C251.53 60.388 256.26 54.712 260.646 51.96C263.054 50.412 266.838 49.122 270.622 49.122ZM269.762 53.164C266.838 53.164 264 56.776 264 59.786C264 60.13 263.914 60.99 264.43 61.076C265.204 61.248 266.58 61.334 269.246 61.334C271.998 61.334 274.492 61.162 274.492 58.238C274.492 56.69 273.632 53.164 269.762 53.164ZM309.64 49.122C313.338 49.122 316.95 50.584 320.046 53.852C321.68 55.572 322.626 59.786 322.626 60.99C322.626 64.258 322.282 65.978 322.282 75.61C322.282 78.018 323.744 79.05 325.206 79.05C325.722 79.05 327.098 78.878 327.872 78.534C328.13 78.448 328.474 79.222 328.474 79.652C328.474 81.2 327.528 83.264 327.184 83.522C324.776 86.016 322.54 86.618 319.53 86.618C316.692 86.618 313.252 85.5 311.532 81.372C311.532 81.286 310.672 81.028 310.5 81.2C309.124 82.232 307.576 83.522 305.512 84.812C304.05 85.758 301.728 86.274 300.61 86.274C297.6 86.274 291.236 83.608 291.236 75.61C291.236 73.718 292.182 71.826 292.784 71.052C293.558 70.02 295.88 69.074 296.31 68.988C302.072 67.612 307.404 66.236 310.328 64.86C310.93 64.602 311.532 63.398 311.532 63.312C311.532 62.366 311.532 60.56 311.532 59.528C311.532 59.098 311.446 58.496 311.274 57.98C310.328 55.572 308.092 54.024 305.856 54.024C304.48 54.024 303.448 54.884 303.19 55.486C302.932 56.174 302.588 58.754 302.33 60.732C302.244 61.334 301.556 62.194 301.212 62.538C300.782 62.968 299.578 63.656 299.062 63.656C296.912 63.656 293.816 63.312 292.698 62.624C292.354 62.366 291.666 61.162 291.666 60.646C291.666 58.41 295.622 55.228 299.234 52.906C302.416 50.842 306.716 49.122 309.64 49.122ZM306.372 78.706C307.404 78.706 309.038 78.362 310.328 77.158C310.586 76.9 310.844 76.126 310.93 74.75L311.188 69.762C311.188 69.418 310.758 69.16 310.5 69.16C308.694 69.504 306.2 70.192 304.566 70.794C302.674 71.482 302.158 73.03 302.158 74.578C302.158 77.158 304.394 78.706 306.372 78.706ZM331.537 34.76C331.537 33.298 333.171 32.524 333.773 32.352C336.095 31.75 340.739 30.374 343.233 29.514C345.039 28.826 345.899 28.74 346.931 28.74C347.705 28.74 348.393 30.804 348.393 32.438C348.393 39.232 348.307 61.678 348.307 69.676C348.307 71.482 348.307 75.266 348.479 76.728C348.479 79.05 348.995 80.598 351.833 81.716C353.639 82.404 354.241 83.522 354.241 84.382C354.241 85.07 353.553 85.758 351.747 85.758C348.135 85.758 345.469 85.5 343.233 85.5C339.879 85.5 336.439 85.93 332.741 85.93C331.193 85.93 330.161 85.156 330.161 84.382C330.161 83.522 331.193 82.49 332.741 81.888C335.407 80.77 336.009 79.652 336.181 77.932C336.439 76.556 336.525 70.966 336.525 69.332C336.525 57.722 336.353 41.984 336.181 39.49C336.181 38.63 336.095 37.77 333.773 36.652C332.225 35.792 331.537 35.362 331.537 34.76ZM374.87 50.154C375.816 50.154 381.578 49.724 383.556 49.724C383.814 49.724 384.76 50.154 384.932 50.67C385.19 51.53 385.104 53.508 385.104 53.938C385.104 54.368 384.502 56.174 383.04 56.174C379.858 56.174 376.676 56.26 374.698 56.26C374.526 56.26 374.01 57.034 374.01 57.464L373.838 71.482C373.752 74.836 374.268 75.954 375.3 77.158C376.504 78.448 377.536 78.706 378.912 78.706C379.944 78.706 381.32 78.62 382.524 78.19C383.298 77.932 383.814 77.588 384.33 77.588C384.674 77.588 385.448 78.276 385.448 78.964C385.448 80.34 385.104 81.458 382.008 83.78C379.772 85.5 375.214 86.532 373.064 86.532C369.71 86.532 365.496 85.758 363.002 82.06C362.314 81.028 361.798 79.05 361.798 75.954C361.798 69.934 362.142 65.72 362.142 57.464C362.142 56.948 361.97 56.346 359.734 55.83C358.358 55.486 357.498 53.766 357.498 53.078C357.498 52.39 358.444 51.788 359.304 51.272C361.626 49.724 365.582 46.8 367.732 44.478C368.678 43.446 371.688 42.414 372.462 42.414C372.978 42.414 373.838 43.446 373.838 44.22C373.838 45.166 373.838 48.52 373.838 49.036C373.838 49.38 374.268 50.154 374.87 50.154ZM416.324 49.122C421.226 49.122 424.064 50.928 425.698 52.734C427.676 55.056 428.794 58.496 429.052 63.914C429.138 66.666 429.482 76.728 429.482 78.018C429.482 79.91 429.74 80.856 432.406 81.802C433.696 82.232 434.814 83.178 434.814 83.952C434.814 85.156 433.008 85.758 432.062 85.758C429.74 85.758 425.87 85.5 423.462 85.5C421.656 85.5 418.044 85.758 415.722 85.758C413.916 85.758 413.056 84.21 413.056 83.694C413.056 83.178 413.83 82.49 415.292 81.974C416.582 81.544 417.614 80.856 417.614 77.244C417.614 75.18 417.7 66.752 417.614 62.968C417.528 60.474 416.754 58.926 415.636 57.464C414.604 56.26 412.024 55.658 410.906 55.658C408.756 55.658 407.036 56.432 406.348 57.034C406.09 57.292 405.832 59.012 405.832 59.27C405.832 61.076 405.918 76.04 406.09 78.018C406.176 79.824 406.52 80.512 408.24 81.458C409.53 82.232 410.39 83.092 410.39 83.436C410.39 84.21 409.444 85.758 407.466 85.758C405.23 85.758 402.564 85.5 400.242 85.5C398.006 85.5 391.814 85.758 390.352 85.758C388.46 85.758 387.428 84.64 387.428 83.866C387.428 83.264 388.46 82.146 389.836 81.716C393.276 80.598 393.534 79.652 393.62 78.878C393.792 77.244 394.222 69.59 394.222 54.798C394.222 45.768 394.05 43.188 393.792 40.694C393.706 40.178 393.19 38.716 393.104 38.544C391.212 36.996 389.492 35.792 389.492 34.846C389.492 33.814 391.04 32.696 391.384 32.524C393.448 31.664 399.038 29.858 401.36 29.256C402.736 28.912 404.198 28.74 404.628 28.74C404.972 28.74 405.832 29.428 405.832 32.094C405.832 35.19 405.832 48.09 405.832 51.96C405.832 52.304 406.262 52.648 406.434 52.562C408.154 51.616 409.358 50.928 411.25 50.154C411.852 49.896 414.862 49.122 416.324 49.122ZM483.683 33.47C491.939 33.47 500.453 35.276 506.817 40.608C514.041 46.714 515.503 54.368 515.503 59.7C515.503 72.858 506.731 79.652 502.087 82.232C495.981 85.5 489.531 86.188 483.167 86.188C479.641 86.188 470.267 85.5 467.515 85.5C464.763 85.5 460.893 85.5 456.765 85.844C456.077 85.93 455.389 85.328 455.389 84.726C455.389 83.78 456.679 81.716 458.829 81.114C461.581 80.34 463.043 80.598 463.731 76.728C464.333 73.374 464.333 69.074 464.333 57.722C464.333 45.94 464.505 44.478 463.903 41.468C463.731 40.522 463.559 39.232 459.517 38.372C457.453 37.942 456.249 36.996 456.249 35.792C456.249 34.502 457.625 33.986 460.119 33.986L466.053 34.072C469.063 34.158 477.663 33.47 483.683 33.47ZM483.683 38.028C482.995 38.028 480.157 38.372 479.555 38.716C479.211 38.888 478.351 40.522 478.351 40.866C478.179 43.79 477.835 47.488 477.835 53.938V60.13C477.835 71.138 478.179 72.514 478.437 75.094C478.609 76.9 479.555 78.706 480.587 79.566C481.533 80.34 484.629 81.802 485.747 81.802C486.693 81.802 491.337 80.77 495.121 77.158C498.991 73.46 500.625 66.236 500.625 60.474C500.625 54.196 498.991 47.746 494.605 43.446C490.821 39.662 486.435 38.028 483.683 38.028ZM523.897 54.454C523.897 53.852 525.015 52.734 525.359 52.648C529.659 51.1 537.141 48.864 538.603 48.864C539.033 48.864 539.721 50.412 539.721 52.046C539.721 55.228 539.721 60.302 539.721 66.58C539.807 77.846 539.893 77.588 539.979 78.362C540.237 79.996 541.011 80.942 543.075 81.716C544.279 82.146 545.569 83.006 545.569 84.124C545.569 84.898 544.623 85.758 542.473 85.758C540.667 85.758 535.937 85.5 534.045 85.5C529.659 85.5 525.531 85.844 524.327 85.844C522.951 85.844 521.059 85.414 521.059 84.21C521.059 83.092 522.693 82.146 523.295 81.974C527.079 80.598 527.165 80.254 527.509 77.072C527.681 75.266 527.939 68.558 527.939 63.656C527.939 61.936 527.853 59.872 527.767 59.356C527.767 59.098 527.595 58.238 525.445 56.518C524.929 56.088 523.897 55.056 523.897 54.454ZM533.873 31.32C535.593 31.32 536.797 32.008 537.743 32.954C539.291 34.588 539.807 36.996 539.807 37.856C539.807 43.016 535.335 44.65 533.099 44.65C531.121 44.65 528.885 43.618 527.681 41.726C526.993 40.78 526.649 39.748 526.649 38.286C526.649 34.33 529.487 31.32 533.873 31.32ZM567.556 49.122C571.254 49.122 574.866 50.584 577.962 53.852C579.596 55.572 580.542 59.786 580.542 60.99C580.542 64.258 580.198 65.978 580.198 75.61C580.198 78.018 581.66 79.05 583.122 79.05C583.638 79.05 585.014 78.878 585.788 78.534C586.046 78.448 586.39 79.222 586.39 79.652C586.39 81.2 585.444 83.264 585.1 83.522C582.692 86.016 580.456 86.618 577.446 86.618C574.608 86.618 571.168 85.5 569.448 81.372C569.448 81.286 568.588 81.028 568.416 81.2C567.04 82.232 565.492 83.522 563.428 84.812C561.966 85.758 559.644 86.274 558.526 86.274C555.516 86.274 549.152 83.608 549.152 75.61C549.152 73.718 550.098 71.826 550.7 71.052C551.474 70.02 553.796 69.074 554.226 68.988C559.988 67.612 565.32 66.236 568.244 64.86C568.846 64.602 569.448 63.398 569.448 63.312C569.448 62.366 569.448 60.56 569.448 59.528C569.448 59.098 569.362 58.496 569.19 57.98C568.244 55.572 566.008 54.024 563.772 54.024C562.396 54.024 561.364 54.884 561.106 55.486C560.848 56.174 560.504 58.754 560.246 60.732C560.16 61.334 559.472 62.194 559.128 62.538C558.698 62.968 557.494 63.656 556.978 63.656C554.828 63.656 551.732 63.312 550.614 62.624C550.27 62.366 549.582 61.162 549.582 60.646C549.582 58.41 553.538 55.228 557.15 52.906C560.332 50.842 564.632 49.122 567.556 49.122ZM564.288 78.706C565.32 78.706 566.954 78.362 568.244 77.158C568.502 76.9 568.76 76.126 568.846 74.75L569.104 69.762C569.104 69.418 568.674 69.16 568.416 69.16C566.61 69.504 564.116 70.192 562.482 70.794C560.59 71.482 560.074 73.03 560.074 74.578C560.074 77.158 562.31 78.706 564.288 78.706ZM606.575 49.122C610.273 49.122 613.971 49.982 615.347 50.412C616.465 50.756 617.927 50.928 618.787 50.928C619.819 50.928 626.355 50.756 626.871 50.756C628.161 50.756 628.505 53.852 628.505 54.97C628.505 55.658 627.731 56.862 627.473 56.862C625.581 56.862 622.743 56.432 620.851 56.346C621.797 57.894 622.227 59.872 622.227 61.85C622.227 65.204 621.023 67.87 617.755 70.536C615.089 72.686 610.359 73.976 606.833 73.976C606.317 73.976 603.995 73.804 603.651 73.718C603.393 73.718 602.877 73.976 602.705 74.148C602.361 74.406 602.189 74.922 602.189 75.524C602.189 77.33 605.543 78.104 605.973 78.104C608.811 78.19 616.981 78.448 619.561 78.62C621.023 78.706 622.571 79.222 624.549 80.856C626.355 82.232 628.333 85.5 628.333 88.682C628.333 94.616 623.259 99.432 620.163 101.324C615.777 103.904 611.993 105.366 605.371 105.366C597.717 105.366 589.117 101.84 589.117 94.874C589.117 93.154 591.009 90.66 592.041 89.972C592.729 89.456 595.223 88.596 596.083 88.166C596.513 87.908 596.255 87.22 595.997 87.134C594.965 86.876 594.535 86.532 593.761 86.102C591.697 84.812 590.579 82.318 590.579 79.394C590.579 78.964 591.009 78.362 591.095 78.362C593.331 77.416 597.029 74.922 597.889 73.89C598.147 73.632 598.147 72.944 597.803 72.686C594.277 70.708 591.095 67.784 591.095 61.936C591.095 57.378 593.417 54.54 596.169 52.39C598.061 50.928 603.135 49.122 606.575 49.122ZM606.747 52.992C603.393 52.992 601.931 56.518 601.931 60.818C601.931 66.838 604.683 70.106 607.779 70.106C608.983 70.106 610.273 68.988 610.617 68.472C611.047 67.87 611.907 64.172 611.907 61.678C611.907 55.486 608.897 52.992 606.747 52.992ZM610.445 100.12C611.563 100.12 615.519 99.518 616.723 98.658C618.357 97.454 619.561 95.992 619.561 93.928C619.561 91.004 616.551 89.886 614.401 89.456C613.025 89.112 609.413 88.854 605.801 88.854C603.909 88.854 601.243 89.284 600.727 89.542C599.781 90.23 598.921 91.348 598.921 92.638C598.921 97.196 603.479 100.12 610.445 100.12ZM632.909 54.454C632.909 53.852 633.597 52.304 634.973 51.788C636.693 51.186 642.197 49.896 643.917 49.036C644.949 48.52 646.755 48.09 646.927 48.09C647.185 48.09 648.389 48.95 648.389 49.638C648.389 50.068 648.045 52.218 648.045 53.078C648.045 53.68 648.475 53.594 648.733 53.422C651.485 51.53 655.527 49.122 660.859 49.122C665.847 49.122 668.685 53.078 669.029 53.508C670.405 55.486 671.953 59.614 671.953 65.548C671.953 69.504 671.953 72.6 672.125 76.47C672.297 79.996 672.555 80.34 674.705 81.458C676.081 82.146 677.027 83.092 677.027 83.866C677.027 85.5 675.049 85.758 673.931 85.758C672.813 85.758 668.255 85.5 665.675 85.5C663.181 85.5 659.741 85.758 658.709 85.758C656.645 85.758 655.699 84.984 655.699 84.038C655.699 83.522 656.043 82.576 657.419 82.06C659.397 81.286 659.827 80.254 659.913 78.104C659.999 73.89 659.999 70.536 659.999 66.752C659.999 60.302 659.397 59.098 658.537 57.98C657.677 56.862 655.871 56.346 654.323 56.346C652.517 56.346 650.883 56.69 649.593 57.206C649.335 57.292 648.647 58.152 648.647 59.184C648.647 60.044 648.647 75.782 648.647 77.76C648.647 79.48 648.991 80.684 650.883 81.458C652.947 82.232 653.205 83.35 653.205 83.694C653.205 85.07 651.657 85.758 650.109 85.758C647.271 85.758 644.605 85.5 642.541 85.5C639.875 85.5 634.543 85.758 633.167 85.758C631.189 85.758 630.243 85.156 630.243 84.296C630.243 83.178 631.275 82.318 632.135 81.974C636.177 80.34 636.263 80.082 636.521 77.158C636.865 73.718 636.951 67.354 636.951 60.302C636.951 58.926 636.607 58.324 634.285 56.26C633.339 55.4 632.909 54.798 632.909 54.454ZM701.662 49.122C714.476 49.122 721.786 58.496 721.786 67.268C721.786 74.406 718.862 78.534 715.938 81.2C712.842 84.038 707.854 86.532 701.318 86.532C695.212 86.532 689.966 84.554 686.268 80.942C682.57 77.33 681.194 71.654 681.194 67.784C681.194 61.162 684.462 56.69 688.246 53.68C691.772 50.842 698.394 49.122 701.662 49.122ZM700.458 53.68C698.91 53.68 697.448 54.54 696.674 55.572C695.212 57.636 694.18 62.108 694.18 66.15C694.18 74.836 697.276 79.394 698.394 80.168C698.996 80.684 700.802 82.06 702.436 82.06C703.382 82.06 705.102 81.286 706.134 79.824C706.736 78.964 708.198 75.868 708.198 69.074C708.198 60.302 705.016 53.68 700.458 53.68ZM743.093 49.122C745.157 49.122 747.479 49.294 748.941 49.724C750.059 50.068 751.521 50.326 752.381 50.584C752.897 50.756 754.101 52.304 754.101 52.648C754.101 53.852 754.359 55.744 754.359 57.808C754.359 59.356 753.413 60.474 752.811 60.474C752.209 60.474 750.919 60.302 749.457 58.152C747.393 55.142 745.071 53.336 742.835 53.336C740.943 53.336 739.481 54.712 739.481 56.776C739.481 58.84 740.513 60.216 747.307 63.656C753.843 66.924 756.165 70.536 756.165 74.75C756.165 80.168 752.295 83.436 748.597 84.898C745.759 86.102 742.319 86.532 739.825 86.532C733.891 86.532 731.139 85.328 730.021 84.382C729.075 83.522 728.043 77.674 728.043 76.126C728.043 74.578 729.161 73.89 729.935 73.89C730.537 73.89 731.741 74.492 732.945 76.04C735.869 79.996 739.137 82.146 741.803 82.146C744.383 82.146 744.813 80.168 744.813 78.964C744.813 77.76 743.351 75.868 741.717 75.008C739.137 73.632 738.965 73.116 736.213 71.568C732.859 69.676 729.075 66.15 729.075 61.076C729.075 55.83 732.257 52.82 734.837 51.272C736.987 49.982 741.029 49.122 743.093 49.122ZM762.161 54.454C762.161 53.852 763.279 52.734 763.623 52.648C767.923 51.1 775.405 48.864 776.867 48.864C777.297 48.864 777.985 50.412 777.985 52.046C777.985 55.228 777.985 60.302 777.985 66.58C778.071 77.846 778.157 77.588 778.243 78.362C778.501 79.996 779.275 80.942 781.339 81.716C782.543 82.146 783.833 83.006 783.833 84.124C783.833 84.898 782.887 85.758 780.737 85.758C778.931 85.758 774.201 85.5 772.309 85.5C767.923 85.5 763.795 85.844 762.591 85.844C761.215 85.844 759.323 85.414 759.323 84.21C759.323 83.092 760.957 82.146 761.559 81.974C765.343 80.598 765.429 80.254 765.773 77.072C765.945 75.266 766.203 68.558 766.203 63.656C766.203 61.936 766.117 59.872 766.031 59.356C766.031 59.098 765.859 58.238 763.709 56.518C763.193 56.088 762.161 55.056 762.161 54.454ZM772.137 31.32C773.857 31.32 775.061 32.008 776.007 32.954C777.555 34.588 778.071 36.996 778.071 37.856C778.071 43.016 773.599 44.65 771.363 44.65C769.385 44.65 767.149 43.618 765.945 41.726C765.257 40.78 764.913 39.748 764.913 38.286C764.913 34.33 767.751 31.32 772.137 31.32ZM803.142 49.122C805.206 49.122 807.528 49.294 808.99 49.724C810.108 50.068 811.57 50.326 812.43 50.584C812.946 50.756 814.15 52.304 814.15 52.648C814.15 53.852 814.408 55.744 814.408 57.808C814.408 59.356 813.462 60.474 812.86 60.474C812.258 60.474 810.968 60.302 809.506 58.152C807.442 55.142 805.12 53.336 802.884 53.336C800.992 53.336 799.53 54.712 799.53 56.776C799.53 58.84 800.562 60.216 807.356 63.656C813.892 66.924 816.214 70.536 816.214 74.75C816.214 80.168 812.344 83.436 808.646 84.898C805.808 86.102 802.368 86.532 799.874 86.532C793.94 86.532 791.188 85.328 790.07 84.382C789.124 83.522 788.092 77.674 788.092 76.126C788.092 74.578 789.21 73.89 789.984 73.89C790.586 73.89 791.79 74.492 792.994 76.04C795.918 79.996 799.186 82.146 801.852 82.146C804.432 82.146 804.862 80.168 804.862 78.964C804.862 77.76 803.4 75.868 801.766 75.008C799.186 73.632 799.014 73.116 796.262 71.568C792.908 69.676 789.124 66.15 789.124 61.076C789.124 55.83 792.306 52.82 794.886 51.272C797.036 49.982 801.078 49.122 803.142 49.122Z" fill="white"/>
<path d="M223.655 147.193C246.659 147.193 259.782 164.022 259.782 179.769C259.782 192.584 254.533 199.994 249.284 204.78C243.725 209.875 234.771 214.353 223.037 214.353C212.076 214.353 202.658 210.802 196.019 204.317C189.38 197.833 186.91 187.643 186.91 180.696C186.91 168.808 192.777 160.779 199.57 155.376C205.9 150.281 217.788 147.193 223.655 147.193ZM221.493 155.376C218.714 155.376 216.09 156.92 214.7 158.772C212.076 162.478 210.223 170.506 210.223 177.762C210.223 193.356 215.781 201.538 217.788 202.928C218.869 203.854 222.111 206.324 225.044 206.324C226.743 206.324 229.83 204.935 231.683 202.31C232.764 200.766 235.388 195.208 235.388 183.012C235.388 167.264 229.676 155.376 221.493 155.376ZM277.528 161.088L271.507 159.853C270.89 159.699 268.728 158 268.728 156.92C268.728 154.449 271.044 153.06 277.065 149.046C277.22 148.891 278.609 147.193 278.609 146.73C278.764 141.635 280.307 135.151 284.167 128.975C287.564 123.571 291.578 120.175 295.438 117.241C300.841 113.227 309.333 109.985 315.2 109.985C322.147 109.985 326.779 111.683 329.712 114.462C330.021 114.771 331.719 116.624 331.719 119.248C331.719 119.866 330.947 122.491 330.484 123.417C328.632 126.505 325.081 129.438 322.302 129.438C321.684 129.438 318.596 128.357 317.361 127.122C315.045 124.806 311.031 119.557 306.554 119.557C300.996 119.557 300.687 127.431 300.533 129.284C300.378 132.372 300.533 139.937 300.533 145.958C300.533 148.274 301.459 149.046 302.231 149.046C307.171 149.046 315.817 148.891 316.898 148.891C317.979 148.891 319.214 151.207 319.214 157.692C319.214 158.772 316.898 160.625 316.126 160.625C315.663 160.625 303.003 160.316 301.459 160.316C300.687 160.316 300.069 161.088 300.069 165.257C300.069 178.38 300.378 184.092 300.687 196.289C300.841 203.545 303.157 203.7 309.333 205.089C311.957 205.707 314.119 207.251 314.119 209.567C314.119 211.265 311.957 212.963 308.406 212.963C306.399 212.963 297.136 212.5 288.49 212.5C283.086 212.5 275.676 212.963 273.36 212.963C269.037 212.963 267.493 210.647 267.493 208.64C267.493 207.868 268.883 206.788 271.97 205.398C276.139 203.545 277.683 203.391 277.992 197.987C278.146 195.517 278.609 178.225 278.609 163.25C278.609 162.323 277.683 161.088 277.528 161.088ZM401.344 119.094C416.166 119.094 431.45 122.336 442.875 131.908C455.844 142.87 458.469 156.611 458.469 166.183C458.469 189.805 442.721 202.001 434.384 206.633C423.422 212.5 411.843 213.735 400.418 213.735C394.088 213.735 377.26 212.5 372.319 212.5C367.379 212.5 360.431 212.5 353.02 213.118C351.785 213.272 350.55 212.191 350.55 211.11C350.55 209.412 352.866 205.707 356.726 204.626C361.666 203.237 364.291 203.7 365.526 196.752C366.607 190.731 366.607 183.012 366.607 162.632C366.607 141.481 366.915 138.856 365.835 133.452C365.526 131.754 365.217 129.438 357.961 127.894C354.255 127.122 352.094 125.424 352.094 123.263C352.094 120.947 354.564 120.02 359.042 120.02L369.694 120.175C375.098 120.329 390.537 119.094 401.344 119.094ZM401.344 127.277C400.109 127.277 395.014 127.894 393.934 128.512C393.316 128.821 391.772 131.754 391.772 132.372C391.463 137.621 390.846 144.26 390.846 155.839V166.955C390.846 186.717 391.463 189.187 391.927 193.819C392.235 197.061 393.934 200.303 395.786 201.847C397.485 203.237 403.043 205.861 405.05 205.861C406.748 205.861 415.085 204.009 421.878 197.524C428.826 190.885 431.759 177.917 431.759 167.573C431.759 156.302 428.826 144.723 420.952 137.003C414.159 130.21 406.285 127.277 401.344 127.277ZM507.349 147.193C516.767 147.193 525.258 151.516 529.581 158.463C531.588 161.86 532.823 165.874 532.823 170.197C532.823 171.895 530.507 175.755 528.346 175.755C527.265 175.755 500.71 176.218 497.777 176.218C496.387 176.218 495.306 176.527 494.843 177.762C494.226 178.843 494.38 178.997 494.38 179.769C494.38 191.04 502.254 199.377 515.377 199.377C520.626 199.377 526.493 196.907 530.507 194.436C531.434 193.819 532.978 195.363 532.978 196.289C532.978 200.149 530.816 202.928 529.89 203.854C522.942 211.265 513.524 214.353 505.033 214.353C485.425 214.353 473.074 200.766 473.074 181.313C473.074 167.418 481.566 157.228 489.44 152.288C493.763 149.509 500.556 147.193 507.349 147.193ZM505.805 154.449C500.556 154.449 495.461 160.934 495.461 166.337C495.461 166.955 495.306 168.499 496.233 168.653C497.622 168.962 500.093 169.116 504.879 169.116C509.819 169.116 514.296 168.808 514.296 163.558C514.296 160.779 512.752 154.449 505.805 154.449ZM578.061 147.193C587.478 147.193 595.97 151.516 600.293 158.463C602.3 161.86 603.535 165.874 603.535 170.197C603.535 171.895 601.219 175.755 599.058 175.755C597.977 175.755 571.422 176.218 568.488 176.218C567.099 176.218 566.018 176.527 565.555 177.762C564.938 178.843 565.092 178.997 565.092 179.769C565.092 191.04 572.966 199.377 586.089 199.377C591.338 199.377 597.205 196.907 601.219 194.436C602.145 193.819 603.689 195.363 603.689 196.289C603.689 200.149 601.528 202.928 600.602 203.854C593.654 211.265 584.236 214.353 575.745 214.353C556.137 214.353 543.786 200.766 543.786 181.313C543.786 167.418 552.278 157.228 560.151 152.288C564.474 149.509 571.267 147.193 578.061 147.193ZM576.517 154.449C571.267 154.449 566.173 160.934 566.173 166.337C566.173 166.955 566.018 168.499 566.945 168.653C568.334 168.962 570.804 169.116 575.59 169.116C580.531 169.116 585.008 168.808 585.008 163.558C585.008 160.779 583.464 154.449 576.517 154.449ZM661.436 147.193C668.384 147.193 674.25 149.663 678.728 153.677C685.212 159.544 688.918 169.734 688.918 177.762C688.918 187.489 683.823 203.545 666.685 210.647C662.208 212.5 652.79 214.353 648.004 214.353C647.078 214.353 644.762 214.353 643.681 214.044C643.527 214.044 642.292 215.588 642.292 216.205C642.292 223.153 642.292 227.013 642.601 230.1C642.755 232.108 642.909 234.578 650.166 237.202C653.717 238.438 654.952 240.29 654.952 241.217C654.952 242.915 653.562 245.231 649.394 245.231C648.159 245.231 643.527 245.231 635.653 245.231C625.618 245.231 620.368 246.62 613.575 246.62C609.098 246.62 607.4 244.459 607.4 243.069C607.4 242.297 608.48 240.136 612.34 238.901C618.824 236.894 619.596 235.041 620.06 229.329C620.523 223.925 620.986 195.517 620.986 185.945C620.986 179.769 620.986 173.748 620.832 167.418C620.832 166.646 620.06 164.33 614.965 160.471C612.958 158.927 612.649 158.463 612.649 157.692C612.649 156.302 614.347 153.677 615.891 153.06C619.596 151.516 629.632 147.502 632.565 146.112C634.727 145.032 636.888 144.414 637.506 144.414C638.123 144.414 641.057 145.649 641.057 146.73C641.057 147.965 640.593 151.362 640.902 153.677C641.057 154.295 642.446 154.604 643.064 154.295C644.299 153.677 649.548 150.281 651.864 149.2C655.106 147.656 658.503 147.193 661.436 147.193ZM649.548 159.544C648.004 159.544 645.843 160.162 644.144 161.243C643.836 161.397 642.755 163.25 642.755 164.022C642.446 169.116 642.292 179.152 642.292 185.482C642.292 196.752 643.372 198.451 643.836 199.068C646.46 202.619 651.555 206.324 654.643 206.324C655.569 206.324 658.966 205.398 661.282 202.619C664.524 198.759 666.685 189.959 666.685 183.783C666.685 173.131 662.054 159.544 649.548 159.544ZM773.146 117.241C781.792 117.241 789.974 120.02 795.995 121.41C796.922 121.564 798.002 124.035 798.002 125.733C798.002 127.585 799.083 136.077 799.083 138.393C799.083 143.642 796.613 145.804 794.451 145.804C792.753 145.804 791.364 143.179 790.901 141.944C787.504 132.68 779.476 124.343 770.675 124.343C764.191 124.343 758.324 130.365 758.324 136.231C758.324 143.179 763.419 148.274 772.219 152.751C791.672 162.632 803.097 171.278 803.097 185.945C803.097 198.605 794.451 205.707 788.893 209.103C782.872 212.654 772.683 215.279 765.581 215.279C752.457 215.279 744.892 212.5 741.341 211.11C740.261 210.647 737.79 209.258 737.018 207.56C734.394 202.001 733.931 193.973 733.931 190.268C733.931 187.334 735.475 183.629 737.945 183.629C739.643 183.629 741.65 185.482 743.812 189.496C749.524 199.994 758.015 207.56 767.588 207.56C773.146 207.56 780.093 203.7 780.093 196.598C780.093 191.966 780.402 186.871 764.654 178.38C744.429 167.573 736.555 159.235 736.555 144.877C736.555 134.842 743.657 126.659 751.068 122.491C756.935 119.248 764.345 117.241 773.146 117.241ZM851.259 147.193C860.676 147.193 869.168 151.516 873.491 158.463C875.498 161.86 876.733 165.874 876.733 170.197C876.733 171.895 874.417 175.755 872.256 175.755C871.175 175.755 844.62 176.218 841.686 176.218C840.297 176.218 839.216 176.527 838.753 177.762C838.135 178.843 838.29 178.997 838.29 179.769C838.29 191.04 846.164 199.377 859.287 199.377C864.536 199.377 870.403 196.907 874.417 194.436C875.343 193.819 876.887 195.363 876.887 196.289C876.887 200.149 874.726 202.928 873.8 203.854C866.852 211.265 857.434 214.353 848.943 214.353C829.335 214.353 816.984 200.766 816.984 181.313C816.984 167.418 825.475 157.228 833.349 152.288C837.672 149.509 844.465 147.193 851.259 147.193ZM849.715 154.449C844.465 154.449 839.371 160.934 839.371 166.337C839.371 166.955 839.216 168.499 840.143 168.653C841.532 168.962 844.002 169.116 848.788 169.116C853.729 169.116 858.206 168.808 858.206 163.558C858.206 160.779 856.662 154.449 849.715 154.449ZM921.306 147.193C927.945 147.193 934.429 149.818 939.987 155.684C942.92 158.772 944.619 166.337 944.619 168.499C944.619 174.366 944.001 177.453 944.001 194.745C944.001 199.068 946.626 200.921 949.25 200.921C950.177 200.921 952.647 200.612 954.036 199.994C954.5 199.84 955.117 201.23 955.117 202.001C955.117 204.78 953.419 208.486 952.801 208.949C948.478 213.426 944.464 214.507 939.061 214.507C933.966 214.507 927.79 212.5 924.702 205.089C924.702 204.935 923.158 204.472 922.85 204.78C920.379 206.633 917.6 208.949 913.895 211.265C911.27 212.963 907.102 213.89 905.095 213.89C899.691 213.89 888.266 209.103 888.266 194.745C888.266 191.349 889.965 187.952 891.045 186.562C892.435 184.71 896.603 183.012 897.375 182.857C907.719 180.387 917.292 177.917 922.541 175.446C923.622 174.983 924.702 172.822 924.702 172.667C924.702 170.969 924.702 167.727 924.702 165.874C924.702 165.102 924.548 164.022 924.239 163.095C922.541 158.772 918.527 155.993 914.513 155.993C912.042 155.993 910.19 157.537 909.727 158.618C909.263 159.853 908.646 164.485 908.183 168.036C908.028 169.116 906.793 170.66 906.176 171.278C905.404 172.05 903.242 173.285 902.316 173.285C898.456 173.285 892.898 172.667 890.891 171.432C890.273 170.969 889.038 168.808 889.038 167.881C889.038 163.867 896.14 158.155 902.625 153.986C908.337 150.281 916.057 147.193 921.306 147.193ZM915.439 200.303C917.292 200.303 920.225 199.686 922.541 197.524C923.004 197.061 923.467 195.671 923.622 193.201L924.085 184.247C924.085 183.629 923.313 183.166 922.85 183.166C919.607 183.783 915.13 185.019 912.197 186.099C908.8 187.334 907.874 190.113 907.874 192.892C907.874 197.524 911.888 200.303 915.439 200.303ZM1055.42 117.087C1062.52 117.087 1069.63 118.631 1073.79 119.712C1077.65 120.792 1083.21 122.491 1084.45 122.491C1085.22 122.491 1087.07 124.498 1087.07 125.424C1087.07 130.982 1088.62 138.856 1088.62 142.716C1088.62 147.039 1085.68 149.509 1083.68 149.509C1082.44 149.509 1081.67 148.274 1080.43 144.877C1078.12 138.547 1077.19 135.151 1071.48 130.982C1066.69 127.431 1061.29 124.806 1054.65 124.806C1048.01 124.806 1039.52 128.666 1034.43 134.842C1027.79 142.716 1024.7 154.449 1024.7 163.713C1024.7 175.446 1028.56 185.945 1033.04 192.275C1038.59 200.149 1048.78 205.861 1058.05 205.861C1061.91 205.861 1068.85 203.391 1071.94 201.693C1073.18 200.921 1075.96 197.987 1079.82 191.812C1082.75 187.18 1084.6 185.327 1086.15 185.327C1089.08 185.327 1089.39 188.261 1089.23 191.503C1089.23 192.892 1086.3 203.237 1086.3 206.17C1086.3 206.633 1085.07 208.795 1084.6 209.103C1079.2 211.728 1065.46 215.279 1054.8 215.279C1037.67 215.279 1019.45 210.184 1008.49 198.142C1001.69 190.731 996.909 180.541 996.909 166.801C996.909 150.281 1004.32 136.386 1017.91 126.968C1024.85 122.182 1039.37 117.087 1055.42 117.087ZM1138.84 147.193C1161.84 147.193 1174.96 164.022 1174.96 179.769C1174.96 192.584 1169.72 199.994 1164.47 204.78C1158.91 209.875 1149.95 214.353 1138.22 214.353C1127.26 214.353 1117.84 210.802 1111.2 204.317C1104.56 197.833 1102.09 187.643 1102.09 180.696C1102.09 168.808 1107.96 160.779 1114.75 155.376C1121.08 150.281 1132.97 147.193 1138.84 147.193ZM1136.68 155.376C1133.9 155.376 1131.27 156.92 1129.88 158.772C1127.26 162.478 1125.41 170.506 1125.41 177.762C1125.41 193.356 1130.96 201.538 1132.97 202.928C1134.05 203.854 1137.29 206.324 1140.23 206.324C1141.93 206.324 1145.01 204.935 1146.87 202.31C1147.95 200.766 1150.57 195.208 1150.57 183.012C1150.57 167.264 1144.86 155.376 1136.68 155.376ZM1187.59 157.846C1187.59 155.53 1190.06 153.06 1191.14 152.751C1195.77 151.362 1204.57 148.891 1207.81 147.193C1209.82 146.267 1211.21 145.804 1212.75 145.804C1213.06 145.804 1214.76 148.119 1214.76 148.891C1214.91 151.053 1214.91 154.141 1215.07 156.456C1215.07 156.92 1216 157.846 1216.46 156.92C1220.94 151.979 1226.34 147.193 1232.36 147.193C1237.46 147.193 1243.63 151.053 1243.63 154.295C1243.63 157.537 1239.77 163.404 1236.07 166.337C1234.37 167.881 1232.67 168.808 1231.59 168.808C1231.13 168.808 1229.58 168.344 1228.04 167.264C1227.11 166.337 1222.79 163.25 1220.94 163.25C1220.16 163.25 1218 163.558 1217.54 163.867C1216.77 164.485 1216 165.257 1216 166.337C1216 167.881 1216 190.577 1216.15 195.98C1216.3 202.156 1217.69 203.7 1223.41 205.552C1225.57 206.324 1228.81 208.023 1228.81 209.875C1228.81 212.191 1225.1 213.272 1223.25 213.272C1218.47 213.272 1208.43 212.5 1203.95 212.5C1198.55 212.5 1195 212.963 1190.68 212.963C1187.9 212.963 1184.81 211.882 1184.81 209.875C1184.81 208.023 1186.04 206.788 1189.29 205.398C1194.07 203.391 1194.54 202.928 1194.84 193.201C1195 184.555 1195 176.064 1195 167.881C1195 166.801 1194.23 165.411 1191.45 162.786C1189.29 160.779 1187.59 158.927 1187.59 157.846ZM1280.74 147.193C1287.38 147.193 1293.87 149.818 1299.43 155.684C1302.36 158.772 1304.06 166.337 1304.06 168.499C1304.06 174.366 1303.44 177.453 1303.44 194.745C1303.44 199.068 1306.06 200.921 1308.69 200.921C1309.62 200.921 1312.09 200.612 1313.48 199.994C1313.94 199.84 1314.56 201.23 1314.56 202.001C1314.56 204.78 1312.86 208.486 1312.24 208.949C1307.92 213.426 1303.9 214.507 1298.5 214.507C1293.4 214.507 1287.23 212.5 1284.14 205.089C1284.14 204.935 1282.6 204.472 1282.29 204.78C1279.82 206.633 1277.04 208.949 1273.33 211.265C1270.71 212.963 1266.54 213.89 1264.53 213.89C1259.13 213.89 1247.71 209.103 1247.71 194.745C1247.71 191.349 1249.4 187.952 1250.48 186.562C1251.87 184.71 1256.04 183.012 1256.81 182.857C1267.16 180.387 1276.73 177.917 1281.98 175.446C1283.06 174.983 1284.14 172.822 1284.14 172.667C1284.14 170.969 1284.14 167.727 1284.14 165.874C1284.14 165.102 1283.99 164.022 1283.68 163.095C1281.98 158.772 1277.97 155.993 1273.95 155.993C1271.48 155.993 1269.63 157.537 1269.17 158.618C1268.7 159.853 1268.09 164.485 1267.62 168.036C1267.47 169.116 1266.23 170.66 1265.61 171.278C1264.84 172.05 1262.68 173.285 1261.76 173.285C1257.9 173.285 1252.34 172.667 1250.33 171.432C1249.71 170.969 1248.48 168.808 1248.48 167.881C1248.48 163.867 1255.58 158.155 1262.06 153.986C1267.78 150.281 1275.5 147.193 1280.74 147.193ZM1274.88 200.303C1276.73 200.303 1279.66 199.686 1281.98 197.524C1282.44 197.061 1282.91 195.671 1283.06 193.201L1283.52 184.247C1283.52 183.629 1282.75 183.166 1282.29 183.166C1279.05 183.783 1274.57 185.019 1271.64 186.099C1268.24 187.334 1267.31 190.113 1267.31 192.892C1267.31 197.524 1271.33 200.303 1274.88 200.303ZM1320.05 121.41C1320.05 118.785 1322.99 117.396 1324.07 117.087C1328.24 116.006 1336.57 113.536 1341.05 111.992C1344.29 110.757 1345.84 110.603 1347.69 110.603C1349.08 110.603 1350.31 114.308 1350.31 117.241C1350.31 129.438 1350.16 169.734 1350.16 184.092C1350.16 187.334 1350.16 194.128 1350.47 196.752C1350.47 200.921 1351.4 203.7 1356.49 205.707C1359.73 206.942 1360.81 208.949 1360.81 210.493C1360.81 211.728 1359.58 212.963 1356.34 212.963C1349.85 212.963 1345.07 212.5 1341.05 212.5C1335.03 212.5 1328.85 213.272 1322.22 213.272C1319.44 213.272 1317.58 211.882 1317.58 210.493C1317.58 208.949 1319.44 207.096 1322.22 206.016C1327 204.009 1328.08 202.001 1328.39 198.914C1328.85 196.443 1329.01 186.408 1329.01 183.475C1329.01 162.632 1328.7 134.379 1328.39 129.901C1328.39 128.357 1328.24 126.814 1324.07 124.806C1321.29 123.263 1320.05 122.491 1320.05 121.41Z" fill="white"/>
</svg>
