<svg width="952" height="279" viewBox="0 0 952 279" fill="none" xmlns="http://www.w3.org/2000/svg">
<path d="M258.919 46.7051C258.919 50.9748 257.537 54.2399 255.277 56.6259C254.9 57.0027 249.877 60.2678 248.119 61.0212C247.742 61.1468 247.742 62.5282 248.37 62.7794C256.282 65.6677 263.942 71.57 263.942 81.7419C263.942 93.672 254.775 99.951 247.491 102.714C242.342 104.723 232.045 105.351 229.031 105.351C221.119 105.351 213.71 104.723 208.687 104.598C204.417 104.472 195.752 104.849 193.366 104.849C190.854 104.849 188.971 104.095 188.971 102.337C188.971 101.332 190.352 99.072 193.617 98.4441C199.519 97.1883 201.152 95.3046 201.529 92.0395C201.78 89.7791 202.408 82.9977 202.408 67.5514C202.408 54.8678 202.157 44.947 201.905 42.4354C201.529 38.0401 201.026 36.6587 194.119 35.4029C192.738 35.1518 189.975 33.3936 189.975 31.8867C189.975 30.2541 193.24 29.2495 194.622 29.2495H206.552C211.073 29.2495 223.128 28.3704 231.542 28.3704C240.71 28.3704 248.998 30.7565 252.263 33.3936C256.658 36.7843 258.919 41.5563 258.919 46.7051ZM240.333 48.84C240.333 40.4261 233.677 35.0262 226.393 35.0262C226.017 35.0262 223.38 35.4029 222.877 35.6541C222.375 35.9052 222.124 36.282 221.998 37.5378C221.621 45.9516 221.37 57.2538 221.998 59.1375C222.375 60.3933 223.128 61.398 225.64 61.398C229.407 61.398 235.812 59.6399 236.942 58.5096C238.072 57.3794 240.333 54.8678 240.333 48.84ZM242.719 83.2489C242.719 71.8211 234.179 67.3002 227.775 67.3002C226.645 67.3002 224.259 67.5514 223.254 68.1793C223.128 68.3049 221.873 70.063 221.747 70.9421C221.119 74.2071 221.998 88.2721 222.626 91.5372C223.254 94.9278 227.273 98.8208 231.291 98.8208C236.44 98.8208 240.71 93.2953 241.212 91.6628C241.965 89.2767 242.719 86.0117 242.719 83.2489ZM267.373 31.5099C267.373 29.6262 270.387 28.7472 271.894 28.7472C274.28 28.7472 289.224 29.3751 292.74 29.3751C297.763 29.3751 302.41 29.1239 304.544 29.1239C306.805 29.1239 308.563 30.3797 308.563 31.7611C308.563 32.5146 307.433 34.1471 304.293 35.4029C301.656 36.5331 301.782 37.5378 303.038 40.3005C307.056 48.7144 313.461 59.2631 315.47 62.6538C315.972 63.4073 316.977 63.2817 317.605 62.7794C318.986 61.5236 326.144 47.7098 328.405 42.6866C330.54 38.1657 329.786 36.9099 325.14 35.2773C323.256 34.6494 321.121 33.5192 321.121 31.8867C321.121 30.1286 323.381 29.1239 326.019 29.1239C331.67 29.1239 331.544 29.3751 334.684 29.3751C339.456 29.3751 345.232 28.8728 349.628 28.8728C351.763 28.8728 353.27 30.2541 353.27 31.3844C353.27 32.8913 351.386 34.3983 349 35.1518C344.856 36.5331 341.339 38.5424 337.446 43.8168C331.921 51.3516 323.13 65.1654 320.619 70.6909C319.865 72.3234 319.865 73.7048 319.74 76.342C319.488 80.6117 319.488 88.9 319.488 92.5418C319.865 95.6813 323.13 97.0627 328.154 98.8208C330.414 99.5743 331.544 100.83 331.544 102.211C331.544 103.467 329.66 105.225 327.149 105.225C322.251 105.225 317.856 104.472 310.196 104.472C299.521 104.472 298.14 104.849 293.619 104.849C289.977 104.849 287.968 103.718 287.968 101.709C287.968 100.328 290.103 98.6952 293.493 97.8162C297.638 96.8115 298.768 96.0581 299.145 89.6535C299.396 85.5093 299.396 78.2257 299.396 75.7141C299.396 73.5792 298.893 71.57 296.884 68.0537C291.484 58.0073 285.08 46.9563 281.187 41.6819C279.303 39.0447 277.168 36.5331 272.145 35.1518C268.88 34.2727 267.373 33.1425 267.373 31.5099ZM406.919 29.3751H445.346C452.379 29.3751 455.518 28.496 456.02 27.8681C457.527 25.9844 458.909 24.8542 459.788 24.8542C460.541 24.8542 463.806 26.8635 463.806 28.8728C463.806 29.7518 462.299 37.6634 462.299 46.0772C462.299 48.5888 460.416 51.3516 458.03 51.3516C456.272 51.3516 455.267 48.2121 455.016 47.0819C453.132 38.7936 450.997 38.5424 446.476 38.0401C444.593 37.7889 444.216 37.4122 433.542 37.4122C432.914 37.4122 432.537 38.4168 432.411 39.6726C432.286 41.4308 431.532 58.3841 431.532 66.2956C431.532 73.956 431.407 82.2443 431.784 86.7651C432.537 95.9325 434.672 96.3092 439.821 98.1929C442.081 99.072 444.216 100.202 444.216 101.709C444.216 104.472 441.202 105.1 438.69 105.1C437.435 105.1 423.621 104.472 416.086 104.472C412.444 104.472 405.663 104.849 402.272 104.849C399.635 104.849 397.123 103.718 397.123 101.458C397.123 100.453 398.379 98.6952 401.268 97.9418C409.054 95.8069 411.188 94.1744 411.188 87.2675C411.188 84.6303 411.44 67.9281 411.44 59.7654C411.44 51.9795 411.565 43.6912 411.565 39.7982C411.565 38.7936 410.309 37.4122 409.933 37.4122C406.793 37.4122 402.147 37.4122 398.882 37.5378C395.365 37.6634 391.975 37.6634 388.584 47.0819C387.831 49.2167 386.324 50.8493 384.942 50.8493C383.31 50.8493 381.426 48.5888 381.426 45.5749C381.426 41.6819 382.807 36.0308 382.807 29.1239C382.807 26.9891 384.691 25.1054 386.198 25.1054C386.575 25.1054 388.082 25.8588 388.961 26.4867C391.096 28.2449 392.979 28.9983 396.621 29.1239C401.77 29.3751 402.9 29.3751 406.919 29.3751ZM504.317 58.5096C504.317 60.2678 505.321 61.6491 506.2 61.6491C528.177 61.6491 532.447 61.5236 534.833 61.6491C535.335 61.6491 536.34 59.7654 536.34 59.2631C536.34 50.7237 536.34 43.6912 535.837 40.6773C535.461 38.4168 535.209 37.161 529.81 35.7797C525.163 34.5239 524.41 32.6402 524.41 31.7611C524.41 30.5053 526.67 28.9983 529.307 28.9983C534.456 28.9983 537.972 29.3751 542.744 29.3751C547.642 29.3751 560.2 28.9983 562.711 28.9983C565.223 28.9983 566.73 30.2541 566.73 31.7611C566.73 33.1425 565.223 34.5239 561.958 35.2773C558.065 36.1564 557.186 38.0401 556.809 41.054C556.307 44.6958 556.181 54.4911 556.181 65.4165C556.181 80.9885 556.558 85.3838 556.809 90.0302C557.186 96.0581 559.321 97.0627 563.214 98.0673C566.73 98.9464 567.986 100.453 567.986 101.835C567.986 103.467 565.977 104.849 563.214 104.849C560.828 104.849 556.056 104.472 551.409 104.472C544.879 104.472 534.079 105.1 530.312 105.1C527.8 105.1 525.414 104.095 525.414 102.086C525.414 100.83 526.544 99.8255 530.437 98.3185C535.084 96.5604 535.586 93.7976 535.963 91.7883C536.591 87.8954 536.842 77.7234 536.34 73.3281C535.963 70.1886 534.833 69.9374 534.707 69.9374C525.414 69.9374 507.582 70.3142 505.824 70.3142C504.945 70.3142 504.317 72.8258 504.317 73.4537C504.317 76.8443 504.442 89.0256 504.568 90.9093C504.945 95.179 505.447 97.1883 511.726 98.6952C513.233 99.072 515.745 100.705 515.745 102.337C515.745 104.472 513.986 104.974 510.847 104.974C507.205 104.974 498.163 104.472 492.763 104.472C488.745 104.472 481.461 105.1 477.694 105.1C475.057 105.1 472.922 103.718 472.922 102.211C472.922 100.83 475.182 99.4487 477.443 98.5697C482.717 96.4348 483.722 95.3046 483.973 89.9046C484.35 84.3791 484.35 70.4397 484.35 52.3562C484.35 42.9377 483.973 42.0587 483.722 40.5517C483.219 37.6634 481.712 35.9052 475.936 34.5239C474.554 34.1471 473.173 33.0169 473.173 31.6355C473.173 30.2541 475.936 28.8728 478.322 28.8728C484.475 28.8728 493.14 29.3751 496.531 29.3751C500.424 29.3751 502.935 29.1239 507.331 29.1239C509.34 29.1239 511.852 29.7518 511.852 32.0123C511.852 33.896 508.838 35.0262 507.331 35.5285C505.321 36.282 504.317 38.7936 504.317 41.9331C504.317 45.8261 504.317 50.4725 504.317 58.5096ZM605.909 29.3751H618.844C630.272 29.3751 632.03 29.3751 634.918 28.7472C636.299 28.496 637.178 29.2495 637.555 29.8774C638.309 31.1332 639.313 40.6773 639.313 43.44C639.313 46.7051 637.806 47.4586 637.053 47.4586C634.792 47.4586 633.537 46.0772 632.03 42.6866C629.644 37.5378 627.886 36.6587 626.881 36.6587C619.723 36.6587 612.816 37.0355 611.058 37.0355C610.43 37.0355 609.425 38.4168 609.425 38.9192C609.3 41.3052 609.049 50.3469 609.049 59.012C609.049 61.0212 609.425 62.277 610.053 62.4026C611.435 62.7794 615.83 62.6538 618.09 62.5282C623.741 62.1515 625.499 60.1422 626.881 57.0027C627.634 55.119 628.89 53.612 630.272 53.612C632.03 53.612 633.16 55.3701 632.909 59.012C632.783 60.5189 632.658 63.4073 632.658 66.2956C632.658 69.1839 632.909 72.0723 633.034 73.956C633.285 77.3466 631.402 78.8536 630.146 78.8536C629.016 78.8536 627.383 77.4722 626.253 74.9606C624.997 72.0723 624.62 71.1932 621.983 70.9421C616.834 70.5653 616.081 70.3142 610.43 70.3142C609.802 70.3142 609.049 72.0723 609.049 75.2118C609.049 78.6024 609.425 85.8861 609.551 88.6488C609.802 92.2907 610.304 93.672 610.681 94.1744C611.937 96.0581 617.965 97.6906 623.993 97.6906C626.002 97.6906 629.518 97.3139 632.406 95.6813C634.792 94.4255 636.048 92.9186 638.811 89.1512C640.82 86.3884 642.202 83.3745 644.211 83.3745C646.597 83.3745 647.35 87.0163 646.848 89.6535C646.095 93.2953 643.081 101.709 642.578 102.839C642.202 103.718 639.564 105.1 638.811 105.1C637.178 105.1 632.155 104.472 609.3 104.472C601.388 104.472 585.565 104.974 580.165 104.974C577.528 104.974 575.644 103.97 575.644 102.965C575.644 101.458 576.649 99.6999 579.286 98.9464C587.951 96.5604 588.202 93.672 588.453 91.4116C588.956 85.3838 589.081 82.7466 589.081 63.4073C589.081 44.0679 588.83 43.3145 588.453 41.054C587.825 37.2866 586.193 35.9052 581.17 34.6494C577.905 33.896 577.402 32.1378 577.402 31.2588C577.402 29.6262 579.914 28.7472 581.546 28.7472C583.681 28.7472 597.621 29.3751 605.909 29.3751Z" fill="white"/>
<path d="M178.399 129.615C178.399 128.534 179.634 126.99 182.414 126.99C188.589 126.99 200.94 128.226 210.821 128.226C212.211 128.226 214.372 129.306 214.835 129.924C217.46 133.475 222.246 138.57 229.657 146.598C237.84 155.398 262.388 181.336 265.784 183.188C266.247 183.343 267.482 183.034 267.637 182.571C268.563 178.402 268.563 163.581 268.1 152.928C267.637 142.429 268.409 138.415 256.366 135.636C252.661 134.71 251.271 132.085 251.271 131.159C251.271 130.078 252.97 127.762 256.675 127.762C262.233 127.762 261.924 127.917 265.939 127.917C272.268 127.917 284.002 127.145 287.09 127.145C290.332 127.145 292.494 128.071 292.494 130.696C292.494 132.394 291.258 133.475 286.318 135.636C279.988 138.415 279.062 140.114 278.907 142.121C278.598 149.223 277.363 181.027 277.363 191.371C277.363 198.164 277.981 204.957 277.981 212.059C277.981 218.544 276.746 223.33 273.967 223.33C269.026 223.33 265.012 220.551 262.079 217.154C256.366 210.67 249.11 202.178 244.787 197.392C238.92 190.599 214.835 164.97 208.042 157.56C207.579 157.096 206.498 158.023 206.498 158.64C206.344 162.037 206.035 162.5 206.035 169.139C206.035 176.086 206.344 189.982 206.498 194.15C206.962 206.192 208.969 209.898 214.372 212.059C219.622 214.066 221.32 215.765 221.32 217.926C221.32 219.779 219.622 220.86 216.071 220.86C211.748 220.86 206.498 220.242 199.242 220.242C191.986 220.242 188.126 220.86 186.119 220.86C181.487 220.86 179.943 219.161 179.943 217.617C179.943 215.61 181.796 214.221 184.575 213.294C191.677 210.979 194.456 210.515 195.228 200.171C196 189.827 197.235 152.928 197.235 147.987C197.235 147.061 196.463 143.819 194.456 141.503C191.214 137.798 188.435 135.945 184.884 135.173C181.333 134.401 178.399 132.548 178.399 129.615ZM300.115 130.696C300.115 128.534 302.894 127.145 307.989 127.145C312.775 127.145 324.355 127.917 329.449 127.917C336.243 127.917 343.499 127.454 345.66 127.454C349.675 127.454 352.454 129.615 352.454 131.159C352.454 133.012 348.903 135.019 346.587 135.636C339.639 137.489 338.713 139.496 338.25 146.752C337.632 155.089 337.632 166.514 338.404 179.792C339.176 193.224 342.109 200.326 345.352 203.105C349.675 206.81 356.005 209.589 362.489 209.589C374.377 209.589 383.949 203.877 385.956 187.202C386.728 181.027 386.883 164.353 386.883 155.398C386.883 139.342 386.728 138.106 375.766 135.482C372.679 134.71 370.054 133.475 370.054 130.85C370.054 129.615 372.216 127.454 376.384 127.454C379.472 127.454 384.412 127.917 390.279 127.917C395.837 127.917 402.167 127.145 407.571 127.145C410.504 127.145 413.592 128.071 413.592 130.696C413.592 132.703 410.967 134.247 407.88 135.327C400.778 137.952 399.697 139.187 398.771 146.752C398.462 148.605 397.844 161.574 397.227 173.462C395.837 198.473 390.742 206.347 383.177 213.758C376.847 219.933 366.04 223.021 355.387 223.021C342.881 223.021 329.449 219.161 322.965 210.515C314.319 199.091 313.702 187.202 313.702 169.602C313.702 151.075 313.393 148.759 313.084 144.128C312.621 137.952 311.54 137.18 305.828 135.482C302.74 134.555 300.115 133.32 300.115 130.696ZM422.378 131.622C422.378 129.924 424.694 127.299 428.09 127.299C431.95 127.299 456.344 127.917 457.27 127.917C458.042 127.917 460.203 130.541 460.358 130.85C460.975 133.012 462.982 136.717 466.225 144.282C469.621 152.156 481.509 178.557 485.06 182.88C485.06 183.034 486.45 183.652 486.913 182.571C492.008 171.609 498.801 157.405 503.896 145.672C506.829 138.878 507.91 134.555 509.145 131.159C509.454 130.233 511.152 128.226 512.078 128.226C514.703 128.226 536.935 127.145 541.876 127.145C543.42 127.145 546.971 128.689 546.971 130.85C546.971 132.703 545.581 133.629 542.493 134.555C532.612 137.489 532.303 138.261 532.303 142.275C532.303 164.198 533.384 181.953 534.002 198.01C534.465 210.67 537.707 211.596 542.956 212.831C547.742 213.912 549.286 215.61 549.286 217.463C549.286 219.007 546.353 221.168 543.111 221.168C541.258 221.168 523.966 220.242 516.556 220.242C509.608 220.242 505.748 220.86 502.043 220.86C498.183 220.86 497.103 217.617 497.103 216.537C497.103 215.301 499.573 214.066 500.345 213.758C507.91 211.133 509.299 209.28 509.454 200.789C509.608 196.775 509.299 168.984 509.763 154.163C509.763 153.391 508.682 153.545 507.91 154.935C505.903 158.64 492.471 190.908 489.229 198.627C487.53 202.641 485.06 210.052 482.899 215.301C481.355 218.852 478.576 221.323 475.179 221.323C473.79 221.323 471.474 218.698 470.702 216.073C468.386 208.508 465.298 201.098 463.909 197.083C457.116 177.939 450.94 166.205 447.08 156.788C446.463 155.244 445.228 155.553 445.228 156.633C443.992 174.388 443.22 192.143 443.22 200.017C443.22 209.28 444.301 209.743 452.484 212.986C455.88 214.375 457.424 215.301 457.424 217.309C457.424 219.007 455.263 220.86 451.712 220.86C449.55 220.86 443.992 220.242 439.515 220.242C434.575 220.242 423.304 221.168 421.297 221.168C418.364 221.168 415.585 219.624 415.585 217.617C415.585 216.228 416.974 214.684 420.679 213.449C428.399 210.979 430.869 207.891 431.95 201.406C433.803 190.753 437.354 154.781 437.662 146.752C437.971 138.415 435.655 137.335 427.936 135.173C424.076 134.092 422.378 132.857 422.378 131.622ZM642.68 149.223C642.68 154.472 640.982 158.486 638.203 161.419C637.74 161.883 631.564 165.897 629.403 166.823C628.94 166.977 628.94 168.676 629.711 168.984C639.438 172.535 648.856 179.792 648.856 192.297C648.856 206.964 637.585 214.684 628.631 218.08C622.301 220.551 609.641 221.323 605.935 221.323C596.209 221.323 587.1 220.551 580.924 220.396C575.675 220.242 565.022 220.705 562.089 220.705C559.001 220.705 556.685 219.779 556.685 217.617C556.685 216.382 558.383 213.603 562.397 212.831C569.654 211.287 571.661 208.971 572.124 204.957C572.433 202.178 573.205 193.841 573.205 174.851C573.205 159.258 572.896 147.061 572.587 143.973C572.124 138.57 571.506 136.871 563.015 135.327C561.317 135.019 557.92 132.857 557.92 131.005C557.92 128.997 561.934 127.762 563.633 127.762H578.3C583.858 127.762 598.679 126.682 609.023 126.682C620.294 126.682 630.483 129.615 634.498 132.857C639.901 137.026 642.68 142.893 642.68 149.223ZM619.831 151.847C619.831 141.503 611.648 134.864 602.693 134.864C602.23 134.864 598.988 135.327 598.37 135.636C597.753 135.945 597.444 136.408 597.29 137.952C596.826 148.296 596.518 162.191 597.29 164.507C597.753 166.051 598.679 167.286 601.767 167.286C606.399 167.286 614.272 165.125 615.662 163.735C617.052 162.346 619.831 159.258 619.831 151.847ZM622.764 194.15C622.764 180.101 612.265 174.543 604.392 174.543C603.002 174.543 600.069 174.851 598.833 175.623C598.679 175.778 597.135 177.939 596.981 179.02C596.209 183.034 597.29 200.326 598.062 204.34C598.833 208.508 603.774 213.294 608.714 213.294C615.044 213.294 620.294 206.501 620.911 204.494C621.838 201.561 622.764 197.547 622.764 194.15ZM697.775 127.917H713.677C727.726 127.917 729.888 127.917 733.439 127.145C735.137 126.836 736.218 127.762 736.681 128.534C737.607 130.078 738.842 141.812 738.842 145.208C738.842 149.223 736.99 150.149 736.063 150.149C733.284 150.149 731.74 148.451 729.888 144.282C726.954 137.952 724.793 136.871 723.558 136.871C714.757 136.871 706.266 137.335 704.105 137.335C703.333 137.335 702.097 139.033 702.097 139.65C701.943 142.584 701.634 153.7 701.634 164.353C701.634 166.823 702.097 168.367 702.869 168.521C704.568 168.984 709.971 168.83 712.75 168.676C719.698 168.213 721.859 165.742 723.558 161.883C724.484 159.567 726.028 157.714 727.726 157.714C729.888 157.714 731.277 159.875 730.968 164.353C730.814 166.205 730.66 169.756 730.66 173.307C730.66 176.858 730.968 180.409 731.123 182.725C731.432 186.894 729.116 188.746 727.572 188.746C726.182 188.746 724.175 187.048 722.786 183.96C721.242 180.409 720.779 179.329 717.536 179.02C711.206 178.557 710.28 178.248 703.333 178.248C702.561 178.248 701.634 180.409 701.634 184.269C701.634 188.438 702.097 197.392 702.252 200.789C702.561 205.266 703.178 206.964 703.641 207.582C705.185 209.898 712.596 211.905 720.007 211.905C722.477 211.905 726.8 211.442 730.351 209.435C733.284 207.891 734.828 206.038 738.225 201.406C740.695 198.01 742.393 194.304 744.864 194.304C747.797 194.304 748.723 198.782 748.106 202.024C747.179 206.501 743.474 216.845 742.856 218.235C742.393 219.316 739.151 221.014 738.225 221.014C736.218 221.014 730.042 220.242 701.943 220.242C692.217 220.242 672.763 220.86 666.125 220.86C662.882 220.86 660.567 219.624 660.567 218.389C660.567 216.537 661.802 214.375 665.044 213.449C675.697 210.515 676.006 206.964 676.314 204.185C676.932 196.775 677.086 193.532 677.086 169.756C677.086 145.98 676.778 145.054 676.314 142.275C675.542 137.643 673.535 135.945 667.36 134.401C663.346 133.475 662.728 131.313 662.728 130.233C662.728 128.226 665.816 127.145 667.823 127.145C670.448 127.145 687.585 127.917 697.775 127.917ZM846.251 152.156C846.251 158.023 843.317 164.662 839.303 168.058C836.987 170.065 834.826 170.528 831.584 172.381C830.812 172.844 831.584 175.778 832.047 176.704C835.443 183.497 842.391 194.922 848.258 202.333C853.661 209.126 858.448 211.75 863.234 213.603C864.777 214.221 866.785 215.61 866.785 217C866.785 221.014 861.844 222.249 857.676 222.249C845.324 222.249 833.436 221.014 822.629 206.964C817.071 199.708 812.902 191.989 808.58 185.041C806.109 181.027 803.948 180.255 801.478 180.255C800.397 180.255 800.242 182.108 800.242 182.571C800.242 194.922 800.242 198.627 800.706 204.031C801.169 209.589 802.713 209.743 808.888 212.677C811.667 214.066 813.52 215.765 813.52 217C813.52 218.698 810.278 220.86 807.653 220.86C803.793 220.86 791.905 220.242 786.502 220.242C781.716 220.242 774.459 220.86 768.747 220.86C765.042 220.86 762.88 219.007 762.88 217.463C762.88 215.301 765.042 213.758 767.975 212.986C774.305 211.133 775.849 209.898 776.158 202.178C776.312 196.62 776.312 193.841 776.312 166.051C776.312 147.061 775.849 146.135 775.54 142.893C775.231 139.805 773.842 136.717 767.975 135.636C765.042 135.019 763.189 132.703 763.189 131.622C763.189 128.997 766.277 127.608 769.982 127.608C777.856 127.608 780.481 127.917 782.488 127.917C792.677 127.917 801.169 126.99 811.976 126.99C825.562 126.99 832.664 129.924 836.37 132.703C843.009 137.798 846.251 143.973 846.251 152.156ZM822.475 154.781C822.475 145.054 815.836 135.482 804.72 135.482C804.102 135.482 801.786 136.099 800.86 136.717C800.397 137.026 799.934 137.798 799.934 139.187C799.934 143.51 800.242 157.868 800.242 168.213C800.242 168.83 800.86 170.683 801.478 170.992C803.639 171.918 805.646 172.381 808.271 172.381C811.667 172.381 817.225 168.83 818.152 168.213C819.078 167.595 822.475 162.191 822.475 154.781ZM913.404 124.983C922.05 124.983 930.233 127.762 936.254 129.152C937.18 129.306 938.261 131.776 938.261 133.475C938.261 135.327 939.342 143.819 939.342 146.135C939.342 151.384 936.872 153.545 934.71 153.545C933.012 153.545 931.622 150.921 931.159 149.686C927.763 140.422 919.734 132.085 910.934 132.085C904.45 132.085 898.583 138.106 898.583 143.973C898.583 150.921 903.678 156.016 912.478 160.493C931.931 170.374 943.356 179.02 943.356 193.687C943.356 206.347 934.71 213.449 929.152 216.845C923.131 220.396 912.941 223.021 905.839 223.021C892.716 223.021 885.151 220.242 881.6 218.852C880.519 218.389 878.049 217 877.277 215.301C874.652 209.743 874.189 201.715 874.189 198.01C874.189 195.076 875.733 191.371 878.203 191.371C879.902 191.371 881.909 193.224 884.07 197.238C889.783 207.736 898.274 215.301 907.846 215.301C913.404 215.301 920.352 211.442 920.352 204.34C920.352 199.708 920.661 194.613 904.913 186.122C884.688 175.314 876.814 166.977 876.814 152.619C876.814 142.584 883.916 134.401 891.327 130.233C897.193 126.99 904.604 124.983 913.404 124.983Z" fill="white"/>
<path d="M85.8865 192.141V189.641H83.3865V192.141H85.8865ZM100.875 192.141H103.375V189.641H100.875V192.141ZM100.875 240.684V243.184H103.375V240.684H100.875ZM98.8244 240.684L97.2399 242.618L97.931 243.184H98.8244V240.684ZM78.208 225.432L76.7895 227.491L76.7913 227.492L78.208 225.432ZM42.8131 215.177L44.501 217.021L44.5094 217.013L44.5178 217.005L42.8131 215.177ZM48.8612 239.738V242.238H54.688L50.673 238.015L48.8612 239.738ZM33.4516 239.738L31.3543 241.098L32.0934 242.238H33.4516V239.738ZM32.0315 202.134L33.8914 203.804L33.8983 203.797L32.0315 202.134ZM85.8865 215.808L84.3373 217.77L88.3865 220.967V215.808H85.8865ZM85.8865 194.641H100.875V189.641H85.8865V194.641ZM98.3755 192.141V240.684H103.375V192.141H98.3755ZM100.875 238.184H98.8244V243.184H100.875V238.184ZM100.409 238.75C94.9025 234.239 87.9695 229.112 79.6247 223.372L76.7913 227.492C85.0658 233.183 91.8771 238.224 97.2399 242.618L100.409 238.75ZM79.6265 223.374C71.2977 217.635 65.1831 213.867 61.4192 212.249L59.4441 216.842C62.6926 218.239 68.4288 221.73 76.7895 227.491L79.6265 223.374ZM61.4192 212.249C57.6499 210.628 53.9135 209.784 50.2286 209.784V214.784C53.1355 214.784 56.201 215.448 59.4441 216.842L61.4192 212.249ZM50.2286 209.784C46.7325 209.784 43.6483 210.98 41.1084 213.348L44.5178 217.005C46.1151 215.516 47.9746 214.784 50.2286 214.784V209.784ZM41.1252 213.332C38.5618 215.679 37.2101 218.635 37.2101 222.066H42.2101C42.2101 220.098 42.9271 218.461 44.501 217.021L41.1252 213.332ZM37.2101 222.066C37.2101 228.379 40.7778 234.864 47.0495 241.46L50.673 238.015C44.7432 231.778 42.2101 226.482 42.2101 222.066H37.2101ZM48.8612 237.238H33.4516V242.238H48.8612V237.238ZM35.5488 238.377C31.0674 231.469 28.9567 225.082 28.9567 219.174H23.9567C23.9567 226.308 26.5092 233.63 31.3543 241.098L35.5488 238.377ZM28.9567 219.174C28.9567 212.379 30.6979 207.359 33.8914 203.804L30.1717 200.463C25.9321 205.183 23.9567 211.523 23.9567 219.174H28.9567ZM33.8983 203.797C37.0625 200.244 41.4364 198.375 47.336 198.375V193.375C40.2628 193.375 34.4337 195.678 30.1648 200.471L33.8983 203.797ZM47.336 198.375C51.196 198.375 56.2096 199.838 62.4784 203.079C68.7119 206.302 75.9939 211.182 84.3373 217.77L87.4358 213.846C78.9495 207.145 71.3916 202.059 64.7749 198.638C58.1935 195.235 52.3467 193.375 47.336 193.375V198.375ZM88.3865 215.808V192.141H83.3865V215.808H88.3865ZM36.5019 139.075L37.8633 141.172L37.8709 141.167L36.5019 139.075ZM91.7769 138.865L90.439 140.976L91.7769 138.865ZM91.8295 175.732L93.2112 177.816L93.2188 177.811L91.8295 175.732ZM36.3967 175.627L34.9874 177.692L34.9898 177.693L36.3967 175.627ZM82.731 150.856L83.6113 148.516L83.6038 148.513L82.731 150.856ZM45.3375 150.856L46.2285 153.192L46.2431 153.186L46.2576 153.18L45.3375 150.856ZM45.2323 163.951L44.2622 166.255L44.2743 166.26L45.2323 163.951ZM82.6784 163.951L83.5637 166.289L83.5774 166.284L83.5911 166.279L82.6784 163.951ZM28.9567 157.272C28.9567 150.361 31.8545 145.073 37.8632 141.172L35.1406 136.978C27.7558 141.772 23.9567 148.616 23.9567 157.272H28.9567ZM37.8709 141.167C44.0194 137.143 52.5813 135.001 63.7976 135.001V130.001C52.0133 130.001 42.3781 132.241 35.1329 136.983L37.8709 141.167ZM63.7976 135.001C75.5042 135.001 84.297 137.085 90.439 140.976L93.1148 136.753C85.8632 132.159 76.0031 130.001 63.7976 130.001V135.001ZM90.439 140.976C96.4166 144.763 99.3222 150.034 99.3222 157.062H104.322C104.322 148.311 100.531 141.451 93.1148 136.753L90.439 140.976ZM99.3222 157.062C99.3222 164.219 96.4099 169.663 90.4403 173.654L93.2188 177.811C100.573 172.895 104.322 165.893 104.322 157.062H99.3222ZM90.4478 173.649C84.3469 177.694 75.6749 179.859 64.1657 179.859V184.859C76.2181 184.859 85.9886 182.605 93.2112 177.816L90.4478 173.649ZM64.1657 179.859C52.5127 179.859 43.822 177.658 37.8037 173.56L34.9898 177.693C42.1547 182.572 51.9767 184.859 64.1657 184.859V179.859ZM37.8061 173.562C31.8292 169.483 28.9567 164.121 28.9567 157.272H23.9567C23.9567 165.851 27.7109 172.725 34.9874 177.692L37.8061 173.562ZM90.5429 157.272C90.5429 155.256 89.9207 153.411 88.6406 151.865C87.3949 150.36 85.6477 149.282 83.6113 148.516L81.8506 153.196C83.3555 153.762 84.2642 154.419 84.7892 155.053C85.2797 155.646 85.5429 156.343 85.5429 157.272H90.5429ZM83.6038 148.513C79.5524 147.004 72.4291 146.357 62.6405 146.357V151.357C72.4866 151.357 78.757 152.043 81.8582 153.198L83.6038 148.513ZM62.6405 146.357C54.4532 146.357 48.2632 147.009 44.4174 148.531L46.2576 153.18C49.1437 152.038 54.4891 151.357 62.6405 151.357V146.357ZM44.4465 148.52C42.453 149.28 40.7487 150.376 39.5423 151.919C38.3116 153.492 37.736 155.356 37.736 157.377H42.736C42.736 156.348 43.0107 155.6 43.4805 154.999C43.9746 154.368 44.821 153.728 46.2285 153.192L44.4465 148.52ZM37.736 157.377C37.736 159.366 38.3034 161.201 39.4947 162.769C40.6627 164.306 42.316 165.436 44.2622 166.255L46.2025 161.647C44.8178 161.064 43.9729 160.398 43.4755 159.743C43.0013 159.119 42.736 158.369 42.736 157.377H37.736ZM44.2743 166.26C46.2601 167.084 49.0105 167.627 52.3623 167.976C55.7573 168.33 59.9442 168.502 64.902 168.502V163.502C60.0425 163.502 56.0425 163.333 52.8809 163.003C49.6762 162.669 47.5004 162.186 46.1904 161.642L44.2743 166.26ZM64.902 168.502C73.1797 168.502 79.4979 167.829 83.5637 166.289L81.7931 161.613C78.6361 162.809 73.1034 163.502 64.902 163.502V168.502ZM83.5911 166.279C85.6503 165.471 87.4054 164.346 88.6509 162.795C89.9267 161.207 90.5429 159.325 90.5429 157.272H85.5429C85.5429 158.27 85.2649 159.026 84.7526 159.664C84.21 160.34 83.2828 161.029 81.7657 161.624L83.5911 166.279ZM85.8865 73.2814V70.7814H83.3865V73.2814H85.8865ZM100.875 73.2814H103.375V70.7814H100.875V73.2814ZM100.875 121.825V124.325H103.375V121.825H100.875ZM98.8244 121.825L97.2399 123.758L97.931 124.325H98.8244V121.825ZM78.208 106.573L76.7895 108.631L76.7913 108.632L78.208 106.573ZM42.8131 96.317L44.501 98.1612L44.5094 98.1535L44.5178 98.1457L42.8131 96.317ZM48.8612 120.878V123.378H54.688L50.673 119.155L48.8612 120.878ZM33.4516 120.878L31.3543 122.239L32.0934 123.378H33.4516V120.878ZM32.0315 83.274L33.8914 84.9447L33.8983 84.9369L32.0315 83.274ZM85.8865 96.9481L84.3373 98.9102L88.3865 102.107V96.9481H85.8865ZM85.8865 75.7814H100.875V70.7814H85.8865V75.7814ZM98.3755 73.2814V121.825H103.375V73.2814H98.3755ZM100.875 119.325H98.8244V124.325H100.875V119.325ZM100.409 119.891C94.9025 115.379 87.9695 110.252 79.6247 104.513L76.7913 108.632C85.0658 114.323 91.8771 119.364 97.2399 123.758L100.409 119.891ZM79.6265 104.514C71.2977 98.7749 65.1831 95.0077 61.4192 93.3892L59.4441 97.9826C62.6926 99.3794 68.4288 102.87 76.7895 108.631L79.6265 104.514ZM61.4192 93.3892C57.6499 91.7684 53.9135 90.9244 50.2286 90.9244V95.9244C53.1355 95.9244 56.201 96.5881 59.4441 97.9826L61.4192 93.3892ZM50.2286 90.9244C46.7325 90.9244 43.6483 92.1206 41.1084 94.4883L44.5178 98.1457C46.1151 96.6566 47.9746 95.9244 50.2286 95.9244V90.9244ZM41.1252 94.4728C38.5618 96.819 37.2101 99.7753 37.2101 103.207H42.2101C42.2101 101.239 42.9271 99.6017 44.501 98.1612L41.1252 94.4728ZM37.2101 103.207C37.2101 109.52 40.7778 116.004 47.0495 122.6L50.673 119.155C44.7432 112.919 42.2101 107.623 42.2101 103.207H37.2101ZM48.8612 118.378H33.4516V123.378H48.8612V118.378ZM35.5488 119.517C31.0674 112.61 28.9567 106.223 28.9567 100.314H23.9567C23.9567 107.448 26.5092 114.771 31.3543 122.239L35.5488 119.517ZM28.9567 100.314C28.9567 93.5191 30.6979 88.4996 33.8914 84.9447L30.1717 81.6033C25.9321 86.323 23.9567 92.6636 23.9567 100.314H28.9567ZM33.8983 84.9369C37.0625 81.3847 41.4364 79.5155 47.336 79.5155V74.5155C40.2628 74.5155 34.4337 76.8186 30.1648 81.6112L33.8983 84.9369ZM47.336 79.5155C51.196 79.5155 56.2096 80.978 62.4784 84.2193C68.7119 87.4424 75.9939 92.3224 84.3373 98.9102L87.4358 94.986C78.9495 88.2854 71.3916 83.1991 64.7749 79.7779C58.1935 76.375 52.3467 74.5155 47.336 74.5155V79.5155ZM88.3865 96.9481V73.2814H83.3865V96.9481H88.3865ZM69.2146 46.3539V48.8539H71.6166L71.7126 46.4538L69.2146 46.3539ZM56.2768 46.3539H53.7768V48.8539H56.2768V46.3539ZM53.6998 39.0435L51.8641 40.7406L51.8722 40.7494L51.8803 40.758L53.6998 39.0435ZM42.6027 60.1332V62.6332H46.6088L44.8484 59.0346L42.6027 60.1332ZM29.6649 60.1332L27.3756 61.1378L28.0319 62.6332H29.6649V60.1332ZM31.5056 26.3686L33.4825 27.8991L33.4902 27.889L31.5056 26.3686ZM61.4309 30.7338L59.241 31.9399L61.8133 36.6105L63.7586 31.6459L61.4309 30.7338ZM95.9844 24.9486L97.9154 23.3609L97.9084 23.3524L95.9844 24.9486ZM97.6673 61.9739V64.4739H99.208L99.9005 63.0977L97.6673 61.9739ZM83.4147 61.9739L81.369 60.5368L78.6031 64.4739H83.4147V61.9739ZM86.5703 38.1494L88.4882 36.5459L88.4806 36.5367L88.4728 36.5276L86.5703 38.1494ZM72.3176 38.0442L74.1317 39.7645L74.139 39.7567L74.1463 39.7489L72.3176 38.0442ZM69.2146 43.8539H56.2768V48.8539H69.2146V43.8539ZM58.7768 46.3539C58.7768 42.8126 57.7654 39.7127 55.5192 37.329L51.8803 40.758C53.0702 42.0207 53.7768 43.7944 53.7768 46.3539H58.7768ZM55.5355 37.3464C53.3769 35.0116 50.6744 33.7561 47.5464 33.7561V38.7561C49.1868 38.7561 50.5866 39.3588 51.8641 40.7406L55.5355 37.3464ZM47.5464 33.7561C44.314 33.7561 41.5822 35.0964 39.5138 37.6144L43.3775 40.7881C44.5348 39.3792 45.8702 38.7561 47.5464 38.7561V33.7561ZM39.5138 37.6144C37.4679 40.1051 36.5264 43.1882 36.5264 46.6694H41.5264C41.5264 44.1201 42.1977 42.2243 43.3775 40.7881L39.5138 37.6144ZM36.5264 46.6694C36.5264 51.2548 37.8571 56.1218 40.357 61.2318L44.8484 59.0346C42.5798 54.3974 41.5264 50.2886 41.5264 46.6694H36.5264ZM42.6027 57.6332H29.6649V62.6332H42.6027V57.6332ZM31.9541 59.1286C29.9777 54.6249 28.9567 49.3847 28.9567 43.3561H23.9567C23.9567 49.9498 25.0745 55.8943 27.3756 61.1378L31.9541 59.1286ZM28.9567 43.3561C28.9567 36.7817 30.5378 31.7025 33.4824 27.8991L29.5288 24.8382C25.7416 29.7301 23.9567 35.9759 23.9567 43.3561H28.9567ZM33.4902 27.889C36.367 24.134 39.9578 22.3471 44.4434 22.3471V17.3471C38.3404 17.3471 33.306 19.908 29.5211 24.8482L33.4902 27.889ZM44.4434 22.3471C50.7242 22.3471 55.6138 25.3536 59.241 31.9399L63.6208 29.5278C59.2539 21.5984 52.8185 17.3471 44.4434 17.3471V22.3471ZM63.7586 31.6459C65.2974 27.7186 67.4338 24.9441 70.0848 23.1349C72.7357 21.3257 76.0966 20.3486 80.3117 20.3486V15.3486C75.3055 15.3486 70.909 16.519 67.2663 19.005C63.6238 21.4908 60.9303 25.1589 59.1032 29.8218L63.7586 31.6459ZM80.3117 20.3486C86.1408 20.3486 90.6402 22.4225 94.0603 26.5449L97.9084 23.3524C93.4746 18.0081 87.5257 15.3486 80.3117 15.3486V20.3486ZM94.0533 26.5364C97.4795 30.7034 99.3222 36.4319 99.3222 43.9872H104.322C104.322 35.6244 102.273 28.6606 97.9154 23.3609L94.0533 26.5364ZM99.3222 43.9872C99.3222 50.1045 98.0193 55.7125 95.4341 60.8502L99.9005 63.0977C102.855 57.226 104.322 50.8428 104.322 43.9872H99.3222ZM97.6673 59.4739H83.4147V64.4739H97.6673V59.4739ZM85.4603 63.4111C89.5309 57.6169 91.7525 51.9486 91.7525 46.4591H86.7525C86.7525 50.5765 85.0822 55.2514 81.369 60.5368L85.4603 63.4111ZM91.7525 46.4591C91.7525 42.6056 90.7301 39.2273 88.4882 36.5459L84.6523 39.753C85.9867 41.3491 86.7525 43.5105 86.7525 46.4591H91.7525ZM88.4728 36.5276C86.1622 33.817 83.1107 32.4413 79.5228 32.4413V37.4413C81.6851 37.4413 83.3319 38.2043 84.6677 39.7713L88.4728 36.5276ZM79.5228 32.4413C75.9674 32.4413 72.8991 33.7541 70.4889 36.3395L74.1463 39.7489C75.593 38.197 77.3282 37.4413 79.5228 37.4413V32.4413ZM70.5036 36.324C68.0612 38.8995 66.8748 42.3006 66.7166 46.254L71.7126 46.4538C71.835 43.3949 72.7172 41.2561 74.1317 39.7645L70.5036 36.324Z" fill="white"/>
<path d="M154.365 11.812L154.155 243.842" stroke="white" stroke-width="2" stroke-miterlimit="10" stroke-linecap="round"/>
</svg>
