<svg width="787" height="253" viewBox="0 0 787 253" fill="none" xmlns="http://www.w3.org/2000/svg">
<path d="M62.6407 181.601V179.101H60.1407V181.601H62.6407ZM77.6296 181.601H80.1296V179.101H77.6296V181.601ZM77.6296 230.144V232.644H80.1296V230.144H77.6296ZM75.5786 230.144L73.9941 232.078L74.6852 232.644H75.5786V230.144ZM54.9622 214.892L53.5437 216.951L53.5455 216.952L54.9622 214.892ZM19.5673 204.637L21.2552 206.481L21.2636 206.473L21.272 206.465L19.5673 204.637ZM25.6154 229.197V231.697H31.4422L27.4272 227.475L25.6154 229.197ZM10.2058 229.197L8.10854 230.558L8.84764 231.697H10.2058V229.197ZM8.78574 191.594L10.6456 193.264L10.6525 193.256L8.78574 191.594ZM62.6407 205.268L61.0915 207.23L65.1407 210.427V205.268H62.6407ZM62.6407 184.101H77.6296V179.101H62.6407V184.101ZM75.1297 181.601V230.144H80.1296V181.601H75.1297ZM77.6296 227.644H75.5786V232.644H77.6296V227.644ZM77.163 228.21C71.6567 223.699 64.7237 218.572 56.3789 212.832L53.5455 216.952C61.82 222.643 68.6313 227.684 73.9941 232.078L77.163 228.21ZM56.3807 212.834C48.0519 207.094 41.9373 203.327 38.1734 201.709L36.1983 206.302C39.4467 207.699 45.183 211.19 53.5437 216.951L56.3807 212.834ZM38.1734 201.709C34.4041 200.088 30.6677 199.244 26.9828 199.244V204.244C29.8897 204.244 32.9552 204.908 36.1983 206.302L38.1734 201.709ZM26.9828 199.244C23.4867 199.244 20.4025 200.44 17.8626 202.808L21.272 206.465C22.8693 204.976 24.7288 204.244 26.9828 204.244V199.244ZM17.8794 202.792C15.316 205.139 13.9643 208.095 13.9643 211.526H18.9643C18.9643 209.558 19.6813 207.921 21.2552 206.481L17.8794 202.792ZM13.9643 211.526C13.9643 217.839 17.532 224.324 23.8037 230.92L27.4272 227.475C21.4974 221.238 18.9643 215.942 18.9643 211.526H13.9643ZM25.6154 226.697H10.2058V231.697H25.6154V226.697ZM12.303 227.837C7.82164 220.929 5.71094 214.542 5.71094 208.634H0.710938C0.710938 215.768 3.26344 223.09 8.10854 230.558L12.303 227.837ZM5.71094 208.634C5.71094 201.839 7.45224 196.819 10.6456 193.264L6.92594 189.923C2.68634 194.643 0.710938 200.983 0.710938 208.634H5.71094ZM10.6525 193.256C13.8167 189.704 18.1906 187.835 24.0902 187.835V182.835C17.017 182.835 11.1879 185.138 6.91904 189.931L10.6525 193.256ZM24.0902 187.835C27.9502 187.835 32.9638 189.298 39.2326 192.539C45.4661 195.762 52.7481 200.642 61.0915 207.23L64.19 203.306C55.7037 196.605 48.1458 191.519 41.5291 188.098C34.9477 184.695 29.1009 182.835 24.0902 182.835V187.835ZM65.1407 205.268V181.601H60.1407V205.268H65.1407ZM13.2561 128.535L14.6175 130.632L14.6251 130.627L13.2561 128.535ZM68.5837 165.192L69.9654 167.276L69.973 167.27L68.5837 165.192ZM13.1509 165.087L11.7416 167.152L11.744 167.153L13.1509 165.087ZM59.4852 140.316L60.3655 137.976L60.358 137.973L59.4852 140.316ZM22.0917 140.316L22.9827 142.651L22.9973 142.646L23.0118 142.64L22.0917 140.316ZM21.9865 153.411L21.0164 155.715L21.0285 155.72L21.9865 153.411ZM59.4326 153.411L60.3179 155.749L60.3316 155.744L60.3453 155.739L59.4326 153.411ZM5.71094 146.732C5.71094 139.821 8.60884 134.533 14.6175 130.632L11.8948 126.438C4.51004 131.232 0.710938 138.076 0.710938 146.732H5.71094ZM14.6251 130.627C20.7736 126.603 29.3355 124.461 40.5518 124.461V119.461C28.7675 119.461 19.1323 121.701 11.8871 126.443L14.6251 130.627ZM40.5518 124.461C52.2584 124.461 61.0512 126.545 67.1932 130.436L69.869 126.213C62.6174 121.619 52.7573 119.461 40.5518 119.461V124.461ZM67.1932 130.436C73.1708 134.223 76.0764 139.494 76.0764 146.522H81.0766C81.0766 137.771 77.2846 130.911 69.869 126.213L67.1932 130.436ZM76.0764 146.522C76.0764 153.679 73.1641 159.123 67.1945 163.114L69.973 167.27C77.3266 162.355 81.0766 155.353 81.0766 146.522H76.0764ZM67.202 163.109C61.1011 167.154 52.4291 169.319 40.9199 169.319V174.319C52.9723 174.319 62.7428 172.065 69.9654 167.276L67.202 163.109ZM40.9199 169.319C29.2669 169.319 20.5762 167.118 14.5579 163.02L11.744 167.153C18.9089 172.032 28.7309 174.319 40.9199 174.319V169.319ZM14.5603 163.022C8.58344 158.942 5.71094 153.581 5.71094 146.732H0.710938C0.710938 155.311 4.46514 162.185 11.7416 167.152L14.5603 163.022ZM67.297 146.732C67.297 144.715 66.6749 142.871 65.3948 141.325C64.1491 139.82 62.4019 138.742 60.3655 137.976L58.6048 142.656C60.1097 143.222 61.0184 143.879 61.5434 144.513C62.0339 145.106 62.297 145.803 62.297 146.732H67.297ZM60.358 137.973C56.3066 136.464 49.1833 135.817 39.3947 135.817V140.817C49.2408 140.817 55.5112 141.503 58.6124 142.658L60.358 137.973ZM39.3947 135.817C31.2074 135.817 25.0174 136.469 21.1716 137.991L23.0118 142.64C25.8979 141.498 31.2433 140.817 39.3947 140.817V135.817ZM21.2007 137.98C19.2072 138.74 17.5029 139.836 16.2965 141.379C15.0658 142.952 14.4902 144.816 14.4902 146.837H19.4902C19.4902 145.808 19.7649 145.06 20.2347 144.459C20.7288 143.828 21.5752 143.188 22.9827 142.651L21.2007 137.98ZM14.4902 146.837C14.4902 148.826 15.0576 150.661 16.2489 152.229C17.4169 153.765 19.0702 154.896 21.0164 155.715L22.9567 151.107C21.572 150.524 20.7271 149.858 20.2297 149.203C19.7555 148.579 19.4902 147.829 19.4902 146.837H14.4902ZM21.0285 155.72C23.0143 156.544 25.7647 157.087 29.1165 157.436C32.5115 157.79 36.6984 157.962 41.6562 157.962V152.962C36.7967 152.962 32.7967 152.793 29.6351 152.463C26.4303 152.129 24.2546 151.646 22.9446 151.102L21.0285 155.72ZM41.6562 157.962C49.9339 157.962 56.2521 157.289 60.3179 155.749L58.5473 151.073C55.3903 152.269 49.8576 152.962 41.6562 152.962V157.962ZM60.3453 155.739C62.4045 154.931 64.1596 153.806 65.4051 152.255C66.6809 150.667 67.297 148.785 67.297 146.732H62.297C62.297 147.73 62.0191 148.486 61.5068 149.124C60.9642 149.8 60.037 150.489 58.5199 151.084L60.3453 155.739ZM62.6407 62.7414V60.2414H60.1407V62.7414H62.6407ZM77.6296 62.7414H80.1296V60.2414H77.6296V62.7414ZM77.6296 111.284V113.784H80.1296V111.284H77.6296ZM75.5786 111.284L73.9941 113.218L74.6852 113.784H75.5786V111.284ZM54.9622 96.0331L53.5437 98.0911L53.5455 98.0921L54.9622 96.0331ZM19.5673 85.7771L21.2552 87.6211L21.2636 87.6131L21.272 87.6061L19.5673 85.7771ZM25.6154 110.338V112.838H31.4422L27.4272 108.615L25.6154 110.338ZM10.2058 110.338L8.10854 111.698L8.84764 112.838H10.2058V110.338ZM8.78574 72.734L10.6456 74.4047L10.6525 74.3969L8.78574 72.734ZM62.6407 86.4081L61.0915 88.3701L65.1407 91.5671V86.4081H62.6407ZM62.6407 65.2414H77.6296V60.2414H62.6407V65.2414ZM75.1297 62.7414V111.284H80.1296V62.7414H75.1297ZM77.6296 108.784H75.5786V113.784H77.6296V108.784ZM77.163 109.351C71.6567 104.839 64.7237 99.7121 56.3789 93.9731L53.5455 98.0921C61.82 103.783 68.6313 108.824 73.9941 113.218L77.163 109.351ZM56.3807 93.9741C48.0519 88.2351 41.9373 84.4681 38.1734 82.8491L36.1983 87.4421C39.4467 88.8391 45.183 92.3301 53.5437 98.0911L56.3807 93.9741ZM38.1734 82.8491C34.4041 81.2281 30.6677 80.3841 26.9828 80.3841V85.3841C29.8897 85.3841 32.9552 86.0481 36.1983 87.4421L38.1734 82.8491ZM26.9828 80.3841C23.4867 80.3841 20.4025 81.5811 17.8626 83.9481L21.272 87.6061C22.8693 86.1171 24.7288 85.3841 26.9828 85.3841V80.3841ZM17.8794 83.9331C15.316 86.2791 13.9643 89.2351 13.9643 92.6671H18.9643C18.9643 90.6981 19.6813 89.0621 21.2552 87.6211L17.8794 83.9331ZM13.9643 92.6671C13.9643 98.9801 17.532 105.464 23.8037 112.06L27.4272 108.615C21.4974 102.379 18.9643 97.0821 18.9643 92.6671H13.9643ZM25.6154 107.838H10.2058V112.838H25.6154V107.838ZM12.303 108.977C7.82164 102.07 5.71094 95.6831 5.71094 89.7741H0.710938C0.710938 96.9081 3.26344 104.231 8.10854 111.698L12.303 108.977ZM5.71094 89.7741C5.71094 82.9791 7.45224 77.9597 10.6456 74.4047L6.92594 71.0634C2.68634 75.783 0.710938 82.1241 0.710938 89.7741H5.71094ZM10.6525 74.3969C13.8167 70.8447 18.1906 68.9755 24.0902 68.9755V63.9755C17.017 63.9755 11.1879 66.2786 6.91904 71.0712L10.6525 74.3969ZM24.0902 68.9755C27.9502 68.9755 32.9638 70.4381 39.2326 73.6794C45.4661 76.9024 52.7481 81.7821 61.0915 88.3701L64.19 84.4461C55.7037 77.7454 48.1458 72.6591 41.5291 69.2379C34.9477 65.835 29.1009 63.9755 24.0902 63.9755V68.9755ZM65.1407 86.4081V62.7414H60.1407V86.4081H65.1407ZM45.9688 35.8139V38.3139H48.3708L48.4668 35.9138L45.9688 35.8139ZM33.031 35.8139H30.531V38.3139H33.031V35.8139ZM30.454 28.5035L28.6183 30.2007L28.6264 30.2094L28.6345 30.218L30.454 28.5035ZM19.3569 49.5932V52.0932H23.363L21.6026 48.4946L19.3569 49.5932ZM6.41914 49.5932L4.12984 50.5979L4.78614 52.0932H6.41914V49.5932ZM8.25984 15.8287L10.2367 17.3591L10.2443 17.3491L8.25984 15.8287ZM38.1851 20.1939L35.9952 21.3999L38.5675 26.0705L40.5128 21.1059L38.1851 20.1939ZM72.7386 14.4087L74.6696 12.8209L74.6626 12.8124L72.7386 14.4087ZM74.4215 51.434V53.934H75.9622L76.6547 52.5577L74.4215 51.434ZM60.1689 51.434L58.1232 49.9968L55.3573 53.934H60.1689V51.434ZM63.3245 27.6094L65.2424 26.0059L65.2348 25.9967L65.227 25.9876L63.3245 27.6094ZM49.0718 27.5043L50.8859 29.2245L50.8932 29.2167L50.9005 29.2089L49.0718 27.5043ZM45.9688 33.3139H33.031V38.3139H45.9688V33.3139ZM35.531 35.8139C35.531 32.2726 34.5196 29.1727 32.2734 26.789L28.6345 30.218C29.8244 31.4808 30.531 33.2544 30.531 35.8139H35.531ZM32.2896 26.8064C30.1311 24.4716 27.4286 23.2161 24.3006 23.2161V28.2161C25.941 28.2161 27.3408 28.8189 28.6183 30.2007L32.2896 26.8064ZM24.3006 23.2161C21.0682 23.2161 18.3364 24.5564 16.268 27.0744L20.1317 30.2481C21.289 28.8392 22.6244 28.2161 24.3006 28.2161V23.2161ZM16.268 27.0744C14.2221 29.5652 13.2806 32.6482 13.2806 36.1295H18.2806C18.2806 33.5801 18.9519 31.6843 20.1317 30.2481L16.268 27.0744ZM13.2806 36.1295C13.2806 40.7148 14.6113 45.5818 17.1112 50.6918L21.6026 48.4946C19.334 43.8574 18.2806 39.7486 18.2806 36.1295H13.2806ZM19.3569 47.0932H6.41914V52.0932H19.3569V47.0932ZM8.70834 48.5886C6.73194 44.0849 5.71094 38.8447 5.71094 32.8161H0.710938C0.710938 39.4098 1.82874 45.3543 4.12984 50.5979L8.70834 48.5886ZM5.71094 32.8161C5.71094 26.2417 7.29214 21.1626 10.2367 17.3591L6.28304 14.2982C2.49584 19.1901 0.710938 25.4359 0.710938 32.8161H5.71094ZM10.2443 17.3491C13.1212 13.594 16.712 11.8072 21.1976 11.8072V6.80719C15.0946 6.80719 10.0602 9.36799 6.27534 14.3083L10.2443 17.3491ZM21.1976 11.8072C27.4784 11.8072 32.368 14.8136 35.9952 21.3999L40.375 18.9878C36.0081 11.0585 29.5727 6.80719 21.1976 6.80719V11.8072ZM40.5128 21.1059C42.0516 17.1786 44.188 14.4041 46.839 12.5949C49.4899 10.7858 52.8508 9.80859 57.0659 9.80859V4.80859C52.0597 4.80859 47.6632 5.97899 44.0205 8.46499C40.378 10.9508 37.6845 14.6189 35.8574 19.2818L40.5128 21.1059ZM57.0659 9.80859C62.895 9.80859 67.3944 11.8825 70.8145 16.0049L74.6626 12.8124C70.2288 7.4681 64.2799 4.80859 57.0659 4.80859V9.80859ZM70.8075 15.9964C74.2337 20.1634 76.0764 25.8919 76.0764 33.4472H81.0766C81.0766 25.0845 79.0276 18.1206 74.6696 12.8209L70.8075 15.9964ZM76.0764 33.4472C76.0764 39.5645 74.7735 45.1725 72.1883 50.3102L76.6547 52.5577C79.6096 46.686 81.0766 40.3028 81.0766 33.4472H76.0764ZM74.4215 48.934H60.1689V53.934H74.4215V48.934ZM62.2145 52.8711C66.2851 47.0769 68.5067 41.4086 68.5067 35.9191H63.5067C63.5067 40.0366 61.8364 44.7115 58.1232 49.9968L62.2145 52.8711ZM68.5067 35.9191C68.5067 32.0656 67.4843 28.6873 65.2424 26.0059L61.4065 29.213C62.7409 30.8091 63.5067 32.9706 63.5067 35.9191H68.5067ZM65.227 25.9876C62.9164 23.2771 59.8649 21.9013 56.277 21.9013V26.9013C58.4393 26.9013 60.0861 27.6643 61.4219 29.2313L65.227 25.9876ZM56.277 21.9013C52.7215 21.9013 49.6533 23.2142 47.2431 25.7996L50.9005 29.2089C52.3472 27.657 54.0823 26.9013 56.277 26.9013V21.9013ZM47.2578 25.784C44.8154 28.3596 43.629 31.7606 43.4708 35.714L48.4668 35.9138C48.5892 32.8549 49.4714 30.7161 50.8859 29.2245L47.2578 25.784Z" fill="white"/>
<path d="M131.288 1.27246L131.078 233.303" stroke="white" stroke-width="2" stroke-miterlimit="10" stroke-linecap="round"/>
<path d="M237.604 6.02656C240.304 6.02656 241.204 10.5266 245.104 20.5766C253.204 42.3266 265.504 71.4266 269.554 80.5766C273.304 88.9766 275.404 89.1266 281.254 91.5266C284.704 93.0266 285.904 95.2766 285.904 96.9266C285.904 98.7266 283.504 99.4766 280.654 99.4766C276.004 99.4766 264.304 98.7266 256.954 98.7266C250.504 98.7266 246.454 99.4766 241.054 99.4766C236.854 99.4766 235.504 97.6766 235.504 96.6266C235.504 94.8266 237.304 92.7266 240.154 91.5266C245.404 89.2766 245.404 85.9766 244.654 83.4266C243.304 79.6766 243.154 78.9266 241.204 74.4266C241.054 73.9766 239.704 72.3266 237.304 72.0266C234.754 71.7266 216.004 71.4266 212.554 72.1766C211.654 72.3266 210.454 73.8266 210.154 74.4266C208.954 77.4266 207.754 83.1266 207.754 85.0766C207.754 87.7766 209.704 90.0266 214.504 91.6766C216.604 92.4266 218.854 93.6266 218.854 95.5766C218.854 96.3266 216.754 99.1766 212.854 99.1766C211.054 99.1766 207.754 98.7266 202.954 98.7266C197.404 98.7266 191.254 99.4766 184.954 99.4766C181.654 99.4766 179.404 97.9766 179.404 96.1766C179.404 94.6766 180.604 93.1766 183.904 91.8266C189.454 89.5766 192.454 89.1266 197.254 79.0766C201.004 71.1266 211.654 44.1266 220.654 20.4266C220.804 19.9766 221.104 18.9266 221.104 17.2766C221.104 16.6766 221.854 15.6266 222.454 15.1766C224.404 13.9766 231.904 9.02656 233.554 7.67655C234.454 6.77656 236.854 6.02656 237.604 6.02656ZM234.604 61.9766C235.354 61.9766 236.254 60.6266 236.104 60.1766C233.854 52.8266 227.554 36.7766 226.204 34.3766C225.604 33.3266 224.704 33.7766 224.254 34.3766C221.854 39.3266 215.404 57.7766 214.954 60.0266C214.804 60.9266 215.554 62.1266 216.604 62.1266C218.554 62.1266 232.504 62.1266 234.604 61.9766ZM375.092 32.5766C375.092 38.2766 372.242 44.7266 368.342 48.0266C366.092 49.9766 363.992 50.4266 360.842 52.2266C360.092 52.6766 360.842 55.5266 361.292 56.4266C364.592 63.0266 371.342 74.1266 377.042 81.3266C382.292 87.9266 386.942 90.4766 391.592 92.2766C393.092 92.8766 395.042 94.2266 395.042 95.5766C395.042 99.4766 390.242 100.677 386.192 100.677C374.192 100.677 362.642 99.4766 352.142 85.8266C346.742 78.7766 342.692 71.2766 338.492 64.5266C336.092 60.6266 333.992 59.8766 331.592 59.8766C330.542 59.8766 330.392 61.6766 330.392 62.1266C330.392 74.1266 330.392 77.7266 330.842 82.9766C331.292 88.3766 332.792 88.5266 338.792 91.3766C341.492 92.7266 343.292 94.3766 343.292 95.5766C343.292 97.2266 340.142 99.3266 337.592 99.3266C333.842 99.3266 322.292 98.7266 317.042 98.7266C312.392 98.7266 305.342 99.3266 299.792 99.3266C296.192 99.3266 294.092 97.5266 294.092 96.0266C294.092 93.9266 296.192 92.4266 299.042 91.6766C305.192 89.8766 306.692 88.6766 306.992 81.1766C307.142 75.7766 307.142 73.0766 307.142 46.0766C307.142 27.6266 306.692 26.7266 306.392 23.5766C306.092 20.5766 304.742 17.5766 299.042 16.5266C296.192 15.9266 294.392 13.6766 294.392 12.6266C294.392 10.0766 297.392 8.72656 300.992 8.72656C308.642 8.72656 311.192 9.02656 313.142 9.02656C323.042 9.02656 331.292 8.12656 341.792 8.12656C354.992 8.12656 361.892 10.9766 365.492 13.6766C371.942 18.6266 375.092 24.6266 375.092 32.5766ZM351.992 35.1266C351.992 25.6766 345.542 16.3766 334.742 16.3766C334.142 16.3766 331.892 16.9766 330.992 17.5766C330.542 17.8766 330.092 18.6266 330.092 19.9766C330.092 24.1766 330.392 38.1266 330.392 48.1766C330.392 48.7766 330.992 50.5766 331.592 50.8766C333.692 51.7766 335.642 52.2266 338.192 52.2266C341.492 52.2266 346.892 48.7766 347.792 48.1766C348.692 47.5766 351.992 42.3266 351.992 35.1266ZM421.912 9.02656H467.812C476.212 9.02656 479.962 7.97656 480.562 7.22656C482.362 4.97656 484.012 3.62656 485.062 3.62656C485.962 3.62656 489.862 6.02656 489.862 8.42655C489.862 9.47656 488.062 18.9266 488.062 28.9766C488.062 31.9766 485.812 35.2766 482.962 35.2766C480.862 35.2766 479.662 31.5266 479.362 30.1766C477.112 20.2766 474.562 19.9766 469.162 19.3766C466.912 19.0766 466.462 18.6266 453.712 18.6266C452.962 18.6266 452.512 19.8266 452.362 21.3266C452.212 23.4266 451.312 43.6766 451.312 53.1266C451.312 62.2766 451.162 72.1766 451.612 77.5766C452.512 88.5266 455.062 88.9766 461.212 91.2266C463.912 92.2766 466.462 93.6266 466.462 95.4266C466.462 98.7266 462.862 99.4766 459.862 99.4766C458.362 99.4766 441.862 98.7266 432.862 98.7266C428.512 98.7266 420.412 99.1766 416.362 99.1766C413.212 99.1766 410.212 97.8266 410.212 95.1266C410.212 93.9266 411.712 91.8266 415.162 90.9266C424.462 88.3766 427.012 86.4266 427.012 78.1766C427.012 75.0266 427.312 55.0766 427.312 45.3266C427.312 36.0266 427.462 26.1266 427.462 21.4766C427.462 20.2766 425.962 18.6266 425.512 18.6266C421.762 18.6266 416.212 18.6266 412.312 18.7766C408.112 18.9266 404.062 18.9266 400.012 30.1766C399.112 32.7266 397.312 34.6766 395.662 34.6766C393.712 34.6766 391.462 31.9766 391.462 28.3766C391.462 23.7266 393.112 16.9766 393.112 8.72656C393.112 6.17656 395.362 3.92656 397.162 3.92656C397.612 3.92656 399.412 4.82656 400.462 5.57655C403.012 7.67655 405.262 8.57656 409.612 8.72656C415.762 9.02656 417.112 9.02656 421.912 9.02656ZM514.4 65.8766V31.2266C514.4 18.6266 513.8 16.9766 505.7 15.1766C503.15 14.5766 501.65 12.7766 501.65 11.4266C501.65 9.17656 505.25 8.42655 506.75 8.42655C509.6 8.42655 519.05 9.02656 525.65 9.02656C534.65 9.02656 542 8.57656 546.35 8.57656C548.6 8.57656 551 9.77655 551 11.7266C551 13.5266 548.45 14.7266 547.25 15.0266C539.9 16.6766 539.45 18.6266 538.85 26.4266C538.4 32.8766 538.25 45.9266 538.25 56.1266C538.25 72.4766 538.55 78.3266 538.55 80.2766C538.85 87.3266 539.6 90.3266 547.1 92.1266C549.95 92.8766 551.9 94.3766 551.9 96.4766C551.9 98.2766 548.6 99.1766 546.8 99.1766C545.3 99.1766 530.75 98.7266 525.65 98.7266C520.4 98.7266 509.45 99.3266 506.75 99.3266C504.8 99.3266 501.65 98.8766 501.65 96.4766C501.65 94.8266 504.05 92.8766 506.15 92.2766C512.15 90.3266 513.05 88.5266 513.8 84.0266C514.25 80.8766 514.4 78.1766 514.4 65.8766ZM601.322 6.17656C609.722 6.17656 617.672 8.87656 623.522 10.2266C624.422 10.3766 625.472 12.7766 625.472 14.4266C625.472 16.2266 626.522 24.4766 626.522 26.7266C626.522 31.8266 624.122 33.9266 622.022 33.9266C620.372 33.9266 619.022 31.3766 618.572 30.1766C615.272 21.1766 607.472 13.0766 598.922 13.0766C592.622 13.0766 586.922 18.9266 586.922 24.6266C586.922 31.3766 591.872 36.3266 600.422 40.6766C619.322 50.2766 630.422 58.6766 630.422 72.9266C630.422 85.2266 622.022 92.1266 616.622 95.4266C610.772 98.8766 600.872 101.427 593.972 101.427C581.222 101.427 573.872 98.7266 570.422 97.3766C569.372 96.9266 566.972 95.5766 566.222 93.9266C563.672 88.5266 563.222 80.7266 563.222 77.1266C563.222 74.2766 564.722 70.6766 567.122 70.6766C568.772 70.6766 570.722 72.4766 572.822 76.3766C578.372 86.5766 586.622 93.9266 595.922 93.9266C601.322 93.9266 608.072 90.1766 608.072 83.2766C608.072 78.7766 608.372 73.8266 593.072 65.5766C573.422 55.0766 565.772 46.9766 565.772 33.0266C565.772 23.2766 572.672 15.3266 579.872 11.2766C585.572 8.12656 592.772 6.17656 601.322 6.17656ZM672.546 9.02656H718.446C726.846 9.02656 730.596 7.97656 731.196 7.22656C732.996 4.97656 734.646 3.62656 735.696 3.62656C736.596 3.62656 740.496 6.02656 740.496 8.42655C740.496 9.47656 738.696 18.9266 738.696 28.9766C738.696 31.9766 736.446 35.2766 733.596 35.2766C731.496 35.2766 730.296 31.5266 729.996 30.1766C727.746 20.2766 725.196 19.9766 719.796 19.3766C717.546 19.0766 717.096 18.6266 704.346 18.6266C703.596 18.6266 703.146 19.8266 702.996 21.3266C702.846 23.4266 701.946 43.6766 701.946 53.1266C701.946 62.2766 701.796 72.1766 702.246 77.5766C703.146 88.5266 705.696 88.9766 711.846 91.2266C714.546 92.2766 717.096 93.6266 717.096 95.4266C717.096 98.7266 713.496 99.4766 710.496 99.4766C708.996 99.4766 692.496 98.7266 683.496 98.7266C679.146 98.7266 671.046 99.1766 666.996 99.1766C663.846 99.1766 660.846 97.8266 660.846 95.1266C660.846 93.9266 662.346 91.8266 665.796 90.9266C675.096 88.3766 677.646 86.4266 677.646 78.1766C677.646 75.0266 677.946 55.0766 677.946 45.3266C677.946 36.0266 678.096 26.1266 678.096 21.4766C678.096 20.2766 676.596 18.6266 676.146 18.6266C672.396 18.6266 666.846 18.6266 662.946 18.7766C658.746 18.9266 654.696 18.9266 650.646 30.1766C649.746 32.7266 647.946 34.6766 646.296 34.6766C644.346 34.6766 642.096 31.9766 642.096 28.3766C642.096 23.7266 643.746 16.9766 643.746 8.72656C643.746 6.17656 645.996 3.92656 647.796 3.92656C648.246 3.92656 650.046 4.82656 651.096 5.57655C653.646 7.67655 655.896 8.57656 660.246 8.72656C666.396 9.02656 667.746 9.02656 672.546 9.02656ZM743.211 61.3766C754.011 60.3266 764.661 59.1266 775.461 58.0766C777.411 57.9266 778.911 60.4766 778.911 61.6766C778.911 64.6766 777.561 68.8766 776.061 70.9766C775.311 72.0266 773.961 72.6266 773.361 72.6266C763.161 73.3766 752.811 74.2766 742.611 75.0266C740.511 75.1766 739.161 72.4766 739.161 70.9766C739.161 68.4266 739.911 65.1266 741.111 63.3266C741.411 62.8766 742.761 61.3766 743.211 61.3766ZM237.604 131.027C240.304 131.027 241.204 135.527 245.104 145.577C253.204 167.327 265.504 196.427 269.554 205.577C273.304 213.977 275.404 214.127 281.254 216.527C284.704 218.027 285.904 220.277 285.904 221.927C285.904 223.727 283.504 224.477 280.654 224.477C276.004 224.477 264.304 223.727 256.954 223.727C250.504 223.727 246.454 224.477 241.054 224.477C236.854 224.477 235.504 222.677 235.504 221.627C235.504 219.827 237.304 217.727 240.154 216.527C245.404 214.277 245.404 210.977 244.654 208.427C243.304 204.677 243.154 203.927 241.204 199.427C241.054 198.977 239.704 197.327 237.304 197.027C234.754 196.727 216.004 196.427 212.554 197.177C211.654 197.327 210.454 198.827 210.154 199.427C208.954 202.427 207.754 208.127 207.754 210.077C207.754 212.777 209.704 215.027 214.504 216.677C216.604 217.427 218.854 218.627 218.854 220.577C218.854 221.327 216.754 224.177 212.854 224.177C211.054 224.177 207.754 223.727 202.954 223.727C197.404 223.727 191.254 224.477 184.954 224.477C181.654 224.477 179.404 222.977 179.404 221.177C179.404 219.677 180.604 218.177 183.904 216.827C189.454 214.577 192.454 214.127 197.254 204.077C201.004 196.127 211.654 169.127 220.654 145.427C220.804 144.977 221.104 143.927 221.104 142.277C221.104 141.677 221.854 140.627 222.454 140.177C224.404 138.977 231.904 134.027 233.554 132.677C234.454 131.777 236.854 131.027 237.604 131.027ZM234.604 186.977C235.354 186.977 236.254 185.627 236.104 185.177C233.854 177.827 227.554 161.777 226.204 159.377C225.604 158.327 224.704 158.777 224.254 159.377C221.854 164.327 215.404 182.777 214.954 185.027C214.804 185.927 215.554 187.127 216.604 187.127C218.554 187.127 232.504 187.127 234.604 186.977ZM313.074 134.027H358.974C367.374 134.027 371.124 132.977 371.724 132.227C373.524 129.977 375.174 128.627 376.224 128.627C377.124 128.627 381.024 131.027 381.024 133.427C381.024 134.477 379.224 143.927 379.224 153.977C379.224 156.977 376.974 160.277 374.124 160.277C372.024 160.277 370.824 156.527 370.524 155.177C368.274 145.277 365.724 144.977 360.324 144.377C358.074 144.077 357.624 143.627 344.874 143.627C344.124 143.627 343.674 144.827 343.524 146.327C343.374 148.427 342.474 168.677 342.474 178.127C342.474 187.277 342.324 197.177 342.774 202.577C343.674 213.527 346.224 213.977 352.374 216.227C355.074 217.277 357.624 218.627 357.624 220.427C357.624 223.727 354.024 224.477 351.024 224.477C349.524 224.477 333.024 223.727 324.024 223.727C319.674 223.727 311.574 224.177 307.524 224.177C304.374 224.177 301.374 222.827 301.374 220.127C301.374 218.927 302.874 216.827 306.324 215.927C315.624 213.377 318.174 211.427 318.174 203.177C318.174 200.027 318.474 180.077 318.474 170.327C318.474 161.027 318.624 151.127 318.624 146.477C318.624 145.277 317.124 143.627 316.674 143.627C312.924 143.627 307.374 143.627 303.474 143.777C299.274 143.927 295.224 143.927 291.174 155.177C290.274 157.727 288.474 159.677 286.824 159.677C284.874 159.677 282.624 156.977 282.624 153.377C282.624 148.727 284.274 141.977 284.274 133.727C284.274 131.177 286.524 128.927 288.324 128.927C288.774 128.927 290.574 129.827 291.624 130.577C294.174 132.677 296.424 133.577 300.774 133.727C306.924 134.027 308.274 134.027 313.074 134.027ZM383.738 186.377C394.538 185.327 405.188 184.127 415.988 183.077C417.938 182.927 419.438 185.477 419.438 186.677C419.438 189.677 418.088 193.877 416.588 195.977C415.838 197.027 414.488 197.627 413.888 197.627C403.688 198.377 393.338 199.277 383.138 200.027C381.038 200.177 379.688 197.477 379.688 195.977C379.688 193.427 380.438 190.127 381.638 188.327C381.938 187.877 383.288 186.377 383.738 186.377ZM476.371 131.177C484.771 131.177 492.721 133.877 498.571 135.227C499.471 135.377 500.521 137.777 500.521 139.427C500.521 141.227 501.571 149.477 501.571 151.727C501.571 156.827 499.171 158.927 497.071 158.927C495.421 158.927 494.071 156.377 493.621 155.177C490.321 146.177 482.521 138.077 473.971 138.077C467.671 138.077 461.971 143.927 461.971 149.627C461.971 156.377 466.921 161.327 475.471 165.677C494.371 175.277 505.471 183.677 505.471 197.927C505.471 210.227 497.071 217.127 491.671 220.427C485.821 223.877 475.921 226.427 469.021 226.427C456.271 226.427 448.921 223.727 445.471 222.377C444.421 221.927 442.021 220.577 441.271 218.927C438.721 213.527 438.271 205.727 438.271 202.127C438.271 199.277 439.771 195.677 442.171 195.677C443.821 195.677 445.771 197.477 447.871 201.377C453.421 211.577 461.671 218.927 470.971 218.927C476.371 218.927 483.121 215.177 483.121 208.277C483.121 203.777 483.421 198.827 468.121 190.577C448.471 180.077 440.821 171.977 440.821 158.027C440.821 148.277 447.721 140.327 454.921 136.277C460.621 133.127 467.821 131.177 476.371 131.177ZM551.931 134.027H567.381C581.031 134.027 583.131 134.027 586.581 133.277C588.231 132.977 589.281 133.877 589.731 134.627C590.631 136.127 591.831 147.527 591.831 150.827C591.831 154.727 590.031 155.627 589.131 155.627C586.431 155.627 584.931 153.977 583.131 149.927C580.281 143.777 578.181 142.727 576.981 142.727C568.431 142.727 560.181 143.177 558.081 143.177C557.331 143.177 556.131 144.827 556.131 145.427C555.981 148.277 555.681 159.077 555.681 169.427C555.681 171.827 556.131 173.327 556.881 173.477C558.531 173.927 563.781 173.777 566.481 173.627C573.231 173.177 575.331 170.777 576.981 167.027C577.881 164.777 579.381 162.977 581.031 162.977C583.131 162.977 584.481 165.077 584.181 169.427C584.031 171.227 583.881 174.677 583.881 178.127C583.881 181.577 584.181 185.027 584.331 187.277C584.631 191.327 582.381 193.127 580.881 193.127C579.531 193.127 577.581 191.477 576.231 188.477C574.731 185.027 574.281 183.977 571.131 183.677C564.981 183.227 564.081 182.927 557.331 182.927C556.581 182.927 555.681 185.027 555.681 188.777C555.681 192.827 556.131 201.527 556.281 204.827C556.581 209.177 557.181 210.827 557.631 211.427C559.131 213.677 566.331 215.627 573.531 215.627C575.931 215.627 580.131 215.177 583.581 213.227C586.431 211.727 587.931 209.927 591.231 205.427C593.631 202.127 595.281 198.527 597.681 198.527C600.531 198.527 601.431 202.877 600.831 206.027C599.931 210.377 596.331 220.427 595.731 221.777C595.281 222.827 592.131 224.477 591.231 224.477C589.281 224.477 583.281 223.727 555.981 223.727C546.531 223.727 527.631 224.327 521.181 224.327C518.031 224.327 515.781 223.127 515.781 221.927C515.781 220.127 516.981 218.027 520.131 217.127C530.481 214.277 530.781 210.827 531.081 208.127C531.681 200.927 531.831 197.777 531.831 174.677C531.831 151.577 531.531 150.677 531.081 147.977C530.331 143.477 528.381 141.827 522.381 140.327C518.481 139.427 517.881 137.327 517.881 136.277C517.881 134.327 520.881 133.277 522.831 133.277C525.381 133.277 542.031 134.027 551.931 134.027ZM668.707 131.027C671.407 131.027 672.307 135.527 676.207 145.577C684.307 167.327 696.607 196.427 700.657 205.577C704.407 213.977 706.507 214.127 712.357 216.527C715.807 218.027 717.007 220.277 717.007 221.927C717.007 223.727 714.607 224.477 711.757 224.477C707.107 224.477 695.407 223.727 688.057 223.727C681.607 223.727 677.557 224.477 672.157 224.477C667.957 224.477 666.607 222.677 666.607 221.627C666.607 219.827 668.407 217.727 671.257 216.527C676.507 214.277 676.507 210.977 675.757 208.427C674.407 204.677 674.257 203.927 672.307 199.427C672.157 198.977 670.807 197.327 668.407 197.027C665.857 196.727 647.107 196.427 643.657 197.177C642.757 197.327 641.557 198.827 641.257 199.427C640.057 202.427 638.857 208.127 638.857 210.077C638.857 212.777 640.807 215.027 645.607 216.677C647.707 217.427 649.957 218.627 649.957 220.577C649.957 221.327 647.857 224.177 643.957 224.177C642.157 224.177 638.857 223.727 634.057 223.727C628.507 223.727 622.357 224.477 616.057 224.477C612.757 224.477 610.507 222.977 610.507 221.177C610.507 219.677 611.707 218.177 615.007 216.827C620.557 214.577 623.557 214.127 628.357 204.077C632.107 196.127 642.757 169.127 651.757 145.427C651.907 144.977 652.207 143.927 652.207 142.277C652.207 141.677 652.957 140.627 653.557 140.177C655.507 138.977 663.007 134.027 664.657 132.677C665.557 131.777 667.957 131.027 668.707 131.027ZM665.707 186.977C666.457 186.977 667.357 185.627 667.207 185.177C664.957 177.827 658.657 161.777 657.307 159.377C656.707 158.327 655.807 158.777 655.357 159.377C652.957 164.327 646.507 182.777 646.057 185.027C645.907 185.927 646.657 187.127 647.707 187.127C649.657 187.127 663.607 187.127 665.707 186.977Z" fill="white"/>
</svg>
