<svg width="784" height="254" viewBox="0 0 784 254" fill="none" xmlns="http://www.w3.org/2000/svg">
<path d="M62.6407 182.275V179.775H60.1407V182.275H62.6407ZM77.6296 182.275H80.1296V179.775H77.6296V182.275ZM77.6296 230.818V233.318H80.1296V230.818H77.6296ZM75.5786 230.818L73.9941 232.752L74.6852 233.318H75.5786V230.818ZM54.9622 215.566L53.5437 217.625L53.5455 217.626L54.9622 215.566ZM19.5673 205.311L21.2552 207.155L21.2636 207.147L21.272 207.139L19.5673 205.311ZM25.6154 229.871V232.371H31.4422L27.4272 228.149L25.6154 229.871ZM10.2058 229.871L8.10854 231.232L8.84764 232.371H10.2058V229.871ZM8.78574 192.268L10.6456 193.938L10.6525 193.93L8.78574 192.268ZM62.6407 205.942L61.0915 207.904L65.1407 211.101V205.942H62.6407ZM62.6407 184.775H77.6296V179.775H62.6407V184.775ZM75.1297 182.275V230.818H80.1296V182.275H75.1297ZM77.6296 228.318H75.5786V233.318H77.6296V228.318ZM77.163 228.884C71.6567 224.373 64.7237 219.246 56.3789 213.506L53.5455 217.626C61.82 223.317 68.6313 228.358 73.9941 232.752L77.163 228.884ZM56.3807 213.508C48.0519 207.768 41.9373 204.001 38.1734 202.383L36.1983 206.976C39.4467 208.373 45.183 211.864 53.5437 217.625L56.3807 213.508ZM38.1734 202.383C34.4041 200.762 30.6677 199.918 26.9828 199.918V204.918C29.8897 204.918 32.9552 205.582 36.1983 206.976L38.1734 202.383ZM26.9828 199.918C23.4867 199.918 20.4025 201.114 17.8626 203.482L21.272 207.139C22.8693 205.65 24.7288 204.918 26.9828 204.918V199.918ZM17.8794 203.466C15.316 205.813 13.9643 208.769 13.9643 212.2H18.9643C18.9643 210.232 19.6813 208.595 21.2552 207.155L17.8794 203.466ZM13.9643 212.2C13.9643 218.513 17.532 224.998 23.8037 231.594L27.4272 228.149C21.4974 221.912 18.9643 216.616 18.9643 212.2H13.9643ZM25.6154 227.371H10.2058V232.371H25.6154V227.371ZM12.303 228.511C7.82164 221.603 5.71094 215.216 5.71094 209.308H0.710938C0.710938 216.442 3.26344 223.764 8.10854 231.232L12.303 228.511ZM5.71094 209.308C5.71094 202.513 7.45224 197.493 10.6456 193.938L6.92594 190.597C2.68634 195.317 0.710938 201.657 0.710938 209.308H5.71094ZM10.6525 193.93C13.8167 190.378 18.1906 188.509 24.0902 188.509V183.509C17.017 183.509 11.1879 185.812 6.91904 190.605L10.6525 193.93ZM24.0902 188.509C27.9502 188.509 32.9638 189.972 39.2326 193.213C45.4661 196.436 52.7481 201.316 61.0915 207.904L64.19 203.98C55.7037 197.279 48.1458 192.193 41.5291 188.772C34.9477 185.369 29.1009 183.509 24.0902 183.509V188.509ZM65.1407 205.942V182.275H60.1407V205.942H65.1407ZM13.2561 129.209L14.6175 131.306L14.6251 131.301L13.2561 129.209ZM68.5837 165.866L69.9654 167.95L69.973 167.944L68.5837 165.866ZM13.1509 165.761L11.7416 167.826L11.744 167.827L13.1509 165.761ZM59.4852 140.99L60.3655 138.65L60.358 138.647L59.4852 140.99ZM22.0917 140.99L22.9827 143.325L22.9973 143.32L23.0118 143.314L22.0917 140.99ZM21.9865 154.085L21.0164 156.389L21.0285 156.394L21.9865 154.085ZM59.4326 154.085L60.3179 156.423L60.3316 156.418L60.3453 156.413L59.4326 154.085ZM5.71094 147.406C5.71094 140.495 8.60884 135.207 14.6175 131.306L11.8948 127.112C4.51004 131.906 0.710938 138.75 0.710938 147.406H5.71094ZM14.6251 131.301C20.7736 127.277 29.3355 125.135 40.5518 125.135V120.135C28.7675 120.135 19.1323 122.375 11.8871 127.117L14.6251 131.301ZM40.5518 125.135C52.2584 125.135 61.0512 127.219 67.1932 131.11L69.869 126.887C62.6174 122.293 52.7573 120.135 40.5518 120.135V125.135ZM67.1932 131.11C73.1708 134.897 76.0764 140.168 76.0764 147.196H81.0766C81.0766 138.445 77.2846 131.585 69.869 126.887L67.1932 131.11ZM76.0764 147.196C76.0764 154.353 73.1641 159.797 67.1945 163.788L69.973 167.944C77.3266 163.029 81.0766 156.027 81.0766 147.196H76.0764ZM67.202 163.783C61.1011 167.828 52.4291 169.993 40.9199 169.993V174.993C52.9723 174.993 62.7428 172.739 69.9654 167.95L67.202 163.783ZM40.9199 169.993C29.2669 169.993 20.5762 167.792 14.5579 163.694L11.744 167.827C18.9089 172.706 28.7309 174.993 40.9199 174.993V169.993ZM14.5603 163.696C8.58344 159.616 5.71094 154.255 5.71094 147.406H0.710938C0.710938 155.985 4.46514 162.859 11.7416 167.826L14.5603 163.696ZM67.297 147.406C67.297 145.389 66.6749 143.545 65.3948 141.999C64.1491 140.494 62.4019 139.416 60.3655 138.65L58.6048 143.33C60.1097 143.896 61.0184 144.553 61.5434 145.187C62.0339 145.78 62.297 146.477 62.297 147.406H67.297ZM60.358 138.647C56.3066 137.138 49.1833 136.491 39.3947 136.491V141.491C49.2408 141.491 55.5112 142.177 58.6124 143.332L60.358 138.647ZM39.3947 136.491C31.2074 136.491 25.0174 137.143 21.1716 138.665L23.0118 143.314C25.8979 142.172 31.2433 141.491 39.3947 141.491V136.491ZM21.2007 138.654C19.2072 139.414 17.5029 140.51 16.2965 142.053C15.0658 143.626 14.4902 145.49 14.4902 147.511H19.4902C19.4902 146.482 19.7649 145.734 20.2347 145.133C20.7288 144.502 21.5752 143.862 22.9827 143.325L21.2007 138.654ZM14.4902 147.511C14.4902 149.5 15.0576 151.335 16.2489 152.903C17.4169 154.439 19.0702 155.57 21.0164 156.389L22.9567 151.781C21.572 151.198 20.7271 150.532 20.2297 149.877C19.7555 149.253 19.4902 148.503 19.4902 147.511H14.4902ZM21.0285 156.394C23.0143 157.218 25.7647 157.761 29.1165 158.11C32.5115 158.464 36.6984 158.636 41.6562 158.636V153.636C36.7967 153.636 32.7967 153.467 29.6351 153.137C26.4303 152.803 24.2546 152.32 22.9446 151.776L21.0285 156.394ZM41.6562 158.636C49.9339 158.636 56.2521 157.963 60.3179 156.423L58.5473 151.747C55.3903 152.943 49.8576 153.636 41.6562 153.636V158.636ZM60.3453 156.413C62.4045 155.605 64.1596 154.48 65.4051 152.929C66.6809 151.341 67.297 149.459 67.297 147.406H62.297C62.297 148.404 62.0191 149.16 61.5068 149.798C60.9642 150.474 60.037 151.163 58.5199 151.758L60.3453 156.413ZM62.6407 63.4152V60.9152H60.1407V63.4152H62.6407ZM77.6296 63.4152H80.1296V60.9152H77.6296V63.4152ZM77.6296 111.958V114.458H80.1296V111.958H77.6296ZM75.5786 111.958L73.9941 113.892L74.6852 114.458H75.5786V111.958ZM54.9622 96.7069L53.5437 98.7649L53.5455 98.7659L54.9622 96.7069ZM19.5673 86.4509L21.2552 88.2949L21.2636 88.2869L21.272 88.2799L19.5673 86.4509ZM25.6154 111.012V113.512H31.4422L27.4272 109.289L25.6154 111.012ZM10.2058 111.012L8.10854 112.372L8.84764 113.512H10.2058V111.012ZM8.78574 73.4078L10.6456 75.0785L10.6525 75.0707L8.78574 73.4078ZM62.6407 87.0819L61.0915 89.0439L65.1407 92.2409V87.0819H62.6407ZM62.6407 65.9152H77.6296V60.9152H62.6407V65.9152ZM75.1297 63.4152V111.958H80.1296V63.4152H75.1297ZM77.6296 109.458H75.5786V114.458H77.6296V109.458ZM77.163 110.025C71.6567 105.513 64.7237 100.386 56.3789 94.6469L53.5455 98.7659C61.82 104.457 68.6313 109.498 73.9941 113.892L77.163 110.025ZM56.3807 94.6479C48.0519 88.9089 41.9373 85.1419 38.1734 83.5229L36.1983 88.1159C39.4467 89.5129 45.183 93.0039 53.5437 98.7649L56.3807 94.6479ZM38.1734 83.5229C34.4041 81.9019 30.6677 81.0579 26.9828 81.0579V86.0579C29.8897 86.0579 32.9552 86.7219 36.1983 88.1159L38.1734 83.5229ZM26.9828 81.0579C23.4867 81.0579 20.4025 82.2549 17.8626 84.6219L21.272 88.2799C22.8693 86.7909 24.7288 86.0579 26.9828 86.0579V81.0579ZM17.8794 84.6069C15.316 86.9529 13.9643 89.9089 13.9643 93.3409H18.9643C18.9643 91.3719 19.6813 89.7359 21.2552 88.2949L17.8794 84.6069ZM13.9643 93.3409C13.9643 99.6539 17.532 106.138 23.8037 112.734L27.4272 109.289C21.4974 103.053 18.9643 97.7559 18.9643 93.3409H13.9643ZM25.6154 108.512H10.2058V113.512H25.6154V108.512ZM12.303 109.651C7.82164 102.744 5.71094 96.3569 5.71094 90.4479H0.710938C0.710938 97.5819 3.26344 104.905 8.10854 112.372L12.303 109.651ZM5.71094 90.4479C5.71094 83.6529 7.45224 78.6335 10.6456 75.0785L6.92594 71.7372C2.68634 76.4568 0.710938 82.7979 0.710938 90.4479H5.71094ZM10.6525 75.0707C13.8167 71.5185 18.1906 69.6493 24.0902 69.6493V64.6493C17.017 64.6493 11.1879 66.9524 6.91904 71.745L10.6525 75.0707ZM24.0902 69.6493C27.9502 69.6493 32.9638 71.1119 39.2326 74.3532C45.4661 77.5762 52.7481 82.4559 61.0915 89.0439L64.19 85.1199C55.7037 78.4192 48.1458 73.3329 41.5291 69.9117C34.9477 66.5088 29.1009 64.6493 24.0902 64.6493V69.6493ZM65.1407 87.0819V63.4152H60.1407V87.0819H65.1407ZM45.9688 36.4877V38.9877H48.3708L48.4668 36.5876L45.9688 36.4877ZM33.031 36.4877H30.531V38.9877H33.031V36.4877ZM30.454 29.1773L28.6183 30.8745L28.6264 30.8832L28.6345 30.8918L30.454 29.1773ZM19.3569 50.267V52.767H23.363L21.6026 49.1684L19.3569 50.267ZM6.41914 50.267L4.12984 51.2717L4.78614 52.767H6.41914V50.267ZM8.25984 16.5025L10.2367 18.0329L10.2443 18.0229L8.25984 16.5025ZM38.1851 20.8677L35.9952 22.0737L38.5675 26.7443L40.5128 21.7797L38.1851 20.8677ZM72.7386 15.0825L74.6696 13.4947L74.6626 13.4862L72.7386 15.0825ZM74.4215 52.1078V54.6078H75.9622L76.6547 53.2315L74.4215 52.1078ZM60.1689 52.1078L58.1232 50.6706L55.3573 54.6078H60.1689V52.1078ZM63.3245 28.2832L65.2424 26.6797L65.2348 26.6705L65.227 26.6614L63.3245 28.2832ZM49.0718 28.1781L50.8859 29.8983L50.8932 29.8905L50.9005 29.8827L49.0718 28.1781ZM45.9688 33.9877H33.031V38.9877H45.9688V33.9877ZM35.531 36.4877C35.531 32.9464 34.5196 29.8465 32.2734 27.4628L28.6345 30.8918C29.8244 32.1546 30.531 33.9282 30.531 36.4877H35.531ZM32.2896 27.4802C30.1311 25.1454 27.4286 23.8899 24.3006 23.8899V28.8899C25.941 28.8899 27.3408 29.4927 28.6183 30.8745L32.2896 27.4802ZM24.3006 23.8899C21.0682 23.8899 18.3364 25.2302 16.268 27.7482L20.1317 30.9219C21.289 29.513 22.6244 28.8899 24.3006 28.8899V23.8899ZM16.268 27.7482C14.2221 30.239 13.2806 33.322 13.2806 36.8033H18.2806C18.2806 34.2539 18.9519 32.3581 20.1317 30.9219L16.268 27.7482ZM13.2806 36.8033C13.2806 41.3886 14.6113 46.2556 17.1112 51.3656L21.6026 49.1684C19.334 44.5312 18.2806 40.4224 18.2806 36.8033H13.2806ZM19.3569 47.767H6.41914V52.767H19.3569V47.767ZM8.70834 49.2624C6.73194 44.7587 5.71094 39.5185 5.71094 33.4899H0.710938C0.710938 40.0836 1.82874 46.0281 4.12984 51.2717L8.70834 49.2624ZM5.71094 33.4899C5.71094 26.9155 7.29214 21.8364 10.2367 18.0329L6.28304 14.972C2.49584 19.8639 0.710938 26.1097 0.710938 33.4899H5.71094ZM10.2443 18.0229C13.1212 14.2678 16.712 12.481 21.1976 12.481V7.48102C15.0946 7.48102 10.0602 10.0418 6.27534 14.9821L10.2443 18.0229ZM21.1976 12.481C27.4784 12.481 32.368 15.4874 35.9952 22.0737L40.375 19.6616C36.0081 11.7323 29.5727 7.48102 21.1976 7.48102V12.481ZM40.5128 21.7797C42.0516 17.8524 44.188 15.0779 46.839 13.2687C49.4899 11.4596 52.8508 10.4824 57.0659 10.4824V5.48242C52.0597 5.48242 47.6632 6.65282 44.0205 9.13882C40.378 11.6246 37.6845 15.2927 35.8574 19.9556L40.5128 21.7797ZM57.0659 10.4824C62.895 10.4824 67.3944 12.5563 70.8145 16.6787L74.6626 13.4862C70.2288 8.14192 64.2799 5.48242 57.0659 5.48242V10.4824ZM70.8075 16.6702C74.2337 20.8372 76.0764 26.5657 76.0764 34.121H81.0766C81.0766 25.7583 79.0276 18.7944 74.6696 13.4947L70.8075 16.6702ZM76.0764 34.121C76.0764 40.2383 74.7735 45.8463 72.1883 50.984L76.6547 53.2315C79.6096 47.3598 81.0766 40.9766 81.0766 34.121H76.0764ZM74.4215 49.6078H60.1689V54.6078H74.4215V49.6078ZM62.2145 53.5449C66.2851 47.7507 68.5067 42.0824 68.5067 36.5929H63.5067C63.5067 40.7104 61.8364 45.3853 58.1232 50.6706L62.2145 53.5449ZM68.5067 36.5929C68.5067 32.7394 67.4843 29.3611 65.2424 26.6797L61.4065 29.8868C62.7409 31.4829 63.5067 33.6444 63.5067 36.5929H68.5067ZM65.227 26.6614C62.9164 23.9509 59.8649 22.5751 56.277 22.5751V27.5751C58.4393 27.5751 60.0861 28.3381 61.4219 29.9051L65.227 26.6614ZM56.277 22.5751C52.7215 22.5751 49.6533 23.888 47.2431 26.4734L50.9005 29.8827C52.3472 28.3308 54.0823 27.5751 56.277 27.5751V22.5751ZM47.2578 26.4578C44.8154 29.0334 43.629 32.4344 43.4708 36.3878L48.4668 36.5876C48.5892 33.5287 49.4714 31.3899 50.8859 29.8983L47.2578 26.4578Z" fill="white"/>
<path d="M131.288 1.94629L131.078 233.976" stroke="white" stroke-width="2" stroke-miterlimit="10" stroke-linecap="round"/>
<path d="M265.054 30.4004C265.054 35.5004 263.404 39.4004 260.704 42.2504C260.254 42.7004 254.254 46.6004 252.154 47.5004C251.704 47.6504 251.704 49.3004 252.454 49.6004C261.904 53.0504 271.054 60.1004 271.054 72.2504C271.054 86.5004 260.104 94.0004 251.404 97.3004C245.254 99.7004 232.954 100.45 229.354 100.45C219.904 100.45 211.054 99.7004 205.054 99.5504C199.954 99.4004 189.604 99.8504 186.754 99.8504C183.754 99.8504 181.504 98.9504 181.504 96.8504C181.504 95.6504 183.154 92.9504 187.054 92.2004C194.104 90.7004 196.054 88.4504 196.504 84.5504C196.804 81.8504 197.554 73.7504 197.554 55.3004C197.554 40.1504 197.254 28.3004 196.954 25.3004C196.504 20.0504 195.904 18.4004 187.654 16.9004C186.004 16.6004 182.704 14.5004 182.704 12.7004C182.704 10.7504 186.604 9.55039 188.254 9.55039H202.504C207.904 9.55039 222.304 8.50039 232.354 8.50039C243.304 8.50039 253.204 11.3504 257.104 14.5004C262.354 18.5504 265.054 24.2504 265.054 30.4004ZM242.854 32.9504C242.854 22.9004 234.904 16.4504 226.204 16.4504C225.754 16.4504 222.604 16.9004 222.004 17.2004C221.404 17.5004 221.104 17.9504 220.954 19.4504C220.504 29.5004 220.204 43.0004 220.954 45.2504C221.404 46.7504 222.304 47.9504 225.304 47.9504C229.804 47.9504 237.454 45.8504 238.804 44.5004C240.154 43.1504 242.854 40.1504 242.854 32.9504ZM245.704 74.0504C245.704 60.4004 235.504 55.0004 227.854 55.0004C226.504 55.0004 223.654 55.3004 222.454 56.0504C222.304 56.2004 220.804 58.3004 220.654 59.3504C219.904 63.2504 220.954 80.0504 221.704 83.9504C222.454 88.0004 227.254 92.6504 232.054 92.6504C238.204 92.6504 243.304 86.0504 243.904 84.1004C244.804 81.2504 245.704 77.3504 245.704 74.0504ZM298.482 66.5504V31.9004C298.482 19.3004 297.882 17.6504 289.782 15.8504C287.232 15.2504 285.732 13.4504 285.732 12.1004C285.732 9.85039 289.332 9.10038 290.832 9.10038C293.682 9.10038 303.132 9.70038 309.732 9.70038C318.732 9.70038 326.082 9.25039 330.432 9.25039C332.682 9.25039 335.082 10.4504 335.082 12.4004C335.082 14.2004 332.532 15.4004 331.332 15.7004C323.982 17.3504 323.532 19.3004 322.932 27.1004C322.482 33.5504 322.332 46.6004 322.332 56.8004C322.332 73.1504 322.632 79.0004 322.632 80.9504C322.932 88.0004 323.682 91.0004 331.182 92.8004C334.032 93.5504 335.982 95.0504 335.982 97.1504C335.982 98.9504 332.682 99.8504 330.882 99.8504C329.382 99.8504 314.832 99.4004 309.732 99.4004C304.482 99.4004 293.532 100 290.832 100C288.882 100 285.732 99.5504 285.732 97.1504C285.732 95.5004 288.132 93.5504 290.232 92.9504C296.232 91.0004 297.132 89.2004 297.882 84.7004C298.332 81.5504 298.482 78.8504 298.482 66.5504ZM404.618 6.70039C414.368 6.70039 419.918 8.35038 426.218 10.0004C429.368 10.9004 432.518 11.3504 434.468 11.3504C435.518 11.3504 437.168 13.0004 437.468 14.6504C438.368 18.7004 440.468 26.3504 440.468 32.3504C440.468 34.6004 438.968 38.2004 436.718 38.2004C435.218 38.2004 434.168 37.7504 431.918 33.7004C429.968 30.1004 428.468 26.0504 424.718 22.7504C416.918 15.8504 407.768 14.8004 403.718 14.8004C382.868 14.8004 375.518 34.6004 375.518 52.1504C375.518 76.9004 389.618 94.1504 406.868 94.1504C408.218 94.1504 411.968 93.2504 413.618 92.0504C415.118 91.0004 415.718 85.9004 415.718 82.4504C415.718 76.7504 415.568 71.2004 415.418 69.2504C415.118 66.2504 414.518 63.7004 408.968 62.3504C403.868 61.1504 401.918 59.6504 401.918 57.4004C401.918 56.0504 403.568 53.9504 408.068 53.9504C412.268 53.9504 416.618 54.7004 421.568 54.7004C426.068 54.7004 440.768 53.9504 443.768 53.9504C447.968 53.9504 449.318 55.6004 449.318 57.4004C449.318 59.5004 446.468 61.1504 444.518 61.9004C439.268 63.7004 439.568 66.2504 439.418 68.3504C439.118 71.8004 439.118 66.8504 439.118 80.5004C439.118 82.4504 439.268 84.5504 439.568 86.9504C439.718 88.0004 440.018 89.5004 440.018 91.3004C440.018 91.7504 438.218 94.0004 437.918 94.1504C436.118 95.5004 432.368 97.4504 426.068 99.2504C420.218 100.9 412.868 102.4 405.518 102.4C380.918 102.4 366.968 95.0504 357.368 83.3504C350.618 75.1004 348.068 64.1504 348.068 54.4004C348.068 38.2004 354.968 26.9504 366.818 17.9504C375.368 11.3504 390.968 6.70039 404.618 6.70039ZM225.004 131.85C233.404 131.85 241.354 134.55 247.204 135.9C248.104 136.05 249.154 138.45 249.154 140.1C249.154 141.9 250.204 150.15 250.204 152.4C250.204 157.5 247.804 159.6 245.704 159.6C244.054 159.6 242.704 157.05 242.254 155.85C238.954 146.85 231.154 138.75 222.604 138.75C216.304 138.75 210.604 144.6 210.604 150.3C210.604 157.05 215.554 162 224.104 166.35C243.004 175.95 254.104 184.35 254.104 198.6C254.104 210.9 245.704 217.8 240.304 221.1C234.454 224.55 224.554 227.1 217.654 227.1C204.904 227.1 197.554 224.4 194.104 223.05C193.054 222.6 190.654 221.25 189.904 219.6C187.354 214.2 186.904 206.4 186.904 202.8C186.904 199.95 188.404 196.35 190.804 196.35C192.454 196.35 194.404 198.15 196.504 202.05C202.054 212.25 210.304 219.6 219.604 219.6C225.004 219.6 231.754 215.85 231.754 208.95C231.754 204.45 232.054 199.5 216.754 191.25C197.104 180.75 189.454 172.65 189.454 158.7C189.454 148.95 196.354 141 203.554 136.95C209.254 133.8 216.454 131.85 225.004 131.85ZM327.428 131.7C334.328 131.7 341.228 133.2 345.278 134.25C349.028 135.3 354.428 136.95 355.628 136.95C356.378 136.95 358.178 138.9 358.178 139.8C358.178 145.2 359.678 152.85 359.678 156.6C359.678 160.8 356.828 163.2 354.878 163.2C353.678 163.2 352.928 162 351.728 158.7C349.478 152.55 348.578 149.25 343.028 145.2C338.378 141.75 333.128 139.2 326.678 139.2C320.228 139.2 311.978 142.95 307.028 148.95C300.578 156.6 297.578 168 297.578 177C297.578 188.4 301.328 198.6 305.678 204.75C311.078 212.4 320.978 217.95 329.978 217.95C333.728 217.95 340.478 215.55 343.478 213.9C344.678 213.15 347.378 210.3 351.128 204.3C353.978 199.8 355.778 198 357.278 198C360.128 198 360.428 200.85 360.278 204C360.278 205.35 357.428 215.4 357.428 218.25C357.428 218.7 356.228 220.8 355.778 221.1C350.528 223.65 337.178 227.1 326.828 227.1C310.178 227.1 292.478 222.15 281.828 210.45C275.228 203.25 270.578 193.35 270.578 180C270.578 163.95 277.778 150.45 290.978 141.3C297.728 136.65 311.828 131.7 327.428 131.7ZM456.537 158.25C456.537 163.95 453.687 170.4 449.787 173.7C447.537 175.65 445.437 176.1 442.287 177.9C441.537 178.35 442.287 181.2 442.737 182.1C446.037 188.7 452.787 199.8 458.487 207C463.737 213.6 468.387 216.15 473.037 217.95C474.537 218.55 476.487 219.9 476.487 221.25C476.487 225.15 471.687 226.35 467.637 226.35C455.637 226.35 444.087 225.15 433.587 211.5C428.187 204.45 424.137 196.95 419.937 190.2C417.537 186.3 415.437 185.55 413.037 185.55C411.987 185.55 411.837 187.35 411.837 187.8C411.837 199.8 411.837 203.4 412.287 208.65C412.737 214.05 414.237 214.2 420.237 217.05C422.937 218.4 424.737 220.05 424.737 221.25C424.737 222.9 421.587 225 419.037 225C415.287 225 403.737 224.4 398.487 224.4C393.837 224.4 386.787 225 381.237 225C377.637 225 375.537 223.2 375.537 221.7C375.537 219.6 377.637 218.1 380.487 217.35C386.637 215.55 388.137 214.35 388.437 206.85C388.587 201.45 388.587 198.75 388.587 171.75C388.587 153.3 388.137 152.4 387.837 149.25C387.537 146.25 386.187 143.25 380.487 142.2C377.637 141.6 375.837 139.35 375.837 138.3C375.837 135.75 378.837 134.4 382.437 134.4C390.087 134.4 392.637 134.7 394.587 134.7C404.487 134.7 412.737 133.8 423.237 133.8C436.437 133.8 443.337 136.65 446.937 139.35C453.387 144.3 456.537 150.3 456.537 158.25ZM433.437 160.8C433.437 151.35 426.987 142.05 416.187 142.05C415.587 142.05 413.337 142.65 412.437 143.25C411.987 143.55 411.537 144.3 411.537 145.65C411.537 149.85 411.837 163.8 411.837 173.85C411.837 174.45 412.437 176.25 413.037 176.55C415.137 177.45 417.087 177.9 419.637 177.9C422.937 177.9 428.337 174.45 429.237 173.85C430.137 173.25 433.437 168 433.437 160.8ZM514.138 134.7H529.588C543.238 134.7 545.338 134.7 548.788 133.95C550.438 133.65 551.488 134.55 551.938 135.3C552.838 136.8 554.038 148.2 554.038 151.5C554.038 155.4 552.238 156.3 551.338 156.3C548.638 156.3 547.138 154.65 545.338 150.6C542.488 144.45 540.388 143.4 539.188 143.4C530.638 143.4 522.388 143.85 520.288 143.85C519.538 143.85 518.338 145.5 518.338 146.1C518.188 148.95 517.888 159.75 517.888 170.1C517.888 172.5 518.338 174 519.088 174.15C520.738 174.6 525.988 174.45 528.688 174.3C535.438 173.85 537.538 171.45 539.188 167.7C540.088 165.45 541.588 163.65 543.238 163.65C545.338 163.65 546.688 165.75 546.388 170.1C546.238 171.9 546.088 175.35 546.088 178.8C546.088 182.25 546.388 185.7 546.538 187.95C546.838 192 544.588 193.8 543.088 193.8C541.738 193.8 539.788 192.15 538.438 189.15C536.938 185.7 536.488 184.65 533.338 184.35C527.188 183.9 526.288 183.6 519.538 183.6C518.788 183.6 517.888 185.7 517.888 189.45C517.888 193.5 518.338 202.2 518.488 205.5C518.788 209.85 519.388 211.5 519.838 212.1C521.338 214.35 528.538 216.3 535.738 216.3C538.138 216.3 542.338 215.85 545.788 213.9C548.638 212.4 550.138 210.6 553.438 206.1C555.838 202.8 557.488 199.2 559.888 199.2C562.738 199.2 563.638 203.55 563.038 206.7C562.138 211.05 558.538 221.1 557.938 222.45C557.488 223.5 554.338 225.15 553.438 225.15C551.488 225.15 545.488 224.4 518.188 224.4C508.738 224.4 489.838 225 483.388 225C480.238 225 477.988 223.8 477.988 222.6C477.988 220.8 479.188 218.7 482.338 217.8C492.688 214.95 492.988 211.5 493.288 208.8C493.888 201.6 494.038 198.45 494.038 175.35C494.038 152.25 493.738 151.35 493.288 148.65C492.538 144.15 490.588 142.5 484.588 141C480.688 140.1 480.088 138 480.088 136.95C480.088 135 483.088 133.95 485.038 133.95C487.588 133.95 504.238 134.7 514.138 134.7ZM609.793 134.7H625.243C638.893 134.7 640.993 134.7 644.443 133.95C646.093 133.65 647.143 134.55 647.593 135.3C648.493 136.8 649.693 148.2 649.693 151.5C649.693 155.4 647.893 156.3 646.993 156.3C644.293 156.3 642.793 154.65 640.993 150.6C638.143 144.45 636.043 143.4 634.843 143.4C626.293 143.4 618.043 143.85 615.943 143.85C615.193 143.85 613.993 145.5 613.993 146.1C613.843 148.95 613.543 159.75 613.543 170.1C613.543 172.5 613.993 174 614.743 174.15C616.393 174.6 621.643 174.45 624.343 174.3C631.093 173.85 633.193 171.45 634.843 167.7C635.743 165.45 637.243 163.65 638.893 163.65C640.993 163.65 642.343 165.75 642.043 170.1C641.893 171.9 641.743 175.35 641.743 178.8C641.743 182.25 642.043 185.7 642.193 187.95C642.493 192 640.243 193.8 638.743 193.8C637.393 193.8 635.443 192.15 634.093 189.15C632.593 185.7 632.143 184.65 628.993 184.35C622.843 183.9 621.943 183.6 615.193 183.6C614.443 183.6 613.543 185.7 613.543 189.45C613.543 193.5 613.993 202.2 614.143 205.5C614.443 209.85 615.043 211.5 615.493 212.1C616.993 214.35 624.193 216.3 631.393 216.3C633.793 216.3 637.993 215.85 641.443 213.9C644.293 212.4 645.793 210.6 649.093 206.1C651.493 202.8 653.143 199.2 655.543 199.2C658.393 199.2 659.293 203.55 658.693 206.7C657.793 211.05 654.193 221.1 653.593 222.45C653.143 223.5 649.993 225.15 649.093 225.15C647.143 225.15 641.143 224.4 613.843 224.4C604.393 224.4 585.493 225 579.043 225C575.893 225 573.643 223.8 573.643 222.6C573.643 220.8 574.843 218.7 577.993 217.8C588.343 214.95 588.643 211.5 588.943 208.8C589.543 201.6 589.693 198.45 589.693 175.35C589.693 152.25 589.393 151.35 588.943 148.65C588.193 144.15 586.243 142.5 580.243 141C576.343 140.1 575.743 138 575.743 136.95C575.743 135 578.743 133.95 580.693 133.95C583.243 133.95 599.893 134.7 609.793 134.7ZM669.297 136.35C669.297 135.3 670.497 133.8 673.197 133.8C679.197 133.8 691.197 135 700.797 135C702.147 135 704.247 136.05 704.697 136.65C707.247 140.1 711.897 145.05 719.097 152.85C727.047 161.4 750.897 186.6 754.197 188.4C754.647 188.55 755.847 188.25 755.997 187.8C756.897 183.75 756.897 169.35 756.447 159C755.997 148.8 756.747 144.9 745.047 142.2C741.447 141.3 740.097 138.75 740.097 137.85C740.097 136.8 741.747 134.55 745.347 134.55C750.747 134.55 750.447 134.7 754.347 134.7C760.497 134.7 771.897 133.95 774.897 133.95C778.047 133.95 780.147 134.85 780.147 137.4C780.147 139.05 778.947 140.1 774.147 142.2C767.997 144.9 767.097 146.55 766.947 148.5C766.647 155.4 765.447 186.3 765.447 196.35C765.447 202.95 766.047 209.55 766.047 216.45C766.047 222.75 764.847 227.4 762.147 227.4C757.347 227.4 753.447 224.7 750.597 221.4C745.047 215.1 737.997 206.85 733.797 202.2C728.097 195.6 704.697 170.7 698.097 163.5C697.647 163.05 696.597 163.95 696.597 164.55C696.447 167.85 696.147 168.3 696.147 174.75C696.147 181.5 696.447 195 696.597 199.05C697.047 210.75 698.997 214.35 704.247 216.45C709.347 218.4 710.997 220.05 710.997 222.15C710.997 223.95 709.347 225 705.897 225C701.697 225 696.597 224.4 689.547 224.4C682.497 224.4 678.747 225 676.797 225C672.297 225 670.797 223.35 670.797 221.85C670.797 219.9 672.597 218.55 675.297 217.65C682.197 215.4 684.897 214.95 685.647 204.9C686.397 194.85 687.597 159 687.597 154.2C687.597 153.3 686.847 150.15 684.897 147.9C681.747 144.3 679.047 142.5 675.597 141.75C672.147 141 669.297 139.2 669.297 136.35Z" fill="white"/>
</svg>
