<svg width="1620" height="271" viewBox="0 0 1620 271" fill="none" xmlns="http://www.w3.org/2000/svg">
<path d="M62.8195 181.859V179.359H60.3195V181.859H62.8195ZM77.8083 181.859H80.3083V179.359H77.8083V181.859ZM77.8083 230.402V232.902H80.3083V230.402H77.8083ZM75.7573 230.402L74.1728 232.336L74.8639 232.902H75.7573V230.402ZM55.1409 215.15L53.7225 217.209L53.7243 217.21L55.1409 215.15ZM19.746 204.895L21.4339 206.739L21.4423 206.731L21.4507 206.723L19.746 204.895ZM25.7941 229.455V231.955H31.6209L27.6059 227.733L25.7941 229.455ZM10.3845 229.455L8.28725 230.816L9.02635 231.955H10.3845V229.455ZM8.96445 191.852L10.8243 193.522L10.8312 193.514L8.96445 191.852ZM62.8195 205.526L61.2702 207.488L65.3195 210.685V205.526H62.8195ZM62.8195 184.359H77.8083V179.359H62.8195V184.359ZM75.3084 181.859V230.402H80.3083V181.859H75.3084ZM77.8083 227.902H75.7573V232.902H77.8083V227.902ZM77.3418 228.468C71.8355 223.957 64.9024 218.83 56.5576 213.09L53.7243 217.21C61.9988 222.901 68.81 227.942 74.1728 232.336L77.3418 228.468ZM56.5594 213.092C48.2306 207.352 42.116 203.585 38.3521 201.967L36.377 206.56C39.6254 207.957 45.3618 211.448 53.7225 217.209L56.5594 213.092ZM38.3521 201.967C34.5828 200.346 30.8464 199.502 27.1615 199.502V204.502C30.0684 204.502 33.1339 205.166 36.377 206.56L38.3521 201.967ZM27.1615 199.502C23.6654 199.502 20.5812 200.698 18.0413 203.066L21.4507 206.723C23.048 205.234 24.9075 204.502 27.1615 204.502V199.502ZM18.0581 203.05C15.4947 205.397 14.143 208.353 14.143 211.784H19.143C19.143 209.816 19.86 208.179 21.4339 206.739L18.0581 203.05ZM14.143 211.784C14.143 218.097 17.7107 224.582 23.9824 231.178L27.6059 227.733C21.6761 221.496 19.143 216.2 19.143 211.784H14.143ZM25.7941 226.955H10.3845V231.955H25.7941V226.955ZM12.4817 228.095C8.00035 221.187 5.88965 214.8 5.88965 208.892H0.889648C0.889648 216.026 3.44215 223.348 8.28725 230.816L12.4817 228.095ZM5.88965 208.892C5.88965 202.097 7.63095 197.077 10.8243 193.522L7.10465 190.181C2.86505 194.901 0.889648 201.241 0.889648 208.892H5.88965ZM10.8312 193.514C13.9954 189.962 18.3693 188.093 24.2689 188.093V183.093C17.1957 183.093 11.3666 185.396 7.09775 190.189L10.8312 193.514ZM24.2689 188.093C28.1289 188.093 33.1425 189.556 39.4113 192.797C45.6448 196.02 52.9268 200.9 61.2702 207.488L64.3687 203.564C55.8824 196.863 48.3245 191.777 41.7078 188.356C35.1264 184.953 29.2796 183.093 24.2689 183.093V188.093ZM65.3195 205.526V181.859H60.3195V205.526H65.3195ZM13.4348 128.793L14.7962 130.89L14.8038 130.885L13.4348 128.793ZM68.7625 165.45L70.1441 167.534L70.1517 167.528L68.7625 165.45ZM13.3296 165.345L11.9203 167.41L11.9227 167.411L13.3296 165.345ZM59.6639 140.574L60.5443 138.234L60.5368 138.231L59.6639 140.574ZM22.2704 140.574L23.1614 142.909L23.176 142.904L23.1905 142.898L22.2704 140.574ZM22.1652 153.669L21.1951 155.973L21.2072 155.978L22.1652 153.669ZM59.6114 153.669L60.4967 156.007L60.5103 156.002L60.524 155.997L59.6114 153.669ZM5.88965 146.99C5.88965 140.079 8.78755 134.791 14.7962 130.89L12.0735 126.696C4.68875 131.49 0.889648 138.334 0.889648 146.99H5.88965ZM14.8038 130.885C20.9523 126.861 29.5142 124.719 40.7305 124.719V119.719C28.9462 119.719 19.311 121.959 12.0658 126.701L14.8038 130.885ZM40.7305 124.719C52.4371 124.719 61.2299 126.803 67.3719 130.694L70.0477 126.471C62.7961 121.877 52.936 119.719 40.7305 119.719V124.719ZM67.3719 130.694C73.3495 134.481 76.2551 139.752 76.2551 146.78H81.2553C81.2553 138.029 77.4633 131.169 70.0477 126.471L67.3719 130.694ZM76.2551 146.78C76.2551 153.937 73.3428 159.381 67.3732 163.372L70.1517 167.528C77.5053 162.613 81.2553 155.611 81.2553 146.78H76.2551ZM67.3807 163.367C61.2798 167.412 52.6078 169.577 41.0986 169.577V174.577C53.151 174.577 62.9215 172.323 70.1441 167.534L67.3807 163.367ZM41.0986 169.577C29.4456 169.577 20.7549 167.376 14.7366 163.278L11.9227 167.411C19.0876 172.29 28.9096 174.577 41.0986 174.577V169.577ZM14.739 163.28C8.76215 159.2 5.88965 153.839 5.88965 146.99H0.889648C0.889648 155.569 4.64385 162.443 11.9203 167.41L14.739 163.28ZM67.4757 146.99C67.4757 144.973 66.8536 143.129 65.5735 141.583C64.3278 140.078 62.5807 139 60.5443 138.234L58.7835 142.914C60.2884 143.48 61.1971 144.137 61.7221 144.771C62.2126 145.364 62.4757 146.061 62.4757 146.99H67.4757ZM60.5368 138.231C56.4854 136.722 49.362 136.075 39.5734 136.075V141.075C49.4195 141.075 55.6899 141.761 58.7911 142.916L60.5368 138.231ZM39.5734 136.075C31.3861 136.075 25.1961 136.727 21.3503 138.249L23.1905 142.898C26.0766 141.756 31.422 141.075 39.5734 141.075V136.075ZM21.3794 138.238C19.3859 138.998 17.6816 140.094 16.4752 141.637C15.2445 143.21 14.6689 145.074 14.6689 147.095H19.6689C19.6689 146.066 19.9436 145.318 20.4134 144.717C20.9075 144.086 21.7539 143.446 23.1614 142.909L21.3794 138.238ZM14.6689 147.095C14.6689 149.084 15.2363 150.919 16.4276 152.487C17.5956 154.023 19.2489 155.154 21.1951 155.973L23.1354 151.365C21.7507 150.782 20.9058 150.116 20.4084 149.461C19.9342 148.837 19.6689 148.087 19.6689 147.095H14.6689ZM21.2072 155.978C23.193 156.802 25.9434 157.345 29.2952 157.694C32.6902 158.048 36.8771 158.22 41.8349 158.22V153.22C36.9754 153.22 32.9754 153.051 29.8138 152.721C26.609 152.387 24.4333 151.904 23.1233 151.36L21.2072 155.978ZM41.8349 158.22C50.1126 158.22 56.4309 157.547 60.4967 156.007L58.7261 151.331C55.5691 152.527 50.0363 153.22 41.8349 153.22V158.22ZM60.524 155.997C62.5832 155.189 64.3383 154.064 65.5838 152.513C66.8596 150.925 67.4757 149.043 67.4757 146.99H62.4757C62.4757 147.988 62.1978 148.744 61.6855 149.382C61.1429 150.058 60.2157 150.747 58.6986 151.342L60.524 155.997ZM62.8195 62.9992V60.4992H60.3195V62.9992H62.8195ZM77.8083 62.9992H80.3083V60.4992H77.8083V62.9992ZM77.8083 111.542V114.042H80.3083V111.542H77.8083ZM75.7573 111.542L74.1728 113.476L74.8639 114.042H75.7573V111.542ZM55.1409 96.2909L53.7225 98.3489L53.7243 98.3499L55.1409 96.2909ZM19.746 86.0349L21.4339 87.8789L21.4423 87.8709L21.4507 87.8639L19.746 86.0349ZM25.7941 110.596V113.096H31.6209L27.6059 108.873L25.7941 110.596ZM10.3845 110.596L8.28725 111.956L9.02635 113.096H10.3845V110.596ZM8.96445 72.9918L10.8243 74.6625L10.8312 74.6547L8.96445 72.9918ZM62.8195 86.6659L61.2702 88.6279L65.3195 91.8249V86.6659H62.8195ZM62.8195 65.4992H77.8083V60.4992H62.8195V65.4992ZM75.3084 62.9992V111.542H80.3083V62.9992H75.3084ZM77.8083 109.042H75.7573V114.042H77.8083V109.042ZM77.3418 109.609C71.8355 105.097 64.9024 99.9699 56.5576 94.2309L53.7243 98.3499C61.9988 104.041 68.81 109.082 74.1728 113.476L77.3418 109.609ZM56.5594 94.2319C48.2306 88.4929 42.116 84.7259 38.3521 83.1069L36.377 87.6999C39.6254 89.0969 45.3618 92.5879 53.7225 98.3489L56.5594 94.2319ZM38.3521 83.1069C34.5828 81.4859 30.8464 80.6419 27.1615 80.6419V85.6419C30.0684 85.6419 33.1339 86.3059 36.377 87.6999L38.3521 83.1069ZM27.1615 80.6419C23.6654 80.6419 20.5812 81.8389 18.0413 84.2059L21.4507 87.8639C23.048 86.3749 24.9075 85.6419 27.1615 85.6419V80.6419ZM18.0581 84.1909C15.4947 86.5369 14.143 89.4929 14.143 92.9249H19.143C19.143 90.9559 19.86 89.3199 21.4339 87.8789L18.0581 84.1909ZM14.143 92.9249C14.143 99.2379 17.7107 105.722 23.9824 112.318L27.6059 108.873C21.6761 102.637 19.143 97.3399 19.143 92.9249H14.143ZM25.7941 108.096H10.3845V113.096H25.7941V108.096ZM12.4817 109.235C8.00035 102.328 5.88965 95.9409 5.88965 90.0319H0.889648C0.889648 97.1659 3.44215 104.489 8.28725 111.956L12.4817 109.235ZM5.88965 90.0319C5.88965 83.2369 7.63095 78.2175 10.8243 74.6625L7.10465 71.3212C2.86505 76.0408 0.889648 82.3819 0.889648 90.0319H5.88965ZM10.8312 74.6547C13.9954 71.1025 18.3693 69.2333 24.2689 69.2333V64.2333C17.1957 64.2333 11.3666 66.5364 7.09775 71.329L10.8312 74.6547ZM24.2689 69.2333C28.1289 69.2333 33.1425 70.6959 39.4113 73.9372C45.6448 77.1602 52.9268 82.0399 61.2702 88.6279L64.3687 84.7039C55.8824 78.0032 48.3245 72.9169 41.7078 69.4957C35.1264 66.0928 29.2796 64.2333 24.2689 64.2333V69.2333ZM65.3195 86.6659V62.9992H60.3195V86.6659H65.3195ZM46.1475 36.0717V38.5717H48.5495L48.6455 36.1716L46.1475 36.0717ZM33.2097 36.0717H30.7097V38.5717H33.2097V36.0717ZM30.6327 28.7613L28.797 30.4585L28.8051 30.4672L28.8132 30.4758L30.6327 28.7613ZM19.5356 49.851V52.351H23.5417L21.7813 48.7524L19.5356 49.851ZM6.59785 49.851L4.30855 50.8557L4.96485 52.351H6.59785V49.851ZM8.43855 16.0865L10.4154 17.6169L10.423 17.6069L8.43855 16.0865ZM38.3638 20.4517L36.1739 21.6577L38.7462 26.3283L40.6915 21.3637L38.3638 20.4517ZM72.9174 14.6665L74.8484 13.0787L74.8413 13.0702L72.9174 14.6665ZM74.6003 51.6918V54.1918H76.1409L76.8335 52.8155L74.6003 51.6918ZM60.3476 51.6918L58.3019 50.2546L55.536 54.1918H60.3476V51.6918ZM63.5033 27.8672L65.4212 26.2637L65.4136 26.2545L65.4057 26.2454L63.5033 27.8672ZM49.2505 27.7621L51.0646 29.4823L51.0719 29.4745L51.0792 29.4667L49.2505 27.7621ZM46.1475 33.5717H33.2097V38.5717H46.1475V33.5717ZM35.7097 36.0717C35.7097 32.5304 34.6983 29.4305 32.4521 27.0468L28.8132 30.4758C30.0031 31.7386 30.7097 33.5122 30.7097 36.0717H35.7097ZM32.4683 27.0642C30.3098 24.7294 27.6073 23.4739 24.4793 23.4739V28.4739C26.1197 28.4739 27.5195 29.0767 28.797 30.4585L32.4683 27.0642ZM24.4793 23.4739C21.2469 23.4739 18.5151 24.8142 16.4467 27.3322L20.3104 30.5059C21.4677 29.097 22.8031 28.4739 24.4793 28.4739V23.4739ZM16.4467 27.3322C14.4008 29.823 13.4593 32.906 13.4593 36.3873H18.4593C18.4593 33.8379 19.1306 31.9421 20.3104 30.5059L16.4467 27.3322ZM13.4593 36.3873C13.4593 40.9726 14.79 45.8396 17.2899 50.9496L21.7813 48.7524C19.5127 44.1152 18.4593 40.0064 18.4593 36.3873H13.4593ZM19.5356 47.351H6.59785V52.351H19.5356V47.351ZM8.88705 48.8464C6.91065 44.3427 5.88965 39.1025 5.88965 33.0739H0.889648C0.889648 39.6676 2.00745 45.6121 4.30855 50.8557L8.88705 48.8464ZM5.88965 33.0739C5.88965 26.4995 7.47085 21.4204 10.4154 17.6169L6.46175 14.556C2.67455 19.4479 0.889648 25.6937 0.889648 33.0739H5.88965ZM10.423 17.6069C13.2999 13.8518 16.8907 12.065 21.3763 12.065V7.06501C15.2733 7.06501 10.2389 9.62581 6.45405 14.5661L10.423 17.6069ZM21.3763 12.065C27.6571 12.065 32.5467 15.0714 36.1739 21.6577L40.5537 19.2456C36.1868 11.3163 29.7514 7.06501 21.3763 7.06501V12.065ZM40.6915 21.3637C42.2303 17.4364 44.3667 14.6619 47.0177 12.8527C49.6686 11.0436 53.0295 10.0664 57.2446 10.0664V5.06641C52.2384 5.06641 47.8419 6.23681 44.1992 8.72281C40.5567 11.2086 37.8632 14.8767 36.0361 19.5396L40.6915 21.3637ZM57.2446 10.0664C63.0737 10.0664 67.5731 12.1403 70.9932 16.2627L74.8413 13.0702C70.4075 7.72591 64.4586 5.06641 57.2446 5.06641V10.0664ZM70.9862 16.2542C74.4124 20.4212 76.2551 26.1497 76.2551 33.705H81.2553C81.2553 25.3423 79.2064 18.3784 74.8484 13.0787L70.9862 16.2542ZM76.2551 33.705C76.2551 39.8223 74.9523 45.4303 72.3671 50.568L76.8335 52.8155C79.7884 46.9438 81.2553 40.5606 81.2553 33.705H76.2551ZM74.6003 49.1918H60.3476V54.1918H74.6003V49.1918ZM62.3932 53.1289C66.4638 47.3347 68.6854 41.6664 68.6854 36.1769H63.6854C63.6854 40.2944 62.0151 44.9693 58.3019 50.2546L62.3932 53.1289ZM68.6854 36.1769C68.6854 32.3234 67.6631 28.9451 65.4212 26.2637L61.5853 29.4708C62.9197 31.0669 63.6854 33.2284 63.6854 36.1769H68.6854ZM65.4057 26.2454C63.0951 23.5349 60.0436 22.1591 56.4557 22.1591V27.1591C58.618 27.1591 60.2648 27.9221 61.6006 29.4891L65.4057 26.2454ZM56.4557 22.1591C52.9002 22.1591 49.832 23.472 47.4218 26.0574L51.0792 29.4667C52.5259 27.9148 54.261 27.1591 56.4557 27.1591V22.1591ZM47.4365 26.0418C44.9941 28.6174 43.8078 32.0184 43.6496 35.9718L48.6455 36.1716C48.7679 33.1127 49.6501 30.9739 51.0646 29.4823L47.4365 26.0418Z" fill="white"/>
<path d="M131.465 1.5293L131.255 233.559" stroke="white" stroke-width="2" stroke-miterlimit="10" stroke-linecap="round"/>
<path d="M203.052 34.3689H211.91C219.736 34.3689 220.94 34.3689 222.918 33.9389C223.864 33.7669 224.466 34.2829 224.724 34.7129C225.24 35.5729 225.928 42.1089 225.928 44.0009C225.928 46.2369 224.896 46.7529 224.38 46.7529C222.832 46.7529 221.972 45.8069 220.94 43.4849C219.306 39.9589 218.102 39.3569 217.414 39.3569C212.512 39.3569 207.782 39.6149 206.578 39.6149C206.148 39.6149 205.46 40.5609 205.46 40.9049C205.374 42.5389 205.202 48.7309 205.202 54.6649C205.202 56.0409 205.46 56.9009 205.89 56.9869C206.836 57.2449 209.846 57.1589 211.394 57.0729C215.264 56.8149 216.468 55.4389 217.414 53.2889C217.93 51.9989 218.79 50.9669 219.736 50.9669C220.94 50.9669 221.714 52.1709 221.542 54.6649C221.456 55.6969 221.37 57.6749 221.37 59.6529C221.37 61.6309 221.542 63.6089 221.628 64.8989C221.8 67.2209 220.51 68.2529 219.65 68.2529C218.876 68.2529 217.758 67.3069 216.984 65.5869C216.124 63.6089 215.866 63.0069 214.06 62.8349C210.534 62.5769 210.018 62.4049 206.148 62.4049C205.718 62.4049 205.202 63.6089 205.202 65.7589C205.202 68.0809 205.46 73.0689 205.546 74.9609C205.718 77.4549 206.062 78.4009 206.32 78.7449C207.18 80.0349 211.308 81.1529 215.436 81.1529C216.812 81.1529 219.22 80.8949 221.198 79.7769C222.832 78.9169 223.692 77.8849 225.584 75.3049C226.96 73.4129 227.906 71.3489 229.282 71.3489C230.916 71.3489 231.432 73.8429 231.088 75.6489C230.572 78.1429 228.508 83.9049 228.164 84.6789C227.906 85.2809 226.1 86.2269 225.584 86.2269C224.466 86.2269 221.026 85.7969 205.374 85.7969C199.956 85.7969 189.12 86.1409 185.422 86.1409C183.616 86.1409 182.326 85.4529 182.326 84.7649C182.326 83.7329 183.014 82.5289 184.82 82.0129C190.754 80.3789 190.926 78.4009 191.098 76.8529C191.442 72.7249 191.528 70.9189 191.528 57.6749C191.528 44.4309 191.356 43.9149 191.098 42.3669C190.668 39.7869 189.55 38.8409 186.11 37.9809C183.874 37.4649 183.53 36.2609 183.53 35.6589C183.53 34.5409 185.25 33.9389 186.368 33.9389C187.83 33.9389 197.376 34.3689 203.052 34.3689ZM236.572 35.8309C236.572 35.3149 237.26 33.9389 240.012 33.9389C241.646 33.9389 249.988 34.3689 253.428 34.3689C257.04 34.3689 260.566 34.1969 262.544 34.1969C264.436 34.1969 265.468 35.0569 265.468 36.1749C265.468 37.1209 264.436 37.8949 263.318 38.3249C261.598 39.0129 261.168 39.6149 262.372 41.8509C263.662 44.2589 267.79 50.6229 268.822 51.7409C268.994 51.9129 269.768 52.3429 270.112 51.9129C272.348 49.1609 275.014 45.8929 276.734 43.1409C278.454 40.3889 277.938 39.5289 274.584 38.4109C272.778 37.8089 272.09 37.2069 272.09 36.6049C272.09 35.9169 273.896 34.1969 275.014 34.1969C276.906 34.2829 278.54 34.4549 281.292 34.4549C283.958 34.4549 290.58 34.0249 292.558 34.0249C293.676 34.0249 295.396 34.1969 295.396 35.4869C295.396 37.0349 293.848 38.0669 292.042 38.5829C288.946 39.3569 285.076 41.7649 281.55 45.6349C279.056 48.4729 273.294 54.7509 272.606 55.8689C272.434 56.1269 272.434 56.6429 272.692 57.3309C273.208 58.9649 282.324 72.3809 284.646 75.3049C287.14 78.4869 289.462 80.4649 293.246 81.4109C295.224 81.9269 296.686 83.0449 296.686 83.9049C296.686 85.2809 294.708 86.2269 293.074 86.2269C289.462 86.2269 283.356 85.7969 279.744 85.7969C276.906 85.7969 270.026 86.0549 269.166 86.0549C267.618 86.0549 266.156 85.2809 266.156 83.7329C266.156 83.1309 266.93 82.3569 268.564 81.5829C271.058 80.3789 270.972 79.6909 270.37 78.3149C269.51 76.2509 264.436 68.0809 263.232 66.7049C262.974 66.4469 261.856 66.4469 261.77 66.6189C257.642 71.8649 255.062 75.7349 254.116 77.4549C253.17 79.3469 253.944 80.3789 256.438 81.3249C258.244 82.0129 259.104 82.9589 259.19 83.7329C259.19 84.5929 257.986 86.0549 256.266 86.0549C254.632 86.0549 252.568 85.7969 250.16 85.7969C248.182 85.7969 240.356 86.2269 238.722 86.2269C237.26 86.2269 235.024 85.7109 235.024 83.9909C235.024 82.7869 236.916 81.9269 238.034 81.6689C242.334 80.6369 244.57 79.1749 247.322 76.1649C251.45 71.6929 255.75 66.5329 259.19 61.8889C259.534 61.4589 259.104 60.5129 258.76 59.8249C257.384 57.1589 250.934 47.9569 248.182 44.2589C244.828 39.7869 242.42 39.0989 239.496 38.4109C237.604 37.9809 236.572 36.6909 236.572 35.8309ZM319.874 34.3689H328.732C336.558 34.3689 337.762 34.3689 339.74 33.9389C340.686 33.7669 341.288 34.2829 341.546 34.7129C342.062 35.5729 342.75 42.1089 342.75 44.0009C342.75 46.2369 341.718 46.7529 341.202 46.7529C339.654 46.7529 338.794 45.8069 337.762 43.4849C336.128 39.9589 334.924 39.3569 334.236 39.3569C329.334 39.3569 324.604 39.6149 323.4 39.6149C322.97 39.6149 322.282 40.5609 322.282 40.9049C322.196 42.5389 322.024 48.7309 322.024 54.6649C322.024 56.0409 322.282 56.9009 322.712 56.9869C323.658 57.2449 326.668 57.1589 328.216 57.0729C332.086 56.8149 333.29 55.4389 334.236 53.2889C334.752 51.9989 335.612 50.9669 336.558 50.9669C337.762 50.9669 338.536 52.1709 338.364 54.6649C338.278 55.6969 338.192 57.6749 338.192 59.6529C338.192 61.6309 338.364 63.6089 338.45 64.8989C338.622 67.2209 337.332 68.2529 336.472 68.2529C335.698 68.2529 334.58 67.3069 333.806 65.5869C332.946 63.6089 332.688 63.0069 330.882 62.8349C327.356 62.5769 326.84 62.4049 322.97 62.4049C322.54 62.4049 322.024 63.6089 322.024 65.7589C322.024 68.0809 322.282 73.0689 322.368 74.9609C322.54 77.4549 322.884 78.4009 323.142 78.7449C324.002 80.0349 328.13 81.1529 332.258 81.1529C333.634 81.1529 336.042 80.8949 338.02 79.7769C339.654 78.9169 340.514 77.8849 342.406 75.3049C343.782 73.4129 344.728 71.3489 346.104 71.3489C347.738 71.3489 348.254 73.8429 347.91 75.6489C347.394 78.1429 345.33 83.9049 344.986 84.6789C344.728 85.2809 342.922 86.2269 342.406 86.2269C341.288 86.2269 337.848 85.7969 322.196 85.7969C316.778 85.7969 305.942 86.1409 302.244 86.1409C300.438 86.1409 299.148 85.4529 299.148 84.7649C299.148 83.7329 299.836 82.5289 301.642 82.0129C307.576 80.3789 307.748 78.4009 307.92 76.8529C308.264 72.7249 308.35 70.9189 308.35 57.6749C308.35 44.4309 308.178 43.9149 307.92 42.3669C307.49 39.7869 306.372 38.8409 302.932 37.9809C300.696 37.4649 300.352 36.2609 300.352 35.6589C300.352 34.5409 302.072 33.9389 303.19 33.9389C304.652 33.9389 314.198 34.3689 319.874 34.3689ZM387.682 32.6489C391.638 32.6489 395.594 33.5089 397.916 34.1109C400.066 34.7129 403.162 35.6589 403.85 35.6589C404.28 35.6589 405.312 36.7769 405.312 37.2929C405.312 40.3889 406.172 44.7749 406.172 46.9249C406.172 49.3329 404.538 50.7089 403.42 50.7089C402.732 50.7089 402.302 50.0209 401.614 48.1289C400.324 44.6029 399.808 42.7109 396.626 40.3889C393.96 38.4109 390.95 36.9489 387.252 36.9489C383.554 36.9489 378.824 39.0989 375.986 42.5389C372.288 46.9249 370.568 53.4609 370.568 58.6209C370.568 65.1569 372.718 71.0049 375.212 74.5309C378.308 78.9169 383.984 82.0989 389.144 82.0989C391.294 82.0989 395.164 80.7229 396.884 79.7769C397.572 79.3469 399.12 77.7129 401.27 74.2729C402.904 71.6929 403.936 70.6609 404.796 70.6609C406.43 70.6609 406.602 72.2949 406.516 74.1009C406.516 74.8749 404.882 80.6369 404.882 82.2709C404.882 82.5289 404.194 83.7329 403.936 83.9049C400.926 85.3669 393.272 87.3449 387.338 87.3449C377.792 87.3449 367.644 84.5069 361.538 77.7989C357.754 73.6709 355.088 67.9949 355.088 60.3409C355.088 51.1389 359.216 43.3989 366.784 38.1529C370.654 35.4869 378.738 32.6489 387.682 32.6489ZM413.391 35.9169C413.391 34.7129 414.939 33.9389 417.777 33.9389C420.443 33.9389 426.893 34.3689 429.731 34.3689C433.515 34.3689 437.557 34.1109 438.761 34.1109C440.997 34.1109 442.545 35.3149 442.545 36.1749C442.545 37.2069 440.567 38.3249 439.277 38.6689C435.407 39.7009 434.891 40.8189 434.633 44.8609C434.289 49.5049 434.289 55.8689 434.719 63.2649C435.149 70.7469 436.783 74.7029 438.589 76.2509C440.997 78.3149 444.523 79.8629 448.135 79.8629C454.757 79.8629 460.089 76.6809 461.207 67.3929C461.637 63.9529 461.723 54.6649 461.723 49.6769C461.723 40.7329 461.637 40.0449 455.531 38.5829C453.811 38.1529 452.349 37.4649 452.349 36.0029C452.349 35.3149 453.553 34.1109 455.875 34.1109C457.595 34.1109 460.347 34.3689 463.615 34.3689C466.711 34.3689 470.237 33.9389 473.247 33.9389C474.881 33.9389 476.601 34.4549 476.601 35.9169C476.601 37.0349 475.139 37.8949 473.419 38.4969C469.463 39.9589 468.861 40.6469 468.345 44.8609C468.173 45.8929 467.829 53.1169 467.485 59.7389C466.711 73.6709 463.873 78.0569 459.659 82.1849C456.133 85.6249 450.113 87.3449 444.179 87.3449C437.213 87.3449 429.731 85.1949 426.119 80.3789C421.303 74.0149 420.959 67.3929 420.959 57.5889C420.959 47.2689 420.787 45.9789 420.615 43.3989C420.357 39.9589 419.755 39.5289 416.573 38.5829C414.853 38.0669 413.391 37.3789 413.391 35.9169ZM499.046 34.3689H525.362C530.178 34.3689 532.328 33.7669 532.672 33.3369C533.704 32.0469 534.65 31.2729 535.252 31.2729C535.768 31.2729 538.004 32.6489 538.004 34.0249C538.004 34.6269 536.972 40.0449 536.972 45.8069C536.972 47.5269 535.682 49.4189 534.048 49.4189C532.844 49.4189 532.156 47.2689 531.984 46.4949C530.694 40.8189 529.232 40.6469 526.136 40.3029C524.846 40.1309 524.588 39.8729 517.278 39.8729C516.848 39.8729 516.59 40.5609 516.504 41.4209C516.418 42.6249 515.902 54.2349 515.902 59.6529C515.902 64.8989 515.816 70.5749 516.074 73.6709C516.59 79.9489 518.052 80.2069 521.578 81.4969C523.126 82.0989 524.588 82.8729 524.588 83.9049C524.588 85.7969 522.524 86.2269 520.804 86.2269C519.944 86.2269 510.484 85.7969 505.324 85.7969C502.83 85.7969 498.186 86.0549 495.864 86.0549C494.058 86.0549 492.338 85.2809 492.338 83.7329C492.338 83.0449 493.198 81.8409 495.176 81.3249C500.508 79.8629 501.97 78.7449 501.97 74.0149C501.97 72.2089 502.142 60.7709 502.142 55.1809C502.142 49.8489 502.228 44.1729 502.228 41.5069C502.228 40.8189 501.368 39.8729 501.11 39.8729C498.96 39.8729 495.778 39.8729 493.542 39.9589C491.134 40.0449 488.812 40.0449 486.49 46.4949C485.974 47.9569 484.942 49.0749 483.996 49.0749C482.878 49.0749 481.588 47.5269 481.588 45.4629C481.588 42.7969 482.534 38.9269 482.534 34.1969C482.534 32.7349 483.824 31.4449 484.856 31.4449C485.114 31.4449 486.146 31.9609 486.748 32.3909C488.21 33.5949 489.5 34.1109 491.994 34.1969C495.52 34.3689 496.294 34.3689 499.046 34.3689ZM552.073 66.9629V47.0969C552.073 39.8729 551.729 38.9269 547.085 37.8949C545.623 37.5509 544.763 36.5189 544.763 35.7449C544.763 34.4549 546.827 34.0249 547.687 34.0249C549.321 34.0249 554.739 34.3689 558.523 34.3689C563.683 34.3689 567.897 34.1109 570.391 34.1109C571.681 34.1109 573.057 34.7989 573.057 35.9169C573.057 36.9489 571.595 37.6369 570.907 37.8089C566.693 38.7549 566.435 39.8729 566.091 44.3449C565.833 48.0429 565.747 55.5249 565.747 61.3729C565.747 70.7469 565.919 74.1009 565.919 75.2189C566.091 79.2609 566.521 80.9809 570.821 82.0129C572.455 82.4429 573.573 83.3029 573.573 84.5069C573.573 85.5389 571.681 86.0549 570.649 86.0549C569.789 86.0549 561.447 85.7969 558.523 85.7969C555.513 85.7969 549.235 86.1409 547.687 86.1409C546.569 86.1409 544.763 85.8829 544.763 84.5069C544.763 83.5609 546.139 82.4429 547.343 82.0989C550.783 80.9809 551.299 79.9489 551.729 77.3689C551.987 75.5629 552.073 74.0149 552.073 66.9629ZM577.016 35.9169C577.016 35.0569 578.478 33.8529 580.456 33.8529C583.294 33.8529 588.798 34.3689 591.98 34.3689C595.076 34.3689 598.946 34.2829 601.268 34.2829C603.246 34.2829 604.794 35.3149 604.794 36.6909C604.794 37.6369 603.16 38.4109 601.784 39.0129C600.15 39.7009 599.978 40.6469 600.58 42.7109C601.44 45.8069 609.782 65.4149 610.814 66.7909C611.158 67.2209 611.674 67.4789 612.018 66.8769C615.544 59.0509 619.5 49.4189 621.392 43.8289C622.338 40.9909 622.08 40.0449 618.984 38.9269C617.35 38.3249 615.974 37.4649 615.974 36.2609C615.974 35.1429 617.436 34.2829 619.5 34.2829C621.392 34.2829 623.886 34.3689 625.692 34.3689C628.96 34.3689 631.54 33.9389 634.378 33.9389C636.356 33.9389 637.818 34.8849 637.818 35.8309C637.818 37.2069 636.7 37.9809 634.808 38.4969C630.164 39.8729 628.874 42.2809 626.982 45.8069C624.402 50.6229 617.522 65.6729 614.34 74.1009C612.534 78.8309 610.986 82.9589 610.47 84.0769C610.04 85.1089 607.288 87.6029 606.256 87.6029C604.622 87.6029 603.762 86.7429 603.16 84.9369C602.73 83.6469 601.01 79.2609 599.376 74.9609C597.656 70.4029 589.4 51.3109 585.358 42.7969C584.326 40.5609 583.294 39.7869 579.94 38.4109C578.392 37.8089 577.016 36.9489 577.016 35.9169ZM660.515 34.3689H669.373C677.199 34.3689 678.403 34.3689 680.381 33.9389C681.327 33.7669 681.929 34.2829 682.187 34.7129C682.703 35.5729 683.391 42.1089 683.391 44.0009C683.391 46.2369 682.359 46.7529 681.843 46.7529C680.295 46.7529 679.435 45.8069 678.403 43.4849C676.769 39.9589 675.565 39.3569 674.877 39.3569C669.975 39.3569 665.245 39.6149 664.041 39.6149C663.611 39.6149 662.923 40.5609 662.923 40.9049C662.837 42.5389 662.665 48.7309 662.665 54.6649C662.665 56.0409 662.923 56.9009 663.353 56.9869C664.299 57.2449 667.309 57.1589 668.857 57.0729C672.727 56.8149 673.931 55.4389 674.877 53.2889C675.393 51.9989 676.253 50.9669 677.199 50.9669C678.403 50.9669 679.177 52.1709 679.005 54.6649C678.919 55.6969 678.833 57.6749 678.833 59.6529C678.833 61.6309 679.005 63.6089 679.091 64.8989C679.263 67.2209 677.973 68.2529 677.113 68.2529C676.339 68.2529 675.221 67.3069 674.447 65.5869C673.587 63.6089 673.329 63.0069 671.523 62.8349C667.997 62.5769 667.481 62.4049 663.611 62.4049C663.181 62.4049 662.665 63.6089 662.665 65.7589C662.665 68.0809 662.923 73.0689 663.009 74.9609C663.181 77.4549 663.525 78.4009 663.783 78.7449C664.643 80.0349 668.771 81.1529 672.899 81.1529C674.275 81.1529 676.683 80.8949 678.661 79.7769C680.295 78.9169 681.155 77.8849 683.047 75.3049C684.423 73.4129 685.369 71.3489 686.745 71.3489C688.379 71.3489 688.895 73.8429 688.551 75.6489C688.035 78.1429 685.971 83.9049 685.627 84.6789C685.369 85.2809 683.563 86.2269 683.047 86.2269C681.929 86.2269 678.489 85.7969 662.837 85.7969C657.419 85.7969 646.583 86.1409 642.885 86.1409C641.079 86.1409 639.789 85.4529 639.789 84.7649C639.789 83.7329 640.477 82.5289 642.283 82.0129C648.217 80.3789 648.389 78.4009 648.561 76.8529C648.905 72.7249 648.991 70.9189 648.991 57.6749C648.991 44.4309 648.819 43.9149 648.561 42.3669C648.131 39.7869 647.013 38.8409 643.573 37.9809C641.337 37.4649 640.993 36.2609 640.993 35.6589C640.993 34.5409 642.713 33.9389 643.831 33.9389C645.293 33.9389 654.839 34.3689 660.515 34.3689Z" fill="white"/>
<path d="M234.268 119.391C249.089 119.391 264.374 122.633 275.799 132.205C288.767 143.167 291.392 156.908 291.392 166.48C291.392 190.102 275.644 202.298 267.307 206.93C256.345 212.797 244.766 214.032 233.341 214.032C227.011 214.032 210.183 212.797 205.242 212.797C200.302 212.797 193.354 212.797 185.944 213.414C184.708 213.569 183.473 212.488 183.473 211.407C183.473 209.709 185.789 206.004 189.649 204.923C194.589 203.533 197.214 203.997 198.449 197.049C199.53 191.028 199.53 183.308 199.53 162.929C199.53 141.777 199.839 139.153 198.758 133.749C198.449 132.051 198.14 129.735 190.884 128.191C187.179 127.419 185.017 125.721 185.017 123.559C185.017 121.244 187.488 120.317 191.965 120.317L202.618 120.472C208.021 120.626 223.46 119.391 234.268 119.391ZM234.268 127.574C233.033 127.574 227.938 128.191 226.857 128.809C226.239 129.117 224.696 132.051 224.696 132.668C224.387 137.918 223.769 144.556 223.769 156.136V167.252C223.769 187.014 224.387 189.484 224.85 194.116C225.159 197.358 226.857 200.6 228.71 202.144C230.408 203.533 235.966 206.158 237.973 206.158C239.671 206.158 248.008 204.305 254.802 197.821C261.749 191.182 264.683 178.214 264.683 167.869C264.683 156.599 261.749 145.02 253.875 137.3C247.082 130.507 239.208 127.574 234.268 127.574ZM317.886 178.985V143.321C317.886 130.353 317.268 128.654 308.931 126.802C306.306 126.184 304.762 124.331 304.762 122.942C304.762 120.626 308.468 119.854 310.012 119.854C312.945 119.854 322.672 120.472 329.465 120.472C338.728 120.472 346.293 120.008 350.771 120.008C353.086 120.008 355.557 121.244 355.557 123.251C355.557 125.103 352.932 126.338 351.697 126.647C344.132 128.346 343.669 130.353 343.051 138.381C342.588 145.02 342.434 158.452 342.434 168.95C342.434 185.779 342.742 191.8 342.742 193.807C343.051 201.063 343.823 204.151 351.543 206.004C354.476 206.776 356.483 208.32 356.483 210.481C356.483 212.334 353.086 213.26 351.234 213.26C349.69 213.26 334.714 212.797 329.465 212.797C324.061 212.797 312.791 213.414 310.012 213.414C308.005 213.414 304.762 212.951 304.762 210.481C304.762 208.783 307.233 206.776 309.394 206.158C315.57 204.151 316.496 202.298 317.268 197.667C317.731 194.424 317.886 191.645 317.886 178.985ZM453.729 144.711C453.729 150.578 450.796 157.216 446.782 160.613C444.466 162.62 442.305 163.083 439.062 164.936C438.29 165.399 439.062 168.333 439.526 169.259C442.922 176.052 449.87 187.477 455.737 194.888C461.14 201.681 465.926 204.305 470.712 206.158C472.256 206.776 474.263 208.165 474.263 209.555C474.263 213.569 469.323 214.804 465.154 214.804C452.803 214.804 440.915 213.569 430.108 199.519C424.55 192.263 420.381 184.544 416.058 177.596C413.588 173.582 411.427 172.81 408.956 172.81C407.876 172.81 407.721 174.663 407.721 175.126C407.721 187.477 407.721 191.182 408.184 196.586C408.648 202.144 410.191 202.298 416.367 205.232C419.146 206.621 420.999 208.32 420.999 209.555C420.999 211.253 417.757 213.414 415.132 213.414C411.272 213.414 399.384 212.797 393.981 212.797C389.194 212.797 381.938 213.414 376.226 213.414C372.52 213.414 370.359 211.562 370.359 210.018C370.359 207.856 372.52 206.312 375.454 205.541C381.784 203.688 383.328 202.453 383.636 194.733C383.791 189.175 383.791 186.396 383.791 158.606C383.791 139.616 383.328 138.69 383.019 135.447C382.71 132.36 381.321 129.272 375.454 128.191C372.52 127.574 370.668 125.258 370.668 124.177C370.668 121.552 373.755 120.163 377.461 120.163C385.335 120.163 387.959 120.472 389.966 120.472C400.156 120.472 408.648 119.545 419.455 119.545C433.041 119.545 440.143 122.479 443.848 125.258C450.487 130.353 453.729 136.528 453.729 144.711ZM429.953 147.336C429.953 137.609 423.315 128.037 412.199 128.037C411.581 128.037 409.265 128.654 408.339 129.272C407.876 129.581 407.412 130.353 407.412 131.742C407.412 136.065 407.721 150.423 407.721 160.767C407.721 161.385 408.339 163.238 408.956 163.546C411.118 164.473 413.125 164.936 415.75 164.936C419.146 164.936 424.704 161.385 425.63 160.767C426.557 160.15 429.953 154.746 429.953 147.336ZM513.016 120.472H528.919C542.968 120.472 545.13 120.472 548.681 119.7C550.379 119.391 551.46 120.317 551.923 121.089C552.849 122.633 554.084 134.367 554.084 137.763C554.084 141.777 552.231 142.704 551.305 142.704C548.526 142.704 546.982 141.006 545.13 136.837C542.196 130.507 540.035 129.426 538.8 129.426C529.999 129.426 521.508 129.889 519.346 129.889C518.574 129.889 517.339 131.588 517.339 132.205C517.185 135.139 516.876 146.255 516.876 156.908C516.876 159.378 517.339 160.922 518.111 161.076C519.81 161.539 525.213 161.385 527.992 161.231C534.94 160.767 537.101 158.297 538.8 154.437C539.726 152.122 541.27 150.269 542.968 150.269C545.13 150.269 546.519 152.43 546.21 156.908C546.056 158.76 545.901 162.311 545.901 165.862C545.901 169.413 546.21 172.964 546.365 175.28C546.673 179.449 544.358 181.301 542.814 181.301C541.424 181.301 539.417 179.603 538.028 176.515C536.484 172.964 536.021 171.884 532.778 171.575C526.448 171.112 525.522 170.803 518.574 170.803C517.803 170.803 516.876 172.964 516.876 176.824C516.876 180.993 517.339 189.947 517.494 193.344C517.803 197.821 518.42 199.519 518.883 200.137C520.427 202.453 527.838 204.46 535.249 204.46C537.719 204.46 542.042 203.997 545.593 201.99C548.526 200.446 550.07 198.593 553.467 193.961C555.937 190.565 557.635 186.859 560.105 186.859C563.039 186.859 563.965 191.337 563.348 194.579C562.421 199.056 558.716 209.4 558.098 210.79C557.635 211.871 554.393 213.569 553.467 213.569C551.46 213.569 545.284 212.797 517.185 212.797C507.458 212.797 488.005 213.414 481.366 213.414C478.124 213.414 475.808 212.179 475.808 210.944C475.808 209.092 477.044 206.93 480.286 206.004C490.939 203.07 491.247 199.519 491.556 196.74C492.174 189.33 492.328 186.087 492.328 162.311C492.328 138.535 492.019 137.609 491.556 134.83C490.784 130.198 488.777 128.5 482.602 126.956C478.587 126.03 477.97 123.868 477.97 122.788C477.97 120.78 481.058 119.7 483.065 119.7C485.689 119.7 502.827 120.472 513.016 120.472ZM634.748 117.384C641.85 117.384 648.952 118.928 653.121 120.008C656.98 121.089 662.538 122.788 663.773 122.788C664.545 122.788 666.398 124.795 666.398 125.721C666.398 131.279 667.942 139.153 667.942 143.013C667.942 147.336 665.009 149.806 663.001 149.806C661.766 149.806 660.994 148.571 659.759 145.174C657.443 138.844 656.517 135.447 650.805 131.279C646.019 127.728 640.615 125.103 633.976 125.103C627.337 125.103 618.846 128.963 613.751 135.139C607.112 143.013 604.025 154.746 604.025 164.01C604.025 175.743 607.884 186.242 612.362 192.572C617.92 200.446 628.109 206.158 637.373 206.158C641.233 206.158 648.18 203.688 651.268 201.99C652.503 201.218 655.282 198.284 659.142 192.109C662.075 187.477 663.928 185.624 665.472 185.624C668.405 185.624 668.714 188.558 668.56 191.8C668.56 193.189 665.626 203.533 665.626 206.467C665.626 206.93 664.391 209.092 663.928 209.4C658.524 212.025 644.783 215.576 634.131 215.576C616.993 215.576 598.775 210.481 587.814 198.439C581.02 191.028 576.234 180.838 576.234 167.097C576.234 150.578 583.645 136.683 597.231 127.265C604.179 122.479 618.692 117.384 634.748 117.384ZM713.904 120.472H761.148C769.794 120.472 773.653 119.391 774.271 118.619C776.124 116.303 777.822 114.914 778.903 114.914C779.829 114.914 783.843 117.384 783.843 119.854C783.843 120.935 781.99 130.661 781.99 141.006C781.99 144.093 779.674 147.49 776.741 147.49C774.58 147.49 773.344 143.63 773.036 142.241C770.72 132.051 768.095 131.742 762.537 131.125C760.221 130.816 759.758 130.353 746.635 130.353C745.863 130.353 745.4 131.588 745.246 133.132C745.091 135.293 744.165 156.136 744.165 165.862C744.165 175.28 744.01 185.47 744.474 191.028C745.4 202.298 748.025 202.762 754.355 205.077C757.134 206.158 759.758 207.548 759.758 209.4C759.758 212.797 756.053 213.569 752.965 213.569C751.421 213.569 734.438 212.797 725.175 212.797C720.698 212.797 712.36 213.26 708.192 213.26C704.95 213.26 701.862 211.871 701.862 209.092C701.862 207.856 703.406 205.695 706.957 204.769C716.529 202.144 719.154 200.137 719.154 191.645C719.154 188.403 719.462 167.869 719.462 157.834C719.462 148.262 719.617 138.072 719.617 133.286C719.617 132.051 718.073 130.353 717.61 130.353C713.75 130.353 708.038 130.353 704.023 130.507C699.7 130.661 695.532 130.661 691.363 142.241C690.437 144.865 688.584 146.872 686.886 146.872C684.879 146.872 682.563 144.093 682.563 140.388C682.563 135.602 684.261 128.654 684.261 120.163C684.261 117.538 686.577 115.222 688.43 115.222C688.893 115.222 690.746 116.149 691.827 116.921C694.451 119.082 696.767 120.008 701.244 120.163C707.574 120.472 708.964 120.472 713.904 120.472ZM847.216 117.384C879.33 117.384 900.944 138.998 900.944 166.634C900.944 185.933 889.519 201.063 875.007 209.092C868.368 212.797 857.561 215.576 847.68 215.576C815.103 215.576 793.798 193.344 793.798 166.634C793.798 154.746 798.275 143.013 807.847 133.44C817.882 123.405 832.704 117.384 847.216 117.384ZM844.437 125.412C837.181 125.412 830.697 131.588 830.542 131.742C824.058 138.844 821.279 149.343 821.279 163.855C821.279 184.852 830.851 207.702 851.694 207.702C856.943 207.702 863.119 203.07 863.891 202.453C868.831 197.821 872.845 188.094 872.845 167.715C872.845 151.504 864.817 125.412 844.437 125.412ZM998.165 144.711C998.165 150.578 995.232 157.216 991.218 160.613C988.902 162.62 986.74 163.083 983.498 164.936C982.726 165.399 983.498 168.333 983.961 169.259C987.358 176.052 994.306 187.477 1000.17 194.888C1005.58 201.681 1010.36 204.305 1015.15 206.158C1016.69 206.776 1018.7 208.165 1018.7 209.555C1018.7 213.569 1013.76 214.804 1009.59 214.804C997.239 214.804 985.351 213.569 974.544 199.519C968.986 192.263 964.817 184.544 960.494 177.596C958.024 173.582 955.862 172.81 953.392 172.81C952.311 172.81 952.157 174.663 952.157 175.126C952.157 187.477 952.157 191.182 952.62 196.586C953.083 202.144 954.627 202.298 960.803 205.232C963.582 206.621 965.435 208.32 965.435 209.555C965.435 211.253 962.192 213.414 959.568 213.414C955.708 213.414 943.82 212.797 938.416 212.797C933.63 212.797 926.374 213.414 920.662 213.414C916.956 213.414 914.795 211.562 914.795 210.018C914.795 207.856 916.956 206.312 919.89 205.541C926.22 203.688 927.763 202.453 928.072 194.733C928.227 189.175 928.227 186.396 928.227 158.606C928.227 139.616 927.763 138.69 927.455 135.447C927.146 132.36 925.756 129.272 919.89 128.191C916.956 127.574 915.103 125.258 915.103 124.177C915.103 121.552 918.191 120.163 921.897 120.163C929.771 120.163 932.395 120.472 934.402 120.472C944.592 120.472 953.083 119.545 963.891 119.545C977.477 119.545 984.579 122.479 988.284 125.258C994.923 130.353 998.165 136.528 998.165 144.711ZM974.389 147.336C974.389 137.609 967.75 128.037 956.634 128.037C956.017 128.037 953.701 128.654 952.775 129.272C952.311 129.581 951.848 130.353 951.848 131.742C951.848 136.065 952.157 150.423 952.157 160.767C952.157 161.385 952.775 163.238 953.392 163.546C955.554 164.473 957.561 164.936 960.185 164.936C963.582 164.936 969.14 161.385 970.066 160.767C970.993 160.15 974.389 154.746 974.389 147.336ZM1029.97 109.201C1042.01 109.201 1046.8 119.545 1046.8 127.419C1046.8 144.402 1027.65 150.732 1024.41 150.732C1022.4 150.732 1019.32 149.343 1019.32 148.262C1019.32 145.174 1021.01 143.939 1022.87 142.858C1027.96 139.925 1032.13 137.3 1032.13 132.977C1032.13 129.117 1029.35 127.574 1024.87 125.721C1022.4 124.64 1019.78 121.861 1019.78 118.619C1019.78 113.524 1025.18 109.201 1029.97 109.201ZM1100.15 117.538C1108.79 117.538 1116.98 120.317 1123 121.707C1123.92 121.861 1125 124.331 1125 126.03C1125 127.882 1126.08 136.374 1126.08 138.69C1126.08 143.939 1123.61 146.1 1121.45 146.1C1119.75 146.1 1118.37 143.476 1117.9 142.241C1114.51 132.977 1106.48 124.64 1097.68 124.64C1091.19 124.64 1085.33 130.661 1085.33 136.528C1085.33 143.476 1090.42 148.571 1099.22 153.048C1118.67 162.929 1130.1 171.575 1130.1 186.242C1130.1 198.902 1121.45 206.004 1115.89 209.4C1109.87 212.951 1099.68 215.576 1092.58 215.576C1079.46 215.576 1071.89 212.797 1068.34 211.407C1067.26 210.944 1064.79 209.555 1064.02 207.856C1061.4 202.298 1060.93 194.27 1060.93 190.565C1060.93 187.631 1062.48 183.926 1064.95 183.926C1066.64 183.926 1068.65 185.779 1070.81 189.793C1076.53 200.291 1085.02 207.856 1094.59 207.856C1100.15 207.856 1107.09 203.997 1107.09 196.895C1107.09 192.263 1107.4 187.168 1091.66 178.677C1071.43 167.869 1063.56 159.532 1063.56 145.174C1063.56 135.139 1070.66 126.956 1078.07 122.788C1083.94 119.545 1091.35 117.538 1100.15 117.538ZM1171.77 122.17C1171.77 121.089 1173 119.545 1175.78 119.545C1181.96 119.545 1194.31 120.78 1204.19 120.78C1205.58 120.78 1207.74 121.861 1208.21 122.479C1210.83 126.03 1215.62 131.125 1223.03 139.153C1231.21 147.953 1255.76 173.891 1259.15 175.743C1259.62 175.898 1260.85 175.589 1261.01 175.126C1261.93 170.957 1261.93 156.136 1261.47 145.483C1261.01 134.984 1261.78 130.97 1249.74 128.191C1246.03 127.265 1244.64 124.64 1244.64 123.714C1244.64 122.633 1246.34 120.317 1250.05 120.317C1255.6 120.317 1255.29 120.472 1259.31 120.472C1265.64 120.472 1277.37 119.7 1280.46 119.7C1283.7 119.7 1285.86 120.626 1285.86 123.251C1285.86 124.949 1284.63 126.03 1279.69 128.191C1273.36 130.97 1272.43 132.668 1272.28 134.676C1271.97 141.777 1270.73 173.582 1270.73 183.926C1270.73 190.719 1271.35 197.512 1271.35 204.614C1271.35 211.099 1270.12 215.885 1267.34 215.885C1262.4 215.885 1258.38 213.106 1255.45 209.709C1249.74 203.225 1242.48 194.733 1238.16 189.947C1232.29 183.154 1208.21 157.525 1201.41 150.115C1200.95 149.651 1199.87 150.578 1199.87 151.195C1199.71 154.592 1199.41 155.055 1199.41 161.694C1199.41 168.641 1199.71 182.536 1199.87 186.705C1200.33 198.747 1202.34 202.453 1207.74 204.614C1212.99 206.621 1214.69 208.32 1214.69 210.481C1214.69 212.334 1212.99 213.414 1209.44 213.414C1205.12 213.414 1199.87 212.797 1192.61 212.797C1185.36 212.797 1181.5 213.414 1179.49 213.414C1174.86 213.414 1173.31 211.716 1173.31 210.172C1173.31 208.165 1175.17 206.776 1177.95 205.849C1185.05 203.533 1187.83 203.07 1188.6 192.726C1189.37 182.382 1190.61 145.483 1190.61 140.542C1190.61 139.616 1189.83 136.374 1187.83 134.058C1184.58 130.353 1181.8 128.5 1178.25 127.728C1174.7 126.956 1171.77 125.103 1171.77 122.17ZM1350.34 117.384C1382.45 117.384 1404.07 138.998 1404.07 166.634C1404.07 185.933 1392.64 201.063 1378.13 209.092C1371.49 212.797 1360.69 215.576 1350.8 215.576C1318.23 215.576 1296.92 193.344 1296.92 166.634C1296.92 154.746 1301.4 143.013 1310.97 133.44C1321.01 123.405 1335.83 117.384 1350.34 117.384ZM1347.56 125.412C1340.31 125.412 1333.82 131.588 1333.67 131.742C1327.18 138.844 1324.4 149.343 1324.4 163.855C1324.4 184.852 1333.98 207.702 1354.82 207.702C1360.07 207.702 1366.24 203.07 1367.02 202.453C1371.96 197.821 1375.97 188.094 1375.97 167.715C1375.97 151.504 1367.94 125.412 1347.56 125.412ZM1446.5 120.472H1493.75C1502.39 120.472 1506.25 119.391 1506.87 118.619C1508.72 116.303 1510.42 114.914 1511.5 114.914C1512.43 114.914 1516.44 117.384 1516.44 119.854C1516.44 120.935 1514.59 130.661 1514.59 141.006C1514.59 144.093 1512.27 147.49 1509.34 147.49C1507.18 147.49 1505.94 143.63 1505.63 142.241C1503.32 132.051 1500.69 131.742 1495.14 131.125C1492.82 130.816 1492.36 130.353 1479.23 130.353C1478.46 130.353 1478 131.588 1477.84 133.132C1477.69 135.293 1476.76 156.136 1476.76 165.862C1476.76 175.28 1476.61 185.47 1477.07 191.028C1478 202.298 1480.62 202.762 1486.95 205.077C1489.73 206.158 1492.36 207.548 1492.36 209.4C1492.36 212.797 1488.65 213.569 1485.56 213.569C1484.02 213.569 1467.04 212.797 1457.77 212.797C1453.3 212.797 1444.96 213.26 1440.79 213.26C1437.55 213.26 1434.46 211.871 1434.46 209.092C1434.46 207.856 1436 205.695 1439.56 204.769C1449.13 202.144 1451.75 200.137 1451.75 191.645C1451.75 188.403 1452.06 167.869 1452.06 157.834C1452.06 148.262 1452.22 138.072 1452.22 133.286C1452.22 132.051 1450.67 130.353 1450.21 130.353C1446.35 130.353 1440.64 130.353 1436.62 130.507C1432.3 130.661 1428.13 130.661 1423.96 142.241C1423.04 144.865 1421.18 146.872 1419.48 146.872C1417.48 146.872 1415.16 144.093 1415.16 140.388C1415.16 135.602 1416.86 128.654 1416.86 120.163C1416.86 117.538 1419.18 115.222 1421.03 115.222C1421.49 115.222 1423.34 116.149 1424.43 116.921C1427.05 119.082 1429.37 120.008 1433.84 120.163C1440.17 120.472 1441.56 120.472 1446.5 120.472ZM1562.39 120.472H1578.29C1592.34 120.472 1594.5 120.472 1598.05 119.7C1599.75 119.391 1600.83 120.317 1601.29 121.089C1602.22 122.633 1603.45 134.367 1603.45 137.763C1603.45 141.777 1601.6 142.704 1600.67 142.704C1597.9 142.704 1596.35 141.006 1594.5 136.837C1591.57 130.507 1589.4 129.426 1588.17 129.426C1579.37 129.426 1570.88 129.889 1568.72 129.889C1567.94 129.889 1566.71 131.588 1566.71 132.205C1566.55 135.139 1566.25 146.255 1566.25 156.908C1566.25 159.378 1566.71 160.922 1567.48 161.076C1569.18 161.539 1574.58 161.385 1577.36 161.231C1584.31 160.767 1586.47 158.297 1588.17 154.437C1589.1 152.122 1590.64 150.269 1592.34 150.269C1594.5 150.269 1595.89 152.43 1595.58 156.908C1595.43 158.76 1595.27 162.311 1595.27 165.862C1595.27 169.413 1595.58 172.964 1595.73 175.28C1596.04 179.449 1593.73 181.301 1592.18 181.301C1590.79 181.301 1588.79 179.603 1587.4 176.515C1585.85 172.964 1585.39 171.884 1582.15 171.575C1575.82 171.112 1574.89 170.803 1567.94 170.803C1567.17 170.803 1566.25 172.964 1566.25 176.824C1566.25 180.993 1566.71 189.947 1566.86 193.344C1567.17 197.821 1567.79 199.519 1568.25 200.137C1569.8 202.453 1577.21 204.46 1584.62 204.46C1587.09 204.46 1591.41 203.997 1594.96 201.99C1597.9 200.446 1599.44 198.593 1602.84 193.961C1605.31 190.565 1607 186.859 1609.47 186.859C1612.41 186.859 1613.33 191.337 1612.72 194.579C1611.79 199.056 1608.09 209.4 1607.47 210.79C1607 211.871 1603.76 213.569 1602.84 213.569C1600.83 213.569 1594.65 212.797 1566.55 212.797C1556.83 212.797 1537.37 213.414 1530.74 213.414C1527.49 213.414 1525.18 212.179 1525.18 210.944C1525.18 209.092 1526.41 206.93 1529.66 206.004C1540.31 203.07 1540.62 199.519 1540.93 196.74C1541.54 189.33 1541.7 186.087 1541.7 162.311C1541.7 138.535 1541.39 137.609 1540.93 134.83C1540.15 130.198 1538.15 128.5 1531.97 126.956C1527.96 126.03 1527.34 123.868 1527.34 122.788C1527.34 120.78 1530.43 119.7 1532.43 119.7C1535.06 119.7 1552.2 120.472 1562.39 120.472Z" fill="white"/>
</svg>
