<svg width="1018" height="271" viewBox="0 0 1018 271" fill="none" xmlns="http://www.w3.org/2000/svg">
<path d="M61.9767 181.523V179.023H59.4767V181.523H61.9767ZM76.9656 181.523H79.4656V179.023H76.9656V181.523ZM76.9656 230.066V232.566H79.4656V230.066H76.9656ZM74.9146 230.066L73.3301 232L74.0212 232.566H74.9146V230.066ZM54.2982 214.814L52.8797 216.873L52.8815 216.874L54.2982 214.814ZM18.9033 204.559L20.5912 206.403L20.5996 206.395L20.608 206.387L18.9033 204.559ZM24.9514 229.119V231.619H30.7782L26.7632 227.397L24.9514 229.119ZM9.54177 229.119L7.44447 230.48L8.18357 231.619H9.54177V229.119ZM8.12167 191.516L9.98158 193.186L9.98848 193.178L8.12167 191.516ZM61.9767 205.19L60.4275 207.152L64.4767 210.349V205.19H61.9767ZM61.9767 184.023H76.9656V179.023H61.9767V184.023ZM74.4657 181.523V230.066H79.4656V181.523H74.4657ZM76.9656 227.566H74.9146V232.566H76.9656V227.566ZM76.499 228.132C70.9927 223.621 64.0597 218.494 55.7149 212.754L52.8815 216.874C61.156 222.565 67.9673 227.606 73.3301 232L76.499 228.132ZM55.7167 212.756C47.3879 207.016 41.2733 203.249 37.5094 201.631L35.5343 206.224C38.7827 207.621 44.519 211.112 52.8797 216.873L55.7167 212.756ZM37.5094 201.631C33.7401 200.01 30.0037 199.166 26.3188 199.166V204.166C29.2257 204.166 32.2912 204.83 35.5343 206.224L37.5094 201.631ZM26.3188 199.166C22.8227 199.166 19.7385 200.362 17.1986 202.73L20.608 206.387C22.2053 204.898 24.0648 204.166 26.3188 204.166V199.166ZM17.2154 202.714C14.652 205.061 13.3003 208.017 13.3003 211.448H18.3003C18.3003 209.48 19.0173 207.843 20.5912 206.403L17.2154 202.714ZM13.3003 211.448C13.3003 217.761 16.868 224.246 23.1397 230.842L26.7632 227.397C20.8334 221.16 18.3003 215.864 18.3003 211.448H13.3003ZM24.9514 226.619H9.54177V231.619H24.9514V226.619ZM11.639 227.759C7.15757 220.851 5.04688 214.464 5.04688 208.556H0.046875C0.046875 215.69 2.59937 223.012 7.44447 230.48L11.639 227.759ZM5.04688 208.556C5.04688 201.761 6.78818 196.741 9.98158 193.186L6.26187 189.845C2.02227 194.565 0.046875 200.905 0.046875 208.556H5.04688ZM9.98848 193.178C13.1527 189.626 17.5266 187.757 23.4262 187.757V182.757C16.353 182.757 10.5239 185.06 6.25497 189.853L9.98848 193.178ZM23.4262 187.757C27.2862 187.757 32.2998 189.22 38.5686 192.461C44.8021 195.684 52.0841 200.564 60.4275 207.152L63.526 203.228C55.0397 196.527 47.4818 191.441 40.8651 188.02C34.2837 184.617 28.4369 182.757 23.4262 182.757V187.757ZM64.4767 205.19V181.523H59.4767V205.19H64.4767ZM12.5921 128.457L13.9535 130.554L13.9611 130.549L12.5921 128.457ZM67.9197 165.114L69.3014 167.198L69.309 167.192L67.9197 165.114ZM12.4869 165.009L11.0776 167.074L11.08 167.075L12.4869 165.009ZM58.8212 140.238L59.7015 137.898L59.694 137.895L58.8212 140.238ZM21.4277 140.238L22.3187 142.573L22.3333 142.568L22.3478 142.562L21.4277 140.238ZM21.3225 153.333L20.3524 155.637L20.3645 155.642L21.3225 153.333ZM58.7686 153.333L59.6539 155.671L59.6676 155.666L59.6813 155.661L58.7686 153.333ZM5.04688 146.654C5.04688 139.743 7.94478 134.455 13.9535 130.554L11.2308 126.36C3.84597 131.154 0.046875 137.998 0.046875 146.654H5.04688ZM13.9611 130.549C20.1096 126.525 28.6715 124.383 39.8878 124.383V119.383C28.1035 119.383 18.4683 121.623 11.2231 126.365L13.9611 130.549ZM39.8878 124.383C51.5944 124.383 60.3872 126.467 66.5292 130.358L69.205 126.135C61.9534 121.541 52.0933 119.383 39.8878 119.383V124.383ZM66.5292 130.358C72.5068 134.145 75.4124 139.416 75.4124 146.444H80.4126C80.4126 137.693 76.6206 130.833 69.205 126.135L66.5292 130.358ZM75.4124 146.444C75.4124 153.601 72.5001 159.045 66.5305 163.036L69.309 167.192C76.6626 162.277 80.4126 155.275 80.4126 146.444H75.4124ZM66.538 163.031C60.4371 167.076 51.7651 169.241 40.2559 169.241V174.241C52.3083 174.241 62.0788 171.987 69.3014 167.198L66.538 163.031ZM40.2559 169.241C28.6029 169.241 19.9122 167.04 13.8939 162.942L11.08 167.075C18.2449 171.954 28.0669 174.241 40.2559 174.241V169.241ZM13.8963 162.944C7.91937 158.864 5.04688 153.503 5.04688 146.654H0.046875C0.046875 155.233 3.80108 162.107 11.0776 167.074L13.8963 162.944ZM66.633 146.654C66.633 144.637 66.0109 142.793 64.7308 141.247C63.4851 139.742 61.7379 138.664 59.7015 137.898L57.9408 142.578C59.4457 143.144 60.3544 143.801 60.8794 144.435C61.3699 145.028 61.633 145.725 61.633 146.654H66.633ZM59.694 137.895C55.6426 136.386 48.5193 135.739 38.7307 135.739V140.739C48.5768 140.739 54.8472 141.425 57.9484 142.58L59.694 137.895ZM38.7307 135.739C30.5434 135.739 24.3534 136.391 20.5076 137.913L22.3478 142.562C25.2339 141.42 30.5793 140.739 38.7307 140.739V135.739ZM20.5367 137.902C18.5432 138.662 16.8389 139.758 15.6325 141.301C14.4018 142.874 13.8262 144.738 13.8262 146.759H18.8262C18.8262 145.73 19.1009 144.982 19.5707 144.381C20.0648 143.75 20.9112 143.11 22.3187 142.573L20.5367 137.902ZM13.8262 146.759C13.8262 148.748 14.3936 150.583 15.5849 152.151C16.7529 153.687 18.4062 154.818 20.3524 155.637L22.2927 151.029C20.908 150.446 20.0631 149.78 19.5657 149.125C19.0915 148.501 18.8262 147.751 18.8262 146.759H13.8262ZM20.3645 155.642C22.3503 156.466 25.1007 157.009 28.4525 157.358C31.8475 157.712 36.0344 157.884 40.9922 157.884V152.884C36.1327 152.884 32.1327 152.715 28.9711 152.385C25.7663 152.051 23.5906 151.568 22.2806 151.024L20.3645 155.642ZM40.9922 157.884C49.2699 157.884 55.5881 157.211 59.6539 155.671L57.8833 150.995C54.7263 152.191 49.1936 152.884 40.9922 152.884V157.884ZM59.6813 155.661C61.7405 154.853 63.4956 153.728 64.7411 152.177C66.0169 150.589 66.633 148.707 66.633 146.654H61.633C61.633 147.652 61.3551 148.408 60.8428 149.046C60.3002 149.722 59.373 150.411 57.8559 151.006L59.6813 155.661ZM61.9767 62.6638V60.1638H59.4767V62.6638H61.9767ZM76.9656 62.6638H79.4656V60.1638H76.9656V62.6638ZM76.9656 111.206V113.706H79.4656V111.206H76.9656ZM74.9146 111.206L73.3301 113.14L74.0212 113.706H74.9146V111.206ZM54.2982 95.9555L52.8797 98.0135L52.8815 98.0145L54.2982 95.9555ZM18.9033 85.6995L20.5912 87.5435L20.5996 87.5355L20.608 87.5285L18.9033 85.6995ZM24.9514 110.26V112.76H30.7782L26.7632 108.537L24.9514 110.26ZM9.54177 110.26L7.44447 111.62L8.18357 112.76H9.54177V110.26ZM8.12167 72.6564L9.98158 74.3271L9.98848 74.3193L8.12167 72.6564ZM61.9767 86.3305L60.4275 88.2925L64.4767 91.4895V86.3305H61.9767ZM61.9767 65.1638H76.9656V60.1638H61.9767V65.1638ZM74.4657 62.6638V111.206H79.4656V62.6638H74.4657ZM76.9656 108.706H74.9146V113.706H76.9656V108.706ZM76.499 109.273C70.9927 104.761 64.0597 99.6345 55.7149 93.8955L52.8815 98.0145C61.156 103.705 67.9673 108.746 73.3301 113.14L76.499 109.273ZM55.7167 93.8965C47.3879 88.1575 41.2733 84.3905 37.5094 82.7715L35.5343 87.3645C38.7827 88.7615 44.519 92.2525 52.8797 98.0135L55.7167 93.8965ZM37.5094 82.7715C33.7401 81.1505 30.0037 80.3065 26.3188 80.3065V85.3065C29.2257 85.3065 32.2912 85.9705 35.5343 87.3645L37.5094 82.7715ZM26.3188 80.3065C22.8227 80.3065 19.7385 81.5035 17.1986 83.8705L20.608 87.5285C22.2053 86.0395 24.0648 85.3065 26.3188 85.3065V80.3065ZM17.2154 83.8555C14.652 86.2015 13.3003 89.1575 13.3003 92.5895H18.3003C18.3003 90.6205 19.0173 88.9845 20.5912 87.5435L17.2154 83.8555ZM13.3003 92.5895C13.3003 98.9025 16.868 105.386 23.1397 111.982L26.7632 108.537C20.8334 102.301 18.3003 97.0045 18.3003 92.5895H13.3003ZM24.9514 107.76H9.54177V112.76H24.9514V107.76ZM11.639 108.899C7.15757 101.992 5.04688 95.6055 5.04688 89.6965H0.046875C0.046875 96.8305 2.59937 104.153 7.44447 111.62L11.639 108.899ZM5.04688 89.6965C5.04688 82.9015 6.78818 77.8821 9.98158 74.3271L6.26187 70.9858C2.02227 75.7054 0.046875 82.0465 0.046875 89.6965H5.04688ZM9.98848 74.3193C13.1527 70.7671 17.5266 68.8979 23.4262 68.8979V63.8979C16.353 63.8979 10.5239 66.201 6.25497 70.9936L9.98848 74.3193ZM23.4262 68.8979C27.2862 68.8979 32.2998 70.3605 38.5686 73.6018C44.8021 76.8248 52.0841 81.7045 60.4275 88.2925L63.526 84.3685C55.0397 77.6678 47.4818 72.5815 40.8651 69.1603C34.2837 65.7574 28.4369 63.8979 23.4262 63.8979V68.8979ZM64.4767 86.3305V62.6638H59.4767V86.3305H64.4767ZM45.3048 35.7363V38.2363H47.7068L47.8028 35.8362L45.3048 35.7363ZM32.367 35.7363H29.867V38.2363H32.367V35.7363ZM29.79 28.4259L27.9543 30.1231L27.9624 30.1318L27.9705 30.1404L29.79 28.4259ZM18.6929 49.5156V52.0156H22.699L20.9386 48.417L18.6929 49.5156ZM5.75507 49.5156L3.46577 50.5203L4.12207 52.0156H5.75507V49.5156ZM7.59577 15.7511L9.57267 17.2815L9.58027 17.2715L7.59577 15.7511ZM37.5211 20.1163L35.3312 21.3223L37.9035 25.9929L39.8488 21.0283L37.5211 20.1163ZM72.0746 14.3311L74.0056 12.7433L73.9986 12.7348L72.0746 14.3311ZM73.7575 51.3564V53.8564H75.2982L75.9907 52.4801L73.7575 51.3564ZM59.5049 51.3564L57.4592 49.9192L54.6933 53.8564H59.5049V51.3564ZM62.6605 27.5318L64.5784 25.9283L64.5708 25.9191L64.563 25.91L62.6605 27.5318ZM48.4078 27.4267L50.2219 29.1469L50.2292 29.1391L50.2365 29.1313L48.4078 27.4267ZM45.3048 33.2363H32.367V38.2363H45.3048V33.2363ZM34.867 35.7363C34.867 32.195 33.8556 29.0951 31.6094 26.7114L27.9705 30.1404C29.1604 31.4032 29.867 33.1768 29.867 35.7363H34.867ZM31.6256 26.7288C29.4671 24.394 26.7646 23.1385 23.6366 23.1385V28.1385C25.277 28.1385 26.6768 28.7413 27.9543 30.1231L31.6256 26.7288ZM23.6366 23.1385C20.4042 23.1385 17.6724 24.4788 15.604 26.9968L19.4677 30.1705C20.625 28.7616 21.9604 28.1385 23.6366 28.1385V23.1385ZM15.604 26.9968C13.5581 29.4876 12.6166 32.5706 12.6166 36.0519H17.6166C17.6166 33.5025 18.2879 31.6067 19.4677 30.1705L15.604 26.9968ZM12.6166 36.0519C12.6166 40.6372 13.9473 45.5042 16.4472 50.6142L20.9386 48.417C18.67 43.7798 17.6166 39.671 17.6166 36.0519H12.6166ZM18.6929 47.0156H5.75507V52.0156H18.6929V47.0156ZM8.04427 48.511C6.06787 44.0073 5.04688 38.7671 5.04688 32.7385H0.046875C0.046875 39.3322 1.16467 45.2767 3.46577 50.5203L8.04427 48.511ZM5.04688 32.7385C5.04688 26.1641 6.62807 21.085 9.57267 17.2815L5.61897 14.2206C1.83177 19.1125 0.046875 25.3583 0.046875 32.7385H5.04688ZM9.58027 17.2715C12.4572 13.5164 16.048 11.7296 20.5336 11.7296V6.72956C14.4306 6.72956 9.39617 9.29036 5.61127 14.2307L9.58027 17.2715ZM20.5336 11.7296C26.8144 11.7296 31.704 14.736 35.3312 21.3223L39.711 18.9102C35.3441 10.9809 28.9087 6.72956 20.5336 6.72956V11.7296ZM39.8488 21.0283C41.3876 17.101 43.524 14.3265 46.175 12.5173C48.8259 10.7082 52.1868 9.73096 56.4019 9.73096V4.73096C51.3957 4.73096 46.9992 5.90136 43.3565 8.38736C39.714 10.8732 37.0205 14.5413 35.1934 19.2042L39.8488 21.0283ZM56.4019 9.73096C62.231 9.73096 66.7304 11.8049 70.1505 15.9273L73.9986 12.7348C69.5648 7.39046 63.6159 4.73096 56.4019 4.73096V9.73096ZM70.1435 15.9188C73.5697 20.0858 75.4124 25.8143 75.4124 33.3696H80.4126C80.4126 25.0069 78.3636 18.043 74.0056 12.7433L70.1435 15.9188ZM75.4124 33.3696C75.4124 39.4869 74.1095 45.0949 71.5243 50.2326L75.9907 52.4801C78.9456 46.6084 80.4126 40.2252 80.4126 33.3696H75.4124ZM73.7575 48.8564H59.5049V53.8564H73.7575V48.8564ZM61.5505 52.7935C65.6211 46.9993 67.8427 41.331 67.8427 35.8415H62.8427C62.8427 39.959 61.1724 44.6339 57.4592 49.9192L61.5505 52.7935ZM67.8427 35.8415C67.8427 31.988 66.8203 28.6097 64.5784 25.9283L60.7425 29.1354C62.0769 30.7315 62.8427 32.893 62.8427 35.8415H67.8427ZM64.563 25.91C62.2524 23.1995 59.2009 21.8237 55.613 21.8237V26.8237C57.7753 26.8237 59.4221 27.5867 60.7579 29.1537L64.563 25.91ZM55.613 21.8237C52.0575 21.8237 48.9893 23.1366 46.5791 25.722L50.2365 29.1313C51.6832 27.5794 53.4183 26.8237 55.613 26.8237V21.8237ZM46.5938 25.7064C44.1514 28.282 42.965 31.683 42.8068 35.6364L47.8028 35.8362C47.9252 32.7773 48.8074 30.6385 50.2219 29.1469L46.5938 25.7064Z" fill="white"/>
<path d="M130.622 1.19434L130.412 233.224" stroke="white" stroke-width="2" stroke-miterlimit="10" stroke-linecap="round"/>
<path d="M202.209 34.0344H211.067C218.893 34.0344 220.097 34.0344 222.075 33.6044C223.021 33.4324 223.623 33.9484 223.881 34.3784C224.397 35.2384 225.085 41.7744 225.085 43.6664C225.085 45.9024 224.053 46.4184 223.537 46.4184C221.989 46.4184 221.129 45.4724 220.097 43.1504C218.463 39.6244 217.259 39.0224 216.571 39.0224C211.669 39.0224 206.939 39.2804 205.735 39.2804C205.305 39.2804 204.617 40.2264 204.617 40.5704C204.531 42.2044 204.359 48.3964 204.359 54.3304C204.359 55.7064 204.617 56.5664 205.047 56.6524C205.993 56.9104 209.003 56.8244 210.551 56.7384C214.421 56.4804 215.625 55.1044 216.571 52.9544C217.087 51.6644 217.947 50.6324 218.893 50.6324C220.097 50.6324 220.871 51.8364 220.699 54.3304C220.613 55.3624 220.527 57.3404 220.527 59.3184C220.527 61.2964 220.699 63.2744 220.785 64.5644C220.957 66.8864 219.667 67.9184 218.807 67.9184C218.033 67.9184 216.915 66.9724 216.141 65.2524C215.281 63.2744 215.023 62.6724 213.217 62.5004C209.691 62.2424 209.175 62.0704 205.305 62.0704C204.875 62.0704 204.359 63.2744 204.359 65.4244C204.359 67.7464 204.617 72.7344 204.703 74.6264C204.875 77.1204 205.219 78.0664 205.477 78.4104C206.337 79.7004 210.465 80.8184 214.593 80.8184C215.969 80.8184 218.377 80.5604 220.355 79.4424C221.989 78.5824 222.849 77.5504 224.741 74.9704C226.117 73.0784 227.063 71.0144 228.439 71.0144C230.073 71.0144 230.589 73.5084 230.245 75.3144C229.729 77.8084 227.665 83.5704 227.321 84.3444C227.063 84.9464 225.257 85.8924 224.741 85.8924C223.623 85.8924 220.183 85.4624 204.531 85.4624C199.113 85.4624 188.277 85.8064 184.579 85.8064C182.773 85.8064 181.483 85.1184 181.483 84.4304C181.483 83.3984 182.171 82.1944 183.977 81.6784C189.911 80.0444 190.083 78.0664 190.255 76.5184C190.599 72.3904 190.685 70.5844 190.685 57.3404C190.685 44.0964 190.513 43.5804 190.255 42.0324C189.825 39.4524 188.707 38.5064 185.267 37.6464C183.031 37.1304 182.687 35.9264 182.687 35.3244C182.687 34.2064 184.407 33.6044 185.525 33.6044C186.987 33.6044 196.533 34.0344 202.209 34.0344ZM235.729 35.4964C235.729 34.9804 236.417 33.6044 239.169 33.6044C240.803 33.6044 249.145 34.0344 252.585 34.0344C256.197 34.0344 259.723 33.8624 261.701 33.8624C263.593 33.8624 264.625 34.7224 264.625 35.8404C264.625 36.7864 263.593 37.5604 262.475 37.9904C260.755 38.6784 260.325 39.2804 261.529 41.5164C262.819 43.9244 266.947 50.2884 267.979 51.4064C268.151 51.5784 268.925 52.0084 269.269 51.5784C271.505 48.8264 274.171 45.5584 275.891 42.8064C277.611 40.0544 277.095 39.1944 273.741 38.0764C271.935 37.4744 271.247 36.8724 271.247 36.2704C271.247 35.5824 273.053 33.8624 274.171 33.8624C276.063 33.9484 277.697 34.1204 280.449 34.1204C283.115 34.1204 289.737 33.6904 291.715 33.6904C292.833 33.6904 294.553 33.8624 294.553 35.1524C294.553 36.7004 293.005 37.7324 291.199 38.2484C288.103 39.0224 284.233 41.4304 280.707 45.3004C278.213 48.1384 272.451 54.4164 271.763 55.5344C271.591 55.7924 271.591 56.3084 271.849 56.9964C272.365 58.6304 281.481 72.0464 283.803 74.9704C286.297 78.1524 288.619 80.1304 292.403 81.0764C294.381 81.5924 295.843 82.7104 295.843 83.5704C295.843 84.9464 293.865 85.8924 292.231 85.8924C288.619 85.8924 282.513 85.4624 278.901 85.4624C276.063 85.4624 269.183 85.7204 268.323 85.7204C266.775 85.7204 265.313 84.9464 265.313 83.3984C265.313 82.7964 266.087 82.0224 267.721 81.2484C270.215 80.0444 270.129 79.3564 269.527 77.9804C268.667 75.9164 263.593 67.7464 262.389 66.3704C262.131 66.1124 261.013 66.1124 260.927 66.2844C256.799 71.5304 254.219 75.4004 253.273 77.1204C252.327 79.0124 253.101 80.0444 255.595 80.9904C257.401 81.6784 258.261 82.6244 258.347 83.3984C258.347 84.2584 257.143 85.7204 255.423 85.7204C253.789 85.7204 251.725 85.4624 249.317 85.4624C247.339 85.4624 239.513 85.8924 237.879 85.8924C236.417 85.8924 234.181 85.3764 234.181 83.6564C234.181 82.4524 236.073 81.5924 237.191 81.3344C241.491 80.3024 243.727 78.8404 246.479 75.8304C250.607 71.3584 254.907 66.1984 258.347 61.5544C258.691 61.1244 258.261 60.1784 257.917 59.4904C256.541 56.8244 250.091 47.6224 247.339 43.9244C243.985 39.4524 241.577 38.7644 238.653 38.0764C236.761 37.6464 235.729 36.3564 235.729 35.4964ZM319.031 34.0344H327.889C335.715 34.0344 336.919 34.0344 338.897 33.6044C339.843 33.4324 340.445 33.9484 340.703 34.3784C341.219 35.2384 341.907 41.7744 341.907 43.6664C341.907 45.9024 340.875 46.4184 340.359 46.4184C338.811 46.4184 337.951 45.4724 336.919 43.1504C335.285 39.6244 334.081 39.0224 333.393 39.0224C328.491 39.0224 323.761 39.2804 322.557 39.2804C322.127 39.2804 321.439 40.2264 321.439 40.5704C321.353 42.2044 321.181 48.3964 321.181 54.3304C321.181 55.7064 321.439 56.5664 321.869 56.6524C322.815 56.9104 325.825 56.8244 327.373 56.7384C331.243 56.4804 332.447 55.1044 333.393 52.9544C333.909 51.6644 334.769 50.6324 335.715 50.6324C336.919 50.6324 337.693 51.8364 337.521 54.3304C337.435 55.3624 337.349 57.3404 337.349 59.3184C337.349 61.2964 337.521 63.2744 337.607 64.5644C337.779 66.8864 336.489 67.9184 335.629 67.9184C334.855 67.9184 333.737 66.9724 332.963 65.2524C332.103 63.2744 331.845 62.6724 330.039 62.5004C326.513 62.2424 325.997 62.0704 322.127 62.0704C321.697 62.0704 321.181 63.2744 321.181 65.4244C321.181 67.7464 321.439 72.7344 321.525 74.6264C321.697 77.1204 322.041 78.0664 322.299 78.4104C323.159 79.7004 327.287 80.8184 331.415 80.8184C332.791 80.8184 335.199 80.5604 337.177 79.4424C338.811 78.5824 339.671 77.5504 341.563 74.9704C342.939 73.0784 343.885 71.0144 345.261 71.0144C346.895 71.0144 347.411 73.5084 347.067 75.3144C346.551 77.8084 344.487 83.5704 344.143 84.3444C343.885 84.9464 342.079 85.8924 341.563 85.8924C340.445 85.8924 337.005 85.4624 321.353 85.4624C315.935 85.4624 305.099 85.8064 301.401 85.8064C299.595 85.8064 298.305 85.1184 298.305 84.4304C298.305 83.3984 298.993 82.1944 300.799 81.6784C306.733 80.0444 306.905 78.0664 307.077 76.5184C307.421 72.3904 307.507 70.5844 307.507 57.3404C307.507 44.0964 307.335 43.5804 307.077 42.0324C306.647 39.4524 305.529 38.5064 302.089 37.6464C299.853 37.1304 299.509 35.9264 299.509 35.3244C299.509 34.2064 301.229 33.6044 302.347 33.6044C303.809 33.6044 313.355 34.0344 319.031 34.0344ZM386.84 32.3144C390.796 32.3144 394.752 33.1744 397.074 33.7764C399.224 34.3784 402.32 35.3244 403.008 35.3244C403.438 35.3244 404.47 36.4424 404.47 36.9584C404.47 40.0544 405.33 44.4404 405.33 46.5904C405.33 48.9984 403.696 50.3744 402.578 50.3744C401.89 50.3744 401.46 49.6864 400.772 47.7944C399.482 44.2684 398.966 42.3764 395.784 40.0544C393.118 38.0764 390.108 36.6144 386.41 36.6144C382.712 36.6144 377.982 38.7644 375.144 42.2044C371.446 46.5904 369.726 53.1264 369.726 58.2864C369.726 64.8224 371.876 70.6704 374.37 74.1964C377.466 78.5824 383.142 81.7644 388.302 81.7644C390.452 81.7644 394.322 80.3884 396.042 79.4424C396.73 79.0124 398.278 77.3784 400.428 73.9384C402.062 71.3584 403.094 70.3264 403.954 70.3264C405.588 70.3264 405.76 71.9604 405.674 73.7664C405.674 74.5404 404.04 80.3024 404.04 81.9364C404.04 82.1944 403.352 83.3984 403.094 83.5704C400.084 85.0324 392.43 87.0104 386.496 87.0104C376.95 87.0104 366.802 84.1724 360.696 77.4644C356.912 73.3364 354.246 67.6604 354.246 60.0064C354.246 50.8044 358.374 43.0644 365.942 37.8184C369.812 35.1524 377.896 32.3144 386.84 32.3144ZM412.548 35.5824C412.548 34.3784 414.096 33.6044 416.934 33.6044C419.6 33.6044 426.05 34.0344 428.888 34.0344C432.672 34.0344 436.714 33.7764 437.918 33.7764C440.154 33.7764 441.702 34.9804 441.702 35.8404C441.702 36.8724 439.724 37.9904 438.434 38.3344C434.564 39.3664 434.048 40.4844 433.79 44.5264C433.446 49.1704 433.446 55.5344 433.876 62.9304C434.306 70.4124 435.94 74.3684 437.746 75.9164C440.154 77.9804 443.68 79.5284 447.292 79.5284C453.914 79.5284 459.246 76.3464 460.364 67.0584C460.794 63.6184 460.88 54.3304 460.88 49.3424C460.88 40.3984 460.794 39.7104 454.688 38.2484C452.968 37.8184 451.506 37.1304 451.506 35.6684C451.506 34.9804 452.71 33.7764 455.032 33.7764C456.752 33.7764 459.504 34.0344 462.772 34.0344C465.868 34.0344 469.394 33.6044 472.404 33.6044C474.038 33.6044 475.758 34.1204 475.758 35.5824C475.758 36.7004 474.296 37.5604 472.576 38.1624C468.62 39.6244 468.018 40.3124 467.502 44.5264C467.33 45.5584 466.986 52.7824 466.642 59.4044C465.868 73.3364 463.03 77.7224 458.816 81.8504C455.29 85.2904 449.27 87.0104 443.336 87.0104C436.37 87.0104 428.888 84.8604 425.276 80.0444C420.46 73.6804 420.116 67.0584 420.116 57.2544C420.116 46.9344 419.944 45.6444 419.772 43.0644C419.514 39.6244 418.912 39.1944 415.73 38.2484C414.01 37.7324 412.548 37.0444 412.548 35.5824ZM498.204 34.0344H524.52C529.336 34.0344 531.486 33.4324 531.83 33.0024C532.862 31.7124 533.808 30.9384 534.41 30.9384C534.926 30.9384 537.162 32.3144 537.162 33.6904C537.162 34.2924 536.13 39.7104 536.13 45.4724C536.13 47.1924 534.84 49.0844 533.206 49.0844C532.002 49.0844 531.314 46.9344 531.142 46.1604C529.852 40.4844 528.39 40.3124 525.294 39.9684C524.004 39.7964 523.746 39.5384 516.436 39.5384C516.006 39.5384 515.748 40.2264 515.662 41.0864C515.576 42.2904 515.06 53.9004 515.06 59.3184C515.06 64.5644 514.974 70.2404 515.232 73.3364C515.748 79.6144 517.21 79.8724 520.736 81.1624C522.284 81.7644 523.746 82.5384 523.746 83.5704C523.746 85.4624 521.682 85.8924 519.962 85.8924C519.102 85.8924 509.642 85.4624 504.482 85.4624C501.988 85.4624 497.344 85.7204 495.022 85.7204C493.216 85.7204 491.496 84.9464 491.496 83.3984C491.496 82.7104 492.356 81.5064 494.334 80.9904C499.666 79.5284 501.128 78.4104 501.128 73.6804C501.128 71.8744 501.3 60.4364 501.3 54.8464C501.3 49.5144 501.386 43.8384 501.386 41.1724C501.386 40.4844 500.526 39.5384 500.268 39.5384C498.118 39.5384 494.936 39.5384 492.7 39.6244C490.292 39.7104 487.97 39.7104 485.648 46.1604C485.132 47.6224 484.1 48.7404 483.154 48.7404C482.036 48.7404 480.746 47.1924 480.746 45.1284C480.746 42.4624 481.692 38.5924 481.692 33.8624C481.692 32.4004 482.982 31.1104 484.014 31.1104C484.272 31.1104 485.304 31.6264 485.906 32.0564C487.368 33.2604 488.658 33.7764 491.152 33.8624C494.678 34.0344 495.452 34.0344 498.204 34.0344ZM551.23 66.6284V46.7624C551.23 39.5384 550.886 38.5924 546.242 37.5604C544.78 37.2164 543.92 36.1844 543.92 35.4104C543.92 34.1204 545.984 33.6904 546.844 33.6904C548.478 33.6904 553.896 34.0344 557.68 34.0344C562.84 34.0344 567.054 33.7764 569.548 33.7764C570.838 33.7764 572.214 34.4644 572.214 35.5824C572.214 36.6144 570.752 37.3024 570.064 37.4744C565.85 38.4204 565.592 39.5384 565.248 44.0104C564.99 47.7084 564.904 55.1904 564.904 61.0384C564.904 70.4124 565.076 73.7664 565.076 74.8844C565.248 78.9264 565.678 80.6464 569.978 81.6784C571.612 82.1084 572.73 82.9684 572.73 84.1724C572.73 85.2044 570.838 85.7204 569.806 85.7204C568.946 85.7204 560.604 85.4624 557.68 85.4624C554.67 85.4624 548.392 85.8064 546.844 85.8064C545.726 85.8064 543.92 85.5484 543.92 84.1724C543.92 83.2264 545.296 82.1084 546.5 81.7644C549.94 80.6464 550.456 79.6144 550.886 77.0344C551.144 75.2284 551.23 73.6804 551.23 66.6284ZM576.173 35.5824C576.173 34.7224 577.635 33.5184 579.613 33.5184C582.451 33.5184 587.955 34.0344 591.137 34.0344C594.233 34.0344 598.103 33.9484 600.425 33.9484C602.403 33.9484 603.951 34.9804 603.951 36.3564C603.951 37.3024 602.317 38.0764 600.941 38.6784C599.307 39.3664 599.135 40.3124 599.737 42.3764C600.597 45.4724 608.939 65.0804 609.971 66.4564C610.315 66.8864 610.831 67.1444 611.175 66.5424C614.701 58.7164 618.657 49.0844 620.549 43.4944C621.495 40.6564 621.237 39.7104 618.141 38.5924C616.507 37.9904 615.131 37.1304 615.131 35.9264C615.131 34.8084 616.593 33.9484 618.657 33.9484C620.549 33.9484 623.043 34.0344 624.849 34.0344C628.117 34.0344 630.697 33.6044 633.535 33.6044C635.513 33.6044 636.975 34.5504 636.975 35.4964C636.975 36.8724 635.857 37.6464 633.965 38.1624C629.321 39.5384 628.031 41.9464 626.139 45.4724C623.559 50.2884 616.679 65.3384 613.497 73.7664C611.691 78.4964 610.143 82.6244 609.627 83.7424C609.197 84.7744 606.445 87.2684 605.413 87.2684C603.779 87.2684 602.919 86.4084 602.317 84.6024C601.887 83.3124 600.167 78.9264 598.533 74.6264C596.813 70.0684 588.557 50.9764 584.515 42.4624C583.483 40.2264 582.451 39.4524 579.097 38.0764C577.549 37.4744 576.173 36.6144 576.173 35.5824ZM659.672 34.0344H668.53C676.356 34.0344 677.56 34.0344 679.538 33.6044C680.484 33.4324 681.086 33.9484 681.344 34.3784C681.86 35.2384 682.548 41.7744 682.548 43.6664C682.548 45.9024 681.516 46.4184 681 46.4184C679.452 46.4184 678.592 45.4724 677.56 43.1504C675.926 39.6244 674.722 39.0224 674.034 39.0224C669.132 39.0224 664.402 39.2804 663.198 39.2804C662.768 39.2804 662.08 40.2264 662.08 40.5704C661.994 42.2044 661.822 48.3964 661.822 54.3304C661.822 55.7064 662.08 56.5664 662.51 56.6524C663.456 56.9104 666.466 56.8244 668.014 56.7384C671.884 56.4804 673.088 55.1044 674.034 52.9544C674.55 51.6644 675.41 50.6324 676.356 50.6324C677.56 50.6324 678.334 51.8364 678.162 54.3304C678.076 55.3624 677.99 57.3404 677.99 59.3184C677.99 61.2964 678.162 63.2744 678.248 64.5644C678.42 66.8864 677.13 67.9184 676.27 67.9184C675.496 67.9184 674.378 66.9724 673.604 65.2524C672.744 63.2744 672.486 62.6724 670.68 62.5004C667.154 62.2424 666.638 62.0704 662.768 62.0704C662.338 62.0704 661.822 63.2744 661.822 65.4244C661.822 67.7464 662.08 72.7344 662.166 74.6264C662.338 77.1204 662.682 78.0664 662.94 78.4104C663.8 79.7004 667.928 80.8184 672.056 80.8184C673.432 80.8184 675.84 80.5604 677.818 79.4424C679.452 78.5824 680.312 77.5504 682.204 74.9704C683.58 73.0784 684.526 71.0144 685.902 71.0144C687.536 71.0144 688.052 73.5084 687.708 75.3144C687.192 77.8084 685.128 83.5704 684.784 84.3444C684.526 84.9464 682.72 85.8924 682.204 85.8924C681.086 85.8924 677.646 85.4624 661.994 85.4624C656.576 85.4624 645.74 85.8064 642.042 85.8064C640.236 85.8064 638.946 85.1184 638.946 84.4304C638.946 83.3984 639.634 82.1944 641.44 81.6784C647.374 80.0444 647.546 78.0664 647.718 76.5184C648.062 72.3904 648.148 70.5844 648.148 57.3404C648.148 44.0964 647.976 43.5804 647.718 42.0324C647.288 39.4524 646.17 38.5064 642.73 37.6464C640.494 37.1304 640.15 35.9264 640.15 35.3244C640.15 34.2064 641.87 33.6044 642.988 33.6044C644.45 33.6044 653.996 34.0344 659.672 34.0344Z" fill="white"/>
<path d="M233.424 119.056C248.246 119.056 263.53 122.299 274.955 131.871C287.924 142.833 290.549 156.573 290.549 166.145C290.549 189.767 274.801 201.964 266.464 206.596C255.502 212.462 243.923 213.698 232.498 213.698C226.168 213.698 209.34 212.462 204.399 212.462C199.459 212.462 192.511 212.462 185.1 213.08C183.865 213.234 182.63 212.154 182.63 211.073C182.63 209.375 184.946 205.669 188.806 204.589C193.746 203.199 196.371 203.662 197.606 196.715C198.687 190.693 198.687 182.974 198.687 162.594C198.687 141.443 198.995 138.818 197.915 133.415C197.606 131.716 197.297 129.401 190.041 127.857C186.335 127.085 184.174 125.386 184.174 123.225C184.174 120.909 186.644 119.983 191.122 119.983L201.774 120.137C207.178 120.292 222.617 119.056 233.424 119.056ZM233.424 127.239C232.189 127.239 227.094 127.857 226.014 128.474C225.396 128.783 223.852 131.716 223.852 132.334C223.543 137.583 222.926 144.222 222.926 155.801V166.917C222.926 186.679 223.543 189.15 224.007 193.781C224.315 197.023 226.014 200.266 227.866 201.809C229.565 203.199 235.123 205.824 237.13 205.824C238.828 205.824 247.165 203.971 253.958 197.487C260.906 190.848 263.839 177.879 263.839 167.535C263.839 156.264 260.906 144.685 253.032 136.966C246.239 130.173 238.365 127.239 233.424 127.239ZM317.042 178.651V142.987C317.042 130.018 316.425 128.32 308.088 126.467C305.463 125.85 303.919 123.997 303.919 122.607C303.919 120.292 307.625 119.52 309.168 119.52C312.102 119.52 321.828 120.137 328.622 120.137C337.885 120.137 345.45 119.674 349.927 119.674C352.243 119.674 354.713 120.909 354.713 122.916C354.713 124.769 352.089 126.004 350.854 126.313C343.289 128.011 342.825 130.018 342.208 138.046C341.745 144.685 341.59 158.117 341.59 168.616C341.59 185.444 341.899 191.465 341.899 193.472C342.208 200.729 342.98 203.817 350.699 205.669C353.633 206.441 355.64 207.985 355.64 210.147C355.64 211.999 352.243 212.926 350.391 212.926C348.847 212.926 333.871 212.462 328.622 212.462C323.218 212.462 311.947 213.08 309.168 213.08C307.161 213.08 303.919 212.617 303.919 210.147C303.919 208.448 306.389 206.441 308.551 205.824C314.726 203.817 315.653 201.964 316.425 197.332C316.888 194.09 317.042 191.311 317.042 178.651ZM452.886 144.376C452.886 150.243 449.953 156.882 445.939 160.279C443.623 162.286 441.461 162.749 438.219 164.602C437.447 165.065 438.219 167.998 438.682 168.924C442.079 175.718 449.026 187.142 454.893 194.553C460.297 201.346 465.083 203.971 469.869 205.824C471.413 206.441 473.42 207.831 473.42 209.22C473.42 213.234 468.48 214.469 464.311 214.469C451.96 214.469 440.072 213.234 429.265 199.185C423.706 191.929 419.538 184.209 415.215 177.261C412.745 173.247 410.583 172.475 408.113 172.475C407.032 172.475 406.878 174.328 406.878 174.791C406.878 187.142 406.878 190.848 407.341 196.251C407.804 201.809 409.348 201.964 415.524 204.897C418.303 206.287 420.156 207.985 420.156 209.22C420.156 210.919 416.913 213.08 414.289 213.08C410.429 213.08 398.541 212.462 393.137 212.462C388.351 212.462 381.095 213.08 375.382 213.08C371.677 213.08 369.516 211.227 369.516 209.683C369.516 207.522 371.677 205.978 374.61 205.206C380.94 203.353 382.484 202.118 382.793 194.399C382.948 188.841 382.948 186.062 382.948 158.272C382.948 139.282 382.484 138.355 382.176 135.113C381.867 132.025 380.477 128.937 374.61 127.857C371.677 127.239 369.824 124.923 369.824 123.843C369.824 121.218 372.912 119.828 376.618 119.828C384.491 119.828 387.116 120.137 389.123 120.137C399.313 120.137 407.804 119.211 418.612 119.211C432.198 119.211 439.3 122.144 443.005 124.923C449.644 130.018 452.886 136.194 452.886 144.376ZM429.11 147.001C429.11 137.274 422.471 127.702 411.355 127.702C410.738 127.702 408.422 128.32 407.496 128.937C407.032 129.246 406.569 130.018 406.569 131.408C406.569 135.731 406.878 150.089 406.878 160.433C406.878 161.051 407.496 162.903 408.113 163.212C410.275 164.138 412.282 164.602 414.906 164.602C418.303 164.602 423.861 161.051 424.787 160.433C425.714 159.815 429.11 154.412 429.11 147.001ZM512.173 120.137H528.075C542.125 120.137 544.286 120.137 547.837 119.365C549.536 119.056 550.616 119.983 551.079 120.755C552.006 122.299 553.241 134.032 553.241 137.429C553.241 141.443 551.388 142.369 550.462 142.369C547.683 142.369 546.139 140.671 544.286 136.503C541.353 130.173 539.191 129.092 537.956 129.092C529.156 129.092 520.665 129.555 518.503 129.555C517.731 129.555 516.496 131.253 516.496 131.871C516.342 134.804 516.033 145.92 516.033 156.573C516.033 159.043 516.496 160.587 517.268 160.742C518.966 161.205 524.37 161.051 527.149 160.896C534.097 160.433 536.258 157.963 537.956 154.103C538.883 151.787 540.427 149.934 542.125 149.934C544.286 149.934 545.676 152.096 545.367 156.573C545.213 158.426 545.058 161.977 545.058 165.528C545.058 169.079 545.367 172.63 545.521 174.946C545.83 179.114 543.514 180.967 541.97 180.967C540.581 180.967 538.574 179.269 537.184 176.181C535.64 172.63 535.177 171.549 531.935 171.24C525.605 170.777 524.679 170.468 517.731 170.468C516.959 170.468 516.033 172.63 516.033 176.49C516.033 180.658 516.496 189.613 516.65 193.009C516.959 197.487 517.577 199.185 518.04 199.802C519.584 202.118 526.995 204.125 534.405 204.125C536.876 204.125 541.198 203.662 544.749 201.655C547.683 200.111 549.227 198.259 552.623 193.627C555.094 190.23 556.792 186.525 559.262 186.525C562.196 186.525 563.122 191.002 562.504 194.244C561.578 198.722 557.873 209.066 557.255 210.455C556.792 211.536 553.55 213.234 552.623 213.234C550.616 213.234 544.441 212.462 516.342 212.462C506.615 212.462 487.162 213.08 480.523 213.08C477.281 213.08 474.965 211.845 474.965 210.61C474.965 208.757 476.2 206.596 479.442 205.669C490.095 202.736 490.404 199.185 490.713 196.406C491.331 188.995 491.485 185.753 491.485 161.977C491.485 138.201 491.176 137.274 490.713 134.495C489.941 129.864 487.934 128.165 481.758 126.622C477.744 125.695 477.127 123.534 477.127 122.453C477.127 120.446 480.214 119.365 482.221 119.365C484.846 119.365 501.983 120.137 512.173 120.137ZM633.905 117.049C641.007 117.049 648.109 118.593 652.277 119.674C656.137 120.755 661.695 122.453 662.93 122.453C663.702 122.453 665.555 124.46 665.555 125.386C665.555 130.944 667.099 138.818 667.099 142.678C667.099 147.001 664.165 149.471 662.158 149.471C660.923 149.471 660.151 148.236 658.916 144.84C656.6 138.51 655.674 135.113 649.961 130.944C645.175 127.394 639.772 124.769 633.133 124.769C626.494 124.769 618.003 128.629 612.908 134.804C606.269 142.678 603.181 154.412 603.181 163.675C603.181 175.409 607.041 185.907 611.518 192.237C617.076 200.111 627.266 205.824 636.529 205.824C640.389 205.824 647.337 203.353 650.425 201.655C651.66 200.883 654.439 197.95 658.298 191.774C661.232 187.142 663.085 185.29 664.628 185.29C667.562 185.29 667.871 188.223 667.716 191.465C667.716 192.855 664.783 203.199 664.783 206.132C664.783 206.596 663.548 208.757 663.085 209.066C657.681 211.69 643.94 215.241 633.287 215.241C616.15 215.241 597.932 210.147 586.97 198.104C580.177 190.693 575.391 180.504 575.391 166.763C575.391 150.243 582.802 136.348 596.388 126.93C603.336 122.144 617.848 117.049 633.905 117.049ZM713.061 120.137H760.304C768.95 120.137 772.81 119.056 773.428 118.285C775.28 115.969 776.979 114.579 778.059 114.579C778.986 114.579 783 117.049 783 119.52C783 120.6 781.147 130.327 781.147 140.671C781.147 143.759 778.831 147.155 775.898 147.155C773.736 147.155 772.501 143.296 772.192 141.906C769.877 131.716 767.252 131.408 761.694 130.79C759.378 130.481 758.915 130.018 745.792 130.018C745.02 130.018 744.557 131.253 744.402 132.797C744.248 134.959 743.322 155.801 743.322 165.528C743.322 174.946 743.167 185.135 743.63 190.693C744.557 201.964 747.181 202.427 753.511 204.743C756.29 205.824 758.915 207.213 758.915 209.066C758.915 212.462 755.21 213.234 752.122 213.234C750.578 213.234 733.595 212.462 724.332 212.462C719.854 212.462 711.517 212.926 707.349 212.926C704.106 212.926 701.019 211.536 701.019 208.757C701.019 207.522 702.563 205.36 706.114 204.434C715.686 201.809 718.31 199.802 718.31 191.311C718.31 188.069 718.619 167.535 718.619 157.5C718.619 147.927 718.774 137.738 718.774 132.952C718.774 131.716 717.23 130.018 716.766 130.018C712.907 130.018 707.194 130.018 703.18 130.173C698.857 130.327 694.689 130.327 690.52 141.906C689.594 144.531 687.741 146.538 686.043 146.538C684.036 146.538 681.72 143.759 681.72 140.053C681.72 135.267 683.418 128.32 683.418 119.828C683.418 117.204 685.734 114.888 687.587 114.888C688.05 114.888 689.903 115.814 690.983 116.586C693.608 118.748 695.924 119.674 700.401 119.828C706.731 120.137 708.121 120.137 713.061 120.137ZM846.373 117.049C878.486 117.049 900.101 138.664 900.101 166.3C900.101 185.599 888.676 200.729 874.163 208.757C867.525 212.462 856.717 215.241 846.836 215.241C814.26 215.241 792.954 193.009 792.954 166.3C792.954 154.412 797.432 142.678 807.004 133.106C817.039 123.071 831.861 117.049 846.373 117.049ZM843.594 125.078C836.338 125.078 829.853 131.253 829.699 131.408C823.215 138.51 820.436 149.008 820.436 163.521C820.436 184.518 830.008 207.368 850.851 207.368C856.1 207.368 862.275 202.736 863.047 202.118C867.988 197.487 872.002 187.76 872.002 167.381C872.002 151.17 863.974 125.078 843.594 125.078ZM997.322 144.376C997.322 150.243 994.389 156.882 990.374 160.279C988.059 162.286 985.897 162.749 982.655 164.602C981.883 165.065 982.655 167.998 983.118 168.924C986.515 175.718 993.462 187.142 999.329 194.553C1004.73 201.346 1009.52 203.971 1014.3 205.824C1015.85 206.441 1017.86 207.831 1017.86 209.22C1017.86 213.234 1012.92 214.469 1008.75 214.469C996.396 214.469 984.508 213.234 973.7 199.185C968.142 191.929 963.974 184.209 959.651 177.261C957.181 173.247 955.019 172.475 952.549 172.475C951.468 172.475 951.314 174.328 951.314 174.791C951.314 187.142 951.314 190.848 951.777 196.251C952.24 201.809 953.784 201.964 959.96 204.897C962.739 206.287 964.591 207.985 964.591 209.22C964.591 210.919 961.349 213.08 958.725 213.08C954.865 213.08 942.977 212.462 937.573 212.462C932.787 212.462 925.531 213.08 919.818 213.08C916.113 213.08 913.951 211.227 913.951 209.683C913.951 207.522 916.113 205.978 919.046 205.206C925.376 203.353 926.92 202.118 927.229 194.399C927.383 188.841 927.383 186.062 927.383 158.272C927.383 139.282 926.92 138.355 926.611 135.113C926.303 132.025 924.913 128.937 919.046 127.857C916.113 127.239 914.26 124.923 914.26 123.843C914.26 121.218 917.348 119.828 921.053 119.828C928.927 119.828 931.552 120.137 933.559 120.137C943.749 120.137 952.24 119.211 963.047 119.211C976.634 119.211 983.736 122.144 987.441 124.923C994.08 130.018 997.322 136.194 997.322 144.376ZM973.546 147.001C973.546 137.274 966.907 127.702 955.791 127.702C955.174 127.702 952.858 128.32 951.931 128.937C951.468 129.246 951.005 130.018 951.005 131.408C951.005 135.731 951.314 150.089 951.314 160.433C951.314 161.051 951.931 162.903 952.549 163.212C954.71 164.138 956.717 164.602 959.342 164.602C962.739 164.602 968.297 161.051 969.223 160.433C970.149 159.815 973.546 154.412 973.546 147.001Z" fill="white"/>
</svg>
