<svg width="1620" height="313" viewBox="0 0 1620 313" fill="none" xmlns="http://www.w3.org/2000/svg">
<path d="M62.8195 205.884V203.384H60.3195V205.884H62.8195ZM77.8083 205.884H80.3083V203.384H77.8083V205.884ZM77.8083 254.427V256.927H80.3083V254.427H77.8083ZM75.7573 254.427L74.1728 256.361L74.8639 256.927H75.7573V254.427ZM55.1409 239.175L53.7225 241.234L53.7243 241.235L55.1409 239.175ZM19.746 228.92L21.4339 230.764L21.4423 230.756L21.4507 230.748L19.746 228.92ZM25.7941 253.48V255.98H31.6209L27.6059 251.758L25.7941 253.48ZM10.3845 253.48L8.28725 254.841L9.02635 255.98H10.3845V253.48ZM8.96445 215.877L10.8243 217.547L10.8312 217.539L8.96445 215.877ZM62.8195 229.551L61.2702 231.513L65.3195 234.71V229.551H62.8195ZM62.8195 208.384H77.8083V203.384H62.8195V208.384ZM75.3084 205.884V254.427H80.3083V205.884H75.3084ZM77.8083 251.927H75.7573V256.927H77.8083V251.927ZM77.3418 252.493C71.8355 247.982 64.9024 242.855 56.5576 237.115L53.7243 241.235C61.9988 246.926 68.81 251.967 74.1728 256.361L77.3418 252.493ZM56.5594 237.117C48.2306 231.377 42.116 227.61 38.3521 225.992L36.377 230.585C39.6254 231.982 45.3618 235.473 53.7225 241.234L56.5594 237.117ZM38.3521 225.992C34.5828 224.371 30.8464 223.527 27.1615 223.527V228.527C30.0684 228.527 33.1339 229.191 36.377 230.585L38.3521 225.992ZM27.1615 223.527C23.6654 223.527 20.5812 224.723 18.0413 227.091L21.4507 230.748C23.048 229.259 24.9075 228.527 27.1615 228.527V223.527ZM18.0581 227.075C15.4947 229.422 14.143 232.378 14.143 235.809H19.143C19.143 233.841 19.86 232.204 21.4339 230.764L18.0581 227.075ZM14.143 235.809C14.143 242.122 17.7107 248.607 23.9824 255.203L27.6059 251.758C21.6761 245.521 19.143 240.225 19.143 235.809H14.143ZM25.7941 250.98H10.3845V255.98H25.7941V250.98ZM12.4817 252.12C8.00035 245.212 5.88965 238.825 5.88965 232.917H0.889648C0.889648 240.051 3.44215 247.373 8.28725 254.841L12.4817 252.12ZM5.88965 232.917C5.88965 226.122 7.63095 221.102 10.8243 217.547L7.10465 214.206C2.86505 218.926 0.889648 225.266 0.889648 232.917H5.88965ZM10.8312 217.539C13.9954 213.987 18.3693 212.118 24.2689 212.118V207.118C17.1957 207.118 11.3666 209.421 7.09775 214.214L10.8312 217.539ZM24.2689 212.118C28.1289 212.118 33.1425 213.581 39.4113 216.822C45.6448 220.045 52.9268 224.925 61.2702 231.513L64.3687 227.589C55.8824 220.888 48.3245 215.802 41.7078 212.381C35.1264 208.978 29.2796 207.118 24.2689 207.118V212.118ZM65.3195 229.551V205.884H60.3195V229.551H65.3195ZM13.4348 152.818L14.7962 154.915L14.8038 154.91L13.4348 152.818ZM68.7625 189.475L70.1441 191.559L70.1517 191.553L68.7625 189.475ZM13.3296 189.37L11.9203 191.435L11.9227 191.436L13.3296 189.37ZM59.6639 164.599L60.5443 162.259L60.5368 162.256L59.6639 164.599ZM22.2704 164.599L23.1614 166.934L23.176 166.929L23.1905 166.923L22.2704 164.599ZM22.1652 177.694L21.1951 179.998L21.2072 180.003L22.1652 177.694ZM59.6114 177.694L60.4967 180.032L60.5103 180.027L60.524 180.022L59.6114 177.694ZM5.88965 171.015C5.88965 164.104 8.78755 158.816 14.7962 154.915L12.0735 150.721C4.68875 155.515 0.889648 162.359 0.889648 171.015H5.88965ZM14.8038 154.91C20.9523 150.886 29.5142 148.744 40.7305 148.744V143.744C28.9462 143.744 19.311 145.984 12.0658 150.726L14.8038 154.91ZM40.7305 148.744C52.4371 148.744 61.2299 150.828 67.3719 154.719L70.0477 150.496C62.7961 145.902 52.936 143.744 40.7305 143.744V148.744ZM67.3719 154.719C73.3495 158.506 76.2551 163.777 76.2551 170.805H81.2553C81.2553 162.054 77.4633 155.194 70.0477 150.496L67.3719 154.719ZM76.2551 170.805C76.2551 177.962 73.3428 183.406 67.3732 187.397L70.1517 191.553C77.5053 186.638 81.2553 179.636 81.2553 170.805H76.2551ZM67.3807 187.392C61.2798 191.437 52.6078 193.602 41.0986 193.602V198.602C53.151 198.602 62.9215 196.348 70.1441 191.559L67.3807 187.392ZM41.0986 193.602C29.4456 193.602 20.7549 191.401 14.7366 187.303L11.9227 191.436C19.0876 196.315 28.9096 198.602 41.0986 198.602V193.602ZM14.739 187.305C8.76215 183.225 5.88965 177.864 5.88965 171.015H0.889648C0.889648 179.594 4.64385 186.468 11.9203 191.435L14.739 187.305ZM67.4757 171.015C67.4757 168.998 66.8536 167.154 65.5735 165.608C64.3278 164.103 62.5807 163.025 60.5443 162.259L58.7835 166.939C60.2884 167.505 61.1971 168.162 61.7221 168.796C62.2126 169.389 62.4757 170.086 62.4757 171.015H67.4757ZM60.5368 162.256C56.4854 160.747 49.362 160.1 39.5734 160.1V165.1C49.4195 165.1 55.6899 165.786 58.7911 166.941L60.5368 162.256ZM39.5734 160.1C31.3861 160.1 25.1961 160.752 21.3503 162.274L23.1905 166.923C26.0766 165.781 31.422 165.1 39.5734 165.1V160.1ZM21.3794 162.263C19.3859 163.023 17.6816 164.119 16.4752 165.662C15.2445 167.235 14.6689 169.099 14.6689 171.12H19.6689C19.6689 170.091 19.9436 169.343 20.4134 168.742C20.9075 168.111 21.7539 167.471 23.1614 166.934L21.3794 162.263ZM14.6689 171.12C14.6689 173.109 15.2363 174.944 16.4276 176.512C17.5956 178.048 19.2489 179.179 21.1951 179.998L23.1354 175.39C21.7507 174.807 20.9058 174.141 20.4084 173.486C19.9342 172.862 19.6689 172.112 19.6689 171.12H14.6689ZM21.2072 180.003C23.193 180.827 25.9434 181.37 29.2952 181.719C32.6902 182.073 36.8771 182.245 41.8349 182.245V177.245C36.9754 177.245 32.9754 177.076 29.8138 176.746C26.609 176.412 24.4333 175.929 23.1233 175.385L21.2072 180.003ZM41.8349 182.245C50.1126 182.245 56.4309 181.572 60.4967 180.032L58.7261 175.356C55.5691 176.552 50.0363 177.245 41.8349 177.245V182.245ZM60.524 180.022C62.5832 179.214 64.3383 178.089 65.5838 176.538C66.8596 174.95 67.4757 173.068 67.4757 171.015H62.4757C62.4757 172.013 62.1978 172.769 61.6855 173.407C61.1429 174.083 60.2157 174.772 58.6986 175.367L60.524 180.022ZM62.8195 87.0246V84.5246H60.3195V87.0246H62.8195ZM77.8083 87.0246H80.3083V84.5246H77.8083V87.0246ZM77.8083 135.567V138.067H80.3083V135.567H77.8083ZM75.7573 135.567L74.1728 137.501L74.8639 138.067H75.7573V135.567ZM55.1409 120.316L53.7225 122.374L53.7243 122.375L55.1409 120.316ZM19.746 110.06L21.4339 111.904L21.4423 111.896L21.4507 111.889L19.746 110.06ZM25.7941 134.621V137.121H31.6209L27.6059 132.898L25.7941 134.621ZM10.3845 134.621L8.28725 135.981L9.02635 137.121H10.3845V134.621ZM8.96445 97.0172L10.8243 98.6879L10.8312 98.6801L8.96445 97.0172ZM62.8195 110.691L61.2702 112.653L65.3195 115.85V110.691H62.8195ZM62.8195 89.5246H77.8083V84.5246H62.8195V89.5246ZM75.3084 87.0246V135.567H80.3083V87.0246H75.3084ZM77.8083 133.067H75.7573V138.067H77.8083V133.067ZM77.3418 133.634C71.8355 129.122 64.9024 123.995 56.5576 118.256L53.7243 122.375C61.9988 128.066 68.81 133.107 74.1728 137.501L77.3418 133.634ZM56.5594 118.257C48.2306 112.518 42.116 108.751 38.3521 107.132L36.377 111.725C39.6254 113.122 45.3618 116.613 53.7225 122.374L56.5594 118.257ZM38.3521 107.132C34.5828 105.511 30.8464 104.667 27.1615 104.667V109.667C30.0684 109.667 33.1339 110.331 36.377 111.725L38.3521 107.132ZM27.1615 104.667C23.6654 104.667 20.5812 105.864 18.0413 108.231L21.4507 111.889C23.048 110.4 24.9075 109.667 27.1615 109.667V104.667ZM18.0581 108.216C15.4947 110.562 14.143 113.518 14.143 116.95H19.143C19.143 114.981 19.86 113.345 21.4339 111.904L18.0581 108.216ZM14.143 116.95C14.143 123.263 17.7107 129.747 23.9824 136.343L27.6059 132.898C21.6761 126.662 19.143 121.365 19.143 116.95H14.143ZM25.7941 132.121H10.3845V137.121H25.7941V132.121ZM12.4817 133.26C8.00035 126.353 5.88965 119.966 5.88965 114.057H0.889648C0.889648 121.191 3.44215 128.514 8.28725 135.981L12.4817 133.26ZM5.88965 114.057C5.88965 107.262 7.63095 102.243 10.8243 98.6879L7.10465 95.3466C2.86505 100.066 0.889648 106.407 0.889648 114.057H5.88965ZM10.8312 98.6801C13.9954 95.1279 18.3693 93.2587 24.2689 93.2587V88.2587C17.1957 88.2587 11.3666 90.5618 7.09775 95.3544L10.8312 98.6801ZM24.2689 93.2587C28.1289 93.2587 33.1425 94.7213 39.4113 97.9626C45.6448 101.186 52.9268 106.065 61.2702 112.653L64.3687 108.729C55.8824 102.029 48.3245 96.9423 41.7078 93.5211C35.1264 90.1182 29.2796 88.2587 24.2689 88.2587V93.2587ZM65.3195 110.691V87.0246H60.3195V110.691H65.3195ZM46.1475 60.0971V62.5971H48.5495L48.6455 60.197L46.1475 60.0971ZM33.2097 60.0971H30.7097V62.5971H33.2097V60.0971ZM30.6327 52.7867L28.797 54.4839L28.8051 54.4926L28.8132 54.5012L30.6327 52.7867ZM19.5356 73.8764V76.3764H23.5417L21.7813 72.7778L19.5356 73.8764ZM6.59785 73.8764L4.30855 74.8811L4.96485 76.3764H6.59785V73.8764ZM8.43855 40.1119L10.4154 41.6423L10.423 41.6323L8.43855 40.1119ZM38.3638 44.4771L36.1739 45.6831L38.7462 50.3537L40.6915 45.3891L38.3638 44.4771ZM72.9174 38.6919L74.8484 37.1041L74.8413 37.0956L72.9174 38.6919ZM74.6003 75.7172V78.2172H76.1409L76.8335 76.8409L74.6003 75.7172ZM60.3476 75.7172L58.3019 74.28L55.536 78.2172H60.3476V75.7172ZM63.5033 51.8926L65.4212 50.2891L65.4136 50.2799L65.4057 50.2708L63.5033 51.8926ZM49.2505 51.7875L51.0646 53.5077L51.0719 53.4999L51.0792 53.4921L49.2505 51.7875ZM46.1475 57.5971H33.2097V62.5971H46.1475V57.5971ZM35.7097 60.0971C35.7097 56.5558 34.6983 53.4559 32.4521 51.0722L28.8132 54.5012C30.0031 55.764 30.7097 57.5376 30.7097 60.0971H35.7097ZM32.4683 51.0896C30.3098 48.7548 27.6073 47.4993 24.4793 47.4993V52.4993C26.1197 52.4993 27.5195 53.1021 28.797 54.4839L32.4683 51.0896ZM24.4793 47.4993C21.2469 47.4993 18.5151 48.8396 16.4467 51.3576L20.3104 54.5313C21.4677 53.1224 22.8031 52.4993 24.4793 52.4993V47.4993ZM16.4467 51.3576C14.4008 53.8484 13.4593 56.9314 13.4593 60.4127H18.4593C18.4593 57.8633 19.1306 55.9675 20.3104 54.5313L16.4467 51.3576ZM13.4593 60.4127C13.4593 64.998 14.79 69.865 17.2899 74.975L21.7813 72.7778C19.5127 68.1406 18.4593 64.0318 18.4593 60.4127H13.4593ZM19.5356 71.3764H6.59785V76.3764H19.5356V71.3764ZM8.88705 72.8718C6.91065 68.3681 5.88965 63.1279 5.88965 57.0993H0.889648C0.889648 63.693 2.00745 69.6375 4.30855 74.8811L8.88705 72.8718ZM5.88965 57.0993C5.88965 50.5249 7.47085 45.4458 10.4154 41.6423L6.46175 38.5814C2.67455 43.4733 0.889648 49.7191 0.889648 57.0993H5.88965ZM10.423 41.6323C13.2999 37.8772 16.8907 36.0904 21.3763 36.0904V31.0904C15.2733 31.0904 10.2389 33.6512 6.45405 38.5915L10.423 41.6323ZM21.3763 36.0904C27.6571 36.0904 32.5467 39.0968 36.1739 45.6831L40.5537 43.271C36.1868 35.3417 29.7514 31.0904 21.3763 31.0904V36.0904ZM40.6915 45.3891C42.2303 41.4618 44.3667 38.6873 47.0177 36.8781C49.6686 35.069 53.0295 34.0918 57.2446 34.0918V29.0918C52.2384 29.0918 47.8419 30.2622 44.1992 32.7482C40.5567 35.234 37.8632 38.9021 36.0361 43.565L40.6915 45.3891ZM57.2446 34.0918C63.0737 34.0918 67.5731 36.1657 70.9932 40.2881L74.8413 37.0956C70.4075 31.7513 64.4586 29.0918 57.2446 29.0918V34.0918ZM70.9862 40.2796C74.4124 44.4466 76.2551 50.1751 76.2551 57.7304H81.2553C81.2553 49.3677 79.2064 42.4038 74.8484 37.1041L70.9862 40.2796ZM76.2551 57.7304C76.2551 63.8477 74.9523 69.4557 72.3671 74.5934L76.8335 76.8409C79.7884 70.9692 81.2553 64.586 81.2553 57.7304H76.2551ZM74.6003 73.2172H60.3476V78.2172H74.6003V73.2172ZM62.3932 77.1543C66.4638 71.3601 68.6854 65.6918 68.6854 60.2023H63.6854C63.6854 64.3198 62.0151 68.9947 58.3019 74.28L62.3932 77.1543ZM68.6854 60.2023C68.6854 56.3488 67.6631 52.9705 65.4212 50.2891L61.5853 53.4962C62.9197 55.0923 63.6854 57.2538 63.6854 60.2023H68.6854ZM65.4057 50.2708C63.0951 47.5603 60.0436 46.1845 56.4557 46.1845V51.1845C58.618 51.1845 60.2648 51.9475 61.6006 53.5145L65.4057 50.2708ZM56.4557 46.1845C52.9002 46.1845 49.832 47.4974 47.4218 50.0828L51.0792 53.4921C52.5259 51.9402 54.261 51.1845 56.4557 51.1845V46.1845ZM47.4365 50.0672C44.9941 52.6428 43.8078 56.0438 43.6496 59.9972L48.6455 60.197C48.7679 57.1381 49.6501 54.9993 51.0646 53.5077L47.4365 50.0672Z" fill="white"/>
<path d="M131.465 25.5547L131.255 257.585" stroke="white" stroke-width="2" stroke-miterlimit="10" stroke-linecap="round"/>
<path d="M220.218 34.747H236.12C250.169 34.747 252.331 34.747 255.882 33.9751C257.58 33.6663 258.661 34.5927 259.124 35.3646C260.05 36.9085 261.285 48.6421 261.285 52.0387C261.285 56.0529 259.433 56.9792 258.506 56.9792C255.727 56.9792 254.184 55.2809 252.331 51.1124C249.397 44.7824 247.236 43.7017 246.001 43.7017C237.201 43.7017 228.709 44.1648 226.548 44.1648C225.776 44.1648 224.541 45.8631 224.541 46.4807C224.386 49.4141 224.077 60.5302 224.077 71.1831C224.077 73.6533 224.541 75.1972 225.313 75.3516C227.011 75.8148 232.415 75.6604 235.194 75.506C242.141 75.0428 244.303 72.5726 246.001 68.7128C246.927 66.397 248.471 64.5443 250.169 64.5443C252.331 64.5443 253.72 66.7058 253.412 71.1831C253.257 73.0358 253.103 76.5867 253.103 80.1377C253.103 83.6887 253.412 87.2396 253.566 89.5555C253.875 93.724 251.559 95.5767 250.015 95.5767C248.625 95.5767 246.618 93.8784 245.229 90.7906C243.685 87.2396 243.222 86.1589 239.98 85.8501C233.65 85.387 232.723 85.0782 225.776 85.0782C225.004 85.0782 224.077 87.2396 224.077 91.0994C224.077 95.2679 224.541 104.223 224.695 107.619C225.004 112.096 225.621 113.795 226.085 114.412C227.628 116.728 235.039 118.735 242.45 118.735C244.92 118.735 249.243 118.272 252.794 116.265C255.727 114.721 257.271 112.868 260.668 108.237C263.138 104.84 264.836 101.135 267.307 101.135C270.24 101.135 271.166 105.612 270.549 108.854C269.623 113.332 265.917 123.676 265.3 125.065C264.836 126.146 261.594 127.844 260.668 127.844C258.661 127.844 252.485 127.072 224.386 127.072C214.66 127.072 195.207 127.69 188.568 127.69C185.326 127.69 183.01 126.455 183.01 125.22C183.01 123.367 184.245 121.205 187.487 120.279C198.14 117.346 198.449 113.795 198.758 111.016C199.375 103.605 199.529 100.363 199.529 76.5867C199.529 52.8107 199.221 51.8843 198.758 49.1053C197.986 44.4736 195.978 42.7753 189.803 41.2314C185.789 40.3051 185.171 38.1436 185.171 37.0629C185.171 35.0558 188.259 33.9751 190.266 33.9751C192.891 33.9751 210.028 34.747 220.218 34.747ZM280.394 37.3717C280.394 36.4453 281.629 33.9751 286.569 33.9751C289.503 33.9751 304.478 34.747 310.654 34.747C317.138 34.747 323.468 34.4383 327.019 34.4383C330.416 34.4383 332.269 35.9822 332.269 37.9892C332.269 39.6875 330.416 41.077 328.409 41.849C325.321 43.0841 324.549 44.1648 326.711 48.179C329.026 52.5019 336.437 63.9268 338.29 65.9338C338.599 66.2426 339.988 67.0146 340.606 66.2426C344.62 61.3021 349.406 55.4353 352.494 50.4948C355.582 45.5543 354.655 44.0104 348.634 42.0034C345.392 40.9226 344.157 39.8419 344.157 38.7612C344.157 37.5261 347.399 34.4383 349.406 34.4383C352.803 34.5927 355.736 34.9014 360.676 34.9014C365.463 34.9014 377.351 34.1295 380.902 34.1295C382.909 34.1295 385.996 34.4383 385.996 36.7541C385.996 39.5331 383.217 41.3858 379.975 42.3122C374.417 43.7017 367.47 48.0246 361.14 54.9721C356.662 60.067 346.318 71.3375 345.083 73.3445C344.774 73.8077 344.774 74.7341 345.237 75.9692C346.164 78.9026 362.529 102.987 366.698 108.237C371.175 113.949 375.343 117.5 382.137 119.198C385.688 120.125 388.312 122.132 388.312 123.676C388.312 126.146 384.761 127.844 381.828 127.844C375.343 127.844 364.382 127.072 357.897 127.072C352.803 127.072 340.451 127.535 338.907 127.535C336.128 127.535 333.504 126.146 333.504 123.367C333.504 122.286 334.893 120.897 337.827 119.507C342.304 117.346 342.15 116.111 341.069 113.64C339.525 109.935 330.416 95.2679 328.255 92.7977C327.791 92.3345 325.784 92.3345 325.63 92.6433C318.219 102.061 313.587 109.009 311.889 112.096C310.191 115.493 311.58 117.346 316.058 119.044C319.3 120.279 320.844 121.977 320.998 123.367C320.998 124.911 318.837 127.535 315.749 127.535C312.816 127.535 309.11 127.072 304.787 127.072C301.236 127.072 287.187 127.844 284.253 127.844C281.629 127.844 277.615 126.918 277.615 123.83C277.615 121.669 281.011 120.125 283.018 119.662C290.738 117.809 294.752 115.184 299.692 109.781C307.103 101.752 314.823 92.4889 320.998 84.1518C321.616 83.3799 320.844 81.6816 320.226 80.4465C317.756 75.6604 306.177 59.1407 301.236 52.5019C295.215 44.4736 290.892 43.2385 285.643 42.0034C282.246 41.2314 280.394 38.9156 280.394 37.3717ZM429.941 34.747H445.843C459.893 34.747 462.054 34.747 465.605 33.9751C467.303 33.6663 468.384 34.5927 468.847 35.3646C469.773 36.9085 471.009 48.6421 471.009 52.0387C471.009 56.0529 469.156 56.9792 468.23 56.9792C465.451 56.9792 463.907 55.2809 462.054 51.1124C459.121 44.7824 456.959 43.7017 455.724 43.7017C446.924 43.7017 438.432 44.1648 436.271 44.1648C435.499 44.1648 434.264 45.8631 434.264 46.4807C434.109 49.4141 433.801 60.5302 433.801 71.1831C433.801 73.6533 434.264 75.1972 435.036 75.3516C436.734 75.8148 442.138 75.6604 444.917 75.506C451.864 75.0428 454.026 72.5726 455.724 68.7128C456.65 66.397 458.194 64.5443 459.893 64.5443C462.054 64.5443 463.443 66.7058 463.135 71.1831C462.98 73.0358 462.826 76.5867 462.826 80.1377C462.826 83.6887 463.135 87.2396 463.289 89.5555C463.598 93.724 461.282 95.5767 459.738 95.5767C458.349 95.5767 456.342 93.8784 454.952 90.7906C453.408 87.2396 452.945 86.1589 449.703 85.8501C443.373 85.387 442.446 85.0782 435.499 85.0782C434.727 85.0782 433.801 87.2396 433.801 91.0994C433.801 95.2679 434.264 104.223 434.418 107.619C434.727 112.096 435.345 113.795 435.808 114.412C437.352 116.728 444.762 118.735 452.173 118.735C454.643 118.735 458.966 118.272 462.517 116.265C465.451 114.721 466.994 112.868 470.391 108.237C472.861 104.84 474.56 101.135 477.03 101.135C479.963 101.135 480.89 105.612 480.272 108.854C479.346 113.332 475.64 123.676 475.023 125.065C474.56 126.146 471.317 127.844 470.391 127.844C468.384 127.844 462.208 127.072 434.109 127.072C424.383 127.072 404.93 127.69 398.291 127.69C395.049 127.69 392.733 126.455 392.733 125.22C392.733 123.367 393.968 121.205 397.21 120.279C407.863 117.346 408.172 113.795 408.481 111.016C409.098 103.605 409.253 100.363 409.253 76.5867C409.253 52.8107 408.944 51.8843 408.481 49.1053C407.709 44.4736 405.702 42.7753 399.526 41.2314C395.512 40.3051 394.894 38.1436 394.894 37.0629C394.894 35.0558 397.982 33.9751 399.989 33.9751C402.614 33.9751 419.751 34.747 429.941 34.747ZM551.673 31.6592C558.774 31.6592 565.876 33.2031 570.045 34.2839C573.905 35.3646 579.463 37.0629 580.698 37.0629C581.47 37.0629 583.322 39.07 583.322 39.9963C583.322 45.5543 584.866 53.4282 584.866 57.288C584.866 61.6109 581.933 64.0811 579.926 64.0811C578.691 64.0811 577.919 62.846 576.684 59.4494C574.368 53.1195 573.442 49.7229 567.729 45.5543C562.943 42.0034 557.539 39.3787 550.901 39.3787C544.262 39.3787 535.77 43.2385 530.675 49.4141C524.037 57.288 520.949 69.0216 520.949 78.285C520.949 90.0187 524.809 100.517 529.286 106.847C534.844 114.721 545.034 120.433 554.297 120.433C558.157 120.433 565.104 117.963 568.192 116.265C569.427 115.493 572.206 112.56 576.066 106.384C579 101.752 580.852 99.8996 582.396 99.8996C585.33 99.8996 585.638 102.833 585.484 106.075C585.484 107.465 582.551 117.809 582.551 120.742C582.551 121.205 581.315 123.367 580.852 123.676C575.449 126.3 561.708 129.851 551.055 129.851C533.918 129.851 515.7 124.756 504.738 112.714C497.945 105.303 493.159 95.1135 493.159 81.3728C493.159 64.8531 500.569 50.958 514.156 41.5402C521.103 36.7541 535.616 31.6592 551.673 31.6592ZM597.826 37.5261C597.826 35.3646 600.605 33.9751 605.699 33.9751C610.485 33.9751 622.065 34.747 627.16 34.747C633.953 34.747 641.209 34.2839 643.371 34.2839C647.385 34.2839 650.164 36.4453 650.164 37.9892C650.164 39.8419 646.613 41.849 644.297 42.4665C637.349 44.3192 636.423 46.3263 635.96 53.5826C635.342 61.9197 635.342 73.3445 636.114 86.6221C636.886 100.054 639.82 107.156 643.062 109.935C647.385 113.64 653.715 116.419 660.199 116.419C672.087 116.419 681.659 110.707 683.666 94.0328C684.438 87.8572 684.593 71.1831 684.593 62.2285C684.593 46.1719 684.438 44.9368 673.477 42.3122C670.389 41.5402 667.764 40.3051 667.764 37.6804C667.764 36.4453 669.926 34.2839 674.094 34.2839C677.182 34.2839 682.122 34.747 687.989 34.747C693.547 34.747 699.877 33.9751 705.281 33.9751C708.214 33.9751 711.302 34.9014 711.302 37.5261C711.302 39.5331 708.678 41.077 705.59 42.1578C698.488 44.7824 697.407 46.0175 696.481 53.5826C696.172 55.4353 695.554 68.4041 694.937 80.2921C693.547 105.303 688.452 113.177 680.887 120.588C674.557 126.763 663.75 129.851 653.097 129.851C640.592 129.851 627.16 125.992 620.675 117.346C612.029 105.921 611.412 94.0328 611.412 76.4323C611.412 57.9055 611.103 55.5897 610.794 50.958C610.331 44.7824 609.25 44.0104 603.538 42.3122C600.45 41.3858 597.826 40.1507 597.826 37.5261ZM751.597 34.747H798.84C807.486 34.747 811.346 33.6663 811.963 32.8944C813.816 30.5785 815.514 29.189 816.595 29.189C817.521 29.189 821.535 31.6592 821.535 34.1295C821.535 35.2102 819.683 44.9368 819.683 55.2809C819.683 58.3687 817.367 61.7653 814.433 61.7653C812.272 61.7653 811.037 57.9055 810.728 56.516C808.412 46.3263 805.788 46.0175 800.23 45.3999C797.914 45.0912 797.451 44.628 784.327 44.628C783.555 44.628 783.092 45.8631 782.938 47.407C782.784 49.5685 781.857 70.4111 781.857 80.1377C781.857 89.5555 781.703 99.7452 782.166 105.303C783.092 116.574 785.717 117.037 792.047 119.353C794.826 120.433 797.451 121.823 797.451 123.676C797.451 127.072 793.745 127.844 790.657 127.844C789.114 127.844 772.131 127.072 762.867 127.072C758.39 127.072 750.053 127.535 745.884 127.535C742.642 127.535 739.554 126.146 739.554 123.367C739.554 122.132 741.098 119.97 744.649 119.044C754.221 116.419 756.846 114.412 756.846 105.921C756.846 102.679 757.155 82.1448 757.155 72.1094C757.155 62.5372 757.309 52.3475 757.309 47.5614C757.309 46.3263 755.765 44.628 755.302 44.628C751.442 44.628 745.73 44.628 741.716 44.7824C737.393 44.9368 733.224 44.9368 729.056 56.516C728.129 59.1407 726.277 61.1477 724.578 61.1477C722.571 61.1477 720.256 58.3687 720.256 54.6634C720.256 49.8773 721.954 42.9297 721.954 34.4383C721.954 31.8136 724.27 29.4978 726.122 29.4978C726.586 29.4978 728.438 30.4241 729.519 31.1961C732.144 33.3575 734.459 34.2839 738.937 34.4383C745.267 34.747 746.656 34.747 751.597 34.747ZM846.791 93.2609V57.5968C846.791 44.628 846.174 42.9297 837.837 41.077C835.212 40.4595 833.668 38.6068 833.668 37.2173C833.668 34.9014 837.374 34.1295 838.918 34.1295C841.851 34.1295 851.578 34.747 858.371 34.747C867.634 34.747 875.199 34.2839 879.676 34.2839C881.992 34.2839 884.463 35.519 884.463 37.5261C884.463 39.3787 881.838 40.6139 880.603 40.9226C873.038 42.6209 872.575 44.628 871.957 52.6563C871.494 59.2951 871.339 72.727 871.339 83.2255C871.339 100.054 871.648 106.075 871.648 108.082C871.957 115.339 872.729 118.426 880.448 120.279C883.382 121.051 885.389 122.595 885.389 124.756C885.389 126.609 881.992 127.535 880.14 127.535C878.596 127.535 863.62 127.072 858.371 127.072C852.967 127.072 841.697 127.69 838.918 127.69C836.91 127.69 833.668 127.227 833.668 124.756C833.668 123.058 836.139 121.051 838.3 120.433C844.476 118.426 845.402 116.574 846.174 111.942C846.637 108.7 846.791 105.921 846.791 93.2609ZM891.571 37.5261C891.571 35.9822 894.195 33.8207 897.746 33.8207C902.841 33.8207 912.722 34.747 918.434 34.747C923.992 34.747 930.94 34.5927 935.109 34.5927C938.659 34.5927 941.439 36.4453 941.439 38.9156C941.439 40.6139 938.505 42.0034 936.035 43.0841C933.101 44.3192 932.793 46.0175 933.873 49.7229C935.417 55.2809 950.393 90.4818 952.246 92.9521C952.863 93.724 953.79 94.1872 954.407 93.1065C960.737 79.057 967.839 61.7653 971.236 51.7299C972.934 46.6351 972.471 44.9368 966.913 42.9297C963.979 41.849 961.509 40.3051 961.509 38.1436C961.509 36.1365 964.134 34.5927 967.839 34.5927C971.236 34.5927 975.713 34.747 978.955 34.747C984.822 34.747 989.454 33.9751 994.549 33.9751C998.1 33.9751 1000.72 35.6734 1000.72 37.3717C1000.72 39.8419 998.717 41.2314 995.321 42.1578C986.984 44.628 984.668 48.9509 981.271 55.2809C976.639 63.9268 964.288 90.945 958.576 106.075C955.334 114.567 952.555 121.977 951.628 123.984C950.856 125.837 945.916 130.314 944.063 130.314C941.13 130.314 939.586 128.771 938.505 125.528C937.733 123.213 934.645 115.339 931.712 107.619C928.624 99.4365 913.803 65.1619 906.546 49.8773C904.694 45.8631 902.841 44.4736 896.82 42.0034C894.041 40.9226 891.571 39.3787 891.571 37.5261ZM1041.47 34.747H1057.37C1071.42 34.747 1073.58 34.747 1077.13 33.9751C1078.83 33.6663 1079.91 34.5927 1080.38 35.3646C1081.3 36.9085 1082.54 48.6421 1082.54 52.0387C1082.54 56.0529 1080.69 56.9792 1079.76 56.9792C1076.98 56.9792 1075.44 55.2809 1073.58 51.1124C1070.65 44.7824 1068.49 43.7017 1067.25 43.7017C1058.45 43.7017 1049.96 44.1648 1047.8 44.1648C1047.03 44.1648 1045.79 45.8631 1045.79 46.4807C1045.64 49.4141 1045.33 60.5302 1045.33 71.1831C1045.33 73.6533 1045.79 75.1972 1046.56 75.3516C1048.26 75.8148 1053.67 75.6604 1056.45 75.506C1063.39 75.0428 1065.55 72.5726 1067.25 68.7128C1068.18 66.397 1069.72 64.5443 1071.42 64.5443C1073.58 64.5443 1074.97 66.7058 1074.66 71.1831C1074.51 73.0358 1074.36 76.5867 1074.36 80.1377C1074.36 83.6887 1074.66 87.2396 1074.82 89.5555C1075.13 93.724 1072.81 95.5767 1071.27 95.5767C1069.88 95.5767 1067.87 93.8784 1066.48 90.7906C1064.94 87.2396 1064.47 86.1589 1061.23 85.8501C1054.9 85.387 1053.98 85.0782 1047.03 85.0782C1046.26 85.0782 1045.33 87.2396 1045.33 91.0994C1045.33 95.2679 1045.79 104.223 1045.95 107.619C1046.26 112.096 1046.87 113.795 1047.34 114.412C1048.88 116.728 1056.29 118.735 1063.7 118.735C1066.17 118.735 1070.5 118.272 1074.05 116.265C1076.98 114.721 1078.52 112.868 1081.92 108.237C1084.39 104.84 1086.09 101.135 1088.56 101.135C1091.49 101.135 1092.42 105.612 1091.8 108.854C1090.87 113.332 1087.17 123.676 1086.55 125.065C1086.09 126.146 1082.85 127.844 1081.92 127.844C1079.91 127.844 1073.74 127.072 1045.64 127.072C1035.91 127.072 1016.46 127.69 1009.82 127.69C1006.58 127.69 1004.26 126.455 1004.26 125.22C1004.26 123.367 1005.5 121.205 1008.74 120.279C1019.39 117.346 1019.7 113.795 1020.01 111.016C1020.63 103.605 1020.78 100.363 1020.78 76.5867C1020.78 52.8107 1020.47 51.8843 1020.01 49.1053C1019.24 44.4736 1017.23 42.7753 1011.06 41.2314C1007.04 40.3051 1006.42 38.1436 1006.42 37.0629C1006.42 35.0558 1009.51 33.9751 1011.52 33.9751C1014.14 33.9751 1031.28 34.747 1041.47 34.747Z" fill="white"/>
<path d="M234.268 160.666C249.089 160.666 264.374 163.908 275.799 173.481C288.767 184.442 291.392 198.183 291.392 207.755C291.392 231.377 275.644 243.574 267.307 248.205C256.345 254.072 244.766 255.307 233.341 255.307C227.011 255.307 210.183 254.072 205.242 254.072C200.302 254.072 193.354 254.072 185.944 254.69C184.708 254.844 183.473 253.763 183.473 252.683C183.473 250.984 185.789 247.279 189.649 246.198C194.589 244.809 197.214 245.272 198.449 238.324C199.53 232.303 199.53 224.584 199.53 204.204C199.53 183.053 199.839 180.428 198.758 175.025C198.449 173.326 198.14 171.01 190.884 169.467C187.179 168.695 185.017 166.996 185.017 164.835C185.017 162.519 187.488 161.593 191.965 161.593L202.618 161.747C208.021 161.901 223.46 160.666 234.268 160.666ZM234.268 168.849C233.033 168.849 227.938 169.467 226.857 170.084C226.239 170.393 224.696 173.326 224.696 173.944C224.387 179.193 223.769 185.832 223.769 197.411V208.527C223.769 228.289 224.387 230.759 224.85 235.391C225.159 238.633 226.857 241.875 228.71 243.419C230.408 244.809 235.966 247.433 237.973 247.433C239.671 247.433 248.008 245.581 254.802 239.096C261.749 232.458 264.683 219.489 264.683 209.145C264.683 197.874 261.749 186.295 253.875 178.576C247.082 171.782 239.208 168.849 234.268 168.849ZM317.886 220.261V184.597C317.886 171.628 317.268 169.93 308.931 168.077C306.306 167.459 304.762 165.607 304.762 164.217C304.762 161.901 308.468 161.129 310.012 161.129C312.945 161.129 322.672 161.747 329.465 161.747C338.728 161.747 346.293 161.284 350.771 161.284C353.086 161.284 355.557 162.519 355.557 164.526C355.557 166.379 352.932 167.614 351.697 167.923C344.132 169.621 343.669 171.628 343.051 179.656C342.588 186.295 342.434 199.727 342.434 210.226C342.434 227.054 342.742 233.075 342.742 235.082C343.051 242.339 343.823 245.426 351.543 247.279C354.476 248.051 356.483 249.595 356.483 251.756C356.483 253.609 353.086 254.535 351.234 254.535C349.69 254.535 334.714 254.072 329.465 254.072C324.061 254.072 312.791 254.69 310.012 254.69C308.005 254.69 304.762 254.227 304.762 251.756C304.762 250.058 307.233 248.051 309.394 247.433C315.57 245.426 316.496 243.574 317.268 238.942C317.731 235.7 317.886 232.921 317.886 220.261ZM453.729 185.986C453.729 191.853 450.796 198.492 446.782 201.888C444.466 203.896 442.305 204.359 439.062 206.211C438.29 206.675 439.062 209.608 439.526 210.534C442.922 217.327 449.87 228.752 455.737 236.163C461.14 242.956 465.926 245.581 470.712 247.433C472.256 248.051 474.263 249.441 474.263 250.83C474.263 254.844 469.323 256.079 465.154 256.079C452.803 256.079 440.915 254.844 430.108 240.795C424.55 233.538 420.381 225.819 416.058 218.871C413.588 214.857 411.427 214.085 408.956 214.085C407.876 214.085 407.721 215.938 407.721 216.401C407.721 228.752 407.721 232.458 408.184 237.861C408.648 243.419 410.191 243.574 416.367 246.507C419.146 247.897 420.999 249.595 420.999 250.83C420.999 252.528 417.757 254.69 415.132 254.69C411.272 254.69 399.384 254.072 393.981 254.072C389.194 254.072 381.938 254.69 376.226 254.69C372.52 254.69 370.359 252.837 370.359 251.293C370.359 249.132 372.52 247.588 375.454 246.816C381.784 244.963 383.328 243.728 383.636 236.009C383.791 230.451 383.791 227.672 383.791 199.881C383.791 180.891 383.328 179.965 383.019 176.723C382.71 173.635 381.321 170.547 375.454 169.467C372.52 168.849 370.668 166.533 370.668 165.452C370.668 162.828 373.755 161.438 377.461 161.438C385.335 161.438 387.959 161.747 389.966 161.747C400.156 161.747 408.648 160.821 419.455 160.821C433.041 160.821 440.143 163.754 443.848 166.533C450.487 171.628 453.729 177.804 453.729 185.986ZM429.953 188.611C429.953 178.884 423.315 169.312 412.199 169.312C411.581 169.312 409.265 169.93 408.339 170.547C407.876 170.856 407.412 171.628 407.412 173.018C407.412 177.34 407.721 191.699 407.721 202.043C407.721 202.66 408.339 204.513 408.956 204.822C411.118 205.748 413.125 206.211 415.75 206.211C419.146 206.211 424.704 202.66 425.63 202.043C426.557 201.425 429.953 196.022 429.953 188.611ZM513.016 161.747H528.919C542.968 161.747 545.13 161.747 548.681 160.975C550.379 160.666 551.46 161.593 551.923 162.365C552.849 163.908 554.084 175.642 554.084 179.039C554.084 183.053 552.231 183.979 551.305 183.979C548.526 183.979 546.982 182.281 545.13 178.112C542.196 171.782 540.035 170.702 538.8 170.702C529.999 170.702 521.508 171.165 519.346 171.165C518.574 171.165 517.339 172.863 517.339 173.481C517.185 176.414 516.876 187.53 516.876 198.183C516.876 200.653 517.339 202.197 518.111 202.352C519.81 202.815 525.213 202.66 527.992 202.506C534.94 202.043 537.101 199.573 538.8 195.713C539.726 193.397 541.27 191.544 542.968 191.544C545.13 191.544 546.519 193.706 546.21 198.183C546.056 200.036 545.901 203.587 545.901 207.138C545.901 210.689 546.21 214.24 546.365 216.555C546.673 220.724 544.358 222.577 542.814 222.577C541.424 222.577 539.417 220.878 538.028 217.791C536.484 214.24 536.021 213.159 532.778 212.85C526.448 212.387 525.522 212.078 518.574 212.078C517.803 212.078 516.876 214.24 516.876 218.099C516.876 222.268 517.339 231.223 517.494 234.619C517.803 239.096 518.42 240.795 518.883 241.412C520.427 243.728 527.838 245.735 535.249 245.735C537.719 245.735 542.042 245.272 545.593 243.265C548.526 241.721 550.07 239.868 553.467 235.237C555.937 231.84 557.635 228.135 560.105 228.135C563.039 228.135 563.965 232.612 563.348 235.854C562.421 240.332 558.716 250.676 558.098 252.065C557.635 253.146 554.393 254.844 553.467 254.844C551.46 254.844 545.284 254.072 517.185 254.072C507.458 254.072 488.005 254.69 481.366 254.69C478.124 254.69 475.808 253.455 475.808 252.22C475.808 250.367 477.044 248.205 480.286 247.279C490.939 244.346 491.247 240.795 491.556 238.016C492.174 230.605 492.328 227.363 492.328 203.587C492.328 179.811 492.019 178.884 491.556 176.105C490.784 171.474 488.777 169.775 482.602 168.231C478.587 167.305 477.97 165.144 477.97 164.063C477.97 162.056 481.058 160.975 483.065 160.975C485.689 160.975 502.827 161.747 513.016 161.747ZM634.748 158.659C641.85 158.659 648.952 160.203 653.121 161.284C656.98 162.365 662.538 164.063 663.773 164.063C664.545 164.063 666.398 166.07 666.398 166.996C666.398 172.554 667.942 180.428 667.942 184.288C667.942 188.611 665.009 191.081 663.001 191.081C661.766 191.081 660.994 189.846 659.759 186.449C657.443 180.119 656.517 176.723 650.805 172.554C646.019 169.003 640.615 166.379 633.976 166.379C627.337 166.379 618.846 170.238 613.751 176.414C607.112 184.288 604.025 196.022 604.025 205.285C604.025 217.019 607.884 227.517 612.362 233.847C617.92 241.721 628.109 247.433 637.373 247.433C641.233 247.433 648.18 244.963 651.268 243.265C652.503 242.493 655.282 239.56 659.142 233.384C662.075 228.752 663.928 226.9 665.472 226.9C668.405 226.9 668.714 229.833 668.56 233.075C668.56 234.465 665.626 244.809 665.626 247.742C665.626 248.205 664.391 250.367 663.928 250.676C658.524 253.3 644.783 256.851 634.131 256.851C616.993 256.851 598.775 251.756 587.814 239.714C581.02 232.303 576.234 222.114 576.234 208.373C576.234 191.853 583.645 177.958 597.231 168.54C604.179 163.754 618.692 158.659 634.748 158.659ZM713.904 161.747H761.148C769.794 161.747 773.653 160.666 774.271 159.894C776.124 157.579 777.822 156.189 778.903 156.189C779.829 156.189 783.843 158.659 783.843 161.129C783.843 162.21 781.99 171.937 781.99 182.281C781.99 185.369 779.674 188.765 776.741 188.765C774.58 188.765 773.344 184.906 773.036 183.516C770.72 173.326 768.095 173.018 762.537 172.4C760.221 172.091 759.758 171.628 746.635 171.628C745.863 171.628 745.4 172.863 745.246 174.407C745.091 176.568 744.165 197.411 744.165 207.138C744.165 216.555 744.01 226.745 744.474 232.303C745.4 243.574 748.025 244.037 754.355 246.353C757.134 247.433 759.758 248.823 759.758 250.676C759.758 254.072 756.053 254.844 752.965 254.844C751.421 254.844 734.438 254.072 725.175 254.072C720.698 254.072 712.36 254.535 708.192 254.535C704.95 254.535 701.862 253.146 701.862 250.367C701.862 249.132 703.406 246.97 706.957 246.044C716.529 243.419 719.154 241.412 719.154 232.921C719.154 229.679 719.462 209.145 719.462 199.109C719.462 189.537 719.617 179.348 719.617 174.561C719.617 173.326 718.073 171.628 717.61 171.628C713.75 171.628 708.038 171.628 704.023 171.782C699.7 171.937 695.532 171.937 691.363 183.516C690.437 186.141 688.584 188.148 686.886 188.148C684.879 188.148 682.563 185.369 682.563 181.663C682.563 176.877 684.261 169.93 684.261 161.438C684.261 158.814 686.577 156.498 688.43 156.498C688.893 156.498 690.746 157.424 691.827 158.196C694.451 160.358 696.767 161.284 701.244 161.438C707.574 161.747 708.964 161.747 713.904 161.747ZM847.216 158.659C879.33 158.659 900.944 180.274 900.944 207.91C900.944 227.208 889.519 242.339 875.007 250.367C868.368 254.072 857.561 256.851 847.68 256.851C815.103 256.851 793.798 234.619 793.798 207.91C793.798 196.022 798.275 184.288 807.847 174.716C817.882 164.68 832.704 158.659 847.216 158.659ZM844.437 166.688C837.181 166.688 830.697 172.863 830.542 173.018C824.058 180.119 821.279 190.618 821.279 205.131C821.279 226.128 830.851 248.977 851.694 248.977C856.943 248.977 863.119 244.346 863.891 243.728C868.831 239.096 872.845 229.37 872.845 208.99C872.845 192.779 864.817 166.688 844.437 166.688ZM998.165 185.986C998.165 191.853 995.232 198.492 991.218 201.888C988.902 203.896 986.74 204.359 983.498 206.211C982.726 206.675 983.498 209.608 983.961 210.534C987.358 217.327 994.306 228.752 1000.17 236.163C1005.58 242.956 1010.36 245.581 1015.15 247.433C1016.69 248.051 1018.7 249.441 1018.7 250.83C1018.7 254.844 1013.76 256.079 1009.59 256.079C997.239 256.079 985.351 254.844 974.544 240.795C968.986 233.538 964.817 225.819 960.494 218.871C958.024 214.857 955.862 214.085 953.392 214.085C952.311 214.085 952.157 215.938 952.157 216.401C952.157 228.752 952.157 232.458 952.62 237.861C953.083 243.419 954.627 243.574 960.803 246.507C963.582 247.897 965.435 249.595 965.435 250.83C965.435 252.528 962.192 254.69 959.568 254.69C955.708 254.69 943.82 254.072 938.416 254.072C933.63 254.072 926.374 254.69 920.662 254.69C916.956 254.69 914.795 252.837 914.795 251.293C914.795 249.132 916.956 247.588 919.89 246.816C926.22 244.963 927.763 243.728 928.072 236.009C928.227 230.451 928.227 227.672 928.227 199.881C928.227 180.891 927.763 179.965 927.455 176.723C927.146 173.635 925.756 170.547 919.89 169.467C916.956 168.849 915.103 166.533 915.103 165.452C915.103 162.828 918.191 161.438 921.897 161.438C929.771 161.438 932.395 161.747 934.402 161.747C944.592 161.747 953.083 160.821 963.891 160.821C977.477 160.821 984.579 163.754 988.284 166.533C994.923 171.628 998.165 177.804 998.165 185.986ZM974.389 188.611C974.389 178.884 967.75 169.312 956.634 169.312C956.017 169.312 953.701 169.93 952.775 170.547C952.311 170.856 951.848 171.628 951.848 173.018C951.848 177.34 952.157 191.699 952.157 202.043C952.157 202.66 952.775 204.513 953.392 204.822C955.554 205.748 957.561 206.211 960.185 206.211C963.582 206.211 969.14 202.66 970.066 202.043C970.993 201.425 974.389 196.022 974.389 188.611ZM1029.97 150.477C1042.01 150.477 1046.8 160.821 1046.8 168.695C1046.8 185.677 1027.65 192.007 1024.41 192.007C1022.4 192.007 1019.32 190.618 1019.32 189.537C1019.32 186.449 1021.01 185.214 1022.87 184.134C1027.96 181.2 1032.13 178.576 1032.13 174.253C1032.13 170.393 1029.35 168.849 1024.87 166.996C1022.4 165.916 1019.78 163.137 1019.78 159.894C1019.78 154.799 1025.18 150.477 1029.97 150.477ZM1100.15 158.814C1108.79 158.814 1116.98 161.593 1123 162.982C1123.92 163.137 1125 165.607 1125 167.305C1125 169.158 1126.08 177.649 1126.08 179.965C1126.08 185.214 1123.61 187.376 1121.45 187.376C1119.75 187.376 1118.37 184.751 1117.9 183.516C1114.51 174.253 1106.48 165.916 1097.68 165.916C1091.19 165.916 1085.33 171.937 1085.33 177.804C1085.33 184.751 1090.42 189.846 1099.22 194.323C1118.67 204.204 1130.1 212.85 1130.1 227.517C1130.1 240.177 1121.45 247.279 1115.89 250.676C1109.87 254.227 1099.68 256.851 1092.58 256.851C1079.46 256.851 1071.89 254.072 1068.34 252.683C1067.26 252.22 1064.79 250.83 1064.02 249.132C1061.4 243.574 1060.93 235.545 1060.93 231.84C1060.93 228.907 1062.48 225.201 1064.95 225.201C1066.64 225.201 1068.65 227.054 1070.81 231.068C1076.53 241.567 1085.02 249.132 1094.59 249.132C1100.15 249.132 1107.09 245.272 1107.09 238.17C1107.09 233.538 1107.4 228.444 1091.66 219.952C1071.43 209.145 1063.56 200.808 1063.56 186.449C1063.56 176.414 1070.66 168.231 1078.07 164.063C1083.94 160.821 1091.35 158.814 1100.15 158.814ZM1171.77 163.445C1171.77 162.365 1173 160.821 1175.78 160.821C1181.96 160.821 1194.31 162.056 1204.19 162.056C1205.58 162.056 1207.74 163.137 1208.21 163.754C1210.83 167.305 1215.62 172.4 1223.03 180.428C1231.21 189.228 1255.76 215.166 1259.15 217.019C1259.62 217.173 1260.85 216.864 1261.01 216.401C1261.93 212.233 1261.93 197.411 1261.47 186.758C1261.01 176.26 1261.78 172.246 1249.74 169.467C1246.03 168.54 1244.64 165.916 1244.64 164.989C1244.64 163.908 1246.34 161.593 1250.05 161.593C1255.6 161.593 1255.29 161.747 1259.31 161.747C1265.64 161.747 1277.37 160.975 1280.46 160.975C1283.7 160.975 1285.86 161.901 1285.86 164.526C1285.86 166.224 1284.63 167.305 1279.69 169.467C1273.36 172.246 1272.43 173.944 1272.28 175.951C1271.97 183.053 1270.73 214.857 1270.73 225.201C1270.73 231.994 1271.35 238.788 1271.35 245.89C1271.35 252.374 1270.12 257.16 1267.34 257.16C1262.4 257.16 1258.38 254.381 1255.45 250.984C1249.74 244.5 1242.48 236.009 1238.16 231.223C1232.29 224.429 1208.21 198.801 1201.41 191.39C1200.95 190.927 1199.87 191.853 1199.87 192.471C1199.71 195.867 1199.41 196.33 1199.41 202.969C1199.41 209.917 1199.71 223.812 1199.87 227.98C1200.33 240.023 1202.34 243.728 1207.74 245.89C1212.99 247.897 1214.69 249.595 1214.69 251.756C1214.69 253.609 1212.99 254.69 1209.44 254.69C1205.12 254.69 1199.87 254.072 1192.61 254.072C1185.36 254.072 1181.5 254.69 1179.49 254.69C1174.86 254.69 1173.31 252.992 1173.31 251.448C1173.31 249.441 1175.17 248.051 1177.95 247.125C1185.05 244.809 1187.83 244.346 1188.6 234.002C1189.37 223.657 1190.61 186.758 1190.61 181.818C1190.61 180.891 1189.83 177.649 1187.83 175.333C1184.58 171.628 1181.8 169.775 1178.25 169.003C1174.7 168.231 1171.77 166.379 1171.77 163.445ZM1350.34 158.659C1382.45 158.659 1404.07 180.274 1404.07 207.91C1404.07 227.208 1392.64 242.339 1378.13 250.367C1371.49 254.072 1360.69 256.851 1350.8 256.851C1318.23 256.851 1296.92 234.619 1296.92 207.91C1296.92 196.022 1301.4 184.288 1310.97 174.716C1321.01 164.68 1335.83 158.659 1350.34 158.659ZM1347.56 166.688C1340.31 166.688 1333.82 172.863 1333.67 173.018C1327.18 180.119 1324.4 190.618 1324.4 205.131C1324.4 226.128 1333.98 248.977 1354.82 248.977C1360.07 248.977 1366.24 244.346 1367.02 243.728C1371.96 239.096 1375.97 229.37 1375.97 208.99C1375.97 192.779 1367.94 166.688 1347.56 166.688ZM1446.5 161.747H1493.75C1502.39 161.747 1506.25 160.666 1506.87 159.894C1508.72 157.579 1510.42 156.189 1511.5 156.189C1512.43 156.189 1516.44 158.659 1516.44 161.129C1516.44 162.21 1514.59 171.937 1514.59 182.281C1514.59 185.369 1512.27 188.765 1509.34 188.765C1507.18 188.765 1505.94 184.906 1505.63 183.516C1503.32 173.326 1500.69 173.018 1495.14 172.4C1492.82 172.091 1492.36 171.628 1479.23 171.628C1478.46 171.628 1478 172.863 1477.84 174.407C1477.69 176.568 1476.76 197.411 1476.76 207.138C1476.76 216.555 1476.61 226.745 1477.07 232.303C1478 243.574 1480.62 244.037 1486.95 246.353C1489.73 247.433 1492.36 248.823 1492.36 250.676C1492.36 254.072 1488.65 254.844 1485.56 254.844C1484.02 254.844 1467.04 254.072 1457.77 254.072C1453.3 254.072 1444.96 254.535 1440.79 254.535C1437.55 254.535 1434.46 253.146 1434.46 250.367C1434.46 249.132 1436 246.97 1439.56 246.044C1449.13 243.419 1451.75 241.412 1451.75 232.921C1451.75 229.679 1452.06 209.145 1452.06 199.109C1452.06 189.537 1452.22 179.348 1452.22 174.561C1452.22 173.326 1450.67 171.628 1450.21 171.628C1446.35 171.628 1440.64 171.628 1436.62 171.782C1432.3 171.937 1428.13 171.937 1423.96 183.516C1423.04 186.141 1421.18 188.148 1419.48 188.148C1417.48 188.148 1415.16 185.369 1415.16 181.663C1415.16 176.877 1416.86 169.93 1416.86 161.438C1416.86 158.814 1419.18 156.498 1421.03 156.498C1421.49 156.498 1423.34 157.424 1424.43 158.196C1427.05 160.358 1429.37 161.284 1433.84 161.438C1440.17 161.747 1441.56 161.747 1446.5 161.747ZM1562.39 161.747H1578.29C1592.34 161.747 1594.5 161.747 1598.05 160.975C1599.75 160.666 1600.83 161.593 1601.29 162.365C1602.22 163.908 1603.45 175.642 1603.45 179.039C1603.45 183.053 1601.6 183.979 1600.67 183.979C1597.9 183.979 1596.35 182.281 1594.5 178.112C1591.57 171.782 1589.4 170.702 1588.17 170.702C1579.37 170.702 1570.88 171.165 1568.72 171.165C1567.94 171.165 1566.71 172.863 1566.71 173.481C1566.55 176.414 1566.25 187.53 1566.25 198.183C1566.25 200.653 1566.71 202.197 1567.48 202.352C1569.18 202.815 1574.58 202.66 1577.36 202.506C1584.31 202.043 1586.47 199.573 1588.17 195.713C1589.1 193.397 1590.64 191.544 1592.34 191.544C1594.5 191.544 1595.89 193.706 1595.58 198.183C1595.43 200.036 1595.27 203.587 1595.27 207.138C1595.27 210.689 1595.58 214.24 1595.73 216.555C1596.04 220.724 1593.73 222.577 1592.18 222.577C1590.79 222.577 1588.79 220.878 1587.4 217.791C1585.85 214.24 1585.39 213.159 1582.15 212.85C1575.82 212.387 1574.89 212.078 1567.94 212.078C1567.17 212.078 1566.25 214.24 1566.25 218.099C1566.25 222.268 1566.71 231.223 1566.86 234.619C1567.17 239.096 1567.79 240.795 1568.25 241.412C1569.8 243.728 1577.21 245.735 1584.62 245.735C1587.09 245.735 1591.41 245.272 1594.96 243.265C1597.9 241.721 1599.44 239.868 1602.84 235.237C1605.31 231.84 1607 228.135 1609.47 228.135C1612.41 228.135 1613.33 232.612 1612.72 235.854C1611.79 240.332 1608.09 250.676 1607.47 252.065C1607 253.146 1603.76 254.844 1602.84 254.844C1600.83 254.844 1594.65 254.072 1566.55 254.072C1556.83 254.072 1537.37 254.69 1530.74 254.69C1527.49 254.69 1525.18 253.455 1525.18 252.22C1525.18 250.367 1526.41 248.205 1529.66 247.279C1540.31 244.346 1540.62 240.795 1540.93 238.016C1541.54 230.605 1541.7 227.363 1541.7 203.587C1541.7 179.811 1541.39 178.884 1540.93 176.105C1540.15 171.474 1538.15 169.775 1531.97 168.231C1527.96 167.305 1527.34 165.144 1527.34 164.063C1527.34 162.056 1530.43 160.975 1532.43 160.975C1535.06 160.975 1552.2 161.747 1562.39 161.747Z" fill="white"/>
</svg>
