<svg width="33" height="33" viewBox="0 0 33 33" fill="none" xmlns="http://www.w3.org/2000/svg">
<path d="M8.82693 0.829834H0.836914V8.81982H8.82693V0.829834Z" fill="#445971"/>
<path fill-rule="evenodd" clip-rule="evenodd" d="M30.8069 0.829834V4.82983H28.8069V0.829834H26.8069V2.82983H24.8069V0.829834H22.8069V4.82983H20.8169V0.829834H18.8169V2.82983H16.8169V0.829834H14.8169V4.82983H12.8269V0.829834H10.8269V8.81982H30.8069V30.7999H8.82693V10.8198H0.836914V12.8198H2.83691V14.8099H0.836914V16.8099H4.83691V18.8099H0.836914V20.8099H2.83691V22.8099H0.836914V24.7999H4.83691V26.7999H0.836914V28.7999H2.83691V30.7999H0.836914V32.7999H32.7969V0.829834H30.8069Z" fill="#445971"/>
</svg>
