<svg width="33" height="33" viewBox="0 0 33 33" fill="none" xmlns="http://www.w3.org/2000/svg">
<path d="M8.45584 0.330078H0.46582V8.32007H8.45584V0.330078Z" fill="#5D808F"/>
<path fill-rule="evenodd" clip-rule="evenodd" d="M30.4358 0.330078V4.32007H28.4358V0.330078H26.4358V2.33008H24.4358V0.330078H22.4358V4.32007H20.4458V0.330078H18.4458V2.33008H16.4458V0.330078H14.4458V4.32007H12.4558V0.330078H10.4558V8.32007H30.4358V30.3H8.45584V10.3201H0.46582V12.3201H2.46582V14.3101H0.46582V16.3101H4.46582V18.3101H0.46582V20.3101H2.46582V22.3101H0.46582V24.3H4.46582V26.3H0.46582V28.3H2.46582V30.3H0.46582V32.3H32.4258V0.330078H30.4358Z" fill="#5D808F"/>
</svg>
