<svg width="34" height="31" viewBox="0 0 34 31" fill="none" xmlns="http://www.w3.org/2000/svg">
<path d="M0.447039 9.13989V27.5999C0.447039 27.7399 0.447039 27.8699 0.447039 28.0099C0.433354 28.396 0.501166 28.7807 0.646074 29.1388C0.790982 29.4969 1.00972 29.8204 1.28804 30.0884C1.56636 30.3563 1.89802 30.5626 2.2614 30.6938C2.62478 30.825 3.01172 30.8782 3.39702 30.8499H29.507C29.7649 30.8497 30.0223 30.8297 30.277 30.7899C31.0907 30.6886 31.8379 30.2887 32.3736 29.668C32.9094 29.0472 33.1957 28.2497 33.177 27.4299V9.13989H0.447039ZM10.447 25.4099C10.4461 25.5268 10.421 25.6422 10.3733 25.749C10.3257 25.8558 10.2565 25.9517 10.1702 26.0305C10.0838 26.1094 9.98214 26.1695 9.87148 26.2073C9.76081 26.245 9.64355 26.2595 9.52703 26.2499H7.12703C7.01439 26.2571 6.90151 26.2403 6.79579 26.2008C6.69007 26.1613 6.59391 26.0998 6.51363 26.0205C6.43335 25.9412 6.37075 25.8457 6.32997 25.7405C6.2892 25.6352 6.27115 25.5226 6.27703 25.4099V24.1499C6.27703 23.7399 6.27703 23.3199 6.27703 22.8999C6.27022 22.7955 6.28477 22.6908 6.31978 22.5922C6.35479 22.4936 6.40955 22.4032 6.48067 22.3264C6.55179 22.2497 6.63779 22.1883 6.73345 22.1459C6.8291 22.1035 6.93241 22.081 7.03703 22.0798C7.91703 22.0798 8.79702 22.0798 9.67702 22.0798C9.77709 22.0757 9.87696 22.0922 9.97038 22.1283C10.0638 22.1644 10.1488 22.2193 10.2201 22.2897C10.2914 22.36 10.3474 22.4443 10.3847 22.5372C10.422 22.6302 10.4399 22.7297 10.437 22.8298C10.467 23.6998 10.467 24.5599 10.437 25.4099H10.447ZM10.447 16.2098C10.4498 16.3244 10.4292 16.4383 10.3863 16.5446C10.3434 16.6508 10.2793 16.7472 10.1978 16.8278C10.1163 16.9083 10.0192 16.9714 9.91243 17.0131C9.80567 17.0547 9.69156 17.074 9.57704 17.0698C8.73704 17.0698 7.90704 17.0698 7.07704 17.0698C6.96595 17.0746 6.85512 17.0555 6.752 17.0139C6.64888 16.9723 6.55585 16.9092 6.47914 16.8287C6.40244 16.7482 6.34382 16.6522 6.30724 16.5472C6.27065 16.4422 6.25694 16.3306 6.26702 16.2198V13.7499C6.25951 13.6354 6.2767 13.5208 6.3174 13.4136C6.3581 13.3064 6.42139 13.2092 6.50295 13.1285C6.58451 13.0479 6.68244 12.9857 6.79012 12.9463C6.89779 12.9068 7.0127 12.8911 7.12703 12.8999H9.58702C9.69518 12.8902 9.80419 12.9031 9.90706 12.9379C10.0099 12.9727 10.1044 13.0286 10.1844 13.1021C10.2644 13.1755 10.3282 13.2648 10.3717 13.3643C10.4152 13.4638 10.4375 13.5713 10.437 13.6799C10.467 14.5199 10.467 15.3698 10.447 16.2098ZM14.327 13.7399C14.3197 13.629 14.3361 13.5177 14.3752 13.4137C14.4143 13.3097 14.4752 13.2152 14.5538 13.1366C14.6324 13.058 14.7268 12.9971 14.8309 12.958C14.9349 12.9189 15.0461 12.9025 15.157 12.9099H17.687C17.7891 12.9016 17.8918 12.9145 17.9887 12.948C18.0855 12.9814 18.1743 13.0347 18.2495 13.1042C18.3247 13.1738 18.3847 13.2582 18.4256 13.3522C18.4664 13.4461 18.4874 13.5475 18.487 13.6499C18.487 14.5499 18.487 15.4499 18.487 16.3499C18.498 16.4449 18.4875 16.5412 18.4563 16.6316C18.4252 16.722 18.3741 16.8043 18.307 16.8724C18.2398 16.9405 18.1583 16.9927 18.0683 17.0251C17.9783 17.0576 17.8822 17.0695 17.787 17.0599C16.887 17.0599 15.987 17.0599 15.087 17.0599C14.9815 17.0618 14.8768 17.0414 14.7797 17C14.6827 16.9586 14.5954 16.8972 14.5237 16.8198C14.4519 16.7424 14.3973 16.6507 14.3635 16.5508C14.3296 16.4508 14.3172 16.3449 14.327 16.2399C14.327 15.8199 14.327 15.3999 14.327 14.9899C14.327 14.5799 14.317 14.1499 14.327 13.7399ZM18.497 25.4299C18.497 25.9899 18.207 26.2399 17.647 26.2499H15.217C15.0989 26.262 14.9796 26.248 14.8674 26.2089C14.7553 26.1697 14.6532 26.1063 14.5683 26.0233C14.4833 25.9403 14.4177 25.8396 14.376 25.7284C14.3343 25.6172 14.3176 25.4983 14.327 25.3799C14.327 24.5665 14.327 23.7565 14.327 22.9498C14.3153 22.8361 14.3283 22.7212 14.3653 22.613C14.4023 22.5049 14.4623 22.4061 14.5412 22.3234C14.6202 22.2406 14.7161 22.1759 14.8224 22.1339C14.9287 22.0919 15.0429 22.0734 15.157 22.0798C15.987 22.0798 16.827 22.0798 17.657 22.0798C17.7706 22.0706 17.8847 22.0864 17.9915 22.126C18.0983 22.1656 18.1952 22.2281 18.2752 22.3091C18.3553 22.3901 18.4166 22.4876 18.4549 22.5948C18.4933 22.7021 18.5076 22.8165 18.497 22.9299C18.517 23.7599 18.517 24.5999 18.497 25.4299ZM26.657 25.4299C26.6732 25.5422 26.6632 25.6567 26.628 25.7645C26.5928 25.8724 26.5333 25.9708 26.4541 26.052C26.3748 26.1332 26.2779 26.195 26.1709 26.2328C26.064 26.2706 25.9497 26.2833 25.837 26.2699H23.327C23.2167 26.2801 23.1055 26.2664 23.001 26.2297C22.8965 26.1931 22.8011 26.1344 22.7213 26.0575C22.6416 25.9806 22.5794 25.8874 22.539 25.7843C22.4985 25.6812 22.4808 25.5704 22.487 25.4598C22.487 24.6098 22.487 23.7699 22.487 22.9199C22.481 22.8089 22.4987 22.6979 22.5391 22.5944C22.5794 22.4908 22.6415 22.397 22.721 22.3193C22.8006 22.2417 22.8958 22.1819 23.0003 22.144C23.1048 22.1062 23.2162 22.0911 23.327 22.0999C24.1537 22.0999 24.9837 22.0999 25.817 22.0999C25.9311 22.0921 26.0454 22.1092 26.1522 22.15C26.2589 22.1908 26.3556 22.2543 26.4354 22.3361C26.5153 22.4178 26.5765 22.516 26.6147 22.6237C26.653 22.7314 26.6674 22.846 26.657 22.9598C26.657 23.3798 26.657 23.7898 26.657 24.2098C26.657 24.6298 26.667 24.9999 26.657 25.4099V25.4299ZM26.657 16.2499C26.657 16.7999 26.407 17.0798 25.857 17.0898C25.007 17.0898 24.147 17.0898 23.297 17.0898C23.1892 17.0956 23.0812 17.0786 22.9804 17.0399C22.8795 17.0013 22.7879 16.9419 22.7115 16.8655C22.6351 16.7891 22.5756 16.6974 22.5369 16.5966C22.4983 16.4957 22.4813 16.3878 22.487 16.2799C22.487 15.4299 22.487 14.5899 22.487 13.7399C22.4821 13.6265 22.5017 13.5135 22.5444 13.4084C22.5871 13.3034 22.6519 13.2087 22.7345 13.1309C22.817 13.0531 22.9153 12.9939 23.0228 12.9575C23.1302 12.9211 23.2442 12.9083 23.357 12.9199H25.797C25.9123 12.9109 26.0281 12.9269 26.1365 12.9669C26.245 13.0069 26.3434 13.07 26.4252 13.1517C26.5069 13.2335 26.5699 13.332 26.61 13.4404C26.65 13.5489 26.6661 13.6647 26.657 13.7799C26.657 14.1999 26.657 14.6199 26.657 15.0299C26.657 15.4399 26.667 15.8299 26.657 16.2299V16.2499Z" fill="#445971"/>
<path d="M6.15679 0.25V3.25C6.15679 3.52185 6.26477 3.78251 6.45699 3.97473C6.64922 4.16696 6.90994 4.27502 7.18178 4.27502C7.45363 4.27502 7.71435 4.16696 7.90658 3.97473C8.0988 3.78251 8.20678 3.52185 8.20678 3.25V0.319946H24.4968C24.4968 0.429946 24.4968 0.550044 24.4968 0.670044C24.4968 1.55004 24.4968 2.43006 24.4968 3.31006C24.4896 3.53715 24.56 3.75989 24.6963 3.94165C24.8326 4.12341 25.0268 4.25337 25.2468 4.31006C25.4489 4.36739 25.664 4.35952 25.8614 4.28772C26.0589 4.21592 26.2287 4.08381 26.3468 3.91003C26.4656 3.68464 26.5307 3.43479 26.5368 3.18005C26.5368 2.34005 26.5368 1.51004 26.5368 0.670044V0.300049H26.7368C27.8668 0.300049 29.0168 0.300005 30.1468 0.380005C30.841 0.459334 31.4927 0.755009 32.0096 1.22522C32.5265 1.69543 32.8823 2.31634 33.0268 3C33.0367 3.12313 33.0367 3.24686 33.0268 3.37V7H0.506797C0.506797 5.58 0.416797 4.16001 0.506797 2.76001C0.525473 2.40758 0.615152 2.06252 0.770469 1.74561C0.925786 1.42869 1.14353 1.14645 1.41064 0.915771C1.67774 0.685091 1.9887 0.51073 2.32485 0.403198C2.661 0.295666 3.01539 0.257215 3.36678 0.290039L6.15679 0.25Z" fill="#445971"/>
</svg>
