<svg width="33" height="31" viewBox="0 0 33 31" fill="none" xmlns="http://www.w3.org/2000/svg">
<path d="M0.0759448 9.13997V27.5999C0.0759448 27.7399 0.0759448 27.87 0.0759448 28.01C0.0622601 28.3961 0.130072 28.7807 0.27498 29.1389C0.419888 29.497 0.638625 29.8205 0.916948 30.0885C1.19527 30.3564 1.52693 30.5627 1.89031 30.6939C2.25369 30.8251 2.64063 30.8783 3.02593 30.8499H29.1359C29.3938 30.8498 29.6512 30.8298 29.9059 30.79C30.7196 30.6886 31.4668 30.2888 32.0026 29.668C32.5383 29.0473 32.8246 28.2498 32.8059 27.43V9.13997H0.0759448ZM10.0759 25.41C10.075 25.5269 10.0499 25.6423 10.0022 25.7491C9.95461 25.8559 9.88544 25.9517 9.79909 26.0306C9.71274 26.1094 9.61105 26.1696 9.50038 26.2073C9.38972 26.2451 9.27246 26.2596 9.15593 26.25H6.75594C6.6433 26.2572 6.53042 26.2404 6.4247 26.2009C6.31898 26.1614 6.22282 26.0999 6.14253 26.0206C6.06225 25.9412 5.99966 25.8458 5.95888 25.7406C5.9181 25.6353 5.90006 25.5227 5.90593 25.41V24.15C5.90593 23.74 5.90593 23.32 5.90593 22.9C5.89913 22.7956 5.91368 22.6908 5.94869 22.5922C5.9837 22.4936 6.03845 22.4032 6.10958 22.3265C6.1807 22.2498 6.26669 22.1883 6.36235 22.1459C6.45801 22.1036 6.56132 22.081 6.66594 22.0799C7.54594 22.0799 8.42593 22.0799 9.30593 22.0799C9.40599 22.0758 9.50587 22.0923 9.59929 22.1284C9.69271 22.1645 9.7777 22.2194 9.84899 22.2897C9.92027 22.3601 9.97631 22.4444 10.0136 22.5373C10.051 22.6302 10.0688 22.7298 10.0659 22.8299C10.0959 23.6999 10.0959 24.56 10.0659 25.41H10.0759ZM10.0759 16.2099C10.0787 16.3245 10.0581 16.4384 10.0152 16.5446C9.97235 16.6509 9.9082 16.7473 9.82671 16.8278C9.74522 16.9084 9.6481 16.9715 9.54134 17.0131C9.43458 17.0548 9.32046 17.074 9.20595 17.0699C8.36595 17.0699 7.53595 17.0699 6.70595 17.0699C6.59486 17.0746 6.48402 17.0556 6.38091 17.014C6.27779 16.9724 6.18476 16.9093 6.10805 16.8288C6.03134 16.7483 5.97273 16.6523 5.93614 16.5473C5.89956 16.4423 5.88584 16.3307 5.89592 16.2199V13.75C5.88841 13.6355 5.9056 13.5209 5.94631 13.4136C5.98701 13.3064 6.05029 13.2092 6.13185 13.1286C6.21341 13.048 6.31135 12.9858 6.41902 12.9464C6.5267 12.9069 6.6416 12.8911 6.75594 12.9H9.21593C9.32409 12.8902 9.4331 12.9031 9.53597 12.9379C9.63883 12.9727 9.7333 13.0287 9.81331 13.1021C9.89332 13.1755 9.95713 13.2648 10.0006 13.3643C10.0441 13.4638 10.0664 13.5714 10.0659 13.68C10.0959 14.52 10.0959 15.3699 10.0759 16.2099ZM13.9559 13.7399C13.9486 13.629 13.965 13.5178 14.0041 13.4138C14.0432 13.3097 14.1041 13.2153 14.1827 13.1367C14.2613 13.0581 14.3558 12.9972 14.4598 12.9581C14.5638 12.919 14.675 12.9026 14.7859 12.91H17.3159C17.418 12.9017 17.5207 12.9146 17.6176 12.9481C17.7144 12.9815 17.8032 13.0348 17.8784 13.1043C17.9536 13.1739 18.0136 13.2583 18.0545 13.3522C18.0953 13.4462 18.1163 13.5475 18.1159 13.65C18.1159 14.55 18.1159 15.4499 18.1159 16.3499C18.1269 16.4449 18.1164 16.5412 18.0852 16.6317C18.0541 16.7221 18.0031 16.8044 17.9359 16.8725C17.8687 16.9406 17.7872 16.9928 17.6972 17.0252C17.6072 17.0577 17.5111 17.0696 17.4159 17.06C16.5159 17.06 15.6159 17.06 14.7159 17.06C14.6104 17.0619 14.5057 17.0414 14.4086 17.0001C14.3116 16.9587 14.2243 16.8973 14.1526 16.8199C14.0808 16.7425 14.0262 16.6508 13.9924 16.5509C13.9585 16.4509 13.9461 16.345 13.9559 16.2399C13.9559 15.8199 13.9559 15.3999 13.9559 14.9899C13.9559 14.5799 13.9459 14.1499 13.9559 13.7399ZM18.1259 25.43C18.1259 25.99 17.8359 26.24 17.2759 26.25H14.8459C14.7278 26.2621 14.6085 26.2481 14.4964 26.2089C14.3842 26.1698 14.2821 26.1064 14.1972 26.0234C14.1122 25.9404 14.0466 25.8397 14.0049 25.7285C13.9632 25.6173 13.9465 25.4983 13.9559 25.38C13.9559 24.5666 13.9559 23.7566 13.9559 22.9499C13.9442 22.8362 13.9572 22.7213 13.9942 22.6131C14.0312 22.5049 14.0912 22.4062 14.1702 22.3234C14.2491 22.2407 14.345 22.176 14.4513 22.134C14.5576 22.092 14.6718 22.0735 14.7859 22.0799C15.6159 22.0799 16.4559 22.0799 17.2859 22.0799C17.3995 22.0707 17.5136 22.0865 17.6204 22.126C17.7272 22.1656 17.8241 22.2281 17.9041 22.3092C17.9842 22.3902 18.0455 22.4877 18.0838 22.5949C18.1222 22.7022 18.1365 22.8166 18.1259 22.93C18.1459 23.76 18.1459 24.6 18.1259 25.43ZM26.2859 25.43C26.3021 25.5423 26.2921 25.6567 26.2569 25.7646C26.2218 25.8725 26.1622 25.9709 26.083 26.0521C26.0037 26.1333 25.9068 26.1951 25.7999 26.2329C25.6929 26.2706 25.5786 26.2834 25.4659 26.27H22.9559C22.8457 26.2802 22.7344 26.2665 22.6299 26.2298C22.5254 26.1931 22.43 26.1345 22.3502 26.0576C22.2705 25.9807 22.2083 25.8875 22.1679 25.7844C22.1274 25.6812 22.1097 25.5705 22.1159 25.4599C22.1159 24.6099 22.1159 23.77 22.1159 22.92C22.1099 22.809 22.1276 22.698 22.168 22.5944C22.2083 22.4909 22.2704 22.3971 22.3499 22.3194C22.4295 22.2418 22.5247 22.182 22.6292 22.1441C22.7337 22.1063 22.8451 22.0912 22.9559 22.0999C23.7826 22.0999 24.6126 22.0999 25.4459 22.0999C25.56 22.0922 25.6743 22.1093 25.7811 22.1501C25.8879 22.1909 25.9845 22.2544 26.0643 22.3361C26.1442 22.4179 26.2054 22.516 26.2436 22.6237C26.2819 22.7314 26.2963 22.8461 26.2859 22.9599C26.2859 23.3799 26.2859 23.7899 26.2859 24.2099C26.2859 24.6299 26.2959 25 26.2859 25.41V25.43ZM26.2859 16.25C26.2859 16.7999 26.0359 17.0799 25.4859 17.0899C24.6359 17.0899 23.776 17.0899 22.926 17.0899C22.8181 17.0957 22.7102 17.0787 22.6093 17.04C22.5084 17.0013 22.4168 16.9419 22.3404 16.8656C22.264 16.7892 22.2045 16.6975 22.1658 16.5966C22.1272 16.4957 22.1102 16.3879 22.1159 16.28C22.1159 15.43 22.1159 14.5899 22.1159 13.7399C22.111 13.6266 22.1306 13.5136 22.1733 13.4085C22.216 13.3034 22.2808 13.2087 22.3634 13.1309C22.4459 13.0531 22.5442 12.994 22.6517 12.9576C22.7591 12.9212 22.8731 12.9084 22.9859 12.92H25.426C25.5412 12.911 25.657 12.927 25.7654 12.967C25.8739 13.007 25.9723 13.0701 26.0541 13.1518C26.1358 13.2335 26.1988 13.3321 26.2389 13.4405C26.2789 13.5489 26.295 13.6647 26.2859 13.78C26.2859 14.2 26.2859 14.62 26.2859 15.03C26.2859 15.44 26.2959 15.8299 26.2859 16.2299V16.25ZM32.6859 2.96992C32.5415 2.28626 32.1856 1.66535 31.6687 1.19514C31.1519 0.72493 30.5002 0.429255 29.8059 0.349926C28.6759 0.239926 27.5259 0.28997 26.3859 0.26997H26.1959V0.639965C26.1959 1.47996 26.1959 2.30997 26.1959 3.14997C26.191 3.40616 26.1223 3.65705 25.9959 3.87995C25.8778 4.05373 25.708 4.18584 25.5106 4.25764C25.3131 4.32944 25.0981 4.33732 24.8959 4.27998C24.6778 4.22138 24.4859 4.09059 24.3515 3.90901C24.2171 3.72742 24.1482 3.50574 24.1559 3.27998C24.1559 2.39998 24.1559 1.51996 24.1559 0.639965C24.1559 0.519965 24.1559 0.409989 24.1559 0.289989H7.83592V3.21992C7.83592 3.49177 7.72795 3.75255 7.53572 3.94477C7.3435 4.137 7.08278 4.24495 6.81093 4.24495C6.53908 4.24495 6.27836 4.137 6.08614 3.94477C5.89391 3.75255 5.78594 3.49177 5.78594 3.21992V0.219921H3.00594C2.65533 0.188519 2.302 0.228072 1.96703 0.336254C1.63205 0.444436 1.3223 0.619018 1.05629 0.849559C0.790282 1.0801 0.573473 1.36198 0.418779 1.67817C0.264085 1.99437 0.174681 2.33838 0.155931 2.68989C0.0459313 4.08989 0.155931 5.51 0.155931 6.93H32.7359V3.28999C32.7255 3.19236 32.7087 3.09546 32.6859 2.99995V2.96992Z" fill="#5D808F"/>
<path d="M0.0759448 9.13989V27.5999C0.0759448 27.7399 0.0759448 27.8699 0.0759448 28.0099C0.0622601 28.396 0.130072 28.7807 0.27498 29.1388C0.419888 29.4969 0.638625 29.8204 0.916948 30.0884C1.19527 30.3563 1.52693 30.5626 1.89031 30.6938C2.25369 30.825 2.64063 30.8782 3.02593 30.8499H29.1359C29.3938 30.8497 29.6512 30.8297 29.9059 30.7899C30.7196 30.6886 31.4668 30.2887 32.0026 29.668C32.5383 29.0472 32.8246 28.2497 32.8059 27.4299V9.13989H0.0759448ZM10.0759 25.4099C10.075 25.5268 10.0499 25.6422 10.0022 25.749C9.95461 25.8558 9.88544 25.9517 9.79909 26.0305C9.71274 26.1094 9.61105 26.1695 9.50038 26.2073C9.38972 26.245 9.27246 26.2595 9.15593 26.2499H6.75594C6.6433 26.2571 6.53042 26.2403 6.4247 26.2008C6.31898 26.1613 6.22282 26.0998 6.14253 26.0205C6.06225 25.9412 5.99966 25.8457 5.95888 25.7405C5.9181 25.6352 5.90006 25.5226 5.90593 25.4099V24.1499C5.90593 23.7399 5.90593 23.3199 5.90593 22.8999C5.89913 22.7955 5.91368 22.6908 5.94869 22.5922C5.9837 22.4936 6.03845 22.4032 6.10958 22.3264C6.1807 22.2497 6.26669 22.1883 6.36235 22.1459C6.45801 22.1035 6.56132 22.081 6.66594 22.0798C7.54594 22.0798 8.42593 22.0798 9.30593 22.0798C9.40599 22.0757 9.50587 22.0922 9.59929 22.1283C9.69271 22.1644 9.7777 22.2193 9.84899 22.2897C9.92027 22.36 9.97631 22.4443 10.0136 22.5372C10.051 22.6302 10.0688 22.7297 10.0659 22.8298C10.0959 23.6998 10.0959 24.5599 10.0659 25.4099H10.0759ZM10.0759 16.2098C10.0787 16.3244 10.0581 16.4383 10.0152 16.5446C9.97235 16.6508 9.9082 16.7472 9.82671 16.8278C9.74522 16.9083 9.6481 16.9714 9.54134 17.0131C9.43458 17.0547 9.32046 17.074 9.20595 17.0698C8.36595 17.0698 7.53595 17.0698 6.70595 17.0698C6.59486 17.0746 6.48402 17.0555 6.38091 17.0139C6.27779 16.9723 6.18476 16.9092 6.10805 16.8287C6.03134 16.7482 5.97273 16.6522 5.93614 16.5472C5.89956 16.4422 5.88584 16.3306 5.89592 16.2198V13.7499C5.88841 13.6354 5.9056 13.5208 5.94631 13.4136C5.98701 13.3064 6.05029 13.2092 6.13185 13.1285C6.21341 13.0479 6.31135 12.9857 6.41902 12.9463C6.5267 12.9068 6.6416 12.8911 6.75594 12.8999H9.21593C9.32409 12.8902 9.4331 12.9031 9.53597 12.9379C9.63883 12.9727 9.7333 13.0286 9.81331 13.1021C9.89332 13.1755 9.95713 13.2648 10.0006 13.3643C10.0441 13.4638 10.0664 13.5713 10.0659 13.6799C10.0959 14.5199 10.0959 15.3698 10.0759 16.2098ZM13.9559 13.7399C13.9486 13.629 13.965 13.5177 14.0041 13.4137C14.0432 13.3097 14.1041 13.2152 14.1827 13.1366C14.2613 13.058 14.3558 12.9971 14.4598 12.958C14.5638 12.9189 14.675 12.9025 14.7859 12.9099H17.3159C17.418 12.9016 17.5207 12.9145 17.6176 12.948C17.7144 12.9814 17.8032 13.0347 17.8784 13.1042C17.9536 13.1738 18.0136 13.2582 18.0545 13.3522C18.0953 13.4461 18.1163 13.5475 18.1159 13.6499C18.1159 14.5499 18.1159 15.4499 18.1159 16.3499C18.1269 16.4449 18.1164 16.5412 18.0852 16.6316C18.0541 16.722 18.0031 16.8043 17.9359 16.8724C17.8687 16.9405 17.7872 16.9927 17.6972 17.0251C17.6072 17.0576 17.5111 17.0695 17.4159 17.0599C16.5159 17.0599 15.6159 17.0599 14.7159 17.0599C14.6104 17.0618 14.5057 17.0414 14.4086 17C14.3116 16.9586 14.2243 16.8972 14.1526 16.8198C14.0808 16.7424 14.0262 16.6507 13.9924 16.5508C13.9585 16.4508 13.9461 16.3449 13.9559 16.2399C13.9559 15.8199 13.9559 15.3999 13.9559 14.9899C13.9559 14.5799 13.9459 14.1499 13.9559 13.7399ZM18.1259 25.4299C18.1259 25.9899 17.8359 26.2399 17.2759 26.2499H14.8459C14.7278 26.262 14.6085 26.248 14.4964 26.2089C14.3842 26.1697 14.2821 26.1063 14.1972 26.0233C14.1122 25.9403 14.0466 25.8396 14.0049 25.7284C13.9632 25.6172 13.9465 25.4983 13.9559 25.3799C13.9559 24.5665 13.9559 23.7565 13.9559 22.9498C13.9442 22.8361 13.9572 22.7212 13.9942 22.613C14.0312 22.5049 14.0912 22.4061 14.1702 22.3234C14.2491 22.2406 14.345 22.1759 14.4513 22.1339C14.5576 22.0919 14.6718 22.0734 14.7859 22.0798C15.6159 22.0798 16.4559 22.0798 17.2859 22.0798C17.3995 22.0706 17.5136 22.0864 17.6204 22.126C17.7272 22.1656 17.8241 22.2281 17.9041 22.3091C17.9842 22.3901 18.0455 22.4876 18.0838 22.5948C18.1222 22.7021 18.1365 22.8165 18.1259 22.9299C18.1459 23.7599 18.1459 24.5999 18.1259 25.4299ZM26.2859 25.4299C26.3021 25.5422 26.2921 25.6567 26.2569 25.7645C26.2218 25.8724 26.1622 25.9708 26.083 26.052C26.0037 26.1332 25.9068 26.195 25.7999 26.2328C25.6929 26.2706 25.5786 26.2833 25.4659 26.2699H22.9559C22.8457 26.2801 22.7344 26.2664 22.6299 26.2297C22.5254 26.1931 22.43 26.1344 22.3502 26.0575C22.2705 25.9806 22.2083 25.8874 22.1679 25.7843C22.1274 25.6812 22.1097 25.5704 22.1159 25.4598C22.1159 24.6098 22.1159 23.7699 22.1159 22.9199C22.1099 22.8089 22.1276 22.6979 22.168 22.5944C22.2083 22.4908 22.2704 22.397 22.3499 22.3193C22.4295 22.2417 22.5247 22.1819 22.6292 22.144C22.7337 22.1062 22.8451 22.0911 22.9559 22.0999C23.7826 22.0999 24.6126 22.0999 25.4459 22.0999C25.56 22.0921 25.6743 22.1092 25.7811 22.15C25.8879 22.1908 25.9845 22.2543 26.0643 22.3361C26.1442 22.4178 26.2054 22.516 26.2436 22.6237C26.2819 22.7314 26.2963 22.846 26.2859 22.9598C26.2859 23.3798 26.2859 23.7898 26.2859 24.2098C26.2859 24.6298 26.2959 24.9999 26.2859 25.4099V25.4299ZM26.2859 16.2499C26.2859 16.7999 26.0359 17.0798 25.4859 17.0898C24.6359 17.0898 23.776 17.0898 22.926 17.0898C22.8181 17.0956 22.7102 17.0786 22.6093 17.0399C22.5084 17.0013 22.4168 16.9419 22.3404 16.8655C22.264 16.7891 22.2045 16.6974 22.1658 16.5966C22.1272 16.4957 22.1102 16.3878 22.1159 16.2799C22.1159 15.4299 22.1159 14.5899 22.1159 13.7399C22.111 13.6265 22.1306 13.5135 22.1733 13.4084C22.216 13.3034 22.2808 13.2087 22.3634 13.1309C22.4459 13.0531 22.5442 12.9939 22.6517 12.9575C22.7591 12.9211 22.8731 12.9083 22.9859 12.9199H25.426C25.5412 12.9109 25.657 12.9269 25.7654 12.9669C25.8739 13.0069 25.9723 13.07 26.0541 13.1517C26.1358 13.2335 26.1988 13.332 26.2389 13.4404C26.2789 13.5489 26.295 13.6647 26.2859 13.7799C26.2859 14.1999 26.2859 14.6199 26.2859 15.0299C26.2859 15.4399 26.2959 15.8299 26.2859 16.2299V16.2499Z" fill="#5D808F"/>
<path d="M5.7857 0.25V3.25C5.7857 3.52185 5.89367 3.78251 6.0859 3.97473C6.27812 4.16696 6.53884 4.27502 6.81069 4.27502C7.08254 4.27502 7.34326 4.16696 7.53548 3.97473C7.72771 3.78251 7.83568 3.52185 7.83568 3.25V0.319946H24.1257C24.1257 0.429946 24.1257 0.550044 24.1257 0.670044C24.1257 1.55004 24.1257 2.43006 24.1257 3.31006C24.1185 3.53715 24.1889 3.75989 24.3252 3.94165C24.4615 4.12341 24.6557 4.25337 24.8757 4.31006C25.0778 4.36739 25.2929 4.35952 25.4903 4.28772C25.6878 4.21592 25.8576 4.08381 25.9757 3.91003C26.0946 3.68464 26.1596 3.43479 26.1657 3.18005C26.1657 2.34005 26.1657 1.51004 26.1657 0.670044V0.300049H26.3657C27.4957 0.300049 28.6457 0.300005 29.7757 0.380005C30.4699 0.459334 31.1216 0.755009 31.6385 1.22522C32.1554 1.69543 32.5112 2.31634 32.6557 3C32.6656 3.12313 32.6656 3.24686 32.6557 3.37V7H0.135703C0.135703 5.58 0.0457031 4.16001 0.135703 2.76001C0.154379 2.40758 0.244058 2.06252 0.399375 1.74561C0.554692 1.42869 0.772439 1.14645 1.03954 0.915771C1.30665 0.685091 1.61761 0.51073 1.95376 0.403198C2.2899 0.295666 2.64429 0.257215 2.99569 0.290039L5.7857 0.25Z" fill="#5D808F"/>
</svg>
