<svg width="1652" height="253" viewBox="0 0 1652 253" fill="none" xmlns="http://www.w3.org/2000/svg">
<path d="M62.6681 181.793V179.293H60.1681V181.793H62.6681ZM77.657 181.793H80.157V179.293H77.657V181.793ZM77.657 230.336V232.836H80.157V230.336H77.657ZM75.606 230.336L74.0215 232.27L74.7126 232.836H75.606V230.336ZM54.9896 215.084L53.5711 217.143L53.5729 217.144L54.9896 215.084ZM19.5947 204.829L21.2826 206.673L21.291 206.665L21.2994 206.657L19.5947 204.829ZM25.6428 229.389V231.889H31.4696L27.4546 227.667L25.6428 229.389ZM10.2332 229.389L8.13588 230.75L8.87498 231.889H10.2332V229.389ZM8.81308 191.786L10.673 193.456L10.6799 193.448L8.81308 191.786ZM62.6681 205.46L61.1189 207.422L65.1681 210.618V205.46H62.6681ZM62.6681 184.293H77.657V179.293H62.6681V184.293ZM75.1571 181.793V230.336H80.157V181.793H75.1571ZM77.657 227.836H75.606V232.836H77.657V227.836ZM77.1904 228.402C71.6841 223.891 64.7511 218.764 56.4063 213.024L53.5729 217.144C61.8474 222.835 68.6587 227.876 74.0215 232.27L77.1904 228.402ZM56.4081 213.026C48.0793 207.286 41.9647 203.519 38.2008 201.901L36.2257 206.493C39.4741 207.89 45.2104 211.382 53.5711 217.143L56.4081 213.026ZM38.2008 201.901C34.4315 200.28 30.6951 199.436 27.0102 199.436V204.436C29.9171 204.436 32.9826 205.099 36.2257 206.493L38.2008 201.901ZM27.0102 199.436C23.5141 199.436 20.4299 200.632 17.89 203L21.2994 206.657C22.8967 205.168 24.7562 204.436 27.0102 204.436V199.436ZM17.9068 202.984C15.3434 205.331 13.9917 208.286 13.9917 211.717H18.9917C18.9917 209.749 19.7087 208.113 21.2826 206.673L17.9068 202.984ZM13.9917 211.717C13.9917 218.03 17.5594 224.516 23.8311 231.112L27.4546 227.667C21.5248 221.43 18.9917 216.133 18.9917 211.717H13.9917ZM25.6428 226.889H10.2332V231.889H25.6428V226.889ZM12.3304 228.029C7.84898 221.121 5.73828 214.734 5.73828 208.826H0.738281C0.738281 215.96 3.29078 223.282 8.13588 230.75L12.3304 228.029ZM5.73828 208.826C5.73828 202.031 7.47958 197.011 10.673 193.456L6.95328 190.115C2.71368 194.835 0.738281 201.175 0.738281 208.826H5.73828ZM10.6799 193.448C13.8441 189.896 18.218 188.027 24.1176 188.027V183.027C17.0444 183.027 11.2153 185.33 6.94638 190.123L10.6799 193.448ZM24.1176 188.027C27.9776 188.027 32.9912 189.489 39.26 192.73C45.4935 195.953 52.7755 200.834 61.1189 207.422L64.2174 203.498C55.7311 196.797 48.1732 191.711 41.5565 188.29C34.9751 184.887 29.1283 183.027 24.1176 183.027V188.027ZM65.1681 205.46V181.793H60.1681V205.46H65.1681ZM13.2835 128.726L14.6449 130.823L14.6525 130.819L13.2835 128.726ZM68.6111 165.383L69.9928 167.467L70.0004 167.462L68.6111 165.383ZM13.1783 165.279L11.769 167.344L11.7714 167.345L13.1783 165.279ZM59.5126 140.508L60.3929 138.168L60.3854 138.165L59.5126 140.508ZM22.1191 140.508L23.0101 142.842L23.0247 142.838L23.0392 142.832L22.1191 140.508ZM22.0139 153.603L21.0438 155.907L21.0559 155.911L22.0139 153.603ZM59.46 153.603L60.3453 155.941L60.359 155.936L60.3727 155.931L59.46 153.603ZM5.73828 146.924C5.73828 140.013 8.63618 134.724 14.6449 130.823L11.9222 126.629C4.53738 131.423 0.738281 138.268 0.738281 146.924H5.73828ZM14.6525 130.819C20.801 126.795 29.3629 124.653 40.5792 124.653V119.653C28.7949 119.653 19.1597 121.892 11.9145 126.634L14.6525 130.819ZM40.5792 124.653C52.2858 124.653 61.0786 126.736 67.2206 130.627L69.8964 126.405C62.6448 121.811 52.7847 119.653 40.5792 119.653V124.653ZM67.2206 130.627C73.1982 134.414 76.1038 139.686 76.1038 146.714H81.104C81.104 137.963 77.312 131.103 69.8964 126.405L67.2206 130.627ZM76.1038 146.714C76.1038 153.871 73.1915 159.315 67.2219 163.306L70.0004 167.462C77.354 162.547 81.104 155.545 81.104 146.714H76.1038ZM67.2294 163.301C61.1285 167.346 52.4565 169.511 40.9473 169.511V174.511C52.9997 174.511 62.7702 172.256 69.9928 167.467L67.2294 163.301ZM40.9473 169.511C29.2943 169.511 20.6036 167.31 14.5853 163.212L11.7714 167.345C18.9363 172.224 28.7583 174.511 40.9473 174.511V169.511ZM14.5877 163.214C8.61078 159.134 5.73828 153.773 5.73828 146.924H0.738281C0.738281 155.503 4.49248 162.377 11.769 167.344L14.5877 163.214ZM67.3244 146.924C67.3244 144.907 66.7023 143.063 65.4222 141.517C64.1765 140.012 62.4293 138.934 60.3929 138.168L58.6322 142.848C60.1371 143.414 61.0458 144.071 61.5708 144.705C62.0613 145.298 62.3244 145.995 62.3244 146.924H67.3244ZM60.3854 138.165C56.334 136.656 49.2107 136.008 39.4221 136.008V141.008C49.2682 141.008 55.5386 141.695 58.6398 142.85L60.3854 138.165ZM39.4221 136.008C31.2348 136.008 25.0448 136.661 21.199 138.183L23.0392 142.832C25.9253 141.69 31.2707 141.008 39.4221 141.008V136.008ZM21.2281 138.172C19.2346 138.932 17.5303 140.028 16.3239 141.571C15.0932 143.144 14.5176 145.008 14.5176 147.029H19.5176C19.5176 146 19.7923 145.252 20.2621 144.651C20.7562 144.02 21.6026 143.379 23.0101 142.842L21.2281 138.172ZM14.5176 147.029C14.5176 149.018 15.085 150.853 16.2763 152.421C17.4443 153.957 19.0976 155.088 21.0438 155.907L22.9841 151.299C21.5994 150.716 20.7545 150.05 20.2571 149.395C19.7829 148.771 19.5176 148.021 19.5176 147.029H14.5176ZM21.0559 155.911C23.0417 156.735 25.7921 157.279 29.1439 157.628C32.5389 157.982 36.7258 158.154 41.6836 158.154V153.154C36.8241 153.154 32.8241 152.985 29.6625 152.655C26.4577 152.321 24.282 151.838 22.972 151.294L21.0559 155.911ZM41.6836 158.154C49.9613 158.154 56.2795 157.481 60.3453 155.941L58.5747 151.265C55.4177 152.461 49.885 153.154 41.6836 153.154V158.154ZM60.3727 155.931C62.4319 155.123 64.187 153.998 65.4325 152.447C66.7083 150.859 67.3244 148.977 67.3244 146.924H62.3244C62.3244 147.922 62.0465 148.678 61.5342 149.316C60.9916 149.992 60.0644 150.681 58.5473 151.276L60.3727 155.931ZM62.6681 62.9328V60.4328H60.1681V62.9328H62.6681ZM77.657 62.9328H80.157V60.4328H77.657V62.9328ZM77.657 111.476V113.976H80.157V111.476H77.657ZM75.606 111.476L74.0215 113.409L74.7126 113.976H75.606V111.476ZM54.9896 96.2245L53.5711 98.2825L53.5729 98.2835L54.9896 96.2245ZM19.5947 85.9685L21.2826 87.8125L21.291 87.8045L21.2994 87.7975L19.5947 85.9685ZM25.6428 110.53V113.03H31.4696L27.4546 108.806L25.6428 110.53ZM10.2332 110.53L8.13588 111.89L8.87498 113.03H10.2332V110.53ZM8.81308 72.9254L10.673 74.5961L10.6799 74.5883L8.81308 72.9254ZM62.6681 86.5995L61.1189 88.5615L65.1681 91.7585V86.5995H62.6681ZM62.6681 65.4328H77.657V60.4328H62.6681V65.4328ZM75.1571 62.9328V111.476H80.157V62.9328H75.1571ZM77.657 108.976H75.606V113.976H77.657V108.976ZM77.1904 109.543C71.6841 105.031 64.7511 99.9035 56.4063 94.1645L53.5729 98.2835C61.8474 103.975 68.6587 109.015 74.0215 113.409L77.1904 109.543ZM56.4081 94.1655C48.0793 88.4265 41.9647 84.6595 38.2008 83.0405L36.2257 87.6335C39.4741 89.0305 45.2104 92.5215 53.5711 98.2825L56.4081 94.1655ZM38.2008 83.0405C34.4315 81.4195 30.6951 80.5755 27.0102 80.5755V85.5755C29.9171 85.5755 32.9826 86.2395 36.2257 87.6335L38.2008 83.0405ZM27.0102 80.5755C23.5141 80.5755 20.4299 81.7725 17.89 84.1395L21.2994 87.7975C22.8967 86.3085 24.7562 85.5755 27.0102 85.5755V80.5755ZM17.9068 84.1245C15.3434 86.4705 13.9917 89.4265 13.9917 92.8585H18.9917C18.9917 90.8895 19.7087 89.2535 21.2826 87.8125L17.9068 84.1245ZM13.9917 92.8585C13.9917 99.1715 17.5594 105.656 23.8311 112.252L27.4546 108.806C21.5248 102.57 18.9917 97.2735 18.9917 92.8585H13.9917ZM25.6428 108.03H10.2332V113.03H25.6428V108.03ZM12.3304 109.168C7.84898 102.261 5.73828 95.8745 5.73828 89.9655H0.738281C0.738281 97.0995 3.29078 104.423 8.13588 111.89L12.3304 109.168ZM5.73828 89.9655C5.73828 83.1705 7.47958 78.1511 10.673 74.5961L6.95328 71.2548C2.71368 75.9744 0.738281 82.3155 0.738281 89.9655H5.73828ZM10.6799 74.5883C13.8441 71.0361 18.218 69.1669 24.1176 69.1669V64.1669C17.0444 64.1669 11.2153 66.47 6.94638 71.2626L10.6799 74.5883ZM24.1176 69.1669C27.9776 69.1669 32.9912 70.6295 39.26 73.8708C45.4935 77.0938 52.7755 81.9735 61.1189 88.5615L64.2174 84.6375C55.7311 77.9368 48.1732 72.8505 41.5565 69.4293C34.9751 66.0264 29.1283 64.1669 24.1176 64.1669V69.1669ZM65.1681 86.5995V62.9328H60.1681V86.5995H65.1681ZM45.9962 36.0053V38.5053H48.3982L48.4942 36.1052L45.9962 36.0053ZM33.0584 36.0053H30.5584V38.5053H33.0584V36.0053ZM30.4814 28.6949L28.6457 30.3921L28.6538 30.4008L28.6619 30.4094L30.4814 28.6949ZM19.3843 49.7846V52.2846H23.3904L21.63 48.686L19.3843 49.7846ZM6.44648 49.7846L4.15718 50.7893L4.81348 52.2846H6.44648V49.7846ZM8.28718 16.0201L10.2641 17.5505L10.2717 17.5405L8.28718 16.0201ZM38.2125 20.3853L36.0226 21.5913L38.5949 26.2619L40.5402 21.2973L38.2125 20.3853ZM72.766 14.6001L74.697 13.0123L74.69 13.0038L72.766 14.6001ZM74.4489 51.6254V54.1254H75.9896L76.6821 52.7491L74.4489 51.6254ZM60.1963 51.6254L58.1506 50.1882L55.3847 54.1254H60.1963V51.6254ZM63.3519 27.8008L65.2698 26.1973L65.2622 26.1881L65.2544 26.179L63.3519 27.8008ZM49.0992 27.6957L50.9133 29.4159L50.9206 29.4081L50.9279 29.4003L49.0992 27.6957ZM45.9962 33.5053H33.0584V38.5053H45.9962V33.5053ZM35.5584 36.0053C35.5584 32.464 34.547 29.3641 32.3008 26.9804L28.6619 30.4094C29.8518 31.6722 30.5584 33.4458 30.5584 36.0053H35.5584ZM32.317 26.9978C30.1585 24.663 27.456 23.4075 24.328 23.4075V28.4075C25.9684 28.4075 27.3682 29.0103 28.6457 30.3921L32.317 26.9978ZM24.328 23.4075C21.0956 23.4075 18.3638 24.7478 16.2954 27.2658L20.1591 30.4395C21.3164 29.0306 22.6518 28.4075 24.328 28.4075V23.4075ZM16.2954 27.2658C14.2495 29.7566 13.308 32.8396 13.308 36.3209H18.308C18.308 33.7715 18.9793 31.8757 20.1591 30.4395L16.2954 27.2658ZM13.308 36.3209C13.308 40.9062 14.6387 45.7732 17.1386 50.8832L21.63 48.686C19.3614 44.0488 18.308 39.94 18.308 36.3209H13.308ZM19.3843 47.2846H6.44648V52.2846H19.3843V47.2846ZM8.73568 48.78C6.75928 44.2763 5.73828 39.0361 5.73828 33.0075H0.738281C0.738281 39.6012 1.85608 45.5457 4.15718 50.7893L8.73568 48.78ZM5.73828 33.0075C5.73828 26.4331 7.31948 21.354 10.2641 17.5505L6.31038 14.4896C2.52318 19.3815 0.738281 25.6273 0.738281 33.0075H5.73828ZM10.2717 17.5405C13.1486 13.7854 16.7394 11.9986 21.225 11.9986V6.9986C15.122 6.9986 10.0876 9.5594 6.30268 14.4997L10.2717 17.5405ZM21.225 11.9986C27.5058 11.9986 32.3954 15.005 36.0226 21.5913L40.4024 19.1792C36.0355 11.2499 29.6001 6.9986 21.225 6.9986V11.9986ZM40.5402 21.2973C42.079 17.37 44.2154 14.5955 46.8664 12.7863C49.5173 10.9772 52.8782 10 57.0933 10V5C52.0871 5 47.6906 6.1704 44.0479 8.6564C40.4054 11.1422 37.7119 14.8103 35.8848 19.4732L40.5402 21.2973ZM57.0933 10C62.9224 10 67.4218 12.0739 70.8419 16.1963L74.69 13.0038C70.2562 7.6595 64.3073 5 57.0933 5V10ZM70.8349 16.1878C74.2611 20.3548 76.1038 26.0833 76.1038 33.6386H81.104C81.104 25.2759 79.055 18.312 74.697 13.0123L70.8349 16.1878ZM76.1038 33.6386C76.1038 39.7559 74.8009 45.3639 72.2157 50.5016L76.6821 52.7491C79.637 46.8774 81.104 40.4942 81.104 33.6386H76.1038ZM74.4489 49.1254H60.1963V54.1254H74.4489V49.1254ZM62.2419 53.0625C66.3125 47.2683 68.5341 41.6 68.5341 36.1105H63.5341C63.5341 40.228 61.8638 44.9029 58.1506 50.1882L62.2419 53.0625ZM68.5341 36.1105C68.5341 32.257 67.5117 28.8787 65.2698 26.1973L61.4339 29.4044C62.7683 31.0005 63.5341 33.162 63.5341 36.1105H68.5341ZM65.2544 26.179C62.9438 23.4685 59.8923 22.0927 56.3044 22.0927V27.0927C58.4667 27.0927 60.1135 27.8557 61.4493 29.4227L65.2544 26.179ZM56.3044 22.0927C52.7489 22.0927 49.6807 23.4056 47.2705 25.991L50.9279 29.4003C52.3746 27.8484 54.1097 27.0927 56.3044 27.0927V22.0927ZM47.2852 25.9754C44.8428 28.551 43.6564 31.952 43.4982 35.9054L48.4942 36.1052C48.6166 33.0463 49.4988 30.9075 50.9133 29.4159L47.2852 25.9754Z" fill="white"/>
<path d="M131.312 1.46289L131.102 233.493" stroke="white" stroke-width="2" stroke-miterlimit="10" stroke-linecap="round"/>
<path d="M231.331 8.16699C245.731 8.16699 260.581 11.317 271.681 20.617C284.281 31.267 286.831 44.617 286.831 53.917C286.831 76.867 271.531 88.717 263.431 93.217C252.781 98.917 241.531 100.117 230.431 100.117C224.281 100.117 207.931 98.917 203.131 98.917C198.331 98.917 191.581 98.917 184.381 99.517C183.181 99.667 181.981 98.617 181.981 97.567C181.981 95.917 184.231 92.317 187.981 91.267C192.781 89.917 195.331 90.367 196.531 83.617C197.581 77.767 197.581 70.267 197.581 50.467C197.581 29.917 197.881 27.367 196.831 22.117C196.531 20.467 196.231 18.217 189.181 16.717C185.581 15.967 183.481 14.317 183.481 12.217C183.481 9.96698 185.881 9.06699 190.231 9.06699L200.581 9.21698C205.831 9.36699 220.831 8.16699 231.331 8.16699ZM231.331 16.117C230.131 16.117 225.181 16.717 224.131 17.317C223.531 17.617 222.031 20.467 222.031 21.067C221.731 26.167 221.131 32.617 221.131 43.867V54.667C221.131 73.867 221.731 76.267 222.181 80.767C222.481 83.917 224.131 87.067 225.931 88.567C227.581 89.917 232.981 92.467 234.931 92.467C236.581 92.467 244.681 90.667 251.281 84.367C258.031 77.917 260.881 65.317 260.881 55.267C260.881 44.317 258.031 33.067 250.381 25.567C243.781 18.967 236.131 16.117 231.331 16.117ZM312.571 66.067V31.417C312.571 18.817 311.971 17.167 303.871 15.367C301.321 14.767 299.821 12.967 299.821 11.617C299.821 9.36699 303.421 8.61698 304.921 8.61698C307.771 8.61698 317.221 9.21698 323.821 9.21698C332.821 9.21698 340.171 8.76699 344.521 8.76699C346.771 8.76699 349.171 9.96698 349.171 11.917C349.171 13.717 346.621 14.917 345.421 15.217C338.071 16.867 337.621 18.817 337.021 26.617C336.571 33.067 336.421 46.117 336.421 56.317C336.421 72.667 336.721 78.517 336.721 80.467C337.021 87.517 337.771 90.517 345.271 92.317C348.121 93.067 350.071 94.567 350.071 96.667C350.071 98.467 346.771 99.367 344.971 99.367C343.471 99.367 328.921 98.917 323.821 98.917C318.571 98.917 307.621 99.517 304.921 99.517C302.971 99.517 299.821 99.067 299.821 96.667C299.821 95.017 302.221 93.067 304.321 92.467C310.321 90.517 311.221 88.717 311.971 84.217C312.421 81.067 312.571 78.367 312.571 66.067ZM356.077 11.917C356.077 10.417 358.627 8.31699 362.077 8.31699C367.027 8.31699 376.627 9.21698 382.177 9.21698C387.577 9.21698 394.327 9.06699 398.377 9.06699C401.827 9.06699 404.527 10.867 404.527 13.267C404.527 14.917 401.677 16.267 399.277 17.317C396.427 18.517 396.127 20.167 397.177 23.767C398.677 29.167 413.227 63.367 415.027 65.767C415.627 66.517 416.527 66.967 417.127 65.917C423.277 52.267 430.177 35.467 433.477 25.717C435.127 20.767 434.677 19.117 429.277 17.167C426.427 16.117 424.027 14.617 424.027 12.517C424.027 10.567 426.577 9.06699 430.177 9.06699C433.477 9.06699 437.827 9.21698 440.977 9.21698C446.677 9.21698 451.177 8.46699 456.127 8.46699C459.577 8.46699 462.127 10.117 462.127 11.767C462.127 14.167 460.177 15.517 456.877 16.417C448.777 18.817 446.527 23.017 443.227 29.167C438.727 37.567 426.727 63.817 421.177 78.517C418.027 86.767 415.327 93.967 414.427 95.917C413.677 97.717 408.877 102.067 407.077 102.067C404.227 102.067 402.727 100.567 401.677 97.417C400.927 95.167 397.927 87.517 395.077 80.017C392.077 72.067 377.677 38.767 370.627 23.917C368.827 20.017 367.027 18.667 361.177 16.267C358.477 15.217 356.077 13.717 356.077 11.917ZM501.714 9.21698H517.164C530.814 9.21698 532.914 9.21698 536.364 8.46699C538.014 8.16699 539.064 9.06699 539.514 9.81699C540.414 11.317 541.614 22.717 541.614 26.017C541.614 29.917 539.814 30.817 538.914 30.817C536.214 30.817 534.714 29.167 532.914 25.117C530.064 18.967 527.964 17.917 526.764 17.917C518.214 17.917 509.964 18.367 507.864 18.367C507.114 18.367 505.914 20.017 505.914 20.617C505.764 23.467 505.464 34.267 505.464 44.617C505.464 47.017 505.914 48.517 506.664 48.667C508.314 49.117 513.564 48.967 516.264 48.817C523.014 48.367 525.114 45.967 526.764 42.217C527.664 39.967 529.164 38.167 530.814 38.167C532.914 38.167 534.264 40.267 533.964 44.617C533.814 46.417 533.664 49.867 533.664 53.317C533.664 56.767 533.964 60.217 534.114 62.467C534.414 66.517 532.164 68.317 530.664 68.317C529.314 68.317 527.364 66.667 526.014 63.667C524.514 60.217 524.064 59.167 520.914 58.867C514.764 58.417 513.864 58.117 507.114 58.117C506.364 58.117 505.464 60.217 505.464 63.967C505.464 68.017 505.914 76.717 506.064 80.017C506.364 84.367 506.964 86.017 507.414 86.617C508.914 88.867 516.114 90.817 523.314 90.817C525.714 90.817 529.914 90.367 533.364 88.417C536.214 86.917 537.714 85.117 541.014 80.617C543.414 77.317 545.064 73.717 547.464 73.717C550.314 73.717 551.214 78.067 550.614 81.217C549.714 85.567 546.114 95.617 545.514 96.967C545.064 98.017 541.914 99.667 541.014 99.667C539.064 99.667 533.064 98.917 505.764 98.917C496.314 98.917 477.414 99.517 470.964 99.517C467.814 99.517 465.564 98.317 465.564 97.117C465.564 95.317 466.764 93.217 469.914 92.317C480.264 89.467 480.564 86.017 480.864 83.317C481.464 76.117 481.614 72.967 481.614 49.867C481.614 26.767 481.314 25.867 480.864 23.167C480.114 18.667 478.164 17.017 472.164 15.517C468.264 14.617 467.664 12.517 467.664 11.467C467.664 9.51699 470.664 8.46699 472.614 8.46699C475.164 8.46699 491.814 9.21698 501.714 9.21698ZM601.35 6.36699C609.75 6.36699 617.7 9.06699 623.55 10.417C624.45 10.567 625.5 12.967 625.5 14.617C625.5 16.417 626.55 24.667 626.55 26.917C626.55 32.017 624.15 34.117 622.05 34.117C620.4 34.117 619.05 31.567 618.6 30.367C615.3 21.367 607.5 13.267 598.95 13.267C592.65 13.267 586.95 19.117 586.95 24.817C586.95 31.567 591.9 36.517 600.45 40.867C619.35 50.467 630.45 58.867 630.45 73.117C630.45 85.417 622.05 92.317 616.65 95.617C610.8 99.067 600.9 101.617 594 101.617C581.25 101.617 573.9 98.917 570.45 97.567C569.4 97.117 567 95.767 566.25 94.117C563.7 88.717 563.25 80.917 563.25 77.317C563.25 74.467 564.75 70.867 567.15 70.867C568.8 70.867 570.75 72.667 572.85 76.567C578.4 86.767 586.65 94.117 595.95 94.117C601.35 94.117 608.1 90.367 608.1 83.467C608.1 78.967 608.4 74.017 593.1 65.767C573.45 55.267 565.8 47.167 565.8 33.217C565.8 23.467 572.7 15.517 579.9 11.467C585.6 8.31699 592.8 6.36699 601.35 6.36699ZM672.574 9.21698H718.474C726.874 9.21698 730.624 8.16699 731.224 7.41699C733.024 5.16699 734.674 3.81699 735.724 3.81699C736.624 3.81699 740.524 6.21699 740.524 8.61698C740.524 9.66699 738.724 19.117 738.724 29.167C738.724 32.167 736.474 35.467 733.624 35.467C731.524 35.467 730.324 31.717 730.024 30.367C727.774 20.467 725.224 20.167 719.824 19.567C717.574 19.267 717.124 18.817 704.374 18.817C703.624 18.817 703.174 20.017 703.024 21.517C702.874 23.617 701.974 43.867 701.974 53.317C701.974 62.467 701.824 72.367 702.274 77.767C703.174 88.717 705.724 89.167 711.874 91.417C714.574 92.467 717.124 93.817 717.124 95.617C717.124 98.917 713.524 99.667 710.524 99.667C709.024 99.667 692.524 98.917 683.524 98.917C679.174 98.917 671.074 99.367 667.024 99.367C663.874 99.367 660.874 98.017 660.874 95.317C660.874 94.117 662.374 92.017 665.824 91.117C675.124 88.567 677.674 86.617 677.674 78.367C677.674 75.217 677.974 55.267 677.974 45.517C677.974 36.217 678.124 26.317 678.124 21.667C678.124 20.467 676.624 18.817 676.174 18.817C672.424 18.817 666.874 18.817 662.974 18.967C658.774 19.117 654.724 19.117 650.674 30.367C649.774 32.917 647.974 34.867 646.324 34.867C644.374 34.867 642.124 32.167 642.124 28.567C642.124 23.917 643.774 17.167 643.774 8.91699C643.774 6.36699 646.024 4.11699 647.824 4.11699C648.274 4.11699 650.074 5.01699 651.124 5.76698C653.674 7.86698 655.924 8.76699 660.274 8.91699C666.424 9.21698 667.774 9.21698 672.574 9.21698ZM833.762 32.767C833.762 38.467 830.912 44.917 827.012 48.217C824.762 50.167 822.662 50.617 819.512 52.417C818.762 52.867 819.512 55.717 819.962 56.617C823.262 63.217 830.012 74.317 835.712 81.517C840.962 88.117 845.612 90.667 850.262 92.467C851.762 93.067 853.712 94.417 853.712 95.767C853.712 99.667 848.912 100.867 844.862 100.867C832.862 100.867 821.312 99.667 810.812 86.017C805.412 78.967 801.362 71.467 797.162 64.717C794.762 60.817 792.662 60.067 790.262 60.067C789.212 60.067 789.062 61.867 789.062 62.317C789.062 74.317 789.062 77.917 789.512 83.167C789.962 88.567 791.462 88.717 797.462 91.567C800.162 92.917 801.962 94.567 801.962 95.767C801.962 97.417 798.812 99.517 796.262 99.517C792.512 99.517 780.962 98.917 775.712 98.917C771.062 98.917 764.012 99.517 758.462 99.517C754.862 99.517 752.762 97.717 752.762 96.217C752.762 94.117 754.862 92.617 757.712 91.867C763.862 90.067 765.362 88.867 765.662 81.367C765.812 75.967 765.812 73.267 765.812 46.267C765.812 27.817 765.362 26.917 765.062 23.767C764.762 20.767 763.412 17.767 757.712 16.717C754.862 16.117 753.062 13.867 753.062 12.817C753.062 10.267 756.062 8.91699 759.662 8.91699C767.312 8.91699 769.862 9.21698 771.812 9.21698C781.712 9.21698 789.962 8.31699 800.462 8.31699C813.662 8.31699 820.562 11.167 824.162 13.867C830.612 18.817 833.762 24.817 833.762 32.767ZM810.662 35.317C810.662 25.867 804.212 16.567 793.412 16.567C792.812 16.567 790.562 17.167 789.662 17.767C789.212 18.067 788.762 18.817 788.762 20.167C788.762 24.367 789.062 38.317 789.062 48.367C789.062 48.967 789.662 50.767 790.262 51.067C792.362 51.967 794.312 52.417 796.862 52.417C800.162 52.417 805.562 48.967 806.462 48.367C807.362 47.767 810.662 42.517 810.662 35.317ZM891.363 9.21698H906.813C920.463 9.21698 922.563 9.21698 926.013 8.46699C927.663 8.16699 928.713 9.06699 929.163 9.81699C930.063 11.317 931.263 22.717 931.263 26.017C931.263 29.917 929.463 30.817 928.563 30.817C925.863 30.817 924.363 29.167 922.563 25.117C919.713 18.967 917.613 17.917 916.413 17.917C907.863 17.917 899.613 18.367 897.513 18.367C896.763 18.367 895.563 20.017 895.563 20.617C895.413 23.467 895.113 34.267 895.113 44.617C895.113 47.017 895.563 48.517 896.313 48.667C897.963 49.117 903.213 48.967 905.913 48.817C912.663 48.367 914.763 45.967 916.413 42.217C917.313 39.967 918.813 38.167 920.463 38.167C922.563 38.167 923.913 40.267 923.613 44.617C923.463 46.417 923.313 49.867 923.313 53.317C923.313 56.767 923.613 60.217 923.763 62.467C924.063 66.517 921.813 68.317 920.313 68.317C918.963 68.317 917.013 66.667 915.663 63.667C914.163 60.217 913.713 59.167 910.563 58.867C904.413 58.417 903.513 58.117 896.763 58.117C896.013 58.117 895.113 60.217 895.113 63.967C895.113 68.017 895.563 76.717 895.713 80.017C896.013 84.367 896.613 86.017 897.063 86.617C898.563 88.867 905.763 90.817 912.963 90.817C915.363 90.817 919.563 90.367 923.013 88.417C925.863 86.917 927.363 85.117 930.663 80.617C933.063 77.317 934.713 73.717 937.113 73.717C939.963 73.717 940.863 78.067 940.263 81.217C939.363 85.567 935.763 95.617 935.163 96.967C934.713 98.017 931.563 99.667 930.663 99.667C928.713 99.667 922.713 98.917 895.413 98.917C885.963 98.917 867.063 99.517 860.613 99.517C857.463 99.517 855.213 98.317 855.213 97.117C855.213 95.317 856.413 93.217 859.563 92.317C869.913 89.467 870.213 86.017 870.513 83.317C871.113 76.117 871.263 72.967 871.263 49.867C871.263 26.767 870.963 25.867 870.513 23.167C869.763 18.667 867.813 17.017 861.813 15.517C857.913 14.617 857.313 12.517 857.313 11.467C857.313 9.51699 860.313 8.46699 862.263 8.46699C864.813 8.46699 881.463 9.21698 891.363 9.21698ZM1008.14 6.21699C1010.84 6.21699 1011.74 10.717 1015.64 20.767C1023.74 42.517 1036.04 71.617 1040.09 80.767C1043.84 89.167 1045.94 89.317 1051.79 91.717C1055.24 93.217 1056.44 95.467 1056.44 97.117C1056.44 98.917 1054.04 99.667 1051.19 99.667C1046.54 99.667 1034.84 98.917 1027.49 98.917C1021.04 98.917 1016.99 99.667 1011.59 99.667C1007.39 99.667 1006.04 97.867 1006.04 96.817C1006.04 95.017 1007.84 92.917 1010.69 91.717C1015.94 89.467 1015.94 86.167 1015.19 83.617C1013.84 79.867 1013.69 79.117 1011.74 74.617C1011.59 74.167 1010.24 72.517 1007.84 72.217C1005.29 71.917 986.539 71.617 983.089 72.367C982.189 72.517 980.989 74.017 980.689 74.617C979.489 77.617 978.289 83.317 978.289 85.267C978.289 87.967 980.239 90.217 985.039 91.867C987.139 92.617 989.389 93.817 989.389 95.767C989.389 96.517 987.289 99.367 983.389 99.367C981.589 99.367 978.289 98.917 973.489 98.917C967.939 98.917 961.789 99.667 955.489 99.667C952.189 99.667 949.939 98.167 949.939 96.367C949.939 94.867 951.139 93.367 954.439 92.017C959.989 89.767 962.989 89.317 967.789 79.267C971.539 71.317 982.189 44.317 991.189 20.617C991.339 20.167 991.639 19.117 991.639 17.467C991.639 16.867 992.389 15.817 992.989 15.367C994.939 14.167 1002.44 9.21698 1004.09 7.86698C1004.99 6.96699 1007.39 6.21699 1008.14 6.21699ZM1005.14 62.167C1005.89 62.167 1006.79 60.817 1006.64 60.367C1004.39 53.017 998.089 36.967 996.739 34.567C996.139 33.517 995.239 33.967 994.789 34.567C992.389 39.517 985.939 57.967 985.489 60.217C985.339 61.117 986.089 62.317 987.139 62.317C989.089 62.317 1003.04 62.317 1005.14 62.167ZM1069.84 12.817C1069.84 11.167 1072.09 8.61698 1075.39 8.61698C1079.14 8.61698 1102.84 9.21698 1103.74 9.21698C1104.49 9.21698 1106.59 11.767 1106.74 12.067C1107.34 14.167 1109.29 17.767 1112.44 25.117C1115.74 32.767 1127.29 58.417 1130.74 62.617C1130.74 62.767 1132.09 63.367 1132.54 62.317C1137.49 51.667 1144.09 37.867 1149.04 26.467C1151.89 19.867 1152.94 15.667 1154.14 12.367C1154.44 11.467 1156.09 9.51699 1156.99 9.51699C1159.54 9.51699 1181.14 8.46699 1185.94 8.46699C1187.44 8.46699 1190.89 9.96698 1190.89 12.067C1190.89 13.867 1189.54 14.767 1186.54 15.667C1176.94 18.517 1176.64 19.267 1176.64 23.167C1176.64 44.467 1177.69 61.717 1178.29 77.317C1178.74 89.617 1181.89 90.517 1186.99 91.717C1191.64 92.767 1193.14 94.417 1193.14 96.217C1193.14 97.717 1190.29 99.817 1187.14 99.817C1185.34 99.817 1168.54 98.917 1161.34 98.917C1154.59 98.917 1150.84 99.517 1147.24 99.517C1143.49 99.517 1142.44 96.367 1142.44 95.317C1142.44 94.117 1144.84 92.917 1145.59 92.617C1152.94 90.067 1154.29 88.267 1154.44 80.017C1154.59 76.117 1154.29 49.117 1154.74 34.717C1154.74 33.967 1153.69 34.117 1152.94 35.467C1150.99 39.067 1137.94 70.417 1134.79 77.917C1133.14 81.817 1130.74 89.017 1128.64 94.117C1127.14 97.567 1124.44 99.967 1121.14 99.967C1119.79 99.967 1117.54 97.417 1116.79 94.867C1114.54 87.517 1111.54 80.317 1110.19 76.417C1103.59 57.817 1097.59 46.417 1093.84 37.267C1093.24 35.767 1092.04 36.067 1092.04 37.117C1090.84 54.367 1090.09 71.617 1090.09 79.267C1090.09 88.267 1091.14 88.717 1099.09 91.867C1102.39 93.217 1103.89 94.117 1103.89 96.067C1103.89 97.717 1101.79 99.517 1098.34 99.517C1096.24 99.517 1090.84 98.917 1086.49 98.917C1081.69 98.917 1070.74 99.817 1068.79 99.817C1065.94 99.817 1063.24 98.317 1063.24 96.367C1063.24 95.017 1064.59 93.517 1068.19 92.317C1075.69 89.917 1078.09 86.917 1079.14 80.617C1080.94 70.267 1084.39 35.317 1084.69 27.517C1084.99 19.417 1082.74 18.367 1075.24 16.267C1071.49 15.217 1069.84 14.017 1069.84 12.817ZM1243.39 6.36699C1251.79 6.36699 1259.74 9.06699 1265.59 10.417C1266.49 10.567 1267.54 12.967 1267.54 14.617C1267.54 16.417 1268.59 24.667 1268.59 26.917C1268.59 32.017 1266.19 34.117 1264.09 34.117C1262.44 34.117 1261.09 31.567 1260.64 30.367C1257.34 21.367 1249.54 13.267 1240.99 13.267C1234.69 13.267 1228.99 19.117 1228.99 24.817C1228.99 31.567 1233.94 36.517 1242.49 40.867C1261.39 50.467 1272.49 58.867 1272.49 73.117C1272.49 85.417 1264.09 92.317 1258.69 95.617C1252.84 99.067 1242.94 101.617 1236.04 101.617C1223.29 101.617 1215.94 98.917 1212.49 97.567C1211.44 97.117 1209.04 95.767 1208.29 94.117C1205.74 88.717 1205.29 80.917 1205.29 77.317C1205.29 74.467 1206.79 70.867 1209.19 70.867C1210.84 70.867 1212.79 72.667 1214.89 76.567C1220.44 86.767 1228.69 94.117 1237.99 94.117C1243.39 94.117 1250.14 90.367 1250.14 83.467C1250.14 78.967 1250.44 74.017 1235.14 65.767C1215.49 55.267 1207.84 47.167 1207.84 33.217C1207.84 23.467 1214.74 15.517 1221.94 11.467C1227.64 8.31699 1234.84 6.36699 1243.39 6.36699ZM1369.08 6.21699C1371.78 6.21699 1372.68 10.717 1376.58 20.767C1384.68 42.517 1396.98 71.617 1401.03 80.767C1404.78 89.167 1406.88 89.317 1412.73 91.717C1416.18 93.217 1417.38 95.467 1417.38 97.117C1417.38 98.917 1414.98 99.667 1412.13 99.667C1407.48 99.667 1395.78 98.917 1388.43 98.917C1381.98 98.917 1377.93 99.667 1372.53 99.667C1368.33 99.667 1366.98 97.867 1366.98 96.817C1366.98 95.017 1368.78 92.917 1371.63 91.717C1376.88 89.467 1376.88 86.167 1376.13 83.617C1374.78 79.867 1374.63 79.117 1372.68 74.617C1372.53 74.167 1371.18 72.517 1368.78 72.217C1366.23 71.917 1347.48 71.617 1344.03 72.367C1343.13 72.517 1341.93 74.017 1341.63 74.617C1340.43 77.617 1339.23 83.317 1339.23 85.267C1339.23 87.967 1341.18 90.217 1345.98 91.867C1348.08 92.617 1350.33 93.817 1350.33 95.767C1350.33 96.517 1348.23 99.367 1344.33 99.367C1342.53 99.367 1339.23 98.917 1334.43 98.917C1328.88 98.917 1322.73 99.667 1316.43 99.667C1313.13 99.667 1310.88 98.167 1310.88 96.367C1310.88 94.867 1312.08 93.367 1315.38 92.017C1320.93 89.767 1323.93 89.317 1328.73 79.267C1332.48 71.317 1343.13 44.317 1352.13 20.617C1352.28 20.167 1352.58 19.117 1352.58 17.467C1352.58 16.867 1353.33 15.817 1353.93 15.367C1355.88 14.167 1363.38 9.21698 1365.03 7.86698C1365.93 6.96699 1368.33 6.21699 1369.08 6.21699ZM1366.08 62.167C1366.83 62.167 1367.73 60.817 1367.58 60.367C1365.33 53.017 1359.03 36.967 1357.68 34.567C1357.08 33.517 1356.18 33.967 1355.73 34.567C1353.33 39.517 1346.88 57.967 1346.43 60.217C1346.28 61.117 1347.03 62.317 1348.08 62.317C1350.03 62.317 1363.98 62.317 1366.08 62.167ZM1421.81 10.867C1421.81 9.81699 1423.01 8.31699 1425.71 8.31699C1431.71 8.31699 1443.71 9.51699 1453.31 9.51699C1454.66 9.51699 1456.76 10.567 1457.21 11.167C1459.76 14.617 1464.41 19.567 1471.61 27.367C1479.56 35.917 1503.41 61.117 1506.71 62.917C1507.16 63.067 1508.36 62.767 1508.51 62.317C1509.41 58.267 1509.41 43.867 1508.96 33.517C1508.51 23.317 1509.26 19.417 1497.56 16.717C1493.96 15.817 1492.61 13.267 1492.61 12.367C1492.61 11.317 1494.26 9.06699 1497.86 9.06699C1503.26 9.06699 1502.96 9.21698 1506.86 9.21698C1513.01 9.21698 1524.41 8.46699 1527.41 8.46699C1530.56 8.46699 1532.66 9.36699 1532.66 11.917C1532.66 13.567 1531.46 14.617 1526.66 16.717C1520.51 19.417 1519.61 21.067 1519.46 23.017C1519.16 29.917 1517.96 60.817 1517.96 70.867C1517.96 77.467 1518.56 84.067 1518.56 90.967C1518.56 97.267 1517.36 101.917 1514.66 101.917C1509.86 101.917 1505.96 99.217 1503.11 95.917C1497.56 89.617 1490.51 81.367 1486.31 76.717C1480.61 70.117 1457.21 45.217 1450.61 38.017C1450.16 37.567 1449.11 38.467 1449.11 39.067C1448.96 42.367 1448.66 42.817 1448.66 49.267C1448.66 56.017 1448.96 69.517 1449.11 73.567C1449.56 85.267 1451.51 88.867 1456.76 90.967C1461.86 92.917 1463.51 94.567 1463.51 96.667C1463.51 98.467 1461.86 99.517 1458.41 99.517C1454.21 99.517 1449.11 98.917 1442.06 98.917C1435.01 98.917 1431.26 99.517 1429.31 99.517C1424.81 99.517 1423.31 97.867 1423.31 96.367C1423.31 94.417 1425.11 93.067 1427.81 92.167C1434.71 89.917 1437.41 89.467 1438.16 79.417C1438.91 69.367 1440.11 33.517 1440.11 28.717C1440.11 27.817 1439.36 24.667 1437.41 22.417C1434.26 18.817 1431.56 17.017 1428.11 16.267C1424.66 15.517 1421.81 13.717 1421.81 10.867ZM1587.04 8.16699C1601.44 8.16699 1616.29 11.317 1627.39 20.617C1639.99 31.267 1642.54 44.617 1642.54 53.917C1642.54 76.867 1627.24 88.717 1619.14 93.217C1608.49 98.917 1597.24 100.117 1586.14 100.117C1579.99 100.117 1563.64 98.917 1558.84 98.917C1554.04 98.917 1547.29 98.917 1540.09 99.517C1538.89 99.667 1537.69 98.617 1537.69 97.567C1537.69 95.917 1539.94 92.317 1543.69 91.267C1548.49 89.917 1551.04 90.367 1552.24 83.617C1553.29 77.767 1553.29 70.267 1553.29 50.467C1553.29 29.917 1553.59 27.367 1552.54 22.117C1552.24 20.467 1551.94 18.217 1544.89 16.717C1541.29 15.967 1539.19 14.317 1539.19 12.217C1539.19 9.96698 1541.59 9.06699 1545.94 9.06699L1556.29 9.21698C1561.54 9.36699 1576.54 8.16699 1587.04 8.16699ZM1587.04 16.117C1585.84 16.117 1580.89 16.717 1579.84 17.317C1579.24 17.617 1577.74 20.467 1577.74 21.067C1577.44 26.167 1576.84 32.617 1576.84 43.867V54.667C1576.84 73.867 1577.44 76.267 1577.89 80.767C1578.19 83.917 1579.84 87.067 1581.64 88.567C1583.29 89.917 1588.69 92.467 1590.64 92.467C1592.29 92.467 1600.39 90.667 1606.99 84.367C1613.74 77.917 1616.59 65.317 1616.59 55.267C1616.59 44.317 1613.74 33.067 1606.09 25.567C1599.49 18.967 1591.84 16.117 1587.04 16.117ZM245.131 131.217C252.031 131.217 258.931 132.717 262.981 133.767C266.731 134.817 272.131 136.467 273.331 136.467C274.081 136.467 275.881 138.417 275.881 139.317C275.881 144.717 277.381 152.367 277.381 156.117C277.381 160.317 274.531 162.717 272.581 162.717C271.381 162.717 270.631 161.517 269.431 158.217C267.181 152.067 266.281 148.767 260.731 144.717C256.081 141.267 250.831 138.717 244.381 138.717C237.931 138.717 229.681 142.467 224.731 148.467C218.281 156.117 215.281 167.517 215.281 176.517C215.281 187.917 219.031 198.117 223.381 204.267C228.781 211.917 238.681 217.467 247.681 217.467C251.431 217.467 258.181 215.067 261.181 213.417C262.381 212.667 265.081 209.817 268.831 203.817C271.681 199.317 273.481 197.517 274.981 197.517C277.831 197.517 278.131 200.367 277.981 203.517C277.981 204.867 275.131 214.917 275.131 217.767C275.131 218.217 273.931 220.317 273.481 220.617C268.231 223.167 254.881 226.617 244.531 226.617C227.881 226.617 210.181 221.667 199.531 209.967C192.931 202.767 188.281 192.867 188.281 179.517C188.281 163.467 195.481 149.967 208.681 140.817C215.431 136.167 229.531 131.217 245.131 131.217ZM346.822 131.217C378.022 131.217 399.022 152.217 399.022 179.067C399.022 197.817 387.922 212.517 373.822 220.317C367.372 223.917 356.872 226.617 347.272 226.617C315.622 226.617 294.922 205.017 294.922 179.067C294.922 167.517 299.272 156.117 308.572 146.817C318.322 137.067 332.722 131.217 346.822 131.217ZM344.122 139.017C337.072 139.017 330.772 145.017 330.622 145.167C324.322 152.067 321.622 162.267 321.622 176.367C321.622 196.767 330.922 218.967 351.172 218.967C356.272 218.967 362.272 214.467 363.022 213.867C367.822 209.367 371.722 199.917 371.722 180.117C371.722 164.367 363.922 139.017 344.122 139.017ZM408.729 135.867C408.729 134.817 409.929 133.317 412.629 133.317C418.629 133.317 430.629 134.517 440.229 134.517C441.579 134.517 443.679 135.567 444.129 136.167C446.679 139.617 451.329 144.567 458.529 152.367C466.479 160.917 490.329 186.117 493.629 187.917C494.079 188.067 495.279 187.767 495.429 187.317C496.329 183.267 496.329 168.867 495.879 158.517C495.429 148.317 496.179 144.417 484.479 141.717C480.879 140.817 479.529 138.267 479.529 137.367C479.529 136.317 481.179 134.067 484.779 134.067C490.179 134.067 489.879 134.217 493.779 134.217C499.929 134.217 511.329 133.467 514.329 133.467C517.479 133.467 519.579 134.367 519.579 136.917C519.579 138.567 518.379 139.617 513.579 141.717C507.429 144.417 506.529 146.067 506.379 148.017C506.079 154.917 504.879 185.817 504.879 195.867C504.879 202.467 505.479 209.067 505.479 215.967C505.479 222.267 504.279 226.917 501.579 226.917C496.779 226.917 492.879 224.217 490.029 220.917C484.479 214.617 477.429 206.367 473.229 201.717C467.529 195.117 444.129 170.217 437.529 163.017C437.079 162.567 436.029 163.467 436.029 164.067C435.879 167.367 435.579 167.817 435.579 174.267C435.579 181.017 435.879 194.517 436.029 198.567C436.479 210.267 438.429 213.867 443.679 215.967C448.779 217.917 450.429 219.567 450.429 221.667C450.429 223.467 448.779 224.517 445.329 224.517C441.129 224.517 436.029 223.917 428.979 223.917C421.929 223.917 418.179 224.517 416.229 224.517C411.729 224.517 410.229 222.867 410.229 221.367C410.229 219.417 412.029 218.067 414.729 217.167C421.629 214.917 424.329 214.467 425.079 204.417C425.829 194.367 427.029 158.517 427.029 153.717C427.029 152.817 426.279 149.667 424.329 147.417C421.179 143.817 418.479 142.017 415.029 141.267C411.579 140.517 408.729 138.717 408.729 135.867ZM524.158 135.867C524.158 134.817 525.358 133.317 528.058 133.317C534.058 133.317 546.058 134.517 555.658 134.517C557.008 134.517 559.108 135.567 559.558 136.167C562.108 139.617 566.758 144.567 573.958 152.367C581.908 160.917 605.758 186.117 609.058 187.917C609.508 188.067 610.708 187.767 610.858 187.317C611.758 183.267 611.758 168.867 611.308 158.517C610.858 148.317 611.608 144.417 599.908 141.717C596.308 140.817 594.958 138.267 594.958 137.367C594.958 136.317 596.608 134.067 600.208 134.067C605.608 134.067 605.308 134.217 609.208 134.217C615.358 134.217 626.758 133.467 629.758 133.467C632.908 133.467 635.008 134.367 635.008 136.917C635.008 138.567 633.808 139.617 629.008 141.717C622.858 144.417 621.958 146.067 621.808 148.017C621.508 154.917 620.308 185.817 620.308 195.867C620.308 202.467 620.908 209.067 620.908 215.967C620.908 222.267 619.708 226.917 617.008 226.917C612.208 226.917 608.308 224.217 605.458 220.917C599.908 214.617 592.858 206.367 588.658 201.717C582.958 195.117 559.558 170.217 552.958 163.017C552.508 162.567 551.458 163.467 551.458 164.067C551.308 167.367 551.008 167.817 551.008 174.267C551.008 181.017 551.308 194.517 551.458 198.567C551.908 210.267 553.858 213.867 559.108 215.967C564.208 217.917 565.858 219.567 565.858 221.667C565.858 223.467 564.208 224.517 560.758 224.517C556.558 224.517 551.458 223.917 544.408 223.917C537.358 223.917 533.608 224.517 531.658 224.517C527.158 224.517 525.658 222.867 525.658 221.367C525.658 219.417 527.458 218.067 530.158 217.167C537.058 214.917 539.758 214.467 540.508 204.417C541.258 194.367 542.458 158.517 542.458 153.717C542.458 152.817 541.708 149.667 539.758 147.417C536.608 143.817 533.908 142.017 530.458 141.267C527.008 140.517 524.158 138.717 524.158 135.867ZM675.738 134.217H691.188C704.838 134.217 706.938 134.217 710.388 133.467C712.038 133.167 713.088 134.067 713.538 134.817C714.438 136.317 715.638 147.717 715.638 151.017C715.638 154.917 713.838 155.817 712.938 155.817C710.238 155.817 708.738 154.167 706.938 150.117C704.088 143.967 701.988 142.917 700.788 142.917C692.238 142.917 683.988 143.367 681.888 143.367C681.138 143.367 679.938 145.017 679.938 145.617C679.788 148.467 679.488 159.267 679.488 169.617C679.488 172.017 679.938 173.517 680.688 173.667C682.338 174.117 687.588 173.967 690.288 173.817C697.038 173.367 699.138 170.967 700.788 167.217C701.688 164.967 703.188 163.167 704.838 163.167C706.938 163.167 708.288 165.267 707.988 169.617C707.838 171.417 707.688 174.867 707.688 178.317C707.688 181.767 707.988 185.217 708.138 187.467C708.438 191.517 706.188 193.317 704.688 193.317C703.338 193.317 701.388 191.667 700.038 188.667C698.538 185.217 698.088 184.167 694.938 183.867C688.788 183.417 687.888 183.117 681.138 183.117C680.388 183.117 679.488 185.217 679.488 188.967C679.488 193.017 679.938 201.717 680.088 205.017C680.388 209.367 680.988 211.017 681.438 211.617C682.938 213.867 690.138 215.817 697.338 215.817C699.738 215.817 703.938 215.367 707.388 213.417C710.238 211.917 711.738 210.117 715.038 205.617C717.438 202.317 719.088 198.717 721.488 198.717C724.338 198.717 725.238 203.067 724.638 206.217C723.738 210.567 720.138 220.617 719.538 221.967C719.088 223.017 715.938 224.667 715.038 224.667C713.088 224.667 707.088 223.917 679.788 223.917C670.338 223.917 651.438 224.517 644.988 224.517C641.838 224.517 639.588 223.317 639.588 222.117C639.588 220.317 640.788 218.217 643.938 217.317C654.288 214.467 654.588 211.017 654.888 208.317C655.488 201.117 655.638 197.967 655.638 174.867C655.638 151.767 655.338 150.867 654.888 148.167C654.138 143.667 652.188 142.017 646.188 140.517C642.288 139.617 641.688 137.517 641.688 136.467C641.688 134.517 644.688 133.467 646.638 133.467C649.188 133.467 665.838 134.217 675.738 134.217ZM794.008 131.217C800.908 131.217 807.808 132.717 811.858 133.767C815.608 134.817 821.008 136.467 822.208 136.467C822.958 136.467 824.758 138.417 824.758 139.317C824.758 144.717 826.258 152.367 826.258 156.117C826.258 160.317 823.408 162.717 821.458 162.717C820.258 162.717 819.508 161.517 818.308 158.217C816.058 152.067 815.158 148.767 809.608 144.717C804.958 141.267 799.708 138.717 793.258 138.717C786.808 138.717 778.558 142.467 773.608 148.467C767.158 156.117 764.158 167.517 764.158 176.517C764.158 187.917 767.908 198.117 772.258 204.267C777.658 211.917 787.558 217.467 796.558 217.467C800.308 217.467 807.058 215.067 810.058 213.417C811.258 212.667 813.958 209.817 817.708 203.817C820.558 199.317 822.358 197.517 823.858 197.517C826.708 197.517 827.008 200.367 826.858 203.517C826.858 204.867 824.008 214.917 824.008 217.767C824.008 218.217 822.808 220.317 822.358 220.617C817.108 223.167 803.758 226.617 793.408 226.617C776.758 226.617 759.058 221.667 748.408 209.967C741.808 202.767 737.158 192.867 737.158 179.517C737.158 163.467 744.358 149.967 757.558 140.817C764.308 136.167 778.408 131.217 794.008 131.217ZM870.914 134.217H916.814C925.214 134.217 928.964 133.167 929.564 132.417C931.364 130.167 933.014 128.817 934.064 128.817C934.964 128.817 938.864 131.217 938.864 133.617C938.864 134.667 937.064 144.117 937.064 154.167C937.064 157.167 934.814 160.467 931.964 160.467C929.864 160.467 928.664 156.717 928.364 155.367C926.114 145.467 923.564 145.167 918.164 144.567C915.914 144.267 915.464 143.817 902.714 143.817C901.964 143.817 901.514 145.017 901.364 146.517C901.214 148.617 900.314 168.867 900.314 178.317C900.314 187.467 900.164 197.367 900.614 202.767C901.514 213.717 904.064 214.167 910.214 216.417C912.914 217.467 915.464 218.817 915.464 220.617C915.464 223.917 911.864 224.667 908.864 224.667C907.364 224.667 890.864 223.917 881.864 223.917C877.514 223.917 869.414 224.367 865.364 224.367C862.214 224.367 859.214 223.017 859.214 220.317C859.214 219.117 860.714 217.017 864.164 216.117C873.464 213.567 876.014 211.617 876.014 203.367C876.014 200.217 876.314 180.267 876.314 170.517C876.314 161.217 876.464 151.317 876.464 146.667C876.464 145.467 874.964 143.817 874.514 143.817C870.764 143.817 865.214 143.817 861.314 143.967C857.114 144.117 853.064 144.117 849.014 155.367C848.114 157.917 846.314 159.867 844.664 159.867C842.714 159.867 840.464 157.167 840.464 153.567C840.464 148.917 842.114 142.167 842.114 133.917C842.114 131.367 844.364 129.117 846.164 129.117C846.614 129.117 848.414 130.017 849.464 130.767C852.014 132.867 854.264 133.767 858.614 133.917C864.764 134.217 866.114 134.217 870.914 134.217ZM963.402 191.067V156.417C963.402 143.817 962.802 142.167 954.702 140.367C952.152 139.767 950.652 137.967 950.652 136.617C950.652 134.367 954.252 133.617 955.752 133.617C958.602 133.617 968.052 134.217 974.652 134.217C983.652 134.217 991.002 133.767 995.352 133.767C997.602 133.767 1000 134.967 1000 136.917C1000 138.717 997.452 139.917 996.252 140.217C988.902 141.867 988.452 143.817 987.852 151.617C987.402 158.067 987.252 171.117 987.252 181.317C987.252 197.667 987.552 203.517 987.552 205.467C987.852 212.517 988.602 215.517 996.102 217.317C998.952 218.067 1000.9 219.567 1000.9 221.667C1000.9 223.467 997.602 224.367 995.802 224.367C994.302 224.367 979.752 223.917 974.652 223.917C969.402 223.917 958.452 224.517 955.752 224.517C953.802 224.517 950.652 224.067 950.652 221.667C950.652 220.017 953.052 218.067 955.152 217.467C961.152 215.517 962.052 213.717 962.802 209.217C963.252 206.067 963.402 203.367 963.402 191.067ZM1064.89 131.217C1096.09 131.217 1117.09 152.217 1117.09 179.067C1117.09 197.817 1105.99 212.517 1091.89 220.317C1085.44 223.917 1074.94 226.617 1065.34 226.617C1033.69 226.617 1012.99 205.017 1012.99 179.067C1012.99 167.517 1017.34 156.117 1026.64 146.817C1036.39 137.067 1050.79 131.217 1064.89 131.217ZM1062.19 139.017C1055.14 139.017 1048.84 145.017 1048.69 145.167C1042.39 152.067 1039.69 162.267 1039.69 176.367C1039.69 196.767 1048.99 218.967 1069.24 218.967C1074.34 218.967 1080.34 214.467 1081.09 213.867C1085.89 209.367 1089.79 199.917 1089.79 180.117C1089.79 164.367 1081.99 139.017 1062.19 139.017ZM1126.79 135.867C1126.79 134.817 1127.99 133.317 1130.69 133.317C1136.69 133.317 1148.69 134.517 1158.29 134.517C1159.64 134.517 1161.74 135.567 1162.19 136.167C1164.74 139.617 1169.39 144.567 1176.59 152.367C1184.54 160.917 1208.39 186.117 1211.69 187.917C1212.14 188.067 1213.34 187.767 1213.49 187.317C1214.39 183.267 1214.39 168.867 1213.94 158.517C1213.49 148.317 1214.24 144.417 1202.54 141.717C1198.94 140.817 1197.59 138.267 1197.59 137.367C1197.59 136.317 1199.24 134.067 1202.84 134.067C1208.24 134.067 1207.94 134.217 1211.84 134.217C1217.99 134.217 1229.39 133.467 1232.39 133.467C1235.54 133.467 1237.64 134.367 1237.64 136.917C1237.64 138.567 1236.44 139.617 1231.64 141.717C1225.49 144.417 1224.59 146.067 1224.44 148.017C1224.14 154.917 1222.94 185.817 1222.94 195.867C1222.94 202.467 1223.54 209.067 1223.54 215.967C1223.54 222.267 1222.34 226.917 1219.64 226.917C1214.84 226.917 1210.94 224.217 1208.09 220.917C1202.54 214.617 1195.49 206.367 1191.29 201.717C1185.59 195.117 1162.19 170.217 1155.59 163.017C1155.14 162.567 1154.09 163.467 1154.09 164.067C1153.94 167.367 1153.64 167.817 1153.64 174.267C1153.64 181.017 1153.94 194.517 1154.09 198.567C1154.54 210.267 1156.49 213.867 1161.74 215.967C1166.84 217.917 1168.49 219.567 1168.49 221.667C1168.49 223.467 1166.84 224.517 1163.39 224.517C1159.19 224.517 1154.09 223.917 1147.04 223.917C1139.99 223.917 1136.24 224.517 1134.29 224.517C1129.79 224.517 1128.29 222.867 1128.29 221.367C1128.29 219.417 1130.09 218.067 1132.79 217.167C1139.69 214.917 1142.39 214.467 1143.14 204.417C1143.89 194.367 1145.09 158.517 1145.09 153.717C1145.09 152.817 1144.34 149.667 1142.39 147.417C1139.24 143.817 1136.54 142.017 1133.09 141.267C1129.64 140.517 1126.79 138.717 1126.79 135.867ZM1285.72 131.367C1294.12 131.367 1302.07 134.067 1307.92 135.417C1308.82 135.567 1309.87 137.967 1309.87 139.617C1309.87 141.417 1310.92 149.667 1310.92 151.917C1310.92 157.017 1308.52 159.117 1306.42 159.117C1304.77 159.117 1303.42 156.567 1302.97 155.367C1299.67 146.367 1291.87 138.267 1283.32 138.267C1277.02 138.267 1271.32 144.117 1271.32 149.817C1271.32 156.567 1276.27 161.517 1284.82 165.867C1303.72 175.467 1314.82 183.867 1314.82 198.117C1314.82 210.417 1306.42 217.317 1301.02 220.617C1295.17 224.067 1285.27 226.617 1278.37 226.617C1265.62 226.617 1258.27 223.917 1254.82 222.567C1253.77 222.117 1251.37 220.767 1250.62 219.117C1248.07 213.717 1247.62 205.917 1247.62 202.317C1247.62 199.467 1249.12 195.867 1251.52 195.867C1253.17 195.867 1255.12 197.667 1257.22 201.567C1262.77 211.767 1271.02 219.117 1280.32 219.117C1285.72 219.117 1292.47 215.367 1292.47 208.467C1292.47 203.967 1292.77 199.017 1277.47 190.767C1257.82 180.267 1250.17 172.167 1250.17 158.217C1250.17 148.467 1257.07 140.517 1264.27 136.467C1269.97 133.317 1277.17 131.367 1285.72 131.367Z" fill="white"/>
</svg>
