<svg width="1276" height="266" viewBox="0 0 1276 266" fill="none" xmlns="http://www.w3.org/2000/svg">
<path d="M61.9767 194.88V192.38H59.4767V194.88H61.9767ZM76.9656 194.88H79.4656V192.38H76.9656V194.88ZM76.9656 243.423V245.923H79.4656V243.423H76.9656ZM74.9146 243.423L73.3301 245.357L74.0212 245.923H74.9146V243.423ZM54.2982 228.171L52.8797 230.23L52.8815 230.231L54.2982 228.171ZM18.9033 217.916L20.5912 219.76L20.5996 219.752L20.608 219.744L18.9033 217.916ZM24.9514 242.476V244.976H30.7782L26.7632 240.754L24.9514 242.476ZM9.54177 242.476L7.44447 243.837L8.18357 244.976H9.54177V242.476ZM8.12167 204.873L9.98158 206.543L9.98848 206.535L8.12167 204.873ZM61.9767 218.547L60.4275 220.509L64.4767 223.706V218.547H61.9767ZM61.9767 197.38H76.9656V192.38H61.9767V197.38ZM74.4657 194.88V243.423H79.4656V194.88H74.4657ZM76.9656 240.923H74.9146V245.923H76.9656V240.923ZM76.499 241.489C70.9927 236.978 64.0597 231.851 55.7149 226.111L52.8815 230.231C61.156 235.922 67.9673 240.963 73.3301 245.357L76.499 241.489ZM55.7167 226.113C47.3879 220.373 41.2733 216.606 37.5094 214.988L35.5343 219.581C38.7827 220.978 44.519 224.469 52.8797 230.23L55.7167 226.113ZM37.5094 214.988C33.7401 213.367 30.0037 212.523 26.3188 212.523V217.523C29.2257 217.523 32.2912 218.187 35.5343 219.581L37.5094 214.988ZM26.3188 212.523C22.8227 212.523 19.7385 213.719 17.1986 216.087L20.608 219.744C22.2053 218.255 24.0648 217.523 26.3188 217.523V212.523ZM17.2154 216.071C14.652 218.418 13.3003 221.374 13.3003 224.805H18.3003C18.3003 222.837 19.0173 221.2 20.5912 219.76L17.2154 216.071ZM13.3003 224.805C13.3003 231.118 16.868 237.603 23.1397 244.199L26.7632 240.754C20.8334 234.517 18.3003 229.221 18.3003 224.805H13.3003ZM24.9514 239.976H9.54177V244.976H24.9514V239.976ZM11.639 241.116C7.15757 234.208 5.04688 227.821 5.04688 221.913H0.046875C0.046875 229.047 2.59937 236.369 7.44447 243.837L11.639 241.116ZM5.04688 221.913C5.04688 215.118 6.78818 210.098 9.98158 206.543L6.26187 203.202C2.02227 207.922 0.046875 214.262 0.046875 221.913H5.04688ZM9.98848 206.535C13.1527 202.983 17.5266 201.114 23.4262 201.114V196.114C16.353 196.114 10.5239 198.417 6.25497 203.21L9.98848 206.535ZM23.4262 201.114C27.2862 201.114 32.2998 202.577 38.5686 205.818C44.8021 209.041 52.0841 213.921 60.4275 220.509L63.526 216.585C55.0397 209.884 47.4818 204.798 40.8651 201.377C34.2837 197.974 28.4369 196.114 23.4262 196.114V201.114ZM64.4767 218.547V194.88H59.4767V218.547H64.4767ZM12.5921 141.814L13.9535 143.911L13.9611 143.906L12.5921 141.814ZM67.9197 178.471L69.3014 180.555L69.309 180.549L67.9197 178.471ZM12.4869 178.366L11.0776 180.431L11.08 180.432L12.4869 178.366ZM58.8212 153.595L59.7015 151.255L59.694 151.252L58.8212 153.595ZM21.4277 153.595L22.3187 155.93L22.3333 155.925L22.3478 155.919L21.4277 153.595ZM21.3225 166.69L20.3524 168.994L20.3645 168.999L21.3225 166.69ZM58.7686 166.69L59.6539 169.028L59.6676 169.023L59.6813 169.018L58.7686 166.69ZM5.04688 160.011C5.04688 153.1 7.94478 147.812 13.9535 143.911L11.2308 139.717C3.84597 144.511 0.046875 151.355 0.046875 160.011H5.04688ZM13.9611 143.906C20.1096 139.882 28.6715 137.74 39.8878 137.74V132.74C28.1035 132.74 18.4683 134.98 11.2231 139.722L13.9611 143.906ZM39.8878 137.74C51.5944 137.74 60.3872 139.824 66.5292 143.715L69.205 139.492C61.9534 134.898 52.0933 132.74 39.8878 132.74V137.74ZM66.5292 143.715C72.5068 147.502 75.4124 152.773 75.4124 159.801H80.4126C80.4126 151.05 76.6206 144.19 69.205 139.492L66.5292 143.715ZM75.4124 159.801C75.4124 166.958 72.5001 172.402 66.5305 176.393L69.309 180.549C76.6626 175.634 80.4126 168.632 80.4126 159.801H75.4124ZM66.538 176.388C60.4371 180.433 51.7651 182.598 40.2559 182.598V187.598C52.3083 187.598 62.0788 185.344 69.3014 180.555L66.538 176.388ZM40.2559 182.598C28.6029 182.598 19.9122 180.397 13.8939 176.299L11.08 180.432C18.2449 185.311 28.0669 187.598 40.2559 187.598V182.598ZM13.8963 176.301C7.91937 172.221 5.04688 166.86 5.04688 160.011H0.046875C0.046875 168.59 3.80108 175.464 11.0776 180.431L13.8963 176.301ZM66.633 160.011C66.633 157.994 66.0109 156.15 64.7308 154.604C63.4851 153.099 61.7379 152.021 59.7015 151.255L57.9408 155.935C59.4457 156.501 60.3544 157.158 60.8794 157.792C61.3699 158.385 61.633 159.082 61.633 160.011H66.633ZM59.694 151.252C55.6426 149.743 48.5193 149.096 38.7307 149.096V154.096C48.5768 154.096 54.8472 154.782 57.9484 155.937L59.694 151.252ZM38.7307 149.096C30.5434 149.096 24.3534 149.748 20.5076 151.27L22.3478 155.919C25.2339 154.777 30.5793 154.096 38.7307 154.096V149.096ZM20.5367 151.259C18.5432 152.019 16.8389 153.115 15.6325 154.658C14.4018 156.231 13.8262 158.095 13.8262 160.116H18.8262C18.8262 159.087 19.1009 158.339 19.5707 157.738C20.0648 157.107 20.9112 156.467 22.3187 155.93L20.5367 151.259ZM13.8262 160.116C13.8262 162.105 14.3936 163.94 15.5849 165.508C16.7529 167.044 18.4062 168.175 20.3524 168.994L22.2927 164.386C20.908 163.803 20.0631 163.137 19.5657 162.482C19.0915 161.858 18.8262 161.108 18.8262 160.116H13.8262ZM20.3645 168.999C22.3503 169.823 25.1007 170.366 28.4525 170.715C31.8475 171.069 36.0344 171.241 40.9922 171.241V166.241C36.1327 166.241 32.1327 166.072 28.9711 165.742C25.7663 165.408 23.5906 164.925 22.2806 164.381L20.3645 168.999ZM40.9922 171.241C49.2699 171.241 55.5881 170.568 59.6539 169.028L57.8833 164.352C54.7263 165.548 49.1936 166.241 40.9922 166.241V171.241ZM59.6813 169.018C61.7405 168.21 63.4956 167.085 64.7411 165.534C66.0169 163.946 66.633 162.064 66.633 160.011H61.633C61.633 161.009 61.3551 161.765 60.8428 162.403C60.3002 163.079 59.373 163.768 57.8559 164.363L59.6813 169.018ZM61.9767 76.0202V73.5202H59.4767V76.0202H61.9767ZM76.9656 76.0202H79.4656V73.5202H76.9656V76.0202ZM76.9656 124.563V127.063H79.4656V124.563H76.9656ZM74.9146 124.563L73.3301 126.497L74.0212 127.063H74.9146V124.563ZM54.2982 109.312L52.8797 111.37L52.8815 111.371L54.2982 109.312ZM18.9033 99.0559L20.5912 100.9L20.5996 100.892L20.608 100.885L18.9033 99.0559ZM24.9514 123.617V126.117H30.7782L26.7632 121.894L24.9514 123.617ZM9.54177 123.617L7.44447 124.977L8.18357 126.117H9.54177V123.617ZM8.12167 86.0128L9.98158 87.6835L9.98848 87.6757L8.12167 86.0128ZM61.9767 99.6869L60.4275 101.649L64.4767 104.846V99.6869H61.9767ZM61.9767 78.5202H76.9656V73.5202H61.9767V78.5202ZM74.4657 76.0202V124.563H79.4656V76.0202H74.4657ZM76.9656 122.063H74.9146V127.063H76.9656V122.063ZM76.499 122.63C70.9927 118.118 64.0597 112.991 55.7149 107.252L52.8815 111.371C61.156 117.062 67.9673 122.103 73.3301 126.497L76.499 122.63ZM55.7167 107.253C47.3879 101.514 41.2733 97.7469 37.5094 96.1279L35.5343 100.721C38.7827 102.118 44.519 105.609 52.8797 111.37L55.7167 107.253ZM37.5094 96.1279C33.7401 94.5069 30.0037 93.6629 26.3188 93.6629V98.6629C29.2257 98.6629 32.2912 99.3269 35.5343 100.721L37.5094 96.1279ZM26.3188 93.6629C22.8227 93.6629 19.7385 94.8599 17.1986 97.2269L20.608 100.885C22.2053 99.3959 24.0648 98.6629 26.3188 98.6629V93.6629ZM17.2154 97.2119C14.652 99.5579 13.3003 102.514 13.3003 105.946H18.3003C18.3003 103.977 19.0173 102.341 20.5912 100.9L17.2154 97.2119ZM13.3003 105.946C13.3003 112.259 16.868 118.743 23.1397 125.339L26.7632 121.894C20.8334 115.658 18.3003 110.361 18.3003 105.946H13.3003ZM24.9514 121.117H9.54177V126.117H24.9514V121.117ZM11.639 122.256C7.15757 115.349 5.04688 108.962 5.04688 103.053H0.046875C0.046875 110.187 2.59937 117.51 7.44447 124.977L11.639 122.256ZM5.04688 103.053C5.04688 96.2579 6.78818 91.2385 9.98158 87.6835L6.26187 84.3422C2.02227 89.0618 0.046875 95.4029 0.046875 103.053H5.04688ZM9.98848 87.6757C13.1527 84.1235 17.5266 82.2543 23.4262 82.2543V77.2543C16.353 77.2543 10.5239 79.5574 6.25497 84.35L9.98848 87.6757ZM23.4262 82.2543C27.2862 82.2543 32.2998 83.7169 38.5686 86.9582C44.8021 90.1812 52.0841 95.0609 60.4275 101.649L63.526 97.7249C55.0397 91.0242 47.4818 85.9379 40.8651 82.5167C34.2837 79.1138 28.4369 77.2543 23.4262 77.2543V82.2543ZM64.4767 99.6869V76.0202H59.4767V99.6869H64.4767ZM45.3048 49.0927V51.5927H47.7068L47.8028 49.1926L45.3048 49.0927ZM32.367 49.0927H29.867V51.5927H32.367V49.0927ZM29.79 41.7823L27.9543 43.4795L27.9624 43.4882L27.9705 43.4968L29.79 41.7823ZM18.6929 62.872V65.372H22.699L20.9386 61.7734L18.6929 62.872ZM5.75507 62.872L3.46577 63.8767L4.12207 65.372H5.75507V62.872ZM7.59577 29.1075L9.57267 30.6379L9.58027 30.6279L7.59577 29.1075ZM37.5211 33.4727L35.3312 34.6787L37.9035 39.3493L39.8488 34.3847L37.5211 33.4727ZM72.0746 27.6875L74.0056 26.0997L73.9986 26.0912L72.0746 27.6875ZM73.7575 64.7128V67.2128H75.2982L75.9907 65.8365L73.7575 64.7128ZM59.5049 64.7128L57.4592 63.2756L54.6933 67.2128H59.5049V64.7128ZM62.6605 40.8882L64.5784 39.2847L64.5708 39.2755L64.563 39.2664L62.6605 40.8882ZM48.4078 40.7831L50.2219 42.5033L50.2292 42.4955L50.2365 42.4877L48.4078 40.7831ZM45.3048 46.5927H32.367V51.5927H45.3048V46.5927ZM34.867 49.0927C34.867 45.5514 33.8556 42.4515 31.6094 40.0678L27.9705 43.4968C29.1604 44.7596 29.867 46.5332 29.867 49.0927H34.867ZM31.6256 40.0852C29.4671 37.7504 26.7646 36.4949 23.6366 36.4949V41.4949C25.277 41.4949 26.6768 42.0977 27.9543 43.4795L31.6256 40.0852ZM23.6366 36.4949C20.4042 36.4949 17.6724 37.8352 15.604 40.3532L19.4677 43.5269C20.625 42.118 21.9604 41.4949 23.6366 41.4949V36.4949ZM15.604 40.3532C13.5581 42.844 12.6166 45.927 12.6166 49.4083H17.6166C17.6166 46.8589 18.2879 44.9631 19.4677 43.5269L15.604 40.3532ZM12.6166 49.4083C12.6166 53.9936 13.9473 58.8606 16.4472 63.9706L20.9386 61.7734C18.67 57.1362 17.6166 53.0274 17.6166 49.4083H12.6166ZM18.6929 60.372H5.75507V65.372H18.6929V60.372ZM8.04427 61.8674C6.06787 57.3637 5.04688 52.1235 5.04688 46.0949H0.046875C0.046875 52.6886 1.16467 58.6331 3.46577 63.8767L8.04427 61.8674ZM5.04688 46.0949C5.04688 39.5205 6.62807 34.4414 9.57267 30.6379L5.61897 27.577C1.83177 32.4689 0.046875 38.7147 0.046875 46.0949H5.04688ZM9.58027 30.6279C12.4572 26.8728 16.048 25.086 20.5336 25.086V20.086C14.4306 20.086 9.39617 22.6468 5.61127 27.5871L9.58027 30.6279ZM20.5336 25.086C26.8144 25.086 31.704 28.0924 35.3312 34.6787L39.711 32.2666C35.3441 24.3373 28.9087 20.086 20.5336 20.086V25.086ZM39.8488 34.3847C41.3876 30.4574 43.524 27.6829 46.175 25.8737C48.8259 24.0646 52.1868 23.0874 56.4019 23.0874V18.0874C51.3957 18.0874 46.9992 19.2578 43.3565 21.7438C39.714 24.2296 37.0205 27.8977 35.1934 32.5606L39.8488 34.3847ZM56.4019 23.0874C62.231 23.0874 66.7304 25.1613 70.1505 29.2837L73.9986 26.0912C69.5648 20.7469 63.6159 18.0874 56.4019 18.0874V23.0874ZM70.1435 29.2752C73.5697 33.4422 75.4124 39.1707 75.4124 46.726H80.4126C80.4126 38.3633 78.3636 31.3994 74.0056 26.0997L70.1435 29.2752ZM75.4124 46.726C75.4124 52.8433 74.1095 58.4513 71.5243 63.589L75.9907 65.8365C78.9456 59.9648 80.4126 53.5816 80.4126 46.726H75.4124ZM73.7575 62.2128H59.5049V67.2128H73.7575V62.2128ZM61.5505 66.1499C65.6211 60.3557 67.8427 54.6874 67.8427 49.1979H62.8427C62.8427 53.3154 61.1724 57.9903 57.4592 63.2756L61.5505 66.1499ZM67.8427 49.1979C67.8427 45.3444 66.8203 41.9661 64.5784 39.2847L60.7425 42.4918C62.0769 44.0879 62.8427 46.2494 62.8427 49.1979H67.8427ZM64.563 39.2664C62.2524 36.5559 59.2009 35.1801 55.613 35.1801V40.1801C57.7753 40.1801 59.4221 40.9431 60.7579 42.5101L64.563 39.2664ZM55.613 35.1801C52.0575 35.1801 48.9893 36.493 46.5791 39.0784L50.2365 42.4877C51.6832 40.9358 53.4183 40.1801 55.613 40.1801V35.1801ZM46.5938 39.0628C44.1514 41.6384 42.965 45.0394 42.8068 48.9928L47.8028 49.1926C47.9252 46.1337 48.8074 43.9949 50.2219 42.5033L46.5938 39.0628Z" fill="white"/>
<path d="M130.622 14.5508L130.412 246.581" stroke="white" stroke-width="2" stroke-miterlimit="10" stroke-linecap="round"/>
<path d="M206.615 17.2668C213.911 17.2668 221.435 18.8628 227.059 23.5748C233.443 28.9708 234.735 35.7348 234.735 40.4468C234.735 52.0748 226.983 58.0788 222.879 60.3588C217.483 63.2468 211.783 63.8548 206.159 63.8548C203.043 63.8548 194.759 63.2468 192.327 63.2468C189.895 63.2468 186.475 63.2468 182.827 63.5508C182.219 63.6268 181.611 63.0948 181.611 62.5628C181.611 61.7268 182.751 59.9028 184.651 59.3708C187.083 58.6868 188.375 58.9148 188.983 55.4948C189.515 52.5308 189.515 48.7308 189.515 38.6988C189.515 28.2868 189.667 26.9948 189.135 24.3348C188.983 23.4988 188.831 22.3588 185.259 21.5988C183.435 21.2188 182.371 20.3828 182.371 19.3188C182.371 18.1788 183.587 17.7228 185.791 17.7228L191.035 17.7988C193.695 17.8748 201.295 17.2668 206.615 17.2668ZM206.615 21.2948C206.007 21.2948 203.499 21.5988 202.967 21.9028C202.663 22.0548 201.903 23.4988 201.903 23.8028C201.751 26.3868 201.447 29.6548 201.447 35.3548V40.8268C201.447 50.5548 201.751 51.7708 201.979 54.0508C202.131 55.6468 202.967 57.2428 203.879 58.0028C204.715 58.6868 207.451 59.9788 208.439 59.9788C209.275 59.9788 213.379 59.0668 216.723 55.8748C220.143 52.6068 221.587 46.2228 221.587 41.1308C221.587 35.5828 220.143 29.8828 216.267 26.0828C212.923 22.7388 209.047 21.2948 206.615 21.2948ZM236.253 19.0908C236.253 17.9508 238.077 17.4188 238.989 17.4188C240.433 17.4188 249.477 17.7988 251.605 17.7988C254.645 17.7988 257.457 17.6468 258.749 17.6468C260.117 17.6468 261.181 18.4068 261.181 19.2428C261.181 19.6988 260.497 20.6868 258.597 21.4468C257.001 22.1308 257.077 22.7388 257.837 24.4108C260.269 29.5028 264.145 35.8868 265.361 37.9388C265.665 38.3948 266.273 38.3188 266.653 38.0148C267.489 37.2548 271.821 28.8948 273.189 25.8548C274.481 23.1188 274.025 22.3588 271.213 21.3708C270.073 20.9908 268.781 20.3068 268.781 19.3188C268.781 18.2548 270.149 17.6468 271.745 17.6468C275.165 17.6468 275.089 17.7988 276.989 17.7988C279.877 17.7988 283.373 17.4948 286.033 17.4948C287.325 17.4948 288.237 18.3308 288.237 19.0148C288.237 19.9268 287.097 20.8388 285.653 21.2948C283.145 22.1308 281.017 23.3468 278.661 26.5388C275.317 31.0988 269.997 39.4588 268.477 42.8028C268.021 43.7908 268.021 44.6268 267.945 46.2228C267.793 48.8068 267.793 53.8228 267.793 56.0268C268.021 57.9268 269.997 58.7628 273.037 59.8268C274.405 60.2828 275.089 61.0428 275.089 61.8788C275.089 62.6388 273.949 63.7028 272.429 63.7028C269.465 63.7028 266.805 63.2468 262.169 63.2468C255.709 63.2468 254.873 63.4748 252.137 63.4748C249.933 63.4748 248.717 62.7908 248.717 61.5748C248.717 60.7388 250.009 59.7508 252.061 59.2188C254.569 58.6108 255.253 58.1548 255.481 54.2788C255.633 51.7708 255.633 47.3628 255.633 45.8428C255.633 44.5508 255.329 43.3348 254.113 41.2068C250.845 35.1268 246.969 28.4388 244.613 25.2468C243.473 23.6508 242.181 22.1308 239.141 21.2948C237.165 20.7628 236.253 20.0788 236.253 19.0908ZM290.188 18.6348C290.188 18.1028 290.796 17.3428 292.164 17.3428C295.204 17.3428 301.284 17.9508 306.148 17.9508C306.832 17.9508 307.896 18.4828 308.124 18.7868C309.416 20.5348 311.772 23.0428 315.42 26.9948C319.448 31.3268 331.532 44.0948 333.204 45.0068C333.432 45.0828 334.04 44.9308 334.116 44.7028C334.572 42.6508 334.572 35.3548 334.344 30.1108C334.116 24.9428 334.496 22.9668 328.568 21.5988C326.744 21.1428 326.06 19.8508 326.06 19.3948C326.06 18.8628 326.896 17.7228 328.72 17.7228C331.456 17.7228 331.304 17.7988 333.28 17.7988C336.396 17.7988 342.172 17.4188 343.692 17.4188C345.288 17.4188 346.352 17.8748 346.352 19.1668C346.352 20.0028 345.744 20.5348 343.312 21.5988C340.196 22.9668 339.74 23.8028 339.664 24.7908C339.512 28.2868 338.904 43.9428 338.904 49.0348C338.904 52.3788 339.208 55.7228 339.208 59.2188C339.208 62.4108 338.6 64.7668 337.232 64.7668C334.8 64.7668 332.824 63.3988 331.38 61.7268C328.568 58.5348 324.996 54.3548 322.868 51.9988C319.98 48.6548 308.124 36.0388 304.78 32.3908C304.552 32.1628 304.02 32.6188 304.02 32.9228C303.944 34.5948 303.792 34.8228 303.792 38.0908C303.792 41.5108 303.944 48.3508 304.02 50.4028C304.248 56.3308 305.236 58.1548 307.896 59.2188C310.48 60.2068 311.316 61.0428 311.316 62.1068C311.316 63.0188 310.48 63.5508 308.732 63.5508C306.604 63.5508 304.02 63.2468 300.448 63.2468C296.876 63.2468 294.976 63.5508 293.988 63.5508C291.708 63.5508 290.948 62.7148 290.948 61.9548C290.948 60.9668 291.86 60.2828 293.228 59.8268C296.724 58.6868 298.092 58.4588 298.472 53.3668C298.852 48.2748 299.46 30.1108 299.46 27.6788C299.46 27.2228 299.08 25.6268 298.092 24.4868C296.496 22.6628 295.128 21.7508 293.38 21.3708C291.632 20.9908 290.188 20.0788 290.188 18.6348ZM375.834 16.2788C377.202 16.2788 377.658 18.5588 379.634 23.6508C383.738 34.6708 389.97 49.4148 392.022 54.0508C393.922 58.3068 394.986 58.3828 397.95 59.5988C399.698 60.3588 400.306 61.4988 400.306 62.3348C400.306 63.2468 399.09 63.6268 397.646 63.6268C395.29 63.6268 389.362 63.2468 385.638 63.2468C382.37 63.2468 380.318 63.6268 377.582 63.6268C375.454 63.6268 374.77 62.7148 374.77 62.1828C374.77 61.2708 375.682 60.2068 377.126 59.5988C379.786 58.4588 379.786 56.7868 379.406 55.4948C378.722 53.5948 378.646 53.2148 377.658 50.9348C377.582 50.7068 376.898 49.8708 375.682 49.7188C374.39 49.5668 364.89 49.4148 363.142 49.7948C362.686 49.8708 362.078 50.6308 361.926 50.9348C361.318 52.4548 360.71 55.3428 360.71 56.3308C360.71 57.6988 361.698 58.8388 364.13 59.6748C365.194 60.0548 366.334 60.6628 366.334 61.6508C366.334 62.0308 365.27 63.4748 363.294 63.4748C362.382 63.4748 360.71 63.2468 358.278 63.2468C355.466 63.2468 352.35 63.6268 349.158 63.6268C347.486 63.6268 346.346 62.8668 346.346 61.9548C346.346 61.1948 346.954 60.4348 348.626 59.7508C351.438 58.6108 352.958 58.3828 355.39 53.2908C357.29 49.2628 362.686 35.5828 367.246 23.5748C367.322 23.3468 367.474 22.8148 367.474 21.9788C367.474 21.6748 367.854 21.1428 368.158 20.9148C369.146 20.3068 372.946 17.7988 373.782 17.1148C374.238 16.6588 375.454 16.2788 375.834 16.2788ZM374.314 44.6268C374.694 44.6268 375.15 43.9428 375.074 43.7148C373.934 39.9908 370.742 31.8588 370.058 30.6428C369.754 30.1108 369.298 30.3388 369.07 30.6428C367.854 33.1508 364.586 42.4988 364.358 43.6388C364.282 44.0948 364.662 44.7028 365.194 44.7028C366.182 44.7028 373.25 44.7028 374.314 44.6268ZM407.097 19.6228C407.097 18.7868 408.237 17.4948 409.909 17.4948C411.809 17.4948 423.817 17.7988 424.273 17.7988C424.653 17.7988 425.717 19.0908 425.793 19.2428C426.097 20.3068 427.085 22.1308 428.681 25.8548C430.353 29.7308 436.205 42.7268 437.953 44.8548C437.953 44.9308 438.637 45.2348 438.865 44.7028C441.373 39.3068 444.717 32.3148 447.225 26.5388C448.669 23.1948 449.201 21.0668 449.809 19.3948C449.961 18.9388 450.797 17.9508 451.253 17.9508C452.545 17.9508 463.489 17.4188 465.921 17.4188C466.681 17.4188 468.429 18.1788 468.429 19.2428C468.429 20.1548 467.745 20.6108 466.225 21.0668C461.361 22.5108 461.209 22.8908 461.209 24.8668C461.209 35.6588 461.741 44.3988 462.045 52.3028C462.273 58.5348 463.869 58.9908 466.453 59.5988C468.809 60.1308 469.569 60.9668 469.569 61.8788C469.569 62.6388 468.125 63.7028 466.529 63.7028C465.617 63.7028 457.105 63.2468 453.457 63.2468C450.037 63.2468 448.137 63.5508 446.313 63.5508C444.413 63.5508 443.881 61.9548 443.881 61.4228C443.881 60.8148 445.097 60.2068 445.477 60.0548C449.201 58.7628 449.885 57.8508 449.961 53.6708C450.037 51.6948 449.885 38.0148 450.113 30.7188C450.113 30.3388 449.581 30.4148 449.201 31.0988C448.213 32.9228 441.601 48.8068 440.005 52.6068C439.169 54.5828 437.953 58.2308 436.889 60.8148C436.129 62.5628 434.761 63.7788 433.089 63.7788C432.405 63.7788 431.265 62.4868 430.885 61.1948C429.745 57.4708 428.225 53.8228 427.541 51.8468C424.197 42.4228 421.157 36.6468 419.257 32.0108C418.953 31.2508 418.345 31.4028 418.345 31.9348C417.737 40.6748 417.357 49.4148 417.357 53.2908C417.357 57.8508 417.889 58.0788 421.917 59.6748C423.589 60.3588 424.349 60.8148 424.349 61.8028C424.349 62.6388 423.285 63.5508 421.537 63.5508C420.473 63.5508 417.737 63.2468 415.533 63.2468C413.101 63.2468 407.553 63.7028 406.565 63.7028C405.121 63.7028 403.753 62.9428 403.753 61.9548C403.753 61.2708 404.437 60.5108 406.261 59.9028C410.061 58.6868 411.277 57.1668 411.809 53.9748C412.721 48.7308 414.469 31.0228 414.621 27.0708C414.773 22.9668 413.633 22.4348 409.833 21.3708C407.933 20.8388 407.097 20.2308 407.097 19.6228ZM481.343 46.6028V29.0468C481.343 22.6628 481.039 21.8268 476.935 20.9148C475.643 20.6108 474.883 19.6988 474.883 19.0148C474.883 17.8748 476.707 17.4948 477.467 17.4948C478.911 17.4948 483.699 17.7988 487.043 17.7988C491.603 17.7988 495.327 17.5708 497.531 17.5708C498.671 17.5708 499.887 18.1788 499.887 19.1668C499.887 20.0788 498.595 20.6868 497.987 20.8388C494.263 21.6748 494.035 22.6628 493.731 26.6148C493.503 29.8828 493.427 36.4948 493.427 41.6628C493.427 49.9468 493.579 52.9108 493.579 53.8988C493.731 57.4708 494.111 58.9908 497.911 59.9028C499.355 60.2828 500.343 61.0428 500.343 62.1068C500.343 63.0188 498.671 63.4748 497.759 63.4748C496.999 63.4748 489.627 63.2468 487.043 63.2468C484.383 63.2468 478.835 63.5508 477.467 63.5508C476.479 63.5508 474.883 63.3228 474.883 62.1068C474.883 61.2708 476.099 60.2828 477.163 59.9788C480.203 58.9908 480.659 58.0788 481.039 55.7988C481.267 54.2028 481.343 52.8348 481.343 46.6028ZM535.271 16.2788C538.767 16.2788 542.263 17.0388 544.315 17.5708C546.215 18.1028 548.951 18.9388 549.559 18.9388C549.939 18.9388 550.851 19.9268 550.851 20.3828C550.851 23.1188 551.611 26.9948 551.611 28.8948C551.611 31.0228 550.167 32.2388 549.179 32.2388C548.571 32.2388 548.191 31.6308 547.583 29.9588C546.443 26.8428 545.987 25.1708 543.175 23.1188C540.819 21.3708 538.159 20.0788 534.891 20.0788C531.623 20.0788 527.443 21.9788 524.935 25.0188C521.667 28.8948 520.147 34.6708 520.147 39.2308C520.147 45.0068 522.047 50.1748 524.251 53.2908C526.987 57.1668 532.003 59.9788 536.563 59.9788C538.463 59.9788 541.883 58.7628 543.403 57.9268C544.011 57.5468 545.379 56.1028 547.279 53.0628C548.723 50.7828 549.635 49.8708 550.395 49.8708C551.839 49.8708 551.991 51.3148 551.915 52.9108C551.915 53.5948 550.471 58.6868 550.471 60.1308C550.471 60.3588 549.863 61.4228 549.635 61.5748C546.975 62.8668 540.211 64.6148 534.967 64.6148C526.531 64.6148 517.563 62.1068 512.167 56.1788C508.823 52.5308 506.467 47.5148 506.467 40.7508C506.467 32.6188 510.115 25.7788 516.803 21.1428C520.223 18.7868 527.367 16.2788 535.271 16.2788ZM579.118 16.3548C583.374 16.3548 587.402 17.7228 590.366 18.4068C590.822 18.4828 591.354 19.6988 591.354 20.5348C591.354 21.4468 591.886 25.6268 591.886 26.7668C591.886 29.3508 590.67 30.4148 589.606 30.4148C588.77 30.4148 588.086 29.1228 587.858 28.5148C586.186 23.9548 582.234 19.8508 577.902 19.8508C574.71 19.8508 571.822 22.8148 571.822 25.7028C571.822 29.1228 574.33 31.6308 578.662 33.8348C588.238 38.6988 593.862 42.9548 593.862 50.1748C593.862 56.4068 589.606 59.9028 586.87 61.5748C583.906 63.3228 578.89 64.6148 575.394 64.6148C568.934 64.6148 565.21 63.2468 563.462 62.5628C562.93 62.3348 561.714 61.6508 561.334 60.8148C560.042 58.0788 559.814 54.1268 559.814 52.3028C559.814 50.8588 560.574 49.0348 561.79 49.0348C562.626 49.0348 563.614 49.9468 564.678 51.9228C567.49 57.0908 571.67 60.8148 576.382 60.8148C579.118 60.8148 582.538 58.9148 582.538 55.4188C582.538 53.1388 582.69 50.6308 574.938 46.4508C564.982 41.1308 561.106 37.0268 561.106 29.9588C561.106 25.0188 564.602 20.9908 568.25 18.9388C571.138 17.3428 574.786 16.3548 579.118 16.3548Z" fill="white"/>
<path d="M219.44 83.1783C240.24 83.1783 254.24 97.1783 254.24 115.078C254.24 127.578 246.84 137.378 237.44 142.578C233.14 144.978 226.14 146.778 219.74 146.778C198.64 146.778 184.84 132.378 184.84 115.078C184.84 107.378 187.74 99.7783 193.94 93.5783C200.44 87.0783 210.04 83.1783 219.44 83.1783ZM217.64 88.3783C212.94 88.3783 208.74 92.3783 208.64 92.4783C204.44 97.0783 202.64 103.878 202.64 113.278C202.64 126.878 208.84 141.678 222.34 141.678C225.74 141.678 229.74 138.678 230.24 138.278C233.44 135.278 236.04 128.978 236.04 115.778C236.04 105.278 230.84 88.3783 217.64 88.3783ZM280.511 85.1783H296.611C309.511 85.1783 311.711 84.5783 312.111 84.5783C313.011 84.5783 314.011 85.6783 314.011 86.5783V96.3783C314.011 99.1783 312.411 100.778 311.211 100.778C310.411 100.778 309.211 99.3783 308.611 97.2783C307.911 94.9783 306.511 91.2783 303.011 90.9783C300.211 90.7783 292.411 90.7783 289.311 90.7783C288.211 90.7783 287.511 92.4783 287.411 93.5783C287.111 97.1783 287.011 108.278 287.211 111.078C287.311 112.178 287.611 112.778 288.511 112.778C290.611 112.778 294.611 112.578 297.311 112.278C300.511 111.878 300.811 111.078 302.111 108.178C302.611 107.078 303.911 105.078 305.111 105.078C306.511 105.078 307.111 106.978 307.111 108.678C307.111 111.578 306.711 114.178 306.711 115.878C306.711 117.778 307.111 121.978 307.111 122.778C307.111 124.378 306.011 126.178 304.511 126.178C303.711 126.178 302.711 125.178 301.911 123.578C300.311 120.478 300.011 119.378 297.711 119.078C296.611 118.878 295.111 118.678 288.311 118.678C287.911 118.678 287.311 120.078 287.211 121.278C287.011 124.678 287.011 131.278 287.211 133.478C287.611 137.778 288.911 138.978 293.811 140.278C296.411 140.978 297.211 142.178 297.211 143.178C297.211 144.178 295.511 145.478 293.611 145.478C287.311 145.478 282.711 144.978 278.711 144.978C276.611 144.978 273.211 145.378 265.511 145.378C263.811 145.378 262.311 144.578 262.311 143.278C262.311 142.178 263.511 140.978 265.511 140.478C269.311 139.578 270.711 137.778 270.911 135.078C271.211 132.078 271.311 129.078 271.311 115.778C271.311 100.778 271.311 98.5783 271.111 95.0783C270.911 91.8783 269.611 90.7783 265.811 89.6783C264.011 89.1783 262.511 88.5783 262.511 86.8783C262.511 85.4783 265.111 84.8783 266.211 84.8783C274.011 84.9783 276.611 85.1783 280.511 85.1783ZM369.594 83.2783C375.194 83.2783 380.494 85.0783 384.394 85.9783C384.994 86.0783 385.694 87.6783 385.694 88.7783C385.694 89.9783 386.394 95.4783 386.394 96.9783C386.394 100.378 384.794 101.778 383.394 101.778C382.294 101.778 381.394 100.078 381.094 99.2783C378.894 93.2783 373.694 87.8783 367.994 87.8783C363.794 87.8783 359.994 91.7783 359.994 95.5783C359.994 100.078 363.294 103.378 368.994 106.278C381.594 112.678 388.994 118.278 388.994 127.778C388.994 135.978 383.394 140.578 379.794 142.778C375.894 145.078 369.294 146.778 364.694 146.778C356.194 146.778 351.294 144.978 348.994 144.078C348.294 143.778 346.694 142.878 346.194 141.778C344.494 138.178 344.194 132.978 344.194 130.578C344.194 128.678 345.194 126.278 346.794 126.278C347.894 126.278 349.194 127.478 350.594 130.078C354.294 136.878 359.794 141.778 365.994 141.778C369.594 141.778 374.094 139.278 374.094 134.678C374.094 131.678 374.294 128.378 364.094 122.878C350.994 115.878 345.894 110.478 345.894 101.178C345.894 94.6783 350.494 89.3783 355.294 86.6783C359.094 84.5783 363.894 83.2783 369.594 83.2783ZM406.567 123.078V99.9783C406.567 91.5783 406.167 90.4783 400.767 89.2783C399.067 88.8783 398.067 87.6783 398.067 86.7783C398.067 85.2783 400.467 84.7783 401.467 84.7783C403.367 84.7783 409.667 85.1783 414.067 85.1783C420.067 85.1783 424.967 84.8783 427.867 84.8783C429.367 84.8783 430.967 85.6783 430.967 86.9783C430.967 88.1783 429.267 88.9783 428.467 89.1783C423.567 90.2783 423.267 91.5783 422.867 96.7783C422.567 101.078 422.467 109.778 422.467 116.578C422.467 127.478 422.667 131.378 422.667 132.678C422.867 137.378 423.367 139.378 428.367 140.578C430.267 141.078 431.567 142.078 431.567 143.478C431.567 144.678 429.367 145.278 428.167 145.278C427.167 145.278 417.467 144.978 414.067 144.978C410.567 144.978 403.267 145.378 401.467 145.378C400.167 145.378 398.067 145.078 398.067 143.478C398.067 142.378 399.667 141.078 401.067 140.678C405.067 139.378 405.667 138.178 406.167 135.178C406.467 133.078 406.567 131.278 406.567 123.078ZM438.055 86.2783C438.055 85.5783 438.855 84.5783 440.655 84.5783C444.655 84.5783 452.655 85.3783 459.055 85.3783C459.955 85.3783 461.355 86.0783 461.655 86.4783C463.355 88.7783 466.455 92.0783 471.255 97.2783C476.555 102.978 492.455 119.778 494.655 120.978C494.955 121.078 495.755 120.878 495.855 120.578C496.455 117.878 496.455 108.278 496.155 101.378C495.855 94.5783 496.355 91.9783 488.555 90.1783C486.155 89.5783 485.255 87.8783 485.255 87.2783C485.255 86.5783 486.355 85.0783 488.755 85.0783C492.355 85.0783 492.155 85.1783 494.755 85.1783C498.855 85.1783 506.455 84.6783 508.455 84.6783C510.555 84.6783 511.955 85.2783 511.955 86.9783C511.955 88.0783 511.155 88.7783 507.955 90.1783C503.855 91.9783 503.255 93.0783 503.155 94.3783C502.955 98.9783 502.155 119.578 502.155 126.278C502.155 130.678 502.555 135.078 502.555 139.678C502.555 143.878 501.755 146.978 499.955 146.978C496.755 146.978 494.155 145.178 492.255 142.978C488.555 138.778 483.855 133.278 481.055 130.178C477.255 125.778 461.655 109.178 457.255 104.378C456.955 104.078 456.255 104.678 456.255 105.078C456.155 107.278 455.955 107.578 455.955 111.878C455.955 116.378 456.155 125.378 456.255 128.078C456.555 135.878 457.855 138.278 461.355 139.678C464.755 140.978 465.855 142.078 465.855 143.478C465.855 144.678 464.755 145.378 462.455 145.378C459.655 145.378 456.255 144.978 451.555 144.978C446.855 144.978 444.355 145.378 443.055 145.378C440.055 145.378 439.055 144.278 439.055 143.278C439.055 141.978 440.255 141.078 442.055 140.478C446.655 138.978 448.455 138.678 448.955 131.978C449.455 125.278 450.255 101.378 450.255 98.1783C450.255 97.5783 449.755 95.4783 448.455 93.9783C446.355 91.5783 444.555 90.3783 442.255 89.8783C439.955 89.3783 438.055 88.1783 438.055 86.2783ZM516.908 86.4783C516.908 85.6783 518.208 84.6783 520.508 84.6783C521.908 84.6783 529.208 85.1783 531.708 85.1783C536.508 85.1783 544.708 84.8783 545.808 84.8783C548.208 84.8783 549.108 86.0783 549.108 86.9783C549.108 88.5783 547.008 89.3783 546.208 89.6783C542.008 90.9783 541.308 92.3783 541.308 93.9783C541.308 95.2783 541.108 102.078 541.108 111.978C541.108 112.478 541.508 112.778 542.208 112.778C542.608 112.778 543.608 112.478 544.908 111.478C549.608 107.778 560.108 96.4783 563.308 92.4783C564.108 91.4783 563.608 90.6783 561.108 90.0783C558.408 89.4783 557.908 88.2783 557.908 86.9783C557.908 85.9783 559.408 85.1783 561.208 85.1783C562.608 85.1783 562.908 85.1783 566.108 85.1783C572.908 85.1783 575.608 84.5783 580.908 84.5783C583.908 84.5783 584.708 85.7783 584.708 86.7783C584.708 87.4783 583.408 89.0783 581.208 89.4783C577.808 90.0783 572.908 92.2783 568.908 95.5783C565.508 98.3783 560.808 102.278 555.508 107.578C555.108 107.978 555.408 109.078 555.508 109.178C561.408 117.978 571.708 130.078 575.308 134.178C578.908 138.278 580.908 138.878 584.308 140.378C586.508 141.378 588.308 142.278 588.308 143.478C588.308 144.678 587.308 145.778 584.608 145.778C579.908 145.778 565.708 144.978 561.908 144.978C560.008 144.978 559.208 144.978 557.308 144.978C555.908 144.978 553.508 144.278 553.508 141.978C553.508 141.278 554.108 140.378 557.108 139.378C558.108 139.078 558.908 138.078 558.108 136.978C553.608 130.778 548.008 123.778 543.808 118.378C542.908 117.178 542.208 116.878 541.808 116.878C541.108 116.878 541.108 117.678 541.108 118.778C541.108 123.378 541.308 128.878 541.308 133.878C541.308 138.278 542.708 138.778 546.108 139.778C549.408 140.778 550.008 141.678 550.008 142.778C550.008 143.778 548.908 145.278 546.208 145.278C545.008 145.278 538.608 144.978 535.508 144.978C530.808 144.978 522.608 145.478 520.808 145.478C518.808 145.478 516.508 144.878 516.508 142.978C516.508 141.978 517.608 141.078 519.308 140.578C524.308 139.178 524.908 138.578 525.308 133.478C525.508 130.878 525.508 128.378 525.508 111.478C525.508 96.0783 525.608 96.2783 525.208 94.2783C524.908 92.4783 524.408 90.7783 520.708 89.7783C517.608 88.9783 516.908 88.0783 516.908 86.4783ZM601.001 123.078V99.9783C601.001 91.5783 600.601 90.4783 595.201 89.2783C593.501 88.8783 592.501 87.6783 592.501 86.7783C592.501 85.2783 594.901 84.7783 595.901 84.7783C597.801 84.7783 604.101 85.1783 608.501 85.1783C614.501 85.1783 619.401 84.8783 622.301 84.8783C623.801 84.8783 625.401 85.6783 625.401 86.9783C625.401 88.1783 623.701 88.9783 622.901 89.1783C618.001 90.2783 617.701 91.5783 617.301 96.7783C617.001 101.078 616.901 109.778 616.901 116.578C616.901 127.478 617.101 131.378 617.101 132.678C617.301 137.378 617.801 139.378 622.801 140.578C624.701 141.078 626.001 142.078 626.001 143.478C626.001 144.678 623.801 145.278 622.601 145.278C621.601 145.278 611.901 144.978 608.501 144.978C605.001 144.978 597.701 145.378 595.901 145.378C594.601 145.378 592.501 145.078 592.501 143.478C592.501 142.378 594.101 141.078 595.501 140.678C599.501 139.378 600.101 138.178 600.601 135.178C600.901 133.078 601.001 131.278 601.001 123.078ZM632.488 86.2783C632.488 85.5783 633.288 84.5783 635.088 84.5783C639.088 84.5783 647.088 85.3783 653.488 85.3783C654.388 85.3783 655.788 86.0783 656.088 86.4783C657.788 88.7783 660.888 92.0783 665.688 97.2783C670.988 102.978 686.888 119.778 689.088 120.978C689.388 121.078 690.188 120.878 690.288 120.578C690.888 117.878 690.888 108.278 690.588 101.378C690.288 94.5783 690.788 91.9783 682.988 90.1783C680.588 89.5783 679.688 87.8783 679.688 87.2783C679.688 86.5783 680.788 85.0783 683.188 85.0783C686.788 85.0783 686.588 85.1783 689.188 85.1783C693.288 85.1783 700.888 84.6783 702.888 84.6783C704.988 84.6783 706.388 85.2783 706.388 86.9783C706.388 88.0783 705.588 88.7783 702.388 90.1783C698.288 91.9783 697.688 93.0783 697.588 94.3783C697.388 98.9783 696.588 119.578 696.588 126.278C696.588 130.678 696.988 135.078 696.988 139.678C696.988 143.878 696.188 146.978 694.388 146.978C691.188 146.978 688.588 145.178 686.688 142.978C682.988 138.778 678.288 133.278 675.488 130.178C671.688 125.778 656.088 109.178 651.688 104.378C651.388 104.078 650.688 104.678 650.688 105.078C650.588 107.278 650.388 107.578 650.388 111.878C650.388 116.378 650.588 125.378 650.688 128.078C650.988 135.878 652.288 138.278 655.788 139.678C659.188 140.978 660.288 142.078 660.288 143.478C660.288 144.678 659.188 145.378 656.888 145.378C654.088 145.378 650.688 144.978 645.988 144.978C641.288 144.978 638.788 145.378 637.488 145.378C634.488 145.378 633.488 144.278 633.488 143.278C633.488 141.978 634.688 141.078 636.488 140.478C641.088 138.978 642.888 138.678 643.388 131.978C643.888 125.278 644.688 101.378 644.688 98.1783C644.688 97.5783 644.188 95.4783 642.888 93.9783C640.788 91.5783 638.988 90.3783 636.688 89.8783C634.388 89.3783 632.488 88.1783 632.488 86.2783ZM751.251 83.1783C757.751 83.1783 761.451 84.2783 765.651 85.3783C767.751 85.9783 769.851 86.2783 771.151 86.2783C771.851 86.2783 772.951 87.3783 773.151 88.4783C773.751 91.1783 775.151 96.2783 775.151 100.278C775.151 101.778 774.151 104.178 772.651 104.178C771.651 104.178 770.951 103.878 769.451 101.178C768.151 98.7783 767.151 96.0783 764.651 93.8783C759.451 89.2783 753.351 88.5783 750.651 88.5783C736.751 88.5783 731.851 101.778 731.851 113.478C731.851 129.978 741.251 141.478 752.751 141.478C753.651 141.478 756.151 140.878 757.251 140.078C758.251 139.378 758.651 135.978 758.651 133.678C758.651 129.878 758.551 126.178 758.451 124.878C758.251 122.878 757.851 121.178 754.151 120.278C750.751 119.478 749.451 118.478 749.451 116.978C749.451 116.078 750.551 114.678 753.551 114.678C756.351 114.678 759.251 115.178 762.551 115.178C765.551 115.178 775.351 114.678 777.351 114.678C780.151 114.678 781.051 115.778 781.051 116.978C781.051 118.378 779.151 119.478 777.851 119.978C774.351 121.178 774.551 122.878 774.451 124.278C774.251 126.578 774.251 123.278 774.251 132.378C774.251 133.678 774.351 135.078 774.551 136.678C774.651 137.378 774.851 138.378 774.851 139.578C774.851 139.878 773.651 141.378 773.451 141.478C772.251 142.378 769.751 143.678 765.551 144.878C761.651 145.978 756.751 146.978 751.851 146.978C735.451 146.978 726.151 142.078 719.751 134.278C715.251 128.778 713.551 121.478 713.551 114.978C713.551 104.178 718.151 96.6783 726.051 90.6783C731.751 86.2783 742.151 83.1783 751.251 83.1783ZM187.14 170.358C187.14 168.928 189.09 166.718 191.95 166.718C195.2 166.718 215.74 167.238 216.52 167.238C217.17 167.238 218.99 169.448 219.12 169.708C219.64 171.528 221.33 174.648 224.06 181.018C226.92 187.648 236.93 209.878 239.92 213.518C239.92 213.648 241.09 214.168 241.48 213.258C245.77 204.028 251.49 192.068 255.78 182.188C258.25 176.468 259.16 172.828 260.2 169.968C260.46 169.188 261.89 167.498 262.67 167.498C264.88 167.498 283.6 166.588 287.76 166.588C289.06 166.588 292.05 167.888 292.05 169.708C292.05 171.268 290.88 172.048 288.28 172.828C279.96 175.298 279.7 175.948 279.7 179.328C279.7 197.788 280.61 212.738 281.13 226.258C281.52 236.918 284.25 237.698 288.67 238.738C292.7 239.648 294 241.078 294 242.638C294 243.938 291.53 245.758 288.8 245.758C287.24 245.758 272.68 244.978 266.44 244.978C260.59 244.978 257.34 245.498 254.22 245.498C250.97 245.498 250.06 242.768 250.06 241.858C250.06 240.818 252.14 239.778 252.79 239.518C259.16 237.308 260.33 235.748 260.46 228.598C260.59 225.218 260.33 201.818 260.72 189.338C260.72 188.688 259.81 188.818 259.16 189.988C257.47 193.108 246.16 220.278 243.43 226.778C242 230.158 239.92 236.398 238.1 240.818C236.8 243.808 234.46 245.888 231.6 245.888C230.43 245.888 228.48 243.678 227.83 241.468C225.88 235.098 223.28 228.858 222.11 225.478C216.39 209.358 211.19 199.478 207.94 191.548C207.42 190.248 206.38 190.508 206.38 191.418C205.34 206.368 204.69 221.318 204.69 227.948C204.69 235.748 205.6 236.138 212.49 238.868C215.35 240.038 216.65 240.818 216.65 242.508C216.65 243.938 214.83 245.498 211.84 245.498C210.02 245.498 205.34 244.978 201.57 244.978C197.41 244.978 187.92 245.758 186.23 245.758C183.76 245.758 181.42 244.458 181.42 242.768C181.42 241.598 182.59 240.298 185.71 239.258C192.21 237.178 194.29 234.578 195.2 229.118C196.76 220.148 199.75 189.858 200.01 183.098C200.27 176.078 198.32 175.168 191.82 173.348C188.57 172.438 187.14 171.398 187.14 170.358ZM314.14 216.508V186.478C314.14 175.558 313.62 174.128 306.6 172.568C304.39 172.048 303.09 170.488 303.09 169.318C303.09 167.368 306.21 166.718 307.51 166.718C309.98 166.718 318.17 167.238 323.89 167.238C331.69 167.238 338.06 166.848 341.83 166.848C343.78 166.848 345.86 167.888 345.86 169.578C345.86 171.138 343.65 172.178 342.61 172.438C336.24 173.868 335.85 175.558 335.33 182.318C334.94 187.908 334.81 199.218 334.81 208.058C334.81 222.228 335.07 227.298 335.07 228.988C335.33 235.098 335.98 237.698 342.48 239.258C344.95 239.908 346.64 241.208 346.64 243.028C346.64 244.588 343.78 245.368 342.22 245.368C340.92 245.368 328.31 244.978 323.89 244.978C319.34 244.978 309.85 245.498 307.51 245.498C305.82 245.498 303.09 245.108 303.09 243.028C303.09 241.598 305.17 239.908 306.99 239.388C312.19 237.698 312.97 236.138 313.62 232.238C314.01 229.508 314.14 227.168 314.14 216.508ZM406.385 164.638C412.365 164.638 418.345 165.938 421.855 166.848C425.105 167.758 429.785 169.188 430.825 169.188C431.475 169.188 433.035 170.878 433.035 171.658C433.035 176.338 434.335 182.968 434.335 186.218C434.335 189.858 431.865 191.938 430.175 191.938C429.135 191.938 428.485 190.898 427.445 188.038C425.495 182.708 424.715 179.848 419.905 176.338C415.875 173.348 411.325 171.138 405.735 171.138C400.145 171.138 392.995 174.388 388.705 179.588C383.115 186.218 380.515 196.098 380.515 203.898C380.515 213.778 383.765 222.618 387.535 227.948C392.215 234.578 400.795 239.388 408.595 239.388C411.845 239.388 417.695 237.308 420.295 235.878C421.335 235.228 423.675 232.758 426.925 227.558C429.395 223.658 430.955 222.098 432.255 222.098C434.725 222.098 434.985 224.568 434.855 227.298C434.855 228.468 432.385 237.178 432.385 239.648C432.385 240.038 431.345 241.858 430.955 242.118C426.405 244.328 414.835 247.318 405.865 247.318C391.435 247.318 376.095 243.028 366.865 232.888C361.145 226.648 357.115 218.068 357.115 206.498C357.115 192.588 363.355 180.888 374.795 172.958C380.645 168.928 392.865 164.638 406.385 164.638ZM518.279 187.648C518.279 192.588 515.809 198.178 512.429 201.038C510.479 202.728 508.659 203.118 505.929 204.678C505.279 205.068 505.929 207.538 506.319 208.318C509.179 214.038 515.029 223.658 519.969 229.898C524.519 235.618 528.549 237.828 532.579 239.388C533.879 239.908 535.569 241.078 535.569 242.248C535.569 245.628 531.409 246.668 527.899 246.668C517.499 246.668 507.489 245.628 498.389 233.798C493.709 227.688 490.199 221.188 486.559 215.338C484.479 211.958 482.659 211.308 480.579 211.308C479.669 211.308 479.539 212.868 479.539 213.258C479.539 223.658 479.539 226.778 479.929 231.328C480.319 236.008 481.619 236.138 486.819 238.608C489.159 239.778 490.719 241.208 490.719 242.248C490.719 243.678 487.989 245.498 485.779 245.498C482.529 245.498 472.519 244.978 467.969 244.978C463.939 244.978 457.829 245.498 453.019 245.498C449.899 245.498 448.079 243.938 448.079 242.638C448.079 240.818 449.899 239.518 452.369 238.868C457.699 237.308 458.999 236.268 459.259 229.768C459.389 225.088 459.389 222.748 459.389 199.348C459.389 183.358 458.999 182.578 458.739 179.848C458.479 177.248 457.309 174.648 452.369 173.738C449.899 173.218 448.339 171.268 448.339 170.358C448.339 168.148 450.939 166.978 454.059 166.978C460.689 166.978 462.899 167.238 464.589 167.238C473.169 167.238 480.319 166.458 489.419 166.458C500.859 166.458 506.839 168.928 509.959 171.268C515.549 175.558 518.279 180.758 518.279 187.648ZM498.259 189.858C498.259 181.668 492.669 173.608 483.309 173.608C482.789 173.608 480.839 174.128 480.059 174.648C479.669 174.908 479.279 175.558 479.279 176.728C479.279 180.368 479.539 192.458 479.539 201.168C479.539 201.688 480.059 203.248 480.579 203.508C482.399 204.288 484.089 204.678 486.299 204.678C489.159 204.678 493.839 201.688 494.619 201.168C495.399 200.648 498.259 196.098 498.259 189.858ZM584.653 164.638C611.693 164.638 629.893 182.838 629.893 206.108C629.893 222.358 620.273 235.098 608.053 241.858C602.463 244.978 593.363 247.318 585.043 247.318C557.613 247.318 539.673 228.598 539.673 206.108C539.673 196.098 543.443 186.218 551.503 178.158C559.953 169.708 572.433 164.638 584.653 164.638ZM582.313 171.398C576.203 171.398 570.743 176.598 570.613 176.728C565.153 182.708 562.813 191.548 562.813 203.768C562.813 221.448 570.873 240.688 588.423 240.688C592.843 240.688 598.043 236.788 598.693 236.268C602.853 232.368 606.233 224.178 606.233 207.018C606.233 193.368 599.473 171.398 582.313 171.398ZM691.346 191.938C691.346 184.658 688.356 179.328 687.706 178.418C687.186 177.768 682.506 173.478 677.696 173.478C676.266 173.478 674.576 173.998 674.056 174.518C673.666 174.908 673.146 175.688 673.146 176.338C672.756 181.538 672.626 198.178 672.626 203.508C672.626 216.508 672.756 226.518 672.756 227.818C672.756 235.098 674.446 237.048 681.466 238.998C684.586 239.908 685.886 240.818 685.886 242.638C685.886 243.808 684.066 245.368 680.686 245.368C676.786 245.368 671.066 244.978 665.736 244.978C661.056 244.978 648.836 245.758 644.546 245.758C641.296 245.758 639.086 244.588 639.086 242.898C639.086 241.208 640.386 240.038 644.156 238.868C649.746 237.048 650.656 234.838 651.046 231.458C651.306 228.858 652.216 212.868 652.216 194.798C652.216 189.208 652.086 182.968 651.696 179.978C651.436 176.988 650.396 174.648 644.676 173.348C642.596 172.828 640.126 170.878 640.126 169.578C640.126 167.238 641.946 166.718 644.156 166.718C649.746 166.718 653.386 167.238 659.886 167.238C664.306 167.238 671.196 166.588 681.336 166.588C692.646 166.588 700.966 170.098 705.386 174.648C708.506 177.898 712.406 185.048 712.406 191.808C712.406 201.948 706.426 209.098 703.826 211.308C698.496 215.728 692.906 217.678 686.926 217.678C683.546 217.678 681.596 217.158 679.646 215.858C678.216 214.948 677.046 213.648 677.046 212.998C677.046 211.568 677.566 210.658 678.606 210.528C679.126 210.398 679.776 210.398 680.426 210.268C683.546 209.488 691.346 207.538 691.346 191.938ZM723.561 169.578C723.561 167.498 726.031 166.978 727.721 166.978C728.371 166.978 739.681 167.238 744.881 167.238C750.081 167.238 760.221 166.848 762.821 166.848C765.551 166.848 767.111 168.148 767.111 169.708C767.111 171.268 765.421 172.568 762.691 173.088C755.411 174.648 755.021 177.508 754.891 180.238C754.631 183.228 754.111 190.508 754.111 201.688C754.111 215.338 754.501 227.818 754.761 232.238C754.891 234.188 758.011 236.918 762.951 238.088C764.771 238.478 769.061 238.608 773.741 237.698C777.641 236.918 784.141 229.248 786.871 224.308C788.171 221.838 789.601 220.928 789.991 220.928C792.331 220.928 793.891 223.658 793.241 225.998C792.331 229.248 789.861 239.518 788.951 242.118C788.171 244.068 785.831 245.368 783.231 245.368C778.681 245.368 764.901 244.978 748.781 244.978C739.941 244.978 726.941 245.628 724.081 245.628C721.221 245.628 719.011 244.198 719.011 242.378C719.011 240.558 720.961 239.648 723.171 239.258C731.881 237.568 732.791 234.448 733.051 231.458C733.311 227.558 733.571 222.098 733.571 206.628C733.571 183.098 733.701 183.358 733.441 179.848C733.051 175.558 731.621 174.908 727.331 173.088C724.601 171.918 723.561 171.008 723.561 169.578ZM851.203 164.638C853.543 164.638 854.323 168.538 857.703 177.248C864.723 196.098 875.383 221.318 878.893 229.248C882.143 236.528 883.963 236.658 889.033 238.738C892.023 240.038 893.063 241.988 893.063 243.418C893.063 244.978 890.983 245.628 888.513 245.628C884.483 245.628 874.343 244.978 867.973 244.978C862.383 244.978 858.873 245.628 854.193 245.628C850.553 245.628 849.383 244.068 849.383 243.158C849.383 241.598 850.943 239.778 853.413 238.738C857.963 236.788 857.963 233.928 857.313 231.718C856.143 228.468 856.013 227.818 854.323 223.918C854.193 223.528 853.023 222.098 850.943 221.838C848.733 221.578 832.483 221.318 829.493 221.968C828.713 222.098 827.673 223.398 827.413 223.918C826.373 226.518 825.333 231.458 825.333 233.148C825.333 235.488 827.023 237.438 831.183 238.868C833.003 239.518 834.953 240.558 834.953 242.248C834.953 242.898 833.133 245.368 829.753 245.368C828.193 245.368 825.333 244.978 821.173 244.978C816.363 244.978 811.033 245.628 805.573 245.628C802.713 245.628 800.763 244.328 800.763 242.768C800.763 241.468 801.803 240.168 804.663 238.998C809.473 237.048 812.073 236.658 816.233 227.948C819.483 221.058 828.713 197.658 836.513 177.118C836.643 176.728 836.903 175.818 836.903 174.388C836.903 173.868 837.553 172.958 838.073 172.568C839.763 171.528 846.263 167.238 847.693 166.068C848.473 165.288 850.553 164.638 851.203 164.638ZM848.603 213.128C849.253 213.128 850.033 211.958 849.903 211.568C847.953 205.198 842.493 191.288 841.323 189.208C840.803 188.298 840.023 188.688 839.633 189.208C837.553 193.498 831.963 209.488 831.573 211.438C831.443 212.218 832.093 213.258 833.003 213.258C834.693 213.258 846.783 213.258 848.603 213.128ZM933.467 164.768C940.747 164.768 947.637 167.108 952.707 168.278C953.487 168.408 954.397 170.488 954.397 171.918C954.397 173.478 955.307 180.628 955.307 182.578C955.307 186.998 953.227 188.818 951.407 188.818C949.977 188.818 948.807 186.608 948.417 185.568C945.557 177.768 938.797 170.748 931.387 170.748C925.927 170.748 920.987 175.818 920.987 180.758C920.987 186.608 925.277 190.898 932.687 194.668C949.067 202.988 958.687 210.268 958.687 222.618C958.687 233.278 951.407 239.258 946.727 242.118C941.657 245.108 933.077 247.318 927.097 247.318C916.047 247.318 909.677 244.978 906.687 243.808C905.777 243.418 903.697 242.248 903.047 240.818C900.837 236.138 900.447 229.378 900.447 226.258C900.447 223.788 901.747 220.668 903.827 220.668C905.257 220.668 906.947 222.228 908.767 225.608C913.577 234.448 920.727 240.818 928.787 240.818C933.467 240.818 939.317 237.568 939.317 231.588C939.317 227.688 939.577 223.398 926.317 216.248C909.287 207.148 902.657 200.128 902.657 188.038C902.657 179.588 908.637 172.698 914.877 169.188C919.817 166.458 926.057 164.768 933.467 164.768ZM995.194 167.238H1034.97C1042.25 167.238 1045.5 166.328 1046.02 165.678C1047.58 163.728 1049.01 162.558 1049.92 162.558C1050.7 162.558 1054.08 164.638 1054.08 166.718C1054.08 167.628 1052.52 175.818 1052.52 184.528C1052.52 187.128 1050.57 189.988 1048.1 189.988C1046.28 189.988 1045.24 186.738 1044.98 185.568C1043.03 176.988 1040.82 176.728 1036.14 176.208C1034.19 175.948 1033.8 175.558 1022.75 175.558C1022.1 175.558 1021.71 176.598 1021.58 177.898C1021.45 179.718 1020.67 197.268 1020.67 205.458C1020.67 213.388 1020.54 221.968 1020.93 226.648C1021.71 236.138 1023.92 236.528 1029.25 238.478C1031.59 239.388 1033.8 240.558 1033.8 242.118C1033.8 244.978 1030.68 245.628 1028.08 245.628C1026.78 245.628 1012.48 244.978 1004.68 244.978C1000.91 244.978 993.894 245.368 990.384 245.368C987.654 245.368 985.054 244.198 985.054 241.858C985.054 240.818 986.354 238.998 989.344 238.218C997.404 236.008 999.614 234.318 999.614 227.168C999.614 224.438 999.874 207.148 999.874 198.698C999.874 190.638 1000 182.058 1000 178.028C1000 176.988 998.704 175.558 998.314 175.558C995.064 175.558 990.254 175.558 986.874 175.688C983.234 175.818 979.724 175.818 976.214 185.568C975.434 187.778 973.874 189.468 972.444 189.468C970.754 189.468 968.804 187.128 968.804 184.008C968.804 179.978 970.234 174.128 970.234 166.978C970.234 164.768 972.184 162.818 973.744 162.818C974.134 162.818 975.694 163.598 976.604 164.248C978.814 166.068 980.764 166.848 984.534 166.978C989.864 167.238 991.034 167.238 995.194 167.238ZM1075.35 216.508V186.478C1075.35 175.558 1074.83 174.128 1067.81 172.568C1065.6 172.048 1064.3 170.488 1064.3 169.318C1064.3 167.368 1067.42 166.718 1068.72 166.718C1071.19 166.718 1079.38 167.238 1085.1 167.238C1092.9 167.238 1099.27 166.848 1103.04 166.848C1104.99 166.848 1107.07 167.888 1107.07 169.578C1107.07 171.138 1104.86 172.178 1103.82 172.438C1097.45 173.868 1097.06 175.558 1096.54 182.318C1096.15 187.908 1096.02 199.218 1096.02 208.058C1096.02 222.228 1096.28 227.298 1096.28 228.988C1096.54 235.098 1097.19 237.698 1103.69 239.258C1106.16 239.908 1107.85 241.208 1107.85 243.028C1107.85 244.588 1104.99 245.368 1103.43 245.368C1102.13 245.368 1089.52 244.978 1085.1 244.978C1080.55 244.978 1071.06 245.498 1068.72 245.498C1067.03 245.498 1064.3 245.108 1064.3 243.028C1064.3 241.598 1066.38 239.908 1068.2 239.388C1073.4 237.698 1074.18 236.138 1074.83 232.238C1075.22 229.508 1075.35 227.168 1075.35 216.508ZM1167.6 164.638C1173.58 164.638 1179.56 165.938 1183.07 166.848C1186.32 167.758 1191 169.188 1192.04 169.188C1192.69 169.188 1194.25 170.878 1194.25 171.658C1194.25 176.338 1195.55 182.968 1195.55 186.218C1195.55 189.858 1193.08 191.938 1191.39 191.938C1190.35 191.938 1189.7 190.898 1188.66 188.038C1186.71 182.708 1185.93 179.848 1181.12 176.338C1177.09 173.348 1172.54 171.138 1166.95 171.138C1161.36 171.138 1154.21 174.388 1149.92 179.588C1144.33 186.218 1141.73 196.098 1141.73 203.898C1141.73 213.778 1144.98 222.618 1148.75 227.948C1153.43 234.578 1162.01 239.388 1169.81 239.388C1173.06 239.388 1178.91 237.308 1181.51 235.878C1182.55 235.228 1184.89 232.758 1188.14 227.558C1190.61 223.658 1192.17 222.098 1193.47 222.098C1195.94 222.098 1196.2 224.568 1196.07 227.298C1196.07 228.468 1193.6 237.178 1193.6 239.648C1193.6 240.038 1192.56 241.858 1192.17 242.118C1187.62 244.328 1176.05 247.318 1167.08 247.318C1152.65 247.318 1137.31 243.028 1128.08 232.888C1122.36 226.648 1118.33 218.068 1118.33 206.498C1118.33 192.588 1124.57 180.888 1136.01 172.958C1141.86 168.928 1154.08 164.638 1167.6 164.638ZM1242.6 164.768C1249.88 164.768 1256.77 167.108 1261.84 168.278C1262.62 168.408 1263.53 170.488 1263.53 171.918C1263.53 173.478 1264.44 180.628 1264.44 182.578C1264.44 186.998 1262.36 188.818 1260.54 188.818C1259.11 188.818 1257.94 186.608 1257.55 185.568C1254.69 177.768 1247.93 170.748 1240.52 170.748C1235.06 170.748 1230.12 175.818 1230.12 180.758C1230.12 186.608 1234.41 190.898 1241.82 194.668C1258.2 202.988 1267.82 210.268 1267.82 222.618C1267.82 233.278 1260.54 239.258 1255.86 242.118C1250.79 245.108 1242.21 247.318 1236.23 247.318C1225.18 247.318 1218.81 244.978 1215.82 243.808C1214.91 243.418 1212.83 242.248 1212.18 240.818C1209.97 236.138 1209.58 229.378 1209.58 226.258C1209.58 223.788 1210.88 220.668 1212.96 220.668C1214.39 220.668 1216.08 222.228 1217.9 225.608C1222.71 234.448 1229.86 240.818 1237.92 240.818C1242.6 240.818 1248.45 237.568 1248.45 231.588C1248.45 227.688 1248.71 223.398 1235.45 216.248C1218.42 207.148 1211.79 200.128 1211.79 188.038C1211.79 179.588 1217.77 172.698 1224.01 169.188C1228.95 166.458 1235.19 164.768 1242.6 164.768Z" fill="white"/>
</svg>
