<svg width="76" height="224" viewBox="0 0 76 224" fill="none" xmlns="http://www.w3.org/2000/svg">
<path d="M59.8866 175.079V172.579H57.3866V175.079H59.8866ZM74.8755 175.079H77.3755V172.579H74.8755V175.079ZM74.8755 223.622V226.122H77.3755V223.622H74.8755ZM72.8244 223.622L71.2399 225.556L71.931 226.122H72.8244V223.622ZM52.208 208.37L50.7895 210.429L50.7913 210.43L52.208 208.37ZM16.8131 198.115L18.501 199.959L18.5094 199.951L18.5178 199.943L16.8131 198.115ZM22.8612 222.675V225.175H28.688L24.673 220.953L22.8612 222.675ZM7.45155 222.675L5.35428 224.036L6.09345 225.175H7.45155V222.675ZM6.03155 185.072L7.89137 186.742L7.89834 186.735L6.03155 185.072ZM59.8866 198.746L58.3373 200.708L62.3866 203.905V198.746H59.8866ZM59.8866 177.579H74.8755V172.579H59.8866V177.579ZM72.3755 175.079V223.622H77.3755V175.079H72.3755ZM74.8755 221.122H72.8244V226.122H74.8755V221.122ZM74.4088 221.688C68.9025 217.177 61.9695 212.05 53.6247 206.31L50.7913 210.43C59.0658 216.121 65.8771 221.162 71.2399 225.556L74.4088 221.688ZM53.6265 206.312C45.2977 200.573 39.1831 196.805 35.4192 195.187L33.4441 199.78C36.6926 201.177 42.4288 204.668 50.7895 210.429L53.6265 206.312ZM35.4192 195.187C31.6499 193.566 27.9135 192.722 24.2286 192.722V197.722C27.1355 197.722 30.201 198.386 33.4441 199.78L35.4192 195.187ZM24.2286 192.722C20.7325 192.722 17.6483 193.918 15.1084 196.286L18.5178 199.943C20.1151 198.454 21.9746 197.722 24.2286 197.722V192.722ZM15.1252 196.27C12.5618 198.617 11.2101 201.573 11.2101 205.004H16.2101C16.2101 203.036 16.9271 201.399 18.501 199.959L15.1252 196.27ZM11.2101 205.004C11.2101 211.317 14.7778 217.802 21.0495 224.398L24.673 220.953C18.7432 214.716 16.2101 209.42 16.2101 205.004H11.2101ZM22.8612 220.175H7.45155V225.175H22.8612V220.175ZM9.54883 221.315C5.06742 214.407 2.95671 208.02 2.95671 202.112H-2.04329C-2.04329 209.246 0.50923 216.568 5.35428 224.036L9.54883 221.315ZM2.95671 202.112C2.95671 195.317 4.69792 190.297 7.89135 186.742L4.17175 183.401C-0.0679321 188.121 -2.04329 194.461 -2.04329 202.112H2.95671ZM7.89834 186.735C11.0625 183.182 15.4364 181.313 21.336 181.313V176.313C14.2628 176.313 8.43374 178.616 4.16476 183.409L7.89834 186.735ZM21.336 181.313C25.196 181.313 30.2096 182.776 36.4784 186.017C42.7119 189.24 49.9939 194.12 58.3373 200.708L61.4358 196.784C52.9495 190.083 45.3916 184.997 38.7749 181.576C32.1935 178.173 26.3467 176.313 21.336 176.313V181.313ZM62.3866 198.746V175.079H57.3866V198.746H62.3866ZM10.5019 122.013L11.8633 124.11L11.8709 124.105L10.5019 122.013ZM65.7769 121.803L64.439 123.914L65.7769 121.803ZM65.8295 158.67L67.2112 160.754L67.2188 160.749L65.8295 158.67ZM10.3967 158.565L8.98739 160.63L8.98977 160.631L10.3967 158.565ZM56.731 133.794L57.6113 131.454L57.6038 131.451L56.731 133.794ZM19.3375 133.794L20.2285 136.13L20.2431 136.124L20.2576 136.118L19.3375 133.794ZM19.2323 146.889L18.2622 149.193L18.2743 149.198L19.2323 146.889ZM56.6784 146.889L57.5637 149.227L57.5774 149.222L57.5911 149.217L56.6784 146.889ZM2.95671 140.21C2.95671 133.299 5.85446 128.011 11.8632 124.11L9.14062 119.916C1.75578 124.71 -2.04329 131.554 -2.04329 140.21H2.95671ZM11.8709 124.105C18.0194 120.081 26.5813 117.939 37.7976 117.939V112.939C26.0133 112.939 16.3781 115.179 9.13293 119.921L11.8709 124.105ZM37.7976 117.939C49.5042 117.939 58.297 120.023 64.439 123.914L67.1148 119.691C59.8632 115.097 50.0032 112.939 37.7976 112.939V117.939ZM64.439 123.914C70.4166 127.701 73.3222 132.972 73.3222 140H78.3222C78.3222 131.249 74.5309 124.389 67.1148 119.691L64.439 123.914ZM73.3222 140C73.3222 147.157 70.4099 152.601 64.4403 156.592L67.2188 160.749C74.5726 155.833 78.3222 148.831 78.3222 140H73.3222ZM64.4478 156.587C58.3469 160.632 49.6749 162.797 38.1657 162.797V167.797C50.2181 167.797 59.9886 165.543 67.2112 160.754L64.4478 156.587ZM38.1657 162.797C26.5127 162.797 17.822 160.596 11.8037 156.498L8.98977 160.631C16.1547 165.51 25.9767 167.797 38.1657 167.797V162.797ZM11.8061 156.5C5.82918 152.421 2.95671 147.059 2.95671 140.21H-2.04329C-2.04329 148.789 1.71094 155.663 8.98739 160.63L11.8061 156.5ZM64.5429 140.21C64.5429 138.194 63.9207 136.349 62.6406 134.803C61.3949 133.298 59.6477 132.22 57.6113 131.454L55.8506 136.134C57.3555 136.7 58.2642 137.357 58.7892 137.991C59.2797 138.584 59.5429 139.281 59.5429 140.21H64.5429ZM57.6038 131.451C53.5524 129.942 46.4291 129.295 36.6405 129.295V134.295C46.4866 134.295 52.757 134.981 55.8582 136.136L57.6038 131.451ZM36.6405 129.295C28.4532 129.295 22.2632 129.947 18.4174 131.469L20.2576 136.118C23.1437 134.976 28.4891 134.295 36.6405 134.295V129.295ZM18.4465 131.458C16.453 132.218 14.7487 133.314 13.5423 134.857C12.3116 136.43 11.736 138.294 11.736 140.315H16.736C16.736 139.286 17.0107 138.538 17.4805 137.937C17.9746 137.306 18.821 136.666 20.2285 136.13L18.4465 131.458ZM11.736 140.315C11.736 142.304 12.3034 144.139 13.4947 145.707C14.6627 147.244 16.316 148.374 18.2622 149.193L20.2025 144.585C18.8178 144.002 17.9729 143.336 17.4755 142.681C17.0013 142.057 16.736 141.307 16.736 140.315H11.736ZM18.2743 149.198C20.2601 150.022 23.0105 150.565 26.3623 150.914C29.7573 151.268 33.9442 151.44 38.902 151.44V146.44C34.0425 146.44 30.0425 146.271 26.8809 145.941C23.6762 145.607 21.5004 145.124 20.1904 144.58L18.2743 149.198ZM38.902 151.44C47.1797 151.44 53.4979 150.767 57.5637 149.227L55.7931 144.551C52.6361 145.747 47.1034 146.44 38.902 146.44V151.44ZM57.5911 149.217C59.6503 148.409 61.4054 147.284 62.6509 145.733C63.9267 144.145 64.5429 142.263 64.5429 140.21H59.5429C59.5429 141.208 59.2649 141.964 58.7526 142.602C58.21 143.278 57.2828 143.967 55.7657 144.562L57.5911 149.217ZM59.8866 56.2194V53.7194H57.3866V56.2194H59.8866ZM74.8755 56.2194H77.3755V53.7194H74.8755V56.2194ZM74.8755 104.762V107.262H77.3755V104.762H74.8755ZM72.8244 104.762L71.2399 106.696L71.931 107.262H72.8244V104.762ZM52.208 89.5106L50.7895 91.5692L50.7913 91.5704L52.208 89.5106ZM16.8131 79.255L18.501 81.0992L18.5094 81.0915L18.5178 81.0837L16.8131 79.255ZM22.8612 103.816V106.316H28.688L24.673 102.093L22.8612 103.816ZM7.45155 103.816L5.35428 105.176L6.09345 106.316H7.45155V103.816ZM6.03155 66.212L7.89137 67.8827L7.89834 67.8748L6.03155 66.212ZM59.8866 79.8861L58.3373 81.8482L62.3866 85.0454V79.8861H59.8866ZM59.8866 58.7194H74.8755V53.7194H59.8866V58.7194ZM72.3755 56.2194V104.762H77.3755V56.2194H72.3755ZM74.8755 102.262H72.8244V107.262H74.8755V102.262ZM74.4088 102.829C68.9025 98.317 61.9695 93.19 53.6247 87.4507L50.7913 91.5704C59.0658 97.2613 65.8771 102.302 71.2399 106.696L74.4088 102.829ZM53.6265 87.452C45.2977 81.7128 39.1831 77.9457 35.4192 76.3272L33.4441 80.9206C36.6926 82.3174 42.4288 85.8081 50.7895 91.5692L53.6265 87.452ZM35.4192 76.3272C31.6499 74.7064 27.9135 73.8624 24.2286 73.8624V78.8624C27.1355 78.8624 30.201 79.526 33.4441 80.9206L35.4192 76.3272ZM24.2286 73.8624C20.7325 73.8624 17.6483 75.0586 15.1084 77.4263L18.5178 81.0837C20.1151 79.5946 21.9746 78.8624 24.2286 78.8624V73.8624ZM15.1252 77.4108C12.5618 79.757 11.2101 82.7133 11.2101 86.1447H16.2101C16.2101 84.1765 16.9271 82.5397 18.501 81.0992L15.1252 77.4108ZM11.2101 86.1447C11.2101 92.4577 14.7778 98.9424 21.0495 105.538L24.673 102.093C18.7432 95.8567 16.2101 90.5605 16.2101 86.1447H11.2101ZM22.8612 101.316H7.45155V106.316H22.8612V101.316ZM9.54883 102.455C5.06742 95.5477 2.95671 89.1606 2.95671 83.2521H-2.04329C-2.04329 90.3865 0.50923 97.7086 5.35428 105.176L9.54883 102.455ZM2.95671 83.2521C2.95671 76.457 4.69792 71.4376 7.89135 67.8827L4.17175 64.5413C-0.0679321 69.261 -2.04329 75.6016 -2.04329 83.2521H2.95671ZM7.89834 67.8748C11.0625 64.3227 15.4364 62.4535 21.336 62.4535V57.4535C14.2628 57.4535 8.43374 59.7566 4.16476 64.5491L7.89834 67.8748ZM21.336 62.4535C25.196 62.4535 30.2096 63.916 36.4784 67.1573C42.7119 70.3804 49.9939 75.2604 58.3373 81.8482L61.4358 77.924C52.9495 71.2234 45.3916 66.1371 38.7749 62.7159C32.1935 59.313 26.3467 57.4535 21.336 57.4535V62.4535ZM62.3866 79.8861V56.2194H57.3866V79.8861H62.3866ZM43.2146 29.2919V31.7919H45.6166L45.7126 29.3918L43.2146 29.2919ZM30.2768 29.2919H27.7768V31.7919H30.2768V29.2919ZM27.6998 21.9815L25.8641 23.6786L25.8722 23.6873L25.8803 23.696L27.6998 21.9815ZM16.6027 43.0712V45.5712H20.6088L18.8484 41.9726L16.6027 43.0712ZM3.66487 43.0712L1.37562 44.0758L2.03185 45.5712H3.66487V43.0712ZM5.50562 9.30663L7.48246 10.8371L7.49015 10.827L5.50562 9.30663ZM35.4309 13.6718L33.241 14.8778L35.8133 19.5485L37.7586 14.5839L35.4309 13.6718ZM69.9844 7.88661L71.9154 6.29884L71.9084 6.29037L69.9844 7.88661ZM71.6673 44.9119V47.4119H73.208L73.9005 46.0356L71.6673 44.9119ZM57.4147 44.9119L55.369 43.4748L52.6031 47.4119H57.4147V44.9119ZM60.5703 21.0874L62.4882 19.4839L62.4806 19.4747L62.4728 19.4656L60.5703 21.0874ZM46.3176 20.9822L48.1317 22.7025L48.139 22.6947L48.1463 22.6869L46.3176 20.9822ZM43.2146 26.7919H30.2768V31.7919H43.2146V26.7919ZM32.7768 29.2919C32.7768 25.7506 31.7654 22.6507 29.5192 20.267L25.8803 23.696C27.0702 24.9587 27.7768 26.7324 27.7768 29.2919H32.7768ZM29.5354 20.2843C27.3769 17.9496 24.6744 16.6941 21.5464 16.6941V21.6941C23.1868 21.6941 24.5866 22.2968 25.8641 23.6786L29.5354 20.2843ZM21.5464 16.6941C18.314 16.6941 15.5822 18.0344 13.5138 20.5524L17.3775 23.7261C18.5348 22.3172 19.8702 21.6941 21.5464 21.6941V16.6941ZM13.5138 20.5524C11.4679 23.0431 10.5264 26.1261 10.5264 29.6074H15.5264C15.5264 27.0581 16.1977 25.1623 17.3775 23.7261L13.5138 20.5524ZM10.5264 29.6074C10.5264 34.1928 11.8571 39.0598 14.357 44.1698L18.8484 41.9726C16.5798 37.3354 15.5264 33.2266 15.5264 29.6074H10.5264ZM16.6027 40.5712H3.66487V45.5712H16.6027V40.5712ZM5.95413 42.0665C3.97771 37.5629 2.95671 32.3227 2.95671 26.2941H-2.04329C-2.04329 32.8878 -0.925503 38.8323 1.37562 44.0758L5.95413 42.0665ZM2.95671 26.2941C2.95671 19.7197 4.5378 14.6405 7.48243 10.8371L3.52881 7.77618C-0.258436 12.668 -2.04329 18.9139 -2.04329 26.2941H2.95671ZM7.49015 10.827C10.367 7.07196 13.9578 5.28513 18.4434 5.28513V0.285126C12.3404 0.285126 7.30597 2.84595 3.52109 7.78622L7.49015 10.827ZM18.4434 5.28513C24.7242 5.28513 29.6138 8.29161 33.241 14.8778L37.6208 12.4658C33.2539 4.53642 26.8185 0.285126 18.4434 0.285126V5.28513ZM37.7586 14.5839C39.2974 10.6566 41.4338 7.88206 44.0848 6.07286C46.7357 4.26372 50.0966 3.28659 54.3117 3.28659V-1.71341C49.3055 -1.71341 44.909 -0.542999 41.2663 1.94295C37.6238 4.42882 34.9303 8.09688 33.1032 12.7598L37.7586 14.5839ZM54.3117 3.28659C60.1408 3.28659 64.6402 5.36044 68.0603 9.48286L71.9084 6.29037C67.4746 0.946091 61.5257 -1.71341 54.3117 -1.71341V3.28659ZM68.0533 9.47438C71.4795 13.6414 73.3222 19.3699 73.3222 26.9252H78.3222C78.3222 18.5624 76.273 11.5986 71.9154 6.29886L68.0533 9.47438ZM73.3222 26.9252C73.3222 33.0425 72.0193 38.6505 69.4341 43.7882L73.9005 46.0356C76.8551 40.1639 78.3222 33.7808 78.3222 26.9252H73.3222ZM71.6673 42.4119H57.4147V47.4119H71.6673V42.4119ZM59.4603 46.3491C63.5309 40.5549 65.7525 34.8865 65.7525 29.3971H60.7525C60.7525 33.5145 59.0822 38.1894 55.369 43.4748L59.4603 46.3491ZM65.7525 29.3971C65.7525 25.5436 64.7301 22.1653 62.4882 19.4839L58.6523 22.691C59.9867 24.287 60.7525 26.4485 60.7525 29.3971H65.7525ZM62.4728 19.4656C60.1622 16.755 57.1107 15.3792 53.5228 15.3792V20.3792C55.6851 20.3792 57.3319 21.1422 58.6677 22.7092L62.4728 19.4656ZM53.5228 15.3792C49.9674 15.3792 46.8991 16.6921 44.4889 19.2775L48.1463 22.6869C49.593 21.135 51.3281 20.3792 53.5228 20.3792V15.3792ZM44.5036 19.262C42.0612 21.8375 40.8748 25.2385 40.7166 29.192L45.7126 29.3918C45.835 26.3328 46.7172 24.1941 48.1317 22.7025L44.5036 19.262Z" fill="white"/>
</svg>
