<svg width="176" height="126" viewBox="0 0 176 126" fill="none" xmlns="http://www.w3.org/2000/svg">
<g id="b">
<g id="b_2">
<g id="c">
<g id="d">
<path id="Vector" d="M175.756 62.66C162.756 81.32 145.926 86.47 129.116 86.47C97.9259 86.47 75.2859 53.82 44.6759 53.82C24.4659 53.82 14.0659 65.82 0.755859 83.74V62C14.2859 43.44 27.7559 38.8 44.1559 38.8C75.6759 38.8 102.156 70.6 127.876 70.6C148.556 70.6 161.226 60.16 174.756 40.92L175.756 62.67V62.66Z" fill="white"/>
<path id="Vector_2" d="M49.0059 71.69C54.3091 71.6702 59.4988 73.2248 63.9178 76.1569C68.3367 79.089 71.786 83.2667 73.8287 88.1607C75.8715 93.0548 76.4157 98.445 75.3925 103.649C74.3693 108.852 71.8247 113.635 68.0811 117.391C64.3375 121.148 59.5632 123.708 54.3631 124.749C49.163 125.79 43.771 125.264 38.8701 123.237C33.9692 121.211 29.7799 117.776 26.833 113.367C23.886 108.958 22.3139 103.773 22.3159 98.47C22.3498 91.3935 25.1698 84.6152 30.1653 79.6029C35.1608 74.5906 41.9295 71.7478 49.0059 71.69Z" fill="white"/>
<path id="Vector_3" d="M128.206 0.510012C133.505 0.508034 138.685 2.07755 143.092 5.02007C147.499 7.96259 150.934 12.1459 152.964 17.041C154.993 21.936 155.525 27.3229 154.492 32.5203C153.46 37.7178 150.909 42.4922 147.163 46.2399C143.417 49.9875 138.643 52.54 133.446 53.5745C128.249 54.609 122.862 54.0791 117.966 52.0517C113.07 50.0243 108.886 46.5906 105.941 42.1848C102.997 37.779 101.426 32.599 101.426 27.3C101.457 20.2063 104.289 13.412 109.304 8.39501C114.319 3.37802 121.112 0.544211 128.206 0.510012Z" fill="white"/>
</g>
</g>
</g>
</g>
</svg>
