<svg width="142" height="12" viewBox="0 0 142 12" fill="none" xmlns="http://www.w3.org/2000/svg">
<path d="M16.1152 6.36011C16.845 6.28283 17.5828 6.3513 18.2858 6.56152C18.9889 6.77175 19.6431 7.11954 20.2106 7.58472C20.7781 8.04989 21.2476 8.62313 21.5917 9.27124C21.9359 9.91935 22.1478 10.6294 22.2153 11.3601C22.1453 10.6216 22.2231 9.87652 22.444 9.16833C22.665 8.46015 23.0247 7.80299 23.5021 7.23523C23.9796 6.66747 24.5654 6.20043 25.2252 5.86133C25.885 5.52223 26.6057 5.31787 27.3453 5.26013C25.8622 5.38262 24.3906 4.91617 23.2489 3.96167C22.1072 3.00717 21.3874 1.64145 21.2452 0.160156C21.3765 1.66038 20.9118 3.15198 19.9518 4.31226C18.9918 5.47253 17.6135 6.20814 16.1152 6.36011Z" fill="#5D8CAB"/>
<path d="M0.21569 6.17985C0.257278 6.50386 0.363227 6.81622 0.527335 7.09868C0.691444 7.38113 0.910368 7.62791 1.17126 7.82451C1.43214 8.0211 1.72969 8.16355 2.04644 8.24345C2.36319 8.32335 2.69275 8.33916 3.01568 8.28984C3.67125 8.19288 4.26401 7.8464 4.67022 7.3228C5.07643 6.79919 5.26469 6.13888 5.19567 5.47978C5.15908 5.14994 5.05611 4.83092 4.893 4.54191C4.72988 4.2529 4.50997 3.99994 4.24651 3.79814C3.98306 3.59634 3.6815 3.44992 3.35998 3.36772C3.03846 3.28552 2.70365 3.26916 2.37566 3.31974C1.7118 3.41648 1.11281 3.77097 0.708488 4.30632C0.304168 4.84167 0.127122 5.51485 0.21569 6.17985Z" fill="#5D8CAB"/>
<path d="M54.1455 5.80969C55.6405 5.80436 57.0767 6.39172 58.1395 7.44324C59.2022 8.49475 59.8049 9.92468 59.8155 11.4197C59.8129 10.6813 59.956 9.94955 60.2368 9.2666C60.5175 8.58365 60.9303 7.96288 61.4515 7.43982C61.9727 6.91676 62.592 6.50181 63.274 6.21863C63.9559 5.93545 64.6871 5.78967 65.4255 5.78967C63.932 5.78976 62.4989 5.20054 61.4373 4.15015C60.3756 3.09976 59.7713 1.67304 59.7555 0.179688C59.7581 0.918084 59.615 1.64969 59.3342 2.33264C59.0535 3.01559 58.6406 3.63637 58.1194 4.15942C57.5982 4.68248 56.9789 5.09756 56.297 5.38074C55.6151 5.66392 54.8839 5.8097 54.1455 5.80969Z" fill="#5D8CAB"/>
<path d="M38.2457 5.93011C38.268 6.42822 38.4376 6.90841 38.7329 7.31011C39.0283 7.71182 39.4362 8.01691 39.9051 8.1867C40.3739 8.35649 40.8825 8.38337 41.3666 8.26397C41.8507 8.14457 42.2885 7.88423 42.6246 7.51592C42.9607 7.14762 43.18 6.68798 43.2547 6.195C43.3294 5.70202 43.2563 5.19788 43.0444 4.74652C42.8325 4.29516 42.4915 3.91684 42.0645 3.65936C41.6376 3.40187 41.1438 3.27686 40.6457 3.3001C39.9789 3.33122 39.3517 3.62563 38.9018 4.11871C38.4518 4.61179 38.2158 5.26325 38.2457 5.93011Z" fill="#5D8CAB"/>
<path d="M92.2256 5.4502C92.9683 5.48188 93.6967 5.66492 94.3661 5.98804C95.0356 6.31116 95.6321 6.76759 96.119 7.32935C96.6058 7.8911 96.9728 8.54641 97.1975 9.255C97.4222 9.9636 97.4998 10.7105 97.4256 11.4502C97.4782 10.7202 97.6763 10.0082 98.0082 9.35583C98.34 8.70352 98.7989 8.12411 99.358 7.65173C99.917 7.17936 100.565 6.82359 101.263 6.60522C101.962 6.38686 102.697 6.31036 103.426 6.38025C101.934 6.22809 100.559 5.50313 99.5912 4.35791C98.6232 3.21269 98.1372 1.73653 98.2356 0.240234C98.0865 1.71102 97.3814 3.06938 96.2643 4.03772C95.1473 5.00606 93.7027 5.51126 92.2256 5.4502Z" fill="#5D8CAB"/>
<path d="M76.3053 5.68994C76.2913 6.35656 76.537 7.00258 76.9904 7.49145C77.4438 7.98032 78.0695 8.27388 78.7352 8.31006C79.0623 8.32345 79.3888 8.2722 79.6961 8.1593C80.0033 8.04639 80.2853 7.87396 80.5258 7.65197C80.7664 7.42999 80.9608 7.1628 81.098 6.8656C81.2352 6.5684 81.3124 6.24712 81.3253 5.92004C81.3497 5.25226 81.1089 4.60195 80.6555 4.11108C80.2021 3.62021 79.5729 3.32865 78.9053 3.30005C78.5761 3.27977 78.2463 3.32614 77.9355 3.4364C77.6247 3.54665 77.3393 3.71848 77.0966 3.94165C76.8538 4.16481 76.6586 4.43468 76.5226 4.7351C76.3866 5.03553 76.3127 5.36026 76.3053 5.68994Z" fill="#5D8CAB"/>
<path d="M130.325 5C131.055 5.1 131.757 5.34475 132.391 5.71985C133.025 6.09494 133.577 6.59283 134.016 7.18433C134.455 7.77582 134.771 8.44897 134.946 9.16431C135.121 9.87964 135.151 10.6227 135.035 11.35C135.147 10.6168 135.403 9.91315 135.789 9.27966C136.174 8.64617 136.682 8.09545 137.282 7.6593C137.882 7.22316 138.562 6.9103 139.283 6.73877C140.005 6.56724 140.753 6.54049 141.485 6.66003C140.015 6.42596 138.697 5.62146 137.817 4.42126C136.937 3.22107 136.567 1.72209 136.785 0.25C136.544 1.72938 135.732 3.05527 134.524 3.94324C133.317 4.83121 131.809 5.21055 130.325 5Z" fill="#5D8CAB"/>
<path d="M114.375 5.56957C114.339 5.89425 114.368 6.22288 114.46 6.53636C114.552 6.84985 114.705 7.14196 114.911 7.39586C115.116 7.64976 115.37 7.86037 115.657 8.01549C115.945 8.17061 116.26 8.26727 116.585 8.29967C117.247 8.35984 117.906 8.16264 118.426 7.74913C118.945 7.33563 119.285 6.73758 119.375 6.07958C119.419 5.75158 119.395 5.41831 119.306 5.0996C119.218 4.78088 119.066 4.48332 118.859 4.22472C118.653 3.96612 118.397 3.75183 118.106 3.59459C117.815 3.43735 117.495 3.34048 117.165 3.30968C116.496 3.2424 115.828 3.44207 115.305 3.86534C114.783 4.28861 114.448 4.9011 114.375 5.56957Z" fill="#5D8CAB"/>
</svg>
