<?xml version="1.0" encoding="UTF-8" standalone="no"?>
<svg
   width="380"
   height="420"
   viewBox="0 0 380 420"
   fill="none"
   version="1.1"
   id="svg30"
   sodipodi:docname="Title.svg"
   inkscape:version="1.3 (0e150ed6c4, 2023-07-21)"
   xmlns:inkscape="http://www.inkscape.org/namespaces/inkscape"
   xmlns:sodipodi="http://sodipodi.sourceforge.net/DTD/sodipodi-0.dtd"
   xmlns="http://www.w3.org/2000/svg"
   xmlns:svg="http://www.w3.org/2000/svg">
  <defs
     id="defs30" />
  <sodipodi:namedview
     id="namedview30"
     pagecolor="#ffffff"
     bordercolor="#000000"
     borderopacity="0.25"
     inkscape:showpageshadow="2"
     inkscape:pageopacity="0.0"
     inkscape:pagecheckerboard="0"
     inkscape:deskcolor="#d1d1d1"
     inkscape:zoom="0.92572917"
     inkscape:cx="192.82097"
     inkscape:cy="318.1276"
     inkscape:window-width="1920"
     inkscape:window-height="1009"
     inkscape:window-x="-8"
     inkscape:window-y="284"
     inkscape:window-maximized="1"
     inkscape:current-layer="svg30" />
  <g
     id="g1"
     transform="translate(0,8.1483249)"
     style="fill:#ffffff">
    <path
       d="m 15.886,301.19234 v -21.677 c 0,-7.883 -0.375,-8.915 -5.442,-10.041 -1.596,-0.375 -2.534,-1.501 -2.534,-2.346 0,-1.408 2.252,-1.877 3.19,-1.877 1.783,0 7.695,0.375 11.824,0.375 5.631,0 10.229,-0.281 12.95,-0.281 1.408,0 2.909,0.751 2.909,1.971 0,1.126 -1.595,1.876 -2.346,2.064 -4.598,1.032 -4.879,2.252 -5.255,7.132 -0.281,4.035 -0.375,12.199 -0.375,18.58 0,10.229 0.188,13.889 0.188,15.108 0.187,4.411 0.656,6.288 5.348,7.414 1.783,0.469 3.003,1.407 3.003,2.721 0,1.126 -2.064,1.689 -3.19,1.689 -0.939,0 -10.041,-0.281 -13.232,-0.281 -3.284,0 -10.134,0.375 -11.824,0.375 -1.219,0 -3.19,-0.281 -3.19,-1.783 0,-1.032 1.501,-2.252 2.815,-2.627 3.754,-1.22 4.317,-2.346 4.786,-5.162 0.281,-1.97 0.375,-3.659 0.375,-11.354 z m 32.407,-33.313 c 0,-1.033 1.408,-2.628 3.472,-2.628 2.346,0 17.173,0.375 17.736,0.375 0.469,0 1.783,1.596 1.877,1.783 0.375,1.314 1.595,3.566 3.566,8.165 2.064,4.785 9.29,20.832 11.448,23.46 0,0.093 0.845,0.469 1.126,-0.188 3.097,-6.663 7.226,-15.296 10.323,-22.428 1.783,-4.129 2.44,-6.756 3.19,-8.821 0.188,-0.563 1.22,-1.783 1.783,-1.783 1.596,0 15.109,-0.657 18.112,-0.657 0.938,0 3.096,0.939 3.096,2.252 0,1.127 -0.844,1.69 -2.721,2.253 -6.006,1.783 -6.194,2.252 -6.194,4.692 0,13.325 0.657,24.116 1.033,33.876 0.281,7.695 2.252,8.258 5.442,9.008 2.909,0.657 3.848,1.69 3.848,2.816 0,0.938 -1.783,2.252 -3.754,2.252 -1.126,0 -11.636,-0.563 -16.14,-0.563 -4.223,0 -6.569,0.375 -8.821,0.375 -2.346,0 -3.003,-1.97 -3.003,-2.627 0,-0.751 1.501,-1.502 1.971,-1.689 4.598,-1.596 5.442,-2.722 5.536,-7.883 0.094,-2.44 -0.094,-19.331 0.188,-28.34 0,-0.469 -0.657,-0.375 -1.126,0.47 -1.22,2.252 -9.384,21.864 -11.355,26.556 -1.032,2.44 -2.534,6.944 -3.847,10.135 -0.939,2.158 -2.628,3.66 -4.692,3.66 -0.845,0 -2.253,-1.596 -2.722,-3.191 -1.407,-4.598 -3.284,-9.102 -4.129,-11.542 -4.129,-11.636 -7.882,-18.768 -10.228,-24.492 -0.376,-0.939 -1.126,-0.751 -1.126,-0.094 -0.751,10.791 -1.22,21.583 -1.22,26.369 0,5.63 0.657,5.912 5.63,7.882 2.065,0.845 3.003,1.408 3.003,2.628 0,1.032 -1.314,2.158 -3.472,2.158 -1.314,0 -4.692,-0.375 -7.413,-0.375 -3.003,0 -9.854,0.563 -11.074,0.563 -1.782,0 -3.472,-0.939 -3.472,-2.158 0,-0.845 0.845,-1.783 3.097,-2.534 4.692,-1.502 6.194,-3.378 6.85,-7.32 1.127,-6.475 3.285,-28.339 3.473,-33.219 0.187,-5.067 -1.22,-5.724 -5.912,-7.038 -2.346,-0.657 -3.379,-1.408 -3.379,-2.158 z m 119.921,15.577 c 0,-5.255 -2.159,-9.102 -2.628,-9.759 -0.375,-0.469 -3.754,-3.566 -7.226,-3.566 -1.032,0 -2.252,0.375 -2.627,0.751 -0.282,0.281 -0.657,0.844 -0.657,1.313 -0.282,3.754 -0.375,15.765 -0.375,19.613 0,9.384 0.093,16.61 0.093,17.548 0,5.255 1.22,6.663 6.288,8.07 2.252,0.657 3.19,1.314 3.19,2.628 0,0.844 -1.314,1.97 -3.753,1.97 -2.816,0 -6.945,-0.281 -10.792,-0.281 -3.378,0 -12.199,0.563 -15.296,0.563 -2.346,0 -3.941,-0.845 -3.941,-2.065 0,-1.22 0.938,-2.064 3.66,-2.909 4.035,-1.313 4.692,-2.909 4.973,-5.349 0.188,-1.876 0.845,-13.419 0.845,-26.462 0,-4.036 -0.094,-8.54 -0.376,-10.698 -0.187,-2.158 -0.938,-3.848 -5.067,-4.786 -1.501,-0.375 -3.284,-1.783 -3.284,-2.721 0,-1.69 1.313,-2.065 2.909,-2.065 4.035,0 6.662,0.375 11.354,0.375 3.191,0 8.164,-0.469 15.484,-0.469 8.164,0 14.17,2.534 17.36,5.818 2.252,2.346 5.068,7.508 5.068,12.387 0,7.32 -4.317,12.481 -6.194,14.076 -3.847,3.191 -7.882,4.598 -12.199,4.598 -2.44,0 -3.847,-0.375 -5.255,-1.313 -1.032,-0.657 -1.877,-1.596 -1.877,-2.065 0,-1.032 0.375,-1.689 1.126,-1.783 0.376,-0.094 0.845,-0.094 1.314,-0.187 2.252,-0.563 7.883,-1.971 7.883,-13.232 z m 49.594,-19.706 c 1.689,0 2.252,2.815 4.692,9.102 5.067,13.607 12.762,31.812 15.296,37.536 2.346,5.255 3.66,5.349 7.319,6.85 2.159,0.939 2.909,2.346 2.909,3.379 0,1.126 -1.501,1.595 -3.284,1.595 -2.909,0 -10.229,-0.469 -14.827,-0.469 -4.035,0 -6.568,0.469 -9.947,0.469 -2.627,0 -3.472,-1.126 -3.472,-1.783 0,-1.126 1.126,-2.44 2.909,-3.191 3.285,-1.407 3.285,-3.472 2.815,-5.067 -0.844,-2.346 -0.938,-2.815 -2.158,-5.63 -0.094,-0.282 -0.938,-1.314 -2.44,-1.502 -1.595,-0.187 -13.325,-0.375 -15.483,0.094 -0.563,0.094 -1.314,1.032 -1.502,1.408 -0.75,1.877 -1.501,5.442 -1.501,6.662 0,1.689 1.22,3.097 4.223,4.129 1.313,0.47 2.721,1.22 2.721,2.44 0,0.469 -1.314,2.252 -3.754,2.252 -1.126,0 -3.19,-0.281 -6.193,-0.281 -3.472,0 -7.32,0.469 -11.261,0.469 -2.064,0 -3.472,-0.938 -3.472,-2.064 0,-0.939 0.751,-1.877 2.815,-2.722 3.472,-1.407 5.349,-1.689 8.352,-7.976 2.346,-4.974 9.009,-21.865 14.639,-36.692 0.094,-0.281 0.282,-0.938 0.282,-1.97 0,-0.376 0.469,-1.033 0.844,-1.314 1.22,-0.751 5.912,-3.848 6.944,-4.692 0.563,-0.563 2.065,-1.032 2.534,-1.032 z m -1.877,35.002 c 0.469,0 1.032,-0.845 0.939,-1.126 -1.408,-4.598 -5.349,-14.639 -6.194,-16.141 -0.375,-0.656 -0.938,-0.375 -1.22,0 -1.501,3.097 -5.536,14.64 -5.818,16.047 -0.094,0.563 0.375,1.314 1.032,1.314 1.22,0 9.947,0 11.261,-0.094 z m 71.725,-35.002 c 4.317,0 8.634,0.938 11.167,1.595 2.346,0.657 5.725,1.689 6.475,1.689 0.47,0 1.596,1.22 1.596,1.783 0,3.378 0.938,8.164 0.938,10.51 0,2.628 -1.783,4.129 -3.003,4.129 -0.751,0 -1.22,-0.751 -1.97,-2.815 -1.408,-3.848 -1.971,-5.912 -5.443,-8.446 -2.909,-2.158 -6.194,-3.753 -10.229,-3.753 -4.035,0 -9.196,2.346 -12.293,6.099 -4.035,4.786 -5.912,11.918 -5.912,17.548 0,7.132 2.346,13.513 5.068,17.361 3.378,4.786 9.571,8.258 15.202,8.258 2.346,0 6.569,-1.502 8.445,-2.534 0.751,-0.469 2.44,-2.252 4.786,-6.006 1.783,-2.815 2.909,-3.941 3.848,-3.941 1.783,0 1.97,1.783 1.876,3.754 0,0.844 -1.783,7.131 -1.783,8.914 0,0.282 -0.75,1.596 -1.032,1.783 -3.284,1.596 -11.636,3.754 -18.111,3.754 -10.416,0 -21.489,-3.097 -28.152,-10.416 -4.129,-4.505 -7.038,-10.698 -7.038,-19.05 0,-10.041 4.504,-18.486 12.762,-24.211 4.223,-2.909 13.044,-6.005 22.803,-6.005 z m 48.113,1.876 h 28.715 c 5.255,0 7.601,-0.656 7.976,-1.126 1.126,-1.407 2.158,-2.252 2.815,-2.252 0.563,0 3.003,1.502 3.003,3.003 0,0.657 -1.126,6.569 -1.126,12.856 0,1.877 -1.408,3.942 -3.191,3.942 -1.313,0 -2.064,-2.347 -2.252,-3.191 -1.407,-6.193 -3.003,-6.381 -6.381,-6.757 -1.407,-0.187 -1.689,-0.469 -9.665,-0.469 -0.47,0 -0.751,0.751 -0.845,1.689 -0.094,1.314 -0.657,13.983 -0.657,19.894 0,5.725 -0.094,11.918 0.188,15.296 0.563,6.851 2.158,7.132 6.006,8.54 1.689,0.657 3.284,1.501 3.284,2.627 0,2.065 -2.252,2.534 -4.129,2.534 -0.938,0 -11.261,-0.469 -16.891,-0.469 -2.722,0 -7.789,0.281 -10.323,0.281 -1.97,0 -3.847,-0.844 -3.847,-2.533 0,-0.751 0.938,-2.065 3.097,-2.628 5.818,-1.595 7.413,-2.815 7.413,-7.976 0,-1.971 0.188,-14.452 0.188,-20.551 0,-5.818 0.094,-12.012 0.094,-14.921 0,-0.75 -0.939,-1.783 -1.22,-1.783 -2.346,0 -5.818,0 -8.258,0.094 -2.628,0.094 -5.161,0.094 -7.695,7.132 -0.563,1.595 -1.689,2.815 -2.721,2.815 -1.22,0 -2.628,-1.689 -2.628,-3.941 0,-2.909 1.032,-7.132 1.032,-12.293 0,-1.595 1.408,-3.003 2.534,-3.003 0.281,0 1.408,0.563 2.064,1.032 1.596,1.314 3.003,1.877 5.725,1.971 3.847,0.187 4.692,0.187 7.695,0.187 z"
       fill="white"
       id="path1"
       style="fill:#ffffff" />
    <path
       d="m 50.403,359.33734 c 0,3.425 -1.713,7.302 -4.057,9.285 -1.352,1.172 -2.614,1.443 -4.507,2.524 -0.451,0.271 0,1.984 0.27,2.525 1.984,3.966 6.04,10.637 9.466,14.964 3.155,3.967 5.95,5.5 8.745,6.581 0.901,0.361 2.073,1.172 2.073,1.984 0,2.344 -2.885,3.065 -5.319,3.065 -7.212,0 -14.153,-0.721 -20.464,-8.925 -3.245,-4.237 -5.679,-8.745 -8.203,-12.801 -1.443,-2.344 -2.705,-2.795 -4.147,-2.795 -0.631,0 -0.722,1.082 -0.722,1.352 0,7.212 0,9.376 0.271,12.531 0.27,3.245 1.172,3.336 4.778,5.048 1.623,0.812 2.704,1.803 2.704,2.525 0,0.991 -1.893,2.253 -3.425,2.253 -2.254,0 -9.196,-0.36 -12.351,-0.36 -2.795,0 -7.032,0.36 -10.367,0.36 -2.164,0 -3.426,-1.081 -3.426,-1.983 0,-1.262 1.262,-2.163 2.975,-2.614 3.696,-1.082 4.598,-1.803 4.778,-6.311 0.09,-3.245 0.09,-4.868 0.09,-21.095 0,-11.088 -0.27,-11.629 -0.451,-13.522 -0.18,-1.803 -0.991,-3.606 -4.417,-4.237 -1.713,-0.361 -2.795,-1.713 -2.795,-2.344 0,-1.533 1.803,-2.344 3.967,-2.344 4.598,0 6.13,0.18 7.302,0.18 5.95,0 10.908,-0.541 17.219,-0.541 7.933,0 12.08,1.713 14.244,3.336 3.876,2.975 5.769,6.581 5.769,11.359 z m -13.883,1.532 c 0,-5.679 -3.876,-11.269 -10.367,-11.269 -0.361,0 -1.713,0.361 -2.254,0.722 -0.27,0.18 -0.541,0.631 -0.541,1.442 0,2.524 0.18,10.908 0.18,16.948 0,0.361 0.361,1.443 0.722,1.623 1.262,0.541 2.434,0.811 3.966,0.811 1.984,0 5.229,-2.073 5.77,-2.434 0.541,-0.36 2.524,-3.516 2.524,-7.843 z m 48.501,-15.686 h 9.286 c 8.204,0 9.466,0 11.539,-0.451 0.992,-0.18 1.623,0.361 1.893,0.812 0.541,0.901 1.262,7.753 1.262,9.736 0,2.344 -1.081,2.885 -1.622,2.885 -1.623,0 -2.525,-0.992 -3.606,-3.426 -1.713,-3.696 -2.975,-4.327 -3.696,-4.327 -5.139,0 -10.097,0.27 -11.359,0.27 -0.451,0 -1.172,0.992 -1.172,1.353 -0.09,1.712 -0.271,8.203 -0.271,14.424 0,1.442 0.271,2.343 0.721,2.434 0.992,0.27 4.147,0.18 5.77,0.09 4.057,-0.271 5.319,-1.713 6.311,-3.967 0.54,-1.352 1.442,-2.434 2.434,-2.434 1.262,0 2.073,1.262 1.893,3.877 -0.09,1.081 -0.181,3.155 -0.181,5.228 0,2.074 0.181,4.147 0.271,5.499 0.18,2.434 -1.172,3.516 -2.074,3.516 -0.811,0 -1.983,-0.991 -2.794,-2.794 -0.902,-2.074 -1.172,-2.705 -3.065,-2.885 -3.696,-0.271 -4.237,-0.451 -8.294,-0.451 -0.451,0 -0.992,1.262 -0.992,3.516 0,2.434 0.271,7.663 0.361,9.646 0.18,2.614 0.541,3.606 0.811,3.967 0.902,1.352 5.229,2.524 9.556,2.524 1.442,0 3.967,-0.271 6.04,-1.443 1.713,-0.901 2.614,-1.983 4.598,-4.687 1.442,-1.984 2.434,-4.147 3.876,-4.147 1.713,0 2.254,2.614 1.893,4.507 -0.541,2.614 -2.704,8.655 -3.065,9.466 -0.27,0.631 -2.163,1.623 -2.704,1.623 -1.172,0 -4.778,-0.451 -21.185,-0.451 -5.68,0 -17.039,0.36 -20.915,0.36 -1.893,0 -3.246,-0.721 -3.246,-1.442 0,-1.082 0.722,-2.344 2.615,-2.885 6.22,-1.713 6.4,-3.786 6.581,-5.409 0.36,-4.327 0.45,-6.22 0.45,-20.103 0,-13.883 -0.18,-14.424 -0.45,-16.047 -0.451,-2.704 -1.623,-3.696 -5.229,-4.598 -2.344,-0.54 -2.705,-1.803 -2.705,-2.434 0,-1.172 1.803,-1.803 2.975,-1.803 1.533,0 11.54,0.451 17.489,0.451 z m 72.544,17.129 c 0,-5.049 -2.074,-8.745 -2.524,-9.376 -0.361,-0.451 -3.606,-3.426 -6.942,-3.426 -0.992,0 -2.164,0.361 -2.524,0.722 -0.271,0.27 -0.631,0.811 -0.631,1.262 -0.271,3.606 -0.361,15.145 -0.361,18.841 0,9.015 0.09,15.957 0.09,16.858 0,5.048 1.172,6.401 6.04,7.753 2.164,0.631 3.065,1.262 3.065,2.524 0,0.811 -1.262,1.893 -3.606,1.893 -2.704,0 -6.671,-0.27 -10.367,-0.27 -3.245,0 -11.719,0.541 -14.694,0.541 -2.254,0 -3.787,-0.812 -3.787,-1.984 0,-1.172 0.902,-1.983 3.516,-2.794 3.877,-1.262 4.508,-2.795 4.778,-5.139 0.181,-1.803 0.812,-12.891 0.812,-25.422 0,-3.877 -0.091,-8.204 -0.361,-10.277 -0.18,-2.074 -0.901,-3.696 -4.868,-4.598 -1.442,-0.36 -3.155,-1.713 -3.155,-2.614 0,-1.623 1.262,-1.983 2.794,-1.983 3.877,0 6.401,0.36 10.908,0.36 3.066,0 7.844,-0.451 14.875,-0.451 7.843,0 13.613,2.434 16.678,5.59 2.164,2.253 4.868,7.212 4.868,11.899 0,7.032 -4.147,11.99 -5.95,13.523 -3.696,3.065 -7.572,4.417 -11.719,4.417 -2.344,0 -3.696,-0.36 -5.049,-1.262 -0.991,-0.631 -1.803,-1.532 -1.803,-1.983 0,-0.992 0.361,-1.623 1.082,-1.713 0.361,-0.09 0.811,-0.09 1.262,-0.18 2.164,-0.541 7.573,-1.893 7.573,-12.711 z m 55.955,-18.932 c 18.752,0 31.373,12.621 31.373,28.758 0,11.269 -6.671,20.103 -15.146,24.791 -3.876,2.164 -10.187,3.787 -15.956,3.787 -19.022,0 -31.462,-12.982 -31.462,-28.578 0,-6.942 2.614,-13.793 8.203,-19.382 5.86,-5.86 14.514,-9.376 22.988,-9.376 z m -1.622,4.688 c -4.237,0 -8.024,3.606 -8.114,3.696 -3.786,4.147 -5.409,10.277 -5.409,18.751 0,12.261 5.59,25.603 17.76,25.603 3.065,0 6.671,-2.705 7.122,-3.065 2.884,-2.705 5.228,-8.384 5.228,-20.284 0,-9.466 -4.687,-24.701 -16.587,-24.701 z m 89.763,11.269 c 0,3.425 -1.713,7.302 -4.057,9.285 -1.352,1.172 -2.614,1.443 -4.507,2.524 -0.451,0.271 0,1.984 0.27,2.525 1.984,3.966 6.04,10.637 9.466,14.964 3.155,3.967 5.95,5.5 8.745,6.581 0.901,0.361 2.073,1.172 2.073,1.984 0,2.344 -2.885,3.065 -5.319,3.065 -7.212,0 -14.153,-0.721 -20.464,-8.925 -3.245,-4.237 -5.679,-8.745 -8.204,-12.801 -1.442,-2.344 -2.704,-2.795 -4.146,-2.795 -0.631,0 -0.722,1.082 -0.722,1.352 0,7.212 0,9.376 0.271,12.531 0.27,3.245 1.172,3.336 4.778,5.048 1.622,0.812 2.704,1.803 2.704,2.525 0,0.991 -1.893,2.253 -3.425,2.253 -2.254,0 -9.196,-0.36 -12.351,-0.36 -2.795,0 -7.032,0.36 -10.367,0.36 -2.164,0 -3.426,-1.081 -3.426,-1.983 0,-1.262 1.262,-2.163 2.975,-2.614 3.696,-1.082 4.598,-1.803 4.778,-6.311 0.09,-3.245 0.09,-4.868 0.09,-21.095 0,-11.088 -0.27,-11.629 -0.451,-13.522 -0.18,-1.803 -0.991,-3.606 -4.417,-4.237 -1.713,-0.361 -2.795,-1.713 -2.795,-2.344 0,-1.533 1.803,-2.344 3.967,-2.344 4.598,0 6.13,0.18 7.302,0.18 5.95,0 10.908,-0.541 17.219,-0.541 7.933,0 12.08,1.713 14.243,3.336 3.877,2.975 5.77,6.581 5.77,11.359 z m -13.883,1.532 c 0,-5.679 -3.876,-11.269 -10.367,-11.269 -0.361,0 -1.713,0.361 -2.254,0.722 -0.27,0.18 -0.541,0.631 -0.541,1.442 0,2.524 0.18,10.908 0.18,16.948 0,0.361 0.361,1.443 0.722,1.623 1.262,0.541 2.434,0.811 3.966,0.811 1.983,0 5.229,-2.073 5.77,-2.434 0.541,-0.36 2.524,-3.516 2.524,-7.843 z m 42.022,-15.686 h 27.586 c 5.048,0 7.302,-0.631 7.663,-1.082 1.081,-1.352 2.073,-2.163 2.704,-2.163 0.541,0 2.885,1.442 2.885,2.885 0,0.631 -1.082,6.31 -1.082,12.35 0,1.803 -1.352,3.786 -3.065,3.786 -1.262,0 -1.983,-2.253 -2.164,-3.065 -1.352,-5.95 -2.884,-6.13 -6.13,-6.491 -1.352,-0.18 -1.623,-0.45 -9.285,-0.45 -0.451,0 -0.722,0.721 -0.812,1.622 -0.09,1.263 -0.631,13.433 -0.631,19.112 0,5.499 -0.09,11.449 0.181,14.695 0.54,6.581 2.073,6.851 5.769,8.203 1.623,0.631 3.155,1.443 3.155,2.525 0,1.983 -2.163,2.434 -3.966,2.434 -0.902,0 -10.818,-0.451 -16.227,-0.451 -2.615,0 -7.483,0.27 -9.917,0.27 -1.893,0 -3.696,-0.811 -3.696,-2.434 0,-0.721 0.902,-1.983 2.975,-2.524 5.589,-1.533 7.122,-2.704 7.122,-7.663 0,-1.893 0.18,-13.883 0.18,-19.743 0,-5.589 0.09,-11.539 0.09,-14.333 0,-0.722 -0.901,-1.713 -1.172,-1.713 -2.253,0 -5.589,0 -7.933,0.09 -2.524,0.09 -4.958,0.09 -7.392,6.851 -0.541,1.533 -1.623,2.705 -2.614,2.705 -1.172,0 -2.525,-1.623 -2.525,-3.787 0,-2.794 0.992,-6.851 0.992,-11.809 0,-1.533 1.352,-2.885 2.434,-2.885 0.271,0 1.352,0.541 1.983,0.992 1.533,1.262 2.885,1.803 5.5,1.893 3.696,0.18 4.507,0.18 7.392,0.18 z"
       fill="white"
       id="path2"
       style="fill:#ffffff" />
    <path
       d="m 85.76,213.16034 h 2.5 v -2.5 h -2.5 z m 0,24.033 v 2.5 h 2.5 v -2.5 z m -77.833,0 h -2.5 v 2.5 h 2.5 z m 0,-3.289 -1.934,-1.584 -0.566,0.691 v 0.893 z m 24.455,-33.056 -2.059,-1.418 -0.001,0.002 z m 16.443,-56.7512 -1.844,1.6879 0.008,0.008 0.008,0.008 z m -39.38,9.6975 h -2.5 v 5.8267 l 4.223,-4.0149 z m 0,-24.7076 -1.361,-2.0972 -1.139,0.7391 v 1.3581 z m 60.293,-2.2768 -1.67,1.8599 0.007,0.007 z m -21.925,86.3501 -1.962,-1.549 -3.197,4.049 h 5.159 z m 35.447,0 v 24.033 h 5 v -24.033 z m 2.5,21.533 H 7.927 v 5 H 85.76 Z m -75.333,2.5 v -3.289 h -5 v 3.289 z m -0.566,-1.704 c 7.198,-8.786 15.393,-19.865 24.581,-33.224 l -4.12,-2.833 c -9.139,13.288 -17.248,24.246 -24.329,32.888 z m 24.579,-33.222 c 9.209,-13.364 15.166,-23.054 17.694,-28.9334 l -4.593,-1.9751 c -2.307,5.3645 -7.987,14.6755 -17.218,28.0715 z m 17.694,-28.9334 c 2.53,-5.8848 3.829,-11.6734 3.829,-17.3468 h -5 c 0,4.8954 -1.118,10.0131 -3.422,15.3717 z m 3.829,-17.3468 c 0,-5.2309 -1.778,-9.8066 -5.309,-13.5947 l -3.657,3.4094 c 2.652,2.8455 3.966,6.1965 3.966,10.1853 z m -5.294,-13.5779 c -3.488,-3.8116 -7.83,-5.7873 -12.89,-5.7873 v 5 c 3.597,0 6.619,1.341 9.202,4.1631 z m -12.89,-5.7873 c -9.55,0 -19.589,5.4082 -30.057,15.361 l 3.446,3.6235 c 10.108,-9.6109 18.958,-13.9845 26.611,-13.9845 z m -25.834,17.1727 v -24.7076 h -5 v 24.7076 z m -1.139,-22.6103 c 11.244,-7.2951 21.767,-10.8126 31.611,-10.8126 v -5 c -11.07,0 -22.528,3.9593 -34.333,11.6181 z m 31.611,-10.8126 c 11.153,0 19.599,2.8624 25.651,8.2983 l 3.341,-3.7196 c -7.216,-6.4821 -16.984,-9.5787 -28.992,-9.5787 z m 25.658,8.3053 c 6.07,5.4067 9.198,12.8587 9.198,22.6722 h 5 c 0,-10.987 -3.562,-19.8943 -10.872,-26.4058 z m 9.198,22.6722 c 0,6.5361 -2.465,14.8262 -7.711,24.9718 -5.227,10.1103 -13.114,21.8693 -23.711,35.2903 l 3.925,3.098 c 10.709,-13.563 18.802,-25.598 24.228,-36.092 5.407,-10.458 8.269,-19.5813 8.269,-27.2681 z m -29.46,64.3111 H 85.76 v -5 H 47.813 Z m 123.032,-81.6823 -2.097,1.3613 0.005,0.008 z m -58.775,88.7113 -2.084,1.381 0.006,0.008 z m 0.169,-88.88 -2.065,-1.4094 -0.002,0.002 z m 39.717,74.291 2.34,0.881 0.003,-0.008 z m 0,-59.9555 -2.336,0.8909 0.006,0.0146 0.006,0.0146 z m -20.997,-0.1687 -2.304,-0.9702 -0.005,0.0122 z m 0,60.0402 -2.338,0.885 0.005,0.014 0.006,0.014 z m 10.709,-87.6446 c 11.608,0 20.556,4.9181 27.08,14.9676 l 4.194,-2.7227 c -7.417,-11.4255 -17.921,-17.2449 -31.274,-17.2449 z m 27.085,14.9753 c 6.669,10.1891 10.133,24.2409 10.133,42.3963 h 5 c 0,-18.7234 -3.563,-33.8485 -10.949,-45.1343 z m 10.133,42.3963 c 0,18.921 -3.364,33.341 -9.815,43.524 l 4.223,2.675 c 7.154,-11.292 10.592,-26.779 10.592,-46.199 z m -9.815,43.524 c -6.347,10.018 -15.278,14.944 -27.065,14.944 v 5 c 13.51,0 24.031,-5.812 31.288,-17.269 z m -27.065,14.944 c -11.981,0 -21.181,-4.922 -27.858,-14.911 l -4.156,2.778 c 7.602,11.373 18.359,17.133 32.014,17.133 z m -27.853,-14.904 c -6.711,-10.12 -10.208,-24.356 -10.208,-42.974 h -5 c 0,19.161 3.586,34.495 11.041,45.737 z m -10.208,-42.974 c 0,-18.8457 3.555,-33.1214 10.36,-43.117 l -4.133,-2.814 c -7.586,11.1422 -11.227,26.5493 -11.227,45.931 z m 10.358,-43.1146 c 6.809,-9.9754 15.863,-14.847 27.365,-14.847 v -5 c -13.232,0 -23.799,5.7534 -31.494,17.0282 z m 27.365,83.8986 c 2.905,0 5.517,-0.889 7.708,-2.703 2.15,-1.78 3.752,-4.329 4.92,-7.433 l -4.68,-1.761 c -0.968,2.573 -2.149,4.283 -3.428,5.342 -1.238,1.025 -2.702,1.555 -4.52,1.555 z m 12.631,-10.144 c 2.313,-6.209 3.362,-17.373 3.362,-33.0852 h -5 c 0,15.7692 -1.088,26.0802 -3.047,31.3402 z m 3.362,-33.0852 c 0,-13.1167 -1.054,-22.7867 -3.38,-28.6635 l -4.649,1.8403 c 1.946,4.917 3.029,13.7425 3.029,26.8232 z m -3.369,-28.6343 c -1.152,-3.0196 -2.772,-5.4934 -4.97,-7.2129 -2.229,-1.7437 -4.881,-2.5758 -7.822,-2.5758 v 5 c 1.949,0 3.485,0.5312 4.742,1.514 1.287,1.0071 2.45,2.6231 3.378,5.0566 z m -12.792,-9.7887 c -2.888,0 -5.503,0.8187 -7.732,2.5124 -2.198,1.6704 -3.871,4.0774 -5.113,7.0285 l 4.608,1.9402 c 1.006,-2.3895 2.215,-3.9881 3.53,-4.9879 1.285,-0.9767 2.816,-1.4932 4.707,-1.4932 z m -12.85,9.553 c -1.237,2.9801 -2.088,7.2167 -2.644,12.5465 -0.56,5.3731 -0.836,12.0299 -0.836,19.9497 h 5 c 0,-7.8215 0.273,-14.2915 0.809,-19.4311 0.54,-5.1828 1.333,-8.8447 2.289,-11.149 z m -3.48,32.4962 c 0,13.249 1.086,23.143 3.451,29.387 l 4.676,-1.77 c -2.02,-5.336 -3.127,-14.444 -3.127,-27.617 z m 3.462,29.415 c 1.23,3.138 2.903,5.702 5.125,7.487 2.261,1.815 4.938,2.701 7.911,2.701 v -5 c -1.917,0 -3.47,-0.547 -4.78,-1.599 -1.347,-1.082 -2.583,-2.819 -3.602,-5.415 z m 147.705,4.231 h 2.5 v -2.5 h -2.5 z m 0,24.033 v 2.5 h 2.5 v -2.5 z m -77.833,0 h -2.5 v 2.5 h 2.5 z m 0,-3.289 -1.934,-1.584 -0.566,0.691 v 0.893 z m 24.455,-33.056 -2.059,-1.418 -0.001,0.002 z m 16.443,-56.7512 -1.844,1.6879 0.008,0.008 0.008,0.008 z m -39.38,9.6975 h -2.5 v 5.8267 l 4.223,-4.0149 z m 0,-24.7076 -1.361,-2.0972 -1.139,0.7391 v 1.3581 z m 60.293,-2.2768 -1.67,1.8599 0.007,0.007 z m -21.924,86.3501 -1.963,-1.549 -3.197,4.049 h 5.16 z m 35.446,0 v 24.033 h 5 v -24.033 z m 2.5,21.533 h -77.833 v 5 h 77.833 z m -75.333,2.5 v -3.289 h -5 v 3.289 z m -0.566,-1.704 c 7.198,-8.786 15.393,-19.865 24.581,-33.224 l -4.12,-2.833 c -9.139,13.288 -17.248,24.246 -24.329,32.888 z m 24.579,-33.222 c 9.209,-13.364 15.166,-23.054 17.694,-28.9334 l -4.593,-1.9751 c -2.307,5.3645 -7.987,14.6755 -17.218,28.0715 z m 17.694,-28.9334 c 2.531,-5.8848 3.829,-11.6734 3.829,-17.3468 h -5 c 0,4.8954 -1.118,10.0131 -3.422,15.3717 z m 3.829,-17.3468 c 0,-5.2309 -1.778,-9.8066 -5.309,-13.5947 l -3.657,3.4094 c 2.652,2.8455 3.966,6.1965 3.966,10.1853 z m -5.293,-13.5779 c -3.489,-3.8116 -7.831,-5.7873 -12.891,-5.7873 v 5 c 3.597,0 6.619,1.341 9.202,4.1631 z m -12.891,-5.7873 c -9.55,0 -19.589,5.4082 -30.057,15.361 l 3.446,3.6235 c 10.108,-9.6109 18.958,-13.9845 26.611,-13.9845 z m -25.834,17.1727 v -24.7076 h -5 v 24.7076 z m -1.139,-22.6103 c 11.244,-7.2951 21.767,-10.8126 31.611,-10.8126 v -5 c -11.07,0 -22.528,3.9593 -34.333,11.6181 z m 31.611,-10.8126 c 11.153,0 19.599,2.8624 25.651,8.2983 l 3.341,-3.7196 c -7.216,-6.4821 -16.984,-9.5787 -28.992,-9.5787 z m 25.658,8.3053 c 6.07,5.4067 9.198,12.8587 9.198,22.6722 h 5 c 0,-10.987 -3.562,-19.8943 -10.872,-26.4058 z m 9.198,22.6722 c 0,6.5361 -2.465,14.8262 -7.71,24.9718 -5.228,10.1103 -13.115,21.8693 -23.712,35.2903 l 3.925,3.098 c 10.709,-13.563 18.802,-25.598 24.228,-36.092 5.407,-10.458 8.269,-19.5813 8.269,-27.2681 z m -29.459,64.3111 h 37.946 v -5 h -37.946 z m 81.121,-29.231 h -2.5 v 2.402 l 2.4,0.096 z m 0,-20.7447 v -2.5 h -2.5 v 2.5 z m 11.722,-4.132 -1.697,-1.8357 -0.009,0.008 -0.009,0.008 z m -33.815,-17.7928 h -2.5 v 4.0061 l 3.598,-1.7604 z m 0,-20.7442 -1.005,-2.2893 -1.495,0.6562 v 1.6331 z m 54.137,2.9514 -1.53,1.9768 0.01,0.008 z m -6.999,47.9816 -1.206,-2.1899 -4.67,2.5722 4.964,1.9454 z m 9.276,55.4027 1.588,1.931 0.008,-0.007 z m -59.366,2.698 h -2.5 v 1.541 l 1.377,0.692 z m 0,-22.852 1.438,-2.046 -3.938,-2.766 v 4.812 z m 38.2,5.059 1.604,1.918 0.009,-0.008 0.009,-0.007 z m 0.169,-22.852 -1.72,1.814 0.007,0.007 0.008,0.007 z m -10.824,-4.975 v -20.7447 h -5 v 20.7447 z m -2.5,-18.2447 c 5.382,0 9.952,-1.5297 13.436,-4.8125 l -3.429,-3.639 c -2.363,2.2266 -5.607,3.4515 -10.007,3.4515 z m 13.419,-4.7963 c 3.456,-3.1952 5.272,-7.1353 5.272,-11.7018 h -5 c 0,3.0789 -1.163,5.7163 -3.666,8.0304 z m 5.272,-11.7018 c 0,-4.7134 -1.933,-8.6722 -5.635,-11.7137 l -3.174,3.8636 c 2.593,2.1305 3.809,4.6929 3.809,7.8501 z m -5.635,-11.7137 c -3.676,-3.0191 -8.261,-4.4472 -13.562,-4.4472 v 5 c 4.369,0 7.767,1.1579 10.388,3.3108 z m -13.562,-4.4472 c -7.06,0 -14.635,2.0501 -22.686,5.9885 l 2.197,4.4914 c 7.578,-3.7071 14.395,-5.4799 20.489,-5.4799 z m -19.087,8.2342 v -20.7442 h -5 v 20.7442 z m -1.495,-18.455 c 7.444,-3.2669 16.058,-4.9331 25.895,-4.9331 v -5 c -10.402,0 -19.721,1.763 -27.905,5.3546 z m 25.895,-4.9331 c 10.784,0 19.28,2.5965 25.707,7.5721 l 3.061,-3.9536 c -7.515,-5.8182 -17.178,-8.6185 -28.768,-8.6185 z m 25.717,7.5798 c 6.378,4.8867 9.477,11.0796 9.477,18.7597 h 5 c 0,-9.2976 -3.873,-16.9341 -11.436,-22.7288 z m 9.477,18.7597 c 0,10.7023 -5.196,19.0086 -16.162,25.0475 l 2.412,4.3797 c 12.309,-6.7786 18.75,-16.6306 18.75,-29.4272 z m -15.868,29.5651 c 6.519,2.554 11.237,6.148 14.342,10.697 3.105,4.55 4.73,10.251 4.73,17.248 h 5 c 0,-7.788 -1.818,-14.525 -5.6,-20.066 -3.782,-5.541 -9.393,-9.6919 -16.648,-12.5344 z m 19.072,27.945 c 0,9.764 -3.502,17.416 -10.48,23.206 l 3.192,3.848 c 8.201,-6.804 12.288,-15.905 12.288,-27.054 z m -10.472,23.198 c -7.023,5.775 -16.58,8.792 -28.938,8.792 v 5 c 13.165,0 23.958,-3.224 32.114,-9.929 z m -28.938,8.792 c -10.031,0 -19.257,-2.139 -27.716,-6.395 l -2.247,4.466 c 9.193,4.626 19.194,6.929 29.963,6.929 z m -26.34,-4.162 v -22.852 h -5 v 22.852 z m -3.937,-20.807 c 9.137,6.419 17.926,9.815 26.314,9.815 v -5 c -7.016,0 -14.811,-2.845 -23.439,-8.906 z m 26.314,9.815 c 5.905,0 10.955,-1.562 14.927,-4.883 l -3.207,-3.836 c -2.887,2.414 -6.72,3.719 -11.72,3.719 z m 14.945,-4.898 c 4.001,-3.411 6.022,-7.88 6.022,-13.203 h -5 c 0,3.898 -1.408,6.962 -4.266,9.398 z m 6.022,-13.203 c 0,-5.29 -1.937,-9.807 -5.77,-13.381 l -3.41,3.657 c 2.8,2.611 4.18,5.795 4.18,9.724 z m -5.755,-13.366 c -3.802,-3.606 -8.875,-5.417 -14.944,-5.659 l -0.2,4.996 c 5.175,0.207 8.985,1.713 11.704,4.291 z"
       fill="white"
       id="path3"
       style="fill:#ffffff" />
    <path
       d="m 54.65495,102.82403 h 270.6901"
       stroke="white"
       stroke-width="2"
       stroke-miterlimit="10"
       stroke-linecap="round"
       id="path29"
       style="fill:#ffffff;stroke:#ffffff" />
    <path
       d="m 80.91655,24.281031 c 0,4.29 -3.237,7.215 -8.307,7.215 -3.276,0 -5.343,-1.014 -6.084,-1.443 -0.468,-0.858 -0.975,-3.627 -1.053,-5.46 0.195,-0.273 0.78,-0.351 0.936,-0.117 0.585,1.989 2.184,5.811 6.708,5.811 3.276,0 4.875,-2.145 4.875,-4.485 0,-1.716 -0.351,-3.627 -3.198,-5.46 l -3.705,-2.418 c -1.95,-1.287 -4.212,-3.51 -4.212,-6.70802 0,-3.7049997 2.886,-6.7079997 7.956,-6.7079997 1.209,0 2.613,0.234 3.627,0.507 0.507,0.156 1.053,0.234 1.365,0.234 0.351,0.936 0.702,3.12 0.702,4.7579997 -0.156,0.234 -0.78,0.351 -0.975,0.117 -0.507,-1.8719997 -1.56,-4.4069997 -5.304,-4.4069997 -3.822,0 -4.641,2.535 -4.641,4.3289997 0,2.262 1.872,3.90002 3.315,4.79702 l 3.12,1.95 c 2.457,1.521 4.875,3.783 4.875,7.488 z m 14.4405,-9.321 c 0.897,0 2.418,0.195 3.471,0.663 0.312,0.273 0.585,0.897 0.585,1.56 0,0.702 -0.39,1.443 -0.858,1.443 -0.195,0 -0.39,-0.078 -0.546,-0.273 -0.858,-1.053 -2.301,-2.067 -3.9,-2.067 -2.73,0 -5.382,2.145 -5.382,6.279 0,3.042 2.106,6.669 6.279,6.669 2.262,0 3.432,-1.014 4.329,-2.34 0.312,-0.078 0.663,0.195 0.702,0.546 -1.326,2.886 -4.251,3.978 -6.513,3.978 -2.067,0 -3.978,-0.663 -5.343,-1.989 -1.365,-1.326 -2.2625,-3.237 -2.2625,-5.772 0,-4.212 2.9645,-8.697 9.4385,-8.697 z m 9.765,11.544 V 8.8760114 c 0,-2.3010001 -0.039,-2.5350001 -1.209,-3.2370001 l -0.39,-0.234 c -0.195,-0.117 -0.195,-0.663 0,-0.78 0.975,-0.312 2.808,-0.897 4.212,-1.638001 0.156,0 0.312,0.077999 0.39,0.233999 -0.039,1.170002 -0.117,3.120002 -0.117,4.8360021 v 8.1900196 c 0,0.351 0.039,0.663 0.156,0.741 1.404,-1.092 3.276,-2.028 5.265,-2.028 3.705,0 5.031,2.301 5.031,5.031 v 6.513 c 0,2.808 0.078,3.237 1.482,3.393 l 1.053,0.117 c 0.273,0.195 0.195,0.858 -0.078,0.975 -1.404,-0.078 -2.535,-0.117 -3.9,-0.117 -1.404,0 -2.574,0.039 -3.627,0.117 -0.273,-0.117 -0.351,-0.78 -0.078,-0.975 l 0.78,-0.117 c 1.443,-0.234 1.482,-0.585 1.482,-3.393 v -5.577 c 0,-2.496 -1.209,-4.173 -3.705,-4.173 -1.326,0 -2.34,0.468 -3.042,1.053 -0.702,0.585 -0.819,0.78 -0.819,2.145 v 6.552 c 0,2.808 0.078,3.198 1.482,3.393 l 0.819,0.117 c 0.273,0.156 0.195,0.858 -0.078,0.975 -1.17,-0.078 -2.301,-0.117 -3.666,-0.117 -1.404,0 -2.574,0.039 -3.822,0.117 -0.273,-0.117 -0.351,-0.78 -0.078,-0.975 l 0.975,-0.117 c 1.443,-0.156 1.482,-0.585 1.482,-3.393 z m 42.691,0 v -5.655 c 0,-2.652 -1.17,-4.017 -3.627,-4.017 -1.482,0 -2.691,0.663 -3.237,1.365 -0.468,0.585 -0.585,0.975 -0.585,2.34 v 5.967 c 0,2.808 0.078,3.198 1.482,3.393 l 0.819,0.117 c 0.273,0.195 0.195,0.858 -0.078,0.975 -1.17,-0.078 -2.301,-0.117 -3.666,-0.117 -1.404,0 -2.457,0.039 -3.549,0.117 -0.273,-0.117 -0.351,-0.78 -0.078,-0.975 l 0.702,-0.117 c 1.443,-0.234 1.482,-0.585 1.482,-3.393 v -5.655 c 0,-2.613 -1.17,-4.017 -3.588,-4.017 -1.599,0 -2.691,0.702 -3.276,1.404 -0.39,0.468 -0.585,0.975 -0.585,2.223 v 6.045 c 0,2.808 0.078,3.159 1.482,3.393 l 0.702,0.117 c 0.273,0.195 0.195,0.858 -0.078,0.975 -1.053,-0.078 -2.184,-0.117 -3.549,-0.117 -1.404,0 -2.574,0.039 -3.783,0.117 -0.273,-0.117 -0.351,-0.78 -0.078,-0.975 l 0.936,-0.117 c 1.443,-0.195 1.482,-0.585 1.482,-3.393 v -6.825 c 0,-1.521 0,-1.716 -1.053,-2.418 l -0.351,-0.234 c -0.156,-0.156 -0.156,-0.585 0.039,-0.702 0.897,-0.312 3.12,-1.326 3.9,-1.911 0.156,0 0.351,0.078 0.429,0.273 -0.078,0.897 -0.078,1.482 -0.078,1.833 0,0.234 0.156,0.429 0.429,0.429 1.482,-1.053 3.315,-1.989 5.187,-1.989 1.95,0 3.042,0.702 4.134,2.301 0.351,0.078 0.624,-0.078 0.975,-0.312 1.56,-1.092 3.471,-1.989 5.304,-1.989 3.12,0 4.641,2.145 4.641,4.836 v 6.708 c 0,2.808 0.078,3.198 1.482,3.393 l 0.936,0.117 c 0.273,0.195 0.195,0.858 -0.078,0.975 -1.287,-0.078 -2.418,-0.117 -3.783,-0.117 -1.404,0 -2.457,0.039 -3.549,0.117 -0.273,-0.117 -0.351,-0.78 -0.078,-0.975 l 0.702,-0.117 c 1.443,-0.234 1.482,-0.585 1.482,-3.393 z m 11.587,0 v -6.825 c 0,-1.521 0,-1.716 -1.053,-2.418 l -0.351,-0.234 c -0.156,-0.156 -0.156,-0.585 0.039,-0.702 0.897,-0.312 3.12,-1.326 4.017,-1.911 0.195,0 0.351,0.078 0.39,0.234 -0.078,1.365 -0.156,3.237 -0.156,4.836 v 7.02 c 0,2.808 0.078,3.198 1.482,3.393 l 0.819,0.117 c 0.273,0.195 0.195,0.858 -0.078,0.975 -1.17,-0.078 -2.301,-0.117 -3.666,-0.117 -1.404,0 -2.574,0.039 -3.666,0.117 -0.273,-0.117 -0.351,-0.78 -0.078,-0.975 l 0.819,-0.117 c 1.443,-0.195 1.482,-0.585 1.482,-3.393 z m 1.287,-19.9680197 c 1.17,0 1.95,0.936 1.95,2.0280001 0,1.4039999 -0.975,2.0279996 -2.067,2.0279996 -1.209,0 -1.989,-0.8969996 -1.989,-1.9499996 0,-1.2870001 0.936,-2.1060001 2.106,-2.1060001 z m 23.004,1.521 V 25.178031 c 0,3.081 0.039,4.524 1.131,4.524 0.429,0 1.092,-0.195 1.677,-0.39 0.273,0.078 0.312,1.053 -0.039,1.248 -1.638,0.234 -4.056,0.819 -5.148,1.248 -0.234,0 -0.429,-0.117 -0.429,-0.312 v -0.663 c 0,-0.585 0,-1.053 -0.078,-1.209 h -0.156 c -1.716,1.17 -3.042,1.794 -4.914,1.794 -4.329,0 -7.215,-3.393 -7.215,-7.488 0,-5.46 4.134,-8.97 9.438,-8.97 1.326,0 2.184,0.195 2.613,0.351 0.195,0 0.234,-0.234 0.234,-0.546 V 8.8760114 c 0,-2.301 -0.039,-2.535 -1.209,-3.237 l -0.39,-0.234 c -0.195,-0.117 -0.195,-0.663 0,-0.78 0.975,-0.312 2.808,-0.897 4.212,-1.638001 0.156,0 0.312,0.077999 0.39,0.233999 -0.039,1.170002 -0.117,3.120002 -0.117,4.8360019 z m -2.886,18.9540197 v -7.683 c 0,-0.78 -0.156,-1.131 -0.429,-1.521 -0.585,-0.819 -1.755,-1.638 -3.276,-1.638 -3.549,0 -5.382,3.081 -5.382,6.474 0,3.549 1.989,6.903 5.811,6.903 1.053,0 2.379,-0.468 3.003,-1.092 0.234,-0.234 0.273,-0.819 0.273,-1.443 z m 19.18,-9.867 h -4.407 c -0.663,0 -0.702,0.117 -0.702,0.936 v 7.293 c 0,2.262 0.273,4.329 2.847,4.329 0.39,0 0.741,-0.078 1.053,-0.195 0.351,-0.117 0.858,-0.546 0.975,-0.546 0.312,0 0.468,0.429 0.39,0.663 -0.702,0.819 -2.106,1.794 -4.095,1.794 -3.354,0 -4.056,-1.872 -4.056,-4.212 v -8.931 c 0,-1.053 -0.039,-1.131 -0.819,-1.131 h -1.092 c -0.234,-0.156 -0.273,-0.585 -0.117,-0.819 1.131,-0.351 2.106,-0.858 2.496,-1.209 0.507,-0.468 1.248,-1.521 1.638,-2.301 0.195,-0.078 0.663,-0.078 0.819,0.195 v 1.755 c 0,0.702 0.039,0.741 0.702,0.741 h 4.329 c 0.468,0.351 0.39,1.404 0.039,1.638 z m 29.08,14.352 c -8.658,0 -13.884,-6.201 -13.884,-13.221 0,-7.80002 5.85,-13.7670197 13.884,-13.7670197 9.009,0 13.533,6.5129997 13.533,13.3770197 0,7.878 -6.006,13.611 -13.533,13.611 z m 0.507,-1.209 c 4.68,0 9.126,-3.51 9.126,-11.193 0,-6.435 -2.847,-13.3770196 -10.296,-13.3770196 -4.056,0 -9.321,2.769 -9.321,11.3100196 0,5.772 2.808,13.26 10.491,13.26 z m 26.99,-15.327 c 0.897,0 2.418,0.195 3.471,0.663 0.312,0.273 0.585,0.897 0.585,1.56 0,0.702 -0.39,1.443 -0.858,1.443 -0.195,0 -0.39,-0.078 -0.546,-0.273 -0.858,-1.053 -2.301,-2.067 -3.9,-2.067 -2.73,0 -5.382,2.145 -5.382,6.279 0,3.042 2.106,6.669 6.279,6.669 2.262,0 3.432,-1.014 4.329,-2.34 0.312,-0.078 0.663,0.195 0.702,0.546 -1.326,2.886 -4.251,3.978 -6.513,3.978 -2.067,0 -3.978,-0.663 -5.343,-1.989 -1.365,-1.326 -2.262,-3.237 -2.262,-5.772 0,-4.212 2.964,-8.697 9.438,-8.697 z m 18.618,5.928 h -7.215 c -1.014,0 -1.053,0.078 -1.053,1.053 0,3.939 2.301,7.293 6.474,7.293 1.287,0 2.379,-0.39 3.588,-1.911 0.39,-0.117 0.663,0.117 0.702,0.468 -1.287,2.652 -4.095,3.627 -6.123,3.627 -2.535,0 -4.524,-1.092 -5.655,-2.574 -1.17,-1.521 -1.638,-3.354 -1.638,-5.07 0,-4.797 3.159,-8.814 7.839,-8.814 3.354,0 5.538,2.301 5.538,4.641 0,0.546 -0.078,0.858 -0.156,1.014 -0.117,0.234 -0.663,0.273 -2.301,0.273 z m -7.566,-1.17 h 2.769 c 2.886,0 3.744,-0.156 4.056,-0.39 0.117,-0.078 0.234,-0.234 0.234,-0.741 0,-1.092 -0.741,-2.457 -3.003,-2.457 -2.301,0 -4.29,2.106 -4.329,3.393 0,0.078 0,0.195 0.273,0.195 z m 16.906,4.758 4.641,-1.677 c 0.585,-0.195 0.663,-0.546 0.663,-1.131 l 0.039,-1.794 c 0.039,-1.443 -0.429,-3.393 -2.847,-3.393 -1.092,0 -2.418,0.546 -2.496,1.755 -0.039,0.624 -0.078,1.092 -0.39,1.326 -0.585,0.468 -1.638,0.741 -2.223,0.741 -0.351,0 -0.546,-0.195 -0.546,-0.546 0,-2.028 4.407,-4.797 7.254,-4.797 2.808,0 4.173,1.638 4.056,4.563 l -0.234,6.786 c -0.078,1.794 0.273,3.393 1.794,3.393 0.39,0 0.741,-0.117 0.975,-0.234 0.195,-0.117 0.39,-0.273 0.507,-0.273 0.156,0 0.273,0.234 0.273,0.507 0,0.195 -1.365,1.716 -3.276,1.716 -0.936,0 -1.872,-0.351 -2.535,-1.209 -0.156,-0.234 -0.39,-0.546 -0.624,-0.546 -0.273,0 -0.741,0.351 -1.521,0.78 -0.858,0.468 -1.716,0.975 -2.808,0.975 -1.131,0 -2.067,-0.312 -2.73,-0.897 -0.741,-0.663 -1.209,-1.638 -1.209,-2.73 0,-1.521 0.741,-2.418 3.237,-3.315 z m -0.234,2.847 c 0,0.663 0.468,2.34 2.457,2.34 0.78,0 1.989,-0.585 2.379,-0.975 0.468,-0.468 0.468,-1.014 0.507,-1.833 l 0.078,-2.301 c 0,-0.429 -0.156,-0.507 -0.39,-0.507 -0.234,0 -0.897,0.156 -1.599,0.39 -2.301,0.78 -3.432,1.365 -3.432,2.886 z m 16.782,-0.819 v -6.825 c 0,-1.521 0,-1.716 -1.053,-2.418 l -0.351,-0.234 c -0.156,-0.156 -0.156,-0.585 0.039,-0.702 0.897,-0.312 3.12,-1.326 3.9,-1.911 0.156,0 0.351,0.078 0.429,0.273 -0.078,0.897 -0.078,1.482 -0.078,1.833 0,0.234 0.156,0.429 0.429,0.429 1.638,-1.014 3.471,-1.989 5.46,-1.989 3.237,0 4.563,2.223 4.563,4.836 v 6.708 c 0,2.808 0.078,3.198 1.482,3.393 l 0.858,0.117 c 0.273,0.195 0.195,0.858 -0.078,0.975 -1.17,-0.078 -2.301,-0.117 -3.666,-0.117 -1.404,0 -2.574,0.039 -3.627,0.117 -0.273,-0.117 -0.351,-0.78 -0.078,-0.975 l 0.741,-0.117 c 1.443,-0.234 1.482,-0.585 1.482,-3.393 v -5.811 c 0,-2.223 -1.014,-3.861 -3.666,-3.861 -1.482,0 -2.769,0.624 -3.315,1.365 -0.507,0.663 -0.585,1.209 -0.585,2.34 v 5.967 c 0,2.808 0.078,3.159 1.482,3.393 l 0.702,0.117 c 0.273,0.195 0.195,0.858 -0.078,0.975 -1.053,-0.078 -2.184,-0.117 -3.549,-0.117 -1.404,0 -2.574,0.039 -3.666,0.117 -0.273,-0.117 -0.351,-0.78 -0.078,-0.975 l 0.819,-0.117 c 1.443,-0.195 1.482,-0.585 1.482,-3.393 z m -203.329,44.856 v -19.936 c 0,-5.936 -0.112,-6.888 -3.416,-7.168 l -1.4,-0.112 c -0.336,-0.224 -0.224,-1.232 0.112,-1.4 2.8,0.112 4.704,0.168 7.056,0.168 2.24,0 4.144,-0.056 6.944,-0.168 0.336,0.168 0.448,1.176 0.112,1.4 l -1.4,0.112 c -3.304,0.28 -3.416,1.232 -3.416,7.168 v 19.936 c 0,5.936 0.112,6.72 3.416,7.112 l 1.4,0.168 c 0.336,0.224 0.224,1.232 -0.112,1.4 -2.8,-0.112 -4.704,-0.168 -6.944,-0.168 -2.352,0 -4.256,0.056 -7.056,0.168 -0.336,-0.168 -0.448,-1.064 -0.112,-1.4 l 1.4,-0.168 c 3.304,-0.392 3.416,-1.176 3.416,-7.112 z m 18.826,2.24 v -9.8 c 0,-2.184 0,-2.464 -1.512,-3.472 l -0.504,-0.336 c -0.224,-0.224 -0.224,-0.84 0.056,-1.008 1.288,-0.448 4.48,-1.904 5.6,-2.744 0.224,0 0.504,0.112 0.616,0.392 -0.112,1.288 -0.112,2.128 -0.112,2.632 0,0.336 0.224,0.616 0.616,0.616 2.352,-1.456 4.984,-2.856 7.84,-2.856 4.648,0 6.552,3.192 6.552,6.944 v 9.632 c 0,4.032 0.112,4.592 2.128,4.872 l 1.232,0.168 c 0.392,0.28 0.28,1.232 -0.112,1.4 -1.68,-0.112 -3.304,-0.168 -5.264,-0.168 -2.016,0 -3.696,0.056 -5.208,0.168 -0.392,-0.168 -0.504,-1.12 -0.112,-1.4 l 1.064,-0.168 c 2.072,-0.336 2.128,-0.84 2.128,-4.872 v -8.344 c 0,-3.192 -1.456,-5.544 -5.264,-5.544 -2.128,0 -3.976,0.896 -4.76,1.96 -0.728,0.952 -0.84,1.736 -0.84,3.36 v 8.568 c 0,4.032 0.112,4.536 2.128,4.872 l 1.008,0.168 c 0.392,0.28 0.28,1.232 -0.112,1.4 -1.512,-0.112 -3.136,-0.168 -5.096,-0.168 -2.016,0 -3.696,0.056 -5.264,0.168 -0.392,-0.168 -0.504,-1.12 -0.112,-1.4 l 1.176,-0.168 c 2.072,-0.28 2.128,-0.84 2.128,-4.872 z m 36.59,-16.576 c 2.352,0 4.424,0.56 4.928,1.008 0.504,1.232 0.896,3.024 0.896,4.536 -0.224,0.392 -1.064,0.504 -1.344,0.168 -0.952,-2.464 -2.632,-4.088 -4.928,-4.088 -2.184,0 -3.584,1.4 -3.584,3.416 0,2.296 2.352,3.528 4.312,4.648 2.968,1.68 5.712,3.584 5.712,7.56 0,4.256 -3.92,6.384 -8.064,6.384 -2.632,0 -4.592,-0.56 -5.992,-1.68 -0.448,-1.064 -0.784,-3.808 -0.672,-5.656 0.28,-0.336 1.008,-0.392 1.288,-0.056 0.952,3.08 2.744,5.768 5.936,5.768 2.016,0 3.752,-1.176 3.752,-3.584 0,-2.576 -2.24,-3.976 -4.312,-5.152 -3.248,-1.848 -5.544,-3.808 -5.544,-6.888 0,-4.088 3.36,-6.384 7.616,-6.384 z m 26.333,3.136 h -6.328 c -0.952,0 -1.008,0.168 -1.008,1.344 v 10.472 c 0,3.248 0.392,6.216 4.088,6.216 0.56,0 1.064,-0.112 1.512,-0.28 0.504,-0.168 1.232,-0.784 1.4,-0.784 0.448,0 0.672,0.616 0.56,0.952 -1.008,1.176 -3.024,2.576 -5.88,2.576 -4.816,0 -5.824,-2.688 -5.824,-6.048 v -12.824 c 0,-1.512 -0.056,-1.624 -1.176,-1.624 h -1.568 c -0.336,-0.224 -0.392,-0.84 -0.168,-1.176 1.624,-0.504 3.024,-1.232 3.584,-1.736 0.728,-0.672 1.792,-2.184 2.352,-3.304 0.28,-0.112 0.952,-0.112 1.176,0.28 v 2.52 c 0,1.008 0.056,1.064 1.008,1.064 h 6.216 c 0.672,0.504 0.56,2.016 0.056,2.352 z m 8.492,13.44 v -9.8 c 0,-2.184 0,-2.464 -1.512,-3.472 l -0.504,-0.336 c -0.224,-0.224 -0.224,-0.84 0.056,-1.008 1.288,-0.448 4.48,-1.904 5.768,-2.744 0.28,0 0.504,0.112 0.56,0.336 -0.112,1.96 -0.224,4.648 -0.224,6.944 v 10.08 c 0,4.032 0.112,4.592 2.128,4.872 l 1.176,0.168 c 0.392,0.28 0.28,1.232 -0.112,1.4 -1.68,-0.112 -3.304,-0.168 -5.264,-0.168 -2.016,0 -3.696,0.056 -5.264,0.168 -0.392,-0.168 -0.504,-1.12 -0.112,-1.4 l 1.176,-0.168 c 2.072,-0.28 2.128,-0.84 2.128,-4.872 z m 1.848,-28.672 c 1.68,0 2.8,1.344 2.8,2.912 0,2.016 -1.4,2.912 -2.968,2.912 -1.736,0 -2.856,-1.288 -2.856,-2.8 0,-1.848 1.344,-3.024 3.024,-3.024 z m 25.695,15.232 h -6.328 c -0.952,0 -1.008,0.168 -1.008,1.344 v 10.472 c 0,3.248 0.392,6.216 4.088,6.216 0.56,0 1.064,-0.112 1.512,-0.28 0.504,-0.168 1.232,-0.784 1.4,-0.784 0.448,0 0.672,0.616 0.56,0.952 -1.008,1.176 -3.024,2.576 -5.88,2.576 -4.816,0 -5.824,-2.688 -5.824,-6.048 v -12.824 c 0,-1.512 -0.056,-1.624 -1.176,-1.624 h -1.568 c -0.336,-0.224 -0.392,-0.84 -0.168,-1.176 1.624,-0.504 3.024,-1.232 3.584,-1.736 0.728,-0.672 1.792,-2.184 2.352,-3.304 0.28,-0.112 0.952,-0.112 1.176,0.28 v 2.52 c 0,1.008 0.056,1.064 1.008,1.064 h 6.216 c 0.672,0.504 0.56,2.016 0.056,2.352 z m 11.908,2.128 v 9.352 c 0,3.864 0.952,6.44 5.208,6.44 1.512,0 3.304,-0.616 4.536,-1.68 0.728,-0.672 1.12,-1.512 1.12,-3.248 v -9.184 c 0,-3.64 -0.392,-3.752 -2.072,-4.424 l -0.728,-0.28 c -0.392,-0.224 -0.392,-1.008 0.056,-1.232 2.24,-0.056 5.32,-0.448 6.552,-1.008 0.28,0.056 0.448,0.168 0.504,0.392 -0.112,1.064 -0.168,2.8 -0.168,4.872 v 9.408 c 0,4.424 0.168,6.104 1.736,6.104 0.672,0 1.4,-0.112 2.184,-0.28 0.336,0.28 0.392,1.4 -0.056,1.624 -2.184,0.448 -5.432,1.008 -7.336,2.072 -0.28,0 -0.56,-0.168 -0.672,-0.392 v -2.296 c 0,-0.504 -0.168,-0.784 -0.504,-0.784 -1.68,1.064 -4.424,2.912 -7.728,2.912 -4.928,0 -6.776,-2.464 -6.776,-7 v -9.352 c 0,-3.528 0,-4.032 -1.68,-4.76 l -0.672,-0.28 c -0.336,-0.28 -0.28,-1.064 0.112,-1.232 2.576,-0.056 4.76,-0.56 5.992,-1.008 0.336,0.056 0.504,0.168 0.56,0.392 -0.112,0.952 -0.168,2.128 -0.168,4.872 z m 38.4,-2.128 h -6.328 c -0.952,0 -1.008,0.168 -1.008,1.344 v 10.472 c 0,3.248 0.392,6.216 4.088,6.216 0.56,0 1.064,-0.112 1.512,-0.28 0.504,-0.168 1.232,-0.784 1.4,-0.784 0.448,0 0.672,0.616 0.56,0.952 -1.008,1.176 -3.024,2.576 -5.88,2.576 -4.816,0 -5.824,-2.688 -5.824,-6.048 v -12.824 c 0,-1.512 -0.056,-1.624 -1.176,-1.624 h -1.568 c -0.336,-0.224 -0.392,-0.84 -0.168,-1.176 1.624,-0.504 3.024,-1.232 3.584,-1.736 0.728,-0.672 1.792,-2.184 2.352,-3.304 0.28,-0.112 0.952,-0.112 1.176,0.28 v 2.52 c 0,1.008 0.056,1.064 1.008,1.064 h 6.216 c 0.672,0.504 0.56,2.016 0.056,2.352 z m 20.644,5.376 h -10.36 c -1.456,0 -1.512,0.112 -1.512,1.512 0,5.656 3.304,10.472 9.296,10.472 1.848,0 3.416,-0.56 5.152,-2.744 0.56,-0.168 0.952,0.168 1.008,0.672 -1.848,3.808 -5.88,5.208 -8.792,5.208 -3.64,0 -6.496,-1.568 -8.12,-3.696 -1.68,-2.184 -2.352,-4.816 -2.352,-7.28 0,-6.888 4.536,-12.656 11.256,-12.656 4.816,0 7.952,3.304 7.952,6.664 0,0.784 -0.112,1.232 -0.224,1.456 -0.168,0.336 -0.952,0.392 -3.304,0.392 z m -10.864,-1.68 h 3.976 c 4.144,0 5.376,-0.224 5.824,-0.56 0.168,-0.112 0.336,-0.336 0.336,-1.064 0,-1.568 -1.064,-3.528 -4.312,-3.528 -3.304,0 -6.16,3.024 -6.216,4.872 0,0.112 0,0.28 0.392,0.28 z"
       fill="white"
       id="path30"
       style="fill:#ffffff" />
  </g>
</svg>
