<svg width="78" height="24" viewBox="0 0 78 24" fill="none" xmlns="http://www.w3.org/2000/svg">
<path d="M23.8937 10.9043C23.7642 10.9155 23.6366 10.9423 23.5137 10.9842C22.8837 11.1142 20.1636 11.8443 17.5936 12.5243C17.6087 12.4931 17.6166 12.4589 17.6166 12.4243C17.6166 12.3897 17.6087 12.3554 17.5936 12.3242L16.7437 9.8242C16.2837 6.8242 16.5137 6.56424 14.6637 7.11424H14.5936C14.0536 7.31424 14.0237 7.56423 14.5337 7.85423H14.6837C15.1537 7.99423 15.6236 8.02423 15.5836 8.97423C15.5531 9.89003 15.7562 10.7986 16.1737 11.6142C16.5437 12.3442 16.4237 12.6143 16.0437 12.8843H16.1237L14.5237 13.3042C14.2737 12.3042 13.6936 12.7543 13.2336 12.8743C12.9736 13.0843 13.4536 13.5743 12.9836 13.6543C12.5136 13.7343 12.6437 13.2543 12.5037 13.0143C12.3637 12.7743 12.0037 12.8843 11.7437 12.9043C11.4837 12.9243 11.3537 13.0542 11.4137 13.3342C11.4737 13.6142 11.5436 13.9443 11.6136 14.2543H11.6737C9.8637 15.1343 5.96363 17.0643 4.84363 17.7743C4.49363 17.9043 4.25363 18.2342 3.84363 18.3242L3.35364 18.0642L2.81372 17.0642C2.81372 16.5542 2.49369 16.4343 2.03369 16.6243C1.61826 16.7226 1.22924 16.9104 0.893676 17.1743C0.713676 17.6143 0.96371 18.0143 1.05371 18.4143C1.42371 19.9943 1.66372 21.6043 2.19372 23.1543C2.19372 23.2343 2.29367 23.2842 2.38367 23.2442C2.66857 23.2892 2.95875 23.2892 3.24365 23.2442C3.91365 23.2442 4.24371 23.1342 4.05371 22.3042C3.95044 22.0219 3.95685 21.7113 4.07165 21.4336C4.18646 21.1558 4.40129 20.9311 4.67371 20.8042C5.017 20.907 5.37717 20.9411 5.73364 20.9043C6.17364 20.9943 6.60371 21.1342 7.05371 21.1842C10.8137 21.5942 18.2037 20.4442 18.2037 20.4442C18.3934 20.4603 18.584 20.4603 18.7737 20.4442L25.6337 18.9542C22.5937 14.3642 23.8637 10.9743 23.8937 10.9043Z" fill="#5D808F"/>
<path d="M48.7337 5.74426C46.0937 6.33426 42.7337 7.09425 40.0837 7.48425C39.7337 7.12425 39.4037 6.75431 39.0837 6.41431C38.7637 6.07431 38.5137 6.03421 38.3537 6.56421C38.1937 7.09421 38.0337 7.50424 37.8637 7.97424C37.6156 8.16617 37.3165 8.28088 37.0037 8.3042C33.9037 8.9842 26.6137 10.4343 24.8737 11.0243C23.5237 15.2743 26.6938 18.9442 26.7038 18.9542C29.5338 18.3542 32.3738 17.7643 35.2038 17.1443C40.3104 16.0443 45.4171 14.9342 50.5237 13.8142L48.7337 5.74426ZM38.2937 7.76428C38.7137 6.92428 38.7937 6.90425 39.5437 7.48425C39.1471 7.65136 38.7238 7.74621 38.2937 7.76428Z" fill="#5D808F"/>
<path d="M70.3638 1.16435C70.1711 1.14167 69.9765 1.14167 69.7838 1.16435L59.0338 3.50432L49.3838 5.60429L51.0138 13.1243L51.5538 13.0043C54.0457 12.9342 56.523 12.599 58.9438 12.0043C63.4438 11.0043 67.9438 10.0043 72.4838 9.20427L72.0138 9.30424C71.9838 9.16424 73.3738 4.48435 70.3638 1.16435Z" fill="#5D808F"/>
<path d="M77.7739 3.50427C77.6935 2.70877 77.3303 1.96847 76.7505 1.41797C76.1706 0.867469 75.4125 0.543306 74.6139 0.504272C73.4661 0.510304 72.3237 0.661455 71.2139 0.954224C71.2139 0.954224 73.8539 3.54422 72.8839 8.95422C73.3339 8.86422 74.2139 8.66424 74.6639 8.59424C75.681 8.47872 76.6151 7.97765 77.2739 7.19421C77.4516 7.04524 77.5979 6.8625 77.7043 6.65649C77.8108 6.45049 77.8752 6.22538 77.8939 5.99426C77.9798 5.25185 77.9595 4.50101 77.8339 3.76428L77.7739 3.50427Z" fill="#5D808F"/>
</svg>
