<svg width="42" height="46" viewBox="0 0 42 46" fill="none" xmlns="http://www.w3.org/2000/svg">
<path d="M26.4396 39.8501C26.4396 40.1322 26.3283 40.4028 26.1298 40.6031C25.9313 40.8035 25.6617 40.9175 25.3796 40.9201H16.8597C16.7112 40.9345 16.5613 40.9177 16.4196 40.8707C16.278 40.8238 16.1477 40.7477 16.0372 40.6474C15.9267 40.5471 15.8384 40.4248 15.778 40.2883C15.7175 40.1519 15.6863 40.0043 15.6863 39.8551C15.6863 39.7059 15.7175 39.5583 15.778 39.4218C15.8384 39.2854 15.9267 39.1631 16.0372 39.0628C16.1477 38.9625 16.278 38.8864 16.4196 38.8395C16.5613 38.7925 16.7112 38.7757 16.8597 38.7901H25.3796C25.66 38.7927 25.9281 38.9052 26.1263 39.1035C26.3246 39.3017 26.437 39.5698 26.4396 39.8501ZM25.3796 41.4501H16.8597C16.6904 41.4502 16.5237 41.4907 16.3734 41.5685C16.223 41.6462 16.0935 41.7588 15.9956 41.8969C15.8977 42.0349 15.8343 42.1944 15.8106 42.3619C15.787 42.5295 15.8038 42.7004 15.8597 42.8601C15.9331 43.0678 16.0682 43.248 16.2469 43.3767C16.4256 43.5054 16.6395 43.5763 16.8597 43.5801C17.1609 43.5814 17.4559 43.6663 17.7119 43.8251C17.9678 43.984 18.1748 44.2107 18.3097 44.4801C18.4947 44.8501 18.7808 45.1601 19.1347 45.3742C19.4887 45.5883 19.8961 45.6979 20.3097 45.6901H21.8597C22.2733 45.6979 22.6807 45.5883 23.0346 45.3742C23.3886 45.1601 23.6746 44.8501 23.8597 44.4801C23.9946 44.2107 24.2015 43.984 24.4575 43.8251C24.7134 43.6663 25.0084 43.5814 25.3097 43.5801C25.5398 43.5874 25.7662 43.5216 25.9567 43.3923C26.1471 43.2629 26.2917 43.0767 26.3697 42.8601C26.4232 42.7004 26.4383 42.5302 26.4136 42.3636C26.389 42.1969 26.3254 42.0384 26.2279 41.901C26.1304 41.7636 26.0019 41.6511 25.8528 41.5728C25.7036 41.4944 25.5381 41.4524 25.3697 41.4501H25.3796ZM21.1197 7.37006C21.4008 7.37006 21.6704 7.25842 21.8692 7.05963C22.068 6.86084 22.1797 6.59119 22.1797 6.31006V2.05011C22.1941 1.90158 22.1773 1.75163 22.1303 1.60999C22.0833 1.46834 22.0073 1.3381 21.907 1.2276C21.8067 1.1171 21.6844 1.02881 21.5479 0.968384C21.4115 0.907961 21.2639 0.87677 21.1147 0.87677C20.9655 0.87677 20.8178 0.907961 20.6814 0.968384C20.545 1.02881 20.4227 1.1171 20.3224 1.2276C20.2221 1.3381 20.146 1.46834 20.0991 1.60999C20.0521 1.75163 20.0353 1.90158 20.0497 2.05011V6.31006C20.0497 6.45011 20.0774 6.58882 20.1313 6.71808C20.1852 6.84734 20.2642 6.96461 20.3636 7.06317C20.4631 7.16173 20.5812 7.23962 20.7109 7.2923C20.8407 7.34498 20.9796 7.37138 21.1197 7.37006ZM9.81964 11.4301C10.0202 11.6297 10.2916 11.7419 10.5746 11.7419C10.8576 11.7419 11.1291 11.6297 11.3297 11.4301C11.5269 11.2283 11.6374 10.9573 11.6374 10.6751C11.6374 10.3929 11.5269 10.1219 11.3297 9.9201L8.32965 6.9201C8.12541 6.74088 7.86063 6.64606 7.58905 6.65491C7.31747 6.66375 7.05945 6.77557 6.86731 6.96771C6.67517 7.15985 6.56335 7.41793 6.5545 7.68951C6.54566 7.9611 6.64041 8.22582 6.81964 8.43005L9.81964 11.4301ZM7.26965 21.2201C7.27097 21.0801 7.24457 20.9411 7.19189 20.8113C7.13922 20.6816 7.06133 20.5635 6.96277 20.4641C6.86421 20.3646 6.74688 20.2856 6.61761 20.2317C6.48835 20.1778 6.3497 20.1501 6.20966 20.1501H1.94965C1.80112 20.1357 1.65123 20.1525 1.50958 20.1995C1.36794 20.2464 1.23769 20.3225 1.1272 20.4228C1.0167 20.5231 0.928404 20.6454 0.867981 20.7819C0.807558 20.9183 0.776367 21.0659 0.776367 21.2151C0.776367 21.3643 0.807558 21.5119 0.867981 21.6483C0.928404 21.7848 1.0167 21.9071 1.1272 22.0074C1.23769 22.1077 1.36794 22.1837 1.50958 22.2307C1.65123 22.2777 1.80112 22.2945 1.94965 22.2801H6.20966C6.49079 22.2801 6.76044 22.1684 6.95923 21.9696C7.15802 21.7708 7.26965 21.5012 7.26965 21.2201ZM9.81964 31.0101L6.81964 34.0101C6.71986 34.1078 6.6406 34.2245 6.58649 34.3533C6.53237 34.4821 6.50452 34.6204 6.50452 34.7601C6.50452 34.8998 6.53237 35.0381 6.58649 35.1669C6.6406 35.2957 6.71986 35.4123 6.81964 35.5101C6.91734 35.6103 7.03393 35.6901 7.16266 35.7451C7.29138 35.8 7.42969 35.8289 7.56964 35.8301C7.8551 35.8271 8.128 35.7121 8.32965 35.5101L11.3297 32.5101C11.5286 32.3098 11.6398 32.0388 11.6389 31.7565C11.6379 31.4743 11.5249 31.204 11.3246 31.0051C11.1244 30.8062 10.8533 30.6949 10.5711 30.6959C10.2889 30.6968 10.0186 30.8098 9.81964 31.0101ZM32.4097 31.0101C32.2108 30.8112 31.941 30.6994 31.6597 30.6994C31.3784 30.6994 31.1086 30.8112 30.9097 31.0101C30.7108 31.209 30.599 31.4788 30.599 31.7601C30.599 32.0414 30.7108 32.3112 30.9097 32.5101L33.9097 35.5101C34.0074 35.6103 34.124 35.6901 34.2527 35.7451C34.3814 35.8 34.5197 35.8289 34.6597 35.8301C34.8001 35.8324 34.9396 35.8051 35.0688 35.75C35.198 35.6949 35.3141 35.6131 35.4097 35.5101C35.5094 35.4123 35.5887 35.2957 35.6428 35.1669C35.6969 35.0381 35.7248 34.8998 35.7248 34.7601C35.7248 34.6204 35.6969 34.4821 35.6428 34.3533C35.5887 34.2245 35.5094 34.1078 35.4097 34.0101L32.4097 31.0101ZM40.2897 20.1501H36.0297C35.8811 20.1357 35.7312 20.1525 35.5896 20.1995C35.448 20.2464 35.3177 20.3225 35.2072 20.4228C35.0967 20.5231 35.0084 20.6454 34.948 20.7819C34.8876 20.9183 34.8563 21.0659 34.8563 21.2151C34.8563 21.3643 34.8876 21.5119 34.948 21.6483C35.0084 21.7848 35.0967 21.9071 35.2072 22.0074C35.3177 22.1077 35.448 22.1837 35.5896 22.2307C35.7312 22.2777 35.8811 22.2945 36.0297 22.2801H40.2897C40.5543 22.2544 40.7999 22.1311 40.9786 21.9342C41.1573 21.7373 41.2563 21.481 41.2563 21.2151C41.2563 20.9492 41.1573 20.6928 40.9786 20.4959C40.7999 20.299 40.5543 20.1758 40.2897 20.1501ZM31.6597 11.7101C31.94 11.7061 32.2083 11.5952 32.4097 11.4001L35.4097 8.40009C35.5097 8.30146 35.5892 8.18394 35.6434 8.05432C35.6977 7.92471 35.7256 7.78559 35.7256 7.64508C35.7256 7.50457 35.6977 7.36545 35.6434 7.23584C35.5892 7.10623 35.5097 6.9887 35.4097 6.89008C35.3119 6.7903 35.1952 6.71104 35.0664 6.65692C34.9376 6.60281 34.7994 6.57495 34.6597 6.57495C34.52 6.57495 34.3817 6.60281 34.2529 6.65692C34.1241 6.71104 34.0074 6.7903 33.9097 6.89008L30.9097 9.89008C30.8096 9.9887 30.7301 10.1062 30.6758 10.2358C30.6216 10.3655 30.5937 10.5046 30.5937 10.6451C30.5937 10.7856 30.6216 10.9247 30.6758 11.0543C30.7301 11.1839 30.8096 11.3015 30.9097 11.4001C31.111 11.5952 31.3793 11.7061 31.6597 11.7101ZM26.4396 37.1601C26.4396 37.4422 26.3283 37.7128 26.1298 37.9131C25.9313 38.1135 25.6617 38.2275 25.3796 38.2301H16.8597C16.5932 38.2146 16.3421 38.1 16.1557 37.9089C15.9693 37.7177 15.8612 37.4638 15.8524 37.197C15.8436 36.9302 15.9349 36.6698 16.1083 36.4668C16.2817 36.2638 16.5248 36.1331 16.7897 36.1001C16.1297 30.1001 9.93964 28.7801 9.93964 21.7201C9.93964 18.755 11.1176 15.9113 13.2142 13.8146C15.3109 11.718 18.1546 10.5401 21.1197 10.5401C24.0848 10.5401 26.9285 11.718 29.0251 13.8146C31.1218 15.9113 32.2997 18.755 32.2997 21.7201C32.2997 28.7801 26.0996 30.1101 25.4396 36.1001C25.7102 36.1154 25.9647 36.2338 26.1507 36.431C26.3367 36.6281 26.4401 36.8891 26.4396 37.1601ZM18.6597 13.5201C18.5798 13.3336 18.4321 13.1845 18.2465 13.1028C18.0608 13.0211 17.8511 13.013 17.6597 13.0801C16.3132 13.6316 15.1135 14.4889 14.1555 15.584C13.1974 16.6792 12.5073 17.9822 12.1396 19.3901C12.1096 19.4938 12.1009 19.6026 12.114 19.7098C12.1271 19.8171 12.1619 19.9205 12.2161 20.014C12.2703 20.1074 12.3428 20.1889 12.4294 20.2535C12.5159 20.3182 12.6147 20.3646 12.7197 20.3901C12.7859 20.4006 12.8534 20.4006 12.9197 20.3901C13.0962 20.3891 13.2675 20.3297 13.4068 20.2211C13.5461 20.1126 13.6455 19.9611 13.6896 19.7901C13.9927 18.6244 14.5637 17.5455 15.3571 16.6393C16.1504 15.7331 17.1443 15.0246 18.2596 14.5701C18.4445 14.4884 18.5922 14.3405 18.6736 14.1555C18.7551 13.9704 18.7643 13.7616 18.6996 13.5701L18.6597 13.5201Z" fill="#3E5973"/>
</svg>
