<svg width="41" height="40" viewBox="0 0 41 40" fill="none" xmlns="http://www.w3.org/2000/svg">
<path d="M20.594 12.9943C10.844 12.9943 0.333984 10.9942 0.333984 6.72424C0.333984 2.45424 10.844 0.454224 20.594 0.454224C30.344 0.454224 40.854 2.45424 40.854 6.72424C40.854 10.9942 30.354 12.9943 20.594 12.9943ZM20.594 2.99426C9.11399 2.99426 2.914 5.62421 2.914 6.69421C2.914 7.76421 9.11399 10.3943 20.594 10.3943C32.074 10.3943 38.284 7.76421 38.284 6.69421C38.284 5.62421 32.084 3.02429 20.594 3.02429V2.99426Z" fill="#5D808F"/>
<path d="M20.3139 8.72424C28.4711 8.72424 35.0839 7.84227 35.0839 6.75427C35.0839 5.66627 28.4711 4.7843 20.3139 4.7843C12.1567 4.7843 5.54395 5.66627 5.54395 6.75427C5.54395 7.84227 12.1567 8.72424 20.3139 8.72424Z" fill="#5D808F"/>
<path d="M20.594 39.3643C10.844 39.3643 0.333984 37.3642 0.333984 33.0942C0.333984 28.8242 10.844 26.8242 20.594 26.8242C30.344 26.8242 40.854 28.8242 40.854 33.0942C40.854 37.3642 30.354 39.3643 20.594 39.3643ZM20.594 29.3643C9.11399 29.3643 2.914 31.9942 2.914 33.0642C2.914 34.1342 9.11399 36.7643 20.594 36.7643C32.074 36.7643 38.284 34.1342 38.284 33.0642C38.284 31.9942 32.084 29.3643 20.594 29.3643Z" fill="#5D808F"/>
<path d="M6.59418 35.6143H5.14417C4.65259 35.6143 4.18099 35.4197 3.83246 35.073C3.48393 34.7263 3.28682 34.2559 3.28418 33.7643V8.76428C3.28418 7.76428 4.12417 9.20422 5.14417 9.20422H6.58417C7.07574 9.20687 7.54629 9.40403 7.89294 9.75256C8.2396 10.1011 8.43415 10.5726 8.43414 11.0642L8.94415 37.1643C8.95415 38.1643 7.61418 35.6143 6.59418 35.6143Z" fill="#5D808F"/>
<path d="M15.864 11.0143H11.834C11.3149 11.0143 10.894 11.4351 10.894 11.9542V37.6343C10.894 38.1534 11.3149 38.5742 11.834 38.5742H15.864C16.3832 38.5742 16.804 38.1534 16.804 37.6343V11.9542C16.804 11.4351 16.3832 11.0143 15.864 11.0143Z" fill="#5D808F"/>
<path d="M26.884 11.0143H22.8541C22.3349 11.0143 21.9141 11.4351 21.9141 11.9542V37.6343C21.9141 38.1534 22.3349 38.5742 22.8541 38.5742H26.884C27.4032 38.5742 27.824 38.1534 27.824 37.6343V11.9542C27.824 11.4351 27.4032 11.0143 26.884 11.0143Z" fill="#5D808F"/>
<path d="M37.6541 34.8142C37.6541 35.3058 37.4595 35.7774 37.1128 36.126C36.7661 36.4745 36.2956 36.6717 35.804 36.6743H34.374C33.374 36.6743 32.374 38.0243 32.374 37.0143L32.524 11.0143C32.5267 10.5244 32.7224 10.0554 33.0688 9.70898C33.4152 9.36261 33.8842 9.16693 34.374 9.16431H35.804C36.047 9.16431 36.2876 9.21208 36.512 9.30505C36.7365 9.39802 36.9404 9.53427 37.1122 9.70605C37.284 9.87784 37.4203 10.0818 37.5132 10.3063C37.6062 10.5307 37.6541 10.7713 37.6541 11.0143V34.8142Z" fill="#5D808F"/>
</svg>
