<svg width="45" height="30" viewBox="0 0 45 30" fill="none" xmlns="http://www.w3.org/2000/svg">
<path d="M22.4056 0.276306C10.1656 0.276306 0.225586 15.0563 0.225586 15.0563C0.225586 15.0563 10.1656 29.8464 22.4056 29.8464C34.6456 29.8464 44.5956 15.0563 44.5956 15.0563C44.5956 15.0563 34.6556 0.276306 22.4056 0.276306ZM22.4056 24.2763C20.5762 24.2763 18.7878 23.7339 17.2666 22.7175C15.7454 21.7011 14.5599 20.2563 13.8597 18.5661C13.1596 16.8759 12.9764 15.0161 13.3333 13.2217C13.6902 11.4274 14.5712 9.77917 15.8649 8.48553C17.1585 7.1919 18.8067 6.31095 20.6011 5.95404C22.3954 5.59713 24.2552 5.7803 25.9454 6.48041C27.6357 7.18052 29.0803 8.36611 30.0967 9.88727C31.1131 11.4084 31.6556 13.1968 31.6556 15.0263C31.6596 16.2436 31.4232 17.4497 30.9601 18.5754C30.497 19.7011 29.8164 20.7244 28.957 21.5865C28.0977 22.4486 27.0766 23.1326 25.9524 23.5993C24.8282 24.066 23.6229 24.3063 22.4056 24.3063V24.2763Z" fill="#3E5973"/>
<path d="M22.411 17.7563C24.4545 17.7563 26.111 16.0998 26.111 14.0563C26.111 12.0129 24.4545 10.3564 22.411 10.3564C20.3676 10.3564 18.7109 12.0129 18.7109 14.0563C18.7109 16.0998 20.3676 17.7563 22.411 17.7563Z" fill="#3E5973"/>
</svg>
