<svg width="65" height="42" viewBox="0 0 65 42" fill="none" xmlns="http://www.w3.org/2000/svg">
<path d="M35.0597 41.1101C35.3229 40.9794 35.5576 40.7979 35.7505 40.5762C35.9433 40.3544 36.0905 40.0968 36.1835 39.818C36.2764 39.5392 36.3132 39.2448 36.292 38.9517C36.2708 38.6586 36.1918 38.3726 36.0597 38.1101C36.0597 38.1101 34.9697 36.1101 34.3698 34.9501C34.0698 36.3901 33.2298 36.8701 31.2498 38.5901L32.0997 40.2001C32.4208 40.6715 32.8929 41.0194 33.4382 41.1866C33.9835 41.3539 34.5696 41.3304 35.0997 41.1201L35.0597 41.1101ZM29.3097 38.5101L32.3097 35.8701C32.7211 35.4716 32.9643 34.9308 32.9893 34.3586C33.0142 33.7865 32.8191 33.2266 32.444 32.7938C32.0688 32.3611 31.5422 32.0885 30.9723 32.032C30.4024 31.9755 29.8325 32.1394 29.3798 32.4901L26.3798 35.1301C25.9684 35.5285 25.7252 36.0694 25.7002 36.6415C25.6752 37.2137 25.8704 37.7736 26.2455 38.2064C26.6206 38.6391 27.1473 38.9117 27.7172 38.9682C28.2871 39.0247 28.8569 38.8607 29.3097 38.5101ZM40.0098 38.5101C40.5376 38.2421 40.9384 37.7769 41.1256 37.2154C41.3128 36.6538 41.2712 36.0411 41.0098 35.5101L37.5597 29.0801L38.5597 28.4601L42.3998 35.7001C42.5377 35.9627 42.7258 36.1956 42.9537 36.3855C43.1816 36.5754 43.4448 36.7185 43.728 36.8068C44.0112 36.895 44.3091 36.9265 44.6045 36.8997C44.8999 36.8728 45.1871 36.788 45.4497 36.6501C45.7123 36.5122 45.9452 36.3239 46.1351 36.096C46.325 35.8681 46.4682 35.6051 46.5564 35.3218C46.6446 35.0386 46.6762 34.7408 46.6493 34.4454C46.6224 34.15 46.5377 33.8627 46.3998 33.6001L42.3998 26.0901L43.3998 25.4901C43.3998 25.4901 46.0297 30.5601 46.9797 32.3701C47.2582 32.9005 47.736 33.2986 48.308 33.4767C48.88 33.6549 49.4994 33.5985 50.0298 33.3201C50.5602 33.0416 50.9582 32.5638 51.1364 31.9918C51.3145 31.4198 51.2582 30.8005 50.9797 30.2701C49.9108 28.0539 48.7223 25.8974 47.4197 23.8101C43.8297 18.8101 38.5897 15.3901 33.4197 11.1201L24.2498 15.4201C23.4142 15.7667 22.4772 15.7783 21.6333 15.4525C20.7894 15.1267 20.1033 14.4886 19.7174 13.6704C19.3315 12.8523 19.2754 11.917 19.5607 11.0585C19.846 10.2001 20.4509 9.48443 21.2498 9.06006L23.4497 8.06006H16.4497L8.98975 18.2701L13.8497 22.7501C14.0574 22.2969 14.3611 21.8943 14.7397 21.5701L20.1997 16.8201C20.729 16.3655 21.3811 16.0781 22.0737 15.994C22.7663 15.9098 23.4683 16.0328 24.0911 16.3474C24.7138 16.6619 25.2294 17.154 25.5726 17.7614C25.9159 18.3688 26.0715 19.0643 26.0198 19.7601C26.6912 19.6133 27.3909 19.6663 28.0326 19.9125C28.6743 20.1588 29.2297 20.5874 29.6306 21.1457C30.0315 21.704 30.2602 22.3674 30.2885 23.0541C30.3167 23.7408 30.1433 24.4207 29.7897 25.0101C30.6023 25.1353 31.3436 25.5467 31.8798 26.1701C32.4533 26.8146 32.7701 27.6473 32.7701 28.5101C32.7701 29.3728 32.4533 30.2056 31.8798 30.8501C32.3025 30.803 32.7302 30.8711 33.1174 31.0471C33.5047 31.2232 33.8372 31.5006 34.0797 31.8501C34.0797 31.8501 36.3998 36.0701 37.2498 37.6701C37.5682 38.1447 38.0396 38.4958 38.5854 38.665C39.1313 38.8343 39.7187 38.8113 40.2498 38.6001L40.0098 38.5101ZM25.6398 34.3001L30.4998 30.0801C30.9466 29.6915 31.2208 29.1414 31.2621 28.5507C31.3033 27.9599 31.1083 27.3769 30.7197 26.9301C30.3312 26.4832 29.781 26.209 29.1903 26.1677C28.5996 26.1265 28.0166 26.3215 27.5697 26.7101C27.4597 26.8101 22.6397 30.9801 22.5697 31.0901C22.1901 31.512 21.9849 32.0622 21.9954 32.6296C22.0058 33.1971 22.2313 33.7394 22.6262 34.147C23.0211 34.5546 23.556 34.7971 24.1228 34.8255C24.6896 34.8539 25.246 34.6662 25.6797 34.3001H25.6398ZM21.3597 30.5901L28.0298 24.8001C28.4629 24.409 28.7254 23.8638 28.7611 23.2813C28.7968 22.6989 28.6028 22.1257 28.2207 21.6846C27.8386 21.2436 27.2988 20.9699 26.7172 20.9224C26.1356 20.8748 25.5585 21.057 25.1097 21.4301L19.0198 26.7101C18.7144 26.8878 18.4495 27.1273 18.2419 27.4133C18.0344 27.6992 17.8889 28.0253 17.8146 28.3707C17.7402 28.7161 17.7387 29.0732 17.8102 29.4192C17.8817 29.7652 18.0246 30.0924 18.2297 30.3801C18.6201 30.8171 19.1655 31.0846 19.75 31.1257C20.3345 31.1668 20.9121 30.9782 21.3597 30.6001V30.5901ZM15.1697 25.5901C14.9757 25.3702 14.8271 25.1143 14.7322 24.8369C14.6373 24.5595 14.598 24.2662 14.6166 23.9736C14.6352 23.6811 14.7112 23.395 14.8405 23.1318C14.9697 22.8687 15.1496 22.6336 15.3698 22.4401L20.8297 17.7001C21.2779 17.3189 21.8576 17.1285 22.4446 17.1696C23.0315 17.2107 23.579 17.4802 23.9697 17.9201C24.1649 18.1394 24.3146 18.3951 24.4103 18.6726C24.5059 18.9501 24.5457 19.2439 24.5271 19.5368C24.5085 19.8298 24.432 20.1161 24.302 20.3793C24.172 20.6425 23.9911 20.8773 23.7698 21.0701L18.2997 25.8201C17.854 26.2044 17.2741 26.3962 16.6871 26.353C16.1002 26.3099 15.5544 26.0355 15.1697 25.5901ZM33.4897 9.59009L23.5797 14.2401C23.0638 14.4099 22.5037 14.3865 22.0038 14.1741C21.5038 13.9618 21.098 13.575 20.8619 13.0858C20.6259 12.5965 20.5757 12.0383 20.7206 11.5148C20.8655 10.9913 21.1958 10.5383 21.6498 10.2401L31.6498 5.56006C33.0824 5.04458 34.5976 4.79715 36.1198 4.83008C39.5498 4.83008 46.5897 6.67009 49.8297 7.59009L55.6597 17.5201L52.3197 19.6301C51.5097 20.4001 50.8597 22.5601 49.1097 23.7101C45.5197 18.8501 39.2498 13.7901 33.5098 9.63007L33.4897 9.59009ZM50.7097 5.52008L56.8397 1.77008L64.2097 14.0901L57.8397 17.6601L50.7097 5.52008ZM0.429688 13.3801L9.02979 0.860107L15.3698 5.93005L6.95972 17.6001L0.429688 13.3801Z" fill="#3E5973"/>
</svg>
