<svg width="57" height="33" viewBox="0 0 57 33" fill="none" xmlns="http://www.w3.org/2000/svg">
<path d="M18.3741 12.4742C19.884 12.6602 21.4127 12.63 22.914 12.3843C23.014 12.3843 23.1241 12.2543 23.2041 12.1743C23.9555 11.3063 24.8317 10.5547 25.8041 9.94421H24.2141C23.7941 9.94421 23.374 9.65424 22.974 9.84424C21.3695 10.5901 19.8308 11.4699 18.3741 12.4742ZM38.4541 12.5642C37.0022 11.5717 35.4741 10.6957 33.884 9.94421C33.7507 9.87915 33.6001 9.8582 33.4541 9.88428C32.6536 10.0365 31.8367 10.0836 31.0241 10.0243C31.9736 10.6297 32.8321 11.3671 33.5741 12.2142C33.6641 12.3242 33.794 12.4642 33.914 12.4742C35.4175 12.6958 36.943 12.726 38.4541 12.5642ZM23.9241 9.46423V9.70422C26.8862 9.42934 29.8655 9.38922 32.8341 9.58423C31.4441 8.78423 30.0441 8.10431 28.6541 7.41431C28.5671 7.36524 28.4689 7.33936 28.3691 7.33936C28.2692 7.33936 28.171 7.36524 28.0841 7.41431L23.8941 9.41431M24.104 4.41431L28.0541 6.59424C28.1222 6.64835 28.2035 6.68338 28.2896 6.69568C28.3757 6.70798 28.4635 6.69718 28.5441 6.66431L32.6241 4.41431C31.2641 3.63431 30.0141 2.92421 28.7741 2.19421C28.6552 2.11163 28.5138 2.06738 28.3691 2.06738C28.2243 2.06738 28.083 2.11163 27.9641 2.19421C26.7241 2.92421 25.4741 3.63431 24.104 4.41431ZM34.224 9.61426C35.7919 10.3797 37.3055 11.2518 38.754 12.2242C38.8343 12.281 38.927 12.3179 39.0244 12.3318C39.1218 12.3457 39.2211 12.3362 39.3141 12.3042C40.6767 11.8622 41.9798 11.2544 43.194 10.4943C41.624 9.58426 40.1141 8.73425 38.6241 7.85425C38.5059 7.78937 38.3706 7.76231 38.2365 7.77661C38.1024 7.79091 37.9759 7.84585 37.8741 7.9342C36.7175 8.61653 35.4945 9.17948 34.224 9.61426ZM13.5441 10.4943C14.5049 11.069 15.5078 11.5704 16.5441 11.9943C16.8856 12.1892 17.2788 12.2747 17.6705 12.2389C18.0622 12.2031 18.4335 12.0479 18.7341 11.7943C19.9389 10.9674 21.206 10.2352 22.5241 9.60425C21.2641 9.17117 20.0513 8.6116 18.9041 7.9342C18.6641 7.8042 18.4641 7.66425 18.1541 7.85425C16.6641 8.73425 15.1541 9.58426 13.5841 10.4943M3.58406 16.2242L7.58406 18.5343C7.64428 18.576 7.7158 18.5983 7.78906 18.5983C7.86232 18.5983 7.93384 18.576 7.99406 18.5343L11.9941 16.1443L8.07405 13.9442C7.99342 13.8879 7.89743 13.8577 7.79906 13.8577C7.70068 13.8577 7.60469 13.8879 7.52406 13.9442L3.52406 16.2443M53.1141 16.2443L49.1741 13.9843C49.0987 13.9203 49.0054 13.8811 48.907 13.8722C48.8085 13.8632 48.7097 13.8849 48.6241 13.9342L44.6241 16.1942L48.5341 18.5043C48.6097 18.5673 48.7022 18.6066 48.8 18.6173C48.8978 18.628 48.9967 18.6094 49.0841 18.5642L53.0841 16.2443M32.5141 28.0742L28.604 25.7242C28.5274 25.6628 28.4344 25.6253 28.3366 25.6165C28.2388 25.6076 28.1405 25.6277 28.0541 25.6743L24.0541 28.0842C25.3941 28.8542 26.6641 29.5742 27.9241 30.3142C28.0343 30.3903 28.1651 30.4312 28.2991 30.4312C28.433 30.4312 28.5638 30.3903 28.6741 30.3142L32.504 28.1042M18.754 7.49426C19.8828 8.2061 21.091 8.78334 22.354 9.21423C22.604 9.29423 22.844 9.45421 23.134 9.31421L27.8441 7.06421L23.9041 4.84424C23.8205 4.79081 23.7233 4.76245 23.6241 4.76245C23.5248 4.76245 23.4277 4.79081 23.3441 4.84424L18.754 7.49426ZM37.8141 7.49426L33.164 4.81421C33.1018 4.77293 33.0288 4.75098 32.9541 4.75098C32.8794 4.75098 32.8063 4.77293 32.7441 4.81421L28.7441 7.07422L33.354 9.2843C33.5366 9.35931 33.7415 9.35931 33.9241 9.2843C35.2998 8.84339 36.6163 8.23546 37.8441 7.47424M17.254 12.7042C16.1634 12.3951 15.1179 11.9446 14.1441 11.3643C13.8613 11.1099 13.4944 10.9691 13.1141 10.9691C12.7337 10.9691 12.3668 11.1099 12.0841 11.3643C11.7671 11.5903 11.4327 11.7909 11.0841 11.9642L8.24406 13.6143L12.1841 15.7943C12.2918 15.8552 12.4164 15.8793 12.5391 15.863C12.6618 15.8468 12.7758 15.791 12.8641 15.7042L17.3441 12.7042M48.5641 13.5842L43.8241 10.8643C43.7469 10.8263 43.6604 10.8117 43.5751 10.8224C43.4898 10.8331 43.4095 10.8685 43.3441 10.9243C42.1121 11.6458 40.8126 12.2452 39.4641 12.7142C41.0441 13.7142 42.524 14.7142 44.004 15.7142C44.0949 15.7779 44.2031 15.8121 44.3141 15.8121C44.425 15.8121 44.5332 15.7779 44.6241 15.7142L48.5641 13.5343M17.4041 18.7343L12.7441 16.4642C12.6818 16.423 12.6088 16.401 12.5341 16.401C12.4594 16.401 12.3863 16.423 12.3241 16.4642L8.27406 18.9043L12.8641 21.5542C13.1341 21.7142 13.3241 21.5542 13.5441 21.4642C14.9161 20.6891 16.209 19.7815 17.4041 18.7543M48.5241 18.9043L44.604 16.5443C44.5289 16.4808 44.437 16.4404 44.3394 16.428C44.2418 16.4156 44.1427 16.4316 44.0541 16.4742L39.3941 18.7543C40.6493 19.8311 42.0094 20.7791 43.4541 21.5842C43.5255 21.6307 43.6088 21.6555 43.694 21.6555C43.7793 21.6555 43.8627 21.6307 43.9341 21.5842L48.5241 18.9442M37.9541 25.0243C36.5458 24.2217 35.2077 23.3017 33.9541 22.2743C33.9129 22.2307 33.8633 22.196 33.8083 22.1722C33.7533 22.1485 33.694 22.1362 33.634 22.1362C33.5741 22.1362 33.5149 22.1485 33.4598 22.1722C33.4048 22.196 33.3552 22.2307 33.3141 22.2743C31.8241 23.2743 30.314 24.2743 28.754 25.3643L32.754 27.7242C32.8377 27.7777 32.9348 27.806 33.0341 27.806C33.1333 27.806 33.2305 27.7777 33.3141 27.7242L37.9241 25.0742M27.974 25.3843C26.394 24.3143 24.9041 23.3042 23.4041 22.3042C23.2441 22.1942 23.094 22.0443 22.884 22.2343C21.6213 23.2796 20.2845 24.2321 18.884 25.0842L23.4841 27.7242C23.5647 27.7806 23.6607 27.8108 23.759 27.8108C23.8574 27.8108 23.9534 27.7806 24.0341 27.7242L28.0341 25.3643M13.5841 22.0143C15.1641 22.9243 16.6541 23.7743 18.1241 24.6343C18.2224 24.7073 18.3416 24.7467 18.4641 24.7467C18.5865 24.7467 18.7058 24.7073 18.8041 24.6343C20.059 23.8817 21.2647 23.05 22.414 22.1443C22.724 21.8943 22.704 21.7642 22.414 21.5542C21.0805 20.6943 19.7019 19.9066 18.2841 19.1942C18.1864 19.1196 18.0669 19.0792 17.944 19.0792C17.8212 19.0792 17.7017 19.1196 17.604 19.1942C16.3534 20.2345 15.0151 21.1647 13.604 21.9742M43.2941 21.9742C41.8565 21.1404 40.4917 20.1871 39.2141 19.1243C38.9841 18.9343 38.7941 19.1242 38.5941 19.1842C37.1921 19.8715 35.833 20.643 34.5241 21.4943C34.1741 21.7143 34.134 21.8443 34.474 22.1243C35.6286 23.0245 36.8376 23.8527 38.0941 24.6042C38.1822 24.67 38.2891 24.7056 38.3991 24.7056C38.509 24.7056 38.616 24.67 38.7041 24.6042C40.2041 23.7242 41.7041 22.8742 43.2941 21.9642M43.944 16.1543L39.164 12.9342C39.0921 12.8881 39.0107 12.8589 38.9259 12.8485C38.8411 12.8381 38.755 12.8469 38.6741 12.8743C37.844 13.034 36.9955 13.0744 36.1541 12.9943L34.2641 12.8943C35.6743 14.7559 37.1937 16.5323 38.8141 18.2142C38.8908 18.3089 39.0006 18.371 39.1213 18.3877C39.242 18.4044 39.3645 18.3745 39.4641 18.3042L43.944 16.1543ZM12.944 16.1543C14.444 16.8743 15.8541 17.5242 17.2341 18.2242C17.3918 18.3263 17.582 18.3655 17.7672 18.334C17.9523 18.3025 18.1189 18.2026 18.2341 18.0542C19.7134 16.4823 21.1086 14.8334 22.414 13.1143C22.414 13.1143 22.414 12.9843 22.414 12.9043C20.9569 13.094 19.4812 13.094 18.0241 12.9043C17.9636 12.8971 17.9022 12.9022 17.8438 12.9194C17.7854 12.9366 17.731 12.9655 17.6841 13.0043C16.1241 14.0043 14.574 15.0842 12.914 16.2042M33.2041 12.5043C30.2941 8.63427 25.8241 9.27427 23.6841 12.5043C24.5223 12.6066 25.3317 12.8751 26.0649 13.2941C26.7981 13.713 27.4403 14.274 27.9541 14.9442C28.3141 15.3242 28.484 15.3542 28.854 14.9442C29.3748 14.2618 30.029 13.6927 30.7769 13.2715C31.5248 12.8503 32.3506 12.5858 33.2041 12.4943M33.3441 21.7543L33.1241 21.5143C31.5929 19.9513 30.1759 18.2803 28.884 16.5143C28.464 15.9943 28.254 16.1343 27.884 16.5143C26.5932 18.2444 25.1902 19.8879 23.6841 21.4342C23.3841 21.7042 23.5341 21.8142 23.7641 21.9742C25.1741 22.9042 26.574 23.8343 27.974 24.7843C28.0843 24.878 28.2243 24.9294 28.3691 24.9294C28.5138 24.9294 28.6538 24.878 28.7641 24.7843C30.1541 23.7843 31.5641 22.9042 32.9641 21.9642C33.086 21.8741 33.2028 21.7774 33.3141 21.6743M28.0641 15.6743C27.9941 15.5743 27.9641 15.5042 27.9241 15.4542C26.958 14.1775 25.5861 13.2676 24.0341 12.8743C23.7879 12.8066 23.527 12.8154 23.286 12.8993C23.0449 12.9832 22.835 13.1384 22.6841 13.3442C21.3837 15.1035 19.9672 16.7739 18.444 18.3442C18.134 18.6342 18.2441 18.7543 18.5641 18.9043C19.927 19.5555 21.2376 20.3111 22.4841 21.1643C22.5552 21.2369 22.6415 21.2929 22.7368 21.3282C22.8321 21.3636 22.934 21.3775 23.0353 21.3689C23.1365 21.3603 23.2346 21.3294 23.3226 21.2784C23.4105 21.2275 23.4862 21.1578 23.5441 21.0742C25.1241 19.4942 26.4141 17.6642 27.8641 15.9742L28.0641 15.6942M33.164 12.8542C31.8063 12.9858 30.5471 13.6208 29.634 14.6343C28.634 15.6343 28.6341 15.6343 29.4841 16.6343L30.5541 17.9642C31.3955 19.0682 32.3145 20.1109 33.3041 21.0842C33.4941 21.2642 33.6341 21.5243 33.9841 21.2843C35.3585 20.3539 36.799 19.5249 38.2941 18.8042C38.5141 18.6942 38.614 18.5943 38.384 18.3743C36.7775 16.6897 35.262 14.9204 33.8441 13.0742C33.774 12.9629 33.6704 12.8768 33.5481 12.8282C33.4259 12.7797 33.2914 12.7713 33.164 12.8042M0.164062 16.1942L5.68405 13.0143C13.0174 8.78095 20.374 4.54754 27.754 0.314209C27.9376 0.182348 28.158 0.11145 28.384 0.11145C28.6101 0.11145 28.8305 0.182348 29.0141 0.314209C37.9541 5.47421 46.9007 10.6243 55.854 15.7643C56.064 15.8843 56.2641 16.0142 56.5641 16.2042L54.0841 17.6543C45.7374 22.4543 37.4041 27.2542 29.0841 32.0542C28.8909 32.1948 28.658 32.2706 28.4191 32.2706C28.1801 32.2706 27.9473 32.1948 27.754 32.0542C18.774 26.8742 9.77406 21.701 0.754059 16.5343L0.174057 16.1942" fill="#5D808F"/>
</svg>
