<svg width="31" height="45" viewBox="0 0 31 45" fill="none" xmlns="http://www.w3.org/2000/svg">
<path fill-rule="evenodd" clip-rule="evenodd" d="M30.4097 22.4063V17.4863C30.4097 16.8338 30.1505 16.2082 29.6891 15.7469C29.2278 15.2855 28.6021 15.0263 27.9496 15.0263C27.2972 15.0263 26.6715 15.2855 26.2102 15.7469C25.7489 16.2082 25.4897 16.8338 25.4897 17.4863V22.4063C25.4897 22.8063 25.3697 32.2463 15.6497 32.2463C6.16966 32.2463 5.81969 23.3963 5.80969 22.4063V17.4863C5.80969 16.8338 5.55051 16.2082 5.08917 15.7469C4.62783 15.2855 4.0021 15.0263 3.34967 15.0263C2.69724 15.0263 2.07151 15.2855 1.61017 15.7469C1.14883 16.2082 0.889649 16.8338 0.889648 17.4863V22.4063C0.889648 27.1263 3.53964 35.7363 13.1896 36.9963V39.6263H3.34967C2.69724 39.6263 2.07151 39.8855 1.61017 40.3469C1.14883 40.8082 0.889648 41.4339 0.889648 42.0864C0.889648 42.7388 1.14883 43.3645 1.61017 43.8259C2.07151 44.2872 2.69724 44.5463 3.34967 44.5463H27.9496C28.6021 44.5463 29.2278 44.2872 29.6891 43.8259C30.1505 43.3645 30.4097 42.7388 30.4097 42.0864C30.4097 41.4339 30.1505 40.8082 29.6891 40.3469C29.2278 39.8855 28.6021 39.6263 27.9496 39.6263H18.1097V36.9963C27.7197 35.7363 30.4097 27.1263 30.4097 22.4063Z" fill="#3E5973"/>
<path fill-rule="evenodd" clip-rule="evenodd" d="M23.0195 15.0263V7.63629C22.9492 5.72732 22.1414 3.91997 20.7661 2.5943C19.3907 1.26862 17.5548 0.527893 15.6445 0.527893C13.7343 0.527893 11.8984 1.26862 10.523 2.5943C9.14761 3.91997 8.33984 5.72732 8.26953 7.63629V15.0263H23.0195Z" fill="#3E5973"/>
<path fill-rule="evenodd" clip-rule="evenodd" d="M8.25977 17.4863V22.4063C8.25977 24.3636 9.03731 26.2408 10.4213 27.6248C11.8053 29.0088 13.6825 29.7863 15.6398 29.7863C17.5971 29.7863 19.4742 29.0088 20.8582 27.6248C22.2422 26.2408 23.0198 24.3636 23.0198 22.4063V17.4863H8.25977Z" fill="#3E5973"/>
</svg>
