<svg width="18" height="36" viewBox="0 0 18 36" fill="none" xmlns="http://www.w3.org/2000/svg">
<path d="M17.6734 9.12428C17.6724 7.47259 17.2034 5.855 16.3207 4.45893C15.4381 3.06287 14.1779 1.94549 12.6862 1.23628C11.1945 0.527063 9.53244 0.255026 7.8925 0.451731C6.25257 0.648436 4.70191 1.3058 3.42027 2.34767C2.13864 3.38953 1.17845 4.77325 0.650987 6.33845C0.123526 7.90365 0.0504056 9.58628 0.440049 11.1914C0.829693 12.7964 1.66613 14.2582 2.85252 15.4074C4.03892 16.5565 5.52668 17.346 7.14336 17.6843V35.3643H10.6434V17.6843C12.6245 17.291 14.4079 16.2229 15.6898 14.662C16.9717 13.1011 17.6727 11.1441 17.6734 9.12428ZM3.67339 6.50428C3.67339 5.98609 3.82703 5.47951 4.11491 5.04865C4.4028 4.6178 4.81201 4.28199 5.29076 4.08369C5.7695 3.88539 6.29626 3.83349 6.80449 3.93458C7.31272 4.03567 7.77957 4.28521 8.14598 4.65162C8.51239 5.01803 8.76193 5.48488 8.86302 5.99311C8.96412 6.50134 8.91222 7.02816 8.71391 7.50691C8.51561 7.98565 8.1798 8.3948 7.74895 8.68269C7.31809 8.97058 6.81157 9.12428 6.29338 9.12428C5.60199 9.119 4.94069 8.84064 4.45366 8.34986C3.96663 7.85909 3.69333 7.1957 3.69335 6.50428H3.67339Z" fill="#3E5973"/>
</svg>
