<svg width="55" height="33" viewBox="0 0 55 33" fill="none" xmlns="http://www.w3.org/2000/svg">
<g clip-path="url(#clip0_642_744)">
<path d="M8.18982 14.1499C7.51577 14.8831 6.62148 15.3772 5.64197 15.5576C4.66245 15.738 3.65081 15.5949 2.75977 15.1499L7.17981 32.6599H12.8098L8.18982 14.1499Z" fill="#5D808A"/>
<path d="M37.7498 12.7496L13.2297 3.67969C13.442 4.58885 13.3815 5.54037 13.056 6.41541C12.7306 7.29045 12.1544 8.05013 11.3997 8.59961C11.3397 8.59961 11.2697 8.65971 11.2197 8.69971L36.0397 17.8896C35.7712 16.9605 35.791 15.9718 36.0963 15.0541C36.4016 14.1364 36.9782 13.3328 37.7498 12.7496Z" fill="#5D808A"/>
<path d="M44.5693 19.1497C44.7764 18.905 44.9419 18.628 45.0593 18.3297C45.1335 18.1199 45.1806 17.9014 45.1993 17.6797C45.0711 18.2008 44.8583 18.6974 44.5693 19.1497Z" fill="#5D808A"/>
<path d="M3.72975 9.68972C3.91091 9.52028 4.1261 9.39146 4.36109 9.31203C4.59608 9.23261 4.84536 9.20435 5.09217 9.22915C5.33898 9.25394 5.57763 9.33125 5.79212 9.45583C6.00662 9.58041 6.19199 9.74935 6.33582 9.95144C6.47966 10.1535 6.57865 10.3841 6.62611 10.6276C6.67357 10.8711 6.6685 11.1219 6.61109 11.3632C6.55369 11.6045 6.44535 11.8307 6.29334 12.0268C6.14134 12.2228 5.94917 12.384 5.72975 12.4997C5.54648 12.6352 5.33808 12.733 5.11671 12.7873C4.89534 12.8415 4.66536 12.8513 4.4402 12.8159C4.21503 12.7806 3.99914 12.7008 3.80506 12.5813C3.61099 12.4618 3.44261 12.3048 3.3097 12.1197C3.03808 11.7469 2.92558 11.2817 2.99684 10.8261C3.06809 10.3704 3.31727 9.96171 3.68971 9.68972M1.91969 7.25967C1.15902 7.8115 0.579162 8.57653 0.253427 9.45803C-0.0723071 10.3395 -0.129208 11.2978 0.0898532 12.2117C0.308914 13.1256 0.794042 13.9539 1.48402 14.5919C2.17399 15.23 3.03776 15.649 3.96595 15.796C4.89414 15.943 5.84502 15.8114 6.69837 15.4177C7.55173 15.0241 8.26918 14.3863 8.7599 13.5849C9.25062 12.7834 9.49263 11.8544 9.45521 10.9154C9.41779 9.97642 9.10263 9.06958 8.54969 8.30971C7.80916 7.29205 6.695 6.60985 5.45191 6.41299C4.20882 6.21612 2.93843 6.52062 1.91969 7.25967Z" fill="#5D808A"/>
<path d="M5.80991 0.909956C5.05232 1.46679 4.47697 2.23589 4.15683 3.11992C3.83669 4.00395 3.78619 4.9631 4.01157 5.8759C4.23695 6.7887 4.72813 7.61417 5.42294 8.2476C6.11776 8.88103 6.98494 9.29402 7.91464 9.43425C8.84434 9.57447 9.79474 9.43564 10.6455 9.03532C11.4962 8.63501 12.209 7.99119 12.6936 7.18547C13.1782 6.37975 13.4127 5.44833 13.3675 4.5092C13.3224 3.57007 12.9996 2.66547 12.4399 1.90996C11.6919 0.900124 10.5742 0.227879 9.33151 0.0404493C8.08886 -0.14698 6.82252 0.165682 5.80991 0.909956ZM9.61997 6.15996C9.34112 6.36161 9.00865 6.47605 8.66476 6.48881C8.32088 6.50158 7.98098 6.41204 7.68796 6.23161C7.39493 6.05119 7.16194 5.78795 7.01852 5.47514C6.87511 5.16233 6.82776 4.81406 6.88229 4.47429C6.93683 4.13452 7.09082 3.81855 7.32492 3.56633C7.55902 3.31411 7.86271 3.13696 8.19748 3.0573C8.53225 2.97763 8.88304 2.99896 9.20566 3.1187C9.52827 3.23843 9.80812 3.45112 10.0099 3.7299C10.1436 3.91426 10.2397 4.12323 10.2925 4.34477C10.3452 4.56631 10.3537 4.79608 10.3175 5.02092C10.2812 5.24576 10.201 5.46121 10.0813 5.65495C9.96157 5.84869 9.80482 6.01693 9.61997 6.14995V6.15996Z" fill="#5D808A"/>
<path d="M48.0599 22.25H43.9299L43.5199 20.3101L43.45 20.38C43.274 20.5049 43.0903 20.6185 42.8999 20.72C42.2491 21.0675 41.5227 21.2494 40.7849 21.2494C40.0471 21.2494 39.3207 21.0675 38.6699 20.72L38.3799 20.92L39.7599 27.4501L48.25 27.39C48.6094 27.3864 48.964 27.3077 49.2913 27.1591C49.6185 27.0104 49.911 26.7951 50.1501 26.5267C50.3893 26.2584 50.5698 25.9431 50.6799 25.601C50.7901 25.2588 50.8275 24.8975 50.7899 24.54C50.6946 23.8901 50.3639 23.2978 49.8606 22.8756C49.3573 22.4534 48.7166 22.2308 48.0599 22.25Z" fill="#5D808A"/>
<path d="M53.0302 12.87L45.7002 7.79004L41.4102 11.89C42.1238 12.0115 42.8003 12.2945 43.3878 12.7174C43.9754 13.1403 44.4584 13.6919 44.8002 14.3301C45.0214 14.7602 45.1734 15.2225 45.2502 15.7001L46.2502 14.7001L49.9502 17.27C50.4073 17.5951 50.9542 17.7699 51.5151 17.7699C52.0761 17.7699 52.6231 17.5951 53.0802 17.27C53.4303 17.0167 53.7145 16.6831 53.9088 16.2971C54.1032 15.9112 54.202 15.4842 54.1971 15.0521C54.1922 14.62 54.0837 14.1954 53.8806 13.814C53.6776 13.4325 53.3859 13.1053 53.0302 12.86V12.87Z" fill="#5D808A"/>
<path d="M39.5702 15.1498L39.7802 15.0198C40.1686 14.781 40.6356 14.7053 41.0796 14.809C41.5236 14.9127 41.9088 15.1875 42.1513 15.5737C42.3937 15.9598 42.474 16.4259 42.3745 16.8709C42.2751 17.3159 42.004 17.7037 41.6203 17.9499L41.4102 18.0898C41.0222 18.2904 40.5729 18.3378 40.1516 18.2225C39.7303 18.1071 39.3677 17.8376 39.136 17.4673C38.9043 17.0971 38.8203 16.6531 38.9008 16.2238C38.9812 15.7945 39.2201 15.4111 39.5702 15.1498ZM37.8002 12.7099C36.802 13.4335 36.1236 14.5161 35.9076 15.7299C35.6916 16.9437 35.955 18.194 36.6423 19.2175C37.3297 20.2409 38.3873 20.9578 39.5925 21.2172C40.7978 21.4766 42.0568 21.2581 43.1043 20.608C44.1517 19.9578 44.9061 18.9266 45.2085 17.7314C45.511 16.5362 45.3379 15.2703 44.7257 14.2001C44.1136 13.13 43.1101 12.3392 41.9265 11.9941C40.743 11.6489 39.4716 11.7764 38.3801 12.3498C38.1784 12.4557 37.9846 12.5761 37.8002 12.7099Z" fill="#5D808A"/>
</g>
<defs>
<clipPath id="clip0_642_744">
<rect width="54.19" height="32.65" fill="white"/>
</clipPath>
</defs>
</svg>