<svg width="80" height="80" viewBox="0 0 80 80" fill="none" xmlns="http://www.w3.org/2000/svg">
<path d="M80 40C80 62.0914 62.0914 80 40 80C17.9086 80 0 62.0914 0 40C0 17.9086 17.9086 0 40 0C62.0914 0 80 17.9086 80 40Z" fill="#445971"/>
<path d="M29.66 34.6667C32.015 34.6667 33.26 33.4217 34.1683 32.5117C34.985 31.695 35.3867 31.3333 36.3217 31.3333C37.2567 31.3333 37.6583 31.695 38.475 32.5117C39.3833 33.4217 40.6283 34.6667 42.985 34.6667C45.3433 34.6667 46.59 33.4217 47.5017 32.5117C48.32 31.695 48.7217 31.3333 49.66 31.3333C50.5983 31.3333 51 31.695 51.8183 32.5117C52.7283 33.4217 53.975 34.6667 56.3333 34.6667V31.3333C55.395 31.3333 54.9933 30.9717 54.175 30.155C53.265 29.245 52.0183 28 49.66 28C47.3017 28 46.0567 29.245 45.145 30.1533C44.3267 30.9717 43.9267 31.3333 42.985 31.3333C42.0483 31.3333 41.6483 30.9717 40.8317 30.155C39.9233 29.245 38.6783 28 36.3217 28C33.965 28 32.72 29.245 31.8117 30.155C30.995 30.9717 30.595 31.3333 29.66 31.3333C28.725 31.3333 28.325 30.9717 27.5083 30.155C26.6 29.245 25.355 28 23 28V31.3333C23.935 31.3333 24.335 31.695 25.1517 32.5117C26.06 33.4217 27.305 34.6667 29.66 34.6667ZM29.66 43C32.015 43 33.26 41.755 34.1683 40.845C34.985 40.0283 35.3867 39.6667 36.3217 39.6667C37.2567 39.6667 37.6583 40.0283 38.475 40.845C39.3833 41.755 40.6283 43 42.985 43C45.3433 43 46.59 41.755 47.5017 40.845C48.32 40.0283 48.7217 39.6667 49.66 39.6667C50.5983 39.6667 51 40.0283 51.8183 40.845C52.7283 41.755 53.975 43 56.3333 43V39.6667C55.395 39.6667 54.9933 39.305 54.175 38.4883C53.265 37.5783 52.0183 36.3333 49.66 36.3333C47.3017 36.3333 46.0567 37.5783 45.145 38.4867C44.3267 39.305 43.9267 39.6667 42.985 39.6667C42.0483 39.6667 41.6483 39.305 40.8317 38.4883C39.9233 37.5783 38.6783 36.3333 36.3217 36.3333C33.965 36.3333 32.72 37.5783 31.8117 38.4883C30.995 39.305 30.595 39.6667 29.66 39.6667C28.725 39.6667 28.325 39.305 27.5083 38.4883C26.6 37.5783 25.355 36.3333 23 36.3333V39.6667C23.935 39.6667 24.335 40.0283 25.1517 40.845C26.06 41.755 27.305 43 29.66 43ZM29.66 51.3333C32.015 51.3333 33.26 50.0883 34.1683 49.1783C34.985 48.3617 35.3867 48 36.3217 48C37.2567 48 37.6583 48.3617 38.475 49.1783C39.3833 50.0883 40.6283 51.3333 42.985 51.3333C45.3433 51.3333 46.59 50.0883 47.5017 49.1783C48.32 48.3617 48.7217 48 49.66 48C50.5983 48 51 48.3617 51.8183 49.1783C52.7283 50.0883 53.975 51.3333 56.3333 51.3333V48C55.395 48 54.9933 47.6383 54.175 46.8217C53.265 45.9117 52.0183 44.6667 49.66 44.6667C47.3017 44.6667 46.0567 45.9117 45.145 46.82C44.3267 47.6383 43.9267 48 42.985 48C42.0483 48 41.6483 47.6383 40.8317 46.8217C39.9233 45.9117 38.6783 44.6667 36.3217 44.6667C33.965 44.6667 32.72 45.9117 31.8117 46.8217C30.995 47.6383 30.595 48 29.66 48C28.725 48 28.325 47.6383 27.5083 46.8217C26.6 45.9117 25.355 44.6667 23 44.6667V48C23.935 48 24.335 48.3617 25.1517 49.1783C26.06 50.0883 27.305 51.3333 29.66 51.3333Z" fill="white"/>
</svg>
