<svg width="1178" height="271" viewBox="0 0 1178 271" fill="none" xmlns="http://www.w3.org/2000/svg">
<path d="M62.5743 181.568V179.068H60.0743V181.568H62.5743ZM77.5632 181.568H80.0632V179.068H77.5632V181.568ZM77.5632 230.111V232.611H80.0632V230.111H77.5632ZM75.5122 230.111L73.9277 232.045L74.6188 232.611H75.5122V230.111ZM54.8958 214.859L53.4773 216.918L53.4791 216.919L54.8958 214.859ZM19.5009 204.604L21.1888 206.448L21.1972 206.44L21.2056 206.432L19.5009 204.604ZM25.549 229.164V231.664H31.3758L27.3608 227.442L25.549 229.164ZM10.1394 229.164L8.04213 230.525L8.78123 231.664H10.1394V229.164ZM8.71933 191.561L10.5792 193.231L10.5861 193.223L8.71933 191.561ZM62.5743 205.235L61.0251 207.197L65.0743 210.394V205.235H62.5743ZM62.5743 184.068H77.5632V179.068H62.5743V184.068ZM75.0633 181.568V230.111H80.0632V181.568H75.0633ZM77.5632 227.611H75.5122V232.611H77.5632V227.611ZM77.0966 228.177C71.5903 223.666 64.6573 218.539 56.3125 212.799L53.4791 216.919C61.7536 222.61 68.5649 227.651 73.9277 232.045L77.0966 228.177ZM56.3143 212.801C47.9855 207.061 41.8709 203.294 38.107 201.676L36.1319 206.269C39.3803 207.666 45.1166 211.157 53.4773 216.918L56.3143 212.801ZM38.107 201.676C34.3377 200.055 30.6013 199.211 26.9164 199.211V204.211C29.8233 204.211 32.8888 204.875 36.1319 206.269L38.107 201.676ZM26.9164 199.211C23.4203 199.211 20.3361 200.407 17.7962 202.775L21.2056 206.432C22.8029 204.943 24.6624 204.211 26.9164 204.211V199.211ZM17.813 202.759C15.2496 205.106 13.8979 208.062 13.8979 211.493H18.8979C18.8979 209.525 19.6149 207.888 21.1888 206.448L17.813 202.759ZM13.8979 211.493C13.8979 217.806 17.4656 224.291 23.7373 230.887L27.3608 227.442C21.431 221.205 18.8979 215.909 18.8979 211.493H13.8979ZM25.549 226.664H10.1394V231.664H25.549V226.664ZM12.2366 227.804C7.75523 220.896 5.64453 214.509 5.64453 208.601H0.644531C0.644531 215.735 3.19703 223.057 8.04213 230.525L12.2366 227.804ZM5.64453 208.601C5.64453 201.806 7.38583 196.786 10.5792 193.231L6.85953 189.89C2.61993 194.61 0.644531 200.95 0.644531 208.601H5.64453ZM10.5861 193.223C13.7503 189.671 18.1242 187.802 24.0238 187.802V182.802C16.9506 182.802 11.1215 185.105 6.85263 189.898L10.5861 193.223ZM24.0238 187.802C27.8838 187.802 32.8974 189.265 39.1662 192.506C45.3997 195.729 52.6817 200.609 61.0251 207.197L64.1236 203.273C55.6373 196.572 48.0794 191.486 41.4627 188.065C34.8813 184.662 29.0345 182.802 24.0238 182.802V187.802ZM65.0743 205.235V181.568H60.0743V205.235H65.0743ZM13.1897 128.502L14.5511 130.599L14.5587 130.594L13.1897 128.502ZM68.5173 165.159L69.899 167.243L69.9066 167.237L68.5173 165.159ZM13.0845 165.054L11.6752 167.119L11.6776 167.12L13.0845 165.054ZM59.4188 140.283L60.2991 137.943L60.2916 137.94L59.4188 140.283ZM22.0253 140.283L22.9163 142.618L22.9309 142.613L22.9454 142.607L22.0253 140.283ZM21.9201 153.378L20.95 155.682L20.9621 155.687L21.9201 153.378ZM59.3662 153.378L60.2515 155.716L60.2652 155.711L60.2789 155.706L59.3662 153.378ZM5.64453 146.699C5.64453 139.788 8.54243 134.5 14.5511 130.599L11.8284 126.405C4.44363 131.199 0.644531 138.043 0.644531 146.699H5.64453ZM14.5587 130.594C20.7072 126.57 29.2691 124.428 40.4854 124.428V119.428C28.7011 119.428 19.0659 121.668 11.8207 126.41L14.5587 130.594ZM40.4854 124.428C52.192 124.428 60.9848 126.512 67.1268 130.403L69.8026 126.18C62.551 121.586 52.6909 119.428 40.4854 119.428V124.428ZM67.1268 130.403C73.1044 134.19 76.01 139.461 76.01 146.489H81.0102C81.0102 137.738 77.2182 130.878 69.8026 126.18L67.1268 130.403ZM76.01 146.489C76.01 153.646 73.0977 159.09 67.1281 163.081L69.9066 167.237C77.2602 162.322 81.0102 155.32 81.0102 146.489H76.01ZM67.1356 163.076C61.0347 167.121 52.3627 169.286 40.8535 169.286V174.286C52.9059 174.286 62.6764 172.032 69.899 167.243L67.1356 163.076ZM40.8535 169.286C29.2005 169.286 20.5098 167.085 14.4915 162.987L11.6776 167.12C18.8425 171.999 28.6645 174.286 40.8535 174.286V169.286ZM14.4939 162.989C8.51703 158.909 5.64453 153.548 5.64453 146.699H0.644531C0.644531 155.278 4.39873 162.152 11.6752 167.119L14.4939 162.989ZM67.2306 146.699C67.2306 144.682 66.6085 142.838 65.3284 141.292C64.0827 139.787 62.3355 138.709 60.2991 137.943L58.5384 142.623C60.0433 143.189 60.952 143.846 61.477 144.48C61.9675 145.073 62.2306 145.77 62.2306 146.699H67.2306ZM60.2916 137.94C56.2402 136.431 49.1169 135.784 39.3283 135.784V140.784C49.1744 140.784 55.4448 141.47 58.546 142.625L60.2916 137.94ZM39.3283 135.784C31.141 135.784 24.951 136.436 21.1052 137.958L22.9454 142.607C25.8315 141.465 31.1769 140.784 39.3283 140.784V135.784ZM21.1343 137.947C19.1408 138.707 17.4365 139.803 16.2301 141.346C14.9994 142.919 14.4238 144.783 14.4238 146.804H19.4238C19.4238 145.775 19.6985 145.027 20.1683 144.426C20.6624 143.795 21.5088 143.155 22.9163 142.618L21.1343 137.947ZM14.4238 146.804C14.4238 148.793 14.9912 150.628 16.1825 152.196C17.3505 153.732 19.0038 154.863 20.95 155.682L22.8903 151.074C21.5056 150.491 20.6607 149.825 20.1633 149.17C19.6891 148.546 19.4238 147.796 19.4238 146.804H14.4238ZM20.9621 155.687C22.9479 156.511 25.6983 157.054 29.0501 157.403C32.4451 157.757 36.632 157.929 41.5898 157.929V152.929C36.7303 152.929 32.7303 152.76 29.5687 152.43C26.3639 152.096 24.1882 151.613 22.8782 151.069L20.9621 155.687ZM41.5898 157.929C49.8675 157.929 56.1857 157.256 60.2515 155.716L58.4809 151.04C55.3239 152.236 49.7912 152.929 41.5898 152.929V157.929ZM60.2789 155.706C62.3381 154.898 64.0932 153.773 65.3387 152.222C66.6145 150.634 67.2306 148.752 67.2306 146.699H62.2306C62.2306 147.697 61.9527 148.453 61.4404 149.091C60.8978 149.767 59.9706 150.456 58.4535 151.051L60.2789 155.706ZM62.5743 62.7082V60.2082H60.0743V62.7082H62.5743ZM77.5632 62.7082H80.0632V60.2082H77.5632V62.7082ZM77.5632 111.251V113.751H80.0632V111.251H77.5632ZM75.5122 111.251L73.9277 113.185L74.6188 113.751H75.5122V111.251ZM54.8958 95.9999L53.4773 98.0579L53.4791 98.0589L54.8958 95.9999ZM19.5009 85.7439L21.1888 87.5879L21.1972 87.5799L21.2056 87.5729L19.5009 85.7439ZM25.549 110.305V112.805H31.3758L27.3608 108.582L25.549 110.305ZM10.1394 110.305L8.04213 111.665L8.78123 112.805H10.1394V110.305ZM8.71933 72.7008L10.5792 74.3715L10.5861 74.3637L8.71933 72.7008ZM62.5743 86.3749L61.0251 88.3369L65.0743 91.5339V86.3749H62.5743ZM62.5743 65.2082H77.5632V60.2082H62.5743V65.2082ZM75.0633 62.7082V111.251H80.0632V62.7082H75.0633ZM77.5632 108.751H75.5122V113.751H77.5632V108.751ZM77.0966 109.318C71.5903 104.806 64.6573 99.6789 56.3125 93.9399L53.4791 98.0589C61.7536 103.75 68.5649 108.791 73.9277 113.185L77.0966 109.318ZM56.3143 93.9409C47.9855 88.2019 41.8709 84.4349 38.107 82.8159L36.1319 87.4089C39.3803 88.8059 45.1166 92.2969 53.4773 98.0579L56.3143 93.9409ZM38.107 82.8159C34.3377 81.1949 30.6013 80.3509 26.9164 80.3509V85.3509C29.8233 85.3509 32.8888 86.0149 36.1319 87.4089L38.107 82.8159ZM26.9164 80.3509C23.4203 80.3509 20.3361 81.5479 17.7962 83.9149L21.2056 87.5729C22.8029 86.0839 24.6624 85.3509 26.9164 85.3509V80.3509ZM17.813 83.8999C15.2496 86.2459 13.8979 89.2019 13.8979 92.6339H18.8979C18.8979 90.6649 19.6149 89.0289 21.1888 87.5879L17.813 83.8999ZM13.8979 92.6339C13.8979 98.9469 17.4656 105.431 23.7373 112.027L27.3608 108.582C21.431 102.346 18.8979 97.0489 18.8979 92.6339H13.8979ZM25.549 107.805H10.1394V112.805H25.549V107.805ZM12.2366 108.944C7.75523 102.037 5.64453 95.6499 5.64453 89.7409H0.644531C0.644531 96.8749 3.19703 104.198 8.04213 111.665L12.2366 108.944ZM5.64453 89.7409C5.64453 82.9459 7.38583 77.9265 10.5792 74.3715L6.85953 71.0302C2.61993 75.7498 0.644531 82.0909 0.644531 89.7409H5.64453ZM10.5861 74.3637C13.7503 70.8115 18.1242 68.9423 24.0238 68.9423V63.9423C16.9506 63.9423 11.1215 66.2454 6.85263 71.038L10.5861 74.3637ZM24.0238 68.9423C27.8838 68.9423 32.8974 70.4049 39.1662 73.6462C45.3997 76.8692 52.6817 81.7489 61.0251 88.3369L64.1236 84.4129C55.6373 77.7122 48.0794 72.6259 41.4627 69.2047C34.8813 65.8018 29.0345 63.9423 24.0238 63.9423V68.9423ZM65.0743 86.3749V62.7082H60.0743V86.3749H65.0743ZM45.9024 35.7807V38.2807H48.3044L48.4004 35.8806L45.9024 35.7807ZM32.9646 35.7807H30.4646V38.2807H32.9646V35.7807ZM30.3876 28.4703L28.5519 30.1675L28.56 30.1762L28.5681 30.1848L30.3876 28.4703ZM19.2905 49.56V52.06H23.2966L21.5362 48.4614L19.2905 49.56ZM6.35273 49.56L4.06343 50.5647L4.71973 52.06H6.35273V49.56ZM8.19343 15.7955L10.1703 17.3259L10.1779 17.3159L8.19343 15.7955ZM38.1187 20.1607L35.9288 21.3667L38.5011 26.0373L40.4464 21.0727L38.1187 20.1607ZM72.6722 14.3755L74.6032 12.7877L74.5962 12.7792L72.6722 14.3755ZM74.3551 51.4008V53.9008H75.8958L76.5883 52.5245L74.3551 51.4008ZM60.1025 51.4008L58.0568 49.9636L55.2909 53.9008H60.1025V51.4008ZM63.2581 27.5762L65.176 25.9727L65.1684 25.9635L65.1606 25.9544L63.2581 27.5762ZM49.0054 27.4711L50.8195 29.1913L50.8268 29.1835L50.8341 29.1757L49.0054 27.4711ZM45.9024 33.2807H32.9646V38.2807H45.9024V33.2807ZM35.4646 35.7807C35.4646 32.2394 34.4532 29.1395 32.207 26.7558L28.5681 30.1848C29.758 31.4476 30.4646 33.2212 30.4646 35.7807H35.4646ZM32.2232 26.7732C30.0647 24.4384 27.3622 23.1829 24.2342 23.1829V28.1829C25.8746 28.1829 27.2744 28.7857 28.5519 30.1675L32.2232 26.7732ZM24.2342 23.1829C21.0018 23.1829 18.27 24.5232 16.2016 27.0412L20.0653 30.2149C21.2226 28.806 22.558 28.1829 24.2342 28.1829V23.1829ZM16.2016 27.0412C14.1557 29.532 13.2142 32.615 13.2142 36.0963H18.2142C18.2142 33.5469 18.8855 31.6511 20.0653 30.2149L16.2016 27.0412ZM13.2142 36.0963C13.2142 40.6816 14.5449 45.5486 17.0448 50.6586L21.5362 48.4614C19.2676 43.8242 18.2142 39.7154 18.2142 36.0963H13.2142ZM19.2905 47.06H6.35273V52.06H19.2905V47.06ZM8.64193 48.5554C6.66553 44.0517 5.64453 38.8115 5.64453 32.7829H0.644531C0.644531 39.3766 1.76233 45.3211 4.06343 50.5647L8.64193 48.5554ZM5.64453 32.7829C5.64453 26.2085 7.22573 21.1294 10.1703 17.3259L6.21663 14.265C2.42943 19.1569 0.644531 25.4027 0.644531 32.7829H5.64453ZM10.1779 17.3159C13.0548 13.5608 16.6456 11.774 21.1312 11.774V6.77399C15.0282 6.77399 9.99383 9.33479 6.20893 14.2751L10.1779 17.3159ZM21.1312 11.774C27.412 11.774 32.3016 14.7804 35.9288 21.3667L40.3086 18.9546C35.9417 11.0253 29.5063 6.77399 21.1312 6.77399V11.774ZM40.4464 21.0727C41.9852 17.1454 44.1216 14.3709 46.7726 12.5617C49.4235 10.7526 52.7844 9.77539 56.9995 9.77539V4.77539C51.9933 4.77539 47.5968 5.94579 43.9541 8.43179C40.3116 10.9176 37.6181 14.5857 35.791 19.2486L40.4464 21.0727ZM56.9995 9.77539C62.8286 9.77539 67.328 11.8493 70.7481 15.9717L74.5962 12.7792C70.1624 7.43489 64.2135 4.77539 56.9995 4.77539V9.77539ZM70.7411 15.9632C74.1673 20.1302 76.01 25.8587 76.01 33.414H81.0102C81.0102 25.0513 78.9612 18.0874 74.6032 12.7877L70.7411 15.9632ZM76.01 33.414C76.01 39.5313 74.7071 45.1393 72.1219 50.277L76.5883 52.5245C79.5432 46.6528 81.0102 40.2696 81.0102 33.414H76.01ZM74.3551 48.9008H60.1025V53.9008H74.3551V48.9008ZM62.1481 52.8379C66.2187 47.0437 68.4403 41.3754 68.4403 35.8859H63.4403C63.4403 40.0034 61.77 44.6783 58.0568 49.9636L62.1481 52.8379ZM68.4403 35.8859C68.4403 32.0324 67.4179 28.6541 65.176 25.9727L61.3401 29.1798C62.6745 30.7759 63.4403 32.9374 63.4403 35.8859H68.4403ZM65.1606 25.9544C62.85 23.2439 59.7985 21.8681 56.2106 21.8681V26.8681C58.3729 26.8681 60.0197 27.6311 61.3555 29.1981L65.1606 25.9544ZM56.2106 21.8681C52.6551 21.8681 49.5869 23.181 47.1767 25.7664L50.8341 29.1757C52.2808 27.6238 54.0159 26.8681 56.2106 26.8681V21.8681ZM47.1914 25.7508C44.749 28.3264 43.5626 31.7274 43.4044 35.6808L48.4004 35.8806C48.5228 32.8217 49.405 30.6829 50.8195 29.1913L47.1914 25.7508Z" fill="white"/>
<path d="M131.22 1.23828L131.01 233.268" stroke="white" stroke-width="2" stroke-miterlimit="10" stroke-linecap="round"/>
<path d="M218.545 32.3579C222.501 32.3579 226.457 33.2179 228.779 33.8199C230.929 34.4219 234.025 35.3679 234.713 35.3679C235.143 35.3679 236.175 36.4859 236.175 37.0019C236.175 40.0979 237.035 44.4839 237.035 46.6339C237.035 49.0419 235.401 50.4179 234.283 50.4179C233.595 50.4179 233.165 49.7299 232.477 47.8379C231.187 44.3119 230.671 42.4199 227.489 40.0979C224.823 38.1199 221.813 36.6579 218.115 36.6579C214.417 36.6579 209.687 38.8079 206.849 42.2479C203.151 46.6339 201.431 53.1699 201.431 58.3299C201.431 64.8659 203.581 70.7139 206.075 74.2399C209.171 78.6259 214.847 81.8079 220.007 81.8079C222.157 81.8079 226.027 80.4319 227.747 79.4859C228.435 79.0559 229.983 77.4219 232.133 73.9819C233.767 71.4019 234.799 70.3699 235.659 70.3699C237.293 70.3699 237.465 72.0039 237.379 73.8099C237.379 74.5839 235.745 80.3459 235.745 81.9799C235.745 82.2379 235.057 83.4419 234.799 83.6139C231.789 85.0759 224.135 87.0539 218.201 87.0539C208.655 87.0539 198.507 84.2159 192.401 77.5079C188.617 73.3799 185.951 67.7039 185.951 60.0499C185.951 50.8479 190.079 43.1079 197.647 37.8619C201.517 35.1959 209.601 32.3579 218.545 32.3579ZM276.847 32.3579C294.735 32.3579 306.775 44.3979 306.775 59.7919C306.775 70.5419 300.411 78.9699 292.327 83.4419C288.629 85.5059 282.609 87.0539 277.105 87.0539C258.959 87.0539 247.091 74.6699 247.091 59.7919C247.091 53.1699 249.585 46.6339 254.917 41.3019C260.507 35.7119 268.763 32.3579 276.847 32.3579ZM275.299 36.8299C271.257 36.8299 267.645 40.2699 267.559 40.3559C263.947 44.3119 262.399 50.1599 262.399 58.2439C262.399 69.9399 267.731 82.6679 279.341 82.6679C282.265 82.6679 285.705 80.0879 286.135 79.7439C288.887 77.1639 291.123 71.7459 291.123 60.3939C291.123 51.3639 286.651 36.8299 275.299 36.8299ZM312.34 35.0239C312.34 34.4219 313.028 33.5619 314.576 33.5619C318.016 33.5619 324.896 34.2499 330.4 34.2499C331.174 34.2499 332.378 34.8519 332.636 35.1959C334.098 37.1739 336.764 40.0119 340.892 44.4839C345.45 49.3859 359.124 63.8339 361.016 64.8659C361.274 64.9519 361.962 64.7799 362.048 64.5219C362.564 62.1999 362.564 53.9439 362.306 48.0099C362.048 42.1619 362.478 39.9259 355.77 38.3779C353.706 37.8619 352.932 36.3999 352.932 35.8839C352.932 35.2819 353.878 33.9919 355.942 33.9919C359.038 33.9919 358.866 34.0779 361.102 34.0779C364.628 34.0779 371.164 33.6479 372.884 33.6479C374.69 33.6479 375.894 34.1639 375.894 35.6259C375.894 36.5719 375.206 37.1739 372.454 38.3779C368.928 39.9259 368.412 40.8719 368.326 41.9899C368.154 45.9459 367.466 63.6619 367.466 69.4239C367.466 73.2079 367.81 76.9919 367.81 80.9479C367.81 84.5599 367.122 87.2259 365.574 87.2259C362.822 87.2259 360.586 85.6779 358.952 83.7859C355.77 80.1739 351.728 75.4439 349.32 72.7779C346.052 68.9939 332.636 54.7179 328.852 50.5899C328.594 50.3319 327.992 50.8479 327.992 51.1919C327.906 53.0839 327.734 53.3419 327.734 57.0399C327.734 60.9099 327.906 68.6499 327.992 70.9719C328.25 77.6799 329.368 79.7439 332.378 80.9479C335.302 82.0659 336.248 83.0119 336.248 84.2159C336.248 85.2479 335.302 85.8499 333.324 85.8499C330.916 85.8499 327.992 85.5059 323.95 85.5059C319.908 85.5059 317.758 85.8499 316.64 85.8499C314.06 85.8499 313.2 84.9039 313.2 84.0439C313.2 82.9259 314.232 82.1519 315.78 81.6359C319.736 80.3459 321.284 80.0879 321.714 74.3259C322.144 68.5639 322.832 48.0099 322.832 45.2579C322.832 44.7419 322.402 42.9359 321.284 41.6459C319.478 39.5819 317.93 38.5499 315.952 38.1199C313.974 37.6899 312.34 36.6579 312.34 35.0239ZM395.548 34.0779H409.394C420.488 34.0779 422.38 33.5619 422.724 33.5619C423.498 33.5619 424.358 34.5079 424.358 35.2819V43.7099C424.358 46.1179 422.982 47.4939 421.95 47.4939C421.262 47.4939 420.23 46.2899 419.714 44.4839C419.112 42.5059 417.908 39.3239 414.898 39.0659C412.49 38.8939 405.782 38.8939 403.116 38.8939C402.17 38.8939 401.568 40.3559 401.482 41.3019C401.224 44.3979 401.138 53.9439 401.31 56.3519C401.396 57.2979 401.654 57.8139 402.428 57.8139C404.234 57.8139 407.674 57.6419 409.996 57.3839C412.748 57.0399 413.006 56.3519 414.124 53.8579C414.554 52.9119 415.672 51.1919 416.704 51.1919C417.908 51.1919 418.424 52.8259 418.424 54.2879C418.424 56.7819 418.08 59.0179 418.08 60.4799C418.08 62.1139 418.424 65.7259 418.424 66.4139C418.424 67.7899 417.478 69.3379 416.188 69.3379C415.5 69.3379 414.64 68.4779 413.952 67.1019C412.576 64.4359 412.318 63.4899 410.34 63.2319C409.394 63.0599 408.104 62.8879 402.256 62.8879C401.912 62.8879 401.396 64.0919 401.31 65.1239C401.138 68.0479 401.138 73.7239 401.31 75.6159C401.654 79.3139 402.772 80.3459 406.986 81.4639C409.222 82.0659 409.91 83.0979 409.91 83.9579C409.91 84.8179 408.448 85.9359 406.814 85.9359C401.396 85.9359 397.44 85.5059 394 85.5059C392.194 85.5059 389.27 85.8499 382.648 85.8499C381.186 85.8499 379.896 85.1619 379.896 84.0439C379.896 83.0979 380.928 82.0659 382.648 81.6359C385.916 80.8619 387.12 79.3139 387.292 76.9919C387.55 74.4119 387.636 71.8319 387.636 60.3939C387.636 47.4939 387.636 45.6019 387.464 42.5919C387.292 39.8399 386.174 38.8939 382.906 37.9479C381.358 37.5179 380.068 37.0019 380.068 35.5399C380.068 34.3359 382.304 33.8199 383.25 33.8199C389.958 33.9059 392.194 34.0779 395.548 34.0779ZM449.973 34.0779H458.831C466.657 34.0779 467.861 34.0779 469.839 33.6479C470.785 33.4759 471.387 33.9919 471.645 34.4219C472.161 35.2819 472.849 41.8179 472.849 43.7099C472.849 45.9459 471.817 46.4619 471.301 46.4619C469.753 46.4619 468.893 45.5159 467.861 43.1939C466.227 39.6679 465.023 39.0659 464.335 39.0659C459.433 39.0659 454.703 39.3239 453.499 39.3239C453.069 39.3239 452.381 40.2699 452.381 40.6139C452.295 42.2479 452.123 48.4399 452.123 54.3739C452.123 55.7499 452.381 56.6099 452.811 56.6959C453.757 56.9539 456.767 56.8679 458.315 56.7819C462.185 56.5239 463.389 55.1479 464.335 52.9979C464.851 51.7079 465.711 50.6759 466.657 50.6759C467.861 50.6759 468.635 51.8799 468.463 54.3739C468.377 55.4059 468.291 57.3839 468.291 59.3619C468.291 61.3399 468.463 63.3179 468.549 64.6079C468.721 66.9299 467.431 67.9619 466.571 67.9619C465.797 67.9619 464.679 67.0159 463.905 65.2959C463.045 63.3179 462.787 62.7159 460.981 62.5439C457.455 62.2859 456.939 62.1139 453.069 62.1139C452.639 62.1139 452.123 63.3179 452.123 65.4679C452.123 67.7899 452.381 72.7779 452.467 74.6699C452.639 77.1639 452.983 78.1099 453.241 78.4539C454.101 79.7439 458.229 80.8619 462.357 80.8619C463.733 80.8619 466.141 80.6039 468.119 79.4859C469.753 78.6259 470.613 77.5939 472.505 75.0139C473.881 73.1219 474.827 71.0579 476.203 71.0579C477.837 71.0579 478.353 73.5519 478.009 75.3579C477.493 77.8519 475.429 83.6139 475.085 84.3879C474.827 84.9899 473.021 85.9359 472.505 85.9359C471.387 85.9359 467.947 85.5059 452.295 85.5059C446.877 85.5059 436.041 85.8499 432.343 85.8499C430.537 85.8499 429.247 85.1619 429.247 84.4739C429.247 83.4419 429.935 82.2379 431.741 81.7219C437.675 80.0879 437.847 78.1099 438.019 76.5619C438.363 72.4339 438.449 70.6279 438.449 57.3839C438.449 44.1399 438.277 43.6239 438.019 42.0759C437.589 39.4959 436.471 38.5499 433.031 37.6899C430.795 37.1739 430.451 35.9699 430.451 35.3679C430.451 34.2499 432.171 33.6479 433.289 33.6479C434.751 33.6479 444.297 34.0779 449.973 34.0779ZM532.679 47.5799C532.679 50.8479 531.045 54.5459 528.809 56.4379C527.519 57.5559 526.315 57.8139 524.509 58.8459C524.079 59.1039 524.509 60.7379 524.767 61.2539C526.659 65.0379 530.529 71.4019 533.797 75.5299C536.807 79.3139 539.473 80.7759 542.139 81.8079C542.999 82.1519 544.117 82.9259 544.117 83.6999C544.117 85.9359 541.365 86.6239 539.043 86.6239C532.163 86.6239 525.541 85.9359 519.521 78.1099C516.425 74.0679 514.103 69.7679 511.695 65.8979C510.319 63.6619 509.115 63.2319 507.739 63.2319C507.137 63.2319 507.051 64.2639 507.051 64.5219C507.051 71.4019 507.051 73.4659 507.309 76.4759C507.567 79.5719 508.427 79.6579 511.867 81.2919C513.415 82.0659 514.447 83.0119 514.447 83.6999C514.447 84.6459 512.641 85.8499 511.179 85.8499C509.029 85.8499 502.407 85.5059 499.397 85.5059C496.731 85.5059 492.689 85.8499 489.507 85.8499C487.443 85.8499 486.239 84.8179 486.239 83.9579C486.239 82.7539 487.443 81.8939 489.077 81.4639C492.603 80.4319 493.463 79.7439 493.635 75.4439C493.721 72.3479 493.721 70.7999 493.721 55.3199C493.721 44.7419 493.463 44.2259 493.291 42.4199C493.119 40.6999 492.345 38.9799 489.077 38.3779C487.443 38.0339 486.411 36.7439 486.411 36.1419C486.411 34.6799 488.131 33.9059 490.195 33.9059C494.581 33.9059 496.043 34.0779 497.161 34.0779C502.837 34.0779 507.567 33.5619 513.587 33.5619C521.155 33.5619 525.111 35.1959 527.175 36.7439C530.873 39.5819 532.679 43.0219 532.679 47.5799ZM519.435 49.0419C519.435 43.6239 515.737 38.2919 509.545 38.2919C509.201 38.2919 507.911 38.6359 507.395 38.9799C507.137 39.1519 506.879 39.5819 506.879 40.3559C506.879 42.7639 507.051 50.7619 507.051 56.5239C507.051 56.8679 507.395 57.8999 507.739 58.0719C508.943 58.5879 510.061 58.8459 511.523 58.8459C513.415 58.8459 516.511 56.8679 517.027 56.5239C517.543 56.1799 519.435 53.1699 519.435 49.0419ZM565.703 34.0779H574.561C582.387 34.0779 583.591 34.0779 585.569 33.6479C586.515 33.4759 587.117 33.9919 587.375 34.4219C587.891 35.2819 588.579 41.8179 588.579 43.7099C588.579 45.9459 587.547 46.4619 587.031 46.4619C585.483 46.4619 584.623 45.5159 583.591 43.1939C581.957 39.6679 580.753 39.0659 580.065 39.0659C575.163 39.0659 570.433 39.3239 569.229 39.3239C568.799 39.3239 568.111 40.2699 568.111 40.6139C568.025 42.2479 567.853 48.4399 567.853 54.3739C567.853 55.7499 568.111 56.6099 568.541 56.6959C569.487 56.9539 572.497 56.8679 574.045 56.7819C577.915 56.5239 579.119 55.1479 580.065 52.9979C580.581 51.7079 581.441 50.6759 582.387 50.6759C583.591 50.6759 584.365 51.8799 584.193 54.3739C584.107 55.4059 584.021 57.3839 584.021 59.3619C584.021 61.3399 584.193 63.3179 584.279 64.6079C584.451 66.9299 583.161 67.9619 582.301 67.9619C581.527 67.9619 580.409 67.0159 579.635 65.2959C578.775 63.3179 578.517 62.7159 576.711 62.5439C573.185 62.2859 572.669 62.1139 568.799 62.1139C568.369 62.1139 567.853 63.3179 567.853 65.4679C567.853 67.7899 568.111 72.7779 568.197 74.6699C568.369 77.1639 568.713 78.1099 568.971 78.4539C569.831 79.7439 573.959 80.8619 578.087 80.8619C579.463 80.8619 581.871 80.6039 583.849 79.4859C585.483 78.6259 586.343 77.5939 588.235 75.0139C589.611 73.1219 590.557 71.0579 591.933 71.0579C593.567 71.0579 594.083 73.5519 593.739 75.3579C593.223 77.8519 591.159 83.6139 590.815 84.3879C590.557 84.9899 588.751 85.9359 588.235 85.9359C587.117 85.9359 583.677 85.5059 568.025 85.5059C562.607 85.5059 551.771 85.8499 548.073 85.8499C546.267 85.8499 544.977 85.1619 544.977 84.4739C544.977 83.4419 545.665 82.2379 547.471 81.7219C553.405 80.0879 553.577 78.1099 553.749 76.5619C554.093 72.4339 554.179 70.6279 554.179 57.3839C554.179 44.1399 554.007 43.6239 553.749 42.0759C553.319 39.4959 552.201 38.5499 548.761 37.6899C546.525 37.1739 546.181 35.9699 546.181 35.3679C546.181 34.2499 547.901 33.6479 549.019 33.6479C550.481 33.6479 560.027 34.0779 565.703 34.0779ZM599.819 35.0239C599.819 34.4219 600.507 33.5619 602.055 33.5619C605.495 33.5619 612.375 34.2499 617.879 34.2499C618.653 34.2499 619.857 34.8519 620.115 35.1959C621.577 37.1739 624.243 40.0119 628.371 44.4839C632.929 49.3859 646.603 63.8339 648.495 64.8659C648.753 64.9519 649.441 64.7799 649.527 64.5219C650.043 62.1999 650.043 53.9439 649.785 48.0099C649.527 42.1619 649.957 39.9259 643.249 38.3779C641.185 37.8619 640.411 36.3999 640.411 35.8839C640.411 35.2819 641.357 33.9919 643.421 33.9919C646.517 33.9919 646.345 34.0779 648.581 34.0779C652.107 34.0779 658.643 33.6479 660.363 33.6479C662.169 33.6479 663.373 34.1639 663.373 35.6259C663.373 36.5719 662.685 37.1739 659.933 38.3779C656.407 39.9259 655.891 40.8719 655.805 41.9899C655.633 45.9459 654.945 63.6619 654.945 69.4239C654.945 73.2079 655.289 76.9919 655.289 80.9479C655.289 84.5599 654.601 87.2259 653.053 87.2259C650.301 87.2259 648.065 85.6779 646.431 83.7859C643.249 80.1739 639.207 75.4439 636.799 72.7779C633.531 68.9939 620.115 54.7179 616.331 50.5899C616.073 50.3319 615.471 50.8479 615.471 51.1919C615.385 53.0839 615.213 53.3419 615.213 57.0399C615.213 60.9099 615.385 68.6499 615.471 70.9719C615.729 77.6799 616.847 79.7439 619.857 80.9479C622.781 82.0659 623.727 83.0119 623.727 84.2159C623.727 85.2479 622.781 85.8499 620.803 85.8499C618.395 85.8499 615.471 85.5059 611.429 85.5059C607.387 85.5059 605.237 85.8499 604.119 85.8499C601.539 85.8499 600.679 84.9039 600.679 84.0439C600.679 82.9259 601.711 82.1519 603.259 81.6359C607.215 80.3459 608.763 80.0879 609.193 74.3259C609.623 68.5639 610.311 48.0099 610.311 45.2579C610.311 44.7419 609.881 42.9359 608.763 41.6459C606.957 39.5819 605.409 38.5499 603.431 38.1199C601.453 37.6899 599.819 36.6579 599.819 35.0239ZM702.127 32.3579C706.083 32.3579 710.039 33.2179 712.361 33.8199C714.511 34.4219 717.607 35.3679 718.295 35.3679C718.725 35.3679 719.757 36.4859 719.757 37.0019C719.757 40.0979 720.617 44.4839 720.617 46.6339C720.617 49.0419 718.983 50.4179 717.865 50.4179C717.177 50.4179 716.747 49.7299 716.059 47.8379C714.769 44.3119 714.253 42.4199 711.071 40.0979C708.405 38.1199 705.395 36.6579 701.697 36.6579C697.999 36.6579 693.269 38.8079 690.431 42.2479C686.733 46.6339 685.013 53.1699 685.013 58.3299C685.013 64.8659 687.163 70.7139 689.657 74.2399C692.753 78.6259 698.429 81.8079 703.589 81.8079C705.739 81.8079 709.609 80.4319 711.329 79.4859C712.017 79.0559 713.565 77.4219 715.715 73.9819C717.349 71.4019 718.381 70.3699 719.241 70.3699C720.875 70.3699 721.047 72.0039 720.961 73.8099C720.961 74.5839 719.327 80.3459 719.327 81.9799C719.327 82.2379 718.639 83.4419 718.381 83.6139C715.371 85.0759 707.717 87.0539 701.783 87.0539C692.237 87.0539 682.089 84.2159 675.983 77.5079C672.199 73.3799 669.533 67.7039 669.533 60.0499C669.533 50.8479 673.661 43.1079 681.229 37.8619C685.099 35.1959 693.183 32.3579 702.127 32.3579ZM748.285 34.0779H757.143C764.969 34.0779 766.173 34.0779 768.151 33.6479C769.097 33.4759 769.699 33.9919 769.957 34.4219C770.473 35.2819 771.161 41.8179 771.161 43.7099C771.161 45.9459 770.129 46.4619 769.613 46.4619C768.065 46.4619 767.205 45.5159 766.173 43.1939C764.539 39.6679 763.335 39.0659 762.647 39.0659C757.745 39.0659 753.015 39.3239 751.811 39.3239C751.381 39.3239 750.693 40.2699 750.693 40.6139C750.607 42.2479 750.435 48.4399 750.435 54.3739C750.435 55.7499 750.693 56.6099 751.123 56.6959C752.069 56.9539 755.079 56.8679 756.627 56.7819C760.497 56.5239 761.701 55.1479 762.647 52.9979C763.163 51.7079 764.023 50.6759 764.969 50.6759C766.173 50.6759 766.947 51.8799 766.775 54.3739C766.689 55.4059 766.603 57.3839 766.603 59.3619C766.603 61.3399 766.775 63.3179 766.861 64.6079C767.033 66.9299 765.743 67.9619 764.883 67.9619C764.109 67.9619 762.991 67.0159 762.217 65.2959C761.357 63.3179 761.099 62.7159 759.293 62.5439C755.767 62.2859 755.251 62.1139 751.381 62.1139C750.951 62.1139 750.435 63.3179 750.435 65.4679C750.435 67.7899 750.693 72.7779 750.779 74.6699C750.951 77.1639 751.295 78.1099 751.553 78.4539C752.413 79.7439 756.541 80.8619 760.669 80.8619C762.045 80.8619 764.453 80.6039 766.431 79.4859C768.065 78.6259 768.925 77.5939 770.817 75.0139C772.193 73.1219 773.139 71.0579 774.515 71.0579C776.149 71.0579 776.665 73.5519 776.321 75.3579C775.805 77.8519 773.741 83.6139 773.397 84.3879C773.139 84.9899 771.333 85.9359 770.817 85.9359C769.699 85.9359 766.259 85.5059 750.607 85.5059C745.189 85.5059 734.353 85.8499 730.655 85.8499C728.849 85.8499 727.559 85.1619 727.559 84.4739C727.559 83.4419 728.247 82.2379 730.053 81.7219C735.987 80.0879 736.159 78.1099 736.331 76.5619C736.675 72.4339 736.761 70.6279 736.761 57.3839C736.761 44.1399 736.589 43.6239 736.331 42.0759C735.901 39.4959 734.783 38.5499 731.343 37.6899C729.107 37.1739 728.763 35.9699 728.763 35.3679C728.763 34.2499 730.483 33.6479 731.601 33.6479C733.063 33.6479 742.609 34.0779 748.285 34.0779ZM805.409 32.4439C810.225 32.4439 814.783 33.9919 818.137 34.7659C818.653 34.8519 819.255 36.2279 819.255 37.1739C819.255 38.2059 819.857 42.9359 819.857 44.2259C819.857 47.1499 818.481 48.3539 817.277 48.3539C816.331 48.3539 815.557 46.8919 815.299 46.2039C813.407 41.0439 808.935 36.3999 804.033 36.3999C800.421 36.3999 797.153 39.7539 797.153 43.0219C797.153 46.8919 799.991 49.7299 804.893 52.2239C815.729 57.7279 822.093 62.5439 822.093 70.7139C822.093 77.7659 817.277 81.7219 814.181 83.6139C810.827 85.5919 805.151 87.0539 801.195 87.0539C793.885 87.0539 789.671 85.5059 787.693 84.7319C787.091 84.4739 785.715 83.6999 785.285 82.7539C783.823 79.6579 783.565 75.1859 783.565 73.1219C783.565 71.4879 784.425 69.4239 785.801 69.4239C786.747 69.4239 787.865 70.4559 789.069 72.6919C792.251 78.5399 796.981 82.7539 802.313 82.7539C805.409 82.7539 809.279 80.6039 809.279 76.6479C809.279 74.0679 809.451 71.2299 800.679 66.4999C789.413 60.4799 785.027 55.8359 785.027 47.8379C785.027 42.2479 788.983 37.6899 793.111 35.3679C796.379 33.5619 800.507 32.4439 805.409 32.4439Z" fill="white"/>
<path d="M228.928 117.093C244.212 117.402 254.248 127.283 254.248 138.09C254.248 146.118 249.77 149.515 240.816 154.764C240.044 155.227 240.507 156.154 241.125 156.462C247.3 160.168 258.107 169.277 262.894 174.526C263.202 174.835 264.437 174.68 264.592 174.526C267.68 171.129 271.231 164.954 273.855 161.557C275.09 159.859 276.017 157.697 276.017 155.999C276.017 155.073 274.782 152.911 270.459 151.985C267.371 151.213 265.518 149.515 265.518 147.971C265.518 145.037 268.915 144.111 270.922 144.111C272.774 144.111 279.568 144.42 291.61 143.339C295.47 143.03 299.175 142.258 302.109 142.258C304.579 142.258 307.975 142.876 307.975 145.501C307.975 148.28 304.888 149.824 302.109 150.595C294.389 152.911 291.301 157.234 285.434 162.947C280.185 167.887 274.01 176.224 269.687 180.702C269.378 181.01 269.532 182.245 269.841 182.554C272.003 185.024 273.083 185.796 276.789 189.811C282.192 195.832 288.368 199.074 293.772 199.074C297.168 199.074 299.793 198.148 302.417 196.758C304.733 195.523 307.358 196.449 307.358 198.456C307.358 202.007 305.968 203.86 303.961 205.867C297.94 211.58 290.529 215.594 278.641 215.594C275.09 215.594 270.304 214.976 267.062 213.895C263.357 212.506 261.967 211.271 260.886 209.727C258.571 206.33 254.865 201.081 253.167 199.537C252.704 199.074 251.469 199.074 251.314 199.228C247.455 203.088 243.132 207.257 237.265 210.962C232.787 213.895 225.686 215.439 220.282 215.439C199.902 215.439 189.404 201.699 189.404 188.112C189.404 176.842 195.734 169.122 209.629 161.403C210.247 160.94 210.092 160.168 209.938 160.013C203.917 154.61 201.755 147.508 201.755 141.795C201.755 131.451 208.394 125.121 212.099 122.342C216.731 118.791 223.215 116.938 228.928 117.093ZM226.766 124.349C221.98 124.349 219.047 129.444 219.047 134.693C219.047 140.869 226.149 147.662 232.479 150.441C233.405 150.904 234.486 151.059 235.258 150.75C237.11 149.515 238.191 145.037 238.191 139.943C238.191 134.539 234.795 124.349 226.766 124.349ZM232.17 198.92C235.566 198.92 241.742 198.302 245.447 193.361C245.756 192.898 245.911 191.046 245.139 190.119C236.647 179.775 222.289 168.35 218.275 166.189C217.657 165.88 215.805 165.263 215.341 165.88C213.334 167.887 211.018 174.989 211.018 177.922C211.018 183.172 213.952 190.274 218.584 193.825C222.443 196.758 228.001 198.92 232.17 198.92ZM356.484 123.886C356.484 122.188 358.8 119.563 362.196 119.563C366.056 119.563 390.45 120.181 391.376 120.181C392.148 120.181 394.31 122.805 394.464 123.114C395.081 125.276 397.089 128.981 400.331 136.546C403.727 144.42 415.615 170.821 419.166 175.143C419.166 175.298 420.556 175.915 421.019 174.835C426.114 163.873 432.907 149.669 438.002 137.935C440.935 131.142 442.016 126.819 443.251 123.423C443.56 122.496 445.258 120.489 446.185 120.489C448.809 120.489 471.041 119.409 475.982 119.409C477.526 119.409 481.077 120.953 481.077 123.114C481.077 124.967 479.687 125.893 476.599 126.819C466.718 129.753 466.41 130.525 466.41 134.539C466.41 156.462 467.49 174.217 468.108 190.274C468.571 202.934 471.813 203.86 477.063 205.095C481.849 206.176 483.393 207.874 483.393 209.727C483.393 211.271 480.459 213.432 477.217 213.432C475.364 213.432 458.073 212.506 450.662 212.506C443.714 212.506 439.855 213.123 436.149 213.123C432.289 213.123 431.209 209.881 431.209 208.8C431.209 207.565 433.679 206.33 434.451 206.021C442.016 203.397 443.406 201.544 443.56 193.053C443.714 189.039 443.406 161.248 443.869 146.427C443.869 145.655 442.788 145.809 442.016 147.199C440.009 150.904 426.577 183.172 423.335 190.891C421.637 194.905 419.166 202.316 417.005 207.565C415.461 211.116 412.682 213.587 409.285 213.587C407.896 213.587 405.58 210.962 404.808 208.337C402.492 200.772 399.404 193.361 398.015 189.347C391.222 170.203 385.046 158.469 381.186 149.052C380.569 147.508 379.334 147.816 379.334 148.897C378.099 166.652 377.327 184.407 377.327 192.281C377.327 201.544 378.407 202.007 386.59 205.25C389.987 206.639 391.531 207.565 391.531 209.572C391.531 211.271 389.369 213.123 385.818 213.123C383.657 213.123 378.099 212.506 373.621 212.506C368.681 212.506 357.41 213.432 355.403 213.432C352.47 213.432 349.691 211.888 349.691 209.881C349.691 208.492 351.08 206.948 354.786 205.713C362.505 203.242 364.975 200.155 366.056 193.67C367.909 183.017 371.46 147.044 371.769 139.016C372.077 130.679 369.762 129.598 362.042 127.437C358.182 126.356 356.484 125.121 356.484 123.886ZM527.999 120.181H543.901C557.951 120.181 560.112 120.181 563.663 119.409C565.362 119.1 566.442 120.026 566.905 120.798C567.832 122.342 569.067 134.076 569.067 137.472C569.067 141.486 567.214 142.413 566.288 142.413C563.509 142.413 561.965 140.715 560.112 136.546C557.179 130.216 555.017 129.135 553.782 129.135C544.982 129.135 536.491 129.598 534.329 129.598C533.557 129.598 532.322 131.297 532.322 131.914C532.168 134.848 531.859 145.964 531.859 156.617C531.859 159.087 532.322 160.631 533.094 160.785C534.792 161.248 540.196 161.094 542.975 160.94C549.923 160.476 552.084 158.006 553.782 154.146C554.709 151.831 556.253 149.978 557.951 149.978C560.112 149.978 561.502 152.139 561.193 156.617C561.039 158.469 560.884 162.02 560.884 165.571C560.884 169.122 561.193 172.673 561.347 174.989C561.656 179.158 559.34 181.01 557.796 181.01C556.407 181.01 554.4 179.312 553.01 176.224C551.466 172.673 551.003 171.593 547.761 171.284C541.431 170.821 540.505 170.512 533.557 170.512C532.785 170.512 531.859 172.673 531.859 176.533C531.859 180.702 532.322 189.656 532.477 193.053C532.785 197.53 533.403 199.228 533.866 199.846C535.41 202.162 542.821 204.169 550.231 204.169C552.702 204.169 557.025 203.706 560.575 201.699C563.509 200.155 565.053 198.302 568.449 193.67C570.92 190.274 572.618 186.568 575.088 186.568C578.022 186.568 578.948 191.046 578.33 194.288C577.404 198.765 573.699 209.109 573.081 210.499C572.618 211.58 569.376 213.278 568.449 213.278C566.442 213.278 560.267 212.506 532.168 212.506C522.441 212.506 502.988 213.123 496.349 213.123C493.107 213.123 490.791 211.888 490.791 210.653C490.791 208.8 492.026 206.639 495.269 205.713C505.921 202.779 506.23 199.228 506.539 196.449C507.157 189.039 507.311 185.796 507.311 162.02C507.311 138.244 507.002 137.318 506.539 134.539C505.767 129.907 503.76 128.209 497.584 126.665C493.57 125.739 492.953 123.577 492.953 122.496C492.953 120.489 496.04 119.409 498.048 119.409C500.672 119.409 517.809 120.181 527.999 120.181ZM626.453 120.181H642.355C656.405 120.181 658.566 120.181 662.117 119.409C663.815 119.1 664.896 120.026 665.359 120.798C666.286 122.342 667.521 134.076 667.521 137.472C667.521 141.486 665.668 142.413 664.742 142.413C661.963 142.413 660.419 140.715 658.566 136.546C655.633 130.216 653.471 129.135 652.236 129.135C643.436 129.135 634.944 129.598 632.783 129.598C632.011 129.598 630.776 131.297 630.776 131.914C630.622 134.848 630.313 145.964 630.313 156.617C630.313 159.087 630.776 160.631 631.548 160.785C633.246 161.248 638.65 161.094 641.429 160.94C648.376 160.476 650.538 158.006 652.236 154.146C653.162 151.831 654.706 149.978 656.405 149.978C658.566 149.978 659.956 152.139 659.647 156.617C659.492 158.469 659.338 162.02 659.338 165.571C659.338 169.122 659.647 172.673 659.801 174.989C660.11 179.158 657.794 181.01 656.25 181.01C654.861 181.01 652.854 179.312 651.464 176.224C649.92 172.673 649.457 171.593 646.215 171.284C639.885 170.821 638.959 170.512 632.011 170.512C631.239 170.512 630.313 172.673 630.313 176.533C630.313 180.702 630.776 189.656 630.93 193.053C631.239 197.53 631.857 199.228 632.32 199.846C633.864 202.162 641.274 204.169 648.685 204.169C651.155 204.169 655.478 203.706 659.029 201.699C661.963 200.155 663.507 198.302 666.903 193.67C669.373 190.274 671.072 186.568 673.542 186.568C676.475 186.568 677.402 191.046 676.784 194.288C675.858 198.765 672.152 209.109 671.535 210.499C671.072 211.58 667.83 213.278 666.903 213.278C664.896 213.278 658.721 212.506 630.622 212.506C620.895 212.506 601.442 213.123 594.803 213.123C591.561 213.123 589.245 211.888 589.245 210.653C589.245 208.8 590.48 206.639 593.722 205.713C604.375 202.779 604.684 199.228 604.993 196.449C605.61 189.039 605.765 185.796 605.765 162.02C605.765 138.244 605.456 137.318 604.993 134.539C604.221 129.907 602.214 128.209 596.038 126.665C592.024 125.739 591.406 123.577 591.406 122.496C591.406 120.489 594.494 119.409 596.501 119.409C599.126 119.409 616.263 120.181 626.453 120.181ZM712.905 120.181H760.149C768.795 120.181 772.654 119.1 773.272 118.328C775.125 116.012 776.823 114.623 777.904 114.623C778.83 114.623 782.844 117.093 782.844 119.563C782.844 120.644 780.991 130.37 780.991 140.715C780.991 143.802 778.675 147.199 775.742 147.199C773.581 147.199 772.346 143.339 772.037 141.95C769.721 131.76 767.096 131.451 761.538 130.834C759.222 130.525 758.759 130.062 745.636 130.062C744.864 130.062 744.401 131.297 744.247 132.841C744.092 135.002 743.166 155.845 743.166 165.571C743.166 174.989 743.011 185.179 743.475 190.737C744.401 202.007 747.026 202.471 753.356 204.786C756.135 205.867 758.759 207.257 758.759 209.109C758.759 212.506 755.054 213.278 751.966 213.278C750.422 213.278 733.439 212.506 724.176 212.506C719.699 212.506 711.361 212.969 707.193 212.969C703.951 212.969 700.863 211.58 700.863 208.8C700.863 207.565 702.407 205.404 705.958 204.478C715.53 201.853 718.155 199.846 718.155 191.354C718.155 188.112 718.463 167.578 718.463 157.543C718.463 147.971 718.618 137.781 718.618 132.995C718.618 131.76 717.074 130.062 716.611 130.062C712.751 130.062 707.039 130.062 703.024 130.216C698.701 130.37 694.533 130.37 690.364 141.95C689.438 144.574 687.585 146.581 685.887 146.581C683.88 146.581 681.564 143.802 681.564 140.097C681.564 135.311 683.262 128.363 683.262 119.872C683.262 117.247 685.578 114.931 687.431 114.931C687.894 114.931 689.747 115.858 690.828 116.63C693.452 118.791 695.768 119.717 700.245 119.872C706.575 120.181 707.965 120.181 712.905 120.181ZM808.1 178.694V143.03C808.1 130.062 807.483 128.363 799.145 126.511C796.521 125.893 794.977 124.04 794.977 122.651C794.977 120.335 798.682 119.563 800.226 119.563C803.16 119.563 812.886 120.181 819.679 120.181C828.943 120.181 836.508 119.717 840.985 119.717C843.301 119.717 845.771 120.953 845.771 122.96C845.771 124.812 843.147 126.047 841.911 126.356C834.346 128.055 833.883 130.062 833.266 138.09C832.802 144.729 832.648 158.161 832.648 168.659C832.648 185.488 832.957 191.509 832.957 193.516C833.266 200.772 834.038 203.86 841.757 205.713C844.69 206.485 846.698 208.029 846.698 210.19C846.698 212.043 843.301 212.969 841.448 212.969C839.904 212.969 824.929 212.506 819.679 212.506C814.276 212.506 803.005 213.123 800.226 213.123C798.219 213.123 794.977 212.66 794.977 210.19C794.977 208.492 797.447 206.485 799.609 205.867C805.784 203.86 806.711 202.007 807.483 197.376C807.946 194.133 808.1 191.354 808.1 178.694ZM856.714 121.879C856.714 120.798 857.949 119.254 860.728 119.254C866.903 119.254 879.255 120.489 889.136 120.489C890.525 120.489 892.687 121.57 893.15 122.188C895.774 125.739 900.56 130.834 907.971 138.862C916.154 147.662 940.702 173.6 944.098 175.452C944.562 175.607 945.797 175.298 945.951 174.835C946.877 170.666 946.877 155.845 946.414 145.192C945.951 134.693 946.723 130.679 934.681 127.9C930.975 126.974 929.586 124.349 929.586 123.423C929.586 122.342 931.284 120.026 934.989 120.026C940.547 120.026 940.239 120.181 944.253 120.181C950.583 120.181 962.316 119.409 965.404 119.409C968.646 119.409 970.808 120.335 970.808 122.96C970.808 124.658 969.573 125.739 964.632 127.9C958.302 130.679 957.376 132.377 957.222 134.385C956.913 141.486 955.678 173.291 955.678 183.635C955.678 190.428 956.295 197.221 956.295 204.323C956.295 210.808 955.06 215.594 952.281 215.594C947.341 215.594 943.326 212.815 940.393 209.418C934.681 202.934 927.424 194.442 923.101 189.656C917.235 182.863 893.15 157.234 886.357 149.824C885.893 149.36 884.813 150.287 884.813 150.904C884.658 154.301 884.349 154.764 884.349 161.403C884.349 168.35 884.658 182.245 884.813 186.414C885.276 198.456 887.283 202.162 892.687 204.323C897.936 206.33 899.634 208.029 899.634 210.19C899.634 212.043 897.936 213.123 894.385 213.123C890.062 213.123 884.813 212.506 877.556 212.506C870.3 212.506 866.44 213.123 864.433 213.123C859.801 213.123 858.258 211.425 858.258 209.881C858.258 207.874 860.11 206.485 862.889 205.558C869.991 203.242 872.77 202.779 873.542 192.435C874.314 182.091 875.549 145.192 875.549 140.251C875.549 139.325 874.777 136.083 872.77 133.767C869.528 130.062 866.749 128.209 863.198 127.437C859.647 126.665 856.714 124.812 856.714 121.879ZM1040.07 117.093C1050.11 117.093 1055.82 118.791 1062.3 120.489C1065.55 121.416 1068.79 121.879 1070.79 121.879C1071.88 121.879 1073.57 123.577 1073.88 125.276C1074.81 129.444 1076.97 137.318 1076.97 143.494C1076.97 145.809 1075.43 149.515 1073.11 149.515C1071.57 149.515 1070.49 149.052 1068.17 144.883C1066.16 141.178 1064.62 137.009 1060.76 133.613C1052.73 126.511 1043.31 125.43 1039.14 125.43C1017.68 125.43 1010.12 145.809 1010.12 163.873C1010.12 189.347 1024.63 207.102 1042.39 207.102C1043.78 207.102 1047.64 206.176 1049.33 204.941C1050.88 203.86 1051.5 198.611 1051.5 195.06C1051.5 189.193 1051.34 183.481 1051.19 181.473C1050.88 178.386 1050.26 175.761 1044.55 174.372C1039.3 173.136 1037.29 171.593 1037.29 169.277C1037.29 167.887 1038.99 165.726 1043.62 165.726C1047.94 165.726 1052.42 166.498 1057.52 166.498C1062.15 166.498 1077.28 165.726 1080.37 165.726C1084.69 165.726 1086.08 167.424 1086.08 169.277C1086.08 171.438 1083.15 173.136 1081.14 173.908C1075.74 175.761 1076.04 178.386 1075.89 180.547C1075.58 184.098 1075.58 179.003 1075.58 193.053C1075.58 195.06 1075.74 197.221 1076.04 199.691C1076.2 200.772 1076.51 202.316 1076.51 204.169C1076.51 204.632 1074.65 206.948 1074.35 207.102C1072.49 208.492 1068.63 210.499 1062.15 212.351C1056.13 214.05 1048.56 215.594 1041 215.594C1015.68 215.594 1001.32 208.029 991.438 195.986C984.491 187.495 981.866 176.224 981.866 166.189C981.866 149.515 988.968 137.935 1001.16 128.672C1009.97 121.879 1026.02 117.093 1040.07 117.093ZM1138.8 117.247C1147.45 117.247 1155.63 120.026 1161.65 121.416C1162.58 121.57 1163.66 124.04 1163.66 125.739C1163.66 127.591 1164.74 136.083 1164.74 138.399C1164.74 143.648 1162.27 145.809 1160.11 145.809C1158.41 145.809 1157.02 143.185 1156.56 141.95C1153.16 132.686 1145.13 124.349 1136.33 124.349C1129.85 124.349 1123.98 130.37 1123.98 136.237C1123.98 143.185 1129.07 148.28 1137.87 152.757C1157.33 162.638 1168.75 171.284 1168.75 185.951C1168.75 198.611 1160.11 205.713 1154.55 209.109C1148.53 212.66 1138.34 215.285 1131.24 215.285C1118.11 215.285 1110.55 212.506 1107 211.116C1105.92 210.653 1103.45 209.264 1102.67 207.565C1100.05 202.007 1099.59 193.979 1099.59 190.274C1099.59 187.34 1101.13 183.635 1103.6 183.635C1105.3 183.635 1107.31 185.488 1109.47 189.502C1115.18 200 1123.67 207.565 1133.24 207.565C1138.8 207.565 1145.75 203.706 1145.75 196.604C1145.75 191.972 1146.06 186.877 1130.31 178.386C1110.08 167.578 1102.21 159.241 1102.21 144.883C1102.21 134.848 1109.31 126.665 1116.72 122.496C1122.59 119.254 1130 117.247 1138.8 117.247Z" fill="white"/>
</svg>
