<svg width="100" height="81" viewBox="0 0 100 81" fill="none" xmlns="http://www.w3.org/2000/svg">
<path d="M46.5316 80.365C68.7003 80.365 86.6716 62.3937 86.6716 40.225C86.6716 18.0562 68.7003 0.0849609 46.5316 0.0849609C24.3629 0.0849609 6.3916 18.0562 6.3916 40.225C6.3916 62.3937 24.3629 80.365 46.5316 80.365Z" fill="#0B3D91"/>
<path d="M44.1614 8.24473C44.41 8.24473 44.6114 8.04325 44.6114 7.79473C44.6114 7.5462 44.41 7.34473 44.1614 7.34473C43.9129 7.34473 43.7114 7.5462 43.7114 7.79473C43.7114 8.04325 43.9129 8.24473 44.1614 8.24473Z" fill="white"/>
<path d="M48.7815 8.84531C49.0301 8.84531 49.2315 8.64384 49.2315 8.39531C49.2315 8.14678 49.0301 7.94531 48.7815 7.94531C48.533 7.94531 48.3315 8.14678 48.3315 8.39531C48.3315 8.64384 48.533 8.84531 48.7815 8.84531Z" fill="white"/>
<path d="M54.8416 17.0045C55.0901 17.0045 55.2916 16.803 55.2916 16.5545C55.2916 16.306 55.0901 16.1045 54.8416 16.1045C54.5931 16.1045 54.3916 16.306 54.3916 16.5545C54.3916 16.803 54.5931 17.0045 54.8416 17.0045Z" fill="white"/>
<path d="M21.6019 59.0045C21.8504 59.0045 22.0519 58.803 22.0519 58.5545C22.0519 58.306 21.8504 58.1045 21.6019 58.1045C21.3533 58.1045 21.1519 58.306 21.1519 58.5545C21.1519 58.803 21.3533 59.0045 21.6019 59.0045Z" fill="white"/>
<path d="M22.7718 62.6051C23.0203 62.6051 23.2218 62.4036 23.2218 62.1551C23.2218 61.9065 23.0203 61.7051 22.7718 61.7051C22.5232 61.7051 22.3218 61.9065 22.3218 62.1551C22.3218 62.4036 22.5232 62.6051 22.7718 62.6051Z" fill="white"/>
<path d="M17.1915 59.4318C17.3776 59.4318 17.5285 59.2809 17.5285 59.0948C17.5285 58.9087 17.3776 58.7578 17.1915 58.7578C17.0054 58.7578 16.8545 58.9087 16.8545 59.0948C16.8545 59.2809 17.0054 59.4318 17.1915 59.4318Z" fill="white"/>
<path d="M35.4918 66.5051C35.6785 66.5051 35.8298 66.3538 35.8298 66.1671C35.8298 65.9804 35.6785 65.8291 35.4918 65.8291C35.3051 65.8291 35.1538 65.9804 35.1538 66.1671C35.1538 66.3538 35.3051 66.5051 35.4918 66.5051Z" fill="white"/>
<path d="M64.1934 60.5422C64.3796 60.5422 64.5304 60.3913 64.5304 60.2052C64.5304 60.019 64.3796 59.8682 64.1934 59.8682C64.0073 59.8682 63.8564 60.019 63.8564 60.2052C63.8564 60.3913 64.0073 60.5422 64.1934 60.5422Z" fill="white"/>
<path d="M72.5348 51.4826C72.7215 51.4826 72.8728 51.3313 72.8728 51.1446C72.8728 50.958 72.7215 50.8066 72.5348 50.8066C72.3481 50.8066 72.1968 50.958 72.1968 51.1446C72.1968 51.3313 72.3481 51.4826 72.5348 51.4826Z" fill="white"/>
<path d="M31.6515 19.5236C31.8376 19.5236 31.9885 19.3727 31.9885 19.1866C31.9885 19.0005 31.8376 18.8496 31.6515 18.8496C31.4653 18.8496 31.3145 19.0005 31.3145 19.1866C31.3145 19.3727 31.4653 19.5236 31.6515 19.5236Z" fill="white"/>
<path d="M40.8316 12.7814C41.0177 12.7814 41.1686 12.6305 41.1686 12.4444C41.1686 12.2583 41.0177 12.1074 40.8316 12.1074C40.6455 12.1074 40.4946 12.2583 40.4946 12.4444C40.4946 12.6305 40.6455 12.7814 40.8316 12.7814Z" fill="white"/>
<path d="M39.8346 12.1222C40.0207 12.1222 40.1716 11.9714 40.1716 11.7852C40.1716 11.5991 40.0207 11.4482 39.8346 11.4482C39.6484 11.4482 39.4976 11.5991 39.4976 11.7852C39.4976 11.9714 39.6484 12.1222 39.8346 12.1222Z" fill="white"/>
<path d="M38.9347 11.4621C39.1208 11.4621 39.2717 11.3112 39.2717 11.1251C39.2717 10.939 39.1208 10.7881 38.9347 10.7881C38.7485 10.7881 38.5977 10.939 38.5977 11.1251C38.5977 11.3112 38.7485 11.4621 38.9347 11.4621Z" fill="white"/>
<path d="M33.0919 21.2648C33.278 21.2648 33.4289 21.1139 33.4289 20.9278C33.4289 20.7417 33.278 20.5908 33.0919 20.5908C32.9058 20.5908 32.7549 20.7417 32.7549 20.9278C32.7549 21.1139 32.9058 21.2648 33.0919 21.2648Z" fill="white"/>
<path d="M46.6139 3.72185C46.8 3.72185 46.9509 3.57097 46.9509 3.38485C46.9509 3.19873 46.8 3.04785 46.6139 3.04785C46.4277 3.04785 46.2769 3.19873 46.2769 3.38485C46.2769 3.57097 46.4277 3.72185 46.6139 3.72185Z" fill="white"/>
<path d="M48.8346 13.4416C49.0207 13.4416 49.1716 13.2907 49.1716 13.1046C49.1716 12.9185 49.0207 12.7676 48.8346 12.7676C48.6484 12.7676 48.4976 12.9185 48.4976 13.1046C48.4976 13.2907 48.6484 13.4416 48.8346 13.4416Z" fill="white"/>
<path d="M45.3316 11.5441C45.5177 11.5441 45.6686 11.3932 45.6686 11.2071C45.6686 11.021 45.5177 10.8701 45.3316 10.8701C45.1455 10.8701 44.9946 11.021 44.9946 11.2071C44.9946 11.3932 45.1455 11.5441 45.3316 11.5441Z" fill="white"/>
<path d="M39.3316 14.1252C39.5177 14.1252 39.6686 13.9743 39.6686 13.7882C39.6686 13.6021 39.5177 13.4512 39.3316 13.4512C39.1455 13.4512 38.9946 13.6021 38.9946 13.7882C38.9946 13.9743 39.1455 14.1252 39.3316 14.1252Z" fill="white"/>
<path d="M65.7916 69.4445C65.9777 69.4445 66.1286 69.2936 66.1286 69.1075C66.1286 68.9214 65.9777 68.7705 65.7916 68.7705C65.6055 68.7705 65.4546 68.9214 65.4546 69.1075C65.4546 69.2936 65.6055 69.4445 65.7916 69.4445Z" fill="white"/>
<path d="M21.0318 61.1731C21.2185 61.1731 21.3698 61.0217 21.3698 60.8351C21.3698 60.6484 21.2185 60.4971 21.0318 60.4971C20.8452 60.4971 20.6938 60.6484 20.6938 60.8351C20.6938 61.0217 20.8452 61.1731 21.0318 61.1731Z" fill="white"/>
<path d="M44.4918 65.5227C44.6785 65.5227 44.8298 65.3713 44.8298 65.1847C44.8298 64.998 44.6785 64.8467 44.4918 64.8467C44.3051 64.8467 44.1538 64.998 44.1538 65.1847C44.1538 65.3713 44.3051 65.5227 44.4918 65.5227Z" fill="white"/>
<path d="M28.0138 60.9026C28.2005 60.9026 28.3518 60.7512 28.3518 60.5646C28.3518 60.3779 28.2005 60.2266 28.0138 60.2266C27.8271 60.2266 27.6758 60.3779 27.6758 60.5646C27.6758 60.7512 27.8271 60.9026 28.0138 60.9026Z" fill="white"/>
<path d="M30.9318 65.6662C31.1184 65.6662 31.2697 65.5149 31.2697 65.3282C31.2697 65.1416 31.1184 64.9902 30.9318 64.9902C30.7451 64.9902 30.5938 65.1416 30.5938 65.3282C30.5938 65.5149 30.7451 65.6662 30.9318 65.6662Z" fill="white"/>
<path d="M52.4117 62.6652C52.5978 62.6652 52.7487 62.5143 52.7487 62.3282C52.7487 62.1421 52.5978 61.9912 52.4117 61.9912C52.2256 61.9912 52.0747 62.1421 52.0747 62.3282C52.0747 62.5143 52.2256 62.6652 52.4117 62.6652Z" fill="white"/>
<path d="M64.2535 55.9816C64.4396 55.9816 64.5905 55.8307 64.5905 55.6446C64.5905 55.4585 64.4396 55.3076 64.2535 55.3076C64.0674 55.3076 63.9165 55.4585 63.9165 55.6446C63.9165 55.8307 64.0674 55.9816 64.2535 55.9816Z" fill="white"/>
<path d="M73.2315 60.0842C73.4176 60.0842 73.5685 59.9333 73.5685 59.7472C73.5685 59.561 73.4176 59.4102 73.2315 59.4102C73.0454 59.4102 72.8945 59.561 72.8945 59.7472C72.8945 59.9333 73.0454 60.0842 73.2315 60.0842Z" fill="white"/>
<path d="M76.2916 62.0422C76.4777 62.0422 76.6286 61.8913 76.6286 61.7052C76.6286 61.519 76.4777 61.3682 76.2916 61.3682C76.1055 61.3682 75.9546 61.519 75.9546 61.7052C75.9546 61.8913 76.1055 62.0422 76.2916 62.0422Z" fill="white"/>
<path d="M76.7945 56.7023C76.9806 56.7023 77.1315 56.5514 77.1315 56.3653C77.1315 56.1792 76.9806 56.0283 76.7945 56.0283C76.6084 56.0283 76.4575 56.1792 76.4575 56.3653C76.4575 56.5514 76.6084 56.7023 76.7945 56.7023Z" fill="white"/>
<path d="M32.1539 49.1418C32.34 49.1418 32.4909 48.9909 32.4909 48.8048C32.4909 48.6187 32.34 48.4678 32.1539 48.4678C31.9678 48.4678 31.8169 48.6187 31.8169 48.8048C31.8169 48.9909 31.9678 49.1418 32.1539 49.1418Z" fill="white"/>
<path d="M32.2815 56.9947C32.5301 56.9947 32.7315 56.7933 32.7315 56.5447C32.7315 56.2962 32.5301 56.0947 32.2815 56.0947C32.033 56.0947 31.8315 56.2962 31.8315 56.5447C31.8315 56.7933 32.033 56.9947 32.2815 56.9947Z" fill="white"/>
<path d="M34.9817 62.6949C35.2303 62.6949 35.4317 62.4934 35.4317 62.2449C35.4317 61.9964 35.2303 61.7949 34.9817 61.7949C34.7332 61.7949 34.5317 61.9964 34.5317 62.2449C34.5317 62.4934 34.7332 62.6949 34.9817 62.6949Z" fill="white"/>
<path d="M67.3216 56.7545C67.5701 56.7545 67.7716 56.553 67.7716 56.3045C67.7716 56.056 67.5701 55.8545 67.3216 55.8545C67.0731 55.8545 66.8716 56.056 66.8716 56.3045C66.8716 56.553 67.0731 56.7545 67.3216 56.7545Z" fill="white"/>
<path d="M78.9617 56.0953C79.2102 56.0953 79.4117 55.8938 79.4117 55.6453C79.4117 55.3968 79.2102 55.1953 78.9617 55.1953C78.7132 55.1953 78.5117 55.3968 78.5117 55.6453C78.5117 55.8938 78.7132 56.0953 78.9617 56.0953Z" fill="white"/>
<path d="M73.2015 53.6344C73.45 53.6344 73.6515 53.4329 73.6515 53.1844C73.6515 52.9358 73.45 52.7344 73.2015 52.7344C72.9529 52.7344 72.7515 52.9358 72.7515 53.1844C72.7515 53.4329 72.9529 53.6344 73.2015 53.6344Z" fill="white"/>
<path d="M67.3216 53.8746C67.5701 53.8746 67.7716 53.6731 67.7716 53.4246C67.7716 53.1761 67.5701 52.9746 67.3216 52.9746C67.0731 52.9746 66.8716 53.1761 66.8716 53.4246C66.8716 53.6731 67.0731 53.8746 67.3216 53.8746Z" fill="white"/>
<path d="M55.1928 7.51243L56.3118 7.40543L55.1948 7.34243C55.1598 7.12643 54.9868 6.95743 54.7688 6.92943L54.6618 5.81543L54.5978 6.93843C54.3958 6.98343 54.2408 7.15243 54.2158 7.36243L53.0718 7.46643L54.2238 7.52843C54.2658 7.72143 54.4218 7.87243 54.6178 7.90843L54.7218 9.05643L54.7828 7.91043C54.9898 7.87543 55.1538 7.71643 55.1928 7.51243Z" fill="white"/>
<path d="M36.3065 19.9704L37.4255 19.8634L36.3085 19.8004C36.2745 19.5844 36.1005 19.4154 35.8825 19.3874L35.7755 18.2734L35.7125 19.3964C35.5095 19.4414 35.3545 19.6104 35.3295 19.8204L34.1855 19.9244L35.3375 19.9864C35.3795 20.1794 35.5355 20.3304 35.7315 20.3664L35.8355 21.5144L35.8975 20.3684C36.1045 20.3344 36.2685 20.1744 36.3065 19.9704Z" fill="white"/>
<path d="M78.1415 52.9089L79.2605 52.8019L78.1435 52.7389C78.1095 52.5229 77.9355 52.3539 77.7175 52.3259L77.6105 51.2119L77.5475 52.3349C77.3455 52.3799 77.1905 52.5489 77.1655 52.7589L76.0215 52.8629L77.1735 52.9249C77.2155 53.1179 77.3715 53.2689 77.5675 53.3049L77.6715 54.4529L77.7335 53.3069C77.9385 53.2729 78.1025 53.1139 78.1415 52.9089Z" fill="white"/>
<path d="M32.5268 70.1306L33.6458 70.0236L32.5288 69.9606C32.4938 69.7446 32.3208 69.5756 32.1028 69.5476L31.9958 68.4346L31.9328 69.5566C31.7298 69.6016 31.5748 69.7706 31.5498 69.9806L30.4058 70.0846L31.5578 70.1466C31.5998 70.3396 31.7558 70.4916 31.9518 70.5266L32.0558 71.6746L32.1178 70.5286C32.3238 70.4946 32.4888 70.3346 32.5268 70.1306Z" fill="white"/>
<path d="M74.5868 61.7312L75.7058 61.6242L74.5888 61.5612C74.5548 61.3452 74.3808 61.1762 74.1628 61.1482L74.0558 60.0342L73.9928 61.1562C73.7908 61.2012 73.6358 61.3702 73.6108 61.5802L72.4668 61.6842L73.6188 61.7462C73.6608 61.9392 73.8168 62.0902 74.0128 62.1262L74.1168 63.2742L74.1788 62.1282C74.3838 62.0952 74.5488 61.9352 74.5868 61.7312Z" fill="white"/>
<path d="M56.0507 30.6103C51.3837 32.4243 46.8317 34.0433 42.9907 35.2453C35.1857 37.6893 13.8307 44.3053 0.930664 52.6453L2.01066 53.0653C9.87066 48.6253 14.9797 47.2303 19.8907 45.6853C25.2307 44.0053 42.4937 39.9653 50.3107 37.7653C52.9517 37.0223 56.0447 36.0493 59.3207 34.8653C58.5587 33.8023 57.7547 32.7363 56.9087 31.6723C56.6257 31.3133 56.3387 30.9593 56.0507 30.6103ZM61.7527 38.4693C60.6227 39.2323 59.6757 39.8413 59.0127 40.2253C55.1727 42.4453 36.4517 55.2253 32.1927 58.1653C27.9337 61.1053 16.1127 72.2653 12.6327 75.5053L12.5127 76.8243C23.7327 66.7443 27.2527 64.2583 31.7127 60.8653C37.2327 56.6653 48.6517 48.8953 52.5327 46.4053C56.2427 44.0253 59.5887 41.8363 62.5917 39.8333C62.5427 39.7513 62.4937 39.6693 62.4447 39.5863C62.2187 39.2153 61.9877 38.8433 61.7527 38.4693ZM79.2917 19.9453C73.8257 23.1493 65.2107 27.0163 56.8527 30.2973C57.0527 30.5423 57.2517 30.7893 57.4497 31.0383C58.3837 32.2143 59.2647 33.3983 60.0937 34.5833C66.6637 32.1633 73.8727 28.9153 79.5927 24.9843C76.8677 27.5663 67.8587 34.2993 62.3657 38.0523C62.6487 38.5133 62.9227 38.9743 63.1877 39.4333C71.5097 33.8643 77.1097 29.7653 80.3727 27.0243C84.8727 23.2443 95.1327 14.7843 99.0327 3.44434C92.1917 12.1453 84.1037 17.1243 79.2917 19.9453Z" fill="#FC3D21"/>
<path d="M41.3665 50.1643C40.4815 49.0503 39.2575 47.5583 38.3385 46.4013C37.1095 44.8543 35.9725 43.2913 34.9305 41.7303C34.5905 41.8153 34.2515 41.9003 33.9125 41.9853C35.1705 43.9483 36.5675 45.9083 38.0895 47.8243C39.2015 49.2243 40.2125 50.3513 40.7305 51.0523C40.8355 51.1943 41.0435 51.5083 41.3245 51.9263C41.6485 51.7063 41.9755 51.4843 42.3055 51.2603C41.9865 50.9133 41.6715 50.5483 41.3665 50.1643ZM47.8265 56.0283C47.0995 55.3403 45.3365 54.1913 43.5015 52.4673C43.0965 52.7453 42.6875 53.0273 42.2775 53.3113C43.4625 54.9813 45.0765 57.0323 46.3405 57.6303C48.2445 58.5323 48.7575 56.9103 47.8265 56.0283ZM57.4495 31.0383C46.9575 17.8323 34.1405 10.5773 28.6145 14.9683C24.3225 18.3783 26.0845 28.3443 32.0005 38.8133C32.3065 38.7083 32.6095 38.6053 32.9095 38.5033C26.9385 28.3033 25.3045 18.8243 29.3525 15.6073C34.4395 11.5653 46.7225 18.8483 56.9105 31.6713C59.0195 34.3253 60.8735 36.9893 62.4435 39.5863C68.4555 49.5363 70.3005 58.5343 66.1465 62.2073C64.8755 63.3313 60.9915 63.7723 55.9035 61.4823C55.8325 61.5713 55.9465 61.8123 56.0355 61.8713C60.4275 63.6373 64.6345 64.3103 66.7585 62.6233C71.8625 58.5673 67.9415 44.2443 57.4495 31.0383Z" fill="white"/>
<path d="M12.4517 32.6045H19.1717L24.8117 42.1745C24.8117 42.1745 24.8117 35.2445 24.8117 34.7045C24.8117 33.8645 23.7467 32.7695 23.3717 32.6045C23.8217 32.6045 27.7517 32.6045 28.0217 32.6045C27.7367 32.6795 26.8217 33.7895 26.8217 34.7045C26.8217 35.1545 26.8217 45.2045 26.8217 45.6845C26.8217 46.3595 27.7967 47.2895 28.2617 47.6495H21.7817L16.0517 38.0345C16.0517 38.0345 16.0517 45.2045 16.0517 45.5945C16.0517 46.3445 16.7867 47.0645 17.5517 47.6795H12.6017C13.3067 47.3795 13.9817 46.4345 14.0417 45.6845C14.1017 44.9345 14.0417 35.2595 14.0417 34.8395C14.0417 33.9245 13.1567 33.1745 12.4517 32.6045Z" fill="white"/>
<path d="M73.9215 47.6495H82.8615C82.3665 47.5295 81.8115 46.9445 81.5115 46.1645C81.2115 45.3845 76.4715 32.6045 76.4715 32.6045H73.0725C72.1085 33.2985 71.0755 34.0305 69.9725 34.8015C69.9695 34.8295 69.9665 34.8575 69.9615 34.8845C69.8135 35.7845 67.1535 45.4185 66.9915 45.8945C66.7665 46.5545 65.6115 47.2895 65.1465 47.6795H69.9615C69.4815 47.1395 69.0915 46.6145 69.1815 46.0145C69.2715 45.4145 69.5415 44.2145 69.5415 44.2145H74.5215C74.7465 44.8145 74.9145 45.3535 75.0015 45.8645C75.1065 46.4795 74.4765 47.1695 73.9215 47.6495ZM69.9915 42.2945L71.6715 36.8045L73.8915 42.2945H69.9915ZM69.2345 33.1525C69.4815 32.9705 69.7295 32.7875 69.9765 32.6045H68.6715C68.8015 32.7245 69.0165 32.9135 69.2345 33.1525Z" fill="white"/>
<path d="M35.0418 46.0145C35.1318 45.4145 35.4018 44.2145 35.4018 44.2145H40.3818C40.6068 44.8145 40.7748 45.3535 40.8618 45.8645C40.9668 46.4795 40.3368 47.1695 39.7818 47.6495H47.6528C47.8168 47.5395 47.9798 47.4295 48.1428 47.3205C47.8378 47.0505 47.5568 46.6455 47.3718 46.1645C47.0718 45.3845 42.3318 32.6045 42.3318 32.6045H34.5318C34.9068 32.9495 35.9868 33.8795 35.8218 34.8845C35.6748 35.7845 33.0138 45.4185 32.8518 45.8945C32.6268 46.5545 31.4718 47.2895 31.0068 47.6795H35.8218C35.3418 47.1395 34.9518 46.6145 35.0418 46.0145ZM37.5318 36.8045L39.7518 42.2945H35.8518L37.5318 36.8045Z" fill="white"/>
<path d="M62.2307 40.0726C60.7627 41.0506 59.2137 42.0716 57.5817 43.1376C58.3137 43.4926 58.8967 43.9386 58.9527 44.5146C59.0567 45.5966 56.8827 46.1196 54.9177 45.8946C54.5247 45.8496 54.1387 45.7466 53.7707 45.6086C53.3627 45.8716 52.9507 46.1366 52.5327 46.4046C52.1077 46.6776 51.5917 47.0136 51.0027 47.4016V48.9546C51.3927 48.1896 52.2457 47.5046 52.9077 47.4696C53.1927 47.4546 54.1827 48.3696 58.2627 48.1446C60.2427 48.0356 64.0677 45.9246 64.0077 43.4946C63.9717 42.0586 63.2217 40.9386 62.2307 40.0726ZM51.0017 43.8246V45.4066C51.3627 45.1656 51.7187 44.9286 52.0677 44.6976C51.5187 44.3156 51.1297 43.9586 51.0017 43.8246ZM60.8357 39.0796C60.4557 38.8546 60.0707 38.6576 59.7017 38.4836C57.7817 37.5836 55.7717 37.4186 55.3517 36.2036C55.0557 35.3466 55.8917 34.5536 57.9317 34.5836C59.9717 34.6136 61.8617 35.8286 62.3717 36.2636V32.3936C62.2217 32.5436 61.5637 33.2986 60.9617 33.1736C59.8067 32.9336 57.8417 32.6206 55.5917 32.6336C53.0117 32.6486 50.7917 34.6426 50.7167 37.1636C50.6117 40.6886 53.4317 41.6486 55.0217 42.2036C55.1857 42.2606 55.3727 42.3216 55.5757 42.3866C57.1007 41.3946 58.3067 40.6306 59.0127 40.2236C59.4867 39.9506 60.1077 39.5586 60.8357 39.0796Z" fill="white"/>
</svg>
