<svg width="1271" height="306" viewBox="0 0 1271 306" fill="none" xmlns="http://www.w3.org/2000/svg">
<path d="M62.8195 198.134V195.634H60.3195V198.134H62.8195ZM77.8083 198.134H80.3083V195.634H77.8083V198.134ZM77.8083 246.677V249.177H80.3083V246.677H77.8083ZM75.7573 246.677L74.1728 248.611L74.8639 249.177H75.7573V246.677ZM55.1409 231.425L53.7225 233.484L53.7243 233.485L55.1409 231.425ZM19.746 221.17L21.4339 223.014L21.4423 223.006L21.4507 222.998L19.746 221.17ZM25.7941 245.73V248.23H31.6209L27.6059 244.008L25.7941 245.73ZM10.3845 245.73L8.28725 247.091L9.02635 248.23H10.3845V245.73ZM8.96445 208.127L10.8243 209.797L10.8312 209.789L8.96445 208.127ZM62.8195 221.801L61.2702 223.763L65.3195 226.96V221.801H62.8195ZM62.8195 200.634H77.8083V195.634H62.8195V200.634ZM75.3084 198.134V246.677H80.3083V198.134H75.3084ZM77.8083 244.177H75.7573V249.177H77.8083V244.177ZM77.3418 244.743C71.8355 240.232 64.9024 235.105 56.5576 229.365L53.7243 233.485C61.9988 239.176 68.81 244.217 74.1728 248.611L77.3418 244.743ZM56.5594 229.367C48.2306 223.627 42.116 219.86 38.3521 218.242L36.377 222.835C39.6254 224.232 45.3618 227.723 53.7225 233.484L56.5594 229.367ZM38.3521 218.242C34.5828 216.621 30.8464 215.777 27.1615 215.777V220.777C30.0684 220.777 33.1339 221.441 36.377 222.835L38.3521 218.242ZM27.1615 215.777C23.6654 215.777 20.5812 216.973 18.0413 219.341L21.4507 222.998C23.048 221.509 24.9075 220.777 27.1615 220.777V215.777ZM18.0581 219.325C15.4947 221.672 14.143 224.628 14.143 228.059H19.143C19.143 226.091 19.86 224.454 21.4339 223.014L18.0581 219.325ZM14.143 228.059C14.143 234.372 17.7107 240.857 23.9824 247.453L27.6059 244.008C21.6761 237.771 19.143 232.475 19.143 228.059H14.143ZM25.7941 243.23H10.3845V248.23H25.7941V243.23ZM12.4817 244.37C8.00035 237.462 5.88965 231.075 5.88965 225.167H0.889648C0.889648 232.301 3.44215 239.623 8.28725 247.091L12.4817 244.37ZM5.88965 225.167C5.88965 218.372 7.63095 213.352 10.8243 209.797L7.10465 206.456C2.86505 211.176 0.889648 217.516 0.889648 225.167H5.88965ZM10.8312 209.789C13.9954 206.237 18.3693 204.368 24.2689 204.368V199.368C17.1957 199.368 11.3666 201.671 7.09775 206.464L10.8312 209.789ZM24.2689 204.368C28.1289 204.368 33.1425 205.831 39.4113 209.072C45.6448 212.295 52.9268 217.175 61.2702 223.763L64.3687 219.839C55.8824 213.138 48.3245 208.052 41.7078 204.631C35.1264 201.228 29.2796 199.368 24.2689 199.368V204.368ZM65.3195 221.801V198.134H60.3195V221.801H65.3195ZM13.4348 145.068L14.7962 147.165L14.8038 147.16L13.4348 145.068ZM68.7625 181.725L70.1441 183.809L70.1517 183.803L68.7625 181.725ZM13.3296 181.62L11.9203 183.685L11.9227 183.686L13.3296 181.62ZM59.6639 156.849L60.5443 154.509L60.5368 154.506L59.6639 156.849ZM22.2704 156.849L23.1614 159.184L23.176 159.179L23.1905 159.173L22.2704 156.849ZM22.1652 169.944L21.1951 172.248L21.2072 172.253L22.1652 169.944ZM59.6114 169.944L60.4967 172.282L60.5103 172.277L60.524 172.272L59.6114 169.944ZM5.88965 163.265C5.88965 156.354 8.78755 151.066 14.7962 147.165L12.0735 142.971C4.68875 147.765 0.889648 154.609 0.889648 163.265H5.88965ZM14.8038 147.16C20.9523 143.136 29.5142 140.994 40.7305 140.994V135.994C28.9462 135.994 19.311 138.234 12.0658 142.976L14.8038 147.16ZM40.7305 140.994C52.4371 140.994 61.2299 143.078 67.3719 146.969L70.0477 142.746C62.7961 138.152 52.936 135.994 40.7305 135.994V140.994ZM67.3719 146.969C73.3495 150.756 76.2551 156.027 76.2551 163.055H81.2553C81.2553 154.304 77.4633 147.444 70.0477 142.746L67.3719 146.969ZM76.2551 163.055C76.2551 170.212 73.3428 175.656 67.3732 179.647L70.1517 183.803C77.5053 178.888 81.2553 171.886 81.2553 163.055H76.2551ZM67.3807 179.642C61.2798 183.687 52.6078 185.852 41.0986 185.852V190.852C53.151 190.852 62.9215 188.598 70.1441 183.809L67.3807 179.642ZM41.0986 185.852C29.4456 185.852 20.7549 183.651 14.7366 179.553L11.9227 183.686C19.0876 188.565 28.9096 190.852 41.0986 190.852V185.852ZM14.739 179.555C8.76215 175.475 5.88965 170.114 5.88965 163.265H0.889648C0.889648 171.844 4.64385 178.718 11.9203 183.685L14.739 179.555ZM67.4757 163.265C67.4757 161.248 66.8536 159.404 65.5735 157.858C64.3278 156.353 62.5807 155.275 60.5443 154.509L58.7835 159.189C60.2884 159.755 61.1971 160.412 61.7221 161.046C62.2126 161.639 62.4757 162.336 62.4757 163.265H67.4757ZM60.5368 154.506C56.4854 152.997 49.362 152.35 39.5734 152.35V157.35C49.4195 157.35 55.6899 158.036 58.7911 159.191L60.5368 154.506ZM39.5734 152.35C31.3861 152.35 25.1961 153.002 21.3503 154.524L23.1905 159.173C26.0766 158.031 31.422 157.35 39.5734 157.35V152.35ZM21.3794 154.513C19.3859 155.273 17.6816 156.369 16.4752 157.912C15.2445 159.485 14.6689 161.349 14.6689 163.37H19.6689C19.6689 162.341 19.9436 161.593 20.4134 160.992C20.9075 160.361 21.7539 159.721 23.1614 159.184L21.3794 154.513ZM14.6689 163.37C14.6689 165.359 15.2363 167.194 16.4276 168.762C17.5956 170.298 19.2489 171.429 21.1951 172.248L23.1354 167.64C21.7507 167.057 20.9058 166.391 20.4084 165.736C19.9342 165.112 19.6689 164.362 19.6689 163.37H14.6689ZM21.2072 172.253C23.193 173.077 25.9434 173.62 29.2952 173.969C32.6902 174.323 36.8771 174.495 41.8349 174.495V169.495C36.9754 169.495 32.9754 169.326 29.8138 168.996C26.609 168.662 24.4333 168.179 23.1233 167.635L21.2072 172.253ZM41.8349 174.495C50.1126 174.495 56.4309 173.822 60.4967 172.282L58.7261 167.606C55.5691 168.802 50.0363 169.495 41.8349 169.495V174.495ZM60.524 172.272C62.5832 171.464 64.3383 170.339 65.5838 168.788C66.8596 167.2 67.4757 165.318 67.4757 163.265H62.4757C62.4757 164.263 62.1978 165.019 61.6855 165.657C61.1429 166.333 60.2157 167.022 58.6986 167.617L60.524 172.272ZM62.8195 79.2746V76.7746H60.3195V79.2746H62.8195ZM77.8083 79.2746H80.3083V76.7746H77.8083V79.2746ZM77.8083 127.817V130.317H80.3083V127.817H77.8083ZM75.7573 127.817L74.1728 129.751L74.8639 130.317H75.7573V127.817ZM55.1409 112.566L53.7225 114.624L53.7243 114.625L55.1409 112.566ZM19.746 102.31L21.4339 104.154L21.4423 104.146L21.4507 104.139L19.746 102.31ZM25.7941 126.871V129.371H31.6209L27.6059 125.148L25.7941 126.871ZM10.3845 126.871L8.28725 128.231L9.02635 129.371H10.3845V126.871ZM8.96445 89.2672L10.8243 90.9379L10.8312 90.9301L8.96445 89.2672ZM62.8195 102.941L61.2702 104.903L65.3195 108.1V102.941H62.8195ZM62.8195 81.7746H77.8083V76.7746H62.8195V81.7746ZM75.3084 79.2746V127.817H80.3083V79.2746H75.3084ZM77.8083 125.317H75.7573V130.317H77.8083V125.317ZM77.3418 125.884C71.8355 121.372 64.9024 116.245 56.5576 110.506L53.7243 114.625C61.9988 120.316 68.81 125.357 74.1728 129.751L77.3418 125.884ZM56.5594 110.507C48.2306 104.768 42.116 101.001 38.3521 99.3823L36.377 103.975C39.6254 105.372 45.3618 108.863 53.7225 114.624L56.5594 110.507ZM38.3521 99.3823C34.5828 97.7613 30.8464 96.9173 27.1615 96.9173V101.917C30.0684 101.917 33.1339 102.581 36.377 103.975L38.3521 99.3823ZM27.1615 96.9173C23.6654 96.9173 20.5812 98.1143 18.0413 100.481L21.4507 104.139C23.048 102.65 24.9075 101.917 27.1615 101.917V96.9173ZM18.0581 100.466C15.4947 102.812 14.143 105.768 14.143 109.2H19.143C19.143 107.231 19.86 105.595 21.4339 104.154L18.0581 100.466ZM14.143 109.2C14.143 115.513 17.7107 121.997 23.9824 128.593L27.6059 125.148C21.6761 118.912 19.143 113.615 19.143 109.2H14.143ZM25.7941 124.371H10.3845V129.371H25.7941V124.371ZM12.4817 125.51C8.00035 118.603 5.88965 112.216 5.88965 106.307H0.889648C0.889648 113.441 3.44215 120.764 8.28725 128.231L12.4817 125.51ZM5.88965 106.307C5.88965 99.5123 7.63095 94.4929 10.8243 90.9379L7.10465 87.5966C2.86505 92.3162 0.889648 98.6573 0.889648 106.307H5.88965ZM10.8312 90.9301C13.9954 87.3779 18.3693 85.5087 24.2689 85.5087V80.5087C17.1957 80.5087 11.3666 82.8118 7.09775 87.6044L10.8312 90.9301ZM24.2689 85.5087C28.1289 85.5087 33.1425 86.9713 39.4113 90.2126C45.6448 93.4356 52.9268 98.3153 61.2702 104.903L64.3687 100.979C55.8824 94.2786 48.3245 89.1923 41.7078 85.7711C35.1264 82.3682 29.2796 80.5087 24.2689 80.5087V85.5087ZM65.3195 102.941V79.2746H60.3195V102.941H65.3195ZM46.1475 52.3471V54.8471H48.5495L48.6455 52.447L46.1475 52.3471ZM33.2097 52.3471H30.7097V54.8471H33.2097V52.3471ZM30.6327 45.0367L28.797 46.7339L28.8051 46.7426L28.8132 46.7512L30.6327 45.0367ZM19.5356 66.1264V68.6264H23.5417L21.7813 65.0278L19.5356 66.1264ZM6.59785 66.1264L4.30855 67.1311L4.96485 68.6264H6.59785V66.1264ZM8.43855 32.3619L10.4154 33.8923L10.423 33.8823L8.43855 32.3619ZM38.3638 36.7271L36.1739 37.9331L38.7462 42.6037L40.6915 37.6391L38.3638 36.7271ZM72.9174 30.9419L74.8484 29.3541L74.8413 29.3456L72.9174 30.9419ZM74.6003 67.9672V70.4672H76.1409L76.8335 69.0909L74.6003 67.9672ZM60.3476 67.9672L58.3019 66.53L55.536 70.4672H60.3476V67.9672ZM63.5033 44.1426L65.4212 42.5391L65.4136 42.5299L65.4057 42.5208L63.5033 44.1426ZM49.2505 44.0375L51.0646 45.7577L51.0719 45.7499L51.0792 45.7421L49.2505 44.0375ZM46.1475 49.8471H33.2097V54.8471H46.1475V49.8471ZM35.7097 52.3471C35.7097 48.8058 34.6983 45.7059 32.4521 43.3222L28.8132 46.7512C30.0031 48.014 30.7097 49.7876 30.7097 52.3471H35.7097ZM32.4683 43.3396C30.3098 41.0048 27.6073 39.7493 24.4793 39.7493V44.7493C26.1197 44.7493 27.5195 45.3521 28.797 46.7339L32.4683 43.3396ZM24.4793 39.7493C21.2469 39.7493 18.5151 41.0896 16.4467 43.6076L20.3104 46.7813C21.4677 45.3724 22.8031 44.7493 24.4793 44.7493V39.7493ZM16.4467 43.6076C14.4008 46.0984 13.4593 49.1814 13.4593 52.6627H18.4593C18.4593 50.1133 19.1306 48.2175 20.3104 46.7813L16.4467 43.6076ZM13.4593 52.6627C13.4593 57.248 14.79 62.115 17.2899 67.225L21.7813 65.0278C19.5127 60.3906 18.4593 56.2818 18.4593 52.6627H13.4593ZM19.5356 63.6264H6.59785V68.6264H19.5356V63.6264ZM8.88705 65.1218C6.91065 60.6181 5.88965 55.3779 5.88965 49.3493H0.889648C0.889648 55.943 2.00745 61.8875 4.30855 67.1311L8.88705 65.1218ZM5.88965 49.3493C5.88965 42.7749 7.47085 37.6958 10.4154 33.8923L6.46175 30.8314C2.67455 35.7233 0.889648 41.9691 0.889648 49.3493H5.88965ZM10.423 33.8823C13.2999 30.1272 16.8907 28.3404 21.3763 28.3404V23.3404C15.2733 23.3404 10.2389 25.9012 6.45405 30.8415L10.423 33.8823ZM21.3763 28.3404C27.6571 28.3404 32.5467 31.3468 36.1739 37.9331L40.5537 35.521C36.1868 27.5917 29.7514 23.3404 21.3763 23.3404V28.3404ZM40.6915 37.6391C42.2303 33.7118 44.3667 30.9373 47.0177 29.1281C49.6686 27.319 53.0295 26.3418 57.2446 26.3418V21.3418C52.2384 21.3418 47.8419 22.5122 44.1992 24.9982C40.5567 27.484 37.8632 31.1521 36.0361 35.815L40.6915 37.6391ZM57.2446 26.3418C63.0737 26.3418 67.5731 28.4157 70.9932 32.5381L74.8413 29.3456C70.4075 24.0013 64.4586 21.3418 57.2446 21.3418V26.3418ZM70.9862 32.5296C74.4124 36.6966 76.2551 42.4251 76.2551 49.9804H81.2553C81.2553 41.6177 79.2064 34.6538 74.8484 29.3541L70.9862 32.5296ZM76.2551 49.9804C76.2551 56.0977 74.9523 61.7057 72.3671 66.8434L76.8335 69.0909C79.7884 63.2192 81.2553 56.836 81.2553 49.9804H76.2551ZM74.6003 65.4672H60.3476V70.4672H74.6003V65.4672ZM62.3932 69.4043C66.4638 63.6101 68.6854 57.9418 68.6854 52.4523H63.6854C63.6854 56.5698 62.0151 61.2447 58.3019 66.53L62.3932 69.4043ZM68.6854 52.4523C68.6854 48.5988 67.6631 45.2205 65.4212 42.5391L61.5853 45.7462C62.9197 47.3423 63.6854 49.5038 63.6854 52.4523H68.6854ZM65.4057 42.5208C63.0951 39.8103 60.0436 38.4345 56.4557 38.4345V43.4345C58.618 43.4345 60.2648 44.1975 61.6006 45.7645L65.4057 42.5208ZM56.4557 38.4345C52.9002 38.4345 49.832 39.7474 47.4218 42.3328L51.0792 45.7421C52.5259 44.1902 54.261 43.4345 56.4557 43.4345V38.4345ZM47.4365 42.3172C44.9941 44.8928 43.8078 48.2938 43.6496 52.2472L48.6455 52.447C48.7679 49.3881 49.6501 47.2493 51.0646 45.7577L47.4365 42.3172Z" fill="white"/>
<path d="M131.465 17.8047L131.255 249.835" stroke="white" stroke-width="2" stroke-miterlimit="10" stroke-linecap="round"/>
<path d="M291.363 53.1698C307.898 53.1698 317.311 55.9681 327.995 58.7664C333.337 60.2927 338.679 61.0559 341.986 61.0559C343.767 61.0559 346.565 63.8542 347.074 66.6525C348.601 73.521 352.162 86.4949 352.162 96.6705C352.162 100.486 349.618 106.592 345.802 106.592C343.258 106.592 341.478 105.829 337.662 98.96C334.355 92.8546 331.811 85.9861 325.451 80.3895C312.223 68.6876 296.705 66.9069 289.836 66.9069C254.476 66.9069 242.011 100.486 242.011 130.25C242.011 172.224 265.924 201.479 295.179 201.479C297.468 201.479 303.828 199.953 306.626 197.918C309.17 196.137 310.188 187.488 310.188 181.637C310.188 171.97 309.933 162.557 309.679 159.25C309.17 154.163 308.153 149.838 298.74 147.548C290.091 145.513 286.784 142.969 286.784 139.154C286.784 136.864 289.582 133.303 297.214 133.303C304.337 133.303 311.714 134.575 320.109 134.575C327.741 134.575 352.671 133.303 357.759 133.303C364.882 133.303 367.171 136.101 367.171 139.154C367.171 142.715 362.338 145.513 359.031 146.785C350.127 149.838 350.636 154.163 350.381 157.724C349.873 163.575 349.873 155.18 349.873 178.33C349.873 181.637 350.127 185.198 350.636 189.268C350.89 191.049 351.399 193.593 351.399 196.646C351.399 197.409 348.346 201.225 347.837 201.479C344.785 203.769 338.425 207.076 327.741 210.128C317.819 212.927 305.354 215.471 292.889 215.471C251.169 215.471 227.511 203.006 211.23 183.163C199.782 169.172 195.458 150.601 195.458 134.066C195.458 106.592 207.16 87.5124 227.257 72.249C241.757 61.0559 268.213 53.1698 291.363 53.1698ZM524.992 98.1968C524.992 107.864 520.159 118.802 513.545 124.399C509.729 127.706 506.167 128.469 500.825 131.522C499.553 132.285 500.825 137.118 501.588 138.645C507.185 149.838 518.632 168.663 528.299 180.874C537.203 192.067 545.089 196.391 552.975 199.444C555.519 200.462 558.826 202.751 558.826 205.041C558.826 211.655 550.686 213.69 543.817 213.69C523.466 213.69 503.878 211.655 486.071 188.505C476.912 176.549 470.044 163.829 462.921 152.382C458.851 145.768 455.289 144.496 451.219 144.496C449.438 144.496 449.184 147.548 449.184 148.312C449.184 168.663 449.184 174.768 449.947 183.672C450.71 192.83 453.254 193.084 463.43 197.918C468.009 200.207 471.061 203.006 471.061 205.041C471.061 207.839 465.719 211.4 461.395 211.4C455.035 211.4 435.447 210.383 426.543 210.383C418.657 210.383 406.701 211.4 397.288 211.4C391.183 211.4 387.622 208.348 387.622 205.804C387.622 202.242 391.183 199.698 396.016 198.426C406.446 195.374 408.99 193.339 409.499 180.619C409.754 171.461 409.754 166.882 409.754 121.092C409.754 89.8019 408.99 88.2756 408.482 82.9334C407.973 77.8456 405.683 72.7578 396.016 70.9771C391.183 69.9595 388.13 66.1437 388.13 64.363C388.13 60.0383 393.218 57.7488 399.324 57.7488C412.297 57.7488 416.622 58.2576 419.929 58.2576C436.719 58.2576 450.71 56.7312 468.518 56.7312C490.904 56.7312 502.606 61.5647 508.711 66.1437C519.65 74.5385 524.992 84.7141 524.992 98.1968ZM485.816 102.521C485.816 86.4949 474.877 70.7227 456.561 70.7227C455.544 70.7227 451.728 71.7403 450.202 72.7578C449.438 73.2666 448.675 74.5385 448.675 76.8281C448.675 83.951 449.184 107.609 449.184 124.653C449.184 125.671 450.202 128.724 451.219 129.232C454.781 130.759 458.088 131.522 462.412 131.522C468.009 131.522 477.167 125.671 478.693 124.653C480.22 123.636 485.816 114.732 485.816 102.521ZM663.967 53.1698C668.546 53.1698 670.072 60.8015 676.686 77.8456C690.423 114.732 711.283 164.084 718.152 179.602C724.511 193.847 728.073 194.102 737.994 198.172C743.845 200.716 745.88 204.532 745.88 207.33C745.88 210.383 741.81 211.655 736.977 211.655C729.09 211.655 709.248 210.383 696.783 210.383C685.844 210.383 678.976 211.655 669.818 211.655C662.695 211.655 660.405 208.602 660.405 206.821C660.405 203.769 663.458 200.207 668.291 198.172C677.195 194.356 677.195 188.76 675.923 184.435C673.633 178.075 673.379 176.803 670.072 169.172C669.818 168.408 667.528 165.61 663.458 165.101C659.133 164.593 627.334 164.084 621.484 165.356C619.957 165.61 617.922 168.154 617.413 169.172C615.378 174.259 613.343 183.926 613.343 187.233C613.343 191.812 616.65 195.628 624.791 198.426C628.352 199.698 632.168 201.734 632.168 205.041C632.168 206.313 628.606 211.146 621.992 211.146C618.94 211.146 613.343 210.383 605.203 210.383C595.79 210.383 585.36 211.655 574.676 211.655C569.079 211.655 565.263 209.111 565.263 206.058C565.263 203.514 567.298 200.97 572.895 198.681C582.307 194.865 587.395 194.102 595.536 177.058C601.895 163.575 619.957 117.785 635.221 77.5912C635.475 76.8281 635.984 75.0473 635.984 72.249C635.984 71.2315 637.256 69.4507 638.273 68.6876C641.58 66.6525 654.3 58.2576 657.098 55.9681C658.624 54.4417 662.695 53.1698 663.967 53.1698ZM658.879 148.057C660.151 148.057 661.677 145.768 661.423 145.005C657.607 132.539 646.923 105.32 644.633 101.249C643.615 99.4688 642.089 100.232 641.326 101.249C637.256 109.644 626.317 140.934 625.554 144.75C625.299 146.277 626.571 148.312 628.352 148.312C631.659 148.312 655.317 148.312 658.879 148.057ZM753.407 61.0559C753.407 59.2751 755.442 56.7312 760.021 56.7312C770.196 56.7312 790.548 58.7664 806.828 58.7664C809.118 58.7664 812.679 60.5471 813.443 61.5647C817.767 67.4156 825.653 75.8105 837.864 89.0388C851.347 103.539 891.795 146.277 897.391 149.329C898.154 149.584 900.19 149.075 900.444 148.312C901.97 141.443 901.97 117.022 901.207 99.4688C900.444 82.1703 901.716 75.5561 881.874 70.9771C875.768 69.4507 873.479 65.1261 873.479 63.5998C873.479 61.819 876.277 58.0032 882.382 58.0032C891.54 58.0032 891.032 58.2576 897.646 58.2576C908.076 58.2576 927.409 56.9856 932.497 56.9856C937.839 56.9856 941.401 58.512 941.401 62.8366C941.401 65.6349 939.366 67.4156 931.225 70.9771C920.795 75.5561 919.269 78.3544 919.014 81.6615C918.506 93.3634 916.471 145.768 916.471 162.812C916.471 174.005 917.488 185.198 917.488 196.9C917.488 207.585 915.453 215.471 910.874 215.471C902.734 215.471 896.119 210.892 891.286 205.295C881.874 194.611 869.917 180.619 862.794 172.733C853.127 161.54 813.443 119.311 802.249 107.1C801.486 106.337 799.706 107.864 799.706 108.881C799.451 114.478 798.942 115.241 798.942 126.18C798.942 137.627 799.451 160.522 799.706 167.391C800.469 187.233 803.776 193.339 812.679 196.9C821.329 200.207 824.127 203.006 824.127 206.567C824.127 209.62 821.329 211.4 815.478 211.4C808.355 211.4 799.706 210.383 787.749 210.383C775.793 210.383 769.433 211.4 766.126 211.4C758.494 211.4 755.95 208.602 755.95 206.058C755.95 202.751 759.003 200.462 763.582 198.935C775.284 195.119 779.863 194.356 781.135 177.312C782.407 160.268 784.442 99.4688 784.442 91.3283C784.442 89.8019 783.17 84.4598 779.863 80.6439C774.521 74.5385 769.942 71.4859 764.091 70.2139C758.24 68.942 753.407 65.8893 753.407 61.0559ZM1009.08 58.2576H1086.93C1101.17 58.2576 1107.53 56.4769 1108.55 55.2049C1111.6 51.3891 1114.4 49.0996 1116.18 49.0996C1117.71 49.0996 1124.32 53.1698 1124.32 57.24C1124.32 59.0208 1121.27 75.0473 1121.27 92.0915C1121.27 97.1793 1117.45 102.776 1112.62 102.776C1109.06 102.776 1107.02 96.4161 1106.52 94.1266C1102.7 77.3368 1098.38 76.8281 1089.22 75.8105C1085.4 75.3017 1084.64 74.5385 1063.02 74.5385C1061.74 74.5385 1060.98 76.5737 1060.73 79.1176C1060.47 82.679 1058.94 117.022 1058.94 133.048C1058.94 148.566 1058.69 165.356 1059.45 174.514C1060.98 193.084 1065.3 193.847 1075.73 197.663C1080.31 199.444 1084.64 201.734 1084.64 204.786C1084.64 210.383 1078.53 211.655 1073.45 211.655C1070.9 211.655 1042.92 210.383 1027.65 210.383C1020.28 210.383 1006.54 211.146 999.672 211.146C994.33 211.146 989.242 208.856 989.242 204.277C989.242 202.242 991.786 198.681 997.637 197.155C1013.41 192.83 1017.73 189.523 1017.73 175.531C1017.73 170.189 1018.24 136.355 1018.24 119.82C1018.24 104.048 1018.5 87.258 1018.5 79.372C1018.5 77.3368 1015.95 74.5385 1015.19 74.5385C1008.83 74.5385 999.418 74.5385 992.803 74.7929C985.681 75.0473 978.812 75.0473 971.943 94.1266C970.417 98.4512 967.364 101.758 964.566 101.758C961.259 101.758 957.443 97.1793 957.443 91.0739C957.443 83.1878 960.242 71.7403 960.242 57.7488C960.242 53.4242 964.057 49.6083 967.11 49.6083C967.873 49.6083 970.926 51.1347 972.707 52.4066C977.031 55.9681 980.847 57.4944 988.224 57.7488C998.654 58.2576 1000.94 58.2576 1009.08 58.2576ZM1206.78 53.4242C1221.02 53.4242 1234.51 58.0032 1244.43 60.2927C1245.95 60.5471 1247.73 64.6173 1247.73 67.4156C1247.73 70.4683 1249.51 84.4598 1249.51 88.2756C1249.51 96.9249 1245.44 100.486 1241.88 100.486C1239.08 100.486 1236.8 96.1617 1236.03 94.1266C1230.44 78.8632 1217.21 65.1261 1202.71 65.1261C1192.02 65.1261 1182.36 75.0473 1182.36 84.7141C1182.36 96.1617 1190.75 104.557 1205.25 111.934C1237.3 128.215 1256.13 142.461 1256.13 166.628C1256.13 187.488 1241.88 199.19 1232.73 204.786C1222.8 210.637 1206.01 214.962 1194.31 214.962C1172.69 214.962 1160.22 210.383 1154.37 208.093C1152.59 207.33 1148.52 205.041 1147.25 202.242C1142.93 193.084 1142.16 179.856 1142.16 173.751C1142.16 168.917 1144.71 162.812 1148.78 162.812C1151.57 162.812 1154.88 165.865 1158.44 172.479C1167.86 189.777 1181.85 202.242 1197.62 202.242C1206.78 202.242 1218.22 195.883 1218.22 184.181C1218.22 176.549 1218.73 168.154 1192.79 154.163C1159.46 136.355 1146.49 122.618 1146.49 98.96C1146.49 82.4246 1158.19 68.942 1170.4 62.0734C1180.07 56.7312 1192.28 53.4242 1206.78 53.4242Z" fill="white"/>
</svg>
