<svg width="403" height="113" viewBox="0 0 403 113" fill="none" xmlns="http://www.w3.org/2000/svg">
<path d="M237.63 21.2207C240.627 21.2207 243.498 21.2207 246.369 21.2207C246.711 21.2207 246.877 21.2969 246.825 21.6634C246.816 21.7853 246.816 21.9078 246.825 22.0298C246.825 32.8098 246.831 43.5889 246.845 54.367C246.845 55.1409 246.62 55.2758 245.915 55.2611C243.653 55.2171 241.39 55.2259 239.124 55.2611C238.566 55.2611 238.396 55.138 238.402 54.5517C238.428 50.4476 238.402 46.3582 238.428 42.26C238.428 41.6942 238.3 41.533 237.718 41.5359C233.625 41.5633 229.532 41.5633 225.439 41.5359C224.805 41.5359 224.585 41.6532 224.591 42.3538C224.629 46.4022 224.591 50.4506 224.623 54.4989C224.623 55.1028 224.48 55.2728 223.866 55.2641C221.627 55.223 219.385 55.223 217.142 55.2641C216.44 55.2641 216.212 55.1497 216.215 54.3846C216.247 44.5055 216.215 34.6293 216.247 24.7531C216.247 23.6919 216.247 22.6659 215.607 21.7542C215.329 21.3556 215.452 21.2295 215.923 21.2324C218.648 21.2324 221.375 21.2559 224.109 21.2324C224.647 21.2324 224.615 21.4904 224.612 21.8539C224.612 25.9023 224.612 29.9507 224.594 33.9991C224.594 34.6205 224.778 34.7524 225.366 34.7495C229.482 34.7222 233.597 34.7222 237.709 34.7495C238.294 34.7495 238.428 34.5941 238.422 34.0284C238.397 30.663 238.397 27.2967 238.422 23.9294C238.464 23.2993 238.318 22.6711 238.004 22.1236C237.857 21.8327 237.732 21.5308 237.63 21.2207Z" fill="#242424"/>
<path d="M312.943 21.2207C316.092 21.2207 318.986 21.2207 321.881 21.2207C322.246 21.2207 322.319 21.3468 322.316 21.6839C322.296 28.6813 322.407 35.6817 322.223 42.6763C322.111 46.8741 320.451 50.5092 316.916 53.0449C314.808 54.5576 312.417 55.3432 309.853 55.6451C306.979 55.9823 304.123 55.8943 301.349 55.0266C296.042 53.3674 293.028 49.7147 292.169 44.2358C291.968 42.839 291.878 41.4284 291.9 40.0174C291.9 34.7407 291.9 29.4347 291.9 24.1434C291.952 23.3688 291.768 22.5966 291.371 21.9301C291.205 21.7345 291.114 21.4862 291.113 21.2295C294.037 21.2295 296.96 21.2295 299.866 21.2295C300.159 21.2295 300.264 21.3233 300.235 21.6077C300.235 21.7748 300.235 21.9477 300.235 22.1177C300.235 28.5318 300.235 34.9449 300.235 41.3571C300.21 42.5254 300.42 43.6867 300.852 44.7723C301.729 46.8595 303.296 48.1259 305.529 48.4747C308.105 48.8763 310.499 48.4894 312.312 46.4227C313.531 45.0449 313.931 43.3505 313.937 41.5564C313.937 38.0181 313.937 34.4827 313.937 30.9474V25.3776C313.967 23.9734 314.159 22.534 312.943 21.2207Z" fill="#242424"/>
<path d="M375.673 21.3467H382.397C388.654 21.3467 394.913 21.3467 401.169 21.3467C401.754 21.3467 401.944 21.4669 401.93 22.0913C401.88 23.8941 401.892 25.7029 401.93 27.5057C401.93 28.0187 401.807 28.1477 401.295 28.1448C396.082 28.1243 390.873 28.1448 385.66 28.1155C385.017 28.1155 384.85 28.265 384.868 28.9128C384.918 30.6923 384.909 32.4717 384.868 34.254C384.868 34.8403 385.011 34.9927 385.599 34.9898C389.955 34.9634 394.314 34.9898 398.673 34.9546C399.345 34.9546 399.462 35.1481 399.445 35.7608C399.404 37.3936 399.389 39.0294 399.445 40.6622C399.471 41.3746 399.219 41.4684 398.597 41.4655C394.264 41.4391 389.928 41.4655 385.596 41.4391C385.052 41.4391 384.844 41.5358 384.859 42.1426C384.906 43.9953 384.915 45.851 384.859 47.7125C384.836 48.4072 385.084 48.4835 385.681 48.4805C390.841 48.46 396.004 48.4805 401.175 48.4541C401.76 48.4541 401.956 48.5567 401.938 49.1899C401.889 51.0192 401.903 52.8484 401.938 54.6777C401.938 55.1702 401.795 55.264 401.33 55.264C393.294 55.2483 385.259 55.2483 377.223 55.264C376.612 55.264 376.58 55.0207 376.58 54.537C376.58 44.4145 376.58 34.2892 376.612 24.1668C376.612 23.1202 376.188 22.3023 375.673 21.3467Z" fill="#242424"/>
<path d="M353.621 26.4533C353.621 27.453 353.604 28.4555 353.621 29.4523C353.621 29.9506 353.548 30.0796 353.037 29.889C350.83 29.0665 348.551 28.4512 346.231 28.051C343.892 27.6582 341.553 27.3914 339.214 27.9631C338.045 28.2562 336.943 28.6959 336.34 29.8597C336.182 30.1476 336.082 30.4639 336.046 30.7906C336.009 31.1173 336.038 31.448 336.129 31.7636C336.221 32.0793 336.374 32.3737 336.579 32.63C336.784 32.8864 337.038 33.0995 337.326 33.2573C338.857 34.2013 340.582 34.4768 342.296 34.77C344.886 35.2097 347.435 35.7579 349.783 37.0096C352.999 38.7304 354.788 41.3893 354.82 45.0683C354.852 48.5421 353.428 51.3329 350.496 53.2559C348.26 54.7217 345.742 55.3813 343.105 55.6158C338.135 56.0584 333.329 55.2523 328.59 53.8422C328.492 53.8288 328.397 53.7955 328.312 53.7444C328.226 53.6933 328.152 53.6255 328.094 53.545C328.036 53.4645 327.994 53.373 327.972 53.276C327.949 53.1789 327.947 53.0784 327.964 52.9804C328.003 51.026 328.003 49.0717 327.964 47.1174C327.964 46.5076 328.108 46.408 328.643 46.619C331.402 47.6962 334.286 48.4201 337.226 48.7737C339.375 49.0463 341.527 49.187 343.658 48.5685C345.441 48.0467 346.453 46.7627 346.257 45.2149C346.122 44.1331 345.406 43.5117 344.503 43.0485C342.842 42.1866 341.021 41.8759 339.208 41.5534C336.349 41.0463 333.56 40.3427 331.151 38.6219C330.095 37.9029 329.219 36.9488 328.591 35.8341C327.963 34.7195 327.6 33.4744 327.532 32.1961C327.175 27.2478 330.058 23.7505 334.481 22.0766C337.404 20.9685 340.454 20.7428 343.558 20.904C346.836 21.0734 350.079 21.6645 353.206 22.6629C353.589 22.7802 353.615 23.0001 353.612 23.3137C353.618 24.3573 353.621 25.4039 353.621 26.4533Z" fill="#242424"/>
<path d="M186.58 21.2207C189.608 21.2207 192.427 21.2383 195.254 21.2207C195.821 21.2207 195.917 21.3819 195.914 21.9067C195.897 30.4637 195.914 39.0207 195.888 47.5777C195.888 48.2373 196.04 48.419 196.713 48.4132C201.507 48.3809 206.302 48.4132 211.096 48.3839C211.661 48.3839 211.833 48.5128 211.821 49.0991C211.78 50.9518 211.795 52.8045 211.821 54.669C211.821 55.0676 211.739 55.2142 211.307 55.2113C203.511 55.1996 195.722 55.1996 187.942 55.2113C187.378 55.2113 187.457 54.9181 187.457 54.5693C187.457 50.6939 187.457 46.8175 187.457 42.9401C187.457 37.038 187.457 31.1379 187.457 25.2398C187.457 23.862 187.612 22.4871 186.58 21.2207Z" fill="#242424"/>
<path d="M360.1 21.3467H367.727C369.244 21.3467 369.244 21.3467 369.244 22.8447C369.244 33.4215 369.244 43.9993 369.244 54.578C369.244 55.1643 369.125 55.3519 368.502 55.3402C366.192 55.2962 363.88 55.3021 361.567 55.3402C360.983 55.3402 360.848 55.2024 360.851 54.6249C360.868 44.3882 360.851 34.1485 360.892 23.9117C360.921 22.9443 360.442 22.2291 360.1 21.3467Z" fill="#242424"/>
<path d="M170.041 84.4009V83.4862C170.041 76.9256 170.041 70.3649 170.041 63.8042C170.041 63.2033 170.167 62.9952 170.787 63.0479C171.491 63.111 172.199 63.111 172.903 63.0479C173.55 62.9893 173.643 63.2443 173.637 63.8218C173.611 67.5536 173.637 71.2854 173.637 75.0172C173.637 79.945 173.637 84.8699 173.637 89.7977C173.637 90.3371 173.526 90.5247 172.965 90.4837C172.14 90.4221 171.176 90.7094 170.524 90.3664C169.872 90.0235 169.53 89.0971 169.062 88.417C164.838 82.1749 160.614 75.9338 156.388 69.6936C156.242 69.4767 156.076 69.2744 155.886 69.0223C155.78 69.2512 155.749 69.5077 155.798 69.7552C155.798 76.3891 155.798 83.0231 155.798 89.657C155.798 90.3225 155.62 90.4896 154.994 90.4427C154.265 90.4016 153.533 90.4016 152.804 90.4427C152.427 90.4573 152.255 90.3342 152.295 89.9472C152.295 89.827 152.295 89.7039 152.295 89.5808C152.295 80.9974 152.295 72.4121 152.295 63.8248C152.295 63.2385 152.398 63.004 153.035 63.0567C153.912 63.1329 154.924 62.8398 155.617 63.2033C156.309 63.5668 156.611 64.5371 157.078 65.2553L170.041 84.4009Z" fill="#242424"/>
<path d="M301.275 83.1338C302.372 83.1338 303.465 83.1338 304.559 83.1338C304.652 83.1185 304.748 83.1406 304.825 83.1955C304.902 83.2504 304.954 83.3335 304.971 83.4269C305.766 86.0858 307.783 87.273 310.309 87.7421C312.481 88.1437 314.604 87.9209 316.574 86.8069C317.975 86.0184 318.802 84.8663 318.758 83.2188C318.714 81.5713 317.808 80.4222 316.419 79.6365C314.706 78.675 312.762 78.5167 310.914 78.033C309.508 77.6636 308.076 77.4174 306.696 76.9249C301.743 75.166 301.039 69.8014 303.304 66.568C304.825 64.3957 307.006 63.2466 309.558 62.842C312.11 62.4375 314.613 62.5811 316.986 63.6394C319.699 64.8472 321.5 66.823 321.878 69.8981C321.948 70.4668 321.79 70.6662 321.196 70.6281C320.372 70.5724 319.542 70.6105 318.711 70.6281C318.448 70.6281 318.258 70.6075 318.217 70.2587C317.925 67.7318 316.212 66.2983 313.788 65.8615C311.724 65.4892 309.751 65.6768 307.921 66.7849C307.178 67.211 306.588 67.8612 306.236 68.6427C305.883 69.4243 305.785 70.2975 305.956 71.1381C306.213 72.4896 307.146 73.2517 308.353 73.7384C310.166 74.4712 312.084 74.7996 313.966 75.2627C315.279 75.5881 316.624 75.8168 317.875 76.3708C321.129 77.8161 322.418 80.5277 322.199 83.9693C322 87.0561 320.094 88.9997 317.387 89.9495C313.408 91.3478 309.374 91.2687 305.541 89.2694C303.375 88.129 301.518 85.8454 301.275 83.1338Z" fill="#242424"/>
<path d="M238.568 76.7672C238.568 72.4521 238.568 68.134 238.568 63.8189C238.568 63.2326 238.653 63.042 239.296 63.045C244.58 63.0762 249.863 63.0762 255.145 63.045C255.729 63.045 255.899 63.2003 255.852 63.7661C255.804 64.3514 255.804 64.9397 255.852 65.525C255.893 66.0321 255.738 66.1699 255.221 66.167C251.277 66.1435 247.327 66.167 243.386 66.167C242.15 66.167 242.15 66.167 242.15 67.4334C242.15 69.7786 242.164 72.1238 242.15 74.469C242.15 74.9732 242.27 75.1197 242.787 75.1168C246.465 75.0934 250.14 75.1168 253.817 75.0875C254.452 75.0875 254.607 75.2663 254.548 75.8556C254.496 76.3652 254.496 76.879 254.548 77.3887C254.61 78.0014 254.455 78.2037 253.779 78.1978C250.154 78.1568 246.526 78.1978 242.898 78.1626C242.281 78.1626 242.138 78.318 242.144 78.9248C242.182 81.5338 242.176 84.1429 242.144 86.7519C242.144 87.2708 242.287 87.3939 242.793 87.3909C247.052 87.3704 251.315 87.3909 255.575 87.3646C256.159 87.3646 256.326 87.517 256.279 88.0857C256.235 88.7182 256.235 89.3529 256.279 89.9853C256.302 90.4162 256.142 90.5013 255.741 90.4983C250.216 90.4866 244.689 90.4866 239.162 90.4983C238.656 90.4983 238.577 90.3283 238.577 89.8798C238.574 85.5001 238.568 81.1352 238.568 76.7672Z" fill="#242424"/>
<path d="M118.257 72.9735C118.257 69.9013 118.274 66.8174 118.239 63.754C118.239 63.1677 118.418 63.0182 118.97 63.0505C119.723 63.1032 120.48 63.1032 121.233 63.0505C121.818 63.0065 121.9 63.2234 121.897 63.7452C121.879 69.573 121.879 75.4018 121.897 81.2315C121.888 82.3011 122.067 83.3638 122.426 84.3712C123.01 85.9864 124.206 86.9274 125.788 87.4082C127.238 87.839 128.776 87.8774 130.246 87.5196C132.717 86.9567 134.234 85.2418 134.52 82.7119C134.589 82.083 134.624 81.4509 134.626 80.8182C134.626 75.137 134.626 69.4548 134.626 63.7716C134.626 63.2029 134.76 63.0094 135.339 63.0534C136.044 63.1047 136.751 63.1047 137.456 63.0534C138.005 63.0123 138.137 63.1824 138.137 63.7306C138.113 69.2027 138.113 74.666 138.137 80.1205C138.137 81.255 138.26 82.3777 138.096 83.521C137.511 87.4873 134.839 90.1315 130.866 90.6211C128.825 90.9134 126.749 90.8569 124.727 90.454C121.329 89.7123 119.379 87.5489 118.637 84.2011C118.388 82.9634 118.272 81.7025 118.292 80.44C118.245 77.9483 118.257 75.4594 118.257 72.9735Z" fill="#242424"/>
<path d="M216.289 86.4464C217.595 82.7732 218.864 79.2115 220.133 75.6497C221.564 71.6277 222.991 67.6038 224.416 63.5779C224.447 63.4125 224.54 63.2654 224.676 63.1672C224.812 63.0689 224.981 63.027 225.147 63.0502C226.094 63.0883 227.044 63.0502 228.07 63.0502C227.486 64.6625 226.957 66.2133 226.407 67.7611C223.801 75.1582 221.19 82.5465 218.575 89.9261C218.426 90.3482 218.262 90.4948 217.818 90.4801C216.797 90.4479 215.771 90.4449 214.751 90.4801C214.28 90.4977 214.102 90.3335 213.947 89.8938C212.137 84.6523 210.295 79.4226 208.468 74.1869C207.243 70.6691 206.045 67.166 204.796 63.6687C204.609 63.1469 204.688 63.0414 205.211 63.0649C205.99 63.1089 206.771 63.1089 207.55 63.0649C208.018 63.0326 208.176 63.2583 208.301 63.6248C209.529 67.1816 210.759 70.7356 211.991 74.2866C213.355 78.2265 214.72 82.1674 216.084 86.1093C216.145 86.2261 216.213 86.3387 216.289 86.4464Z" fill="#242424"/>
<path d="M363.634 78.4147C363.634 82.2256 363.634 86.0219 363.634 89.824C363.634 90.3195 363.541 90.5159 363.006 90.4836C362.204 90.4367 361.399 90.4367 360.597 90.4836C360.088 90.5129 360.012 90.3107 360.012 89.8592C360.03 86.0307 360.012 82.2022 360.012 78.3737C360.012 74.5451 360.012 70.7518 360.027 66.9643C360.027 66.4191 359.901 66.2783 359.352 66.2871C356.846 66.3194 354.338 66.2871 351.832 66.3135C351.326 66.3135 351.157 66.1992 351.192 65.6774C351.228 64.9714 351.228 64.2639 351.192 63.5579C351.192 63.1944 351.259 63.0537 351.666 63.0537C358.261 63.0654 364.857 63.0654 371.452 63.0537C371.826 63.0537 371.967 63.1504 371.949 63.5433C371.908 64.2736 371.908 65.0057 371.949 65.736C371.99 66.2783 371.733 66.3077 371.312 66.3047C368.949 66.2901 366.587 66.3047 364.228 66.2842C363.711 66.2842 363.591 66.422 363.594 66.9291C363.634 70.7577 363.634 74.5862 363.634 78.4147Z" fill="#242424"/>
<path d="M380.816 63.0625C382.02 63.0625 383.114 63.0801 384.207 63.0625C384.337 63.0553 384.466 63.0902 384.574 63.162C384.683 63.2338 384.765 63.3387 384.809 63.4612C386.174 65.8064 387.538 68.1516 388.902 70.4968C389.873 72.1707 390.841 73.8475 391.881 75.6416C392.738 74.1348 393.542 72.7101 394.343 71.3117C395.844 68.6695 397.34 66.0253 398.831 63.3791C398.933 63.2003 399.009 63.0538 399.255 63.0567C400.424 63.0567 401.57 63.0567 402.824 63.0567L397.825 71.558C396.457 73.8856 395.097 76.2161 393.732 78.5379C393.618 78.7796 393.574 79.049 393.606 79.3147C393.606 82.7768 393.589 86.2418 393.606 89.7039C393.606 90.2902 393.522 90.5306 392.875 90.4719C392.171 90.4162 391.463 90.4162 390.759 90.4719C390.233 90.5071 390.066 90.3811 390.072 89.8094C390.104 86.3972 390.072 82.982 390.098 79.5697C390.104 79.0394 389.958 78.5185 389.677 78.0688C386.777 73.183 383.885 68.2972 381 63.4114C380.956 63.3528 380.918 63.2677 380.816 63.0625Z" fill="#242424"/>
<path d="M335.715 76.7723C335.715 72.4572 335.735 68.142 335.697 63.8298C335.697 63.1526 335.89 63.009 336.501 63.0588C337.157 63.1086 337.816 63.1086 338.472 63.0588C339.024 63.0207 339.214 63.1673 339.206 63.7653C339.17 66.6968 339.206 69.6136 339.206 72.5392C339.206 78.2674 339.206 83.9955 339.206 89.7236C339.206 90.3099 339.103 90.5532 338.466 90.5004C337.761 90.4462 337.054 90.4462 336.349 90.5004C335.841 90.5327 335.703 90.3803 335.706 89.8643C335.729 86.4755 335.706 83.0867 335.706 79.6979L335.715 76.7723Z" fill="#252524"/>
<path d="M189.1 76.7579C189.1 72.4223 189.1 68.0837 189.1 63.748C189.1 63.2203 189.193 63.0093 189.766 63.0562C190.47 63.1148 191.177 63.1148 191.88 63.0562C192.465 63.0093 192.584 63.2233 192.584 63.7802C192.564 71.3816 192.584 78.9829 192.584 86.5872C192.584 87.6836 192.564 88.7799 192.584 89.8763C192.584 90.3248 192.508 90.53 192 90.4978C191.246 90.4509 190.49 90.4509 189.737 90.4978C189.214 90.53 189.1 90.3424 189.103 89.8441C189.12 85.482 189.1 81.12 189.1 76.7579Z" fill="#252524"/>
<path d="M100.607 0.879446C100.607 0.149506 100.4 0.0146574 99.7155 0.0146574C83.4023 0.036155 67.089 0.0410408 50.7757 0.0293149C34.4136 0.0195432 18.0555 0.00977162 1.70128 0C1.06102 0 0.824219 0.105533 0.824219 0.817885C0.847607 13.7731 0.847607 26.7254 0.824219 39.6747C0.84785 45.0206 1.71214 50.3293 3.38523 55.4051C6.37893 64.7477 11.308 73.0702 17.2252 80.8269C23.5871 89.1053 30.771 96.7144 38.6664 103.537C42.3383 106.741 46.0834 109.857 50.0272 112.727C50.5622 113.117 50.9043 113.07 51.4042 112.707C55.6342 109.66 59.6961 106.384 63.5719 102.895C69.7556 97.415 75.5077 91.464 80.7769 85.0952C86.4252 78.2414 91.3923 70.9596 95.1198 62.8628C98.7794 55.0515 100.654 46.5196 100.607 37.8895C100.534 25.5479 100.581 13.2063 100.607 0.879446ZM88.9862 62.7338C84.8669 71.027 79.4233 78.3997 73.3044 85.3063C69.4277 89.6874 65.3088 93.8469 60.9671 97.7651C57.7804 100.635 54.5353 103.426 51.1265 106.047C50.7523 106.34 50.5155 106.34 50.1354 106.047C43.0977 100.565 36.5013 94.5373 30.4074 88.0179C26.2032 83.5744 22.3326 78.8251 18.8273 73.809C14.059 66.9669 10.1795 59.6821 7.94009 51.5942C6.84087 47.6737 6.28023 43.6212 6.27368 39.5487C6.25906 28.4999 6.27368 17.4482 6.25029 6.39943C6.25029 5.65777 6.47833 5.54051 7.14781 5.54051C21.6427 5.56005 36.1317 5.56982 50.6149 5.56982C65.098 5.56982 79.5627 5.56494 94.0088 5.55517C94.7222 5.55517 94.9414 5.69295 94.9385 6.45806C94.9093 16.8971 94.7719 27.342 94.9619 37.7781C95.1256 46.6517 92.892 54.8686 88.9862 62.7338Z" fill="#F8D648"/>
<path d="M148.644 32.9087C147.635 28.916 145.404 25.7969 141.811 23.7448C138.771 22.0035 135.438 21.3088 131.976 21.2648C127.299 21.2062 122.621 21.2384 117.958 21.2296C117.794 21.2296 117.631 21.2296 117.476 21.2502C117.403 21.5433 117.572 21.7045 117.672 21.8863C118.043 22.6205 118.219 23.4383 118.183 24.2608C118.163 34.3539 118.183 44.447 118.16 54.5401C118.16 55.0971 118.28 55.2671 118.864 55.2642C123.001 55.2349 127.138 55.2495 131.278 55.2466C133.435 55.2744 135.586 55.0021 137.669 54.4375C143.337 52.8281 147.109 49.281 148.629 43.5207C149.543 40.0433 149.548 36.3885 148.644 32.9087ZM139.665 43.7845C138.443 46.4756 136.216 47.827 133.394 48.2785C131.272 48.6156 129.126 48.384 126.989 48.4485C126.469 48.4661 126.629 48.1026 126.626 47.8622C126.626 44.9131 126.626 41.964 126.626 39.015V38.285C126.626 35.1395 126.626 31.994 126.626 28.8515C126.626 28.315 126.708 28.0893 127.322 28.1128C129.41 28.189 131.512 27.9633 133.584 28.315C137.321 28.9541 139.624 31.1498 140.423 34.8816C141.06 37.9186 140.969 40.9116 139.665 43.7845Z" fill="#242424"/>
<path d="M269.497 20.7671C259.557 20.6997 251.795 27.7059 251.807 38.1244C251.745 48.3436 259.115 55.5257 268.906 55.7133C279.416 55.9156 286.886 48.6221 286.953 38.3267C287.018 28.175 279.729 20.8374 269.497 20.7671ZM276.563 44.8053C273.639 49.3637 266.722 49.9324 263.062 45.931C261.057 43.7382 260.355 41.1145 260.302 38.2124C260.355 35.0258 261.197 32.1442 263.732 29.9807C265.626 28.3626 267.857 27.7939 270.298 28.0342C274.835 28.4798 277.63 31.8129 278.235 36.3626C278.63 39.338 278.232 42.2138 276.56 44.7994L276.563 44.8053Z" fill="#242424"/>
<path d="M183.884 54.7246C183.591 53.9829 183.325 53.2266 183.045 52.4762C180.628 46.0816 178.209 39.6861 175.788 33.2896C174.35 29.4786 172.914 25.6677 171.479 21.8568C171.38 21.593 171.28 21.3408 170.895 21.3438C167.661 21.3614 164.428 21.3438 161.153 21.3438C161.282 21.9594 161.738 22.4196 161.446 23.1027C160.916 24.2929 160.522 25.5387 160.057 26.7582C158.19 31.6773 156.319 36.5953 154.444 41.5124C152.766 45.936 151.111 50.3655 149.424 54.7832C149.263 55.2054 149.266 55.3314 149.754 55.3285C152.288 55.3109 154.822 55.3109 157.356 55.3285C157.496 55.3486 157.638 55.3125 157.751 55.2279C157.864 55.1433 157.94 55.0172 157.961 54.877C158.613 52.8836 159.306 50.9019 159.978 48.9173C160.089 48.589 160.168 48.331 160.639 48.331C164.583 48.3574 168.532 48.3516 172.47 48.331C172.897 48.331 173.04 48.4835 173.172 48.8675C173.841 50.8169 174.555 52.7488 175.236 54.6953C175.353 55.0295 175.47 55.2318 175.879 55.2288C178.438 55.2132 180.995 55.2132 183.55 55.2288C183.957 55.2464 184.042 55.1116 183.884 54.7246ZM162.434 41.8261C163.831 37.8217 165.208 33.8642 166.647 29.7396L170.775 41.8261H162.434Z" fill="#242424"/>
<path d="M288.833 89.7332C287.219 86.0043 285.617 82.2696 283.962 78.5554C283.74 78.0541 283.851 77.9017 284.275 77.7199C285.455 77.2555 286.513 76.5265 287.368 75.5887C289.07 73.6041 289.327 71.256 288.894 68.8024C288.656 67.201 287.794 65.7599 286.497 64.795C284.816 63.5433 282.889 63.1417 280.89 63.1006C277.338 63.0273 273.783 63.086 270.231 63.0479C269.646 63.0479 269.532 63.2325 269.535 63.7749C269.552 70.7987 269.552 77.8216 269.535 84.8435C269.535 86.5232 269.555 88.2088 269.535 89.8885C269.535 90.384 269.681 90.5041 270.146 90.4748C270.875 90.4279 271.606 90.4279 272.335 90.4748C272.92 90.5217 273.049 90.3077 273.043 89.7478C273.02 86.23 273.043 82.7269 273.022 79.215C273.022 78.7577 273.11 78.5847 273.607 78.5935C275.673 78.6228 277.742 78.6228 279.814 78.5935C279.991 78.57 280.171 78.6104 280.321 78.7077C280.471 78.8049 280.581 78.9525 280.632 79.1241C282.153 82.7592 283.693 86.3854 285.211 90.0204C285.339 90.3312 285.48 90.4778 285.833 90.469C286.88 90.4484 287.927 90.469 289.087 90.469C288.991 90.1846 288.926 89.953 288.833 89.7332ZM274.888 75.6327C274.288 75.6532 273.499 75.9083 273.134 75.5213C272.768 75.1344 273.04 74.3487 273.031 73.7624C273.014 72.7393 273.031 71.7104 273.031 70.6902C273.031 69.2773 273.031 67.8643 273.031 66.4513C273.031 66.0086 273.096 65.8181 273.616 65.8269C275.955 65.865 278.294 65.8122 280.632 65.8767C282.354 65.9266 283.956 66.4806 284.848 68.0402C286.31 70.6082 285.725 74.7181 281.246 75.5125C279.118 75.8819 276.996 75.5653 274.888 75.6327Z" fill="#242424"/>
<path d="M56.5495 60.1331C55.3245 62.2966 54.7486 64.5802 54.2867 66.9312C54.0353 68.1947 54.4358 68.9452 55.3304 69.7396C57.9634 72.1404 61.1126 73.9009 64.5337 74.8844C65.0043 75.0133 65.0424 75.1541 64.9137 75.5645C64.7159 76.211 64.3832 76.808 63.9377 77.3158C63.4922 77.8236 62.9441 78.2306 62.3298 78.5098C61.7154 78.789 61.0489 78.934 60.3744 78.9351C59.6999 78.9363 59.0329 78.7935 58.4176 78.5165C56.6826 77.7142 55.0445 76.7159 53.5353 75.541C53.4944 76.6814 53.4476 77.681 53.4301 78.6777C53.4301 78.8917 53.6844 78.9562 53.8335 79.0705C55.3405 80.2239 56.998 81.1649 58.7597 81.8672C59.1778 82.0284 59.2888 82.1808 59.1602 82.6469C58.3709 85.4582 56.1519 86.5751 53.4272 85.4934C53.3017 85.4551 53.1737 85.4257 53.0442 85.4055C53.0442 86.9064 53.0442 88.3663 53.0442 89.8291C53.0442 91.3798 51.8748 92.1508 50.91 93.0537C50.7288 93.2267 50.6177 93.0039 50.4861 92.9071C49.153 91.8577 48.311 90.603 48.4893 88.7825C48.6004 87.6568 48.5098 86.5106 48.5098 85.3146C46.7761 86.2204 45.1916 86.194 43.7211 84.9276C42.9434 84.2593 42.6277 83.3446 42.3675 82.3978C42.2534 81.9903 42.5721 81.9698 42.806 81.8789C44.5391 81.1738 46.1789 80.2572 47.6883 79.1497C47.8675 79.0515 48.0122 78.9003 48.1027 78.7167C48.1932 78.5331 48.2251 78.3261 48.1941 78.1237C48.1005 77.3263 48.08 76.5201 48.0274 75.6847C47.7 75.6524 47.5158 75.9133 47.3024 76.0687C46.0392 76.9771 44.699 77.7726 43.2971 78.4461C40.397 79.8444 37.1577 78.1823 36.5555 74.9987C40.582 73.9772 44.2423 71.8445 47.1211 68.8426C47.2267 68.7643 47.3119 68.6615 47.3694 68.5431C47.4269 68.4247 47.4551 68.2941 47.4515 68.1625C47.2878 65.8847 46.1944 62.1705 45.0337 60.1126C44.6069 60.567 44.2034 61.0126 43.7824 61.4406C43.2983 61.9129 42.7192 62.2762 42.0839 62.5063C41.4485 62.7364 40.7716 62.8281 40.0982 62.7751C39.4247 62.7221 38.7703 62.5257 38.1786 62.199C37.5868 61.8724 37.0714 61.4229 36.6666 60.8807C36.4502 60.5875 36.3742 60.4204 36.7689 60.1624C38.2475 59.1279 39.5749 57.8916 40.7127 56.4893C41.2653 55.8297 41.1863 55.2053 40.587 54.6131C40.391 54.3926 40.1192 54.2545 39.826 54.2262C39.5328 54.1979 39.2397 54.2817 39.0054 54.4607C37.9295 55.1232 36.8566 55.7916 35.7603 56.416C35.1465 56.7787 34.4587 56.9971 33.7486 57.0548C33.0385 57.1124 32.3246 57.0077 31.6607 56.7487C30.9967 56.4896 30.4001 56.0829 29.9156 55.5591C29.4311 55.0353 29.0715 54.4082 28.8637 53.7249C28.7438 53.3145 28.811 53.1972 29.2203 53.08C31.2007 52.4959 33.0856 51.6259 34.816 50.4973C35.6287 49.9697 35.8889 49.3101 35.5264 48.6857C35.1259 47.9938 34.4184 47.8414 33.5706 48.2401C31.7024 49.1195 29.8021 49.914 27.744 50.2335C25.3671 50.6029 22.6979 48.3339 22.6044 45.9183C22.5752 45.2265 23.0605 45.4053 23.3733 45.376C25.9881 45.1346 28.5402 44.4341 30.9131 43.3064C31.8311 42.8725 32.1585 42.2481 31.8661 41.5475C31.5445 40.7824 31.0212 40.4922 30.2377 40.7472C28.1913 41.4127 26.0775 41.6823 23.9551 41.9608C20.3942 42.4269 18.2922 39.6391 18.4004 37.0916C18.4354 36.2122 18.4413 36.1829 19.3417 36.2913C22.3457 36.6245 25.3857 36.3656 28.2907 35.5292C28.6063 35.4696 28.9054 35.3427 29.1677 35.1569C29.6647 34.7494 29.8314 34.2452 29.5536 33.6677C29.4498 33.403 29.252 33.1863 28.9983 33.0591C28.7446 32.9319 28.453 32.9033 28.1796 32.9788C25.9736 33.4871 23.7188 33.7515 21.4554 33.7673C18.8681 33.7439 17.1725 32.6211 16.4591 30.5134C16.1787 29.6795 16.1282 28.7852 16.313 27.9249C16.3919 27.5291 16.5264 27.4969 16.8977 27.579C20.3307 28.3444 23.8938 28.3033 27.3084 27.4588C28.4193 27.1861 28.7994 26.1015 28.0626 25.3129C27.7089 24.9318 27.2674 24.9025 26.788 24.9817C24.5127 25.3946 22.1978 25.5451 19.8884 25.4302C18.0086 25.3159 16.5176 24.5801 15.5733 22.8945C14.9791 21.8233 14.8139 20.5655 15.1114 19.3767C15.2049 18.9487 15.3687 18.9047 15.7429 19.019C19.5435 20.1652 23.3645 20.1154 27.1914 19.1627C28.3629 18.8493 29.5069 18.4405 30.6119 17.9402C32.5707 17.096 34.5382 16.2781 36.4824 15.4016C37.9442 14.742 39.4264 15.5892 39.3738 17.3393C39.2861 20.388 39.3328 23.4368 39.3533 26.4855C39.3855 30.9003 41.7652 34.336 45.8757 35.9425C46.1537 36.0857 46.4483 36.194 46.7528 36.265C47.8286 36.3969 48.4689 37.0271 48.884 37.977C49.0516 38.3283 49.2471 38.6655 49.4687 38.9854C50.1411 40.029 51.5152 40.0495 52.0677 38.9385C52.7811 37.4727 53.7605 36.6255 55.3772 36.0744C58.9526 34.8549 61.2447 32.2899 61.9697 28.4789C62.0929 27.7332 62.1448 26.9773 62.1247 26.2217C62.1247 23.2228 62.2007 20.218 62.1013 17.222C62.037 15.3869 63.6595 14.7244 65.0073 15.3312C67.7554 16.5654 70.4684 17.8816 73.3276 18.7962C77.2395 20.0634 81.437 20.147 85.396 19.0366C86.273 18.7933 86.3169 18.805 86.4484 19.7079C86.8811 22.6746 84.9721 25.0403 82.0105 25.3247C79.6108 25.5201 77.1956 25.383 74.8333 24.9172C73.9328 24.7559 73.2575 25.1429 73.0791 25.9285C72.9271 26.6409 73.3276 27.1392 74.2486 27.3943C77.5356 28.2371 80.9723 28.3073 84.2909 27.5995C85.1679 27.4295 85.1679 27.4177 85.2732 28.2942C85.6123 31.2697 83.4811 33.653 80.4581 33.7351C78.1007 33.7687 75.747 33.5356 73.4417 33.0403C72.6874 32.8908 72.0471 33.2074 71.8688 33.8318C71.6612 34.5559 72.0413 35.1891 72.8482 35.4353C75.9223 36.3972 79.1671 36.6832 82.3613 36.2738C82.8817 36.2034 83.025 36.3441 83.0835 36.8131C83.4197 39.5248 81.151 42.0898 78.4204 42.0107C76.0413 41.9067 73.6843 41.5059 71.404 40.8176C70.5444 40.5655 69.8983 40.8527 69.6118 41.5739C69.3575 42.2188 69.6849 42.9165 70.4509 43.2829C72.8336 44.4488 75.4105 45.1633 78.0521 45.3907C78.9291 45.464 79.0168 45.5754 78.8385 46.4607C78.7154 47.0973 78.4628 47.7017 78.0965 48.2362C77.7303 48.7706 77.2581 49.2237 76.7096 49.5673C76.161 49.9108 75.5478 50.1373 74.9081 50.2328C74.2684 50.3282 73.616 50.2905 72.9914 50.1221C71.4811 49.7476 70.012 49.2222 68.6061 48.5538C68.3664 48.4365 68.1325 48.3075 67.887 48.202C67.0976 47.8561 66.3609 48.0671 65.9954 48.7355C65.6592 49.3482 65.8726 49.9697 66.6181 50.4563C68.3333 51.6124 70.2129 52.5019 72.1933 53.0946C72.778 53.2588 72.8043 53.4581 72.626 53.9477C71.6554 56.6593 68.6675 57.8583 65.9925 56.5714C64.8586 56.0137 63.7705 55.3668 62.7386 54.6366C62.0194 54.1353 61.3646 54.1998 60.7886 54.8125C60.2682 55.3665 60.2975 55.9059 60.9026 56.6183C62.0069 57.956 63.2851 59.1392 64.7032 60.1361C65.1593 60.4497 65.1154 60.6491 64.8085 61.0155C64.3901 61.5487 63.8629 61.986 63.2623 62.2984C62.6617 62.6107 62.0014 62.7908 61.3258 62.8266C60.6501 62.8624 59.9747 62.7531 59.3446 62.506C58.7145 62.2589 58.1443 61.8796 57.6721 61.3937C57.3125 61.0038 56.9559 60.5934 56.5495 60.1331Z" fill="#242424"/>
<path d="M59.783 14.9502C59.5668 15.31 59.2553 15.6028 58.8832 15.7958C58.5111 15.9888 58.0929 16.0746 57.6751 16.0436C55.0702 16.0436 52.4654 16.0436 49.8605 16.0436C48.8607 16.0436 47.9281 16.287 47.396 17.1664C47.2786 17.4141 47.0826 17.6157 46.8388 17.7399C46.5949 17.864 46.3169 17.9035 46.0482 17.8524C45.7563 17.8302 45.4631 17.8302 45.1712 17.8524C43.7503 17.9257 42.3997 18.9312 42.0868 20.3002C41.736 21.8421 41.9757 23.4163 41.9027 25.1869C43.3937 22.9766 45.4518 23.9205 47.3024 23.6508C46.6709 26.2188 46.0658 28.6813 45.4664 31.1437C45.2852 31.8854 45.5395 32.1932 46.2996 32.1991C47.4106 32.1991 48.311 31.73 49.1559 30.8858C49.5535 31.988 49.9161 32.9906 50.2698 33.9961C50.3517 34.2247 50.3867 34.5179 50.6908 34.5149C50.9948 34.512 51.0445 34.2218 51.1264 34.0019C51.486 33.0081 51.8427 32.0144 52.2373 30.9151C53.0121 31.6685 53.8453 32.158 54.8919 32.1903C55.8362 32.2196 56.035 32.0583 55.9239 31.1203C55.6588 28.9021 55.3782 26.684 55.0819 24.4658C55.0118 23.9381 54.9942 23.6508 55.6988 23.5864C56.2405 23.5561 56.7617 23.3684 57.1988 23.0462C57.6359 22.724 57.97 22.2812 58.1604 21.7718C58.5346 20.734 59.1018 19.8223 59.5491 18.8403C60.0782 17.6853 59.7274 16.3866 59.783 14.9502ZM50.72 19.8458C50.0739 20.1594 49.7436 19.6201 49.3986 19.239C49.0536 18.8579 49.2904 18.4592 49.5652 18.1455C49.8897 17.7761 50.2669 17.4009 50.8019 17.7761C51.3369 18.1514 51.9713 18.3449 52.5063 18.8432C51.8719 19.1921 51.3047 19.5497 50.7083 19.8428L50.72 19.8458Z" fill="#242424"/>
</svg>
