<?xml version="1.0" encoding="UTF-8" standalone="no"?>
<!-- Created with Inkscape (http://www.inkscape.org/) -->
<svg xmlns:dc="http://purl.org/dc/elements/1.1/" xmlns:cc="http://creativecommons.org/ns#" xmlns:rdf="http://www.w3.org/1999/02/22-rdf-syntax-ns#" xmlns:svg="http://www.w3.org/2000/svg" xmlns="http://www.w3.org/2000/svg" xmlns:sodipodi="http://sodipodi.sourceforge.net/DTD/sodipodi-0.dtd" xmlns:inkscape="http://www.inkscape.org/namespaces/inkscape" width="665" height="455" id="svg3260" version="1.1" inkscape:version="0.48.4 r9939" sodipodi:docname="Neues Dokument 4">
  <defs id="defs3262">
    <clipPath clipPathUnits="userSpaceOnUse" id="clipPath3017">
      <path inkscape:connector-curvature="0" d="m 65.197,714.776 116.608,0 0,78.925 -116.608,0 0,-78.925 z" id="path3019"/>
    </clipPath>
    <clipPath clipPathUnits="userSpaceOnUse" id="clipPath3035">
      <path inkscape:connector-curvature="0" d="m 65.197,711.285 123.818,0 0,82.416 -123.818,0 0,-82.416 z" id="path3037"/>
    </clipPath>
  </defs>
  <sodipodi:namedview id="base" pagecolor="#ffffff" bordercolor="#666666" borderopacity="1.0" inkscape:pageopacity="0.0" inkscape:pageshadow="2" inkscape:zoom="0.5" inkscape:cx="180" inkscape:cy="382" inkscape:current-layer="layer1" inkscape:document-units="px" showgrid="false" inkscape:window-width="1389" inkscape:window-height="617" inkscape:window-x="200" inkscape:window-y="200" inkscape:window-maximized="0"/>
  <metadata id="metadata3265">
    <rdf:RDF>
      <cc:Work rdf:about="">
        <dc:format>image/svg+xml</dc:format>
        <dc:type rdf:resource="http://purl.org/dc/dcmitype/StillImage"/>
        <dc:title/>
      </cc:Work>
    </rdf:RDF>
  </metadata>
  <g id="layer1" inkscape:label="Layer 1" inkscape:groupmode="layer" transform="translate(0,-313)">
    <g transform="matrix(5.625,0,0,-5.625,-360.69089,4782.5925)" id="g3165">
      <g id="g3013">
        <g clip-path="url(#clipPath3017)" id="g3015">
          <g transform="matrix(0.462616,0,0,-0.4472046,123.50076,775.06116)" id="g3021">
            <g transform="translate(99.5662,-9.4281)" id="g3023">
              <path inkscape:connector-curvature="0" id="path3025" style="fill:#205da9;fill-opacity:1;fill-rule:nonzero;stroke:none" d="m 0,0 c 27.372,41.185 28.423,88.994 1.061,110.304 -24.226,18.868 -63.14,11.06 -94.803,-16.394 -2.656,0.525 -5.359,0.939 -8.108,1.224 -8.928,0.928 -17.67,0.481 -26.012,-1.153 37.26,47.529 95.264,64.307 129.747,37.448 C 35.525,105.231 34.381,47.169 0,0 m -9.482,84.701 c 4.373,-3.407 7.479,-8.063 9.373,-13.63 -1.702,3.254 -3.967,6.05 -6.819,8.27 -11.406,8.884 -29.412,6.472 -47.352,-4.468 -2.103,1.793 -4.301,3.49 -6.584,5.082 19.606,11.763 39.067,14.335 51.382,4.746 m 8.194,20.068 c 26.313,-20.494 22.19,-69.793 -9.21,-110.109 -8.408,-10.795 -17.919,-19.836 -27.845,-26.913 0.196,0.298 0.402,0.589 0.595,0.889 7.684,6.057 15.026,13.389 21.639,21.881 29.317,37.643 33.255,83.6 8.798,102.648 -16.881,13.147 -42.875,10.035 -67,-5.527 -3.068,1.406 -6.241,2.643 -9.507,3.696 28.556,23.059 61.859,29.534 82.53,13.435"/>
            </g>
          </g>
        </g>
      </g>
      <g transform="matrix(0.462616,0,0,-0.4472046,123.50076,775.06116)" id="g3027">
        <path inkscape:connector-curvature="0" id="path3029" style="fill:#a0a2a4;fill-opacity:1;fill-rule:nonzero;stroke:none" d="m -125.976,-8.705 7.35,0 0,49.005 -7.35,0 0,-49.005 z"/>
      </g>
      <g id="g3031">
        <g clip-path="url(#clipPath3035)" id="g3033">
          <g transform="matrix(0.462616,0,0,-0.4472046,123.50076,775.06116)" id="g3039">
            <g transform="translate(-79.9839,10.8273)" id="g3041">
              <path inkscape:connector-curvature="0" id="path3043" style="fill:#a0a2a4;fill-opacity:1;fill-rule:nonzero;stroke:none" d="m 0,0 c -1.19,-3.501 -3.15,-9.171 -3.71,-11.272 -0.561,2.101 -2.311,7.701 -3.57,11.341 l -3.921,11.202 15.122,0 L 0,0 z m 10.291,29.473 -4.13,-11.621 -19.602,0 -4.061,11.621 -7.631,0 17.643,-49.005 7.77,0 17.852,49.005 -7.841,0 z"/>
            </g>
          </g>
          <g transform="matrix(0.462616,0,0,-0.4472046,123.50076,775.06116)" id="g3045">
            <g transform="translate(-34.8345,41.0705)" id="g3047">
              <path inkscape:connector-curvature="0" id="path3049" style="fill:#a0a2a4;fill-opacity:1;fill-rule:nonzero;stroke:none" d="m 0,0 c -7.141,0 -13.302,-3.081 -17.432,-7.911 l 5.25,-5.111 c 3.291,3.571 8.121,5.811 12.742,5.811 6.861,0 10.151,-2.381 10.151,-7.141 0,-3.781 -2.87,-5.671 -11.061,-8.121 -10.361,-3.08 -15.332,-5.671 -15.332,-14.422 0,-8.47 7.141,-13.651 16.172,-13.651 6.651,0 11.692,2.45 16.032,6.651 l -5.181,5.25 c -3.08,-3.15 -6.58,-4.69 -11.411,-4.69 -5.74,0 -8.191,2.8 -8.191,6.091 0,3.429 2.241,5.11 10.711,7.631 9.662,2.94 15.682,6.02 15.682,14.771 C 18.132,-6.022 12.532,0 0,0"/>
            </g>
          </g>
          <g transform="matrix(0.462616,0,0,-0.4472046,123.50076,775.06116)" id="g3051">
            <g transform="translate(11.4342,41.0705)" id="g3053">
              <path inkscape:connector-curvature="0" id="path3055" style="fill:#a0a2a4;fill-opacity:1;fill-rule:nonzero;stroke:none" d="m 0,0 c -7.141,0 -13.302,-3.081 -17.432,-7.911 l 5.25,-5.111 c 3.291,3.571 8.121,5.811 12.741,5.811 6.862,0 10.152,-2.381 10.152,-7.141 0,-3.781 -2.87,-5.671 -11.062,-8.121 -10.36,-3.08 -15.331,-5.671 -15.331,-14.422 0,-8.47 7.141,-13.651 16.172,-13.651 6.65,0 11.692,2.45 16.031,6.651 l -5.18,5.25 c -3.08,-3.15 -6.58,-4.69 -11.411,-4.69 -5.741,0 -8.191,2.8 -8.191,6.091 0,3.429 2.24,5.11 10.711,7.631 9.661,2.94 15.682,6.02 15.682,14.771 C 18.132,-6.022 12.531,0 0,0"/>
            </g>
          </g>
          <g transform="matrix(0.462616,0,0,-0.4472046,123.50076,775.06116)" id="g3057">
            <g transform="translate(-119.5679,50.297)" id="g3059">
              <path inkscape:connector-curvature="0" id="path3061" style="fill:#a0a2a4;fill-opacity:1;fill-rule:nonzero;stroke:none" d="m 0,0 -4.516,0 0,7.061 4.266,0 C 2.42,7.061 3.692,5.838 3.692,3.518 3.692,1.273 2.395,0 0,0 m -0.274,8.832 -4.242,0 0,6.86 -1.946,0 0,-17.464 6.537,0 c 3.168,0 5.564,1.672 5.564,5.214 0,3.468 -2.42,5.39 -5.913,5.39"/>
            </g>
          </g>
          <g transform="matrix(0.462616,0,0,-0.4472046,123.50076,775.06116)" id="g3063">
            <g transform="translate(-96.686,50.0226)" id="g3065">
              <path inkscape:connector-curvature="0" id="path3067" style="fill:#a0a2a4;fill-opacity:1;fill-rule:nonzero;stroke:none" d="m 0,0 c -3.019,0 -5.238,2.819 -5.238,7.21 0,4.39 2.295,7.259 5.338,7.259 3.019,0 5.264,-2.819 5.264,-7.209 C 5.364,2.869 3.044,0 0,0 m 0.025,16.241 c -4.341,0 -7.21,-3.717 -7.21,-8.981 0,-5.264 2.919,-9.031 7.26,-9.031 4.341,0 7.235,3.717 7.235,8.981 0,5.263 -2.944,9.031 -7.285,9.031"/>
            </g>
          </g>
          <g transform="matrix(0.462616,0,0,-0.4472046,123.50076,775.06116)" id="g3069">
            <g transform="translate(-72.73,50.297)" id="g3071">
              <path inkscape:connector-curvature="0" id="path3073" style="fill:#a0a2a4;fill-opacity:1;fill-rule:nonzero;stroke:none" d="m 0,0 0,15.692 -1.946,0 0,-15.692 -5.139,0 0,-1.772 12.225,0 L 5.14,0 0,0 z"/>
            </g>
          </g>
          <g transform="matrix(0.462616,0,0,-0.4472046,123.50076,775.06116)" id="g3075">
            <g transform="translate(-52.1675,66.264)" id="g3077">
              <path inkscape:connector-curvature="0" id="path3079" style="fill:#a0a2a4;fill-opacity:1;fill-rule:nonzero;stroke:none" d="m 0,0 c -2.37,0 -4.491,-1.023 -5.863,-2.42 l 1.298,-1.447 c 1.321,1.272 2.843,2.095 4.639,2.095 2.321,0 3.768,-1.147 3.768,-2.993 0,-1.622 -0.974,-2.545 -4.167,-3.692 -3.767,-1.348 -5.039,-2.57 -5.039,-5.09 0,-2.794 2.195,-4.466 5.464,-4.466 2.344,0 3.841,0.698 5.313,1.871 l -1.247,1.523 c -1.272,-1.048 -2.445,-1.622 -4.191,-1.622 -2.395,0 -3.393,1.197 -3.393,2.569 0,1.447 0.649,2.27 4.141,3.517 3.867,1.398 5.064,2.696 5.064,5.29 C 5.787,-2.12 3.642,0 0,0"/>
            </g>
          </g>
          <g transform="matrix(0.462616,0,0,-0.4472046,123.50076,775.06116)" id="g3081">
            <g transform="translate(-30.3833,50.297)" id="g3083">
              <path inkscape:connector-curvature="0" id="path3085" style="fill:#a0a2a4;fill-opacity:1;fill-rule:nonzero;stroke:none" d="m 0,0 -2.52,0 0,13.921 2.57,0 c 3.767,0 6.112,-1.996 6.112,-7.011 C 6.162,2.445 4.017,0 0,0 m -0.199,15.692 -4.267,0 0,-17.464 4.615,0 c 4.591,0 7.959,2.621 7.959,8.608 0,6.337 -3.643,8.856 -8.307,8.856"/>
            </g>
          </g>
          <g transform="matrix(0.462616,0,0,-0.4472046,123.50076,775.06116)" id="g3087">
            <g transform="translate(-4.3818,54.0392)" id="g3089">
              <path inkscape:connector-curvature="0" id="path3091" style="fill:#a0a2a4;fill-opacity:1;fill-rule:nonzero;stroke:none" d="m 0,0 c -0.374,-1.147 -0.898,-2.72 -1.073,-3.442 -0.174,0.698 -0.673,2.269 -1.097,3.492 l -1.921,5.688 6.012,0 L 0,0 z M 4.017,11.95 2.52,7.51 l -7.21,0 -1.521,4.44 -1.997,0 6.063,-17.464 2.145,0 6.063,17.464 -2.046,0 z"/>
            </g>
          </g>
          <g transform="matrix(0.462616,0,0,-0.4472046,123.50076,775.06116)" id="g3093">
            <g transform="translate(25.9862,65.989)" id="g3095">
              <path inkscape:connector-curvature="0" id="path3097" style="fill:#a0a2a4;fill-opacity:1;fill-rule:nonzero;stroke:none" d="m 0,0 0,-11.825 0,-1.871 c -0.175,0.674 -0.674,1.971 -1.048,2.894 l -4.666,11.252 -4.59,-11.252 c -0.374,-0.898 -0.849,-2.22 -1.024,-2.894 l 0,1.871 0,11.825 -1.871,0 0,-17.464 2.171,0 4.116,10.454 c 0.424,1.048 1.048,2.67 1.248,3.393 0.224,-0.749 0.848,-2.37 1.248,-3.393 l 4.166,-10.454 2.121,0 L 1.871,0 0,0 z"/>
            </g>
          </g>
        </g>
      </g>
    </g>
  </g>
</svg>