<?xml version="1.0" encoding="UTF-8" standalone="no"?>
<svg
   width="80"
   height="80"
   viewBox="0 0 80 80"
   fill="none"
   version="1.1"
   id="svg39"
   sodipodi:docname="PAAaN.svg"
   inkscape:version="1.3 (0e150ed6c4, 2023-07-21)"
   xmlns:inkscape="http://www.inkscape.org/namespaces/inkscape"
   xmlns:sodipodi="http://sodipodi.sourceforge.net/DTD/sodipodi-0.dtd"
   xmlns="http://www.w3.org/2000/svg"
   xmlns:svg="http://www.w3.org/2000/svg">
  <defs
     id="defs39" />
  <sodipodi:namedview
     id="namedview39"
     pagecolor="#ffffff"
     bordercolor="#000000"
     borderopacity="0.25"
     inkscape:showpageshadow="2"
     inkscape:pageopacity="0.0"
     inkscape:pagecheckerboard="0"
     inkscape:deskcolor="#d1d1d1"
     inkscape:zoom="2.6396775"
     inkscape:cx="136.56971"
     inkscape:cy="19.131125"
     inkscape:window-width="1920"
     inkscape:window-height="1009"
     inkscape:window-x="1912"
     inkscape:window-y="-8"
     inkscape:window-maximized="1"
     inkscape:current-layer="svg39" />
  <g
     id="g39"
     transform="translate(7.5087037,1.1032191)">
    <path
       d="m 61.4241,28.0002 c -0.3,-2.3 -1,-4.5 -2,-6.5 -0.7,-1.4 -1.6,-2.7 -2.8,-3.7 -1.5,-1.3 -3.4,-2 -5.4,-2 -0.9,0 -1.8,0.1 -2.7,0.4 l 2.6,-5.6 0.3,-0.70002 -0.6,-0.3 -5.1,-3.6 -0.2,-0.2 h -4.3 c -0.9,-0.2 -1.8,-0.6 -2.5,-1.2 -2.4,-1.9 -5.3,-2.9 -8.4,-2.9 -3.1,-0.1 -6.1,0.9 -8.5,3 l -8.8,8.60002 -0.2,0.2 -5.09997,5 c -0.9,0.9 -1.6,1.9 -2.1,3.1 -1,2.1 -1.7,4.2 -2,6.5 -1,5.3 -0.8,10.7 0.5,15.9 1.5,5.5 4.1,10.6 7.59997,15.1 4.9,6.2 11.1,11.4 18.1,15.4 l 2.2,1.3 0.5,0.3 0.5,-0.3 2.2,-1.3 c 7,-4 13.1,-9.3 18.2,-15.5 3.5,-4.5 6.1,-9.6 7.6,-15.1 1.1,-5.2 1.3,-10.6 0.4,-15.9 z"
       fill="#ffffff"
       id="path1" />
    <path
       d="m 28.224,22.2002 h -7.9 l -0.7,11.9 c 0.4,0.1 0.9,0.2 1.3,0.4 z"
       fill="#000000"
       id="path2" />
    <path
       d="m 22.1244,49.2002 -0.1,1 0.4,0.2 c 0.8,0.3 1.6,0.5 2.5,0.4 0.9,0 1.8,-0.1 2.6,-0.5 v -1 c -0.8,0.4 -1.7,0.6 -2.6,0.6 -0.8,0 -1.7,-0.2 -2.5,-0.5 z"
       fill="#000000"
       id="path3" />
    <path
       d="m 22.4244,52.9002 -0.3,-0.2 h -0.1 v 1 l 0.4,0.2 c 0.8,0.3 1.6,0.5 2.5,0.4 0.7,0 1.4,-0.1 2,-0.3 v -0.9 c -0.6,0.2 -1.3,0.3 -2,0.3 -0.9,0.1 -1.8,-0.1 -2.5,-0.5 z"
       fill="#000000"
       id="path4" />
    <path
       d="m 22.4244,56.4002 -0.3,-0.2 h -0.1 v 1 l 0.4,0.2 c 0.8,0.3 1.6,0.4 2.4,0.4 0.4,0 0.8,0 1.2,-0.1 v -0.9 c -0.4,0.1 -0.8,0.1 -1.2,0.1 -0.8,0.1 -1.7,-0.1 -2.4,-0.5 z"
       fill="#000000"
       id="path5" />
    <path
       d="m 31.3241,5.80039 c 0.7,0.1 1.3,0.4 1.9,0.7 0.6,0.3 1.2,0.7 1.7,1.1 0.8,0.7 1.7,1.3 2.6,1.8 v -1.5 c -0.7,-0.4 -1.3,-0.8 -2,-1.2 -0.6,-0.4 -1.3,-0.7 -1.9,-1 -0.7,-0.3 -1.4,-0.5 -2.1,-0.6 -0.7,-0.1 -1.4,-0.1 -2.2,0 h -0.1 v 0.6 h 0.1 c 0.6,-0.1 1.3,0 2,0.1 z"
       fill="#000000"
       id="path6" />
    <path
       d="m 60.5243,28.1998 c -0.3,-2.2 -1,-4.3 -1.9,-6.3 -0.6,-1.3 -1.5,-2.5 -2.6,-3.4 -1.3,-1.1 -3.1,-1.8 -4.8,-1.8 -2.3,0 -4.5,0.9 -6.1,2.5 l -2.6,-2.8 0.4,-0.9 h 3.6 l -0.4,0.9 h 1.4 l 2.8,-6.1 -5.1,-3.60001 h -4 c -1.1,-0.2 -2.2,-0.7 -3,-1.4 -2.2,-1.8 -5,-2.8 -7.9,-2.8 -2.9,-0.2 -5.7,0.8 -7.9,2.7 l -9.1,8.90001 -5.09998,5 c -0.8,0.8 -1.5,1.8 -2,2.8 -0.9,2 -1.6,4.1 -1.9,6.3 -1,5.1 -0.8,10.4 0.5,15.5 1.5,5.4 4,10.4 7.49998,14.8 5,6.2 11.1,11.4 18,15.3 l 2.2,1.3 2.2,-1.3 c 6.9,-4 13,-9.2 18,-15.3 3.4,-4.4 5.9,-9.4 7.4,-14.8 1.2,-5.1 1.4,-10.4 0.4,-15.5 z m -37.3,-22.10001 c 0.6,-0.6 2.6,-2.4 7,-2.4 2.6,0 5.2,0.9 7.2,2.6 1.3,0.9 2.4,1.6 3.8,1.6 h 3.6 l 4,2.80001 -1.6,3.5 h -3.6 c -0.5,0 -1,-0.2 -1.4,-0.6 -0.5,-0.5 -0.8,-1.1 -0.9,-1.8 h -0.6 c 0,0.4 0,0.9 0.2,1.3 0.1,0.4 0.4,0.8 0.7,1.2 0.1,0.2 0.3,0.3 0.5,0.4 l -0.9,1.9 2.4,2.6 h -1.8 l -3.2,-2.7 h -0.7 l 2.3,2.7 h -4.7 l -2.7,-2.7 h -1.6 c 0.3,-0.7 0.5,-1.5 0.5,-2.3 0,-0.1 0,-0.3 0,-0.4 v -0.4 -0.2 -0.2 l -0.1,-0.4 c -0.1,-0.6 -0.3,-1.1 -0.6,-1.6 -0.3,-0.5 -0.6,-1.00001 -1,-1.40001 l -0.1,-0.1 -0.2,-0.1 -0.3,-0.3 c -0.2,-0.2 -0.5,-0.3 -0.7,-0.5 -1,-0.6 -1.9,-0.9 -2.8,-1 -0.2,0 -0.5,0 -0.8,0 v 0.6 c 1,0 2,0.3 2.8,0.9 0.2,0.1 0.4,0.3 0.6,0.4 l 0.3,0.3 0.1,0.1 0.1,0.1 c 0.3,0.40001 0.6,0.80001 0.8,1.20001 0.2,0.4 0.4,0.9 0.5,1.4 v 0.4 0.2 0.6 c 0,0.1 0,0.2 0,0.4 -0.1,1 -0.4,1.9 -1,2.6 l -0.7,1 h 3.4 l 1.5,1.5 h -14 v -5.2 h -4.5 z m -6.3,18.10001 c -0.5,1.9 -2.1,3.3 -4,3.5 h -0.5 c -2.4,0 -4.49998,-1.9 -4.69998,-4.3 0,-0.1 0,-0.2 0,-0.3 0,-1.3 0.5,-2.5 1.5,-3.4 l 4.49998,-4.4 h 4.5 v 4.4 z m 41.9,19.2 c -0.9,3.1 -2.1,6.2 -3.7,9 l -0.3,0.4 -0.2,0.3 -0.3,0.4 -0.2,0.5 -0.2,0.4 -0.5,0.7 -0.2,0.3 -0.4,0.5 -0.2,0.3 -0.4,0.5 -0.2,0.2 -0.6,0.8 -0.5,0.7 c -2.1,2.6 -4.5,5.1 -7.1,7.3 -2.1,1.8 -4.2,3.4 -6.5,4.9 -1.1,0.7 -2.3,1.5 -3.5,2.2 l -1.5,0.9 -1.5,-0.9 c -6.7,-3.9 -12.7,-9 -17.6,-15 l -0.4,-0.5 -0.2,-0.3 -0.4,-0.6 -0.2,-0.4 -0.5,-0.7 -0.1,-0.1 -0.5,-0.8 c -2.19998,-3.4 -3.89998,-7.1 -4.89998,-11 -1.2,-4.9 -1.4,-10 -0.5,-15 0.2,-1.5 0.6,-3 1.1,-4.4 0.1,0.9 0.5,1.8 1,2.5 -0.2,0.7 -0.3,1.4 -0.5,2.2 -0.2,1.2 -0.4,2.5 -0.4,3.7 l 8.19998,3.8 c 0.1,-0.2 0.3,-0.4 0.5,-0.6 0.1,-0.1 0.3,-0.3 0.4,-0.4 l -5,-6.5 c 0.9,0.2 1.8,0.3 2.7,0.1 l 3.4,5.6 c 0.4,-0.2 0.8,-0.3 1.3,-0.4 l -0.5,-8.4 c 0.2,-0.4 0.3,-0.7 0.4,-1.1 l 1.2,-4 v -0.1 h 26.4 l 0.2,-0.2 c 1.4,-1.5 3.3,-2.3 5.3,-2.2 1.5,0 2.9,0.5 4,1.5 1,0.8 1.7,1.9 2.3,3 0.9,1.9 1.5,3.9 1.8,5.9 0.9,5 0.7,10.1 -0.5,15 z"
       fill="#000000"
       id="path7" />
    <path
       d="m 45.0242,11.1002 c 0.3866,0 0.7,-0.3134 0.7,-0.7 0,-0.3866 -0.3134,-0.7 -0.7,-0.7 -0.3866,0 -0.7,0.3134 -0.7,0.7 0,0.3866 0.3134,0.7 0.7,0.7 z"
       fill="#000000"
       id="path8" />
    <path
       d="m 41.224,10.7996 c 0.1,-0.5 0.5,-0.89999 1,-0.99999 v -0.7 h -1.6 v 1.69999 z"
       fill="#000000"
       id="path9" />
    <path
       d="m 57.624,28.7002 c -0.7,-4.1 -2.4,-9 -6.4,-9 -1.9,-0.1 -3.7,0.9 -4.6,2.5 h -14.6 l -10,13 c 0.1,0.1 0.2,0.2 0.4,0.3 0.2,0.2 0.4,0.5 0.5,0.7 l 7.2,-3.3 -0.6,2.6 -6,1.9 c 0.1,0.4 0.2,0.9 0.2,1.4 -0.2,0 -0.4,-0.1 -0.6,-0.2 -0.2,-0.1 -0.4,-0.2 -0.6,-0.2 l -0.3,-0.1 -0.6,-0.3 c -0.5,-0.2 -1,-0.4 -1.5,-0.4 h -0.3 -0.4 -1 -0.4 -0.3 c -0.5,0.1 -1,0.2 -1.5,0.4 l -0.6,0.3 -0.3,0.1 c -0.2,0.1 -0.4,0.2 -0.6,0.2 -0.2,0.1 -0.4,0.1 -0.6,0.2 0,-0.5 0.1,-1 0.2,-1.4 l -7.69998,-2.5 c 0,0.9 0,1.8 0.1,2.7 0,0.1 0,0.2 0,0.3 0,0.1 0,0.4 0,0.6 0,0.1 0,0.3 0,0.4 h 0.8 l 0.5,0.1 c 0.5,0.1 1.1,0.3 1.5,0.6 0.99998,0.5 2.09998,0.8 3.19998,0.8 1.1,0 2.2,-0.2 3.2,-0.8 0.2,-0.1 0.5,-0.2 0.7,-0.3 0.5,-0.2 1.1,-0.3 1.7,-0.3 h 0.7 c 0.5,0 1.1,0.1 1.6,0.3 0.3,0.1 0.5,0.2 0.8,0.3 1,0.5 2.1,0.8 3.2,0.8 1.1,0 2.2,-0.2 3.2,-0.8 l 0.5,-0.2 -0.3,1.2 1.1,-0.2 -0.3,1.3 c -0.6,0.1 -1.1,0.3 -1.6,0.6 -0.9,0.5 -1.8,0.7 -2.8,0.7 -1,0 -1.9,-0.2 -2.8,-0.7 -1,-0.5 -2.1,-0.8 -3.2,-0.8 -1.1,0 -2.2,0.2 -3.2,0.8 -0.9,0.5 -1.8,0.7 -2.8,0.7 -1,0 -1.9,-0.2 -2.79998,-0.7 -0.5,-0.3 -1,-0.5 -1.6,-0.6 h 0.4 -0.1 -0.2 -0.1 c -0.3,0 -0.5,-0.1 -0.8,-0.1 0.1,0.3 0.1,0.6 0.2,0.9 h 0.5 0.2 0.1 l 0.3,0.1 0.3,0.1 c 0.3,0.1 0.7,0.3 1,0.4 0.99998,0.5 2.09998,0.8 3.19998,0.8 1.1,0 2.2,-0.2 3.2,-0.8 0.9,-0.5 1.8,-0.7 2.8,-0.7 1,0 1.9,0.2 2.8,0.7 1,0.5 2.1,0.8 3.2,0.8 1.1,0 2.2,-0.2 3.2,-0.8 0.3,-0.2 0.7,-0.3 1,-0.4 l -0.6,2.6 c -0.3,0.1 -0.6,0.3 -0.9,0.4 -0.8,0.5 -1.8,0.7 -2.7,0.7 -0.9,0 -1.9,-0.2 -2.7,-0.7 -1,-0.5 -2.1,-0.8 -3.2,-0.8 -1.1,0 -2.2,0.2 -3.2,0.8 -1.1,0.3 -2.1,0.5 -3,0.5 -0.9,0 -1.9,-0.2 -2.7,-0.7 l -0.59998,-0.3 c -0.4,-0.2 -0.9,-0.3 -1.3,-0.4 0.2,0.5 0.3,0.9 0.5,1.4 0.8,2 1.69998,3.9 2.79998,5.8 l 0.1,0.3 0.2,0.4 0.2,0.3 0.2,0.4 0.2,0.3 0.2,0.4 0.2,0.3 0.2,0.3 0.3,0.4 0.2,0.3 0.3,0.4 0.2,0.2 0.5,0.7 c 4.8,5.8 10.6,10.8 17.2,14.5 l 0.6,0.4 0.6,-0.4 c 6.6,-3.8 12.4,-8.7 17.1,-14.6 0.3,-0.3 0.5,-0.7 0.8,-1 l 0.1,-0.1 c 0.2,-0.3 0.5,-0.7 0.7,-1 l 0.1,-0.1 c 0.5,-0.7 1,-1.5 1.4,-2.2 1.2,-2 2.1,-4 2.9,-6.1 0.2,-0.4 0.3,-0.8 0.4,-1.2 -0.5,0.1 -0.9,0.2 -1.3,0.4 h -0.1 l -0.6,0.3 c -1.7,0.9 -3.7,0.9 -5.4,0 -2,-1 -4.4,-1 -6.5,0 -1.7,0.9 -3.7,0.9 -5.4,0 -0.3,-0.1 -0.6,-0.3 -0.9,-0.4 l -1,-4.8 1.2,0.2 -0.7,-3.2 3.8,-3.7 2.5,1.8 3.9,-3.9 3.8,4 2.5,-1.8 4.5,4.5 1.1,1.1 c 0,-0.4 0.1,-0.8 0.1,-1.2 0,-0.1 0,-0.1 0,-0.2 0,-0.1 0,-0.2 0,-0.2 0.2,-3.1 0.1,-6.1 -0.4,-9.1 z m -7.3,0.6 0.1,-0.2 h 1.4 l 0.4,-1.4 h 0.2 l 0.4,1.3 h 1.4 l 0.1,0.2 -1.2,0.8 0.4,1.4 -0.2,0.1 -1.2,-0.8 -1.2,0.8 -0.2,-0.1 0.4,-1.4 z m -3,-0.2 -0.2,0.1 -1.2,-0.8 -1.1,0.8 -0.2,-0.1 0.4,-1.4 -1.2,-0.8 0.1,-0.2 h 1.4 l 0.5,-1.4 h 0.2 l 0.4,1.4 h 1.4 l 0.1,0.2 -1.1,0.9 z m -6.5,2.4 -0.2,0.1 -1.2,-0.8 -1.2,0.8 -0.2,-0.1 0.4,-1.4 -1.2,-0.8 0.1,-0.2 h 1.4 l 0.4,-1.4 h 0.2 l 0.4,1.3 h 1.4 l 0.1,0.2 -1.2,0.8 z m -5.2,16 -1.4,-0.3 1.9,9.2 -3.7,-1.5 -3.7,1.5 1.9,-9.2 -1.4,0.3 1.8,-8.8 -1.1,0.2 2.3,-12.2 h 0.2 l 2.4,12.2 -1.1,-0.2 z m -2.5,10.1 0.3,8.7 h -2.1 l 0.3,-8.7 v -1.4 l 0.7,-0.3 0.7,0.3 z m -2.5,2.5 v 0.6 c -0.7,0 -1.4,0.2 -2,0.5 -1.1,0.6 -2.4,0.9 -3.7,0.9 -1.2,0 -2.5,-0.2 -3.5,-0.8 l -0.1,-0.1 -0.5,-0.2 h -0.1 c -0.2,-0.1 -0.3,-0.1 -0.5,-0.2 l 0.5,-0.4 0.1,-0.1 c 0.3,0.1 0.5,0.2 0.8,0.3 l 0.3,0.2 c 0.9,0.4 1.9,0.6 2.8,0.6 1.1,0 2.2,-0.2 3.2,-0.8 0.8,-0.4 1.7,-0.7 2.6,-0.7 z m 12.2,0.6 0.3,-0.2 c 0.2,-0.1 0.5,-0.2 0.8,-0.3 l 0.7,0.6 c -0.2,0.1 -0.4,0.1 -0.5,0.2 l -0.3,0.2 -0.1,0.1 c -1.1,0.6 -2.3,0.8 -3.5,0.8 -1.3,0 -2.6,-0.3 -3.7,-0.9 -0.6,-0.3 -1.3,-0.5 -2,-0.5 v -0.6 -0.2 c 0.9,0 1.8,0.2 2.6,0.7 1,0.5 2.1,0.8 3.2,0.8 0.7,-0.1 1.6,-0.3 2.5,-0.7 z m -14.7,-14.1 -0.5,2.4 1.5,-0.3 -2.1,9.8 3.9,-1.9 -0.1,1.3 -0.1,1.1 c -1.1,0 -2.1,0.2 -3,0.8 -0.9,0.4 -1.9,0.6 -2.9,0.6 -0.9,0 -1.8,-0.2 -2.6,-0.6 l -0.2,-0.1 c -0.3,-0.1 -0.6,-0.3 -0.9,-0.4 v -12 l -0.8,0.7 v 11.6 l -0.8,0.7 v -12.8 l 1.5,-1.2 h 0.1 l 0.3,0.1 0.1,0.1 c 0.2,0.1 0.5,0.2 0.8,0.3 0.8,0.3 1.6,0.4 2.5,0.4 1.2,0.2 2.3,-0.1 3.3,-0.6 z m 8.6,0 c 1,0.5 2.1,0.8 3.2,0.8 0.8,0 1.7,-0.1 2.5,-0.4 0.3,-0.1 0.5,-0.2 0.8,-0.3 l 0.4,-0.2 h 0.1 l 1.5,1.2 v 12.7 l -0.8,-0.7 v -11.7 l -0.9,-0.7 v 12.1 c -0.3,0.1 -0.6,0.2 -0.9,0.4 l -0.2,0.1 c -0.8,0.4 -1.7,0.6 -2.6,0.6 -1,0 -1.9,-0.2 -2.8,-0.7 -0.9,-0.5 -2,-0.8 -3,-0.8 l -0.1,-1.1 -0.1,-1.3 3.9,1.9 -0.3,-1.3 -1.8,-8.5 1.5,0.3 z"
       fill="#000000"
       id="path10" />
    <path
       d="m 42.4242,50.2996 0.4,-0.2 v -1 h -0.1 l -0.3,0.2 c -0.8,0.4 -1.6,0.5 -2.5,0.5 -0.9,0 -1.8,-0.2 -2.6,-0.6 v 1 c 1.6,0.6 3.4,0.7 5.1,0.1 z"
       fill="#000000"
       id="path11" />
    <path
       d="m 42.4243,52.9002 c -0.8,0.4 -1.6,0.5 -2.5,0.5 -0.7,0 -1.4,-0.1 -2,-0.3 v 0.9 c 0.6,0.2 1.3,0.3 2,0.3 0.8,0 1.7,-0.1 2.5,-0.4 l 0.4,-0.2 v -1 h -0.1 z"
       fill="#000000"
       id="path12" />
    <path
       d="m 42.4241,56.4002 c -0.8,0.4 -1.6,0.5 -2.5,0.5 -0.4,0 -0.8,0 -1.2,-0.1 v 0.9 c 0.4,0.1 0.8,0.1 1.2,0.1 0.8,0 1.7,-0.1 2.5,-0.4 l 0.4,-0.2 v -1 h -0.1 z"
       fill="#000000"
       id="path13" />
    <path
       d="m 11.2241,24.2002 0.5,0.4 5.1,-7 v -0.9 h -0.8 z"
       fill="#000000"
       id="path14" />
    <path
       d="m 40.1243,41.7998 v -3 h -1.2 v 0.8 h 0.4 v 2.2 z"
       fill="#000000"
       id="path15" />
    <path
       d="m 42.6241,41.0003 c 0.2,0.6 0.8,1 1.4,0.9 0.4,-0.1 0.8,-0.4 0.9,-0.9 0,-0.3 -0.2,-0.6 -0.5,-0.8 0.2,-0.1 0.4,-0.4 0.4,-0.7 -0.1,-0.6 -0.6,-1 -1.2,-0.9 -0.4,0.1 -0.8,0.4 -0.9,0.9 0,0.3 0.2,0.5 0.4,0.7 -0.3,0.2 -0.6,0.5 -0.5,0.8 z m 1.1,-1.1 c -0.2,0 -0.3,-0.1 -0.3,-0.3 0,-0.2 0.1,-0.3 0.3,-0.3 0.2,0 0.3,0.1 0.3,0.3 0,0.1 -0.1,0.3 -0.3,0.3 z m 0,1.3 c -0.2,0 -0.3,-0.1 -0.3,-0.3 0,-0.2 0.1,-0.3 0.3,-0.3 0.2,0 0.3,0.1 0.3,0.3 0,0.2 -0.1,0.3 -0.3,0.3 0,0.1 0,0.1 0,0 z"
       fill="#000000"
       id="path16" />
    <path
       d="m 48.1244,38.7996 -0.6,0.8 c -0.3,0.3 -0.5,0.8 -0.5,1.2 0,0.3 0.2,0.6 0.4,0.8 0.3,0.2 0.6,0.3 0.9,0.3 0.6,0.1 1.2,-0.4 1.3,-1.1 v -0.1 c 0,-0.6 -0.4,-1 -0.9,-1.1 0,0 0,0 -0.1,0 -0.1,0 -0.2,0 -0.3,0 l 0.8,-1 z m 0.1,1.6 c 0.2,0 0.4,0.3 0.4,0.5 0,0.2 -0.2,0.3 -0.4,0.4 -0.2,0 -0.5,-0.1 -0.5,-0.4 0,-0.2 0.1,-0.5 0.4,-0.5 z"
       fill="#000000"
       id="path17" />
    <path
       d="m 51.5244,41.0003 c 0.1,0.6 0.8,1 1.4,0.9 0.4,-0.1 0.8,-0.4 0.9,-0.9 0,-0.3 -0.2,-0.6 -0.5,-0.8 0.2,-0.1 0.4,-0.4 0.4,-0.7 -0.1,-0.6 -0.6,-1 -1.2,-0.9 -0.4,0.1 -0.8,0.4 -0.9,0.9 0,0.3 0.2,0.5 0.4,0.7 -0.3,0.1 -0.5,0.5 -0.5,0.8 z m 1.1,-1.1 c -0.2,0 -0.3,-0.1 -0.3,-0.3 0,-0.2 0.1,-0.3 0.3,-0.3 0.2,0 0.3,0.1 0.3,0.3 0,0.1 -0.1,0.3 -0.3,0.3 0.1,0 0.1,0 0,0 z m 0,1.3 c -0.2,0 -0.3,-0.1 -0.3,-0.3 0,-0.2 0.1,-0.3 0.3,-0.3 0.2,0 0.3,0.1 0.3,0.3 0.1,0.2 0,0.3 -0.3,0.3 0.1,0.1 0.1,0.1 0,0 z"
       fill="#000000"
       id="path18" />
  </g>
</svg>
