<svg width="172" height="121" viewBox="0 0 172 121" fill="none" xmlns="http://www.w3.org/2000/svg">
<path fill-rule="evenodd" clip-rule="evenodd" d="M2.43359 3L67.1035 3.09234V30.492L54.0957 30.3995L62.9519 65.548L79.7425 3.18481H105.574L121.072 65.9172L130.758 30.6765H118.766L118.489 3.09234L168.859 3L168.952 30.3995L155.76 30.492L132.696 117.579H96.0715L85.4618 75.7883L74.3917 117.579L37.3978 117.487L15.8104 30.6765L2.52593 30.5842L2.43359 3Z" fill="#E8D3A2" stroke="#C8BE92" stroke-width="4.16475"/>
<path fill-rule="evenodd" clip-rule="evenodd" d="M48.654 26.3232L62.4253 82.0034L82.8729 7.06425L102.056 7.00295L120.781 81.8056L135.84 26.224H122.465V7.10237L164.472 7.03687L164.473 26.3232L152.188 26.2241L129.234 113.508L99.0518 113.442L85.2484 59.216L70.7817 113.541C70.7817 113.541 40.1334 113.708 40.728 113.51C41.3224 113.311 18.733 26.224 18.733 26.224L6.24951 26.3232V7.10237L62.73 7.00293L62.4253 26.1245L48.654 26.3232Z" fill="#33006F" stroke="#3D3769" stroke-width="4.16475"/>
<path fill-rule="evenodd" clip-rule="evenodd" d="M147.648 114.988C147.648 116.274 146.579 117.317 145.262 117.317C143.945 117.317 142.876 116.274 142.876 114.988C142.876 113.702 143.945 112.659 145.262 112.659C146.58 112.659 147.648 113.702 147.648 114.988Z" fill="white"/>
<path fill-rule="evenodd" clip-rule="evenodd" d="M147.648 114.988C147.648 116.274 146.579 117.317 145.262 117.317C143.945 117.317 142.876 116.274 142.876 114.988C142.876 113.702 143.945 112.659 145.262 112.659C146.58 112.659 147.648 113.702 147.648 114.988Z" stroke="#3D3769" stroke-width="6.24772"/>
<path fill-rule="evenodd" clip-rule="evenodd" d="M144.274 116.299H144.596V115.215H144.901C145.194 115.226 145.332 115.356 145.406 115.701C145.473 116.013 145.528 116.228 145.569 116.299H145.903C145.855 116.202 145.796 115.961 145.714 115.612C145.651 115.352 145.536 115.174 145.346 115.107V115.096C145.606 115.007 145.818 114.788 145.818 114.461C145.818 114.264 145.744 114.094 145.621 113.986C145.465 113.845 145.239 113.778 144.894 113.778C144.675 113.778 144.437 113.801 144.273 113.834L144.274 116.299ZM144.596 114.06C144.652 114.045 144.76 114.031 144.916 114.031C145.257 114.031 145.491 114.172 145.491 114.495C145.491 114.781 145.272 114.97 144.927 114.97L144.596 114.97V114.06Z" fill="#3D3769"/>
</svg>
