<svg width="241" height="70" viewBox="0 0 241 70" fill="none" xmlns="http://www.w3.org/2000/svg">
<path d="M175.024 34.8V34.6C175.024 14.8 190.524 0 210.324 0C224.924 0 234.824 7.1 240.324 17.3L222.024 28C219.524 23.3 216.024 19.9 210.024 19.9C202.524 19.9 197.624 26.4 197.624 34.4V34.6C197.624 43.2 202.724 49.3 210.024 49.3C216.324 49.3 219.824 45.9 222.524 41L240.824 51.3C235.224 61.2 225.924 69.2 209.424 69.2C191.024 69.2 175.024 55.4 175.024 34.8Z" fill="#005493"/>
<path d="M146.624 1.40039H168.824V67.7004H146.624V1.40039Z" fill="#005493"/>
<path d="M131.424 1.40039L108.324 68.2004H117.224L130.024 36.4004L142.124 1.40039H131.424Z" fill="#002747"/>
<path d="M99.5244 68.2004H108.724L131.724 1.40039H122.624L99.5244 68.2004Z" fill="#C63527"/>
<path d="M117.224 68.2004L144.124 1.40039H139.624C138.024 23.7004 112.424 46.0004 111.524 68.2004H117.224Z" fill="#005493"/>
<path d="M119.224 1.40039L96.0244 68.2004H101.024C101.924 45.9004 127.524 23.6004 129.224 1.40039H119.224Z" fill="#F5AA1C"/>
<path d="M93.424 1.40039H68.624L95.524 68.2004H96.024L106.324 38.6004L93.424 1.40039Z" fill="#005493"/>
<path d="M0.824219 38.0004V1.40039H23.4242V37.7004C23.4242 45.9004 27.7242 49.5004 33.6242 49.5004C39.5242 49.5004 43.8242 46.3004 43.8242 38.2004V1.40039H66.4242V37.5004C66.4242 60.2004 53.2242 69.1004 33.4242 69.1004C13.6242 69.1004 0.824219 60.0004 0.824219 38.0004Z" fill="#005493"/>
</svg>
