<svg width="1150" height="327" viewBox="0 0 1150 327" fill="none" xmlns="http://www.w3.org/2000/svg">
<path d="M186.455 52.6379V32.7719C186.455 25.5479 186.111 24.6019 181.467 23.5699C180.005 23.2259 179.145 22.1939 179.145 21.4199C179.145 20.1299 181.209 19.6999 182.069 19.6999C183.703 19.6999 189.121 20.0439 192.905 20.0439C198.065 20.0439 202.279 19.7859 204.773 19.7859C206.063 19.7859 207.439 20.4739 207.439 21.5919C207.439 22.6239 205.977 23.3119 205.289 23.4839C201.075 24.4299 200.817 25.5479 200.473 30.0199C200.215 33.7179 200.129 41.1999 200.129 47.0479C200.129 56.4219 200.301 59.7759 200.301 60.8939C200.473 64.9359 200.903 66.6559 205.203 67.6879C206.837 68.1179 207.955 68.9779 207.955 70.1819C207.955 71.2139 206.063 71.7299 205.031 71.7299C204.171 71.7299 195.829 71.4719 192.905 71.4719C189.895 71.4719 183.617 71.8159 182.069 71.8159C180.951 71.8159 179.145 71.5579 179.145 70.1819C179.145 69.2359 180.521 68.1179 181.725 67.7739C185.165 66.6559 185.681 65.6239 186.111 63.0439C186.369 61.2379 186.455 59.6899 186.455 52.6379ZM213.534 20.9899C213.534 20.3879 214.222 19.5279 215.77 19.5279C219.21 19.5279 226.09 20.2159 231.594 20.2159C232.368 20.2159 233.572 20.8179 233.83 21.1619C235.292 23.1399 237.958 25.9779 242.086 30.4499C246.644 35.3519 260.318 49.7999 262.21 50.8319C262.468 50.9179 263.156 50.7459 263.242 50.4879C263.758 48.1659 263.758 39.9099 263.5 33.9759C263.242 28.1279 263.672 25.8919 256.964 24.3439C254.9 23.8279 254.126 22.3659 254.126 21.8499C254.126 21.2479 255.072 19.9579 257.136 19.9579C260.232 19.9579 260.06 20.0439 262.296 20.0439C265.822 20.0439 272.358 19.6139 274.078 19.6139C275.884 19.6139 277.088 20.1299 277.088 21.5919C277.088 22.5379 276.4 23.1399 273.648 24.3439C270.122 25.8919 269.606 26.8379 269.52 27.9559C269.348 31.9119 268.66 49.6279 268.66 55.3899C268.66 59.1739 269.004 62.9579 269.004 66.9139C269.004 70.5259 268.316 73.1919 266.768 73.1919C264.016 73.1919 261.78 71.6439 260.146 69.7519C256.964 66.1399 252.922 61.4099 250.514 58.7439C247.246 54.9599 233.83 40.6839 230.046 36.5559C229.788 36.2979 229.186 36.8139 229.186 37.1579C229.1 39.0499 228.928 39.3079 228.928 43.0059C228.928 46.8759 229.1 54.6159 229.186 56.9379C229.444 63.6459 230.562 65.7099 233.572 66.9139C236.496 68.0319 237.442 68.9779 237.442 70.1819C237.442 71.2139 236.496 71.8159 234.518 71.8159C232.11 71.8159 229.186 71.4719 225.144 71.4719C221.102 71.4719 218.952 71.8159 217.834 71.8159C215.254 71.8159 214.394 70.8699 214.394 70.0099C214.394 68.8919 215.426 68.1179 216.974 67.6019C220.93 66.3119 222.478 66.0539 222.908 60.2919C223.338 54.5299 224.026 33.9759 224.026 31.2239C224.026 30.7079 223.596 28.9019 222.478 27.6119C220.672 25.5479 219.124 24.5159 217.146 24.0859C215.168 23.6559 213.534 22.6239 213.534 20.9899ZM322.29 18.4099C327.106 18.4099 331.664 19.9579 335.018 20.7319C335.534 20.8179 336.136 22.1939 336.136 23.1399C336.136 24.1719 336.738 28.9019 336.738 30.1919C336.738 33.1159 335.362 34.3199 334.158 34.3199C333.212 34.3199 332.438 32.8579 332.18 32.1699C330.288 27.0099 325.816 22.3659 320.914 22.3659C317.302 22.3659 314.034 25.7199 314.034 28.9879C314.034 32.8579 316.872 35.6959 321.774 38.1899C332.61 43.6939 338.974 48.5099 338.974 56.6799C338.974 63.7319 334.158 67.6879 331.062 69.5799C327.708 71.5579 322.032 73.0199 318.076 73.0199C310.766 73.0199 306.552 71.4719 304.574 70.6979C303.972 70.4399 302.596 69.6659 302.166 68.7199C300.704 65.6239 300.446 61.1519 300.446 59.0879C300.446 57.4539 301.306 55.3899 302.682 55.3899C303.628 55.3899 304.746 56.4219 305.95 58.6579C309.132 64.5059 313.862 68.7199 319.194 68.7199C322.29 68.7199 326.16 66.5699 326.16 62.6139C326.16 60.0339 326.332 57.1959 317.56 52.4659C306.294 46.4459 301.908 41.8019 301.908 33.8039C301.908 28.2139 305.864 23.6559 309.992 21.3339C313.26 19.5279 317.388 18.4099 322.29 18.4099ZM365.611 20.0439H374.469C382.295 20.0439 383.499 20.0439 385.477 19.6139C386.423 19.4419 387.025 19.9579 387.283 20.3879C387.799 21.2479 388.487 27.7839 388.487 29.6759C388.487 31.9119 387.455 32.4279 386.939 32.4279C385.391 32.4279 384.531 31.4819 383.499 29.1599C381.865 25.6339 380.661 25.0319 379.973 25.0319C375.071 25.0319 370.341 25.2899 369.137 25.2899C368.707 25.2899 368.019 26.2359 368.019 26.5799C367.933 28.2139 367.761 34.4059 367.761 40.3399C367.761 41.7159 368.019 42.5759 368.449 42.6619C369.395 42.9199 372.405 42.8339 373.953 42.7479C377.823 42.4899 379.027 41.1139 379.973 38.9639C380.489 37.6739 381.349 36.6419 382.295 36.6419C383.499 36.6419 384.273 37.8459 384.101 40.3399C384.015 41.3719 383.929 43.3499 383.929 45.3279C383.929 47.3059 384.101 49.2839 384.187 50.5739C384.359 52.8959 383.069 53.9279 382.209 53.9279C381.435 53.9279 380.317 52.9819 379.543 51.2619C378.683 49.2839 378.425 48.6819 376.619 48.5099C373.093 48.2519 372.577 48.0799 368.707 48.0799C368.277 48.0799 367.761 49.2839 367.761 51.4339C367.761 53.7559 368.019 58.7439 368.105 60.6359C368.277 63.1299 368.621 64.0759 368.879 64.4199C369.739 65.7099 373.867 66.8279 377.995 66.8279C379.371 66.8279 381.779 66.5699 383.757 65.4519C385.391 64.5919 386.251 63.5599 388.143 60.9799C389.519 59.0879 390.465 57.0239 391.841 57.0239C393.475 57.0239 393.991 59.5179 393.647 61.3239C393.131 63.8179 391.067 69.5799 390.723 70.3539C390.465 70.9559 388.659 71.9019 388.143 71.9019C387.025 71.9019 383.585 71.4719 367.933 71.4719C362.515 71.4719 351.679 71.8159 347.981 71.8159C346.175 71.8159 344.885 71.1279 344.885 70.4399C344.885 69.4079 345.573 68.2039 347.379 67.6879C353.313 66.0539 353.485 64.0759 353.657 62.5279C354.001 58.3999 354.087 56.5939 354.087 43.3499C354.087 30.1059 353.915 29.5899 353.657 28.0419C353.227 25.4619 352.109 24.5159 348.669 23.6559C346.433 23.1399 346.089 21.9359 346.089 21.3339C346.089 20.2159 347.809 19.6139 348.927 19.6139C350.389 19.6139 359.935 20.0439 365.611 20.0439ZM432.563 18.3239C434.111 18.3239 434.627 20.9039 436.863 26.6659C441.507 39.1359 448.559 55.8199 450.881 61.0659C453.031 65.8819 454.235 65.9679 457.589 67.3439C459.567 68.2039 460.255 69.4939 460.255 70.4399C460.255 71.4719 458.879 71.9019 457.245 71.9019C454.579 71.9019 447.871 71.4719 443.657 71.4719C439.959 71.4719 437.637 71.9019 434.541 71.9019C432.133 71.9019 431.359 70.8699 431.359 70.2679C431.359 69.2359 432.391 68.0319 434.025 67.3439C437.035 66.0539 437.035 64.1619 436.605 62.6999C435.831 60.5499 435.745 60.1199 434.627 57.5399C434.541 57.2819 433.767 56.3359 432.391 56.1639C430.929 55.9919 420.179 55.8199 418.201 56.2499C417.685 56.3359 416.997 57.1959 416.825 57.5399C416.137 59.2599 415.449 62.5279 415.449 63.6459C415.449 65.1939 416.567 66.4839 419.319 67.4299C420.523 67.8599 421.813 68.5479 421.813 69.6659C421.813 70.0959 420.609 71.7299 418.373 71.7299C417.341 71.7299 415.449 71.4719 412.697 71.4719C409.515 71.4719 405.989 71.9019 402.377 71.9019C400.485 71.9019 399.195 71.0419 399.195 70.0099C399.195 69.1499 399.883 68.2899 401.775 67.5159C404.957 66.2259 406.677 65.9679 409.429 60.2059C411.579 55.6479 417.685 40.1679 422.845 26.5799C422.931 26.3219 423.103 25.7199 423.103 24.7739C423.103 24.4299 423.533 23.8279 423.877 23.5699C424.995 22.8819 429.295 20.0439 430.241 19.2699C430.757 18.7539 432.133 18.3239 432.563 18.3239ZM430.843 50.4019C431.273 50.4019 431.789 49.6279 431.703 49.3699C430.413 45.1559 426.801 35.9539 426.027 34.5779C425.683 33.9759 425.167 34.2339 424.909 34.5779C423.533 37.4159 419.835 47.9939 419.577 49.2839C419.491 49.7999 419.921 50.4879 420.523 50.4879C421.641 50.4879 429.639 50.4879 430.843 50.4019ZM511.389 33.5459C511.389 36.8139 509.755 40.5119 507.519 42.4039C506.229 43.5219 505.025 43.7799 503.219 44.8119C502.789 45.0699 503.219 46.7039 503.477 47.2199C505.369 51.0039 509.239 57.3679 512.507 61.4959C515.517 65.2799 518.183 66.7419 520.849 67.7739C521.709 68.1179 522.827 68.8919 522.827 69.6659C522.827 71.9019 520.075 72.5899 517.753 72.5899C510.873 72.5899 504.251 71.9019 498.231 64.0759C495.135 60.0339 492.813 55.7339 490.405 51.8639C489.029 49.6279 487.825 49.1979 486.449 49.1979C485.847 49.1979 485.761 50.2299 485.761 50.4879C485.761 57.3679 485.761 59.4319 486.019 62.4419C486.277 65.5379 487.137 65.6239 490.577 67.2579C492.125 68.0319 493.157 68.9779 493.157 69.6659C493.157 70.6119 491.351 71.8159 489.889 71.8159C487.739 71.8159 481.117 71.4719 478.107 71.4719C475.441 71.4719 471.399 71.8159 468.217 71.8159C466.153 71.8159 464.949 70.7839 464.949 69.9239C464.949 68.7199 466.153 67.8599 467.787 67.4299C471.313 66.3979 472.173 65.7099 472.345 61.4099C472.431 58.3139 472.431 56.7659 472.431 41.2859C472.431 30.7079 472.173 30.1919 472.001 28.3859C471.829 26.6659 471.055 24.9459 467.787 24.3439C466.153 23.9999 465.121 22.7099 465.121 22.1079C465.121 20.6459 466.841 19.8719 468.905 19.8719C473.291 19.8719 474.753 20.0439 475.871 20.0439C481.547 20.0439 486.277 19.5279 492.297 19.5279C499.865 19.5279 503.821 21.1619 505.885 22.7099C509.583 25.5479 511.389 28.9879 511.389 33.5459ZM498.145 35.0079C498.145 29.5899 494.447 24.2579 488.255 24.2579C487.911 24.2579 486.621 24.6019 486.105 24.9459C485.847 25.1179 485.589 25.5479 485.589 26.3219C485.589 28.7299 485.761 36.7279 485.761 42.4899C485.761 42.8339 486.105 43.8659 486.449 44.0379C487.653 44.5539 488.771 44.8119 490.233 44.8119C492.125 44.8119 495.221 42.8339 495.737 42.4899C496.253 42.1459 498.145 39.1359 498.145 35.0079ZM558.137 18.3239C562.093 18.3239 566.049 19.1839 568.371 19.7859C570.521 20.3879 573.617 21.3339 574.305 21.3339C574.735 21.3339 575.767 22.4519 575.767 22.9679C575.767 26.0639 576.627 30.4499 576.627 32.5999C576.627 35.0079 574.993 36.3839 573.875 36.3839C573.187 36.3839 572.757 35.6959 572.069 33.8039C570.779 30.2779 570.263 28.3859 567.081 26.0639C564.415 24.0859 561.405 22.6239 557.707 22.6239C554.009 22.6239 549.279 24.7739 546.441 28.2139C542.743 32.5999 541.023 39.1359 541.023 44.2959C541.023 50.8319 543.173 56.6799 545.667 60.2059C548.763 64.5919 554.439 67.7739 559.599 67.7739C561.749 67.7739 565.619 66.3979 567.339 65.4519C568.027 65.0219 569.575 63.3879 571.725 59.9479C573.359 57.3679 574.391 56.3359 575.251 56.3359C576.885 56.3359 577.057 57.9699 576.971 59.7759C576.971 60.5499 575.337 66.3119 575.337 67.9459C575.337 68.2039 574.649 69.4079 574.391 69.5799C571.38 71.0419 563.727 73.0199 557.793 73.0199C548.247 73.0199 538.099 70.1819 531.993 63.4739C528.209 59.3459 525.543 53.6699 525.543 46.0159C525.543 36.8139 529.671 29.0739 537.239 23.8279C541.109 21.1619 549.193 18.3239 558.137 18.3239ZM606.445 39.9959C606.445 41.1999 607.133 42.1459 607.735 42.1459C622.785 42.1459 625.709 42.0599 627.343 42.1459C627.687 42.1459 628.375 40.8559 628.375 40.5119C628.375 34.6639 628.375 29.8479 628.031 27.7839C627.773 26.2359 627.601 25.3759 623.903 24.4299C620.721 23.5699 620.205 22.2799 620.205 21.6779C620.205 20.8179 621.753 19.7859 623.559 19.7859C627.085 19.7859 629.493 20.0439 632.761 20.0439C636.115 20.0439 644.715 19.7859 646.435 19.7859C648.155 19.7859 649.187 20.6459 649.187 21.6779C649.187 22.6239 648.155 23.5699 645.919 24.0859C643.253 24.6879 642.651 25.9779 642.393 28.0419C642.049 30.5359 641.963 37.2439 641.963 44.7259C641.963 55.3899 642.221 58.3999 642.393 61.5819C642.651 65.7099 644.113 66.3979 646.779 67.0859C649.187 67.6879 650.047 68.7199 650.047 69.6659C650.047 70.7839 648.671 71.7299 646.779 71.7299C645.145 71.7299 641.877 71.4719 638.695 71.4719C634.223 71.4719 626.827 71.9019 624.247 71.9019C622.527 71.9019 620.893 71.2139 620.893 69.8379C620.893 68.9779 621.667 68.2899 624.333 67.2579C627.515 66.0539 627.859 64.1619 628.117 62.7859C628.547 60.1199 628.719 53.1539 628.375 50.1439C628.117 47.9939 627.343 47.8219 627.257 47.8219C620.893 47.8219 608.681 48.0799 607.477 48.0799C606.875 48.0799 606.445 49.7999 606.445 50.2299C606.445 52.5519 606.531 60.8939 606.617 62.1839C606.875 65.1079 607.219 66.4839 611.519 67.5159C612.551 67.7739 614.271 68.8919 614.271 70.0099C614.271 71.4719 613.067 71.8159 610.917 71.8159C608.423 71.8159 602.231 71.4719 598.533 71.4719C595.781 71.4719 590.793 71.9019 588.213 71.9019C586.407 71.9019 584.945 70.9559 584.945 69.9239C584.945 68.9779 586.493 68.0319 588.041 67.4299C591.653 65.9679 592.341 65.1939 592.513 61.4959C592.771 57.7119 592.771 48.1659 592.771 35.7819C592.771 29.3319 592.513 28.7299 592.341 27.6979C591.997 25.7199 590.965 24.5159 587.009 23.5699C586.063 23.3119 585.117 22.5379 585.117 21.5919C585.117 20.6459 587.009 19.6999 588.643 19.6999C592.857 19.6999 598.791 20.0439 601.113 20.0439C603.779 20.0439 605.499 19.8719 608.509 19.8719C609.885 19.8719 611.605 20.3019 611.605 21.8499C611.605 23.1399 609.541 23.9139 608.509 24.2579C607.133 24.7739 606.445 26.4939 606.445 28.6439C606.445 31.3099 606.445 34.4919 606.445 39.9959ZM704.035 18.3239C721.923 18.3239 733.963 30.3639 733.963 45.7579C733.963 56.5079 727.599 64.9359 719.515 69.4079C715.817 71.4719 709.797 73.0199 704.293 73.0199C686.147 73.0199 674.279 60.6359 674.279 45.7579C674.279 39.1359 676.773 32.5999 682.105 27.2679C687.695 21.6779 695.951 18.3239 704.035 18.3239ZM702.487 22.7959C698.445 22.7959 694.833 26.2359 694.747 26.3219C691.135 30.2779 689.587 36.1259 689.587 44.2099C689.587 55.9059 694.919 68.6339 706.529 68.6339C709.453 68.6339 712.893 66.0539 713.323 65.7099C716.075 63.1299 718.311 57.7119 718.311 46.3599C718.311 37.3299 713.839 22.7959 702.487 22.7959ZM756.556 20.0439H770.402C781.496 20.0439 783.388 19.5279 783.732 19.5279C784.506 19.5279 785.366 20.4739 785.366 21.2479V29.6759C785.366 32.0839 783.99 33.4599 782.958 33.4599C782.27 33.4599 781.238 32.2559 780.722 30.4499C780.12 28.4719 778.916 25.2899 775.906 25.0319C773.498 24.8599 766.79 24.8599 764.124 24.8599C763.178 24.8599 762.576 26.3219 762.49 27.2679C762.232 30.3639 762.146 39.9099 762.318 42.3179C762.404 43.2639 762.662 43.7799 763.436 43.7799C765.242 43.7799 768.682 43.6079 771.004 43.3499C773.756 43.0059 774.014 42.3179 775.132 39.8239C775.562 38.8779 776.68 37.1579 777.712 37.1579C778.916 37.1579 779.432 38.7919 779.432 40.2539C779.432 42.7479 779.088 44.9839 779.088 46.4459C779.088 48.0799 779.432 51.6919 779.432 52.3799C779.432 53.7559 778.486 55.3039 777.196 55.3039C776.508 55.3039 775.648 54.4439 774.96 53.0679C773.584 50.4019 773.326 49.4559 771.348 49.1979C770.402 49.0259 769.112 48.8539 763.264 48.8539C762.92 48.8539 762.404 50.0579 762.318 51.0899C762.146 54.0139 762.146 59.6899 762.318 61.5819C762.662 65.2799 763.78 66.3119 767.994 67.4299C770.23 68.0319 770.918 69.0639 770.918 69.9239C770.918 70.7839 769.456 71.9019 767.822 71.9019C762.404 71.9019 758.448 71.4719 755.008 71.4719C753.202 71.4719 750.278 71.8159 743.656 71.8159C742.194 71.8159 740.904 71.1279 740.904 70.0099C740.904 69.0639 741.936 68.0319 743.656 67.6019C746.924 66.8279 748.128 65.2799 748.3 62.9579C748.558 60.3779 748.644 57.7979 748.644 46.3599C748.644 33.4599 748.644 31.5679 748.472 28.5579C748.3 25.8059 747.182 24.8599 743.914 23.9139C742.366 23.4839 741.076 22.9679 741.076 21.5059C741.076 20.3019 743.312 19.7859 744.258 19.7859C750.966 19.8719 753.202 20.0439 756.556 20.0439Z" fill="white"/>
<path d="M206.201 121.524C206.201 123.036 207.065 124.224 207.821 124.224C226.721 124.224 230.393 124.116 232.445 124.224C232.877 124.224 233.741 122.604 233.741 122.172C233.741 114.828 233.741 108.78 233.309 106.188C232.985 104.244 232.769 103.164 228.125 101.976C224.129 100.896 223.481 99.276 223.481 98.52C223.481 97.44 225.425 96.144 227.693 96.144C232.121 96.144 235.145 96.468 239.249 96.468C243.461 96.468 254.261 96.144 256.421 96.144C258.581 96.144 259.877 97.224 259.877 98.52C259.877 99.708 258.581 100.896 255.773 101.544C252.425 102.3 251.669 103.92 251.345 106.512C250.913 109.644 250.805 118.068 250.805 127.464C250.805 140.856 251.129 144.636 251.345 148.632C251.669 153.816 253.505 154.68 256.853 155.544C259.877 156.3 260.957 157.596 260.957 158.784C260.957 160.188 259.229 161.376 256.853 161.376C254.801 161.376 250.697 161.052 246.701 161.052C241.085 161.052 231.797 161.592 228.557 161.592C226.397 161.592 224.345 160.728 224.345 159C224.345 157.92 225.317 157.056 228.665 155.76C232.661 154.248 233.093 151.872 233.417 150.144C233.957 146.796 234.173 138.048 233.741 134.268C233.417 131.568 232.445 131.352 232.337 131.352C224.345 131.352 209.009 131.676 207.497 131.676C206.741 131.676 206.201 133.836 206.201 134.376C206.201 137.292 206.309 147.768 206.417 149.388C206.741 153.06 207.173 154.788 212.573 156.084C213.869 156.408 216.029 157.812 216.029 159.216C216.029 161.052 214.517 161.484 211.817 161.484C208.685 161.484 200.909 161.052 196.265 161.052C192.809 161.052 186.545 161.592 183.305 161.592C181.037 161.592 179.201 160.404 179.201 159.108C179.201 157.92 181.145 156.732 183.089 155.976C187.625 154.14 188.489 153.168 188.705 148.524C189.029 143.772 189.029 131.784 189.029 116.232C189.029 108.132 188.705 107.376 188.489 106.08C188.057 103.596 186.761 102.084 181.793 100.896C180.605 100.572 179.417 99.6 179.417 98.412C179.417 97.224 181.793 96.036 183.845 96.036C189.137 96.036 196.589 96.468 199.505 96.468C202.853 96.468 205.013 96.252 208.793 96.252C210.521 96.252 212.681 96.792 212.681 98.736C212.681 100.356 210.089 101.328 208.793 101.76C207.065 102.408 206.201 104.568 206.201 107.268C206.201 110.616 206.201 114.612 206.201 121.524ZM265.571 98.304C265.571 96.684 268.163 95.928 269.459 95.928C271.511 95.928 284.363 96.468 287.387 96.468C291.707 96.468 295.703 96.252 297.539 96.252C299.483 96.252 300.995 97.332 300.995 98.52C300.995 99.168 300.023 100.572 297.323 101.652C295.055 102.624 295.163 103.488 296.243 105.864C299.699 113.1 305.207 122.172 306.935 125.088C307.367 125.736 308.231 125.628 308.771 125.196C309.959 124.116 316.115 112.236 318.059 107.916C319.895 104.028 319.247 102.948 315.251 101.544C313.631 101.004 311.795 100.032 311.795 98.628C311.795 97.116 313.739 96.252 316.007 96.252C320.867 96.252 320.759 96.468 323.459 96.468C327.563 96.468 332.531 96.036 336.311 96.036C338.147 96.036 339.443 97.224 339.443 98.196C339.443 99.492 337.823 100.788 335.771 101.436C332.207 102.624 329.183 104.352 325.835 108.888C321.083 115.368 313.523 127.248 311.363 132C310.715 133.404 310.715 134.592 310.607 136.86C310.391 140.532 310.391 147.66 310.391 150.792C310.715 153.492 313.523 154.68 317.843 156.192C319.787 156.84 320.759 157.92 320.759 159.108C320.759 160.188 319.139 161.7 316.979 161.7C312.767 161.7 308.987 161.052 302.399 161.052C293.219 161.052 292.031 161.376 288.143 161.376C285.011 161.376 283.283 160.404 283.283 158.676C283.283 157.488 285.119 156.084 288.035 155.328C291.599 154.464 292.571 153.816 292.895 148.308C293.111 144.744 293.111 138.48 293.111 136.32C293.111 134.484 292.679 132.756 290.951 129.732C286.307 121.092 280.799 111.588 277.451 107.052C275.831 104.784 273.995 102.624 269.675 101.436C266.867 100.68 265.571 99.708 265.571 98.304ZM378.071 95.712C388.439 95.712 399.131 97.98 407.123 104.676C416.195 112.344 418.031 121.956 418.031 128.652C418.031 145.176 407.015 153.708 401.183 156.948C393.515 161.052 385.415 161.916 377.423 161.916C372.995 161.916 361.223 161.052 357.767 161.052C354.311 161.052 349.451 161.052 344.267 161.484C343.403 161.592 342.539 160.836 342.539 160.08C342.539 158.892 344.159 156.3 346.859 155.544C350.315 154.572 352.151 154.896 353.015 150.036C353.771 145.824 353.771 140.424 353.771 126.168C353.771 111.372 353.987 109.536 353.231 105.756C353.015 104.568 352.799 102.948 347.723 101.868C345.131 101.328 343.619 100.14 343.619 98.628C343.619 97.008 345.347 96.36 348.479 96.36L355.931 96.468C359.711 96.576 370.511 95.712 378.071 95.712ZM378.071 101.436C377.207 101.436 373.643 101.868 372.887 102.3C372.455 102.516 371.375 104.568 371.375 105C371.159 108.672 370.727 113.316 370.727 121.416V129.192C370.727 143.016 371.159 144.744 371.483 147.984C371.699 150.252 372.887 152.52 374.183 153.6C375.371 154.572 379.259 156.408 380.663 156.408C381.851 156.408 387.683 155.112 392.435 150.576C397.295 145.932 399.347 136.86 399.347 129.624C399.347 121.74 397.295 113.64 391.787 108.24C387.035 103.488 381.527 101.436 378.071 101.436ZM486.028 113.424C486.028 117.528 483.976 122.172 481.168 124.548C479.548 125.952 478.036 126.276 475.768 127.572C475.228 127.896 475.768 129.948 476.092 130.596C478.468 135.348 483.328 143.34 487.432 148.524C491.212 153.276 494.56 155.112 497.908 156.408C498.988 156.84 500.392 157.812 500.392 158.784C500.392 161.592 496.936 162.456 494.02 162.456C485.38 162.456 477.064 161.592 469.504 151.764C465.616 146.688 462.7 141.288 459.676 136.428C457.948 133.62 456.436 133.08 454.708 133.08C453.952 133.08 453.844 134.376 453.844 134.7C453.844 143.34 453.844 145.932 454.168 149.712C454.492 153.6 455.572 153.708 459.892 155.76C461.836 156.732 463.132 157.92 463.132 158.784C463.132 159.972 460.864 161.484 459.028 161.484C456.328 161.484 448.012 161.052 444.232 161.052C440.884 161.052 435.808 161.484 431.812 161.484C429.22 161.484 427.708 160.188 427.708 159.108C427.708 157.596 429.22 156.516 431.272 155.976C435.7 154.68 436.78 153.816 436.996 148.416C437.104 144.528 437.104 142.584 437.104 123.144C437.104 109.86 436.78 109.212 436.564 106.944C436.348 104.784 435.376 102.624 431.272 101.868C429.22 101.436 427.924 99.816 427.924 99.06C427.924 97.224 430.084 96.252 432.676 96.252C438.184 96.252 440.02 96.468 441.424 96.468C448.552 96.468 454.492 95.82 462.052 95.82C471.556 95.82 476.524 97.872 479.116 99.816C483.76 103.38 486.028 107.7 486.028 113.424ZM469.396 115.26C469.396 108.456 464.752 101.76 456.976 101.76C456.544 101.76 454.924 102.192 454.276 102.624C453.952 102.84 453.628 103.38 453.628 104.352C453.628 107.376 453.844 117.42 453.844 124.656C453.844 125.088 454.276 126.384 454.708 126.6C456.22 127.248 457.624 127.572 459.46 127.572C461.836 127.572 465.724 125.088 466.372 124.656C467.02 124.224 469.396 120.444 469.396 115.26ZM541.169 94.308C563.633 94.308 578.753 109.428 578.753 128.76C578.753 142.26 570.761 152.844 560.609 158.46C555.965 161.052 548.405 162.996 541.493 162.996C518.705 162.996 503.801 147.444 503.801 128.76C503.801 120.444 506.933 112.236 513.629 105.54C520.649 98.52 531.017 94.308 541.169 94.308ZM539.225 99.924C534.149 99.924 529.613 104.244 529.505 104.352C524.969 109.32 523.025 116.664 523.025 126.816C523.025 141.504 529.721 157.488 544.301 157.488C547.973 157.488 552.293 154.248 552.833 153.816C556.289 150.576 559.097 143.772 559.097 129.516C559.097 118.176 553.481 99.924 539.225 99.924ZM608.437 96.468H641.485C647.533 96.468 650.233 95.712 650.665 95.172C651.961 93.552 653.149 92.58 653.905 92.58C654.553 92.58 657.361 94.308 657.361 96.036C657.361 96.792 656.065 103.596 656.065 110.832C656.065 112.992 654.445 115.368 652.393 115.368C650.881 115.368 650.017 112.668 649.801 111.696C648.181 104.568 646.345 104.352 642.457 103.92C640.837 103.704 640.513 103.38 631.333 103.38C630.793 103.38 630.469 104.244 630.361 105.324C630.253 106.836 629.605 121.416 629.605 128.22C629.605 134.808 629.497 141.936 629.821 145.824C630.469 153.708 632.305 154.032 636.733 155.652C638.677 156.408 640.513 157.38 640.513 158.676C640.513 161.052 637.921 161.592 635.761 161.592C634.681 161.592 622.801 161.052 616.321 161.052C613.189 161.052 607.357 161.376 604.441 161.376C602.173 161.376 600.013 160.404 600.013 158.46C600.013 157.596 601.093 156.084 603.577 155.436C610.273 153.6 612.109 152.196 612.109 146.256C612.109 143.988 612.325 129.624 612.325 122.604C612.325 115.908 612.433 108.78 612.433 105.432C612.433 104.568 611.353 103.38 611.029 103.38C608.329 103.38 604.333 103.38 601.525 103.488C598.501 103.596 595.585 103.596 592.669 111.696C592.021 113.532 590.725 114.936 589.537 114.936C588.133 114.936 586.513 112.992 586.513 110.4C586.513 107.052 587.701 102.192 587.701 96.252C587.701 94.416 589.321 92.796 590.617 92.796C590.941 92.796 592.237 93.444 592.993 93.984C594.829 95.496 596.449 96.144 599.581 96.252C604.009 96.468 604.981 96.468 608.437 96.468ZM692.201 121.524C692.201 123.036 693.065 124.224 693.821 124.224C712.721 124.224 716.393 124.116 718.445 124.224C718.877 124.224 719.741 122.604 719.741 122.172C719.741 114.828 719.741 108.78 719.309 106.188C718.985 104.244 718.769 103.164 714.125 101.976C710.129 100.896 709.481 99.276 709.481 98.52C709.481 97.44 711.425 96.144 713.693 96.144C718.121 96.144 721.145 96.468 725.249 96.468C729.461 96.468 740.261 96.144 742.421 96.144C744.581 96.144 745.877 97.224 745.877 98.52C745.877 99.708 744.581 100.896 741.773 101.544C738.425 102.3 737.669 103.92 737.345 106.512C736.913 109.644 736.805 118.068 736.805 127.464C736.805 140.856 737.129 144.636 737.345 148.632C737.669 153.816 739.505 154.68 742.853 155.544C745.877 156.3 746.957 157.596 746.957 158.784C746.957 160.188 745.229 161.376 742.853 161.376C740.801 161.376 736.697 161.052 732.701 161.052C727.085 161.052 717.797 161.592 714.557 161.592C712.397 161.592 710.345 160.728 710.345 159C710.345 157.92 711.317 157.056 714.665 155.76C718.661 154.248 719.093 151.872 719.417 150.144C719.957 146.796 720.173 138.048 719.741 134.268C719.417 131.568 718.445 131.352 718.337 131.352C710.345 131.352 695.009 131.676 693.497 131.676C692.741 131.676 692.201 133.836 692.201 134.376C692.201 137.292 692.309 147.768 692.417 149.388C692.741 153.06 693.173 154.788 698.573 156.084C699.869 156.408 702.029 157.812 702.029 159.216C702.029 161.052 700.517 161.484 697.817 161.484C694.685 161.484 686.909 161.052 682.265 161.052C678.809 161.052 672.545 161.592 669.305 161.592C667.037 161.592 665.201 160.404 665.201 159.108C665.201 157.92 667.145 156.732 669.089 155.976C673.625 154.14 674.489 153.168 674.705 148.524C675.029 143.772 675.029 131.784 675.029 116.232C675.029 108.132 674.705 107.376 674.489 106.08C674.057 103.596 672.761 102.084 667.793 100.896C666.605 100.572 665.417 99.6 665.417 98.412C665.417 97.224 667.793 96.036 669.845 96.036C675.137 96.036 682.589 96.468 685.505 96.468C688.853 96.468 691.013 96.252 694.793 96.252C696.521 96.252 698.681 96.792 698.681 98.736C698.681 100.356 696.089 101.328 694.793 101.76C693.065 102.408 692.201 104.568 692.201 107.268C692.201 110.616 692.201 114.612 692.201 121.524ZM779.571 96.468H790.695C800.523 96.468 802.035 96.468 804.519 95.928C805.707 95.712 806.463 96.36 806.787 96.9C807.435 97.98 808.299 106.188 808.299 108.564C808.299 111.372 807.003 112.02 806.355 112.02C804.411 112.02 803.331 110.832 802.035 107.916C799.983 103.488 798.471 102.732 797.607 102.732C791.451 102.732 785.511 103.056 783.999 103.056C783.459 103.056 782.595 104.244 782.595 104.676C782.487 106.728 782.271 114.504 782.271 121.956C782.271 123.684 782.595 124.764 783.135 124.872C784.323 125.196 788.103 125.088 790.047 124.98C794.907 124.656 796.419 122.928 797.607 120.228C798.255 118.608 799.335 117.312 800.523 117.312C802.035 117.312 803.007 118.824 802.791 121.956C802.683 123.252 802.575 125.736 802.575 128.22C802.575 130.704 802.791 133.188 802.899 134.808C803.115 137.724 801.495 139.02 800.415 139.02C799.443 139.02 798.039 137.832 797.067 135.672C795.987 133.188 795.663 132.432 793.395 132.216C788.967 131.892 788.319 131.676 783.459 131.676C782.919 131.676 782.271 133.188 782.271 135.888C782.271 138.804 782.595 145.068 782.703 147.444C782.919 150.576 783.351 151.764 783.675 152.196C784.755 153.816 789.939 155.22 795.123 155.22C796.851 155.22 799.875 154.896 802.359 153.492C804.411 152.412 805.491 151.116 807.867 147.876C809.595 145.5 810.783 142.908 812.511 142.908C814.563 142.908 815.211 146.04 814.779 148.308C814.131 151.44 811.539 158.676 811.107 159.648C810.783 160.404 808.515 161.592 807.867 161.592C806.463 161.592 802.143 161.052 782.487 161.052C775.683 161.052 762.075 161.484 757.431 161.484C755.163 161.484 753.543 160.62 753.543 159.756C753.543 158.46 754.407 156.948 756.675 156.3C764.127 154.248 764.343 151.764 764.559 149.82C764.991 144.636 765.099 142.368 765.099 125.736C765.099 109.104 764.883 108.456 764.559 106.512C764.019 103.272 762.615 102.084 758.295 101.004C755.487 100.356 755.055 98.844 755.055 98.088C755.055 96.684 757.215 95.928 758.619 95.928C760.455 95.928 772.443 96.468 779.571 96.468ZM883.434 113.424C883.434 117.528 881.382 122.172 878.574 124.548C876.954 125.952 875.442 126.276 873.174 127.572C872.634 127.896 873.174 129.948 873.498 130.596C875.874 135.348 880.734 143.34 884.838 148.524C888.618 153.276 891.966 155.112 895.314 156.408C896.394 156.84 897.798 157.812 897.798 158.784C897.798 161.592 894.342 162.456 891.426 162.456C882.786 162.456 874.47 161.592 866.91 151.764C863.022 146.688 860.106 141.288 857.082 136.428C855.354 133.62 853.842 133.08 852.114 133.08C851.358 133.08 851.25 134.376 851.25 134.7C851.25 143.34 851.25 145.932 851.574 149.712C851.898 153.6 852.978 153.708 857.298 155.76C859.242 156.732 860.538 157.92 860.538 158.784C860.538 159.972 858.27 161.484 856.434 161.484C853.734 161.484 845.418 161.052 841.638 161.052C838.29 161.052 833.214 161.484 829.218 161.484C826.626 161.484 825.114 160.188 825.114 159.108C825.114 157.596 826.626 156.516 828.678 155.976C833.106 154.68 834.186 153.816 834.402 148.416C834.51 144.528 834.51 142.584 834.51 123.144C834.51 109.86 834.186 109.212 833.97 106.944C833.754 104.784 832.782 102.624 828.678 101.868C826.626 101.436 825.33 99.816 825.33 99.06C825.33 97.224 827.49 96.252 830.082 96.252C835.59 96.252 837.426 96.468 838.83 96.468C845.958 96.468 851.898 95.82 859.458 95.82C868.962 95.82 873.93 97.872 876.522 99.816C881.166 103.38 883.434 107.7 883.434 113.424ZM866.802 115.26C866.802 108.456 862.158 101.76 854.382 101.76C853.95 101.76 852.33 102.192 851.682 102.624C851.358 102.84 851.034 103.38 851.034 104.352C851.034 107.376 851.25 117.42 851.25 124.656C851.25 125.088 851.682 126.384 852.114 126.6C853.626 127.248 855.03 127.572 856.866 127.572C859.242 127.572 863.13 125.088 863.778 124.656C864.426 124.224 866.802 120.444 866.802 115.26ZM904.595 99.06C904.595 97.872 906.215 96.036 908.591 96.036C911.291 96.036 928.355 96.468 929.003 96.468C929.543 96.468 931.055 98.304 931.163 98.52C931.595 100.032 932.999 102.624 935.267 107.916C937.643 113.424 945.959 131.892 948.443 134.916C948.443 135.024 949.415 135.456 949.739 134.7C953.303 127.032 958.055 117.096 961.619 108.888C963.671 104.136 964.427 101.112 965.291 98.736C965.507 98.088 966.695 96.684 967.343 96.684C969.179 96.684 984.731 95.928 988.187 95.928C989.267 95.928 991.751 97.008 991.751 98.52C991.751 99.816 990.779 100.464 988.619 101.112C981.707 103.164 981.491 103.704 981.491 106.512C981.491 121.848 982.247 134.268 982.679 145.5C983.003 154.356 985.271 155.004 988.943 155.868C992.291 156.624 993.371 157.812 993.371 159.108C993.371 160.188 991.319 161.7 989.051 161.7C987.755 161.7 975.659 161.052 970.475 161.052C965.615 161.052 962.915 161.484 960.323 161.484C957.623 161.484 956.867 159.216 956.867 158.46C956.867 157.596 958.595 156.732 959.135 156.516C964.427 154.68 965.399 153.384 965.507 147.444C965.615 144.636 965.399 125.196 965.723 114.828C965.723 114.288 964.967 114.396 964.427 115.368C963.023 117.96 953.627 140.532 951.359 145.932C950.171 148.74 948.443 153.924 946.931 157.596C945.851 160.08 943.907 161.808 941.531 161.808C940.559 161.808 938.939 159.972 938.399 158.136C936.779 152.844 934.619 147.66 933.647 144.852C928.895 131.46 924.575 123.252 921.875 116.664C921.443 115.584 920.579 115.8 920.579 116.556C919.715 128.976 919.175 141.396 919.175 146.904C919.175 153.384 919.931 153.708 925.655 155.976C928.031 156.948 929.111 157.596 929.111 159C929.111 160.188 927.599 161.484 925.115 161.484C923.603 161.484 919.715 161.052 916.583 161.052C913.127 161.052 905.243 161.7 903.839 161.7C901.787 161.7 899.843 160.62 899.843 159.216C899.843 158.244 900.815 157.164 903.407 156.3C908.807 154.572 910.535 152.412 911.291 147.876C912.587 140.424 915.071 115.26 915.287 109.644C915.503 103.812 913.883 103.056 908.483 101.544C905.783 100.788 904.595 99.924 904.595 99.06ZM1041.36 94.308C1043.31 94.308 1043.96 97.548 1046.76 104.784C1052.6 120.444 1061.45 141.396 1064.37 147.984C1067.07 154.032 1068.58 154.14 1072.79 155.868C1075.28 156.948 1076.14 158.568 1076.14 159.756C1076.14 161.052 1074.41 161.592 1072.36 161.592C1069.01 161.592 1060.59 161.052 1055.3 161.052C1050.65 161.052 1047.74 161.592 1043.85 161.592C1040.82 161.592 1039.85 160.296 1039.85 159.54C1039.85 158.244 1041.15 156.732 1043.2 155.868C1046.98 154.248 1046.98 151.872 1046.44 150.036C1045.47 147.336 1045.36 146.796 1043.96 143.556C1043.85 143.232 1042.88 142.044 1041.15 141.828C1039.31 141.612 1025.81 141.396 1023.33 141.936C1022.68 142.044 1021.82 143.124 1021.6 143.556C1020.74 145.716 1019.87 149.82 1019.87 151.224C1019.87 153.168 1021.28 154.788 1024.73 155.976C1026.24 156.516 1027.86 157.38 1027.86 158.784C1027.86 159.324 1026.35 161.376 1023.54 161.376C1022.25 161.376 1019.87 161.052 1016.42 161.052C1012.42 161.052 1007.99 161.592 1003.46 161.592C1001.08 161.592 999.461 160.512 999.461 159.216C999.461 158.136 1000.32 157.056 1002.7 156.084C1006.7 154.464 1008.86 154.14 1012.31 146.904C1015.01 141.18 1022.68 121.74 1029.16 104.676C1029.27 104.352 1029.48 103.596 1029.48 102.408C1029.48 101.976 1030.02 101.22 1030.46 100.896C1031.86 100.032 1037.26 96.468 1038.45 95.496C1039.1 94.848 1040.82 94.308 1041.36 94.308ZM1039.2 134.592C1039.74 134.592 1040.39 133.62 1040.28 133.296C1038.66 128.004 1034.13 116.448 1033.16 114.72C1032.72 113.964 1032.08 114.288 1031.75 114.72C1030.02 118.284 1025.38 131.568 1025.06 133.188C1024.95 133.836 1025.49 134.7 1026.24 134.7C1027.65 134.7 1037.69 134.7 1039.2 134.592ZM1081.82 98.412C1081.82 96.684 1083.87 96.252 1085.28 96.252C1085.82 96.252 1095.21 96.468 1099.53 96.468C1103.85 96.468 1112.28 96.144 1114.44 96.144C1116.7 96.144 1118 97.224 1118 98.52C1118 99.816 1116.6 100.896 1114.33 101.328C1108.28 102.624 1107.96 105 1107.85 107.268C1107.63 109.752 1107.2 115.8 1107.2 125.088C1107.2 136.428 1107.52 146.796 1107.74 150.468C1107.85 152.088 1110.44 154.356 1114.54 155.328C1116.06 155.652 1119.62 155.76 1123.51 155.004C1126.75 154.356 1132.15 147.984 1134.42 143.88C1135.5 141.828 1136.68 141.072 1137.01 141.072C1138.95 141.072 1140.25 143.34 1139.71 145.284C1138.95 147.984 1136.9 156.516 1136.14 158.676C1135.5 160.296 1133.55 161.376 1131.39 161.376C1127.61 161.376 1116.16 161.052 1102.77 161.052C1095.43 161.052 1084.63 161.592 1082.25 161.592C1079.88 161.592 1078.04 160.404 1078.04 158.892C1078.04 157.38 1079.66 156.624 1081.5 156.3C1088.73 154.896 1089.49 152.304 1089.7 149.82C1089.92 146.58 1090.14 142.044 1090.14 129.192C1090.14 109.644 1090.24 109.86 1090.03 106.944C1089.7 103.38 1088.52 102.84 1084.95 101.328C1082.68 100.356 1081.82 99.6 1081.82 98.412Z" fill="white"/>
<path d="M181.487 179.076C181.487 176.606 184.421 175.988 186.428 175.988C187.2 175.988 200.632 176.297 206.807 176.297C212.983 176.297 225.025 175.834 228.113 175.834C231.355 175.834 233.208 177.378 233.208 179.23C233.208 181.083 231.201 182.627 227.959 183.244C219.313 185.097 218.85 188.494 218.695 191.736C218.387 195.287 217.769 203.933 217.769 217.21C217.769 233.421 218.232 248.243 218.541 253.492C218.695 255.808 222.401 259.05 228.268 260.439C230.429 260.903 235.524 261.057 241.082 259.976C245.714 259.05 253.433 249.941 256.675 244.074C258.219 241.141 259.918 240.06 260.381 240.06C263.16 240.06 265.012 243.302 264.24 246.081C263.16 249.941 260.226 262.138 259.146 265.225C258.219 267.541 255.44 269.085 252.352 269.085C246.949 269.085 230.583 268.622 211.439 268.622C200.941 268.622 185.502 269.394 182.105 269.394C178.708 269.394 176.084 267.696 176.084 265.534C176.084 263.373 178.4 262.292 181.024 261.829C191.368 259.822 192.449 256.116 192.758 252.566C193.067 247.934 193.375 241.449 193.375 223.077C193.375 195.132 193.53 195.441 193.221 191.273C192.758 186.178 191.06 185.406 185.965 183.244C182.723 181.855 181.487 180.774 181.487 179.076ZM328.766 173.209C360.879 173.209 382.494 194.824 382.494 222.459C382.494 241.758 371.069 256.888 356.556 264.917C349.917 268.622 339.11 271.401 329.229 271.401C296.653 271.401 275.347 249.169 275.347 222.459C275.347 210.571 279.824 198.838 289.396 189.266C299.432 179.23 314.253 173.209 328.766 173.209ZM325.987 181.237C318.731 181.237 312.246 187.413 312.092 187.567C305.607 194.669 302.828 205.168 302.828 219.68C302.828 240.677 312.401 263.527 333.243 263.527C338.492 263.527 344.668 258.896 345.44 258.278C350.38 253.646 354.395 243.92 354.395 223.54C354.395 207.329 346.366 181.237 325.987 181.237ZM437.86 173.363C446.506 173.363 454.689 176.142 460.71 177.532C461.637 177.686 462.717 180.157 462.717 181.855C462.717 183.708 463.798 192.199 463.798 194.515C463.798 199.764 461.328 201.926 459.166 201.926C457.468 201.926 456.079 199.301 455.615 198.066C452.219 188.802 444.19 180.465 435.39 180.465C428.906 180.465 423.039 186.487 423.039 192.353C423.039 199.301 428.134 204.396 436.934 208.873C456.387 218.754 467.812 227.4 467.812 242.067C467.812 254.727 459.166 261.829 453.608 265.225C447.587 268.776 437.397 271.401 430.295 271.401C417.172 271.401 409.607 268.622 406.056 267.233C404.975 266.769 402.505 265.38 401.733 263.682C399.109 258.124 398.645 250.095 398.645 246.39C398.645 243.457 400.189 239.751 402.66 239.751C404.358 239.751 406.365 241.604 408.526 245.618C414.239 256.116 422.73 263.682 432.302 263.682C437.86 263.682 444.808 259.822 444.808 252.72C444.808 248.088 445.117 242.993 429.369 234.502C409.144 223.695 401.27 215.358 401.27 200.999C401.27 190.964 408.372 182.781 415.783 178.613C421.65 175.371 429.06 173.363 437.86 173.363ZM511.169 176.297H558.413C567.058 176.297 570.918 175.216 571.536 174.444C573.388 172.128 575.087 170.739 576.167 170.739C577.094 170.739 581.108 173.209 581.108 175.679C581.108 176.76 579.255 186.487 579.255 196.831C579.255 199.919 576.939 203.315 574.006 203.315C571.844 203.315 570.609 199.455 570.301 198.066C567.985 187.876 565.36 187.567 559.802 186.95C557.486 186.641 557.023 186.178 543.9 186.178C543.128 186.178 542.665 187.413 542.51 188.957C542.356 191.118 541.43 211.961 541.43 221.688C541.43 231.105 541.275 241.295 541.738 246.853C542.665 258.124 545.289 258.587 551.619 260.903C554.398 261.983 557.023 263.373 557.023 265.225C557.023 268.622 553.318 269.394 550.23 269.394C548.686 269.394 531.703 268.622 522.44 268.622C517.962 268.622 509.625 269.085 505.457 269.085C502.215 269.085 499.127 267.696 499.127 264.917C499.127 263.682 500.671 261.52 504.222 260.594C513.794 257.969 516.418 255.962 516.418 247.471C516.418 244.228 516.727 223.695 516.727 213.659C516.727 204.087 516.882 193.897 516.882 189.111C516.882 187.876 515.338 186.178 514.875 186.178C511.015 186.178 505.302 186.178 501.288 186.332C496.965 186.487 492.797 186.487 488.628 198.066C487.702 200.69 485.849 202.698 484.151 202.698C482.144 202.698 479.828 199.919 479.828 196.213C479.828 191.427 481.526 184.48 481.526 175.988C481.526 173.363 483.842 171.048 485.695 171.048C486.158 171.048 488.011 171.974 489.091 172.746C491.716 174.907 494.032 175.834 498.509 175.988C504.839 176.297 506.229 176.297 511.169 176.297ZM684.857 173.209C691.959 173.209 699.061 174.753 703.229 175.834C707.089 176.914 712.647 178.613 713.882 178.613C714.654 178.613 716.507 180.62 716.507 181.546C716.507 187.104 718.051 194.978 718.051 198.838C718.051 203.161 715.117 205.631 713.11 205.631C711.875 205.631 711.103 204.396 709.868 200.999C707.552 194.669 706.626 191.273 700.913 187.104C696.127 183.553 690.724 180.929 684.085 180.929C677.446 180.929 668.955 184.788 663.86 190.964C657.221 198.838 654.133 210.571 654.133 219.835C654.133 231.568 657.993 242.067 662.47 248.397C668.028 256.271 678.218 261.983 687.481 261.983C691.341 261.983 698.289 259.513 701.376 257.815C702.612 257.043 705.391 254.109 709.25 247.934C712.184 243.302 714.036 241.449 715.58 241.449C718.514 241.449 718.823 244.383 718.668 247.625C718.668 249.015 715.735 259.359 715.735 262.292C715.735 262.755 714.5 264.917 714.036 265.225C708.633 267.85 694.892 271.401 684.239 271.401C667.102 271.401 648.884 266.306 637.922 254.264C631.129 246.853 626.343 236.663 626.343 222.923C626.343 206.403 633.754 192.508 647.34 183.09C654.288 178.304 668.8 173.209 684.857 173.209ZM747.034 234.811V199.147C747.034 186.178 746.416 184.48 738.079 182.627C735.454 182.009 733.911 180.157 733.911 178.767C733.911 176.451 737.616 175.679 739.16 175.679C742.093 175.679 751.82 176.297 758.613 176.297C767.876 176.297 775.441 175.834 779.919 175.834C782.235 175.834 784.705 177.069 784.705 179.076C784.705 180.929 782.08 182.164 780.845 182.472C773.28 184.171 772.817 186.178 772.199 194.206C771.736 200.845 771.582 214.277 771.582 224.775C771.582 241.604 771.891 247.625 771.891 249.632C772.199 256.888 772.971 259.976 780.691 261.829C783.624 262.601 785.631 264.145 785.631 266.306C785.631 268.159 782.235 269.085 780.382 269.085C778.838 269.085 763.862 268.622 758.613 268.622C753.209 268.622 741.939 269.24 739.16 269.24C737.153 269.24 733.911 268.776 733.911 266.306C733.911 264.608 736.381 262.601 738.542 261.983C744.718 259.976 745.644 258.124 746.416 253.492C746.879 250.25 747.034 247.471 747.034 234.811ZM826.734 176.297H873.977C882.623 176.297 886.483 175.216 887.1 174.444C888.953 172.128 890.651 170.739 891.732 170.739C892.658 170.739 896.673 173.209 896.673 175.679C896.673 176.76 894.82 186.487 894.82 196.831C894.82 199.919 892.504 203.315 889.571 203.315C887.409 203.315 886.174 199.455 885.865 198.066C883.549 187.876 880.925 187.567 875.367 186.95C873.051 186.641 872.588 186.178 859.465 186.178C858.693 186.178 858.229 187.413 858.075 188.957C857.921 191.118 856.994 211.961 856.994 221.688C856.994 231.105 856.84 241.295 857.303 246.853C858.229 258.124 860.854 258.587 867.184 260.903C869.963 261.983 872.588 263.373 872.588 265.225C872.588 268.622 868.882 269.394 865.795 269.394C864.251 269.394 847.268 268.622 838.004 268.622C833.527 268.622 825.19 269.085 821.022 269.085C817.779 269.085 814.692 267.696 814.692 264.917C814.692 263.682 816.235 261.52 819.786 260.594C829.359 257.969 831.983 255.962 831.983 247.471C831.983 244.228 832.292 223.695 832.292 213.659C832.292 204.087 832.446 193.897 832.446 189.111C832.446 187.876 830.902 186.178 830.439 186.178C826.58 186.178 820.867 186.178 816.853 186.332C812.53 186.487 808.362 186.487 804.193 198.066C803.267 200.69 801.414 202.698 799.716 202.698C797.709 202.698 795.393 199.919 795.393 196.213C795.393 191.427 797.091 184.48 797.091 175.988C797.091 173.363 799.407 171.048 801.26 171.048C801.723 171.048 803.575 171.974 804.656 172.746C807.281 174.907 809.597 175.834 814.074 175.988C820.404 176.297 821.793 176.297 826.734 176.297ZM921.929 234.811V199.147C921.929 186.178 921.311 184.48 912.974 182.627C910.349 182.009 908.805 180.157 908.805 178.767C908.805 176.451 912.511 175.679 914.055 175.679C916.988 175.679 926.715 176.297 933.508 176.297C942.771 176.297 950.336 175.834 954.814 175.834C957.13 175.834 959.6 177.069 959.6 179.076C959.6 180.929 956.975 182.164 955.74 182.472C948.175 184.171 947.712 186.178 947.094 194.206C946.631 200.845 946.477 214.277 946.477 224.775C946.477 241.604 946.785 247.625 946.785 249.632C947.094 256.888 947.866 259.976 955.586 261.829C958.519 262.601 960.526 264.145 960.526 266.306C960.526 268.159 957.13 269.085 955.277 269.085C953.733 269.085 938.757 268.622 933.508 268.622C928.104 268.622 916.834 269.24 914.055 269.24C912.048 269.24 908.805 268.776 908.805 266.306C908.805 264.608 911.276 262.601 913.437 261.983C919.613 259.976 920.539 258.124 921.311 253.492C921.774 250.25 921.929 247.471 921.929 234.811ZM1007.75 176.297H1023.65C1037.7 176.297 1039.86 176.297 1043.41 175.525C1045.11 175.216 1046.19 176.142 1046.66 176.914C1047.58 178.458 1048.82 190.192 1048.82 193.589C1048.82 197.603 1046.97 198.529 1046.04 198.529C1043.26 198.529 1041.72 196.831 1039.86 192.662C1036.93 186.332 1034.77 185.251 1033.53 185.251C1024.73 185.251 1016.24 185.715 1014.08 185.715C1013.31 185.715 1012.07 187.413 1012.07 188.03C1011.92 190.964 1011.61 202.08 1011.61 212.733C1011.61 215.203 1012.07 216.747 1012.85 216.901C1014.54 217.365 1019.95 217.21 1022.73 217.056C1029.67 216.593 1031.84 214.122 1033.53 210.263C1034.46 207.947 1036 206.094 1037.7 206.094C1039.86 206.094 1041.25 208.256 1040.94 212.733C1040.79 214.586 1040.64 218.137 1040.64 221.688C1040.64 225.238 1040.94 228.789 1041.1 231.105C1041.41 235.274 1039.09 237.127 1037.55 237.127C1036.16 237.127 1034.15 235.428 1032.76 232.34C1031.22 228.789 1030.75 227.709 1027.51 227.4C1021.18 226.937 1020.26 226.628 1013.31 226.628C1012.54 226.628 1011.61 228.789 1011.61 232.649C1011.61 236.818 1012.07 245.772 1012.23 249.169C1012.54 253.646 1013.15 255.345 1013.62 255.962C1015.16 258.278 1022.57 260.285 1029.98 260.285C1032.45 260.285 1036.78 259.822 1040.33 257.815C1043.26 256.271 1044.8 254.418 1048.2 249.786C1050.67 246.39 1052.37 242.685 1054.84 242.685C1057.77 242.685 1058.7 247.162 1058.08 250.404C1057.15 254.881 1053.45 265.225 1052.83 266.615C1052.37 267.696 1049.13 269.394 1048.2 269.394C1046.19 269.394 1040.02 268.622 1011.92 268.622C1002.19 268.622 982.739 269.24 976.1 269.24C972.858 269.24 970.542 268.005 970.542 266.769C970.542 264.917 971.777 262.755 975.02 261.829C985.672 258.896 985.981 255.345 986.29 252.566C986.908 245.155 987.062 241.913 987.062 218.137C987.062 194.36 986.753 193.434 986.29 190.655C985.518 186.023 983.511 184.325 977.335 182.781C973.321 181.855 972.704 179.693 972.704 178.613C972.704 176.606 975.791 175.525 977.799 175.525C980.423 175.525 997.56 176.297 1007.75 176.297ZM1110.3 173.363C1118.95 173.363 1127.13 176.142 1133.15 177.532C1134.08 177.686 1135.16 180.157 1135.16 181.855C1135.16 183.708 1136.24 192.199 1136.24 194.515C1136.24 199.764 1133.77 201.926 1131.61 201.926C1129.91 201.926 1128.52 199.301 1128.06 198.066C1124.66 188.802 1116.63 180.465 1107.83 180.465C1101.35 180.465 1095.48 186.487 1095.48 192.353C1095.48 199.301 1100.57 204.396 1109.37 208.873C1128.83 218.754 1140.25 227.4 1140.25 242.067C1140.25 254.727 1131.61 261.829 1126.05 265.225C1120.03 268.776 1109.84 271.401 1102.74 271.401C1089.61 271.401 1082.05 268.622 1078.5 267.233C1077.42 266.769 1074.95 265.38 1074.17 263.682C1071.55 258.124 1071.09 250.095 1071.09 246.39C1071.09 243.457 1072.63 239.751 1075.1 239.751C1076.8 239.751 1078.81 241.604 1080.97 245.618C1086.68 256.116 1095.17 263.682 1104.74 263.682C1110.3 263.682 1117.25 259.822 1117.25 252.72C1117.25 248.088 1117.56 242.993 1101.81 234.502C1081.58 223.695 1073.71 215.358 1073.71 200.999C1073.71 190.964 1080.81 182.781 1088.22 178.613C1094.09 175.371 1101.5 173.363 1110.3 173.363Z" fill="white"/>
<path d="M85.4241 202.561V200.061H82.9241V202.561H85.4241ZM100.413 202.561H102.913V200.061H100.413V202.561ZM100.413 251.104V253.604H102.913V251.104H100.413ZM98.362 251.104L96.7775 253.038L97.4686 253.604H98.362V251.104ZM77.7456 235.852L76.3271 237.911L76.3289 237.912L77.7456 235.852ZM42.3507 225.597L44.0386 227.441L44.047 227.433L44.0554 227.425L42.3507 225.597ZM48.3988 250.157V252.657H54.2256L50.2106 248.435L48.3988 250.157ZM32.9892 250.157L30.8919 251.518L31.631 252.657H32.9892V250.157ZM31.5691 212.554L33.429 214.224L33.4359 214.216L31.5691 212.554ZM85.4241 226.228L83.8749 228.19L87.9241 231.387V226.228H85.4241ZM85.4241 205.061H100.413V200.061H85.4241V205.061ZM97.9131 202.561V251.104H102.913V202.561H97.9131ZM100.413 248.604H98.362V253.604H100.413V248.604ZM99.9464 249.17C94.4401 244.659 87.5071 239.532 79.1623 233.792L76.3289 237.912C84.6034 243.603 91.4147 248.644 96.7775 253.038L99.9464 249.17ZM79.1641 233.794C70.8353 228.054 64.7207 224.287 60.9568 222.669L58.9817 227.262C62.2301 228.659 67.9664 232.15 76.3271 237.911L79.1641 233.794ZM60.9568 222.669C57.1875 221.048 53.4511 220.204 49.7662 220.204V225.204C52.6731 225.204 55.7386 225.868 58.9817 227.262L60.9568 222.669ZM49.7662 220.204C46.2701 220.204 43.1859 221.4 40.646 223.768L44.0554 227.425C45.6527 225.936 47.5122 225.204 49.7662 225.204V220.204ZM40.6628 223.752C38.0994 226.099 36.7477 229.055 36.7477 232.486H41.7477C41.7477 230.518 42.4647 228.881 44.0386 227.441L40.6628 223.752ZM36.7477 232.486C36.7477 238.799 40.3154 245.284 46.5871 251.88L50.2106 248.435C44.2808 242.198 41.7477 236.902 41.7477 232.486H36.7477ZM48.3988 247.657H32.9892V252.657H48.3988V247.657ZM35.0864 248.797C30.605 241.889 28.4943 235.502 28.4943 229.594H23.4943C23.4943 236.728 26.0468 244.05 30.8919 251.518L35.0864 248.797ZM28.4943 229.594C28.4943 222.799 30.2355 217.779 33.4289 214.224L29.7093 210.883C25.4697 215.603 23.4943 221.943 23.4943 229.594H28.4943ZM33.4359 214.216C36.6001 210.664 40.974 208.795 46.8736 208.795V203.795C39.8004 203.795 33.9713 206.098 29.7024 210.891L33.4359 214.216ZM46.8736 208.795C50.7336 208.795 55.7472 210.258 62.016 213.499C68.2495 216.722 75.5315 221.602 83.8749 228.19L86.9734 224.266C78.4871 217.565 70.9292 212.479 64.3125 209.058C57.7311 205.655 51.8843 203.795 46.8736 203.795V208.795ZM87.9241 226.228V202.561H82.9241V226.228H87.9241ZM36.0395 149.495L37.4009 151.592L37.4085 151.587L36.0395 149.495ZM91.3145 149.284L89.9766 151.396L91.3145 149.284ZM91.3671 186.152L92.7488 188.236L92.7564 188.23L91.3671 186.152ZM35.9343 186.047L34.525 188.112L34.5274 188.113L35.9343 186.047ZM82.2686 161.276L83.1489 158.936L83.1414 158.933L82.2686 161.276ZM44.8751 161.276L45.7661 163.611L45.7807 163.606L45.7952 163.6L44.8751 161.276ZM44.7699 174.371L43.7998 176.675L43.8119 176.68L44.7699 174.371ZM82.216 174.371L83.1013 176.709L83.115 176.704L83.1287 176.699L82.216 174.371ZM28.4943 167.692C28.4943 160.781 31.3921 155.493 37.4008 151.592L34.6782 147.398C27.2934 152.192 23.4943 159.036 23.4943 167.692H28.4943ZM37.4085 151.587C43.557 147.563 52.1189 145.421 63.3352 145.421V140.421C51.5509 140.421 41.9157 142.661 34.6705 147.403L37.4085 151.587ZM63.3352 145.421C75.0418 145.421 83.8346 147.505 89.9766 151.396L92.6524 147.173C85.4008 142.579 75.5407 140.421 63.3352 140.421V145.421ZM89.9766 151.396C95.9542 155.183 98.8598 160.454 98.8598 167.482H103.86C103.86 158.731 100.068 151.871 92.6524 147.173L89.9766 151.396ZM98.8598 167.482C98.8598 174.639 95.9475 180.083 89.9779 184.074L92.7564 188.23C100.11 183.315 103.86 176.313 103.86 167.482H98.8598ZM89.9854 184.069C83.8845 188.114 75.2125 190.279 63.7033 190.279V195.279C75.7557 195.279 85.5262 193.025 92.7488 188.236L89.9854 184.069ZM63.7033 190.279C52.0503 190.279 43.3596 188.078 37.3413 183.98L34.5274 188.113C41.6923 192.992 51.5143 195.279 63.7033 195.279V190.279ZM37.3437 183.982C31.3668 179.902 28.4943 174.541 28.4943 167.692H23.4943C23.4943 176.271 27.2485 183.145 34.525 188.112L37.3437 183.982ZM90.0804 167.692C90.0804 165.675 89.4583 163.831 88.1782 162.285C86.9325 160.78 85.1853 159.702 83.1489 158.936L81.3882 163.616C82.8931 164.182 83.8018 164.839 84.3268 165.473C84.8173 166.066 85.0804 166.763 85.0804 167.692H90.0804ZM83.1414 158.933C79.09 157.424 71.9667 156.777 62.1781 156.777V161.777C72.0242 161.777 78.2946 162.463 81.3958 163.618L83.1414 158.933ZM62.1781 156.777C53.9908 156.777 47.8008 157.429 43.955 158.951L45.7952 163.6C48.6813 162.458 54.0267 161.777 62.1781 161.777V156.777ZM43.9841 158.94C41.9906 159.7 40.2863 160.796 39.0799 162.339C37.8492 163.912 37.2736 165.776 37.2736 167.797H42.2736C42.2736 166.768 42.5483 166.02 43.0181 165.419C43.5122 164.788 44.3586 164.148 45.7661 163.611L43.9841 158.94ZM37.2736 167.797C37.2736 169.786 37.841 171.621 39.0323 173.189C40.2003 174.725 41.8536 175.856 43.7998 176.675L45.7401 172.067C44.3554 171.484 43.5105 170.818 43.0131 170.163C42.5389 169.539 42.2736 168.789 42.2736 167.797H37.2736ZM43.8119 176.68C45.7977 177.504 48.5481 178.047 51.8999 178.396C55.2949 178.75 59.4818 178.922 64.4396 178.922V173.922C59.5801 173.922 55.5801 173.753 52.4185 173.423C49.2137 173.089 47.038 172.606 45.728 172.062L43.8119 176.68ZM64.4396 178.922C72.7173 178.922 79.0355 178.249 83.1013 176.709L81.3307 172.033C78.1737 173.229 72.641 173.922 64.4396 173.922V178.922ZM83.1287 176.699C85.1879 175.891 86.943 174.766 88.1885 173.215C89.4643 171.627 90.0804 169.745 90.0804 167.692H85.0804C85.0804 168.69 84.8025 169.446 84.2902 170.084C83.7476 170.76 82.8204 171.449 81.3033 172.044L83.1287 176.699ZM85.4241 83.7013V81.2013H82.9241V83.7013H85.4241ZM100.413 83.7013H102.913V81.2013H100.413V83.7013ZM100.413 132.244V134.744H102.913V132.244H100.413ZM98.362 132.244L96.7775 134.178L97.4686 134.744H98.362V132.244ZM77.7456 116.993L76.3271 119.051L76.3289 119.052L77.7456 116.993ZM42.3507 106.737L44.0386 108.581L44.047 108.573L44.0554 108.566L42.3507 106.737ZM48.3988 131.298V133.798H54.2256L50.2106 129.575L48.3988 131.298ZM32.9892 131.298L30.8919 132.658L31.631 133.798H32.9892V131.298ZM31.5691 93.6939L33.429 95.3646L33.4359 95.3568L31.5691 93.6939ZM85.4241 107.368L83.8749 109.33L87.9241 112.527V107.368H85.4241ZM85.4241 86.2013H100.413V81.2013H85.4241V86.2013ZM97.9131 83.7013V132.244H102.913V83.7013H97.9131ZM100.413 129.744H98.362V134.744H100.413V129.744ZM99.9464 130.311C94.4401 125.799 87.5071 120.672 79.1623 114.933L76.3289 119.052C84.6034 124.743 91.4147 129.784 96.7775 134.178L99.9464 130.311ZM79.1641 114.934C70.8353 109.195 64.7207 105.428 60.9568 103.809L58.9817 108.402C62.2301 109.799 67.9664 113.29 76.3271 119.051L79.1641 114.934ZM60.9568 103.809C57.1875 102.188 53.4511 101.344 49.7662 101.344V106.344C52.6731 106.344 55.7386 107.008 58.9817 108.402L60.9568 103.809ZM49.7662 101.344C46.2701 101.344 43.1859 102.541 40.646 104.908L44.0554 108.566C45.6527 107.077 47.5122 106.344 49.7662 106.344V101.344ZM40.6628 104.893C38.0994 107.239 36.7477 110.195 36.7477 113.627H41.7477C41.7477 111.658 42.4647 110.022 44.0386 108.581L40.6628 104.893ZM36.7477 113.627C36.7477 119.94 40.3154 126.424 46.5871 133.02L50.2106 129.575C44.2808 123.339 41.7477 118.042 41.7477 113.627H36.7477ZM48.3988 128.798H32.9892V133.798H48.3988V128.798ZM35.0864 129.937C30.605 123.03 28.4943 116.643 28.4943 110.734H23.4943C23.4943 117.868 26.0468 125.191 30.8919 132.658L35.0864 129.937ZM28.4943 110.734C28.4943 103.939 30.2355 98.9196 33.4289 95.3646L29.7093 92.0233C25.4697 96.7429 23.4943 103.084 23.4943 110.734H28.4943ZM33.4359 95.3568C36.6001 91.8046 40.974 89.9354 46.8736 89.9354V84.9354C39.8004 84.9354 33.9713 87.2385 29.7024 92.0311L33.4359 95.3568ZM46.8736 89.9354C50.7336 89.9354 55.7472 91.398 62.016 94.6393C68.2495 97.8623 75.5315 102.742 83.8749 109.33L86.9734 105.406C78.4871 98.7053 70.9292 93.619 64.3125 90.1978C57.7311 86.7949 51.8843 84.9354 46.8736 84.9354V89.9354ZM87.9241 107.368V83.7013H82.9241V107.368H87.9241ZM68.7522 56.7738V59.2738H71.1542L71.2502 56.8737L68.7522 56.7738ZM55.8144 56.7738H53.3144V59.2738H55.8144V56.7738ZM53.2374 49.4634L51.4017 51.1606L51.4098 51.1693L51.4179 51.1779L53.2374 49.4634ZM42.1403 70.5531V73.0531H46.1464L44.386 69.4545L42.1403 70.5531ZM29.2025 70.5531L26.9132 71.5578L27.5695 73.0531H29.2025V70.5531ZM31.0432 36.7886L33.0201 38.319L33.0277 38.309L31.0432 36.7886ZM60.9685 41.1538L58.7786 42.3598L61.3509 47.0304L63.2962 42.0658L60.9685 41.1538ZM95.522 35.3686L97.453 33.7808L97.446 33.7723L95.522 35.3686ZM97.2049 72.3939V74.8939H98.7456L99.4381 73.5176L97.2049 72.3939ZM82.9523 72.3939L80.9066 70.9567L78.1407 74.8939H82.9523V72.3939ZM86.1079 48.5693L88.0258 46.9658L88.0182 46.9566L88.0104 46.9475L86.1079 48.5693ZM71.8552 48.4642L73.6693 50.1844L73.6766 50.1766L73.6839 50.1688L71.8552 48.4642ZM68.7522 54.2738H55.8144V59.2738H68.7522V54.2738ZM58.3144 56.7738C58.3144 53.2325 57.303 50.1326 55.0568 47.7489L51.4179 51.1779C52.6078 52.4407 53.3144 54.2143 53.3144 56.7738H58.3144ZM55.073 47.7663C52.9145 45.4315 50.212 44.176 47.084 44.176V49.176C48.7244 49.176 50.1242 49.7788 51.4017 51.1606L55.073 47.7663ZM47.084 44.176C43.8516 44.176 41.1198 45.5163 39.0514 48.0343L42.9151 51.208C44.0724 49.7991 45.4078 49.176 47.084 49.176V44.176ZM39.0514 48.0343C37.0055 50.5251 36.064 53.6081 36.064 57.0894H41.064C41.064 54.54 41.7353 52.6442 42.9151 51.208L39.0514 48.0343ZM36.064 57.0894C36.064 61.6747 37.3947 66.5417 39.8946 71.6517L44.386 69.4545C42.1174 64.8173 41.064 60.7085 41.064 57.0894H36.064ZM42.1403 68.0531H29.2025V73.0531H42.1403V68.0531ZM31.4917 69.5485C29.5153 65.0448 28.4943 59.8046 28.4943 53.776H23.4943C23.4943 60.3697 24.6121 66.3142 26.9132 71.5578L31.4917 69.5485ZM28.4943 53.776C28.4943 47.2016 30.0754 42.1225 33.02 38.319L29.0664 35.2581C25.2792 40.15 23.4943 46.3958 23.4943 53.776H28.4943ZM33.0277 38.309C35.9046 34.5539 39.4954 32.7671 43.981 32.7671V27.7671C37.878 27.7671 32.8436 30.3279 29.0587 35.2682L33.0277 38.309ZM43.981 32.7671C50.2618 32.7671 55.1514 35.7735 58.7786 42.3598L63.1584 39.9477C58.7915 32.0184 52.3561 27.7671 43.981 27.7671V32.7671ZM63.2962 42.0658C64.835 38.1385 66.9714 35.364 69.6224 33.5548C72.2733 31.7457 75.6342 30.7685 79.8493 30.7685V25.7685C74.8431 25.7685 70.4466 26.9389 66.8039 29.4249C63.1614 31.9107 60.4679 35.5788 58.6408 40.2417L63.2962 42.0658ZM79.8493 30.7685C85.6784 30.7685 90.1778 32.8424 93.5979 36.9648L97.446 33.7723C93.0122 28.428 87.0633 25.7685 79.8493 25.7685V30.7685ZM93.5909 36.9563C97.0171 41.1233 98.8598 46.8518 98.8598 54.4071H103.86C103.86 46.0444 101.811 39.0805 97.453 33.7808L93.5909 36.9563ZM98.8598 54.4071C98.8598 60.5244 97.5569 66.1324 94.9717 71.2701L99.4381 73.5176C102.393 67.6459 103.86 61.2627 103.86 54.4071H98.8598ZM97.2049 69.8939H82.9523V74.8939H97.2049V69.8939ZM84.9979 73.831C89.0685 68.0368 91.2901 62.3685 91.2901 56.879H86.2901C86.2901 60.9965 84.6198 65.6714 80.9066 70.9567L84.9979 73.831ZM91.2901 56.879C91.2901 53.0255 90.2677 49.6472 88.0258 46.9658L84.1899 50.1729C85.5243 51.769 86.2901 53.9305 86.2901 56.879H91.2901ZM88.0104 46.9475C85.6998 44.237 82.6483 42.8612 79.0604 42.8612V47.8612C81.2227 47.8612 82.8695 48.6242 84.2053 50.1912L88.0104 46.9475ZM79.0604 42.8612C75.5049 42.8612 72.4367 44.1741 70.0265 46.7595L73.6839 50.1688C75.1306 48.6169 76.8657 47.8612 79.0604 47.8612V42.8612ZM70.0412 46.7439C67.5988 49.3195 66.4124 52.7205 66.2542 56.6739L71.2502 56.8737C71.3726 53.8148 72.2548 51.676 73.6693 50.1844L70.0412 46.7439Z" fill="white"/>
<path d="M153.902 22.2319L153.692 254.262" stroke="white" stroke-width="2" stroke-miterlimit="10" stroke-linecap="round"/>
</svg>
