<svg width="1217" height="253" viewBox="0 0 1217 253" fill="none" xmlns="http://www.w3.org/2000/svg">
<path d="M62.7657 181.437V178.937H60.2657V181.437H62.7657ZM77.7546 181.437H80.2546V178.937H77.7546V181.437ZM77.7546 229.98V232.48H80.2546V229.98H77.7546ZM75.7036 229.98L74.1191 231.914L74.8102 232.48H75.7036V229.98ZM55.0872 214.728L53.6687 216.787L53.6705 216.788L55.0872 214.728ZM19.6923 204.473L21.3802 206.317L21.3886 206.309L21.397 206.301L19.6923 204.473ZM25.7404 229.033V231.533H31.5672L27.5522 227.311L25.7404 229.033ZM10.3308 229.033L8.23354 230.394L8.97264 231.533H10.3308V229.033ZM8.91074 191.43L10.7706 193.1L10.7775 193.092L8.91074 191.43ZM62.7657 205.104L61.2165 207.066L65.2657 210.263V205.104H62.7657ZM62.7657 183.937H77.7546V178.937H62.7657V183.937ZM75.2547 181.437V229.98H80.2546V181.437H75.2547ZM77.7546 227.48H75.7036V232.48H77.7546V227.48ZM77.288 228.046C71.7817 223.535 64.8487 218.408 56.5039 212.668L53.6705 216.788C61.945 222.479 68.7563 227.52 74.1191 231.914L77.288 228.046ZM56.5057 212.67C48.1769 206.93 42.0623 203.163 38.2984 201.545L36.3233 206.138C39.5717 207.535 45.308 211.026 53.6687 216.787L56.5057 212.67ZM38.2984 201.545C34.5291 199.924 30.7927 199.08 27.1078 199.08V204.08C30.0147 204.08 33.0802 204.744 36.3233 206.138L38.2984 201.545ZM27.1078 199.08C23.6117 199.08 20.5275 200.276 17.9876 202.644L21.397 206.301C22.9943 204.812 24.8538 204.08 27.1078 204.08V199.08ZM18.0044 202.628C15.441 204.975 14.0893 207.931 14.0893 211.362H19.0893C19.0893 209.394 19.8063 207.757 21.3802 206.317L18.0044 202.628ZM14.0893 211.362C14.0893 217.675 17.657 224.16 23.9287 230.756L27.5522 227.311C21.6224 221.074 19.0893 215.778 19.0893 211.362H14.0893ZM25.7404 226.533H10.3308V231.533H25.7404V226.533ZM12.428 227.673C7.94664 220.765 5.83594 214.378 5.83594 208.47H0.835938C0.835938 215.604 3.38844 222.926 8.23354 230.394L12.428 227.673ZM5.83594 208.47C5.83594 201.675 7.57724 196.655 10.7706 193.1L7.05094 189.759C2.81134 194.479 0.835938 200.819 0.835938 208.47H5.83594ZM10.7775 193.092C13.9417 189.54 18.3156 187.671 24.2152 187.671V182.671C17.142 182.671 11.3129 184.974 7.04404 189.767L10.7775 193.092ZM24.2152 187.671C28.0752 187.671 33.0888 189.134 39.3576 192.375C45.5911 195.598 52.8731 200.478 61.2165 207.066L64.315 203.142C55.8287 196.441 48.2708 191.355 41.6541 187.934C35.0727 184.531 29.2259 182.671 24.2152 182.671V187.671ZM65.2657 205.104V181.437H60.2657V205.104H65.2657ZM13.3811 128.371L14.7425 130.468L14.7501 130.463L13.3811 128.371ZM68.7087 165.028L70.0904 167.112L70.098 167.106L68.7087 165.028ZM13.2759 164.923L11.8666 166.988L11.869 166.989L13.2759 164.923ZM59.6102 140.152L60.4905 137.812L60.483 137.809L59.6102 140.152ZM22.2167 140.152L23.1077 142.487L23.1223 142.482L23.1368 142.476L22.2167 140.152ZM22.1115 153.247L21.1414 155.551L21.1535 155.556L22.1115 153.247ZM59.5576 153.247L60.4429 155.585L60.4566 155.58L60.4703 155.575L59.5576 153.247ZM5.83594 146.568C5.83594 139.657 8.73384 134.369 14.7425 130.468L12.0198 126.274C4.63504 131.068 0.835938 137.912 0.835938 146.568H5.83594ZM14.7501 130.463C20.8986 126.439 29.4605 124.297 40.6768 124.297V119.297C28.8925 119.297 19.2573 121.537 12.0121 126.279L14.7501 130.463ZM40.6768 124.297C52.3834 124.297 61.1762 126.381 67.3182 130.272L69.994 126.049C62.7424 121.455 52.8823 119.297 40.6768 119.297V124.297ZM67.3182 130.272C73.2958 134.059 76.2014 139.33 76.2014 146.358H81.2016C81.2016 137.607 77.4096 130.747 69.994 126.049L67.3182 130.272ZM76.2014 146.358C76.2014 153.515 73.2891 158.959 67.3195 162.95L70.098 167.106C77.4516 162.191 81.2016 155.189 81.2016 146.358H76.2014ZM67.327 162.945C61.2261 166.99 52.5541 169.155 41.0449 169.155V174.155C53.0973 174.155 62.8678 171.901 70.0904 167.112L67.327 162.945ZM41.0449 169.155C29.3919 169.155 20.7012 166.954 14.6829 162.856L11.869 166.989C19.0339 171.868 28.8559 174.155 41.0449 174.155V169.155ZM14.6853 162.858C8.70844 158.778 5.83594 153.417 5.83594 146.568H0.835938C0.835938 155.147 4.59014 162.021 11.8666 166.988L14.6853 162.858ZM67.422 146.568C67.422 144.551 66.7999 142.707 65.5198 141.161C64.2741 139.656 62.5269 138.578 60.4905 137.812L58.7298 142.492C60.2347 143.058 61.1434 143.715 61.6684 144.349C62.1589 144.942 62.422 145.639 62.422 146.568H67.422ZM60.483 137.809C56.4316 136.3 49.3083 135.653 39.5197 135.653V140.653C49.3658 140.653 55.6362 141.339 58.7374 142.494L60.483 137.809ZM39.5197 135.653C31.3324 135.653 25.1424 136.305 21.2966 137.827L23.1368 142.476C26.0229 141.334 31.3683 140.653 39.5197 140.653V135.653ZM21.3257 137.816C19.3322 138.576 17.6279 139.672 16.4215 141.215C15.1908 142.788 14.6152 144.652 14.6152 146.673H19.6152C19.6152 145.644 19.8899 144.896 20.3597 144.295C20.8538 143.664 21.7002 143.024 23.1077 142.487L21.3257 137.816ZM14.6152 146.673C14.6152 148.662 15.1826 150.497 16.3739 152.065C17.5419 153.601 19.1952 154.732 21.1414 155.551L23.0817 150.943C21.697 150.36 20.8521 149.694 20.3547 149.039C19.8805 148.415 19.6152 147.665 19.6152 146.673H14.6152ZM21.1535 155.556C23.1393 156.38 25.8897 156.923 29.2415 157.272C32.6365 157.626 36.8234 157.798 41.7812 157.798V152.798C36.9217 152.798 32.9217 152.629 29.7601 152.299C26.5553 151.965 24.3796 151.482 23.0696 150.938L21.1535 155.556ZM41.7812 157.798C50.0589 157.798 56.3771 157.125 60.4429 155.585L58.6723 150.909C55.5153 152.105 49.9826 152.798 41.7812 152.798V157.798ZM60.4703 155.575C62.5295 154.767 64.2846 153.642 65.5301 152.091C66.8059 150.503 67.422 148.621 67.422 146.568H62.422C62.422 147.566 62.1441 148.322 61.6318 148.96C61.0892 149.636 60.162 150.325 58.6449 150.92L60.4703 155.575ZM62.7657 62.5773V60.0773H60.2657V62.5773H62.7657ZM77.7546 62.5773H80.2546V60.0773H77.7546V62.5773ZM77.7546 111.12V113.62H80.2546V111.12H77.7546ZM75.7036 111.12L74.1191 113.054L74.8102 113.62H75.7036V111.12ZM55.0872 95.869L53.6687 97.927L53.6705 97.928L55.0872 95.869ZM19.6923 85.613L21.3802 87.457L21.3886 87.449L21.397 87.442L19.6923 85.613ZM25.7404 110.174V112.674H31.5672L27.5522 108.451L25.7404 110.174ZM10.3308 110.174L8.23354 111.534L8.97264 112.674H10.3308V110.174ZM8.91074 72.5699L10.7706 74.2406L10.7775 74.2328L8.91074 72.5699ZM62.7657 86.244L61.2165 88.206L65.2657 91.403V86.244H62.7657ZM62.7657 65.0773H77.7546V60.0773H62.7657V65.0773ZM75.2547 62.5773V111.12H80.2546V62.5773H75.2547ZM77.7546 108.62H75.7036V113.62H77.7546V108.62ZM77.288 109.187C71.7817 104.675 64.8487 99.548 56.5039 93.809L53.6705 97.928C61.945 103.619 68.7563 108.66 74.1191 113.054L77.288 109.187ZM56.5057 93.81C48.1769 88.071 42.0623 84.304 38.2984 82.685L36.3233 87.278C39.5717 88.675 45.308 92.166 53.6687 97.927L56.5057 93.81ZM38.2984 82.685C34.5291 81.064 30.7927 80.22 27.1078 80.22V85.22C30.0147 85.22 33.0802 85.884 36.3233 87.278L38.2984 82.685ZM27.1078 80.22C23.6117 80.22 20.5275 81.417 17.9876 83.784L21.397 87.442C22.9943 85.953 24.8538 85.22 27.1078 85.22V80.22ZM18.0044 83.769C15.441 86.115 14.0893 89.071 14.0893 92.503H19.0893C19.0893 90.534 19.8063 88.898 21.3802 87.457L18.0044 83.769ZM14.0893 92.503C14.0893 98.816 17.657 105.3 23.9287 111.896L27.5522 108.451C21.6224 102.215 19.0893 96.918 19.0893 92.503H14.0893ZM25.7404 107.674H10.3308V112.674H25.7404V107.674ZM12.428 108.813C7.94664 101.906 5.83594 95.519 5.83594 89.61H0.835938C0.835938 96.744 3.38844 104.067 8.23354 111.534L12.428 108.813ZM5.83594 89.61C5.83594 82.815 7.57724 77.7956 10.7706 74.2406L7.05094 70.8993C2.81134 75.6189 0.835938 81.96 0.835938 89.61H5.83594ZM10.7775 74.2328C13.9417 70.6806 18.3156 68.8114 24.2152 68.8114V63.8114C17.142 63.8114 11.3129 66.1145 7.04404 70.9071L10.7775 74.2328ZM24.2152 68.8114C28.0752 68.8114 33.0888 70.274 39.3576 73.5153C45.5911 76.7383 52.8731 81.618 61.2165 88.206L64.315 84.282C55.8287 77.5813 48.2708 72.495 41.6541 69.0738C35.0727 65.6709 29.2259 63.8114 24.2152 63.8114V68.8114ZM65.2657 86.244V62.5773H60.2657V86.244H65.2657ZM46.0938 35.6498V38.1498H48.4958L48.5918 35.7497L46.0938 35.6498ZM33.156 35.6498H30.656V38.1498H33.156V35.6498ZM30.579 28.3394L28.7433 30.0366L28.7514 30.0453L28.7595 30.0539L30.579 28.3394ZM19.4819 49.4291V51.9291H23.488L21.7276 48.3305L19.4819 49.4291ZM6.54414 49.4291L4.25484 50.4338L4.91114 51.9291H6.54414V49.4291ZM8.38484 15.6646L10.3617 17.195L10.3693 17.185L8.38484 15.6646ZM38.3101 20.0298L36.1202 21.2358L38.6925 25.9064L40.6378 20.9418L38.3101 20.0298ZM72.8636 14.2446L74.7946 12.6568L74.7876 12.6483L72.8636 14.2446ZM74.5465 51.2699V53.7699H76.0872L76.7797 52.3936L74.5465 51.2699ZM60.2939 51.2699L58.2482 49.8327L55.4823 53.7699H60.2939V51.2699ZM63.4495 27.4453L65.3674 25.8418L65.3598 25.8326L65.352 25.8235L63.4495 27.4453ZM49.1968 27.3402L51.0109 29.0604L51.0182 29.0526L51.0255 29.0448L49.1968 27.3402ZM46.0938 33.1498H33.156V38.1498H46.0938V33.1498ZM35.656 35.6498C35.656 32.1085 34.6446 29.0086 32.3984 26.6249L28.7595 30.0539C29.9494 31.3167 30.656 33.0903 30.656 35.6498H35.656ZM32.4146 26.6423C30.2561 24.3075 27.5536 23.052 24.4256 23.052V28.052C26.066 28.052 27.4658 28.6548 28.7433 30.0366L32.4146 26.6423ZM24.4256 23.052C21.1932 23.052 18.4614 24.3923 16.393 26.9103L20.2567 30.084C21.414 28.6751 22.7494 28.052 24.4256 28.052V23.052ZM16.393 26.9103C14.3471 29.4011 13.4056 32.4841 13.4056 35.9654H18.4056C18.4056 33.416 19.0769 31.5202 20.2567 30.084L16.393 26.9103ZM13.4056 35.9654C13.4056 40.5507 14.7363 45.4177 17.2362 50.5277L21.7276 48.3305C19.459 43.6933 18.4056 39.5845 18.4056 35.9654H13.4056ZM19.4819 46.9291H6.54414V51.9291H19.4819V46.9291ZM8.83334 48.4245C6.85694 43.9208 5.83594 38.6806 5.83594 32.652H0.835938C0.835938 39.2457 1.95374 45.1902 4.25484 50.4338L8.83334 48.4245ZM5.83594 32.652C5.83594 26.0776 7.41714 20.9985 10.3617 17.195L6.40804 14.1341C2.62084 19.026 0.835938 25.2718 0.835938 32.652H5.83594ZM10.3693 17.185C13.2462 13.4299 16.837 11.6431 21.3226 11.6431V6.64313C15.2196 6.64313 10.1852 9.20393 6.40034 14.1442L10.3693 17.185ZM21.3226 11.6431C27.6034 11.6431 32.493 14.6495 36.1202 21.2358L40.5 18.8237C36.1331 10.8944 29.6977 6.64313 21.3226 6.64313V11.6431ZM40.6378 20.9418C42.1766 17.0145 44.313 14.24 46.964 12.4308C49.6149 10.6217 52.9758 9.64453 57.1909 9.64453V4.64453C52.1847 4.64453 47.7882 5.81493 44.1455 8.30093C40.503 10.7867 37.8095 14.4548 35.9824 19.1177L40.6378 20.9418ZM57.1909 9.64453C63.02 9.64453 67.5194 11.7184 70.9395 15.8408L74.7876 12.6483C70.3538 7.30403 64.4049 4.64453 57.1909 4.64453V9.64453ZM70.9325 15.8323C74.3587 19.9993 76.2014 25.7278 76.2014 33.2831H81.2016C81.2016 24.9204 79.1526 17.9565 74.7946 12.6568L70.9325 15.8323ZM76.2014 33.2831C76.2014 39.4004 74.8985 45.0084 72.3133 50.1461L76.7797 52.3936C79.7346 46.5219 81.2016 40.1387 81.2016 33.2831H76.2014ZM74.5465 48.7699H60.2939V53.7699H74.5465V48.7699ZM62.3395 52.707C66.4101 46.9128 68.6317 41.2445 68.6317 35.755H63.6317C63.6317 39.8725 61.9614 44.5474 58.2482 49.8327L62.3395 52.707ZM68.6317 35.755C68.6317 31.9015 67.6093 28.5232 65.3674 25.8418L61.5315 29.0489C62.8659 30.645 63.6317 32.8065 63.6317 35.755H68.6317ZM65.352 25.8235C63.0414 23.113 59.9899 21.7372 56.402 21.7372V26.7372C58.5643 26.7372 60.2111 27.5002 61.5469 29.0672L65.352 25.8235ZM56.402 21.7372C52.8465 21.7372 49.7783 23.0501 47.3681 25.6355L51.0255 29.0448C52.4722 27.4929 54.2073 26.7372 56.402 26.7372V21.7372ZM47.3828 25.6199C44.9404 28.1955 43.754 31.5965 43.5958 35.5499L48.5918 35.7497C48.7142 32.6908 49.5964 30.552 51.0109 29.0604L47.3828 25.6199Z" fill="white"/>
<path d="M131.413 1.10742L131.203 233.138" stroke="white" stroke-width="2" stroke-miterlimit="10" stroke-linecap="round"/>
<path d="M245.229 5.86152C252.129 5.86152 259.029 7.36152 263.079 8.41152C266.829 9.46152 272.229 11.1115 273.429 11.1115C274.179 11.1115 275.979 13.0615 275.979 13.9615C275.979 19.3615 277.479 27.0115 277.479 30.7615C277.479 34.9615 274.629 37.3615 272.679 37.3615C271.479 37.3615 270.729 36.1615 269.529 32.8615C267.279 26.7115 266.379 23.4115 260.829 19.3615C256.179 15.9115 250.929 13.3615 244.479 13.3615C238.029 13.3615 229.779 17.1115 224.829 23.1115C218.379 30.7615 215.379 42.1615 215.379 51.1615C215.379 62.5615 219.129 72.7615 223.479 78.9115C228.879 86.5615 238.779 92.1115 247.779 92.1115C251.529 92.1115 258.279 89.7115 261.279 88.0615C262.479 87.3115 265.179 84.4615 268.929 78.4615C271.779 73.9615 273.579 72.1615 275.079 72.1615C277.929 72.1615 278.229 75.0115 278.079 78.1615C278.079 79.5115 275.229 89.5615 275.229 92.4115C275.229 92.8615 274.029 94.9615 273.579 95.2615C268.329 97.8115 254.979 101.262 244.629 101.262C227.979 101.262 210.279 96.3115 199.629 84.6115C193.029 77.4115 188.379 67.5115 188.379 54.1615C188.379 38.1115 195.579 24.6115 208.779 15.4615C215.529 10.8115 229.629 5.86152 245.229 5.86152ZM346.92 5.86152C378.12 5.86152 399.12 26.8615 399.12 53.7115C399.12 72.4615 388.02 87.1615 373.92 94.9615C367.47 98.5615 356.97 101.262 347.37 101.262C315.72 101.262 295.02 79.6615 295.02 53.7115C295.02 42.1615 299.37 30.7615 308.67 21.4615C318.42 11.7115 332.82 5.86152 346.92 5.86152ZM344.22 13.6615C337.17 13.6615 330.87 19.6615 330.72 19.8115C324.42 26.7115 321.72 36.9115 321.72 51.0115C321.72 71.4115 331.02 93.6115 351.27 93.6115C356.37 93.6115 362.37 89.1115 363.12 88.5115C367.92 84.0115 371.82 74.5615 371.82 54.7615C371.82 39.0115 364.02 13.6615 344.22 13.6615ZM414.861 12.4615C414.861 10.8115 417.111 8.26151 420.411 8.26151C424.161 8.26151 447.861 8.86152 448.761 8.86152C449.511 8.86152 451.611 11.4115 451.761 11.7115C452.361 13.8115 454.311 17.4115 457.461 24.7615C460.761 32.4115 472.311 58.0615 475.761 62.2615C475.761 62.4115 477.111 63.0115 477.561 61.9615C482.511 51.3115 489.111 37.5115 494.061 26.1115C496.911 19.5115 497.961 15.3115 499.161 12.0115C499.461 11.1115 501.111 9.16152 502.011 9.16152C504.561 9.16152 526.161 8.11152 530.961 8.11152C532.461 8.11152 535.911 9.61152 535.911 11.7115C535.911 13.5115 534.561 14.4115 531.561 15.3115C521.961 18.1615 521.661 18.9115 521.661 22.8115C521.661 44.1115 522.711 61.3615 523.311 76.9615C523.761 89.2615 526.911 90.1615 532.011 91.3615C536.661 92.4115 538.161 94.0615 538.161 95.8615C538.161 97.3615 535.311 99.4615 532.161 99.4615C530.361 99.4615 513.561 98.5615 506.361 98.5615C499.611 98.5615 495.861 99.1615 492.261 99.1615C488.511 99.1615 487.461 96.0115 487.461 94.9615C487.461 93.7615 489.861 92.5615 490.611 92.2615C497.961 89.7115 499.311 87.9115 499.461 79.6615C499.611 75.7615 499.311 48.7615 499.761 34.3615C499.761 33.6115 498.711 33.7615 497.961 35.1115C496.011 38.7115 482.961 70.0615 479.811 77.5615C478.161 81.4615 475.761 88.6615 473.661 93.7615C472.161 97.2115 469.461 99.6115 466.161 99.6115C464.811 99.6115 462.561 97.0615 461.811 94.5115C459.561 87.1615 456.561 79.9615 455.211 76.0615C448.611 57.4615 442.611 46.0615 438.861 36.9115C438.261 35.4115 437.061 35.7115 437.061 36.7615C435.861 54.0115 435.111 71.2615 435.111 78.9115C435.111 87.9115 436.161 88.3615 444.111 91.5115C447.411 92.8615 448.911 93.7615 448.911 95.7115C448.911 97.3615 446.811 99.1615 443.361 99.1615C441.261 99.1615 435.861 98.5615 431.511 98.5615C426.711 98.5615 415.761 99.4615 413.811 99.4615C410.961 99.4615 408.261 97.9615 408.261 96.0115C408.261 94.6615 409.611 93.1615 413.211 91.9615C420.711 89.5615 423.111 86.5615 424.161 80.2615C425.961 69.9115 429.411 34.9615 429.711 27.1615C430.011 19.0615 427.761 18.0115 420.261 15.9115C416.511 14.8615 414.861 13.6615 414.861 12.4615ZM550.799 12.4615C550.799 10.8115 553.049 8.26151 556.349 8.26151C560.099 8.26151 583.799 8.86152 584.699 8.86152C585.449 8.86152 587.549 11.4115 587.699 11.7115C588.299 13.8115 590.249 17.4115 593.399 24.7615C596.699 32.4115 608.249 58.0615 611.699 62.2615C611.699 62.4115 613.049 63.0115 613.499 61.9615C618.449 51.3115 625.049 37.5115 629.999 26.1115C632.849 19.5115 633.899 15.3115 635.099 12.0115C635.399 11.1115 637.049 9.16152 637.949 9.16152C640.499 9.16152 662.099 8.11152 666.899 8.11152C668.399 8.11152 671.849 9.61152 671.849 11.7115C671.849 13.5115 670.499 14.4115 667.499 15.3115C657.899 18.1615 657.599 18.9115 657.599 22.8115C657.599 44.1115 658.649 61.3615 659.249 76.9615C659.699 89.2615 662.849 90.1615 667.949 91.3615C672.599 92.4115 674.099 94.0615 674.099 95.8615C674.099 97.3615 671.249 99.4615 668.099 99.4615C666.299 99.4615 649.499 98.5615 642.299 98.5615C635.549 98.5615 631.799 99.1615 628.199 99.1615C624.449 99.1615 623.399 96.0115 623.399 94.9615C623.399 93.7615 625.799 92.5615 626.549 92.2615C633.899 89.7115 635.249 87.9115 635.399 79.6615C635.549 75.7615 635.249 48.7615 635.699 34.3615C635.699 33.6115 634.649 33.7615 633.899 35.1115C631.949 38.7115 618.899 70.0615 615.749 77.5615C614.099 81.4615 611.699 88.6615 609.599 93.7615C608.099 97.2115 605.399 99.6115 602.099 99.6115C600.749 99.6115 598.499 97.0615 597.749 94.5115C595.499 87.1615 592.499 79.9615 591.149 76.0615C584.549 57.4615 578.549 46.0615 574.799 36.9115C574.199 35.4115 572.999 35.7115 572.999 36.7615C571.799 54.0115 571.049 71.2615 571.049 78.9115C571.049 87.9115 572.099 88.3615 580.049 91.5115C583.349 92.8615 584.849 93.7615 584.849 95.7115C584.849 97.3615 582.749 99.1615 579.299 99.1615C577.199 99.1615 571.799 98.5615 567.449 98.5615C562.649 98.5615 551.699 99.4615 549.749 99.4615C546.899 99.4615 544.199 97.9615 544.199 96.0115C544.199 94.6615 545.549 93.1615 549.149 91.9615C556.649 89.5615 559.049 86.5615 560.099 80.2615C561.899 69.9115 565.349 34.9615 565.649 27.1615C565.949 19.0615 563.699 18.0115 556.199 15.9115C552.449 14.8615 550.799 13.6615 550.799 12.4615ZM681.622 11.5615C681.622 9.46152 684.322 8.11152 689.272 8.11152C693.922 8.11152 705.172 8.86152 710.122 8.86152C716.722 8.86152 723.772 8.41152 725.872 8.41152C729.772 8.41152 732.472 10.5115 732.472 12.0115C732.472 13.8115 729.022 15.7615 726.772 16.3615C720.022 18.1615 719.122 20.1115 718.672 27.1615C718.072 35.2615 718.072 46.3615 718.822 59.2615C719.572 72.3115 722.422 79.2115 725.572 81.9115C729.772 85.5115 735.922 88.2115 742.222 88.2115C753.772 88.2115 763.072 82.6615 765.022 66.4615C765.772 60.4615 765.922 44.2615 765.922 35.5615C765.922 19.9615 765.772 18.7615 755.122 16.2115C752.122 15.4615 749.572 14.2615 749.572 11.7115C749.572 10.5115 751.672 8.41152 755.722 8.41152C758.722 8.41152 763.522 8.86152 769.222 8.86152C774.622 8.86152 780.772 8.11152 786.022 8.11152C788.872 8.11152 791.872 9.01152 791.872 11.5615C791.872 13.5115 789.322 15.0115 786.322 16.0615C779.422 18.6115 778.372 19.8115 777.472 27.1615C777.172 28.9615 776.572 41.5615 775.972 53.1115C774.622 77.4115 769.672 85.0615 762.322 92.2615C756.172 98.2615 745.672 101.262 735.322 101.262C723.172 101.262 710.122 97.5115 703.822 89.1115C695.422 78.0115 694.822 66.4615 694.822 49.3615C694.822 31.3615 694.522 29.1115 694.222 24.6115C693.772 18.6115 692.722 17.8615 687.172 16.2115C684.172 15.3115 681.622 14.1115 681.622 11.5615ZM796.863 10.5115C796.863 9.46152 798.063 7.96152 800.763 7.96152C806.763 7.96152 818.763 9.16152 828.363 9.16152C829.713 9.16152 831.813 10.2115 832.263 10.8115C834.813 14.2615 839.463 19.2115 846.663 27.0115C854.613 35.5615 878.463 60.7615 881.763 62.5615C882.213 62.7115 883.413 62.4115 883.563 61.9615C884.463 57.9115 884.463 43.5115 884.013 33.1615C883.563 22.9615 884.313 19.0615 872.613 16.3615C869.013 15.4615 867.663 12.9115 867.663 12.0115C867.663 10.9615 869.313 8.71152 872.913 8.71152C878.313 8.71152 878.013 8.86152 881.913 8.86152C888.063 8.86152 899.463 8.11152 902.463 8.11152C905.613 8.11152 907.713 9.01152 907.713 11.5615C907.713 13.2115 906.513 14.2615 901.713 16.3615C895.563 19.0615 894.663 20.7115 894.513 22.6615C894.213 29.5615 893.013 60.4615 893.013 70.5115C893.013 77.1115 893.613 83.7115 893.613 90.6115C893.613 96.9115 892.413 101.562 889.713 101.562C884.913 101.562 881.013 98.8615 878.163 95.5615C872.613 89.2615 865.563 81.0115 861.363 76.3615C855.663 69.7615 832.263 44.8615 825.663 37.6615C825.213 37.2115 824.163 38.1115 824.163 38.7115C824.013 42.0115 823.713 42.4615 823.713 48.9115C823.713 55.6615 824.013 69.1615 824.163 73.2115C824.613 84.9115 826.563 88.5115 831.813 90.6115C836.913 92.5615 838.563 94.2115 838.563 96.3115C838.563 98.1115 836.913 99.1615 833.463 99.1615C829.263 99.1615 824.163 98.5615 817.113 98.5615C810.063 98.5615 806.313 99.1615 804.363 99.1615C799.863 99.1615 798.363 97.5115 798.363 96.0115C798.363 94.0615 800.163 92.7115 802.863 91.8115C809.763 89.5615 812.463 89.1115 813.213 79.0615C813.963 69.0115 815.163 33.1615 815.163 28.3615C815.163 27.4615 814.413 24.3115 812.463 22.0615C809.313 18.4615 806.613 16.6615 803.163 15.9115C799.713 15.1615 796.863 13.3615 796.863 10.5115ZM928.343 65.7115V31.0615C928.343 18.4615 927.743 16.8115 919.643 15.0115C917.093 14.4115 915.593 12.6115 915.593 11.2615C915.593 9.01152 919.193 8.26151 920.693 8.26151C923.543 8.26151 932.993 8.86152 939.593 8.86152C948.593 8.86152 955.943 8.41152 960.293 8.41152C962.543 8.41152 964.943 9.61152 964.943 11.5615C964.943 13.3615 962.393 14.5615 961.193 14.8615C953.843 16.5115 953.393 18.4615 952.793 26.2615C952.343 32.7115 952.193 45.7615 952.193 55.9615C952.193 72.3115 952.493 78.1615 952.493 80.1115C952.793 87.1615 953.543 90.1615 961.043 91.9615C963.893 92.7115 965.843 94.2115 965.843 96.3115C965.843 98.1115 962.543 99.0115 960.743 99.0115C959.243 99.0115 944.693 98.5615 939.593 98.5615C934.343 98.5615 923.393 99.1615 920.693 99.1615C918.743 99.1615 915.593 98.7115 915.593 96.3115C915.593 94.6615 917.993 92.7115 920.093 92.1115C926.093 90.1615 926.993 88.3615 927.743 83.8615C928.193 80.7115 928.343 78.0115 928.343 65.7115ZM1005.78 8.86152H1051.68C1060.08 8.86152 1063.83 7.81152 1064.43 7.06152C1066.23 4.81152 1067.88 3.46152 1068.93 3.46152C1069.83 3.46152 1073.73 5.86152 1073.73 8.26151C1073.73 9.31152 1071.93 18.7615 1071.93 28.8115C1071.93 31.8115 1069.68 35.1115 1066.83 35.1115C1064.73 35.1115 1063.53 31.3615 1063.23 30.0115C1060.98 20.1115 1058.43 19.8115 1053.03 19.2115C1050.78 18.9115 1050.33 18.4615 1037.58 18.4615C1036.83 18.4615 1036.38 19.6615 1036.23 21.1615C1036.08 23.2615 1035.18 43.5115 1035.18 52.9615C1035.18 62.1115 1035.03 72.0115 1035.48 77.4115C1036.38 88.3615 1038.93 88.8115 1045.08 91.0615C1047.78 92.1115 1050.33 93.4615 1050.33 95.2615C1050.33 98.5615 1046.73 99.3115 1043.73 99.3115C1042.23 99.3115 1025.73 98.5615 1016.73 98.5615C1012.38 98.5615 1004.28 99.0115 1000.23 99.0115C997.077 99.0115 994.077 97.6615 994.077 94.9615C994.077 93.7615 995.577 91.6615 999.027 90.7615C1008.33 88.2115 1010.88 86.2615 1010.88 78.0115C1010.88 74.8615 1011.18 54.9115 1011.18 45.1615C1011.18 35.8615 1011.33 25.9615 1011.33 21.3115C1011.33 20.1115 1009.83 18.4615 1009.38 18.4615C1005.63 18.4615 1000.08 18.4615 996.177 18.6115C991.977 18.7615 987.927 18.7615 983.877 30.0115C982.977 32.5615 981.177 34.5115 979.527 34.5115C977.577 34.5115 975.327 31.8115 975.327 28.2115C975.327 23.5615 976.977 16.8115 976.977 8.56152C976.977 6.01152 979.227 3.76152 981.027 3.76152C981.477 3.76152 983.277 4.66152 984.327 5.41152C986.877 7.51152 989.127 8.41152 993.477 8.56152C999.627 8.86152 1000.98 8.86152 1005.78 8.86152ZM1082.41 11.4115C1082.41 9.16152 1086.01 8.11152 1087.81 8.11152C1090.66 8.11152 1108.51 8.86152 1112.71 8.86152C1118.71 8.86152 1124.26 8.56152 1126.81 8.56152C1129.51 8.56152 1131.61 10.0615 1131.61 11.7115C1131.61 12.6115 1130.26 14.5615 1126.51 16.0615C1123.36 17.4115 1123.51 18.6115 1125.01 21.9115C1129.81 31.9615 1137.46 44.5615 1139.86 48.6115C1140.46 49.5115 1141.66 49.3615 1142.41 48.7615C1144.06 47.2615 1152.61 30.7615 1155.31 24.7615C1157.86 19.3615 1156.96 17.8615 1151.41 15.9115C1149.16 15.1615 1146.61 13.8115 1146.61 11.8615C1146.61 9.76152 1149.31 8.56152 1152.46 8.56152C1159.21 8.56152 1159.06 8.86152 1162.81 8.86152C1168.51 8.86152 1175.41 8.26151 1180.66 8.26151C1183.21 8.26151 1185.01 9.91152 1185.01 11.2615C1185.01 13.0615 1182.76 14.8615 1179.91 15.7615C1174.96 17.4115 1170.76 19.8115 1166.11 26.1115C1159.51 35.1115 1149.01 51.6115 1146.01 58.2115C1145.11 60.1615 1145.11 61.8115 1144.96 64.9615C1144.66 70.0615 1144.66 79.9615 1144.66 84.3115C1145.11 88.0615 1149.01 89.7115 1155.01 91.8115C1157.71 92.7115 1159.06 94.2115 1159.06 95.8615C1159.06 97.3615 1156.81 99.4615 1153.81 99.4615C1147.96 99.4615 1142.71 98.5615 1133.56 98.5615C1120.81 98.5615 1119.16 99.0115 1113.76 99.0115C1109.41 99.0115 1107.01 97.6615 1107.01 95.2615C1107.01 93.6115 1109.56 91.6615 1113.61 90.6115C1118.56 89.4115 1119.91 88.5115 1120.36 80.8615C1120.66 75.9115 1120.66 67.2115 1120.66 64.2115C1120.66 61.6615 1120.06 59.2615 1117.66 55.0615C1111.21 43.0615 1103.56 29.8615 1098.91 23.5615C1096.66 20.4115 1094.11 17.4115 1088.11 15.7615C1084.21 14.7115 1082.41 13.3615 1082.41 11.4115ZM265.179 154.562C265.179 159.662 263.529 163.562 260.829 166.412C260.379 166.862 254.379 170.762 252.279 171.662C251.829 171.812 251.829 173.462 252.579 173.762C262.029 177.212 271.179 184.262 271.179 196.412C271.179 210.662 260.229 218.162 251.529 221.462C245.379 223.862 233.079 224.612 229.479 224.612C220.029 224.612 211.179 223.862 205.179 223.712C200.079 223.562 189.729 224.012 186.879 224.012C183.879 224.012 181.629 223.112 181.629 221.012C181.629 219.812 183.279 217.112 187.179 216.362C194.229 214.862 196.179 212.612 196.629 208.712C196.929 206.012 197.679 197.912 197.679 179.462C197.679 164.312 197.379 152.462 197.079 149.462C196.629 144.212 196.029 142.562 187.779 141.062C186.129 140.762 182.829 138.662 182.829 136.862C182.829 134.912 186.729 133.712 188.379 133.712H202.629C208.029 133.712 222.429 132.662 232.479 132.662C243.429 132.662 253.329 135.512 257.229 138.662C262.479 142.712 265.179 148.412 265.179 154.562ZM242.979 157.112C242.979 147.062 235.029 140.612 226.329 140.612C225.879 140.612 222.729 141.062 222.129 141.362C221.529 141.662 221.229 142.112 221.079 143.612C220.629 153.662 220.329 167.162 221.079 169.412C221.529 170.912 222.429 172.112 225.429 172.112C229.929 172.112 237.579 170.012 238.929 168.662C240.279 167.312 242.979 164.312 242.979 157.112ZM245.829 198.212C245.829 184.562 235.629 179.162 227.979 179.162C226.629 179.162 223.779 179.462 222.579 180.212C222.429 180.362 220.929 182.462 220.779 183.512C220.029 187.412 221.079 204.212 221.829 208.112C222.579 212.162 227.379 216.812 232.179 216.812C238.329 216.812 243.429 210.212 244.029 208.262C244.929 205.412 245.829 201.512 245.829 198.212ZM280.841 136.562C280.841 134.462 283.541 133.112 288.491 133.112C293.141 133.112 304.391 133.862 309.341 133.862C315.941 133.862 322.991 133.412 325.091 133.412C328.991 133.412 331.691 135.512 331.691 137.012C331.691 138.812 328.241 140.762 325.991 141.362C319.241 143.162 318.341 145.112 317.891 152.162C317.291 160.262 317.291 171.362 318.041 184.262C318.791 197.312 321.641 204.212 324.791 206.912C328.991 210.512 335.141 213.212 341.441 213.212C352.991 213.212 362.291 207.662 364.241 191.462C364.991 185.462 365.141 169.262 365.141 160.562C365.141 144.962 364.991 143.762 354.341 141.212C351.341 140.462 348.791 139.262 348.791 136.712C348.791 135.512 350.891 133.412 354.941 133.412C357.941 133.412 362.741 133.862 368.441 133.862C373.841 133.862 379.991 133.112 385.241 133.112C388.091 133.112 391.091 134.012 391.091 136.562C391.091 138.512 388.541 140.012 385.541 141.062C378.641 143.612 377.591 144.812 376.691 152.162C376.391 153.962 375.791 166.562 375.191 178.112C373.841 202.412 368.891 210.062 361.541 217.262C355.391 223.262 344.891 226.262 334.541 226.262C322.391 226.262 309.341 222.512 303.041 214.112C294.641 203.012 294.041 191.462 294.041 174.362C294.041 156.362 293.741 154.112 293.441 149.612C292.991 143.612 291.941 142.862 286.391 141.212C283.391 140.312 280.841 139.112 280.841 136.562ZM412.132 190.712V156.062C412.132 143.462 411.532 141.812 403.432 140.012C400.882 139.412 399.382 137.612 399.382 136.262C399.382 134.012 402.982 133.262 404.482 133.262C407.332 133.262 416.782 133.862 423.382 133.862C432.382 133.862 439.732 133.412 444.082 133.412C446.332 133.412 448.732 134.612 448.732 136.562C448.732 138.362 446.182 139.562 444.982 139.862C437.632 141.512 437.182 143.462 436.582 151.262C436.132 157.712 435.982 170.762 435.982 180.962C435.982 197.312 436.282 203.162 436.282 205.112C436.582 212.162 437.332 215.162 444.832 216.962C447.682 217.712 449.632 219.212 449.632 221.312C449.632 223.112 446.332 224.012 444.532 224.012C443.032 224.012 428.482 223.562 423.382 223.562C418.132 223.562 407.182 224.162 404.482 224.162C402.532 224.162 399.382 223.712 399.382 221.312C399.382 219.662 401.782 217.712 403.882 217.112C409.882 215.162 410.782 213.362 411.532 208.862C411.982 205.712 412.132 203.012 412.132 190.712ZM462.813 136.562C462.813 134.162 465.663 133.562 467.613 133.562C468.363 133.562 481.413 133.862 487.413 133.862C493.413 133.862 505.113 133.412 508.113 133.412C511.263 133.412 513.063 134.912 513.063 136.712C513.063 138.512 511.113 140.012 507.963 140.612C499.563 142.412 499.113 145.712 498.963 148.862C498.663 152.312 498.063 160.712 498.063 173.612C498.063 189.362 498.513 203.762 498.813 208.862C498.963 211.112 502.563 214.262 508.263 215.612C510.363 216.062 515.313 216.212 520.713 215.162C525.213 214.262 532.713 205.412 535.863 199.712C537.363 196.862 539.013 195.812 539.463 195.812C542.163 195.812 543.963 198.962 543.213 201.662C542.163 205.412 539.313 217.262 538.263 220.262C537.363 222.512 534.663 224.012 531.663 224.012C526.413 224.012 510.513 223.562 491.913 223.562C481.713 223.562 466.713 224.312 463.413 224.312C460.113 224.312 457.563 222.662 457.563 220.562C457.563 218.462 459.813 217.412 462.363 216.962C472.413 215.012 473.463 211.412 473.763 207.962C474.063 203.462 474.363 197.162 474.363 179.312C474.363 152.162 474.513 152.462 474.213 148.412C473.763 143.462 472.113 142.712 467.163 140.612C464.013 139.262 462.813 138.212 462.813 136.562ZM599.251 132.812C613.651 132.812 628.501 135.962 639.601 145.262C652.201 155.912 654.751 169.262 654.751 178.562C654.751 201.512 639.451 213.362 631.351 217.862C620.701 223.562 609.451 224.762 598.351 224.762C592.201 224.762 575.851 223.562 571.051 223.562C566.251 223.562 559.501 223.562 552.301 224.162C551.101 224.312 549.901 223.262 549.901 222.212C549.901 220.562 552.151 216.962 555.901 215.912C560.701 214.562 563.251 215.012 564.451 208.262C565.501 202.412 565.501 194.912 565.501 175.112C565.501 154.562 565.801 152.012 564.751 146.762C564.451 145.112 564.151 142.862 557.101 141.362C553.501 140.612 551.401 138.962 551.401 136.862C551.401 134.612 553.801 133.712 558.151 133.712L568.501 133.862C573.751 134.012 588.751 132.812 599.251 132.812ZM599.251 140.762C598.051 140.762 593.101 141.362 592.051 141.962C591.451 142.262 589.951 145.112 589.951 145.712C589.651 150.812 589.051 157.262 589.051 168.512V179.312C589.051 198.512 589.651 200.912 590.101 205.412C590.401 208.562 592.051 211.712 593.851 213.212C595.501 214.562 600.901 217.112 602.851 217.112C604.501 217.112 612.601 215.312 619.201 209.012C625.951 202.562 628.801 189.962 628.801 179.912C628.801 168.962 625.951 157.712 618.301 150.212C611.701 143.612 604.051 140.762 599.251 140.762ZM680.491 190.712V156.062C680.491 143.462 679.891 141.812 671.791 140.012C669.241 139.412 667.741 137.612 667.741 136.262C667.741 134.012 671.341 133.262 672.841 133.262C675.691 133.262 685.141 133.862 691.741 133.862C700.741 133.862 708.091 133.412 712.441 133.412C714.691 133.412 717.091 134.612 717.091 136.562C717.091 138.362 714.541 139.562 713.341 139.862C705.991 141.512 705.541 143.462 704.941 151.262C704.491 157.712 704.341 170.762 704.341 180.962C704.341 197.312 704.641 203.162 704.641 205.112C704.941 212.162 705.691 215.162 713.191 216.962C716.041 217.712 717.991 219.212 717.991 221.312C717.991 223.112 714.691 224.012 712.891 224.012C711.391 224.012 696.841 223.562 691.741 223.562C686.491 223.562 675.541 224.162 672.841 224.162C670.891 224.162 667.741 223.712 667.741 221.312C667.741 219.662 670.141 217.712 672.241 217.112C678.241 215.162 679.141 213.362 679.891 208.862C680.341 205.712 680.491 203.012 680.491 190.712ZM727.723 135.512C727.723 134.462 728.923 132.962 731.623 132.962C737.623 132.962 749.623 134.162 759.223 134.162C760.573 134.162 762.673 135.212 763.123 135.812C765.673 139.262 770.323 144.212 777.523 152.012C785.473 160.562 809.323 185.762 812.623 187.562C813.073 187.712 814.273 187.412 814.423 186.962C815.323 182.912 815.323 168.512 814.873 158.162C814.423 147.962 815.173 144.062 803.473 141.362C799.873 140.462 798.523 137.912 798.523 137.012C798.523 135.962 800.173 133.712 803.773 133.712C809.173 133.712 808.873 133.862 812.773 133.862C818.923 133.862 830.323 133.112 833.323 133.112C836.473 133.112 838.573 134.012 838.573 136.562C838.573 138.212 837.373 139.262 832.573 141.362C826.423 144.062 825.523 145.712 825.373 147.662C825.073 154.562 823.873 185.462 823.873 195.512C823.873 202.112 824.473 208.712 824.473 215.612C824.473 221.912 823.273 226.562 820.573 226.562C815.773 226.562 811.873 223.862 809.023 220.562C803.473 214.262 796.423 206.012 792.223 201.362C786.523 194.762 763.123 169.862 756.523 162.662C756.073 162.212 755.023 163.112 755.023 163.712C754.873 167.012 754.573 167.462 754.573 173.912C754.573 180.662 754.873 194.162 755.023 198.212C755.473 209.912 757.423 213.512 762.673 215.612C767.773 217.562 769.423 219.212 769.423 221.312C769.423 223.112 767.773 224.162 764.323 224.162C760.123 224.162 755.023 223.562 747.973 223.562C740.923 223.562 737.173 224.162 735.223 224.162C730.723 224.162 729.223 222.512 729.223 221.012C729.223 219.062 731.023 217.712 733.723 216.812C740.623 214.562 743.323 214.112 744.073 204.062C744.823 194.012 746.023 158.162 746.023 153.362C746.023 152.462 745.273 149.312 743.323 147.062C740.173 143.462 737.473 141.662 734.023 140.912C730.573 140.162 727.723 138.362 727.723 135.512ZM905.866 130.862C915.616 130.862 921.166 132.512 927.466 134.162C930.616 135.062 933.766 135.512 935.716 135.512C936.766 135.512 938.416 137.162 938.716 138.812C939.616 142.862 941.716 150.512 941.716 156.512C941.716 158.762 940.216 162.362 937.966 162.362C936.466 162.362 935.416 161.912 933.166 157.862C931.216 154.262 929.716 150.212 925.966 146.912C918.166 140.012 909.016 138.962 904.966 138.962C884.116 138.962 876.766 158.762 876.766 176.312C876.766 201.062 890.866 218.312 908.116 218.312C909.466 218.312 913.216 217.412 914.866 216.212C916.366 215.162 916.966 210.062 916.966 206.612C916.966 200.912 916.816 195.362 916.666 193.412C916.366 190.412 915.766 187.862 910.216 186.512C905.116 185.312 903.166 183.812 903.166 181.562C903.166 180.212 904.816 178.112 909.316 178.112C913.516 178.112 917.866 178.862 922.816 178.862C927.316 178.862 942.016 178.112 945.016 178.112C949.216 178.112 950.566 179.762 950.566 181.562C950.566 183.662 947.716 185.312 945.766 186.062C940.516 187.862 940.816 190.412 940.666 192.512C940.366 195.962 940.366 191.012 940.366 204.662C940.366 206.612 940.516 208.712 940.816 211.112C940.966 212.162 941.266 213.662 941.266 215.462C941.266 215.912 939.466 218.162 939.166 218.312C937.366 219.662 933.616 221.612 927.316 223.412C921.466 225.062 914.116 226.562 906.766 226.562C882.166 226.562 868.216 219.212 858.616 207.512C851.866 199.262 849.316 188.312 849.316 178.562C849.316 162.362 856.216 151.112 868.066 142.112C876.616 135.512 892.216 130.862 905.866 130.862Z" fill="white"/>
</svg>
