<svg width="1110" height="296" viewBox="0 0 1110 296" fill="none" xmlns="http://www.w3.org/2000/svg">
<path d="M62.1173 194.651V192.151H59.6173V194.651H62.1173ZM77.1062 194.651H79.6062V192.151H77.1062V194.651ZM77.1062 243.194V245.694H79.6062V243.194H77.1062ZM75.0552 243.194L73.4707 245.128L74.1618 245.694H75.0552V243.194ZM54.4388 227.942L53.0203 230.001L53.0221 230.002L54.4388 227.942ZM19.0439 217.687L20.7318 219.531L20.7402 219.523L20.7486 219.515L19.0439 217.687ZM25.092 242.247V244.747H30.9188L26.9038 240.525L25.092 242.247ZM9.6824 242.247L7.5851 243.608L8.3242 244.747H9.6824V242.247ZM8.2623 204.644L10.1222 206.314L10.1291 206.306L8.2623 204.644ZM62.1173 218.318L60.5681 220.28L64.6173 223.477V218.318H62.1173ZM62.1173 197.151H77.1062V192.151H62.1173V197.151ZM74.6063 194.651V243.194H79.6062V194.651H74.6063ZM77.1062 240.694H75.0552V245.694H77.1062V240.694ZM76.6396 241.26C71.1333 236.749 64.2003 231.622 55.8555 225.882L53.0221 230.002C61.2966 235.693 68.1079 240.734 73.4707 245.128L76.6396 241.26ZM55.8573 225.884C47.5285 220.144 41.4139 216.377 37.65 214.759L35.6749 219.352C38.9233 220.749 44.6596 224.24 53.0203 230.001L55.8573 225.884ZM37.65 214.759C33.8807 213.138 30.1443 212.294 26.4594 212.294V217.294C29.3663 217.294 32.4318 217.958 35.6749 219.352L37.65 214.759ZM26.4594 212.294C22.9633 212.294 19.8791 213.49 17.3392 215.858L20.7486 219.515C22.3459 218.026 24.2054 217.294 26.4594 217.294V212.294ZM17.356 215.842C14.7926 218.189 13.4409 221.145 13.4409 224.576H18.4409C18.4409 222.608 19.1579 220.971 20.7318 219.531L17.356 215.842ZM13.4409 224.576C13.4409 230.889 17.0086 237.374 23.2803 243.97L26.9038 240.525C20.974 234.288 18.4409 228.992 18.4409 224.576H13.4409ZM25.092 239.747H9.6824V244.747H25.092V239.747ZM11.7796 240.887C7.2982 233.979 5.1875 227.592 5.1875 221.684H0.1875C0.1875 228.818 2.74 236.14 7.5851 243.608L11.7796 240.887ZM5.1875 221.684C5.1875 214.889 6.9288 209.869 10.1222 206.314L6.4025 202.973C2.1629 207.693 0.1875 214.033 0.1875 221.684H5.1875ZM10.1291 206.306C13.2933 202.754 17.6672 200.885 23.5668 200.885V195.885C16.4936 195.885 10.6645 198.188 6.3956 202.981L10.1291 206.306ZM23.5668 200.885C27.4268 200.885 32.4404 202.348 38.7092 205.589C44.9427 208.812 52.2247 213.692 60.5681 220.28L63.6666 216.356C55.1803 209.655 47.6224 204.569 41.0057 201.148C34.4243 197.745 28.5775 195.885 23.5668 195.885V200.885ZM64.6173 218.318V194.651H59.6173V218.318H64.6173ZM12.7327 141.585L14.0941 143.682L14.1017 143.677L12.7327 141.585ZM68.0603 178.242L69.442 180.326L69.4496 180.32L68.0603 178.242ZM12.6275 178.137L11.2182 180.202L11.2206 180.203L12.6275 178.137ZM58.9618 153.366L59.8421 151.026L59.8346 151.023L58.9618 153.366ZM21.5683 153.366L22.4593 155.701L22.4739 155.696L22.4884 155.69L21.5683 153.366ZM21.4631 166.461L20.493 168.765L20.5051 168.77L21.4631 166.461ZM58.9092 166.461L59.7945 168.799L59.8082 168.794L59.8219 168.789L58.9092 166.461ZM5.1875 159.782C5.1875 152.871 8.0854 147.583 14.0941 143.682L11.3714 139.488C3.9866 144.282 0.1875 151.126 0.1875 159.782H5.1875ZM14.1017 143.677C20.2502 139.653 28.8121 137.511 40.0284 137.511V132.511C28.2441 132.511 18.6089 134.751 11.3637 139.493L14.1017 143.677ZM40.0284 137.511C51.735 137.511 60.5278 139.595 66.6698 143.486L69.3456 139.263C62.094 134.669 52.2339 132.511 40.0284 132.511V137.511ZM66.6698 143.486C72.6474 147.273 75.553 152.544 75.553 159.572H80.5532C80.5532 150.821 76.7612 143.961 69.3456 139.263L66.6698 143.486ZM75.553 159.572C75.553 166.729 72.6407 172.173 66.6711 176.164L69.4496 180.32C76.8032 175.405 80.5532 168.403 80.5532 159.572H75.553ZM66.6786 176.159C60.5777 180.204 51.9057 182.369 40.3965 182.369V187.369C52.4489 187.369 62.2194 185.115 69.442 180.326L66.6786 176.159ZM40.3965 182.369C28.7435 182.369 20.0528 180.168 14.0345 176.07L11.2206 180.203C18.3855 185.082 28.2075 187.369 40.3965 187.369V182.369ZM14.0369 176.072C8.06 171.992 5.1875 166.631 5.1875 159.782H0.1875C0.1875 168.361 3.9417 175.235 11.2182 180.202L14.0369 176.072ZM66.7736 159.782C66.7736 157.765 66.1515 155.921 64.8714 154.375C63.6257 152.87 61.8785 151.792 59.8421 151.026L58.0814 155.706C59.5863 156.272 60.495 156.929 61.02 157.563C61.5105 158.156 61.7736 158.853 61.7736 159.782H66.7736ZM59.8346 151.023C55.7832 149.514 48.6599 148.867 38.8713 148.867V153.867C48.7174 153.867 54.9878 154.553 58.089 155.708L59.8346 151.023ZM38.8713 148.867C30.684 148.867 24.494 149.519 20.6482 151.041L22.4884 155.69C25.3745 154.548 30.7199 153.867 38.8713 153.867V148.867ZM20.6773 151.03C18.6838 151.79 16.9795 152.886 15.7731 154.429C14.5424 156.002 13.9668 157.866 13.9668 159.887H18.9668C18.9668 158.858 19.2415 158.11 19.7113 157.509C20.2054 156.878 21.0518 156.238 22.4593 155.701L20.6773 151.03ZM13.9668 159.887C13.9668 161.876 14.5342 163.711 15.7255 165.279C16.8935 166.815 18.5468 167.946 20.493 168.765L22.4333 164.157C21.0486 163.574 20.2037 162.908 19.7063 162.253C19.2321 161.629 18.9668 160.879 18.9668 159.887H13.9668ZM20.5051 168.77C22.4909 169.594 25.2413 170.137 28.5931 170.486C31.9881 170.84 36.175 171.012 41.1328 171.012V166.012C36.2733 166.012 32.2733 165.843 29.1117 165.513C25.9069 165.179 23.7312 164.696 22.4212 164.152L20.5051 168.77ZM41.1328 171.012C49.4105 171.012 55.7287 170.339 59.7945 168.799L58.0239 164.123C54.8669 165.319 49.3342 166.012 41.1328 166.012V171.012ZM59.8219 168.789C61.8811 167.981 63.6362 166.856 64.8817 165.305C66.1575 163.717 66.7736 161.835 66.7736 159.782H61.7736C61.7736 160.78 61.4957 161.536 60.9834 162.174C60.4408 162.85 59.5136 163.539 57.9965 164.134L59.8219 168.789ZM62.1173 75.7916V73.2916H59.6173V75.7916H62.1173ZM77.1062 75.7916H79.6062V73.2916H77.1062V75.7916ZM77.1062 124.334V126.834H79.6062V124.334H77.1062ZM75.0552 124.334L73.4707 126.268L74.1618 126.834H75.0552V124.334ZM54.4388 109.083L53.0203 111.141L53.0221 111.142L54.4388 109.083ZM19.0439 98.8273L20.7318 100.671L20.7402 100.663L20.7486 100.656L19.0439 98.8273ZM25.092 123.388V125.888H30.9188L26.9038 121.665L25.092 123.388ZM9.6824 123.388L7.5851 124.748L8.3242 125.888H9.6824V123.388ZM8.2623 85.7842L10.1222 87.4549L10.1291 87.4471L8.2623 85.7842ZM62.1173 99.4583L60.5681 101.42L64.6173 104.617V99.4583H62.1173ZM62.1173 78.2916H77.1062V73.2916H62.1173V78.2916ZM74.6063 75.7916V124.334H79.6062V75.7916H74.6063ZM77.1062 121.834H75.0552V126.834H77.1062V121.834ZM76.6396 122.401C71.1333 117.889 64.2003 112.762 55.8555 107.023L53.0221 111.142C61.2966 116.833 68.1079 121.874 73.4707 126.268L76.6396 122.401ZM55.8573 107.024C47.5285 101.285 41.4139 97.5183 37.65 95.8993L35.6749 100.492C38.9233 101.889 44.6596 105.38 53.0203 111.141L55.8573 107.024ZM37.65 95.8993C33.8807 94.2783 30.1443 93.4343 26.4594 93.4343V98.4343C29.3663 98.4343 32.4318 99.0983 35.6749 100.492L37.65 95.8993ZM26.4594 93.4343C22.9633 93.4343 19.8791 94.6313 17.3392 96.9983L20.7486 100.656C22.3459 99.1673 24.2054 98.4343 26.4594 98.4343V93.4343ZM17.356 96.9833C14.7926 99.3293 13.4409 102.285 13.4409 105.717H18.4409C18.4409 103.748 19.1579 102.112 20.7318 100.671L17.356 96.9833ZM13.4409 105.717C13.4409 112.03 17.0086 118.514 23.2803 125.11L26.9038 121.665C20.974 115.429 18.4409 110.132 18.4409 105.717H13.4409ZM25.092 120.888H9.6824V125.888H25.092V120.888ZM11.7796 122.027C7.2982 115.12 5.1875 108.733 5.1875 102.824H0.1875C0.1875 109.958 2.74 117.281 7.5851 124.748L11.7796 122.027ZM5.1875 102.824C5.1875 96.0293 6.9288 91.0099 10.1222 87.4549L6.4025 84.1136C2.1629 88.8332 0.1875 95.1743 0.1875 102.824H5.1875ZM10.1291 87.4471C13.2933 83.8949 17.6672 82.0257 23.5668 82.0257V77.0257C16.4936 77.0257 10.6645 79.3288 6.3956 84.1214L10.1291 87.4471ZM23.5668 82.0257C27.4268 82.0257 32.4404 83.4883 38.7092 86.7296C44.9427 89.9526 52.2247 94.8323 60.5681 101.42L63.6666 97.4963C55.1803 90.7956 47.6224 85.7093 41.0057 82.2881C34.4243 78.8852 28.5775 77.0257 23.5668 77.0257V82.0257ZM64.6173 99.4583V75.7916H59.6173V99.4583H64.6173ZM45.4454 48.8641V51.3641H47.8474L47.9434 48.964L45.4454 48.8641ZM32.5076 48.8641H30.0076V51.3641H32.5076V48.8641ZM29.9306 41.5537L28.0949 43.2509L28.103 43.2596L28.1111 43.2682L29.9306 41.5537ZM18.8335 62.6434V65.1434H22.8396L21.0792 61.5448L18.8335 62.6434ZM5.8957 62.6434L3.6064 63.6481L4.2627 65.1434H5.8957V62.6434ZM7.7364 28.8789L9.7133 30.4093L9.7209 30.3993L7.7364 28.8789ZM37.6617 33.2441L35.4718 34.4501L38.0441 39.1207L39.9894 34.1561L37.6617 33.2441ZM72.2152 27.4589L74.1462 25.8711L74.1392 25.8626L72.2152 27.4589ZM73.8981 64.4842V66.9842H75.4388L76.1313 65.6079L73.8981 64.4842ZM59.6455 64.4842L57.5998 63.047L54.8339 66.9842H59.6455V64.4842ZM62.8011 40.6596L64.719 39.0561L64.7114 39.0469L64.7036 39.0378L62.8011 40.6596ZM48.5484 40.5545L50.3625 42.2747L50.3698 42.2669L50.3771 42.2591L48.5484 40.5545ZM45.4454 46.3641H32.5076V51.3641H45.4454V46.3641ZM35.0076 48.8641C35.0076 45.3228 33.9962 42.2229 31.75 39.8392L28.1111 43.2682C29.301 44.531 30.0076 46.3046 30.0076 48.8641H35.0076ZM31.7662 39.8566C29.6077 37.5218 26.9052 36.2663 23.7772 36.2663V41.2663C25.4176 41.2663 26.8174 41.8691 28.0949 43.2509L31.7662 39.8566ZM23.7772 36.2663C20.5448 36.2663 17.813 37.6066 15.7446 40.1246L19.6083 43.2983C20.7656 41.8894 22.101 41.2663 23.7772 41.2663V36.2663ZM15.7446 40.1246C13.6987 42.6154 12.7572 45.6984 12.7572 49.1797H17.7572C17.7572 46.6303 18.4285 44.7345 19.6083 43.2983L15.7446 40.1246ZM12.7572 49.1797C12.7572 53.765 14.0879 58.632 16.5878 63.742L21.0792 61.5448C18.8106 56.9076 17.7572 52.7988 17.7572 49.1797H12.7572ZM18.8335 60.1434H5.8957V65.1434H18.8335V60.1434ZM8.1849 61.6388C6.2085 57.1351 5.1875 51.8949 5.1875 45.8663H0.1875C0.1875 52.46 1.3053 58.4045 3.6064 63.6481L8.1849 61.6388ZM5.1875 45.8663C5.1875 39.2919 6.7687 34.2128 9.7133 30.4093L5.7596 27.3484C1.9724 32.2403 0.1875 38.4861 0.1875 45.8663H5.1875ZM9.7209 30.3993C12.5978 26.6442 16.1886 24.8574 20.6742 24.8574V19.8574C14.5712 19.8574 9.5368 22.4182 5.7519 27.3585L9.7209 30.3993ZM20.6742 24.8574C26.955 24.8574 31.8446 27.8638 35.4718 34.4501L39.8516 32.038C35.4847 24.1087 29.0493 19.8574 20.6742 19.8574V24.8574ZM39.9894 34.1561C41.5282 30.2288 43.6646 27.4543 46.3156 25.6451C48.9665 23.836 52.3274 22.8588 56.5425 22.8588V17.8588C51.5363 17.8588 47.1398 19.0292 43.4971 21.5152C39.8546 24.001 37.1611 27.6691 35.334 32.332L39.9894 34.1561ZM56.5425 22.8588C62.3716 22.8588 66.871 24.9327 70.2911 29.0551L74.1392 25.8626C69.7054 20.5183 63.7565 17.8588 56.5425 17.8588V22.8588ZM70.2841 29.0466C73.7103 33.2136 75.553 38.9421 75.553 46.4974H80.5532C80.5532 38.1347 78.5042 31.1708 74.1462 25.8711L70.2841 29.0466ZM75.553 46.4974C75.553 52.6147 74.2501 58.2227 71.6649 63.3604L76.1313 65.6079C79.0862 59.7362 80.5532 53.353 80.5532 46.4974H75.553ZM73.8981 61.9842H59.6455V66.9842H73.8981V61.9842ZM61.6911 65.9213C65.7617 60.1271 67.9833 54.4588 67.9833 48.9693H62.9833C62.9833 53.0868 61.313 57.7617 57.5998 63.047L61.6911 65.9213ZM67.9833 48.9693C67.9833 45.1158 66.9609 41.7375 64.719 39.0561L60.8831 42.2632C62.2175 43.8593 62.9833 46.0208 62.9833 48.9693H67.9833ZM64.7036 39.0378C62.393 36.3273 59.3415 34.9515 55.7536 34.9515V39.9515C57.9159 39.9515 59.5627 40.7145 60.8985 42.2815L64.7036 39.0378ZM55.7536 34.9515C52.1981 34.9515 49.1299 36.2644 46.7197 38.8498L50.3771 42.2591C51.8238 40.7072 53.5589 39.9515 55.7536 39.9515V34.9515ZM46.7344 38.8342C44.292 41.4098 43.1056 44.8108 42.9474 48.7642L47.9434 48.964C48.0658 45.9051 48.948 43.7663 50.3625 42.2747L46.7344 38.8342Z" fill="white"/>
<path d="M130.765 14.3221L130.555 246.352" stroke="white" stroke-width="2" stroke-miterlimit="10" stroke-linecap="round"/>
<path d="M211.242 16.0503C227.05 16.0503 237.69 26.6903 237.69 40.2943C237.69 49.7943 232.066 57.2423 224.922 61.1943C221.654 63.0183 216.334 64.3863 211.47 64.3863C195.434 64.3863 184.946 53.4423 184.946 40.2943C184.946 34.4423 187.15 28.6663 191.862 23.9543C196.802 19.0143 204.098 16.0503 211.242 16.0503ZM209.874 20.0023C206.302 20.0023 203.11 23.0423 203.034 23.1183C199.842 26.6143 198.474 31.7823 198.474 38.9263C198.474 49.2623 203.186 60.5103 213.446 60.5103C216.03 60.5103 219.07 58.2303 219.45 57.9263C221.882 55.6463 223.858 50.8583 223.858 40.8263C223.858 32.8463 219.906 20.0023 209.874 20.0023ZM275.129 16.0503C278.625 16.0503 282.121 16.8103 284.173 17.3423C286.073 17.8743 288.809 18.7103 289.417 18.7103C289.797 18.7103 290.709 19.6983 290.709 20.1543C290.709 22.8903 291.469 26.7663 291.469 28.6663C291.469 30.7943 290.025 32.0103 289.037 32.0103C288.429 32.0103 288.049 31.4023 287.441 29.7303C286.301 26.6143 285.845 24.9423 283.033 22.8903C280.677 21.1423 278.017 19.8503 274.749 19.8503C271.481 19.8503 267.301 21.7503 264.793 24.7903C261.525 28.6663 260.005 34.4423 260.005 39.0023C260.005 44.7783 261.905 49.9463 264.109 53.0623C266.845 56.9383 271.861 59.7503 276.421 59.7503C278.321 59.7503 281.741 58.5343 283.261 57.6983C283.869 57.3183 285.237 55.8743 287.137 52.8343C288.581 50.5543 289.493 49.6423 290.253 49.6423C291.697 49.6423 291.849 51.0863 291.773 52.6823C291.773 53.3663 290.329 58.4583 290.329 59.9023C290.329 60.1303 289.721 61.1943 289.493 61.3463C286.833 62.6383 280.069 64.3863 274.825 64.3863C266.389 64.3863 257.421 61.8783 252.025 55.9503C248.681 52.3023 246.325 47.2863 246.325 40.5223C246.325 32.3903 249.973 25.5503 256.661 20.9143C260.081 18.5583 267.225 16.0503 275.129 16.0503ZM314.094 17.5703H337.35C341.606 17.5703 343.506 17.0383 343.81 16.6583C344.722 15.5183 345.558 14.8343 346.09 14.8343C346.546 14.8343 348.522 16.0503 348.522 17.2663C348.522 17.7983 347.61 22.5863 347.61 27.6783C347.61 29.1983 346.47 30.8703 345.026 30.8703C343.962 30.8703 343.354 28.9703 343.202 28.2863C342.062 23.2703 340.77 23.1183 338.034 22.8143C336.894 22.6623 336.666 22.4343 330.206 22.4343C329.826 22.4343 329.598 23.0423 329.522 23.8023C329.446 24.8663 328.99 35.1263 328.99 39.9143C328.99 44.5503 328.914 49.5663 329.142 52.3023C329.598 57.8503 330.89 58.0783 334.006 59.2183C335.374 59.7503 336.666 60.4343 336.666 61.3463C336.666 63.0183 334.842 63.3983 333.322 63.3983C332.562 63.3983 324.202 63.0183 319.642 63.0183C317.438 63.0183 313.334 63.2463 311.282 63.2463C309.686 63.2463 308.166 62.5623 308.166 61.1943C308.166 60.5863 308.926 59.5223 310.674 59.0663C315.386 57.7743 316.678 56.7863 316.678 52.6063C316.678 51.0103 316.83 40.9023 316.83 35.9623C316.83 31.2503 316.906 26.2343 316.906 23.8783C316.906 23.2703 316.146 22.4343 315.918 22.4343C314.018 22.4343 311.206 22.4343 309.23 22.5103C307.102 22.5863 305.05 22.5863 302.998 28.2863C302.542 29.5783 301.63 30.5663 300.794 30.5663C299.806 30.5663 298.666 29.1983 298.666 27.3743C298.666 25.0183 299.502 21.5983 299.502 17.4183C299.502 16.1263 300.642 14.9863 301.554 14.9863C301.782 14.9863 302.694 15.4423 303.226 15.8223C304.518 16.8863 305.658 17.3423 307.862 17.4183C310.978 17.5703 311.662 17.5703 314.094 17.5703ZM379.718 16.0503C395.526 16.0503 406.166 26.6903 406.166 40.2943C406.166 49.7943 400.542 57.2423 393.398 61.1943C390.13 63.0183 384.81 64.3863 379.946 64.3863C363.91 64.3863 353.422 53.4423 353.422 40.2943C353.422 34.4423 355.626 28.6663 360.338 23.9543C365.278 19.0143 372.574 16.0503 379.718 16.0503ZM378.35 20.0023C374.778 20.0023 371.586 23.0423 371.51 23.1183C368.318 26.6143 366.95 31.7823 366.95 38.9263C366.95 49.2623 371.662 60.5103 381.922 60.5103C384.506 60.5103 387.546 58.2303 387.926 57.9263C390.358 55.6463 392.334 50.8583 392.334 40.8263C392.334 32.8463 388.382 20.0023 378.35 20.0023ZM442.092 32.0103C442.092 27.7543 440.344 24.6383 439.964 24.1063C439.66 23.7263 436.924 21.2183 434.112 21.2183C433.276 21.2183 432.288 21.5223 431.984 21.8263C431.756 22.0543 431.452 22.5103 431.452 22.8903C431.224 25.9303 431.148 35.6583 431.148 38.7743C431.148 46.3743 431.224 52.2263 431.224 52.9863C431.224 57.2423 432.212 58.3823 436.316 59.5223C438.14 60.0543 438.9 60.5863 438.9 61.6503C438.9 62.3343 437.836 63.2463 435.86 63.2463C433.58 63.2463 430.236 63.0183 427.12 63.0183C424.384 63.0183 417.24 63.4743 414.732 63.4743C412.832 63.4743 411.54 62.7903 411.54 61.8023C411.54 60.8143 412.3 60.1303 414.504 59.4463C417.772 58.3823 418.304 57.0903 418.532 55.1143C418.684 53.5943 419.216 44.2463 419.216 33.6823C419.216 30.4143 419.14 26.7663 418.912 25.0183C418.76 23.2703 418.152 21.9023 414.808 21.1423C413.592 20.8383 412.148 19.6983 412.148 18.9383C412.148 17.5703 413.212 17.2663 414.504 17.2663C417.772 17.2663 419.9 17.5703 423.7 17.5703C426.284 17.5703 430.312 17.1903 436.24 17.1903C442.852 17.1903 447.716 19.2423 450.3 21.9023C452.124 23.8023 454.404 27.9823 454.404 31.9343C454.404 37.8623 450.908 42.0423 449.388 43.3343C446.272 45.9183 443.004 47.0583 439.508 47.0583C437.532 47.0583 436.392 46.7543 435.252 45.9943C434.416 45.4623 433.732 44.7023 433.732 44.3223C433.732 43.4863 434.036 42.9543 434.644 42.8783C434.948 42.8023 435.328 42.8023 435.708 42.7263C437.532 42.2703 442.092 41.1303 442.092 32.0103ZM459.793 18.9383C459.793 17.8743 461.161 17.1903 463.669 17.1903C466.025 17.1903 471.725 17.5703 474.233 17.5703C477.577 17.5703 481.149 17.3423 482.213 17.3423C484.189 17.3423 485.557 18.4063 485.557 19.1663C485.557 20.0783 483.809 21.0663 482.669 21.3703C479.249 22.2823 478.793 23.2703 478.565 26.8423C478.261 30.9463 478.261 36.5703 478.641 43.1063C479.021 49.7183 480.465 53.2143 482.061 54.5823C484.189 56.4063 487.305 57.7743 490.497 57.7743C496.349 57.7743 501.061 54.9623 502.049 46.7543C502.429 43.7143 502.505 35.5063 502.505 31.0983C502.505 23.1943 502.429 22.5863 497.033 21.2943C495.513 20.9143 494.221 20.3063 494.221 19.0143C494.221 18.4063 495.285 17.3423 497.337 17.3423C498.857 17.3423 501.289 17.5703 504.177 17.5703C506.913 17.5703 510.029 17.1903 512.689 17.1903C514.133 17.1903 515.653 17.6463 515.653 18.9383C515.653 19.9263 514.361 20.6863 512.841 21.2183C509.345 22.5103 508.813 23.1183 508.357 26.8423C508.205 27.7543 507.901 34.1383 507.597 39.9903C506.913 52.3023 504.405 56.1783 500.681 59.8263C497.565 62.8663 492.245 64.3863 487.001 64.3863C480.845 64.3863 474.233 62.4863 471.041 58.2303C466.785 52.6063 466.481 46.7543 466.481 38.0903C466.481 28.9703 466.329 27.8303 466.177 25.5503C465.949 22.5103 465.417 22.1303 462.605 21.2943C461.085 20.8383 459.793 20.2303 459.793 18.9383ZM539.109 16.1263C543.365 16.1263 547.393 17.4943 550.357 18.1783C550.813 18.2543 551.345 19.4703 551.345 20.3063C551.345 21.2183 551.877 25.3983 551.877 26.5383C551.877 29.1223 550.661 30.1863 549.597 30.1863C548.761 30.1863 548.077 28.8943 547.849 28.2863C546.177 23.7263 542.225 19.6223 537.893 19.6223C534.701 19.6223 531.813 22.5863 531.813 25.4743C531.813 28.8943 534.321 31.4023 538.653 33.6063C548.229 38.4703 553.853 42.7263 553.853 49.9463C553.853 56.1783 549.597 59.6743 546.861 61.3463C543.897 63.0943 538.881 64.3863 535.385 64.3863C528.925 64.3863 525.201 63.0183 523.453 62.3343C522.921 62.1063 521.705 61.4223 521.325 60.5863C520.033 57.8503 519.805 53.8983 519.805 52.0743C519.805 50.6303 520.565 48.8063 521.781 48.8063C522.617 48.8063 523.605 49.7183 524.669 51.6943C527.481 56.8623 531.661 60.5863 536.373 60.5863C539.109 60.5863 542.529 58.6863 542.529 55.1903C542.529 52.9103 542.681 50.4023 534.929 46.2223C524.973 40.9023 521.097 36.7983 521.097 29.7303C521.097 24.7903 524.593 20.7623 528.241 18.7103C531.129 17.1143 534.777 16.1263 539.109 16.1263ZM604.081 16.0503C619.889 16.0503 630.529 26.6903 630.529 40.2943C630.529 49.7943 624.905 57.2423 617.761 61.1943C614.493 63.0183 609.173 64.3863 604.309 64.3863C588.273 64.3863 577.785 53.4423 577.785 40.2943C577.785 34.4423 579.989 28.6663 584.701 23.9543C589.641 19.0143 596.937 16.0503 604.081 16.0503ZM602.713 20.0023C599.141 20.0023 595.949 23.0423 595.873 23.1183C592.681 26.6143 591.313 31.7823 591.313 38.9263C591.313 49.2623 596.025 60.5103 606.285 60.5103C608.869 60.5103 611.909 58.2303 612.289 57.9263C614.721 55.6463 616.697 50.8583 616.697 40.8263C616.697 32.8463 612.745 20.0023 602.713 20.0023ZM660.68 17.0383C667.976 17.0383 675.5 18.6343 681.124 23.3463C687.508 28.7423 688.8 35.5063 688.8 40.2183C688.8 51.8463 681.048 57.8503 676.944 60.1303C671.548 63.0183 665.848 63.6263 660.224 63.6263C657.108 63.6263 648.824 63.0183 646.392 63.0183C643.96 63.0183 640.54 63.0183 636.892 63.3223C636.284 63.3983 635.676 62.8663 635.676 62.3343C635.676 61.4983 636.816 59.6743 638.716 59.1423C641.148 58.4583 642.44 58.6863 643.048 55.2663C643.58 52.3023 643.58 48.5023 643.58 38.4703C643.58 28.0583 643.732 26.7663 643.2 24.1063C643.048 23.2703 642.896 22.1303 639.324 21.3703C637.5 20.9903 636.436 20.1543 636.436 19.0903C636.436 17.9503 637.652 17.4943 639.856 17.4943L645.1 17.5703C647.76 17.6463 655.36 17.0383 660.68 17.0383ZM660.68 21.0663C660.072 21.0663 657.564 21.3703 657.031 21.6743C656.728 21.8263 655.968 23.2703 655.968 23.5743C655.816 26.1583 655.512 29.4263 655.512 35.1263V40.5983C655.512 50.3263 655.816 51.5423 656.044 53.8223C656.196 55.4183 657.031 57.0143 657.944 57.7743C658.78 58.4583 661.516 59.7503 662.504 59.7503C663.34 59.7503 667.444 58.8383 670.788 55.6463C674.208 52.3783 675.652 45.9943 675.652 40.9023C675.652 35.3543 674.208 29.6543 670.332 25.8543C666.988 22.5103 663.112 21.0663 660.68 21.0663ZM690.318 18.8623C690.318 17.7223 692.142 17.1903 693.054 17.1903C694.498 17.1903 703.542 17.5703 705.67 17.5703C708.71 17.5703 711.522 17.4183 712.814 17.4183C714.182 17.4183 715.246 18.1783 715.246 19.0143C715.246 19.4703 714.562 20.4583 712.662 21.2183C711.066 21.9023 711.142 22.5103 711.902 24.1823C714.334 29.2743 718.21 35.6583 719.426 37.7103C719.73 38.1663 720.338 38.0903 720.718 37.7863C721.554 37.0263 725.886 28.6663 727.254 25.6263C728.546 22.8903 728.09 22.1303 725.278 21.1423C724.138 20.7623 722.846 20.0783 722.846 19.0903C722.846 18.0263 724.214 17.4183 725.81 17.4183C729.23 17.4183 729.154 17.5703 731.054 17.5703C733.942 17.5703 737.438 17.2663 740.098 17.2663C741.39 17.2663 742.302 18.1023 742.302 18.7863C742.302 19.6983 741.162 20.6103 739.718 21.0663C737.21 21.9023 735.082 23.1183 732.726 26.3103C729.382 30.8703 724.062 39.2303 722.542 42.5743C722.086 43.5623 722.086 44.3983 722.01 45.9943C721.858 48.5783 721.858 53.5943 721.858 55.7983C722.086 57.6983 724.062 58.5343 727.102 59.5983C728.47 60.0543 729.154 60.8143 729.154 61.6503C729.154 62.4103 728.014 63.4743 726.494 63.4743C723.53 63.4743 720.87 63.0183 716.234 63.0183C709.774 63.0183 708.938 63.2463 706.202 63.2463C703.998 63.2463 702.782 62.5623 702.782 61.3463C702.782 60.5103 704.074 59.5223 706.126 58.9903C708.634 58.3823 709.318 57.9263 709.546 54.0503C709.698 51.5423 709.698 47.1343 709.698 45.6143C709.698 44.3223 709.394 43.1063 708.178 40.9783C704.91 34.8983 701.034 28.2103 698.678 25.0183C697.538 23.4223 696.246 21.9023 693.206 21.0663C691.23 20.5343 690.318 19.8503 690.318 18.8623ZM763.991 16.1263C768.247 16.1263 772.275 17.4943 775.239 18.1783C775.695 18.2543 776.227 19.4703 776.227 20.3063C776.227 21.2183 776.759 25.3983 776.759 26.5383C776.759 29.1223 775.543 30.1863 774.479 30.1863C773.643 30.1863 772.959 28.8943 772.731 28.2863C771.059 23.7263 767.107 19.6223 762.775 19.6223C759.583 19.6223 756.695 22.5863 756.695 25.4743C756.695 28.8943 759.203 31.4023 763.535 33.6063C773.111 38.4703 778.735 42.7263 778.735 49.9463C778.735 56.1783 774.479 59.6743 771.743 61.3463C768.779 63.0943 763.763 64.3863 760.267 64.3863C753.807 64.3863 750.083 63.0183 748.335 62.3343C747.803 62.1063 746.587 61.4223 746.207 60.5863C744.915 57.8503 744.687 53.8983 744.687 52.0743C744.687 50.6303 745.447 48.8063 746.663 48.8063C747.499 48.8063 748.487 49.7183 749.551 51.6943C752.363 56.8623 756.543 60.5863 761.255 60.5863C763.991 60.5863 767.411 58.6863 767.411 55.1903C767.411 52.9103 767.563 50.4023 759.811 46.2223C749.855 40.9023 745.979 36.7983 745.979 29.7303C745.979 24.7903 749.475 20.7623 753.123 18.7103C756.011 17.1143 759.659 16.1263 763.991 16.1263ZM805.999 16.1263C810.255 16.1263 814.283 17.4943 817.247 18.1783C817.703 18.2543 818.235 19.4703 818.235 20.3063C818.235 21.2183 818.767 25.3983 818.767 26.5383C818.767 29.1223 817.551 30.1863 816.487 30.1863C815.651 30.1863 814.967 28.8943 814.739 28.2863C813.067 23.7263 809.115 19.6223 804.783 19.6223C801.591 19.6223 798.703 22.5863 798.703 25.4743C798.703 28.8943 801.211 31.4023 805.543 33.6063C815.119 38.4703 820.743 42.7263 820.743 49.9463C820.743 56.1783 816.487 59.6743 813.751 61.3463C810.787 63.0943 805.771 64.3863 802.275 64.3863C795.815 64.3863 792.091 63.0183 790.343 62.3343C789.811 62.1063 788.595 61.4223 788.215 60.5863C786.923 57.8503 786.695 53.8983 786.695 52.0743C786.695 50.6303 787.455 48.8063 788.671 48.8063C789.507 48.8063 790.495 49.7183 791.559 51.6943C794.371 56.8623 798.551 60.5863 803.263 60.5863C805.999 60.5863 809.419 58.6863 809.419 55.1903C809.419 52.9103 809.571 50.4023 801.819 46.2223C791.863 40.9023 787.987 36.7983 787.987 29.7303C787.987 24.7903 791.483 20.7623 795.131 18.7103C798.019 17.1143 801.667 16.1263 805.999 16.1263ZM844.283 17.5703H852.111C859.027 17.5703 860.091 17.5703 861.839 17.1903C862.675 17.0383 863.207 17.4943 863.435 17.8743C863.891 18.6343 864.499 24.4103 864.499 26.0823C864.499 28.0583 863.587 28.5143 863.131 28.5143C861.763 28.5143 861.003 27.6783 860.091 25.6263C858.647 22.5103 857.583 21.9783 856.975 21.9783C852.643 21.9783 848.463 22.2063 847.399 22.2063C847.019 22.2063 846.411 23.0423 846.411 23.3463C846.335 24.7903 846.183 30.2623 846.183 35.5063C846.183 36.7223 846.411 37.4823 846.791 37.5583C847.627 37.7863 850.287 37.7103 851.655 37.6343C855.075 37.4063 856.139 36.1903 856.975 34.2903C857.431 33.1503 858.191 32.2383 859.027 32.2383C860.091 32.2383 860.775 33.3023 860.623 35.5063C860.547 36.4183 860.471 38.1663 860.471 39.9143C860.471 41.6623 860.623 43.4103 860.699 44.5503C860.851 46.6023 859.711 47.5143 858.951 47.5143C858.267 47.5143 857.279 46.6783 856.595 45.1583C855.835 43.4103 855.607 42.8783 854.011 42.7263C850.895 42.4983 850.439 42.3463 847.019 42.3463C846.639 42.3463 846.183 43.4103 846.183 45.3103C846.183 47.3623 846.411 51.7703 846.487 53.4423C846.639 55.6463 846.943 56.4823 847.171 56.7863C847.931 57.9263 851.579 58.9143 855.227 58.9143C856.443 58.9143 858.571 58.6863 860.319 57.6983C861.763 56.9383 862.523 56.0263 864.195 53.7463C865.411 52.0743 866.247 50.2503 867.463 50.2503C868.907 50.2503 869.363 52.4543 869.059 54.0503C868.603 56.2543 866.779 61.3463 866.475 62.0303C866.247 62.5623 864.651 63.3983 864.195 63.3983C863.207 63.3983 860.167 63.0183 846.335 63.0183C841.547 63.0183 831.971 63.3223 828.703 63.3223C827.107 63.3223 825.967 62.7143 825.967 62.1063C825.967 61.1943 826.575 60.1303 828.171 59.6743C833.415 58.2303 833.567 56.4823 833.719 55.1143C834.023 51.4663 834.099 49.8703 834.099 38.1663C834.099 26.4623 833.947 26.0063 833.719 24.6383C833.339 22.3583 832.351 21.5223 829.311 20.7623C827.335 20.3063 827.031 19.2423 827.031 18.7103C827.031 17.7223 828.551 17.1903 829.539 17.1903C830.831 17.1903 839.267 17.5703 844.283 17.5703ZM869.185 18.8623C869.185 17.7223 871.009 17.1903 871.921 17.1903C873.365 17.1903 882.409 17.5703 884.537 17.5703C887.577 17.5703 890.389 17.4183 891.681 17.4183C893.049 17.4183 894.113 18.1783 894.113 19.0143C894.113 19.4703 893.429 20.4583 891.529 21.2183C889.933 21.9023 890.009 22.5103 890.769 24.1823C893.201 29.2743 897.077 35.6583 898.293 37.7103C898.597 38.1663 899.205 38.0903 899.585 37.7863C900.421 37.0263 904.753 28.6663 906.121 25.6263C907.413 22.8903 906.957 22.1303 904.145 21.1423C903.005 20.7623 901.713 20.0783 901.713 19.0903C901.713 18.0263 903.081 17.4183 904.677 17.4183C908.097 17.4183 908.021 17.5703 909.921 17.5703C912.809 17.5703 916.305 17.2663 918.965 17.2663C920.257 17.2663 921.169 18.1023 921.169 18.7863C921.169 19.6983 920.029 20.6103 918.585 21.0663C916.077 21.9023 913.949 23.1183 911.593 26.3103C908.249 30.8703 902.929 39.2303 901.409 42.5743C900.953 43.5623 900.953 44.3983 900.877 45.9943C900.725 48.5783 900.725 53.5943 900.725 55.7983C900.953 57.6983 902.929 58.5343 905.969 59.5983C907.337 60.0543 908.021 60.8143 908.021 61.6503C908.021 62.4103 906.881 63.4743 905.361 63.4743C902.397 63.4743 899.737 63.0183 895.101 63.0183C888.641 63.0183 887.805 63.2463 885.069 63.2463C882.865 63.2463 881.649 62.5623 881.649 61.3463C881.649 60.5103 882.941 59.5223 884.993 58.9903C887.501 58.3823 888.185 57.9263 888.413 54.0503C888.565 51.5423 888.565 47.1343 888.565 45.6143C888.565 44.3223 888.261 43.1063 887.045 40.9783C883.777 34.8983 879.901 28.2103 877.545 25.0183C876.405 23.4223 875.113 21.9023 872.073 21.0663C870.097 20.5343 869.185 19.8503 869.185 18.8623ZM924.295 66.7423C931.211 48.9583 937.595 32.6183 944.435 14.8343C944.967 13.7703 945.651 12.8583 946.107 12.8583C947.095 12.8583 948.843 13.3903 949.679 13.6943C950.059 13.7703 950.743 14.7583 950.439 15.3663C943.523 33.2263 936.455 50.9343 929.919 67.5023C929.691 68.1103 928.779 68.9463 928.019 68.9463C927.183 68.9463 925.587 68.3383 924.903 67.9583C924.599 67.8063 924.143 67.1223 924.295 66.7423Z" fill="white"/>
<path d="M221.341 85.022C243.054 85.022 257.669 99.6366 257.669 118.322C257.669 131.371 249.944 141.601 240.131 147.03C235.642 149.535 228.335 151.414 221.654 151.414C199.628 151.414 185.222 136.382 185.222 118.322C185.222 110.284 188.249 102.351 194.721 95.8786C201.507 89.0932 211.528 85.022 221.341 85.022ZM219.462 90.4503C214.556 90.4503 210.171 94.6259 210.067 94.7303C205.682 99.5322 203.803 106.631 203.803 116.443C203.803 130.64 210.276 146.09 224.368 146.09C227.917 146.09 232.093 142.958 232.615 142.541C235.955 139.409 238.67 132.833 238.67 119.053C238.67 108.092 233.241 90.4503 219.462 90.4503ZM309.093 85.022C313.895 85.022 318.697 86.0659 321.515 86.7966C324.125 87.5274 327.883 88.6757 328.718 88.6757C329.24 88.6757 330.493 90.0327 330.493 90.6591C330.493 94.4171 331.537 99.741 331.537 102.351C331.537 105.274 329.553 106.944 328.196 106.944C327.361 106.944 326.839 106.109 326.004 103.812C324.438 99.5322 323.812 97.2356 319.949 94.4171C316.713 92.0161 313.06 90.2415 308.571 90.2415C304.082 90.2415 298.341 92.8513 294.896 97.0269C290.407 102.351 288.319 110.284 288.319 116.548C288.319 124.481 290.929 131.58 293.956 135.86C297.714 141.184 304.604 145.046 310.868 145.046C313.477 145.046 318.175 143.376 320.263 142.228C321.098 141.706 322.977 139.722 325.587 135.547C327.57 132.415 328.823 131.162 329.866 131.162C331.85 131.162 332.059 133.146 331.954 135.338C331.954 136.278 329.971 143.272 329.971 145.255C329.971 145.568 329.136 147.03 328.823 147.238C325.169 149.013 315.878 151.414 308.675 151.414C297.088 151.414 284.77 147.969 277.358 139.827C272.765 134.816 269.529 127.926 269.529 118.636C269.529 107.466 274.54 98.0708 283.726 91.703C288.424 88.4669 298.236 85.022 309.093 85.022ZM362.614 87.1098H394.557C400.403 87.1098 403.013 86.3791 403.43 85.8571C404.683 84.2913 405.831 83.3518 406.562 83.3518C407.188 83.3518 409.903 85.022 409.903 86.6922C409.903 87.423 408.65 93.9996 408.65 100.994C408.65 103.081 407.084 105.378 405.101 105.378C403.639 105.378 402.804 102.768 402.595 101.829C401.029 94.9391 399.255 94.7303 395.497 94.3127C393.931 94.1039 393.618 93.7908 384.745 93.7908C384.223 93.7908 383.91 94.6259 383.805 95.6698C383.701 97.1313 383.074 111.224 383.074 117.8C383.074 124.168 382.97 131.058 383.283 134.816C383.91 142.437 385.684 142.75 389.964 144.316C391.843 145.046 393.618 145.986 393.618 147.238C393.618 149.535 391.112 150.057 389.025 150.057C387.981 150.057 376.498 149.535 370.234 149.535C367.207 149.535 361.57 149.848 358.752 149.848C356.559 149.848 354.472 148.909 354.472 147.03C354.472 146.195 355.515 144.733 357.916 144.107C364.389 142.332 366.163 140.975 366.163 135.234C366.163 133.041 366.372 119.158 366.372 112.372C366.372 105.9 366.476 99.0103 366.476 95.7742C366.476 94.9391 365.432 93.7908 365.119 93.7908C362.51 93.7908 358.647 93.7908 355.933 93.8952C353.01 93.9996 350.192 93.9996 347.373 101.829C346.747 103.603 345.494 104.961 344.346 104.961C342.989 104.961 341.423 103.081 341.423 100.576C341.423 97.34 342.571 92.6425 342.571 86.901C342.571 85.1264 344.137 83.5606 345.39 83.5606C345.703 83.5606 346.955 84.1869 347.686 84.7088C349.461 86.1703 351.027 86.7966 354.054 86.901C358.334 87.1098 359.273 87.1098 362.614 87.1098ZM452.752 85.022C474.465 85.022 489.08 99.6366 489.08 118.322C489.08 131.371 481.355 141.601 471.542 147.03C467.054 149.535 459.746 151.414 453.065 151.414C431.039 151.414 416.633 136.382 416.633 118.322C416.633 110.284 419.661 102.351 426.133 95.8786C432.918 89.0932 442.94 85.022 452.752 85.022ZM450.873 90.4503C445.967 90.4503 441.583 94.6259 441.478 94.7303C437.094 99.5322 435.215 106.631 435.215 116.443C435.215 130.64 441.687 146.09 455.78 146.09C459.329 146.09 463.504 142.958 464.026 142.541C467.367 139.409 470.081 132.833 470.081 119.053C470.081 108.092 464.653 90.4503 450.873 90.4503ZM538.426 106.944C538.426 101.098 536.025 96.8181 535.503 96.0874C535.086 95.5654 531.328 92.1205 527.465 92.1205C526.317 92.1205 524.96 92.5381 524.542 92.9556C524.229 93.2688 523.812 93.8952 523.812 94.4171C523.499 98.5927 523.394 111.955 523.394 116.235C523.394 126.674 523.499 134.712 523.499 135.756C523.499 141.601 524.856 143.167 530.493 144.733C532.998 145.464 534.042 146.195 534.042 147.656C534.042 148.596 532.58 149.848 529.866 149.848C526.735 149.848 522.141 149.535 517.861 149.535C514.103 149.535 504.291 150.161 500.846 150.161C498.236 150.161 496.462 149.222 496.462 147.865C496.462 146.508 497.505 145.568 500.533 144.629C505.022 143.167 505.752 141.393 506.065 138.678C506.274 136.591 507.005 123.751 507.005 109.24C507.005 104.752 506.901 99.741 506.587 97.34C506.379 94.9391 505.543 93.06 500.95 92.0161C499.28 91.5986 497.297 90.0327 497.297 88.9888C497.297 87.1098 498.758 86.6922 500.533 86.6922C505.022 86.6922 507.944 87.1098 513.164 87.1098C516.713 87.1098 522.246 86.5879 530.388 86.5879C539.47 86.5879 546.151 89.4064 549.7 93.06C552.206 95.6698 555.337 101.411 555.337 106.84C555.337 114.982 550.536 120.723 548.448 122.498C544.168 126.047 539.679 127.613 534.877 127.613C532.163 127.613 530.597 127.196 529.031 126.152C527.883 125.421 526.943 124.377 526.943 123.855C526.943 122.707 527.361 121.976 528.196 121.872C528.614 121.767 529.136 121.767 529.658 121.663C532.163 121.037 538.426 119.471 538.426 106.944ZM562.739 88.9888C562.739 87.5274 564.618 86.5879 568.063 86.5879C571.299 86.5879 579.129 87.1098 582.573 87.1098C587.167 87.1098 592.073 86.7966 593.534 86.7966C596.249 86.7966 598.128 88.2581 598.128 89.302C598.128 90.5547 595.727 91.9117 594.161 92.3293C589.463 93.582 588.837 94.9391 588.524 99.8454C588.106 105.482 588.106 113.207 588.628 122.185C589.15 131.267 591.133 136.069 593.326 137.948C596.249 140.453 600.529 142.332 604.913 142.332C612.951 142.332 619.423 138.47 620.78 127.196C621.302 123.02 621.407 111.746 621.407 105.691C621.407 94.8347 621.302 93.9996 613.89 92.2249C611.803 91.703 610.028 90.8679 610.028 89.0932C610.028 88.2581 611.49 86.7966 614.308 86.7966C616.396 86.7966 619.736 87.1098 623.703 87.1098C627.461 87.1098 631.741 86.5879 635.395 86.5879C637.378 86.5879 639.466 87.2142 639.466 88.9888C639.466 90.3459 637.691 91.3898 635.604 92.1205C630.802 93.8952 630.071 94.7303 629.445 99.8454C629.236 101.098 628.818 109.867 628.401 117.905C627.461 134.816 624.016 140.14 618.901 145.151C614.621 149.326 607.314 151.414 600.111 151.414C591.655 151.414 582.573 148.804 578.189 142.958C572.343 135.234 571.926 127.196 571.926 115.295C571.926 102.768 571.717 101.202 571.508 98.0708C571.195 93.8952 570.464 93.3732 566.602 92.2249C564.514 91.5986 562.739 90.7635 562.739 88.9888ZM671.683 85.1264C677.529 85.1264 683.062 87.0054 687.133 87.9449C687.759 88.0493 688.49 89.7196 688.49 90.8679C688.49 92.1205 689.221 97.862 689.221 99.4278C689.221 102.977 687.551 104.439 686.089 104.439C684.941 104.439 684.001 102.664 683.688 101.829C681.392 95.5654 675.963 89.9283 670.013 89.9283C665.629 89.9283 661.662 93.9996 661.662 97.9664C661.662 102.664 665.107 106.109 671.057 109.136C684.21 115.817 691.935 121.663 691.935 131.58C691.935 140.14 686.089 144.942 682.331 147.238C678.26 149.639 671.37 151.414 666.568 151.414C657.695 151.414 652.58 149.535 650.179 148.596C649.448 148.282 647.778 147.343 647.256 146.195C645.482 142.437 645.168 137.008 645.168 134.503C645.168 132.519 646.212 130.014 647.882 130.014C649.031 130.014 650.388 131.267 651.849 133.981C655.712 141.079 661.453 146.195 667.925 146.195C671.683 146.195 676.381 143.585 676.381 138.783C676.381 135.651 676.59 132.206 665.942 126.465C652.267 119.158 646.943 113.52 646.943 103.812C646.943 97.0269 651.745 91.4942 656.756 88.6757C660.722 86.4835 665.733 85.1264 671.683 85.1264ZM239.63 166.835C270.83 166.835 291.83 187.835 291.83 214.685C291.83 233.435 280.73 248.135 266.63 255.935C260.18 259.535 249.68 262.235 240.08 262.235C208.43 262.235 187.73 240.635 187.73 214.685C187.73 203.135 192.08 191.735 201.38 182.435C211.13 172.685 225.53 166.835 239.63 166.835ZM236.93 174.635C229.88 174.635 223.58 180.635 223.43 180.785C217.13 187.685 214.43 197.885 214.43 211.985C214.43 232.385 223.73 254.585 243.98 254.585C249.08 254.585 255.08 250.085 255.83 249.485C260.63 244.985 264.53 235.535 264.53 215.735C264.53 199.985 256.73 174.635 236.93 174.635ZM351.337 168.785C365.737 168.785 380.587 171.935 391.687 181.235C404.287 191.885 406.837 205.235 406.837 214.535C406.837 237.485 391.537 249.335 383.437 253.835C372.787 259.535 361.537 260.735 350.437 260.735C344.287 260.735 327.937 259.535 323.137 259.535C318.337 259.535 311.587 259.535 304.387 260.135C303.187 260.285 301.987 259.235 301.987 258.185C301.987 256.535 304.237 252.935 307.987 251.885C312.787 250.535 315.337 250.985 316.537 244.235C317.587 238.385 317.587 230.885 317.587 211.085C317.587 190.535 317.887 187.985 316.837 182.735C316.537 181.085 316.237 178.835 309.187 177.335C305.587 176.585 303.487 174.935 303.487 172.835C303.487 170.585 305.887 169.685 310.237 169.685L320.587 169.835C325.837 169.985 340.837 168.785 351.337 168.785ZM351.337 176.735C350.137 176.735 345.187 177.335 344.137 177.935C343.537 178.235 342.037 181.085 342.037 181.685C341.737 186.785 341.137 193.235 341.137 204.485V215.285C341.137 234.485 341.737 236.885 342.187 241.385C342.487 244.535 344.137 247.685 345.937 249.185C347.587 250.535 352.987 253.085 354.937 253.085C356.587 253.085 364.687 251.285 371.287 244.985C378.037 238.535 380.887 225.935 380.887 215.885C380.887 204.935 378.037 193.685 370.387 186.185C363.787 179.585 356.137 176.735 351.337 176.735ZM409.834 172.385C409.834 170.135 413.434 169.085 415.234 169.085C418.084 169.085 435.934 169.835 440.134 169.835C446.134 169.835 451.684 169.535 454.234 169.535C456.934 169.535 459.034 171.035 459.034 172.685C459.034 173.585 457.684 175.535 453.934 177.035C450.784 178.385 450.934 179.585 452.434 182.885C457.234 192.935 464.884 205.535 467.284 209.585C467.884 210.485 469.084 210.335 469.834 209.735C471.484 208.235 480.034 191.735 482.734 185.735C485.284 180.335 484.384 178.835 478.834 176.885C476.584 176.135 474.034 174.785 474.034 172.835C474.034 170.735 476.734 169.535 479.884 169.535C486.634 169.535 486.484 169.835 490.234 169.835C495.934 169.835 502.834 169.235 508.084 169.235C510.634 169.235 512.434 170.885 512.434 172.235C512.434 174.035 510.184 175.835 507.334 176.735C502.384 178.385 498.184 180.785 493.534 187.085C486.934 196.085 476.434 212.585 473.434 219.185C472.534 221.135 472.534 222.785 472.384 225.935C472.084 231.035 472.084 240.935 472.084 245.285C472.534 249.035 476.434 250.685 482.434 252.785C485.134 253.685 486.484 255.185 486.484 256.835C486.484 258.335 484.234 260.435 481.234 260.435C475.384 260.435 470.134 259.535 460.984 259.535C448.234 259.535 446.584 259.985 441.184 259.985C436.834 259.985 434.434 258.635 434.434 256.235C434.434 254.585 436.984 252.635 441.034 251.585C445.984 250.385 447.334 249.485 447.784 241.835C448.084 236.885 448.084 228.185 448.084 225.185C448.084 222.635 447.484 220.235 445.084 216.035C438.634 204.035 430.984 190.835 426.334 184.535C424.084 181.385 421.534 178.385 415.534 176.735C411.634 175.685 409.834 174.335 409.834 172.385ZM555.242 166.985C563.642 166.985 571.592 169.685 577.442 171.035C578.342 171.185 579.392 173.585 579.392 175.235C579.392 177.035 580.442 185.285 580.442 187.535C580.442 192.635 578.042 194.735 575.942 194.735C574.292 194.735 572.942 192.185 572.492 190.985C569.192 181.985 561.392 173.885 552.842 173.885C546.542 173.885 540.842 179.735 540.842 185.435C540.842 192.185 545.792 197.135 554.342 201.485C573.242 211.085 584.342 219.485 584.342 233.735C584.342 246.035 575.942 252.935 570.542 256.235C564.692 259.685 554.792 262.235 547.892 262.235C535.142 262.235 527.792 259.535 524.342 258.185C523.292 257.735 520.892 256.385 520.142 254.735C517.592 249.335 517.142 241.535 517.142 237.935C517.142 235.085 518.642 231.485 521.042 231.485C522.692 231.485 524.642 233.285 526.742 237.185C532.292 247.385 540.542 254.735 549.842 254.735C555.242 254.735 561.992 250.985 561.992 244.085C561.992 239.585 562.292 234.635 546.992 226.385C527.342 215.885 519.692 207.785 519.692 193.835C519.692 184.085 526.592 176.135 533.792 172.085C539.492 168.935 546.692 166.985 555.242 166.985ZM638.152 166.985C646.552 166.985 654.502 169.685 660.352 171.035C661.252 171.185 662.302 173.585 662.302 175.235C662.302 177.035 663.352 185.285 663.352 187.535C663.352 192.635 660.952 194.735 658.852 194.735C657.202 194.735 655.852 192.185 655.402 190.985C652.102 181.985 644.302 173.885 635.752 173.885C629.452 173.885 623.752 179.735 623.752 185.435C623.752 192.185 628.702 197.135 637.252 201.485C656.152 211.085 667.252 219.485 667.252 233.735C667.252 246.035 658.852 252.935 653.452 256.235C647.602 259.685 637.702 262.235 630.802 262.235C618.052 262.235 610.702 259.535 607.252 258.185C606.202 257.735 603.802 256.385 603.052 254.735C600.502 249.335 600.052 241.535 600.052 237.935C600.052 235.085 601.552 231.485 603.952 231.485C605.602 231.485 607.552 233.285 609.652 237.185C615.202 247.385 623.452 254.735 632.752 254.735C638.152 254.735 644.902 250.985 644.902 244.085C644.902 239.585 645.202 234.635 629.902 226.385C610.252 215.885 602.602 207.785 602.602 193.835C602.602 184.085 609.502 176.135 616.702 172.085C622.402 168.935 629.602 166.985 638.152 166.985ZM713.713 169.835H729.163C742.813 169.835 744.913 169.835 748.363 169.085C750.013 168.785 751.062 169.685 751.513 170.435C752.413 171.935 753.613 183.335 753.613 186.635C753.613 190.535 751.812 191.435 750.913 191.435C748.213 191.435 746.713 189.785 744.913 185.735C742.063 179.585 739.963 178.535 738.763 178.535C730.213 178.535 721.963 178.985 719.863 178.985C719.113 178.985 717.913 180.635 717.913 181.235C717.763 184.085 717.463 194.885 717.463 205.235C717.463 207.635 717.913 209.135 718.663 209.285C720.313 209.735 725.563 209.585 728.263 209.435C735.013 208.985 737.113 206.585 738.763 202.835C739.663 200.585 741.163 198.785 742.813 198.785C744.913 198.785 746.263 200.885 745.963 205.235C745.813 207.035 745.663 210.485 745.663 213.935C745.663 217.385 745.963 220.835 746.113 223.085C746.413 227.135 744.163 228.935 742.663 228.935C741.313 228.935 739.363 227.285 738.013 224.285C736.513 220.835 736.063 219.785 732.913 219.485C726.763 219.035 725.863 218.735 719.113 218.735C718.363 218.735 717.463 220.835 717.463 224.585C717.463 228.635 717.913 237.335 718.063 240.635C718.363 244.985 718.963 246.635 719.413 247.235C720.913 249.485 728.113 251.435 735.313 251.435C737.713 251.435 741.913 250.985 745.363 249.035C748.213 247.535 749.713 245.735 753.013 241.235C755.413 237.935 757.063 234.335 759.463 234.335C762.313 234.335 763.213 238.685 762.613 241.835C761.713 246.185 758.113 256.235 757.513 257.585C757.063 258.635 753.913 260.285 753.013 260.285C751.062 260.285 745.063 259.535 717.763 259.535C708.313 259.535 689.413 260.135 682.963 260.135C679.813 260.135 677.563 258.935 677.563 257.735C677.563 255.935 678.763 253.835 681.913 252.935C692.263 250.085 692.563 246.635 692.863 243.935C693.463 236.735 693.613 233.585 693.613 210.485C693.613 187.385 693.313 186.485 692.863 183.785C692.113 179.285 690.163 177.635 684.163 176.135C680.263 175.235 679.663 173.135 679.663 172.085C679.663 170.135 682.663 169.085 684.613 169.085C687.163 169.085 703.813 169.835 713.713 169.835ZM762.861 172.385C762.861 170.135 766.461 169.085 768.261 169.085C771.111 169.085 788.961 169.835 793.161 169.835C799.161 169.835 804.711 169.535 807.261 169.535C809.961 169.535 812.061 171.035 812.061 172.685C812.061 173.585 810.711 175.535 806.961 177.035C803.811 178.385 803.961 179.585 805.461 182.885C810.261 192.935 817.911 205.535 820.311 209.585C820.911 210.485 822.111 210.335 822.861 209.735C824.511 208.235 833.061 191.735 835.761 185.735C838.311 180.335 837.411 178.835 831.861 176.885C829.611 176.135 827.061 174.785 827.061 172.835C827.061 170.735 829.761 169.535 832.911 169.535C839.661 169.535 839.511 169.835 843.261 169.835C848.961 169.835 855.861 169.235 861.111 169.235C863.661 169.235 865.461 170.885 865.461 172.235C865.461 174.035 863.211 175.835 860.361 176.735C855.411 178.385 851.211 180.785 846.561 187.085C839.961 196.085 829.461 212.585 826.461 219.185C825.561 221.135 825.561 222.785 825.411 225.935C825.111 231.035 825.111 240.935 825.111 245.285C825.561 249.035 829.461 250.685 835.461 252.785C838.161 253.685 839.511 255.185 839.511 256.835C839.511 258.335 837.261 260.435 834.261 260.435C828.411 260.435 823.161 259.535 814.011 259.535C801.261 259.535 799.611 259.985 794.211 259.985C789.861 259.985 787.461 258.635 787.461 256.235C787.461 254.585 790.011 252.635 794.061 251.585C799.011 250.385 800.361 249.485 800.811 241.835C801.111 236.885 801.111 228.185 801.111 225.185C801.111 222.635 800.511 220.235 798.111 216.035C791.661 204.035 784.011 190.835 779.361 184.535C777.111 181.385 774.561 178.385 768.561 176.735C764.661 175.685 762.861 174.335 762.861 172.385Z" fill="white"/>
<path d="M885.792 238.839C885.792 247.655 889.288 257.003 893.696 264.299C895.216 266.807 896.888 269.315 896.888 269.999C896.888 271.139 894.684 272.659 892.936 272.659C890.884 272.659 886.78 268.251 883.284 260.499C880.472 254.267 878.648 246.895 878.648 239.067C878.648 224.095 885.184 212.847 889.516 207.527C891.644 204.867 893.544 204.031 894.076 204.031C895.292 204.031 897.116 205.779 897.116 206.615C897.116 206.843 896.736 207.831 896.432 208.287C891.416 214.291 885.792 224.627 885.792 238.839ZM922.076 212.087H945.332C949.588 212.087 951.488 211.555 951.792 211.175C952.704 210.035 953.54 209.351 954.072 209.351C954.528 209.351 956.504 210.567 956.504 211.783C956.504 212.315 955.592 217.103 955.592 222.195C955.592 223.715 954.452 225.387 953.008 225.387C951.944 225.387 951.336 223.487 951.184 222.803C950.044 217.787 948.752 217.635 946.016 217.331C944.876 217.179 944.648 216.951 938.188 216.951C937.808 216.951 937.58 217.559 937.504 218.319C937.428 219.383 936.972 229.643 936.972 234.431C936.972 239.067 936.896 244.083 937.124 246.819C937.58 252.367 938.872 252.595 941.988 253.735C943.356 254.267 944.648 254.951 944.648 255.863C944.648 257.535 942.824 257.915 941.304 257.915C940.544 257.915 932.184 257.535 927.624 257.535C925.42 257.535 921.316 257.763 919.264 257.763C917.668 257.763 916.148 257.079 916.148 255.711C916.148 255.103 916.908 254.039 918.656 253.583C923.368 252.291 924.66 251.303 924.66 247.123C924.66 245.527 924.812 235.419 924.812 230.479C924.812 225.767 924.888 220.751 924.888 218.395C924.888 217.787 924.128 216.951 923.9 216.951C922 216.951 919.188 216.951 917.212 217.027C915.084 217.103 913.032 217.103 910.98 222.803C910.524 224.095 909.612 225.083 908.776 225.083C907.788 225.083 906.648 223.715 906.648 221.891C906.648 219.535 907.484 216.115 907.484 211.935C907.484 210.643 908.624 209.503 909.536 209.503C909.764 209.503 910.676 209.959 911.208 210.339C912.5 211.403 913.64 211.859 915.844 211.935C918.96 212.087 919.644 212.087 922.076 212.087ZM987.701 210.567C1003.51 210.567 1014.15 221.207 1014.15 234.811C1014.15 244.311 1008.52 251.759 1001.38 255.711C998.113 257.535 992.793 258.903 987.929 258.903C971.893 258.903 961.405 247.959 961.405 234.811C961.405 228.959 963.609 223.183 968.321 218.471C973.261 213.531 980.557 210.567 987.701 210.567ZM986.333 214.519C982.761 214.519 979.569 217.559 979.493 217.635C976.301 221.131 974.933 226.299 974.933 233.443C974.933 243.779 979.645 255.027 989.905 255.027C992.489 255.027 995.529 252.747 995.909 252.443C998.341 250.163 1000.32 245.375 1000.32 235.343C1000.32 227.363 996.365 214.519 986.333 214.519ZM1049.08 210.567C1064.89 210.567 1075.53 221.207 1075.53 234.811C1075.53 244.311 1069.9 251.759 1062.76 255.711C1059.49 257.535 1054.17 258.903 1049.31 258.903C1033.27 258.903 1022.78 247.959 1022.78 234.811C1022.78 228.959 1024.99 223.183 1029.7 218.471C1034.64 213.531 1041.94 210.567 1049.08 210.567ZM1047.71 214.519C1044.14 214.519 1040.95 217.559 1040.87 217.635C1037.68 221.131 1036.31 226.299 1036.31 233.443C1036.31 243.779 1041.02 255.027 1051.28 255.027C1053.87 255.027 1056.91 252.747 1057.29 252.443C1059.72 250.163 1061.7 245.375 1061.7 235.343C1061.7 227.363 1057.74 214.519 1047.71 214.519ZM1095.06 237.851C1095.06 229.035 1091.56 219.687 1087.15 212.391C1085.63 209.883 1083.96 207.375 1083.96 206.691C1083.96 205.551 1086.16 204.031 1087.91 204.031C1089.96 204.031 1094.07 208.439 1097.56 216.191C1100.38 222.423 1102.2 229.795 1102.2 237.623C1102.2 252.595 1095.66 263.843 1091.33 269.163C1088.98 272.051 1087.23 272.659 1086.39 272.659C1085.18 272.659 1083.73 271.291 1083.73 270.075C1083.73 269.619 1083.88 269.087 1084.42 268.403C1089.43 262.399 1095.06 252.063 1095.06 237.851Z" fill="white"/>
</svg>
