<svg width="1383" height="272" viewBox="0 0 1383 272" fill="none" xmlns="http://www.w3.org/2000/svg">
<path d="M62.5743 182.16V179.66H60.0743V182.16H62.5743ZM77.5632 182.16H80.0632V179.66H77.5632V182.16ZM77.5632 230.703V233.203H80.0632V230.703H77.5632ZM75.5122 230.703L73.9277 232.637L74.6188 233.203H75.5122V230.703ZM54.8958 215.451L53.4773 217.51L53.4791 217.511L54.8958 215.451ZM19.5009 205.196L21.1888 207.04L21.1972 207.032L21.2056 207.024L19.5009 205.196ZM25.549 229.756V232.256H31.3758L27.3608 228.034L25.549 229.756ZM10.1394 229.756L8.04213 231.117L8.78123 232.256H10.1394V229.756ZM8.71933 192.153L10.5792 193.823L10.5861 193.815L8.71933 192.153ZM62.5743 205.827L61.0251 207.789L65.0743 210.986V205.827H62.5743ZM62.5743 184.66H77.5632V179.66H62.5743V184.66ZM75.0633 182.16V230.703H80.0632V182.16H75.0633ZM77.5632 228.203H75.5122V233.203H77.5632V228.203ZM77.0966 228.769C71.5903 224.258 64.6573 219.131 56.3125 213.391L53.4791 217.511C61.7536 223.202 68.5649 228.243 73.9277 232.637L77.0966 228.769ZM56.3143 213.393C47.9855 207.653 41.8709 203.886 38.107 202.268L36.1319 206.861C39.3803 208.258 45.1166 211.749 53.4773 217.51L56.3143 213.393ZM38.107 202.268C34.3377 200.647 30.6013 199.803 26.9164 199.803V204.803C29.8233 204.803 32.8888 205.467 36.1319 206.861L38.107 202.268ZM26.9164 199.803C23.4203 199.803 20.3361 200.999 17.7962 203.367L21.2056 207.024C22.8029 205.535 24.6624 204.803 26.9164 204.803V199.803ZM17.813 203.351C15.2496 205.698 13.8979 208.654 13.8979 212.085H18.8979C18.8979 210.117 19.6149 208.48 21.1888 207.04L17.813 203.351ZM13.8979 212.085C13.8979 218.398 17.4656 224.883 23.7373 231.479L27.3608 228.034C21.431 221.797 18.8979 216.501 18.8979 212.085H13.8979ZM25.549 227.256H10.1394V232.256H25.549V227.256ZM12.2366 228.396C7.75523 221.488 5.64453 215.101 5.64453 209.193H0.644531C0.644531 216.327 3.19703 223.649 8.04213 231.117L12.2366 228.396ZM5.64453 209.193C5.64453 202.398 7.38583 197.378 10.5792 193.823L6.85953 190.482C2.61993 195.202 0.644531 201.542 0.644531 209.193H5.64453ZM10.5861 193.815C13.7503 190.263 18.1242 188.394 24.0238 188.394V183.394C16.9506 183.394 11.1215 185.697 6.85263 190.49L10.5861 193.815ZM24.0238 188.394C27.8838 188.394 32.8974 189.857 39.1662 193.098C45.3997 196.321 52.6817 201.201 61.0251 207.789L64.1236 203.865C55.6373 197.164 48.0794 192.078 41.4627 188.657C34.8813 185.254 29.0345 183.394 24.0238 183.394V188.394ZM65.0743 205.827V182.16H60.0743V205.827H65.0743ZM13.1897 129.094L14.5511 131.191L14.5587 131.186L13.1897 129.094ZM68.5173 165.751L69.899 167.835L69.9066 167.829L68.5173 165.751ZM13.0845 165.646L11.6752 167.711L11.6776 167.712L13.0845 165.646ZM59.4188 140.875L60.2991 138.535L60.2916 138.532L59.4188 140.875ZM22.0253 140.875L22.9163 143.21L22.9309 143.205L22.9454 143.199L22.0253 140.875ZM21.9201 153.97L20.95 156.274L20.9621 156.279L21.9201 153.97ZM59.3662 153.97L60.2515 156.308L60.2652 156.303L60.2789 156.298L59.3662 153.97ZM5.64453 147.291C5.64453 140.38 8.54243 135.092 14.5511 131.191L11.8284 126.997C4.44363 131.791 0.644531 138.635 0.644531 147.291H5.64453ZM14.5587 131.186C20.7072 127.162 29.2691 125.02 40.4854 125.02V120.02C28.7011 120.02 19.0659 122.26 11.8207 127.002L14.5587 131.186ZM40.4854 125.02C52.192 125.02 60.9848 127.104 67.1268 130.995L69.8026 126.772C62.551 122.178 52.6909 120.02 40.4854 120.02V125.02ZM67.1268 130.995C73.1044 134.782 76.01 140.053 76.01 147.081H81.0102C81.0102 138.33 77.2182 131.47 69.8026 126.772L67.1268 130.995ZM76.01 147.081C76.01 154.238 73.0977 159.682 67.1281 163.673L69.9066 167.829C77.2602 162.914 81.0102 155.912 81.0102 147.081H76.01ZM67.1356 163.668C61.0347 167.713 52.3627 169.878 40.8535 169.878V174.878C52.9059 174.878 62.6764 172.624 69.899 167.835L67.1356 163.668ZM40.8535 169.878C29.2005 169.878 20.5098 167.677 14.4915 163.579L11.6776 167.712C18.8425 172.591 28.6645 174.878 40.8535 174.878V169.878ZM14.4939 163.581C8.51703 159.501 5.64453 154.14 5.64453 147.291H0.644531C0.644531 155.87 4.39873 162.744 11.6752 167.711L14.4939 163.581ZM67.2306 147.291C67.2306 145.274 66.6085 143.43 65.3284 141.884C64.0827 140.379 62.3355 139.301 60.2991 138.535L58.5384 143.215C60.0433 143.781 60.952 144.438 61.477 145.072C61.9675 145.665 62.2306 146.362 62.2306 147.291H67.2306ZM60.2916 138.532C56.2402 137.023 49.1169 136.376 39.3283 136.376V141.376C49.1744 141.376 55.4448 142.062 58.546 143.217L60.2916 138.532ZM39.3283 136.376C31.141 136.376 24.951 137.028 21.1052 138.55L22.9454 143.199C25.8315 142.057 31.1769 141.376 39.3283 141.376V136.376ZM21.1343 138.539C19.1408 139.299 17.4365 140.395 16.2301 141.938C14.9994 143.511 14.4238 145.375 14.4238 147.396H19.4238C19.4238 146.367 19.6985 145.619 20.1683 145.018C20.6624 144.387 21.5088 143.747 22.9163 143.21L21.1343 138.539ZM14.4238 147.396C14.4238 149.385 14.9912 151.22 16.1825 152.788C17.3505 154.324 19.0038 155.455 20.95 156.274L22.8903 151.666C21.5056 151.083 20.6607 150.417 20.1633 149.762C19.6891 149.138 19.4238 148.388 19.4238 147.396H14.4238ZM20.9621 156.279C22.9479 157.103 25.6983 157.646 29.0501 157.995C32.4451 158.349 36.632 158.521 41.5898 158.521V153.521C36.7303 153.521 32.7303 153.352 29.5687 153.022C26.3639 152.688 24.1882 152.205 22.8782 151.661L20.9621 156.279ZM41.5898 158.521C49.8675 158.521 56.1857 157.848 60.2515 156.308L58.4809 151.632C55.3239 152.828 49.7912 153.521 41.5898 153.521V158.521ZM60.2789 156.298C62.3381 155.49 64.0932 154.365 65.3387 152.814C66.6145 151.226 67.2306 149.344 67.2306 147.291H62.2306C62.2306 148.289 61.9527 149.045 61.4404 149.683C60.8978 150.359 59.9706 151.048 58.4535 151.643L60.2789 156.298ZM62.5743 63.3V60.8H60.0743V63.3H62.5743ZM77.5632 63.3H80.0632V60.8H77.5632V63.3ZM77.5632 111.843V114.343H80.0632V111.843H77.5632ZM75.5122 111.843L73.9277 113.777L74.6188 114.343H75.5122V111.843ZM54.8958 96.5917L53.4773 98.6497L53.4791 98.6507L54.8958 96.5917ZM19.5009 86.3357L21.1888 88.1797L21.1972 88.1717L21.2056 88.1647L19.5009 86.3357ZM25.549 110.897V113.397H31.3758L27.3608 109.174L25.549 110.897ZM10.1394 110.897L8.04213 112.257L8.78123 113.397H10.1394V110.897ZM8.71933 73.2926L10.5792 74.9633L10.5861 74.9555L8.71933 73.2926ZM62.5743 86.9667L61.0251 88.9287L65.0743 92.1257V86.9667H62.5743ZM62.5743 65.8H77.5632V60.8H62.5743V65.8ZM75.0633 63.3V111.843H80.0632V63.3H75.0633ZM77.5632 109.343H75.5122V114.343H77.5632V109.343ZM77.0966 109.91C71.5903 105.398 64.6573 100.271 56.3125 94.5317L53.4791 98.6507C61.7536 104.342 68.5649 109.383 73.9277 113.777L77.0966 109.91ZM56.3143 94.5327C47.9855 88.7937 41.8709 85.0267 38.107 83.4077L36.1319 88.0007C39.3803 89.3977 45.1166 92.8887 53.4773 98.6497L56.3143 94.5327ZM38.107 83.4077C34.3377 81.7867 30.6013 80.9427 26.9164 80.9427V85.9427C29.8233 85.9427 32.8888 86.6067 36.1319 88.0007L38.107 83.4077ZM26.9164 80.9427C23.4203 80.9427 20.3361 82.1397 17.7962 84.5067L21.2056 88.1647C22.8029 86.6757 24.6624 85.9427 26.9164 85.9427V80.9427ZM17.813 84.4917C15.2496 86.8377 13.8979 89.7937 13.8979 93.2257H18.8979C18.8979 91.2567 19.6149 89.6207 21.1888 88.1797L17.813 84.4917ZM13.8979 93.2257C13.8979 99.5387 17.4656 106.023 23.7373 112.619L27.3608 109.174C21.431 102.938 18.8979 97.6407 18.8979 93.2257H13.8979ZM25.549 108.397H10.1394V113.397H25.549V108.397ZM12.2366 109.536C7.75523 102.629 5.64453 96.2417 5.64453 90.3327H0.644531C0.644531 97.4667 3.19703 104.79 8.04213 112.257L12.2366 109.536ZM5.64453 90.3327C5.64453 83.5377 7.38583 78.5183 10.5792 74.9633L6.85953 71.622C2.61993 76.3416 0.644531 82.6827 0.644531 90.3327H5.64453ZM10.5861 74.9555C13.7503 71.4033 18.1242 69.5341 24.0238 69.5341V64.5341C16.9506 64.5341 11.1215 66.8372 6.85263 71.6298L10.5861 74.9555ZM24.0238 69.5341C27.8838 69.5341 32.8974 70.9967 39.1662 74.238C45.3997 77.461 52.6817 82.3407 61.0251 88.9287L64.1236 85.0047C55.6373 78.304 48.0794 73.2177 41.4627 69.7965C34.8813 66.3936 29.0345 64.5341 24.0238 64.5341V69.5341ZM65.0743 86.9667V63.3H60.0743V86.9667H65.0743ZM45.9024 36.3725V38.8725H48.3044L48.4004 36.4724L45.9024 36.3725ZM32.9646 36.3725H30.4646V38.8725H32.9646V36.3725ZM30.3876 29.0621L28.5519 30.7593L28.56 30.768L28.5681 30.7766L30.3876 29.0621ZM19.2905 50.1518V52.6518H23.2966L21.5362 49.0532L19.2905 50.1518ZM6.35273 50.1518L4.06343 51.1565L4.71973 52.6518H6.35273V50.1518ZM8.19343 16.3873L10.1703 17.9177L10.1779 17.9077L8.19343 16.3873ZM38.1187 20.7525L35.9288 21.9585L38.5011 26.6291L40.4464 21.6645L38.1187 20.7525ZM72.6722 14.9673L74.6032 13.3795L74.5962 13.371L72.6722 14.9673ZM74.3551 51.9926V54.4926H75.8958L76.5883 53.1163L74.3551 51.9926ZM60.1025 51.9926L58.0568 50.5554L55.2909 54.4926H60.1025V51.9926ZM63.2581 28.168L65.176 26.5645L65.1684 26.5553L65.1606 26.5462L63.2581 28.168ZM49.0054 28.0629L50.8195 29.7831L50.8268 29.7753L50.8341 29.7675L49.0054 28.0629ZM45.9024 33.8725H32.9646V38.8725H45.9024V33.8725ZM35.4646 36.3725C35.4646 32.8312 34.4532 29.7313 32.207 27.3476L28.5681 30.7766C29.758 32.0394 30.4646 33.813 30.4646 36.3725H35.4646ZM32.2232 27.365C30.0647 25.0302 27.3622 23.7747 24.2342 23.7747V28.7747C25.8746 28.7747 27.2744 29.3775 28.5519 30.7593L32.2232 27.365ZM24.2342 23.7747C21.0018 23.7747 18.27 25.115 16.2016 27.633L20.0653 30.8067C21.2226 29.3978 22.558 28.7747 24.2342 28.7747V23.7747ZM16.2016 27.633C14.1557 30.1238 13.2142 33.2068 13.2142 36.6881H18.2142C18.2142 34.1387 18.8855 32.2429 20.0653 30.8067L16.2016 27.633ZM13.2142 36.6881C13.2142 41.2734 14.5449 46.1404 17.0448 51.2504L21.5362 49.0532C19.2676 44.416 18.2142 40.3072 18.2142 36.6881H13.2142ZM19.2905 47.6518H6.35273V52.6518H19.2905V47.6518ZM8.64193 49.1472C6.66553 44.6435 5.64453 39.4033 5.64453 33.3747H0.644531C0.644531 39.9684 1.76233 45.9129 4.06343 51.1565L8.64193 49.1472ZM5.64453 33.3747C5.64453 26.8003 7.22573 21.7212 10.1703 17.9177L6.21663 14.8568C2.42943 19.7487 0.644531 25.9945 0.644531 33.3747H5.64453ZM10.1779 17.9077C13.0548 14.1526 16.6456 12.3658 21.1312 12.3658V7.36579C15.0282 7.36579 9.99383 9.92659 6.20893 14.8669L10.1779 17.9077ZM21.1312 12.3658C27.412 12.3658 32.3016 15.3722 35.9288 21.9585L40.3086 19.5464C35.9417 11.6171 29.5063 7.36579 21.1312 7.36579V12.3658ZM40.4464 21.6645C41.9852 17.7372 44.1216 14.9627 46.7726 13.1535C49.4235 11.3444 52.7844 10.3672 56.9995 10.3672V5.36719C51.9933 5.36719 47.5968 6.53759 43.9541 9.02359C40.3116 11.5094 37.6181 15.1775 35.791 19.8404L40.4464 21.6645ZM56.9995 10.3672C62.8286 10.3672 67.328 12.4411 70.7481 16.5635L74.5962 13.371C70.1624 8.02669 64.2135 5.36719 56.9995 5.36719V10.3672ZM70.7411 16.555C74.1673 20.722 76.01 26.4505 76.01 34.0058H81.0102C81.0102 25.6431 78.9612 18.6792 74.6032 13.3795L70.7411 16.555ZM76.01 34.0058C76.01 40.1231 74.7071 45.7311 72.1219 50.8688L76.5883 53.1163C79.5432 47.2446 81.0102 40.8614 81.0102 34.0058H76.01ZM74.3551 49.4926H60.1025V54.4926H74.3551V49.4926ZM62.1481 53.4297C66.2187 47.6355 68.4403 41.9672 68.4403 36.4777H63.4403C63.4403 40.5952 61.77 45.2701 58.0568 50.5554L62.1481 53.4297ZM68.4403 36.4777C68.4403 32.6242 67.4179 29.2459 65.176 26.5645L61.3401 29.7716C62.6745 31.3677 63.4403 33.5292 63.4403 36.4777H68.4403ZM65.1606 26.5462C62.85 23.8357 59.7985 22.4599 56.2106 22.4599V27.4599C58.3729 27.4599 60.0197 28.2229 61.3555 29.7899L65.1606 26.5462ZM56.2106 22.4599C52.6551 22.4599 49.5869 23.7728 47.1767 26.3582L50.8341 29.7675C52.2808 28.2156 54.0159 27.4599 56.2106 27.4599V22.4599ZM47.1914 26.3426C44.749 28.9182 43.5626 32.3192 43.4044 36.2726L48.4004 36.4724C48.5228 33.4135 49.405 31.2747 50.8195 29.7831L47.1914 26.3426Z" fill="white"/>
<path d="M131.22 1.83008L131.01 233.86" stroke="white" stroke-width="2" stroke-miterlimit="10" stroke-linecap="round"/>
<path d="M207.021 33.0357C211.837 33.0357 216.395 34.5837 219.749 35.3577C220.265 35.4437 220.867 36.8197 220.867 37.7657C220.867 38.7977 221.469 43.5277 221.469 44.8177C221.469 47.7417 220.093 48.9457 218.889 48.9457C217.943 48.9457 217.169 47.4837 216.911 46.7957C215.019 41.6357 210.547 36.9917 205.645 36.9917C202.033 36.9917 198.765 40.3457 198.765 43.6137C198.765 47.4837 201.603 50.3217 206.505 52.8157C217.341 58.3197 223.705 63.1357 223.705 71.3057C223.705 78.3577 218.889 82.3137 215.793 84.2057C212.439 86.1837 206.763 87.6457 202.807 87.6457C195.497 87.6457 191.283 86.0977 189.305 85.3237C188.703 85.0657 187.327 84.2917 186.897 83.3457C185.435 80.2497 185.177 75.7777 185.177 73.7137C185.177 72.0797 186.037 70.0157 187.413 70.0157C188.359 70.0157 189.477 71.0477 190.681 73.2837C193.863 79.1317 198.593 83.3457 203.925 83.3457C207.021 83.3457 210.891 81.1957 210.891 77.2397C210.891 74.6597 211.063 71.8217 202.291 67.0917C191.025 61.0717 186.639 56.4277 186.639 48.4297C186.639 42.8397 190.595 38.2817 194.723 35.9597C197.991 34.1537 202.119 33.0357 207.021 33.0357ZM247.856 34.6697H274.172C278.988 34.6697 281.138 34.0677 281.482 33.6377C282.514 32.3477 283.46 31.5737 284.062 31.5737C284.578 31.5737 286.814 32.9497 286.814 34.3257C286.814 34.9277 285.782 40.3457 285.782 46.1077C285.782 47.8277 284.492 49.7197 282.858 49.7197C281.654 49.7197 280.966 47.5697 280.794 46.7957C279.504 41.1197 278.042 40.9477 274.946 40.6037C273.656 40.4317 273.398 40.1737 266.088 40.1737C265.658 40.1737 265.4 40.8617 265.314 41.7217C265.228 42.9257 264.712 54.5357 264.712 59.9537C264.712 65.1997 264.626 70.8757 264.884 73.9717C265.4 80.2497 266.862 80.5077 270.388 81.7977C271.936 82.3997 273.398 83.1737 273.398 84.2057C273.398 86.0977 271.334 86.5277 269.614 86.5277C268.754 86.5277 259.294 86.0977 254.134 86.0977C251.64 86.0977 246.996 86.3557 244.674 86.3557C242.868 86.3557 241.148 85.5817 241.148 84.0337C241.148 83.3457 242.008 82.1417 243.986 81.6257C249.318 80.1637 250.78 79.0457 250.78 74.3157C250.78 72.5097 250.952 61.0717 250.952 55.4817C250.952 50.1497 251.038 44.4737 251.038 41.8077C251.038 41.1197 250.178 40.1737 249.92 40.1737C247.77 40.1737 244.588 40.1737 242.352 40.2597C239.944 40.3457 237.622 40.3457 235.3 46.7957C234.784 48.2577 233.752 49.3757 232.806 49.3757C231.688 49.3757 230.398 47.8277 230.398 45.7637C230.398 43.0977 231.344 39.2277 231.344 34.4977C231.344 33.0357 232.634 31.7457 233.666 31.7457C233.924 31.7457 234.956 32.2617 235.558 32.6917C237.02 33.8957 238.31 34.4117 240.804 34.4977C244.33 34.6697 245.104 34.6697 247.856 34.6697ZM340.27 48.1717C340.27 51.4397 338.636 55.1377 336.4 57.0297C335.11 58.1477 333.906 58.4057 332.1 59.4377C331.67 59.6957 332.1 61.3297 332.358 61.8457C334.25 65.6297 338.12 71.9937 341.388 76.1217C344.398 79.9057 347.064 81.3677 349.73 82.3997C350.59 82.7437 351.708 83.5177 351.708 84.2917C351.708 86.5277 348.956 87.2157 346.634 87.2157C339.754 87.2157 333.132 86.5277 327.112 78.7017C324.016 74.6597 321.694 70.3597 319.286 66.4897C317.91 64.2537 316.706 63.8237 315.33 63.8237C314.728 63.8237 314.642 64.8557 314.642 65.1137C314.642 71.9937 314.642 74.0577 314.9 77.0677C315.158 80.1637 316.018 80.2497 319.458 81.8837C321.006 82.6577 322.038 83.6037 322.038 84.2917C322.038 85.2377 320.232 86.4417 318.77 86.4417C316.62 86.4417 309.998 86.0977 306.988 86.0977C304.322 86.0977 300.28 86.4417 297.098 86.4417C295.034 86.4417 293.83 85.4097 293.83 84.5497C293.83 83.3457 295.034 82.4857 296.668 82.0557C300.194 81.0237 301.054 80.3357 301.226 76.0357C301.312 72.9397 301.312 71.3917 301.312 55.9117C301.312 45.3337 301.054 44.8177 300.882 43.0117C300.71 41.2917 299.936 39.5717 296.668 38.9697C295.034 38.6257 294.002 37.3357 294.002 36.7337C294.002 35.2717 295.722 34.4977 297.786 34.4977C302.172 34.4977 303.634 34.6697 304.752 34.6697C310.428 34.6697 315.158 34.1537 321.178 34.1537C328.746 34.1537 332.702 35.7877 334.766 37.3357C338.464 40.1737 340.27 43.6137 340.27 48.1717ZM327.026 49.6337C327.026 44.2157 323.328 38.8837 317.136 38.8837C316.792 38.8837 315.502 39.2277 314.986 39.5717C314.728 39.7437 314.47 40.1737 314.47 40.9477C314.47 43.3557 314.642 51.3537 314.642 57.1157C314.642 57.4597 314.986 58.4917 315.33 58.6637C316.534 59.1797 317.652 59.4377 319.114 59.4377C321.006 59.4377 324.102 57.4597 324.618 57.1157C325.134 56.7717 327.026 53.7617 327.026 49.6337ZM387.253 32.9497C388.801 32.9497 389.317 35.5297 391.553 41.2917C396.197 53.7617 403.249 70.4457 405.571 75.6917C407.721 80.5077 408.925 80.5937 412.279 81.9697C414.257 82.8297 414.945 84.1197 414.945 85.0657C414.945 86.0977 413.569 86.5277 411.935 86.5277C409.269 86.5277 402.561 86.0977 398.347 86.0977C394.649 86.0977 392.327 86.5277 389.231 86.5277C386.823 86.5277 386.049 85.4957 386.049 84.8937C386.049 83.8617 387.081 82.6577 388.715 81.9697C391.725 80.6797 391.725 78.7877 391.295 77.3257C390.521 75.1757 390.435 74.7457 389.317 72.1657C389.231 71.9077 388.457 70.9617 387.081 70.7897C385.619 70.6177 374.869 70.4457 372.891 70.8757C372.375 70.9617 371.687 71.8217 371.515 72.1657C370.827 73.8857 370.139 77.1537 370.139 78.2717C370.139 79.8197 371.257 81.1097 374.009 82.0557C375.213 82.4857 376.503 83.1737 376.503 84.2917C376.503 84.7217 375.299 86.3557 373.063 86.3557C372.031 86.3557 370.139 86.0977 367.387 86.0977C364.205 86.0977 360.679 86.5277 357.067 86.5277C355.175 86.5277 353.885 85.6677 353.885 84.6357C353.885 83.7757 354.573 82.9157 356.465 82.1417C359.647 80.8517 361.367 80.5937 364.119 74.8317C366.269 70.2737 372.375 54.7937 377.535 41.2057C377.621 40.9477 377.793 40.3457 377.793 39.3997C377.793 39.0557 378.223 38.4537 378.567 38.1957C379.685 37.5077 383.985 34.6697 384.931 33.8957C385.447 33.3797 386.823 32.9497 387.253 32.9497ZM385.533 65.0277C385.963 65.0277 386.479 64.2537 386.393 63.9957C385.103 59.7817 381.491 50.5797 380.717 49.2037C380.373 48.6017 379.857 48.8597 379.599 49.2037C378.223 52.0417 374.525 62.6197 374.267 63.9097C374.181 64.4257 374.611 65.1137 375.213 65.1137C376.331 65.1137 384.329 65.1137 385.533 65.0277ZM430.522 34.6697H456.838C461.654 34.6697 463.804 34.0677 464.148 33.6377C465.18 32.3477 466.126 31.5737 466.728 31.5737C467.244 31.5737 469.48 32.9497 469.48 34.3257C469.48 34.9277 468.448 40.3457 468.448 46.1077C468.448 47.8277 467.158 49.7197 465.524 49.7197C464.32 49.7197 463.632 47.5697 463.46 46.7957C462.17 41.1197 460.708 40.9477 457.612 40.6037C456.322 40.4317 456.064 40.1737 448.754 40.1737C448.324 40.1737 448.066 40.8617 447.98 41.7217C447.894 42.9257 447.378 54.5357 447.378 59.9537C447.378 65.1997 447.292 70.8757 447.55 73.9717C448.066 80.2497 449.528 80.5077 453.054 81.7977C454.602 82.3997 456.064 83.1737 456.064 84.2057C456.064 86.0977 454 86.5277 452.28 86.5277C451.42 86.5277 441.96 86.0977 436.8 86.0977C434.306 86.0977 429.662 86.3557 427.34 86.3557C425.534 86.3557 423.814 85.5817 423.814 84.0337C423.814 83.3457 424.674 82.1417 426.652 81.6257C431.984 80.1637 433.446 79.0457 433.446 74.3157C433.446 72.5097 433.618 61.0717 433.618 55.4817C433.618 50.1497 433.704 44.4737 433.704 41.8077C433.704 41.1197 432.844 40.1737 432.586 40.1737C430.436 40.1737 427.254 40.1737 425.018 40.2597C422.61 40.3457 420.288 40.3457 417.966 46.7957C417.45 48.2577 416.418 49.3757 415.472 49.3757C414.354 49.3757 413.064 47.8277 413.064 45.7637C413.064 43.0977 414.01 39.2277 414.01 34.4977C414.01 33.0357 415.3 31.7457 416.332 31.7457C416.59 31.7457 417.622 32.2617 418.224 32.6917C419.686 33.8957 420.976 34.4117 423.47 34.4977C426.996 34.6697 427.77 34.6697 430.522 34.6697ZM495.072 34.6697H503.93C511.756 34.6697 512.96 34.6697 514.938 34.2397C515.884 34.0677 516.486 34.5837 516.744 35.0137C517.26 35.8737 517.948 42.4097 517.948 44.3017C517.948 46.5377 516.916 47.0537 516.4 47.0537C514.852 47.0537 513.992 46.1077 512.96 43.7857C511.326 40.2597 510.122 39.6577 509.434 39.6577C504.532 39.6577 499.802 39.9157 498.598 39.9157C498.168 39.9157 497.48 40.8617 497.48 41.2057C497.394 42.8397 497.222 49.0317 497.222 54.9657C497.222 56.3417 497.48 57.2017 497.91 57.2877C498.856 57.5457 501.866 57.4597 503.414 57.3737C507.284 57.1157 508.488 55.7397 509.434 53.5897C509.95 52.2997 510.81 51.2677 511.756 51.2677C512.96 51.2677 513.734 52.4717 513.562 54.9657C513.476 55.9977 513.39 57.9757 513.39 59.9537C513.39 61.9317 513.562 63.9097 513.648 65.1997C513.82 67.5217 512.53 68.5537 511.67 68.5537C510.896 68.5537 509.778 67.6077 509.004 65.8877C508.144 63.9097 507.886 63.3077 506.08 63.1357C502.554 62.8777 502.038 62.7057 498.168 62.7057C497.738 62.7057 497.222 63.9097 497.222 66.0597C497.222 68.3817 497.48 73.3697 497.566 75.2617C497.738 77.7557 498.082 78.7017 498.34 79.0457C499.2 80.3357 503.328 81.4537 507.456 81.4537C508.832 81.4537 511.24 81.1957 513.218 80.0777C514.852 79.2177 515.712 78.1857 517.604 75.6057C518.98 73.7137 519.926 71.6497 521.302 71.6497C522.936 71.6497 523.452 74.1437 523.108 75.9497C522.592 78.4437 520.528 84.2057 520.184 84.9797C519.926 85.5817 518.12 86.5277 517.604 86.5277C516.486 86.5277 513.046 86.0977 497.394 86.0977C491.976 86.0977 481.14 86.4417 477.442 86.4417C475.636 86.4417 474.346 85.7537 474.346 85.0657C474.346 84.0337 475.034 82.8297 476.84 82.3137C482.774 80.6797 482.946 78.7017 483.118 77.1537C483.462 73.0257 483.548 71.2197 483.548 57.9757C483.548 44.7317 483.376 44.2157 483.118 42.6677C482.688 40.0877 481.57 39.1417 478.13 38.2817C475.894 37.7657 475.55 36.5617 475.55 35.9597C475.55 34.8417 477.27 34.2397 478.388 34.2397C479.85 34.2397 489.396 34.6697 495.072 34.6697ZM562.709 32.9497C568.299 32.9497 571.481 33.8957 575.093 34.8417C576.899 35.3577 578.705 35.6157 579.823 35.6157C580.425 35.6157 581.371 36.5617 581.543 37.5077C582.059 39.8297 583.263 44.2157 583.263 47.6557C583.263 48.9457 582.403 51.0097 581.113 51.0097C580.253 51.0097 579.651 50.7517 578.361 48.4297C577.243 46.3657 576.383 44.0437 574.233 42.1517C569.761 38.1957 564.515 37.5937 562.193 37.5937C550.239 37.5937 546.025 48.9457 546.025 59.0077C546.025 73.1977 554.109 83.0877 563.999 83.0877C564.773 83.0877 566.923 82.5717 567.869 81.8837C568.729 81.2817 569.073 78.3577 569.073 76.3797C569.073 73.1117 568.987 69.9297 568.901 68.8117C568.729 67.0917 568.385 65.6297 565.203 64.8557C562.279 64.1677 561.161 63.3077 561.161 62.0177C561.161 61.2437 562.107 60.0397 564.687 60.0397C567.095 60.0397 569.589 60.4697 572.427 60.4697C575.007 60.4697 583.435 60.0397 585.155 60.0397C587.563 60.0397 588.337 60.9857 588.337 62.0177C588.337 63.2217 586.703 64.1677 585.585 64.5977C582.575 65.6297 582.747 67.0917 582.661 68.2957C582.489 70.2737 582.489 67.4357 582.489 75.2617C582.489 76.3797 582.575 77.5837 582.747 78.9597C582.833 79.5617 583.005 80.4217 583.005 81.4537C583.005 81.7117 581.973 83.0017 581.801 83.0877C580.769 83.8617 578.619 84.9797 575.007 86.0117C571.653 86.9577 567.439 87.8177 563.225 87.8177C549.121 87.8177 541.123 83.6037 535.619 76.8957C531.749 72.1657 530.287 65.8877 530.287 60.2977C530.287 51.0097 534.243 44.5597 541.037 39.3997C545.939 35.6157 554.883 32.9497 562.709 32.9497ZM602.302 67.2637V47.3977C602.302 40.1737 601.958 39.2277 597.314 38.1957C595.852 37.8517 594.992 36.8197 594.992 36.0457C594.992 34.7557 597.056 34.3257 597.916 34.3257C599.55 34.3257 604.968 34.6697 608.752 34.6697C613.912 34.6697 618.126 34.4117 620.62 34.4117C621.91 34.4117 623.286 35.0997 623.286 36.2177C623.286 37.2497 621.824 37.9377 621.136 38.1097C616.922 39.0557 616.664 40.1737 616.32 44.6457C616.062 48.3437 615.976 55.8257 615.976 61.6737C615.976 71.0477 616.148 74.4017 616.148 75.5197C616.32 79.5617 616.75 81.2817 621.05 82.3137C622.684 82.7437 623.802 83.6037 623.802 84.8077C623.802 85.8397 621.91 86.3557 620.878 86.3557C620.018 86.3557 611.676 86.0977 608.752 86.0977C605.742 86.0977 599.464 86.4417 597.916 86.4417C596.798 86.4417 594.992 86.1837 594.992 84.8077C594.992 83.8617 596.368 82.7437 597.572 82.3997C601.012 81.2817 601.528 80.2497 601.958 77.6697C602.216 75.8637 602.302 74.3157 602.302 67.2637ZM663.326 32.9497C667.282 32.9497 671.238 33.8097 673.56 34.4117C675.71 35.0137 678.806 35.9597 679.494 35.9597C679.924 35.9597 680.956 37.0777 680.956 37.5937C680.956 40.6897 681.816 45.0757 681.816 47.2257C681.816 49.6337 680.182 51.0097 679.064 51.0097C678.376 51.0097 677.946 50.3217 677.258 48.4297C675.968 44.9037 675.452 43.0117 672.27 40.6897C669.604 38.7117 666.594 37.2497 662.896 37.2497C659.198 37.2497 654.468 39.3997 651.63 42.8397C647.932 47.2257 646.212 53.7617 646.212 58.9217C646.212 65.4577 648.362 71.3057 650.856 74.8317C653.952 79.2177 659.628 82.3997 664.788 82.3997C666.938 82.3997 670.808 81.0237 672.528 80.0777C673.216 79.6477 674.764 78.0137 676.914 74.5737C678.548 71.9937 679.58 70.9617 680.44 70.9617C682.074 70.9617 682.246 72.5957 682.16 74.4017C682.16 75.1757 680.526 80.9377 680.526 82.5717C680.526 82.8297 679.838 84.0337 679.58 84.2057C676.57 85.6677 668.916 87.6457 662.982 87.6457C653.436 87.6457 643.288 84.8077 637.182 78.0997C633.398 73.9717 630.732 68.2957 630.732 60.6417C630.732 51.4397 634.86 43.6997 642.428 38.4537C646.298 35.7877 654.382 32.9497 663.326 32.9497Z" fill="white"/>
<path d="M245.756 150.107C245.756 141.461 242.205 135.131 241.433 134.05C240.816 133.278 235.258 128.183 229.545 128.183C227.847 128.183 225.84 128.801 225.222 129.418C224.759 129.881 224.142 130.808 224.142 131.58C223.678 137.755 223.524 157.517 223.524 163.847C223.524 179.286 223.678 191.174 223.678 192.718C223.678 201.364 225.686 203.68 234.023 205.996C237.728 207.076 239.272 208.157 239.272 210.319C239.272 211.708 237.11 213.561 233.096 213.561C228.465 213.561 221.671 213.098 215.341 213.098C209.783 213.098 195.271 214.024 190.176 214.024C186.316 214.024 183.691 212.634 183.691 210.627C183.691 208.62 185.235 207.231 189.713 205.841C196.351 203.68 197.432 201.055 197.895 197.041C198.204 193.953 199.285 174.963 199.285 153.503C199.285 146.864 199.13 139.454 198.667 135.903C198.358 132.352 197.123 129.573 190.33 128.029C187.86 127.411 184.927 125.095 184.927 123.551C184.927 120.772 187.088 120.155 189.713 120.155C196.351 120.155 200.674 120.772 208.394 120.772C213.643 120.772 221.826 120 233.868 120C247.3 120 257.181 124.169 262.43 129.573C266.136 133.432 270.767 141.924 270.767 149.952C270.767 161.995 263.665 170.486 260.578 173.111C254.248 178.36 247.609 180.676 240.507 180.676C236.493 180.676 234.177 180.058 231.861 178.514C230.163 177.434 228.773 175.89 228.773 175.118C228.773 173.419 229.391 172.339 230.626 172.184C231.244 172.03 232.016 172.03 232.787 171.876C236.493 170.949 245.756 168.633 245.756 150.107ZM327.351 117.685C330.13 117.685 331.057 122.316 335.071 132.66C343.408 155.047 356.068 184.999 360.236 194.416C364.096 203.062 366.258 203.217 372.279 205.687C375.83 207.231 377.065 209.547 377.065 211.245C377.065 213.098 374.595 213.87 371.661 213.87C366.875 213.87 354.833 213.098 347.268 213.098C340.629 213.098 336.46 213.87 330.902 213.87C326.579 213.87 325.19 212.017 325.19 210.936C325.19 209.084 327.043 206.922 329.976 205.687C335.38 203.371 335.38 199.975 334.608 197.35C333.218 193.49 333.064 192.718 331.057 188.086C330.902 187.623 329.513 185.925 327.043 185.616C324.418 185.307 305.119 184.999 301.568 185.771C300.642 185.925 299.407 187.469 299.098 188.086C297.863 191.174 296.628 197.041 296.628 199.048C296.628 201.827 298.635 204.143 303.575 205.841C305.737 206.613 308.053 207.848 308.053 209.855C308.053 210.627 305.891 213.561 301.877 213.561C300.024 213.561 296.628 213.098 291.687 213.098C285.975 213.098 279.645 213.87 273.16 213.87C269.764 213.87 267.448 212.326 267.448 210.473C267.448 208.929 268.683 207.385 272.08 205.996C277.792 203.68 280.88 203.217 285.82 192.873C289.68 184.69 300.642 156.9 309.905 132.506C310.06 132.043 310.368 130.962 310.368 129.264C310.368 128.646 311.14 127.566 311.758 127.102C313.765 125.867 321.485 120.772 323.183 119.383C324.109 118.457 326.579 117.685 327.351 117.685ZM324.264 175.272C325.035 175.272 325.962 173.883 325.807 173.419C323.492 165.854 317.007 149.335 315.618 146.864C315 145.784 314.074 146.247 313.611 146.864C311.14 151.959 304.502 170.949 304.038 173.265C303.884 174.191 304.656 175.426 305.737 175.426C307.744 175.426 322.102 175.426 324.264 175.272ZM468.863 145.012C468.863 150.878 465.93 157.517 461.915 160.914C459.6 162.921 457.438 163.384 454.196 165.237C453.424 165.7 454.196 168.633 454.659 169.56C458.056 176.353 465.003 187.778 470.87 195.188C476.274 201.982 481.06 204.606 485.846 206.459C487.39 207.076 489.397 208.466 489.397 209.855C489.397 213.87 484.456 215.105 480.288 215.105C467.937 215.105 456.049 213.87 445.241 199.82C439.683 192.564 435.515 184.844 431.192 177.897C428.722 173.883 426.56 173.111 424.09 173.111C423.009 173.111 422.855 174.963 422.855 175.426C422.855 187.778 422.855 191.483 423.318 196.887C423.781 202.445 425.325 202.599 431.501 205.533C434.28 206.922 436.132 208.62 436.132 209.855C436.132 211.554 432.89 213.715 430.266 213.715C426.406 213.715 414.518 213.098 409.114 213.098C404.328 213.098 397.072 213.715 391.359 213.715C387.654 213.715 385.492 211.863 385.492 210.319C385.492 208.157 387.654 206.613 390.587 205.841C396.917 203.989 398.461 202.754 398.77 195.034C398.924 189.476 398.924 186.697 398.924 158.907C398.924 139.917 398.461 138.99 398.152 135.748C397.844 132.66 396.454 129.573 390.587 128.492C387.654 127.874 385.801 125.559 385.801 124.478C385.801 121.853 388.889 120.464 392.594 120.464C400.468 120.464 403.093 120.772 405.1 120.772C415.29 120.772 423.781 119.846 434.588 119.846C448.175 119.846 455.277 122.78 458.982 125.559C465.621 130.653 468.863 136.829 468.863 145.012ZM445.087 147.636C445.087 137.91 438.448 128.338 427.332 128.338C426.715 128.338 424.399 128.955 423.472 129.573C423.009 129.881 422.546 130.653 422.546 132.043C422.546 136.366 422.855 150.724 422.855 161.068C422.855 161.686 423.472 163.538 424.09 163.847C426.251 164.774 428.258 165.237 430.883 165.237C434.28 165.237 439.838 161.686 440.764 161.068C441.69 160.451 445.087 155.047 445.087 147.636ZM517.053 120.772H564.297C572.942 120.772 576.802 119.692 577.42 118.92C579.272 116.604 580.971 115.214 582.051 115.214C582.978 115.214 586.992 117.685 586.992 120.155C586.992 121.236 585.139 130.962 585.139 141.306C585.139 144.394 582.823 147.791 579.89 147.791C577.728 147.791 576.493 143.931 576.185 142.541C573.869 132.352 571.244 132.043 565.686 131.425C563.37 131.117 562.907 130.653 549.784 130.653C549.012 130.653 548.549 131.889 548.394 133.432C548.24 135.594 547.314 156.437 547.314 166.163C547.314 175.581 547.159 185.771 547.622 191.329C548.549 202.599 551.173 203.062 557.503 205.378C560.282 206.459 562.907 207.848 562.907 209.701C562.907 213.098 559.202 213.87 556.114 213.87C554.57 213.87 537.587 213.098 528.324 213.098C523.846 213.098 515.509 213.561 511.341 213.561C508.099 213.561 505.011 212.171 505.011 209.392C505.011 208.157 506.555 205.996 510.106 205.069C519.678 202.445 522.302 200.438 522.302 191.946C522.302 188.704 522.611 168.17 522.611 158.135C522.611 148.563 522.766 138.373 522.766 133.587C522.766 132.352 521.222 130.653 520.759 130.653C516.899 130.653 511.186 130.653 507.172 130.808C502.849 130.962 498.681 130.962 494.512 142.541C493.586 145.166 491.733 147.173 490.035 147.173C488.028 147.173 485.712 144.394 485.712 140.689C485.712 135.903 487.41 128.955 487.41 120.464C487.41 117.839 489.726 115.523 491.579 115.523C492.042 115.523 493.895 116.45 494.975 117.221C497.6 119.383 499.916 120.309 504.393 120.464C510.723 120.772 512.113 120.772 517.053 120.772ZM595.728 122.471C595.728 121.39 596.963 119.846 599.742 119.846C605.918 119.846 618.269 121.081 628.15 121.081C629.54 121.081 631.701 122.162 632.164 122.78C634.789 126.33 639.575 131.425 646.986 139.454C655.168 148.254 679.716 174.191 683.113 176.044C683.576 176.198 684.811 175.89 684.966 175.426C685.892 171.258 685.892 156.437 685.429 145.784C684.966 135.285 685.738 131.271 673.695 128.492C669.99 127.566 668.6 124.941 668.6 124.015C668.6 122.934 670.299 120.618 674.004 120.618C679.562 120.618 679.253 120.772 683.267 120.772C689.597 120.772 701.331 120 704.419 120C707.661 120 709.822 120.927 709.822 123.551C709.822 125.25 708.587 126.33 703.647 128.492C697.317 131.271 696.39 132.969 696.236 134.976C695.927 142.078 694.692 173.883 694.692 184.227C694.692 191.02 695.31 197.813 695.31 204.915C695.31 211.399 694.075 216.185 691.296 216.185C686.355 216.185 682.341 213.406 679.408 210.01C673.695 203.525 666.439 195.034 662.116 190.248C656.249 183.455 632.164 157.826 625.371 150.415C624.908 149.952 623.827 150.878 623.827 151.496C623.673 154.893 623.364 155.356 623.364 161.995C623.364 168.942 623.673 182.837 623.827 187.006C624.29 199.048 626.297 202.754 631.701 204.915C636.95 206.922 638.649 208.62 638.649 210.782C638.649 212.634 636.95 213.715 633.399 213.715C629.076 213.715 623.827 213.098 616.571 213.098C609.315 213.098 605.455 213.715 603.448 213.715C598.816 213.715 597.272 212.017 597.272 210.473C597.272 208.466 599.125 207.076 601.904 206.15C609.006 203.834 611.785 203.371 612.557 193.027C613.329 182.683 614.564 145.784 614.564 140.843C614.564 139.917 613.792 136.675 611.785 134.359C608.543 130.653 605.764 128.801 602.213 128.029C598.662 127.257 595.728 125.404 595.728 122.471ZM751.744 120.772H767.646C781.696 120.772 783.857 120.772 787.408 120C789.107 119.692 790.187 120.618 790.65 121.39C791.577 122.934 792.812 134.668 792.812 138.064C792.812 142.078 790.959 143.005 790.033 143.005C787.254 143.005 785.71 141.306 783.857 137.138C780.924 130.808 778.762 129.727 777.527 129.727C768.727 129.727 760.236 130.19 758.074 130.19C757.302 130.19 756.067 131.889 756.067 132.506C755.913 135.439 755.604 146.556 755.604 157.208C755.604 159.679 756.067 161.223 756.839 161.377C758.537 161.84 763.941 161.686 766.72 161.531C773.668 161.068 775.829 158.598 777.527 154.738C778.454 152.422 779.998 150.57 781.696 150.57C783.857 150.57 785.247 152.731 784.938 157.208C784.784 159.061 784.629 162.612 784.629 166.163C784.629 169.714 784.938 173.265 785.092 175.581C785.401 179.749 783.085 181.602 781.541 181.602C780.152 181.602 778.145 179.904 776.755 176.816C775.211 173.265 774.748 172.184 771.506 171.876C765.176 171.412 764.25 171.104 757.302 171.104C756.53 171.104 755.604 173.265 755.604 177.125C755.604 181.293 756.067 190.248 756.221 193.645C756.53 198.122 757.148 199.82 757.611 200.438C759.155 202.754 766.566 204.761 773.976 204.761C776.447 204.761 780.769 204.297 784.32 202.29C787.254 200.746 788.798 198.894 792.194 194.262C794.665 190.865 796.363 187.16 798.833 187.16C801.767 187.16 802.693 191.637 802.075 194.88C801.149 199.357 797.444 209.701 796.826 211.091C796.363 212.171 793.121 213.87 792.194 213.87C790.187 213.87 784.012 213.098 755.913 213.098C746.186 213.098 726.733 213.715 720.094 213.715C716.852 213.715 714.536 212.48 714.536 211.245C714.536 209.392 715.771 207.231 719.013 206.304C729.666 203.371 729.975 199.82 730.284 197.041C730.901 189.63 731.056 186.388 731.056 162.612C731.056 138.836 730.747 137.91 730.284 135.131C729.512 130.499 727.505 128.801 721.329 127.257C717.315 126.33 716.698 124.169 716.698 123.088C716.698 121.081 719.785 120 721.792 120C724.417 120 741.554 120.772 751.744 120.772ZM900.22 145.012C900.22 150.878 897.287 157.517 893.273 160.914C890.957 162.921 888.795 163.384 885.553 165.237C884.781 165.7 885.553 168.633 886.016 169.56C889.413 176.353 896.36 187.778 902.227 195.188C907.631 201.982 912.417 204.606 917.203 206.459C918.747 207.076 920.754 208.466 920.754 209.855C920.754 213.87 915.814 215.105 911.645 215.105C899.294 215.105 887.406 213.87 876.599 199.82C871.041 192.564 866.872 184.844 862.549 177.897C860.079 173.883 857.917 173.111 855.447 173.111C854.366 173.111 854.212 174.963 854.212 175.426C854.212 187.778 854.212 191.483 854.675 196.887C855.138 202.445 856.682 202.599 862.858 205.533C865.637 206.922 867.49 208.62 867.49 209.855C867.49 211.554 864.247 213.715 861.623 213.715C857.763 213.715 845.875 213.098 840.471 213.098C835.685 213.098 828.429 213.715 822.716 213.715C819.011 213.715 816.85 211.863 816.85 210.319C816.85 208.157 819.011 206.613 821.945 205.841C828.274 203.989 829.818 202.754 830.127 195.034C830.282 189.476 830.282 186.697 830.282 158.907C830.282 139.917 829.818 138.99 829.51 135.748C829.201 132.66 827.811 129.573 821.945 128.492C819.011 127.874 817.158 125.559 817.158 124.478C817.158 121.853 820.246 120.464 823.952 120.464C831.825 120.464 834.45 120.772 836.457 120.772C846.647 120.772 855.138 119.846 865.946 119.846C879.532 119.846 886.634 122.78 890.339 125.559C896.978 130.653 900.22 136.829 900.22 145.012ZM876.444 147.636C876.444 137.91 869.805 128.338 858.689 128.338C858.072 128.338 855.756 128.955 854.83 129.573C854.366 129.881 853.903 130.653 853.903 132.043C853.903 136.366 854.212 150.724 854.212 161.068C854.212 161.686 854.83 163.538 855.447 163.847C857.609 164.774 859.616 165.237 862.24 165.237C865.637 165.237 871.195 161.686 872.121 161.068C873.048 160.451 876.444 155.047 876.444 147.636ZM967.374 117.839C976.02 117.839 984.202 120.618 990.224 122.008C991.15 122.162 992.231 124.632 992.231 126.33C992.231 128.183 993.311 136.675 993.311 138.99C993.311 144.24 990.841 146.401 988.68 146.401C986.981 146.401 985.592 143.777 985.129 142.541C981.732 133.278 973.704 124.941 964.904 124.941C958.419 124.941 952.552 130.962 952.552 136.829C952.552 143.777 957.647 148.871 966.448 153.349C985.901 163.23 997.326 171.876 997.326 186.543C997.326 199.203 988.68 206.304 983.122 209.701C977.1 213.252 966.911 215.877 959.809 215.877C946.686 215.877 939.121 213.098 935.57 211.708C934.489 211.245 932.019 209.855 931.247 208.157C928.622 202.599 928.159 194.571 928.159 190.865C928.159 187.932 929.703 184.227 932.173 184.227C933.871 184.227 935.878 186.079 938.04 190.094C943.752 200.592 952.244 208.157 961.816 208.157C967.374 208.157 974.321 204.297 974.321 197.195C974.321 192.564 974.63 187.469 958.882 178.977C938.657 168.17 930.783 159.833 930.783 145.475C930.783 135.439 937.885 127.257 945.296 123.088C951.163 119.846 958.574 117.839 967.374 117.839ZM1049.01 156.591C1049.01 158.752 1050.24 160.451 1051.32 160.451C1078.34 160.451 1083.59 160.296 1086.52 160.451C1087.14 160.451 1088.37 158.135 1088.37 157.517C1088.37 147.019 1088.37 138.373 1087.76 134.668C1087.29 131.889 1086.99 130.345 1080.35 128.646C1074.63 127.102 1073.71 124.787 1073.71 123.706C1073.71 122.162 1076.49 120.309 1079.73 120.309C1086.06 120.309 1090.38 120.772 1096.25 120.772C1102.27 120.772 1117.71 120.309 1120.8 120.309C1123.88 120.309 1125.74 121.853 1125.74 123.706C1125.74 125.404 1123.88 127.102 1119.87 128.029C1115.08 129.109 1114 131.425 1113.54 135.131C1112.92 139.608 1112.77 151.65 1112.77 165.082C1112.77 184.227 1113.23 189.63 1113.54 195.343C1114 202.754 1116.63 203.989 1121.41 205.224C1125.74 206.304 1127.28 208.157 1127.28 209.855C1127.28 211.863 1124.81 213.561 1121.41 213.561C1118.48 213.561 1112.61 213.098 1106.9 213.098C1098.87 213.098 1085.6 213.87 1080.96 213.87C1077.88 213.87 1074.94 212.634 1074.94 210.164C1074.94 208.62 1076.33 207.385 1081.12 205.533C1086.83 203.371 1087.45 199.975 1087.91 197.504C1088.68 192.718 1088.99 180.213 1088.37 174.809C1087.91 170.949 1086.52 170.64 1086.37 170.64C1074.94 170.64 1053.02 171.104 1050.86 171.104C1049.78 171.104 1049.01 174.191 1049.01 174.963C1049.01 179.132 1049.16 194.108 1049.31 196.424C1049.78 201.673 1050.39 204.143 1058.11 205.996C1059.97 206.459 1063.05 208.466 1063.05 210.473C1063.05 213.098 1060.89 213.715 1057.03 213.715C1052.56 213.715 1041.44 213.098 1034.8 213.098C1029.86 213.098 1020.91 213.87 1016.27 213.87C1013.03 213.87 1010.41 212.171 1010.41 210.319C1010.41 208.62 1013.19 206.922 1015.97 205.841C1022.45 203.217 1023.69 201.827 1023.99 195.188C1024.46 188.395 1024.46 171.258 1024.46 149.026C1024.46 137.447 1023.99 136.366 1023.69 134.513C1023.07 130.962 1021.21 128.801 1014.11 127.102C1012.41 126.639 1010.72 125.25 1010.72 123.551C1010.72 121.853 1014.11 120.155 1017.05 120.155C1024.61 120.155 1035.26 120.772 1039.43 120.772C1044.22 120.772 1047.31 120.464 1052.71 120.464C1055.18 120.464 1058.27 121.236 1058.27 124.015C1058.27 126.33 1054.56 127.72 1052.71 128.338C1050.24 129.264 1049.01 132.352 1049.01 136.211C1049.01 140.998 1049.01 146.71 1049.01 156.591ZM1153.22 179.286V143.622C1153.22 130.653 1152.6 128.955 1144.26 127.102C1141.64 126.485 1140.09 124.632 1140.09 123.243C1140.09 120.927 1143.8 120.155 1145.34 120.155C1148.28 120.155 1158 120.772 1164.8 120.772C1174.06 120.772 1181.62 120.309 1186.1 120.309C1188.42 120.309 1190.89 121.544 1190.89 123.551C1190.89 125.404 1188.26 126.639 1187.03 126.948C1179.46 128.646 1179 130.653 1178.38 138.682C1177.92 145.32 1177.76 158.752 1177.76 169.251C1177.76 186.079 1178.07 192.101 1178.07 194.108C1178.38 201.364 1179.15 204.452 1186.87 206.304C1189.81 207.076 1191.81 208.62 1191.81 210.782C1191.81 212.634 1188.42 213.561 1186.56 213.561C1185.02 213.561 1170.04 213.098 1164.8 213.098C1159.39 213.098 1148.12 213.715 1145.34 213.715C1143.34 213.715 1140.09 213.252 1140.09 210.782C1140.09 209.084 1142.56 207.076 1144.72 206.459C1150.9 204.452 1151.83 202.599 1152.6 197.967C1153.06 194.725 1153.22 191.946 1153.22 179.286ZM1264.82 150.107C1264.82 141.461 1261.27 135.131 1260.5 134.05C1259.88 133.278 1254.32 128.183 1248.61 128.183C1246.91 128.183 1244.9 128.801 1244.29 129.418C1243.82 129.881 1243.21 130.808 1243.21 131.58C1242.74 137.755 1242.59 157.517 1242.59 163.847C1242.59 179.286 1242.74 191.174 1242.74 192.718C1242.74 201.364 1244.75 203.68 1253.09 205.996C1256.79 207.076 1258.34 208.157 1258.34 210.319C1258.34 211.708 1256.17 213.561 1252.16 213.561C1247.53 213.561 1240.74 213.098 1234.41 213.098C1228.85 213.098 1214.34 214.024 1209.24 214.024C1205.38 214.024 1202.76 212.634 1202.76 210.627C1202.76 208.62 1204.3 207.231 1208.78 205.841C1215.42 203.68 1216.5 201.055 1216.96 197.041C1217.27 193.953 1218.35 174.963 1218.35 153.503C1218.35 146.864 1218.19 139.454 1217.73 135.903C1217.42 132.352 1216.19 129.573 1209.39 128.029C1206.92 127.411 1203.99 125.095 1203.99 123.551C1203.99 120.772 1206.15 120.155 1208.78 120.155C1215.42 120.155 1219.74 120.772 1227.46 120.772C1232.71 120.772 1240.89 120 1252.93 120C1266.36 120 1276.25 124.169 1281.49 129.573C1285.2 133.432 1289.83 141.924 1289.83 149.952C1289.83 161.995 1282.73 170.486 1279.64 173.111C1273.31 178.36 1266.67 180.676 1259.57 180.676C1255.56 180.676 1253.24 180.058 1250.93 178.514C1249.23 177.434 1247.84 175.89 1247.84 175.118C1247.84 173.419 1248.46 172.339 1249.69 172.184C1250.31 172.03 1251.08 172.03 1251.85 171.876C1255.56 170.949 1264.82 168.633 1264.82 150.107ZM1343.7 117.839C1352.35 117.839 1360.53 120.618 1366.55 122.008C1367.48 122.162 1368.56 124.632 1368.56 126.33C1368.56 128.183 1369.64 136.675 1369.64 138.99C1369.64 144.24 1367.17 146.401 1365.01 146.401C1363.31 146.401 1361.92 143.777 1361.45 142.541C1358.06 133.278 1350.03 124.941 1341.23 124.941C1334.74 124.941 1328.88 130.962 1328.88 136.829C1328.88 143.777 1333.97 148.871 1342.77 153.349C1362.23 163.23 1373.65 171.876 1373.65 186.543C1373.65 199.203 1365.01 206.304 1359.45 209.701C1353.43 213.252 1343.24 215.877 1336.13 215.877C1323.01 215.877 1315.45 213.098 1311.9 211.708C1310.81 211.245 1308.34 209.855 1307.57 208.157C1304.95 202.599 1304.48 194.571 1304.48 190.865C1304.48 187.932 1306.03 184.227 1308.5 184.227C1310.2 184.227 1312.2 186.079 1314.37 190.094C1320.08 200.592 1328.57 208.157 1338.14 208.157C1343.7 208.157 1350.65 204.297 1350.65 197.195C1350.65 192.564 1350.96 187.469 1335.21 178.977C1314.98 168.17 1307.11 159.833 1307.11 145.475C1307.11 135.439 1314.21 127.257 1321.62 123.088C1327.49 119.846 1334.9 117.839 1343.7 117.839Z" fill="white"/>
</svg>
