<svg width="919" height="269" viewBox="0 0 919 269" fill="none" xmlns="http://www.w3.org/2000/svg">
<path d="M61.9767 213.084V210.584H59.4767V213.084H61.9767ZM76.9656 213.084H79.4656V210.584H76.9656V213.084ZM76.9656 261.627V264.127H79.4656V261.627H76.9656ZM74.9146 261.627L73.3301 263.561L74.0212 264.127H74.9146V261.627ZM54.2982 246.375L52.8797 248.434L52.8815 248.435L54.2982 246.375ZM18.9033 236.12L20.5912 237.964L20.5996 237.956L20.608 237.948L18.9033 236.12ZM24.9514 260.68V263.18H30.7782L26.7632 258.958L24.9514 260.68ZM9.54177 260.68L7.44447 262.041L8.18357 263.18H9.54177V260.68ZM8.12167 223.077L9.98158 224.747L9.98848 224.739L8.12167 223.077ZM61.9767 236.751L60.4275 238.713L64.4767 241.91V236.751H61.9767ZM61.9767 215.584H76.9656V210.584H61.9767V215.584ZM74.4657 213.084V261.627H79.4656V213.084H74.4657ZM76.9656 259.127H74.9146V264.127H76.9656V259.127ZM76.499 259.693C70.9927 255.182 64.0597 250.055 55.7149 244.315L52.8815 248.435C61.156 254.126 67.9673 259.167 73.3301 263.561L76.499 259.693ZM55.7167 244.317C47.3879 238.577 41.2733 234.81 37.5094 233.192L35.5343 237.785C38.7827 239.182 44.519 242.673 52.8797 248.434L55.7167 244.317ZM37.5094 233.192C33.7401 231.571 30.0037 230.727 26.3188 230.727V235.727C29.2257 235.727 32.2912 236.391 35.5343 237.785L37.5094 233.192ZM26.3188 230.727C22.8227 230.727 19.7385 231.923 17.1986 234.291L20.608 237.948C22.2053 236.459 24.0648 235.727 26.3188 235.727V230.727ZM17.2154 234.275C14.652 236.622 13.3003 239.578 13.3003 243.009H18.3003C18.3003 241.041 19.0173 239.404 20.5912 237.964L17.2154 234.275ZM13.3003 243.009C13.3003 249.322 16.868 255.807 23.1397 262.403L26.7632 258.958C20.8334 252.721 18.3003 247.425 18.3003 243.009H13.3003ZM24.9514 258.18H9.54177V263.18H24.9514V258.18ZM11.639 259.32C7.15757 252.412 5.04688 246.025 5.04688 240.117H0.046875C0.046875 247.251 2.59937 254.573 7.44447 262.041L11.639 259.32ZM5.04688 240.117C5.04688 233.322 6.78818 228.302 9.98158 224.747L6.26187 221.406C2.02227 226.126 0.046875 232.466 0.046875 240.117H5.04688ZM9.98848 224.739C13.1527 221.187 17.5266 219.318 23.4262 219.318V214.318C16.353 214.318 10.5239 216.621 6.25497 221.414L9.98848 224.739ZM23.4262 219.318C27.2862 219.318 32.2998 220.781 38.5686 224.022C44.8021 227.245 52.0841 232.125 60.4275 238.713L63.526 234.789C55.0397 228.088 47.4818 223.002 40.8651 219.581C34.2837 216.178 28.4369 214.318 23.4262 214.318V219.318ZM64.4767 236.751V213.084H59.4767V236.751H64.4767ZM12.5921 160.018L13.9535 162.115L13.9611 162.11L12.5921 160.018ZM67.9197 196.675L69.3014 198.759L69.309 198.753L67.9197 196.675ZM12.4869 196.57L11.0776 198.635L11.08 198.636L12.4869 196.57ZM58.8212 171.799L59.7015 169.459L59.694 169.456L58.8212 171.799ZM21.4277 171.799L22.3187 174.134L22.3333 174.129L22.3478 174.123L21.4277 171.799ZM21.3225 184.894L20.3524 187.198L20.3645 187.203L21.3225 184.894ZM58.7686 184.894L59.6539 187.232L59.6676 187.227L59.6813 187.222L58.7686 184.894ZM5.04688 178.215C5.04688 171.304 7.94478 166.016 13.9535 162.115L11.2308 157.921C3.84597 162.715 0.046875 169.559 0.046875 178.215H5.04688ZM13.9611 162.11C20.1096 158.086 28.6715 155.944 39.8878 155.944V150.944C28.1035 150.944 18.4683 153.184 11.2231 157.926L13.9611 162.11ZM39.8878 155.944C51.5944 155.944 60.3872 158.028 66.5292 161.919L69.205 157.696C61.9534 153.102 52.0933 150.944 39.8878 150.944V155.944ZM66.5292 161.919C72.5068 165.706 75.4124 170.977 75.4124 178.005H80.4126C80.4126 169.254 76.6206 162.394 69.205 157.696L66.5292 161.919ZM75.4124 178.005C75.4124 185.162 72.5001 190.606 66.5305 194.597L69.309 198.753C76.6626 193.838 80.4126 186.836 80.4126 178.005H75.4124ZM66.538 194.592C60.4371 198.637 51.7651 200.802 40.2559 200.802V205.802C52.3083 205.802 62.0788 203.548 69.3014 198.759L66.538 194.592ZM40.2559 200.802C28.6029 200.802 19.9122 198.601 13.8939 194.503L11.08 198.636C18.2449 203.515 28.0669 205.802 40.2559 205.802V200.802ZM13.8963 194.505C7.91937 190.425 5.04688 185.064 5.04688 178.215H0.046875C0.046875 186.794 3.80108 193.668 11.0776 198.635L13.8963 194.505ZM66.633 178.215C66.633 176.198 66.0109 174.354 64.7308 172.808C63.4851 171.303 61.7379 170.225 59.7015 169.459L57.9408 174.139C59.4457 174.705 60.3544 175.362 60.8794 175.996C61.3699 176.589 61.633 177.286 61.633 178.215H66.633ZM59.694 169.456C55.6426 167.947 48.5193 167.3 38.7307 167.3V172.3C48.5768 172.3 54.8472 172.986 57.9484 174.141L59.694 169.456ZM38.7307 167.3C30.5434 167.3 24.3534 167.952 20.5076 169.474L22.3478 174.123C25.2339 172.981 30.5793 172.3 38.7307 172.3V167.3ZM20.5367 169.463C18.5432 170.223 16.8389 171.319 15.6325 172.862C14.4018 174.435 13.8262 176.299 13.8262 178.32H18.8262C18.8262 177.291 19.1009 176.543 19.5707 175.942C20.0648 175.311 20.9112 174.671 22.3187 174.134L20.5367 169.463ZM13.8262 178.32C13.8262 180.309 14.3936 182.144 15.5849 183.712C16.7529 185.248 18.4062 186.379 20.3524 187.198L22.2927 182.59C20.908 182.007 20.0631 181.341 19.5657 180.686C19.0915 180.062 18.8262 179.312 18.8262 178.32H13.8262ZM20.3645 187.203C22.3503 188.027 25.1007 188.57 28.4525 188.919C31.8475 189.273 36.0344 189.445 40.9922 189.445V184.445C36.1327 184.445 32.1327 184.276 28.9711 183.946C25.7663 183.612 23.5906 183.129 22.2806 182.585L20.3645 187.203ZM40.9922 189.445C49.2699 189.445 55.5881 188.772 59.6539 187.232L57.8833 182.556C54.7263 183.752 49.1936 184.445 40.9922 184.445V189.445ZM59.6813 187.222C61.7405 186.414 63.4956 185.289 64.7411 183.738C66.0169 182.15 66.633 180.268 66.633 178.215H61.633C61.633 179.213 61.3551 179.969 60.8428 180.607C60.3002 181.283 59.373 181.972 57.8559 182.567L59.6813 187.222ZM61.9767 94.2245V91.7245H59.4767V94.2245H61.9767ZM76.9656 94.2245H79.4656V91.7245H76.9656V94.2245ZM76.9656 142.767V145.267H79.4656V142.767H76.9656ZM74.9146 142.767L73.3301 144.701L74.0212 145.267H74.9146V142.767ZM54.2982 127.516L52.8797 129.574L52.8815 129.575L54.2982 127.516ZM18.9033 117.26L20.5912 119.104L20.5996 119.096L20.608 119.089L18.9033 117.26ZM24.9514 141.821V144.321H30.7782L26.7632 140.098L24.9514 141.821ZM9.54177 141.821L7.44447 143.181L8.18357 144.321H9.54177V141.821ZM8.12167 104.217L9.98158 105.888L9.98848 105.88L8.12167 104.217ZM61.9767 117.891L60.4275 119.853L64.4767 123.05V117.891H61.9767ZM61.9767 96.7245H76.9656V91.7245H61.9767V96.7245ZM74.4657 94.2245V142.767H79.4656V94.2245H74.4657ZM76.9656 140.267H74.9146V145.267H76.9656V140.267ZM76.499 140.834C70.9927 136.322 64.0597 131.195 55.7149 125.456L52.8815 129.575C61.156 135.266 67.9673 140.307 73.3301 144.701L76.499 140.834ZM55.7167 125.457C47.3879 119.718 41.2733 115.951 37.5094 114.332L35.5343 118.925C38.7827 120.322 44.519 123.813 52.8797 129.574L55.7167 125.457ZM37.5094 114.332C33.7401 112.711 30.0037 111.867 26.3188 111.867V116.867C29.2257 116.867 32.2912 117.531 35.5343 118.925L37.5094 114.332ZM26.3188 111.867C22.8227 111.867 19.7385 113.064 17.1986 115.431L20.608 119.089C22.2053 117.6 24.0648 116.867 26.3188 116.867V111.867ZM17.2154 115.416C14.652 117.762 13.3003 120.718 13.3003 124.15H18.3003C18.3003 122.181 19.0173 120.545 20.5912 119.104L17.2154 115.416ZM13.3003 124.15C13.3003 130.463 16.868 136.947 23.1397 143.543L26.7632 140.098C20.8334 133.862 18.3003 128.565 18.3003 124.15H13.3003ZM24.9514 139.321H9.54177V144.321H24.9514V139.321ZM11.639 140.46C7.15757 133.553 5.04688 127.166 5.04688 121.257H0.046875C0.046875 128.391 2.59937 135.714 7.44447 143.181L11.639 140.46ZM5.04688 121.257C5.04688 114.462 6.78818 109.443 9.98158 105.888L6.26187 102.547C2.02227 107.266 0.046875 113.607 0.046875 121.257H5.04688ZM9.98848 105.88C13.1527 102.328 17.5266 100.459 23.4262 100.459V95.4586C16.353 95.4586 10.5239 97.7617 6.25497 102.554L9.98848 105.88ZM23.4262 100.459C27.2862 100.459 32.2998 101.921 38.5686 105.163C44.8021 108.386 52.0841 113.265 60.4275 119.853L63.526 115.929C55.0397 109.229 47.4818 104.142 40.8651 100.721C34.2837 97.3181 28.4369 95.4586 23.4262 95.4586V100.459ZM64.4767 117.891V94.2245H59.4767V117.891H64.4767ZM45.3048 67.297V69.7971H47.7068L47.8028 67.3969L45.3048 67.297ZM32.367 67.297H29.867V69.7971H32.367V67.297ZM29.79 59.9867L27.9543 61.6838L27.9624 61.6925L27.9705 61.7011L29.79 59.9867ZM18.6929 81.0763V83.5763H22.699L20.9386 79.9777L18.6929 81.0763ZM5.75507 81.0763L3.46577 82.081L4.12207 83.5763H5.75507V81.0763ZM7.59577 47.3118L9.57267 48.8422L9.58027 48.8322L7.59577 47.3118ZM37.5211 51.677L35.3312 52.883L37.9035 57.5536L39.8488 52.589L37.5211 51.677ZM72.0746 45.8918L74.0056 44.304L73.9986 44.2955L72.0746 45.8918ZM73.7575 82.9171V85.4171H75.2982L75.9907 84.0408L73.7575 82.9171ZM59.5049 82.9171L57.4592 81.4799L54.6933 85.4171H59.5049V82.9171ZM62.6605 59.0926L64.5784 57.489L64.5708 57.4798L64.563 57.4707L62.6605 59.0926ZM48.4078 58.9874L50.2219 60.7076L50.2292 60.6999L50.2365 60.692L48.4078 58.9874ZM45.3048 64.797H32.367V69.7971H45.3048V64.797ZM34.867 67.297C34.867 63.7557 33.8556 60.6558 31.6094 58.2722L27.9705 61.7011C29.1604 62.9639 29.867 64.7375 29.867 67.297H34.867ZM31.6256 58.2895C29.4671 55.9547 26.7646 54.6992 23.6366 54.6992V59.6992C25.277 59.6992 26.6768 60.302 27.9543 61.6838L31.6256 58.2895ZM23.6366 54.6992C20.4042 54.6992 17.6724 56.0396 15.604 58.5576L19.4677 61.7312C20.625 60.3223 21.9604 59.6992 23.6366 59.6992V54.6992ZM15.604 58.5576C13.5581 61.0484 12.6166 64.1313 12.6166 67.6126H17.6166C17.6166 65.0632 18.2879 63.1674 19.4677 61.7312L15.604 58.5576ZM12.6166 67.6126C12.6166 72.1979 13.9473 77.0649 16.4472 82.1749L20.9386 79.9777C18.67 75.3405 17.6166 71.2318 17.6166 67.6126H12.6166ZM18.6929 78.5763H5.75507V83.5763H18.6929V78.5763ZM8.04427 80.0717C6.06787 75.568 5.04688 70.3278 5.04688 64.2992H0.046875C0.046875 70.8929 1.16467 76.8374 3.46577 82.081L8.04427 80.0717ZM5.04688 64.2992C5.04688 57.7248 6.62807 52.6457 9.57267 48.8422L5.61897 45.7813C1.83177 50.6732 0.046875 56.919 0.046875 64.2992H5.04688ZM9.58027 48.8322C12.4572 45.0771 16.048 43.2903 20.5336 43.2903V38.2903C14.4306 38.2903 9.39617 40.8511 5.61127 45.7914L9.58027 48.8322ZM20.5336 43.2903C26.8144 43.2903 31.704 46.2967 35.3312 52.883L39.711 50.4709C35.3441 42.5416 28.9087 38.2903 20.5336 38.2903V43.2903ZM39.8488 52.589C41.3876 48.6617 43.524 45.8872 46.175 44.078C48.8259 42.2689 52.1868 41.2917 56.4019 41.2917V36.2917C51.3957 36.2917 46.9992 37.4621 43.3565 39.9481C39.714 42.4339 37.0205 46.102 35.1934 50.7649L39.8488 52.589ZM56.4019 41.2917C62.231 41.2917 66.7304 43.3657 70.1505 47.4881L73.9986 44.2955C69.5648 38.9512 63.6159 36.2917 56.4019 36.2917V41.2917ZM70.1435 47.4795C73.5697 51.6465 75.4124 57.375 75.4124 64.9303H80.4126C80.4126 56.5676 78.3636 49.6037 74.0056 44.304L70.1435 47.4795ZM75.4124 64.9303C75.4124 71.0476 74.1095 76.6557 71.5243 81.7934L75.9907 84.0408C78.9456 78.1691 80.4126 71.7859 80.4126 64.9303H75.4124ZM73.7575 80.4171H59.5049V85.4171H73.7575V80.4171ZM61.5505 84.3542C65.6211 78.56 67.8427 72.8918 67.8427 67.4023H62.8427C62.8427 71.5198 61.1724 76.1947 57.4592 81.4799L61.5505 84.3542ZM67.8427 67.4023C67.8427 63.5488 66.8203 60.1704 64.5784 57.489L60.7425 60.6961C62.0769 62.2922 62.8427 64.4538 62.8427 67.4023H67.8427ZM64.563 57.4707C62.2524 54.7602 59.2009 53.3844 55.613 53.3844V58.3844C57.7753 58.3844 59.4221 59.1474 60.7579 60.7144L64.563 57.4707ZM55.613 53.3844C52.0575 53.3844 48.9893 54.6973 46.5791 57.2827L50.2365 60.692C51.6832 59.1401 53.4183 58.3844 55.613 58.3844V53.3844ZM46.5938 57.2671C44.1514 59.8427 42.965 63.2437 42.8068 67.1971L47.8028 67.3969C47.9252 64.338 48.8074 62.1992 50.2219 60.7076L46.5938 57.2671Z" fill="white"/>
<path d="M130.622 32.7551L130.412 264.785" stroke="white" stroke-width="2" stroke-miterlimit="10" stroke-linecap="round"/>
<path d="M182.295 18.932C182.295 17.868 183.663 17.184 186.171 17.184C188.527 17.184 194.227 17.564 196.735 17.564C200.079 17.564 203.651 17.336 204.715 17.336C206.691 17.336 208.059 18.4 208.059 19.16C208.059 20.072 206.311 21.06 205.171 21.364C201.751 22.276 201.295 23.264 201.067 26.836C200.763 30.94 200.763 36.564 201.143 43.1C201.523 49.712 202.967 53.208 204.563 54.576C206.691 56.4 209.807 57.768 212.999 57.768C218.851 57.768 223.563 54.956 224.551 46.748C224.931 43.708 225.007 35.5 225.007 31.092C225.007 23.188 224.931 22.58 219.535 21.288C218.015 20.908 216.723 20.3 216.723 19.008C216.723 18.4 217.787 17.336 219.839 17.336C221.359 17.336 223.791 17.564 226.679 17.564C229.415 17.564 232.531 17.184 235.191 17.184C236.635 17.184 238.155 17.64 238.155 18.932C238.155 19.92 236.863 20.68 235.343 21.212C231.847 22.504 231.315 23.112 230.859 26.836C230.707 27.748 230.403 34.132 230.099 39.984C229.415 52.296 226.907 56.172 223.183 59.82C220.067 62.86 214.747 64.38 209.503 64.38C203.347 64.38 196.735 62.48 193.543 58.224C189.287 52.6 188.983 46.748 188.983 38.084C188.983 28.964 188.831 27.824 188.679 25.544C188.451 22.504 187.919 22.124 185.107 21.288C183.587 20.832 182.295 20.224 182.295 18.932ZM242.432 18.932C242.432 17.716 243.876 17.412 244.864 17.412C245.244 17.412 251.856 17.564 254.896 17.564C257.936 17.564 263.864 17.336 265.384 17.336C266.98 17.336 267.892 18.096 267.892 19.008C267.892 19.92 266.904 20.68 265.308 20.984C261.052 21.896 260.824 23.568 260.748 25.164C260.596 26.912 260.292 31.168 260.292 37.704C260.292 45.684 260.52 52.98 260.672 55.564C260.748 56.704 262.572 58.3 265.46 58.984C266.524 59.212 269.032 59.288 271.768 58.756C274.048 58.3 277.848 53.816 279.444 50.928C280.204 49.484 281.04 48.952 281.268 48.952C282.636 48.952 283.548 50.548 283.168 51.916C282.636 53.816 281.192 59.82 280.66 61.34C280.204 62.48 278.836 63.24 277.316 63.24C274.656 63.24 266.6 63.012 257.176 63.012C252.008 63.012 244.408 63.392 242.736 63.392C241.064 63.392 239.772 62.556 239.772 61.492C239.772 60.428 240.912 59.896 242.204 59.668C247.296 58.68 247.828 56.856 247.98 55.108C248.132 52.828 248.284 49.636 248.284 40.592C248.284 26.836 248.36 26.988 248.208 24.936C247.98 22.428 247.144 22.048 244.636 20.984C243.04 20.3 242.432 19.768 242.432 18.932ZM297.994 17.564H321.25C325.506 17.564 327.406 17.032 327.71 16.652C328.622 15.512 329.458 14.828 329.99 14.828C330.446 14.828 332.422 16.044 332.422 17.26C332.422 17.792 331.51 22.58 331.51 27.672C331.51 29.192 330.37 30.864 328.926 30.864C327.862 30.864 327.254 28.964 327.102 28.28C325.962 23.264 324.67 23.112 321.934 22.808C320.794 22.656 320.566 22.428 314.106 22.428C313.726 22.428 313.498 23.036 313.422 23.796C313.346 24.86 312.89 35.12 312.89 39.908C312.89 44.544 312.814 49.56 313.042 52.296C313.498 57.844 314.79 58.072 317.906 59.212C319.274 59.744 320.566 60.428 320.566 61.34C320.566 63.012 318.742 63.392 317.222 63.392C316.462 63.392 308.102 63.012 303.542 63.012C301.338 63.012 297.234 63.24 295.182 63.24C293.586 63.24 292.066 62.556 292.066 61.188C292.066 60.58 292.826 59.516 294.574 59.06C299.286 57.768 300.578 56.78 300.578 52.6C300.578 51.004 300.73 40.896 300.73 35.956C300.73 31.244 300.806 26.228 300.806 23.872C300.806 23.264 300.046 22.428 299.818 22.428C297.918 22.428 295.106 22.428 293.13 22.504C291.002 22.58 288.95 22.58 286.898 28.28C286.442 29.572 285.53 30.56 284.694 30.56C283.706 30.56 282.566 29.192 282.566 27.368C282.566 25.012 283.402 21.592 283.402 17.412C283.402 16.12 284.542 14.98 285.454 14.98C285.682 14.98 286.594 15.436 287.126 15.816C288.418 16.88 289.558 17.336 291.762 17.412C294.878 17.564 295.562 17.564 297.994 17.564ZM379.663 29.496C379.663 32.384 378.219 35.652 376.243 37.324C375.103 38.312 374.039 38.54 372.443 39.452C372.063 39.68 372.443 41.124 372.671 41.58C374.343 44.924 377.763 50.548 380.651 54.196C383.311 57.54 385.667 58.832 388.023 59.744C388.783 60.048 389.771 60.732 389.771 61.416C389.771 63.392 387.339 64 385.287 64C379.207 64 373.355 63.392 368.035 56.476C365.299 52.904 363.247 49.104 361.119 45.684C359.903 43.708 358.839 43.328 357.623 43.328C357.091 43.328 357.015 44.24 357.015 44.468C357.015 50.548 357.015 52.372 357.243 55.032C357.471 57.768 358.231 57.844 361.271 59.288C362.639 59.972 363.551 60.808 363.551 61.416C363.551 62.252 361.955 63.316 360.663 63.316C358.763 63.316 352.911 63.012 350.251 63.012C347.895 63.012 344.323 63.316 341.511 63.316C339.687 63.316 338.623 62.404 338.623 61.644C338.623 60.58 339.687 59.82 341.131 59.44C344.247 58.528 345.007 57.92 345.159 54.12C345.235 51.384 345.235 50.016 345.235 36.336C345.235 26.988 345.007 26.532 344.855 24.936C344.703 23.416 344.019 21.896 341.131 21.364C339.687 21.06 338.775 19.92 338.775 19.388C338.775 18.096 340.295 17.412 342.119 17.412C345.995 17.412 347.287 17.564 348.275 17.564C353.291 17.564 357.471 17.108 362.791 17.108C369.479 17.108 372.975 18.552 374.799 19.92C378.067 22.428 379.663 25.468 379.663 29.496ZM367.959 30.788C367.959 26 364.691 21.288 359.219 21.288C358.915 21.288 357.775 21.592 357.319 21.896C357.091 22.048 356.863 22.428 356.863 23.112C356.863 25.24 357.015 32.308 357.015 37.4C357.015 37.704 357.319 38.616 357.623 38.768C358.687 39.224 359.675 39.452 360.967 39.452C362.639 39.452 365.375 37.704 365.831 37.4C366.287 37.096 367.959 34.436 367.959 30.788ZM421.182 16.044C422.55 16.044 423.006 18.324 424.982 23.416C429.086 34.436 435.318 49.18 437.37 53.816C439.27 58.072 440.334 58.148 443.298 59.364C445.046 60.124 445.654 61.264 445.654 62.1C445.654 63.012 444.438 63.392 442.994 63.392C440.638 63.392 434.71 63.012 430.986 63.012C427.718 63.012 425.666 63.392 422.93 63.392C420.802 63.392 420.118 62.48 420.118 61.948C420.118 61.036 421.03 59.972 422.474 59.364C425.134 58.224 425.134 56.552 424.754 55.26C424.07 53.36 423.994 52.98 423.006 50.7C422.93 50.472 422.246 49.636 421.03 49.484C419.738 49.332 410.238 49.18 408.49 49.56C408.034 49.636 407.426 50.396 407.274 50.7C406.666 52.22 406.058 55.108 406.058 56.096C406.058 57.464 407.046 58.604 409.478 59.44C410.542 59.82 411.682 60.428 411.682 61.416C411.682 61.796 410.618 63.24 408.642 63.24C407.73 63.24 406.058 63.012 403.626 63.012C400.814 63.012 397.698 63.392 394.506 63.392C392.834 63.392 391.694 62.632 391.694 61.72C391.694 60.96 392.302 60.2 393.974 59.516C396.786 58.376 398.306 58.148 400.738 53.056C402.638 49.028 408.034 35.348 412.594 23.34C412.67 23.112 412.822 22.58 412.822 21.744C412.822 21.44 413.202 20.908 413.506 20.68C414.494 20.072 418.294 17.564 419.13 16.88C419.586 16.424 420.802 16.044 421.182 16.044ZM419.662 44.392C420.042 44.392 420.498 43.708 420.422 43.48C419.282 39.756 416.09 31.624 415.406 30.408C415.102 29.876 414.646 30.104 414.418 30.408C413.202 32.916 409.934 42.264 409.706 43.404C409.63 43.86 410.01 44.468 410.542 44.468C411.53 44.468 418.598 44.468 419.662 44.392ZM477.349 17.564H489.585C499.389 17.564 501.061 17.108 501.365 17.108C502.049 17.108 502.809 17.944 502.809 18.628V26.076C502.809 28.204 501.593 29.42 500.681 29.42C500.073 29.42 499.161 28.356 498.705 26.76C498.173 25.012 497.109 22.2 494.449 21.972C492.321 21.82 486.393 21.82 484.037 21.82C483.201 21.82 482.669 23.112 482.593 23.948C482.365 26.684 482.289 35.12 482.441 37.248C482.517 38.084 482.745 38.54 483.429 38.54C485.025 38.54 488.065 38.388 490.117 38.16C492.549 37.856 492.777 37.248 493.765 35.044C494.145 34.208 495.133 32.688 496.045 32.688C497.109 32.688 497.565 34.132 497.565 35.424C497.565 37.628 497.261 39.604 497.261 40.896C497.261 42.34 497.565 45.532 497.565 46.14C497.565 47.356 496.729 48.724 495.589 48.724C494.981 48.724 494.221 47.964 493.613 46.748C492.397 44.392 492.169 43.556 490.421 43.328C489.585 43.176 488.445 43.024 483.277 43.024C482.973 43.024 482.517 44.088 482.441 45C482.289 47.584 482.289 52.6 482.441 54.272C482.745 57.54 483.733 58.452 487.457 59.44C489.433 59.972 490.041 60.884 490.041 61.644C490.041 62.404 488.749 63.392 487.305 63.392C482.517 63.392 479.021 63.012 475.981 63.012C474.385 63.012 471.801 63.316 465.949 63.316C464.657 63.316 463.517 62.708 463.517 61.72C463.517 60.884 464.429 59.972 465.949 59.592C468.837 58.908 469.901 57.54 470.053 55.488C470.281 53.208 470.357 50.928 470.357 40.82C470.357 29.42 470.357 27.748 470.205 25.088C470.053 22.656 469.065 21.82 466.177 20.984C464.809 20.604 463.669 20.148 463.669 18.856C463.669 17.792 465.645 17.336 466.481 17.336C472.409 17.412 474.385 17.564 477.349 17.564ZM515.261 46.368V28.812C515.261 22.428 514.957 21.592 510.853 20.68C509.561 20.376 508.801 19.464 508.801 18.78C508.801 17.64 510.625 17.26 511.385 17.26C512.829 17.26 517.617 17.564 520.961 17.564C525.521 17.564 529.245 17.336 531.449 17.336C532.589 17.336 533.805 17.944 533.805 18.932C533.805 19.844 532.513 20.452 531.905 20.604C528.181 21.44 527.953 22.428 527.649 26.38C527.421 29.648 527.345 36.26 527.345 41.428C527.345 49.712 527.497 52.676 527.497 53.664C527.649 57.236 528.029 58.756 531.829 59.668C533.273 60.048 534.261 60.808 534.261 61.872C534.261 62.784 532.589 63.24 531.677 63.24C530.917 63.24 523.545 63.012 520.961 63.012C518.301 63.012 512.753 63.316 511.385 63.316C510.397 63.316 508.801 63.088 508.801 61.872C508.801 61.036 510.017 60.048 511.081 59.744C514.121 58.756 514.577 57.844 514.957 55.564C515.185 53.968 515.261 52.6 515.261 46.368ZM539.192 18.4C539.192 17.868 539.8 17.108 541.168 17.108C544.208 17.108 550.288 17.716 555.152 17.716C555.836 17.716 556.9 18.248 557.128 18.552C558.42 20.3 560.776 22.808 564.424 26.76C568.452 31.092 580.536 43.86 582.208 44.772C582.436 44.848 583.044 44.696 583.12 44.468C583.576 42.416 583.576 35.12 583.348 29.876C583.12 24.708 583.5 22.732 577.572 21.364C575.748 20.908 575.064 19.616 575.064 19.16C575.064 18.628 575.9 17.488 577.724 17.488C580.46 17.488 580.308 17.564 582.284 17.564C585.4 17.564 591.176 17.184 592.696 17.184C594.292 17.184 595.356 17.64 595.356 18.932C595.356 19.768 594.748 20.3 592.316 21.364C589.2 22.732 588.744 23.568 588.668 24.556C588.516 28.052 587.908 43.708 587.908 48.8C587.908 52.144 588.212 55.488 588.212 58.984C588.212 62.176 587.604 64.532 586.236 64.532C583.804 64.532 581.828 63.164 580.384 61.492C577.572 58.3 574 54.12 571.872 51.764C568.984 48.42 557.128 35.804 553.784 32.156C553.556 31.928 553.024 32.384 553.024 32.688C552.948 34.36 552.796 34.588 552.796 37.856C552.796 41.276 552.948 48.116 553.024 50.168C553.252 56.096 554.24 57.92 556.9 58.984C559.484 59.972 560.32 60.808 560.32 61.872C560.32 62.784 559.484 63.316 557.736 63.316C555.608 63.316 553.024 63.012 549.452 63.012C545.88 63.012 543.98 63.316 542.992 63.316C540.712 63.316 539.952 62.48 539.952 61.72C539.952 60.732 540.864 60.048 542.232 59.592C545.728 58.452 547.096 58.224 547.476 53.132C547.856 48.04 548.464 29.876 548.464 27.444C548.464 26.988 548.084 25.392 547.096 24.252C545.5 22.428 544.132 21.516 542.384 21.136C540.636 20.756 539.192 19.844 539.192 18.4ZM615.992 17.564H623.82C630.736 17.564 631.8 17.564 633.548 17.184C634.384 17.032 634.916 17.488 635.144 17.868C635.6 18.628 636.208 24.404 636.208 26.076C636.208 28.052 635.296 28.508 634.84 28.508C633.472 28.508 632.712 27.672 631.8 25.62C630.356 22.504 629.292 21.972 628.684 21.972C624.352 21.972 620.172 22.2 619.108 22.2C618.728 22.2 618.12 23.036 618.12 23.34C618.044 24.784 617.892 30.256 617.892 35.5C617.892 36.716 618.12 37.476 618.5 37.552C619.336 37.78 621.996 37.704 623.364 37.628C626.784 37.4 627.848 36.184 628.684 34.284C629.14 33.144 629.9 32.232 630.736 32.232C631.8 32.232 632.484 33.296 632.332 35.5C632.256 36.412 632.18 38.16 632.18 39.908C632.18 41.656 632.332 43.404 632.408 44.544C632.56 46.596 631.42 47.508 630.66 47.508C629.976 47.508 628.988 46.672 628.304 45.152C627.544 43.404 627.316 42.872 625.72 42.72C622.604 42.492 622.148 42.34 618.728 42.34C618.348 42.34 617.892 43.404 617.892 45.304C617.892 47.356 618.12 51.764 618.196 53.436C618.348 55.64 618.652 56.476 618.88 56.78C619.64 57.92 623.288 58.908 626.936 58.908C628.152 58.908 630.28 58.68 632.028 57.692C633.472 56.932 634.232 56.02 635.904 53.74C637.12 52.068 637.956 50.244 639.172 50.244C640.616 50.244 641.072 52.448 640.768 54.044C640.312 56.248 638.488 61.34 638.184 62.024C637.956 62.556 636.36 63.392 635.904 63.392C634.916 63.392 631.876 63.012 618.044 63.012C613.256 63.012 603.68 63.316 600.412 63.316C598.816 63.316 597.676 62.708 597.676 62.1C597.676 61.188 598.284 60.124 599.88 59.668C605.124 58.224 605.276 56.476 605.428 55.108C605.732 51.46 605.808 49.864 605.808 38.16C605.808 26.456 605.656 26 605.428 24.632C605.048 22.352 604.06 21.516 601.02 20.756C599.044 20.3 598.74 19.236 598.74 18.704C598.74 17.716 600.26 17.184 601.248 17.184C602.54 17.184 610.976 17.564 615.992 17.564ZM649.45 44.088C654.922 43.556 660.318 42.948 665.79 42.416C666.778 42.34 667.538 43.632 667.538 44.24C667.538 45.76 666.854 47.888 666.094 48.952C665.714 49.484 665.03 49.788 664.726 49.788C659.558 50.168 654.314 50.624 649.146 51.004C648.082 51.08 647.398 49.712 647.398 48.952C647.398 47.66 647.778 45.988 648.386 45.076C648.538 44.848 649.222 44.088 649.45 44.088ZM696.384 16.12C700.64 16.12 704.668 17.488 707.632 18.172C708.088 18.248 708.62 19.464 708.62 20.3C708.62 21.212 709.152 25.392 709.152 26.532C709.152 29.116 707.936 30.18 706.872 30.18C706.036 30.18 705.352 28.888 705.124 28.28C703.452 23.72 699.5 19.616 695.168 19.616C691.976 19.616 689.088 22.58 689.088 25.468C689.088 28.888 691.596 31.396 695.928 33.6C705.504 38.464 711.128 42.72 711.128 49.94C711.128 56.172 706.872 59.668 704.136 61.34C701.172 63.088 696.156 64.38 692.66 64.38C686.2 64.38 682.476 63.012 680.728 62.328C680.196 62.1 678.98 61.416 678.6 60.58C677.308 57.844 677.08 53.892 677.08 52.068C677.08 50.624 677.84 48.8 679.056 48.8C679.892 48.8 680.88 49.712 681.944 51.688C684.756 56.856 688.936 60.58 693.648 60.58C696.384 60.58 699.804 58.68 699.804 55.184C699.804 52.904 699.956 50.396 692.204 46.216C682.248 40.896 678.372 36.792 678.372 29.724C678.372 24.784 681.868 20.756 685.516 18.704C688.404 17.108 692.052 16.12 696.384 16.12ZM748.279 16.044C751.775 16.044 755.271 16.804 757.323 17.336C759.223 17.868 761.959 18.704 762.567 18.704C762.947 18.704 763.859 19.692 763.859 20.148C763.859 22.884 764.619 26.76 764.619 28.66C764.619 30.788 763.175 32.004 762.187 32.004C761.579 32.004 761.199 31.396 760.591 29.724C759.451 26.608 758.995 24.936 756.183 22.884C753.827 21.136 751.167 19.844 747.899 19.844C744.631 19.844 740.451 21.744 737.943 24.784C734.675 28.66 733.155 34.436 733.155 38.996C733.155 44.772 735.055 49.94 737.259 53.056C739.995 56.932 745.011 59.744 749.571 59.744C751.471 59.744 754.891 58.528 756.411 57.692C757.019 57.312 758.387 55.868 760.287 52.828C761.731 50.548 762.643 49.636 763.403 49.636C764.847 49.636 764.999 51.08 764.923 52.676C764.923 53.36 763.479 58.452 763.479 59.896C763.479 60.124 762.871 61.188 762.643 61.34C759.983 62.632 753.219 64.38 747.975 64.38C739.539 64.38 730.571 61.872 725.175 55.944C721.831 52.296 719.475 47.28 719.475 40.516C719.475 32.384 723.123 25.544 729.811 20.908C733.231 18.552 740.375 16.044 748.279 16.044ZM800.217 16.044C801.585 16.044 802.041 18.324 804.017 23.416C808.121 34.436 814.353 49.18 816.405 53.816C818.305 58.072 819.369 58.148 822.333 59.364C824.081 60.124 824.689 61.264 824.689 62.1C824.689 63.012 823.473 63.392 822.029 63.392C819.673 63.392 813.745 63.012 810.021 63.012C806.753 63.012 804.701 63.392 801.965 63.392C799.837 63.392 799.153 62.48 799.153 61.948C799.153 61.036 800.065 59.972 801.509 59.364C804.169 58.224 804.169 56.552 803.789 55.26C803.105 53.36 803.029 52.98 802.041 50.7C801.965 50.472 801.281 49.636 800.065 49.484C798.773 49.332 789.273 49.18 787.525 49.56C787.069 49.636 786.461 50.396 786.309 50.7C785.701 52.22 785.093 55.108 785.093 56.096C785.093 57.464 786.081 58.604 788.513 59.44C789.577 59.82 790.717 60.428 790.717 61.416C790.717 61.796 789.653 63.24 787.677 63.24C786.765 63.24 785.093 63.012 782.661 63.012C779.849 63.012 776.733 63.392 773.541 63.392C771.869 63.392 770.729 62.632 770.729 61.72C770.729 60.96 771.337 60.2 773.009 59.516C775.821 58.376 777.341 58.148 779.773 53.056C781.673 49.028 787.069 35.348 791.629 23.34C791.705 23.112 791.857 22.58 791.857 21.744C791.857 21.44 792.237 20.908 792.541 20.68C793.529 20.072 797.329 17.564 798.165 16.88C798.621 16.424 799.837 16.044 800.217 16.044ZM798.697 44.392C799.077 44.392 799.533 43.708 799.457 43.48C798.317 39.756 795.125 31.624 794.441 30.408C794.137 29.876 793.681 30.104 793.453 30.408C792.237 32.916 788.969 42.264 788.741 43.404C788.665 43.86 789.045 44.468 789.577 44.468C790.565 44.468 797.633 44.468 798.697 44.392ZM828.686 18.932C828.686 17.716 830.13 17.412 831.118 17.412C831.498 17.412 838.11 17.564 841.15 17.564C844.19 17.564 850.118 17.336 851.638 17.336C853.234 17.336 854.146 18.096 854.146 19.008C854.146 19.92 853.158 20.68 851.562 20.984C847.306 21.896 847.078 23.568 847.002 25.164C846.85 26.912 846.546 31.168 846.546 37.704C846.546 45.684 846.774 52.98 846.926 55.564C847.002 56.704 848.826 58.3 851.714 58.984C852.778 59.212 855.286 59.288 858.022 58.756C860.302 58.3 864.102 53.816 865.698 50.928C866.458 49.484 867.294 48.952 867.522 48.952C868.89 48.952 869.802 50.548 869.422 51.916C868.89 53.816 867.446 59.82 866.914 61.34C866.458 62.48 865.09 63.24 863.57 63.24C860.91 63.24 852.854 63.012 843.43 63.012C838.262 63.012 830.662 63.392 828.99 63.392C827.318 63.392 826.026 62.556 826.026 61.492C826.026 60.428 827.166 59.896 828.458 59.668C833.55 58.68 834.082 56.856 834.234 55.108C834.386 52.828 834.538 49.636 834.538 40.592C834.538 26.836 834.614 26.988 834.462 24.936C834.234 22.428 833.398 22.048 830.89 20.984C829.294 20.3 828.686 19.768 828.686 18.932ZM890.898 17.564H898.726C905.642 17.564 906.706 17.564 908.454 17.184C909.29 17.032 909.822 17.488 910.05 17.868C910.506 18.628 911.114 24.404 911.114 26.076C911.114 28.052 910.202 28.508 909.746 28.508C908.378 28.508 907.618 27.672 906.706 25.62C905.262 22.504 904.198 21.972 903.59 21.972C899.258 21.972 895.078 22.2 894.014 22.2C893.634 22.2 893.026 23.036 893.026 23.34C892.95 24.784 892.798 30.256 892.798 35.5C892.798 36.716 893.026 37.476 893.406 37.552C894.242 37.78 896.902 37.704 898.27 37.628C901.69 37.4 902.754 36.184 903.59 34.284C904.046 33.144 904.806 32.232 905.642 32.232C906.706 32.232 907.39 33.296 907.238 35.5C907.162 36.412 907.086 38.16 907.086 39.908C907.086 41.656 907.238 43.404 907.314 44.544C907.466 46.596 906.326 47.508 905.566 47.508C904.882 47.508 903.894 46.672 903.21 45.152C902.45 43.404 902.222 42.872 900.626 42.72C897.51 42.492 897.054 42.34 893.634 42.34C893.254 42.34 892.798 43.404 892.798 45.304C892.798 47.356 893.026 51.764 893.102 53.436C893.254 55.64 893.558 56.476 893.786 56.78C894.546 57.92 898.194 58.908 901.842 58.908C903.058 58.908 905.186 58.68 906.934 57.692C908.378 56.932 909.138 56.02 910.81 53.74C912.026 52.068 912.862 50.244 914.078 50.244C915.522 50.244 915.978 52.448 915.674 54.044C915.218 56.248 913.394 61.34 913.09 62.024C912.862 62.556 911.266 63.392 910.81 63.392C909.822 63.392 906.782 63.012 892.95 63.012C888.162 63.012 878.586 63.316 875.318 63.316C873.722 63.316 872.582 62.708 872.582 62.1C872.582 61.188 873.19 60.124 874.786 59.668C880.03 58.224 880.182 56.476 880.334 55.108C880.638 51.46 880.714 49.864 880.714 38.16C880.714 26.456 880.562 26 880.334 24.632C879.954 22.352 878.966 21.516 875.926 20.756C873.95 20.3 873.646 19.236 873.646 18.704C873.646 17.716 875.166 17.184 876.154 17.184C877.446 17.184 885.882 17.564 890.898 17.564Z" fill="white"/>
<path d="M209.34 85.8286C214.94 85.8286 220.24 87.6286 224.14 88.5286C224.74 88.6286 225.44 90.2286 225.44 91.3286C225.44 92.5286 226.14 98.0286 226.14 99.5286C226.14 102.929 224.54 104.329 223.14 104.329C222.04 104.329 221.14 102.629 220.84 101.829C218.64 95.8286 213.44 90.4286 207.74 90.4286C203.54 90.4286 199.74 94.3286 199.74 98.1286C199.74 102.629 203.04 105.929 208.74 108.829C221.34 115.229 228.74 120.829 228.74 130.329C228.74 138.529 223.14 143.129 219.54 145.329C215.64 147.629 209.04 149.329 204.44 149.329C195.94 149.329 191.04 147.529 188.74 146.629C188.04 146.329 186.44 145.429 185.94 144.329C184.24 140.729 183.94 135.529 183.94 133.129C183.94 131.229 184.94 128.829 186.54 128.829C187.64 128.829 188.94 130.029 190.34 132.629C194.04 139.429 199.54 144.329 205.74 144.329C209.34 144.329 213.84 141.829 213.84 137.229C213.84 134.229 214.04 130.929 203.84 125.429C190.74 118.429 185.64 113.029 185.64 103.729C185.64 97.2286 190.24 91.9286 195.04 89.2286C198.84 87.1286 203.64 85.8286 209.34 85.8286ZM259.713 87.7286H270.013C279.113 87.7286 280.513 87.7286 282.813 87.2286C283.913 87.0286 284.613 87.6286 284.913 88.1286C285.513 89.1286 286.313 96.7286 286.313 98.9286C286.313 101.529 285.113 102.129 284.513 102.129C282.713 102.129 281.713 101.029 280.513 98.3286C278.613 94.2286 277.213 93.5286 276.413 93.5286C270.713 93.5286 265.213 93.8286 263.813 93.8286C263.313 93.8286 262.513 94.9286 262.513 95.3286C262.413 97.2286 262.213 104.429 262.213 111.329C262.213 112.929 262.513 113.929 263.013 114.029C264.113 114.329 267.613 114.229 269.413 114.129C273.913 113.829 275.313 112.229 276.413 109.729C277.013 108.229 278.013 107.029 279.113 107.029C280.513 107.029 281.413 108.429 281.213 111.329C281.113 112.529 281.013 114.829 281.013 117.129C281.013 119.429 281.213 121.729 281.313 123.229C281.513 125.929 280.013 127.129 279.013 127.129C278.113 127.129 276.813 126.029 275.913 124.029C274.913 121.729 274.613 121.029 272.513 120.829C268.413 120.529 267.813 120.329 263.313 120.329C262.813 120.329 262.213 121.729 262.213 124.229C262.213 126.929 262.513 132.729 262.613 134.929C262.813 137.829 263.213 138.929 263.513 139.329C264.513 140.829 269.313 142.129 274.113 142.129C275.713 142.129 278.513 141.829 280.813 140.529C282.713 139.529 283.713 138.329 285.913 135.329C287.513 133.129 288.613 130.729 290.213 130.729C292.113 130.729 292.713 133.629 292.313 135.729C291.713 138.629 289.313 145.329 288.913 146.229C288.613 146.929 286.513 148.029 285.913 148.029C284.613 148.029 280.613 147.529 262.413 147.529C256.113 147.529 243.513 147.929 239.213 147.929C237.113 147.929 235.613 147.129 235.613 146.329C235.613 145.129 236.413 143.729 238.513 143.129C245.413 141.229 245.613 138.929 245.813 137.129C246.213 132.329 246.313 130.229 246.313 114.829C246.313 99.4286 246.113 98.8286 245.813 97.0286C245.313 94.0286 244.013 92.9286 240.013 91.9286C237.413 91.3286 237.013 89.9286 237.013 89.2286C237.013 87.9286 239.013 87.2286 240.313 87.2286C242.013 87.2286 253.113 87.7286 259.713 87.7286ZM337.564 85.7286C339.364 85.7286 339.964 88.7286 342.564 95.4286C347.964 109.929 356.164 129.329 358.864 135.429C361.364 141.029 362.764 141.129 366.664 142.729C368.964 143.729 369.764 145.229 369.764 146.329C369.764 147.529 368.164 148.029 366.264 148.029C363.164 148.029 355.364 147.529 350.464 147.529C346.164 147.529 343.464 148.029 339.864 148.029C337.064 148.029 336.164 146.829 336.164 146.129C336.164 144.929 337.364 143.529 339.264 142.729C342.764 141.229 342.764 139.029 342.264 137.329C341.364 134.829 341.264 134.329 339.964 131.329C339.864 131.029 338.964 129.929 337.364 129.729C335.664 129.529 323.164 129.329 320.864 129.829C320.264 129.929 319.464 130.929 319.264 131.329C318.464 133.329 317.664 137.129 317.664 138.429C317.664 140.229 318.964 141.729 322.164 142.829C323.564 143.329 325.064 144.129 325.064 145.429C325.064 145.929 323.664 147.829 321.064 147.829C319.864 147.829 317.664 147.529 314.464 147.529C310.764 147.529 306.664 148.029 302.464 148.029C300.264 148.029 298.764 147.029 298.764 145.829C298.764 144.829 299.564 143.829 301.764 142.929C305.464 141.429 307.464 141.129 310.664 134.429C313.164 129.129 320.264 111.129 326.264 95.3286C326.364 95.0286 326.564 94.3286 326.564 93.2286C326.564 92.8286 327.064 92.1286 327.464 91.8286C328.764 91.0286 333.764 87.7286 334.864 86.8286C335.464 86.2286 337.064 85.7286 337.564 85.7286ZM335.564 123.029C336.064 123.029 336.664 122.129 336.564 121.829C335.064 116.929 330.864 106.229 329.964 104.629C329.564 103.929 328.964 104.229 328.664 104.629C327.064 107.929 322.764 120.229 322.464 121.729C322.364 122.329 322.864 123.129 323.564 123.129C324.864 123.129 334.164 123.129 335.564 123.029ZM392.523 87.7286H408.623C421.523 87.7286 423.723 87.1286 424.123 87.1286C425.023 87.1286 426.023 88.2286 426.023 89.1286V98.9286C426.023 101.729 424.423 103.329 423.223 103.329C422.423 103.329 421.223 101.929 420.623 99.8286C419.923 97.5286 418.523 93.8286 415.023 93.5286C412.223 93.3286 404.423 93.3286 401.323 93.3286C400.223 93.3286 399.523 95.0286 399.423 96.1286C399.123 99.7286 399.023 110.829 399.223 113.629C399.323 114.729 399.623 115.329 400.523 115.329C402.623 115.329 406.623 115.129 409.323 114.829C412.523 114.429 412.823 113.629 414.123 110.729C414.623 109.629 415.923 107.629 417.123 107.629C418.523 107.629 419.123 109.529 419.123 111.229C419.123 114.129 418.723 116.729 418.723 118.429C418.723 120.329 419.123 124.529 419.123 125.329C419.123 126.929 418.023 128.729 416.523 128.729C415.723 128.729 414.723 127.729 413.923 126.129C412.323 123.029 412.023 121.929 409.723 121.629C408.623 121.429 407.123 121.229 400.323 121.229C399.923 121.229 399.323 122.629 399.223 123.829C399.023 127.229 399.023 133.829 399.223 136.029C399.623 140.329 400.923 141.529 405.823 142.829C408.423 143.529 409.223 144.729 409.223 145.729C409.223 146.729 407.523 148.029 405.623 148.029C399.323 148.029 394.723 147.529 390.723 147.529C388.623 147.529 385.223 147.929 377.523 147.929C375.823 147.929 374.323 147.129 374.323 145.829C374.323 144.729 375.523 143.529 377.523 143.029C381.323 142.129 382.723 140.329 382.923 137.629C383.223 134.629 383.323 131.629 383.323 118.329C383.323 103.329 383.323 101.129 383.123 97.6286C382.923 94.4286 381.623 93.3286 377.823 92.2286C376.023 91.7286 374.523 91.1286 374.523 89.4286C374.523 88.0286 377.123 87.4286 378.223 87.4286C386.023 87.5286 388.623 87.7286 392.523 87.7286ZM434.007 89.5286C434.007 87.9286 435.907 87.5286 437.207 87.5286C437.707 87.5286 446.407 87.7286 450.407 87.7286C454.407 87.7286 462.207 87.4286 464.207 87.4286C466.307 87.4286 467.507 88.4286 467.507 89.6286C467.507 90.8286 466.207 91.8286 464.107 92.2286C458.507 93.4286 458.207 95.6286 458.107 97.7286C457.907 100.029 457.507 105.629 457.507 114.229C457.507 124.729 457.807 134.329 458.007 137.729C458.107 139.229 460.507 141.329 464.307 142.229C465.707 142.529 469.007 142.629 472.607 141.929C475.607 141.329 480.607 135.429 482.707 131.629C483.707 129.729 484.807 129.029 485.107 129.029C486.907 129.029 488.107 131.129 487.607 132.929C486.907 135.429 485.007 143.329 484.307 145.329C483.707 146.829 481.907 147.829 479.907 147.829C476.407 147.829 465.807 147.529 453.407 147.529C446.607 147.529 436.607 148.029 434.407 148.029C432.207 148.029 430.507 146.929 430.507 145.529C430.507 144.129 432.007 143.429 433.707 143.129C440.407 141.829 441.107 139.429 441.307 137.129C441.507 134.129 441.707 129.929 441.707 118.029C441.707 99.9286 441.807 100.129 441.607 97.4286C441.307 94.1286 440.207 93.6286 436.907 92.2286C434.807 91.3286 434.007 90.6286 434.007 89.5286ZM529.401 85.7286C550.201 85.7286 564.201 99.7286 564.201 117.629C564.201 130.129 556.801 139.929 547.401 145.129C543.101 147.529 536.101 149.329 529.701 149.329C508.601 149.329 494.801 134.929 494.801 117.629C494.801 109.929 497.701 102.329 503.901 96.1286C510.401 89.6286 520.001 85.7286 529.401 85.7286ZM527.601 90.9286C522.901 90.9286 518.701 94.9286 518.601 95.0286C514.401 99.6286 512.601 106.429 512.601 115.829C512.601 129.429 518.801 144.229 532.301 144.229C535.701 144.229 539.701 141.229 540.201 140.829C543.401 137.829 546.001 131.529 546.001 118.329C546.001 107.829 540.801 90.9286 527.601 90.9286ZM610.163 85.7286C630.963 85.7286 644.963 99.7286 644.963 117.629C644.963 130.129 637.563 139.929 628.163 145.129C623.863 147.529 616.863 149.329 610.463 149.329C589.363 149.329 575.563 134.929 575.563 117.629C575.563 109.929 578.463 102.329 584.663 96.1286C591.163 89.6286 600.763 85.7286 610.163 85.7286ZM608.363 90.9286C603.663 90.9286 599.462 94.9286 599.363 95.0286C595.163 99.6286 593.363 106.429 593.363 115.829C593.363 129.429 599.563 144.229 613.063 144.229C616.463 144.229 620.463 141.229 620.963 140.829C624.163 137.829 626.763 131.529 626.763 118.329C626.763 107.829 621.563 90.9286 608.363 90.9286ZM707.934 103.429C707.934 107.229 706.034 111.529 703.434 113.729C701.934 115.029 700.534 115.329 698.434 116.529C697.934 116.829 698.434 118.729 698.734 119.329C700.934 123.729 705.434 131.129 709.234 135.929C712.734 140.329 715.834 142.029 718.934 143.229C719.934 143.629 721.234 144.529 721.234 145.429C721.234 148.029 718.034 148.829 715.334 148.829C707.334 148.829 699.634 148.029 692.634 138.929C689.034 134.229 686.334 129.229 683.534 124.729C681.934 122.129 680.534 121.629 678.934 121.629C678.234 121.629 678.134 122.829 678.134 123.129C678.134 131.129 678.134 133.529 678.434 137.029C678.734 140.629 679.734 140.729 683.734 142.629C685.534 143.529 686.734 144.629 686.734 145.429C686.734 146.529 684.634 147.929 682.934 147.929C680.434 147.929 672.734 147.529 669.234 147.529C666.134 147.529 661.434 147.929 657.734 147.929C655.334 147.929 653.934 146.729 653.934 145.729C653.934 144.329 655.334 143.329 657.234 142.829C661.334 141.629 662.334 140.829 662.534 135.829C662.634 132.229 662.634 130.429 662.634 112.429C662.634 100.129 662.334 99.5286 662.134 97.4286C661.934 95.4286 661.034 93.4286 657.234 92.7286C655.334 92.3286 654.134 90.8286 654.134 90.1286C654.134 88.4286 656.134 87.5286 658.534 87.5286C663.634 87.5286 665.334 87.7286 666.634 87.7286C673.234 87.7286 678.734 87.1286 685.734 87.1286C694.534 87.1286 699.134 89.0286 701.534 90.8286C705.834 94.1286 707.934 98.1286 707.934 103.429ZM692.534 105.129C692.534 98.8286 688.234 92.6286 681.034 92.6286C680.634 92.6286 679.134 93.0286 678.534 93.4286C678.234 93.6286 677.934 94.1286 677.934 95.0286C677.934 97.8286 678.134 107.129 678.134 113.829C678.134 114.229 678.534 115.429 678.934 115.629C680.334 116.229 681.634 116.529 683.334 116.529C685.534 116.529 689.134 114.229 689.734 113.829C690.334 113.429 692.534 109.929 692.534 105.129ZM187.14 172.909C187.14 171.479 189.09 169.269 191.95 169.269C195.2 169.269 215.74 169.789 216.52 169.789C217.17 169.789 218.99 171.999 219.12 172.259C219.64 174.079 221.33 177.199 224.06 183.569C226.92 190.199 236.93 212.429 239.92 216.069C239.92 216.199 241.09 216.719 241.48 215.809C245.77 206.579 251.49 194.619 255.78 184.739C258.25 179.019 259.16 175.379 260.2 172.519C260.46 171.739 261.89 170.049 262.67 170.049C264.88 170.049 283.6 169.139 287.76 169.139C289.06 169.139 292.05 170.439 292.05 172.259C292.05 173.819 290.88 174.599 288.28 175.379C279.96 177.849 279.7 178.499 279.7 181.879C279.7 200.339 280.61 215.289 281.13 228.809C281.52 239.469 284.25 240.249 288.67 241.289C292.7 242.199 294 243.629 294 245.189C294 246.489 291.53 248.309 288.8 248.309C287.24 248.309 272.68 247.529 266.44 247.529C260.59 247.529 257.34 248.049 254.22 248.049C250.97 248.049 250.06 245.319 250.06 244.409C250.06 243.369 252.14 242.329 252.79 242.069C259.16 239.859 260.33 238.299 260.46 231.149C260.59 227.769 260.33 204.369 260.72 191.889C260.72 191.239 259.81 191.369 259.16 192.539C257.47 195.659 246.16 222.829 243.43 229.329C242 232.709 239.92 238.949 238.1 243.369C236.8 246.359 234.46 248.439 231.6 248.439C230.43 248.439 228.48 246.229 227.83 244.019C225.88 237.649 223.28 231.409 222.11 228.029C216.39 211.909 211.19 202.029 207.94 194.099C207.42 192.799 206.38 193.059 206.38 193.969C205.34 208.919 204.69 223.869 204.69 230.499C204.69 238.299 205.6 238.689 212.49 241.419C215.35 242.589 216.65 243.369 216.65 245.059C216.65 246.489 214.83 248.049 211.84 248.049C210.02 248.049 205.34 247.529 201.57 247.529C197.41 247.529 187.92 248.309 186.23 248.309C183.76 248.309 181.42 247.009 181.42 245.319C181.42 244.149 182.59 242.849 185.71 241.809C192.21 239.729 194.29 237.129 195.2 231.669C196.76 222.699 199.75 192.409 200.01 185.649C200.27 178.629 198.32 177.719 191.82 175.899C188.57 174.989 187.14 173.949 187.14 172.909ZM351.77 167.189C354.11 167.189 354.89 171.089 358.27 179.799C365.29 198.649 375.95 223.869 379.46 231.799C382.71 239.079 384.53 239.209 389.6 241.289C392.59 242.589 393.63 244.539 393.63 245.969C393.63 247.529 391.55 248.179 389.08 248.179C385.05 248.179 374.91 247.529 368.54 247.529C362.95 247.529 359.44 248.179 354.76 248.179C351.12 248.179 349.95 246.619 349.95 245.709C349.95 244.149 351.51 242.329 353.98 241.289C358.53 239.339 358.53 236.479 357.88 234.269C356.71 231.019 356.58 230.369 354.89 226.469C354.76 226.079 353.59 224.649 351.51 224.389C349.3 224.129 333.05 223.869 330.06 224.519C329.28 224.649 328.24 225.949 327.98 226.469C326.94 229.069 325.9 234.009 325.9 235.699C325.9 238.039 327.59 239.989 331.75 241.419C333.57 242.069 335.52 243.109 335.52 244.799C335.52 245.449 333.7 247.919 330.32 247.919C328.76 247.919 325.9 247.529 321.74 247.529C316.93 247.529 311.6 248.179 306.14 248.179C303.28 248.179 301.33 246.879 301.33 245.319C301.33 244.019 302.37 242.719 305.23 241.549C310.04 239.599 312.64 239.209 316.8 230.499C320.05 223.609 329.28 200.209 337.08 179.669C337.21 179.279 337.47 178.369 337.47 176.939C337.47 176.419 338.12 175.509 338.64 175.119C340.33 174.079 346.83 169.789 348.26 168.619C349.04 167.839 351.12 167.189 351.77 167.189ZM349.17 215.679C349.82 215.679 350.6 214.509 350.47 214.119C348.52 207.749 343.06 193.839 341.89 191.759C341.37 190.849 340.59 191.239 340.2 191.759C338.12 196.049 332.53 212.039 332.14 213.989C332.01 214.769 332.66 215.809 333.57 215.809C335.26 215.809 347.35 215.809 349.17 215.679ZM450.516 194.489C450.516 187.209 447.526 181.879 446.876 180.969C446.356 180.319 441.676 176.029 436.866 176.029C435.436 176.029 433.746 176.549 433.226 177.069C432.836 177.459 432.316 178.239 432.316 178.889C431.926 184.089 431.796 200.729 431.796 206.059C431.796 219.059 431.926 229.069 431.926 230.369C431.926 237.649 433.616 239.599 440.636 241.549C443.756 242.459 445.056 243.369 445.056 245.189C445.056 246.359 443.236 247.919 439.856 247.919C435.956 247.919 430.236 247.529 424.906 247.529C420.226 247.529 408.006 248.309 403.716 248.309C400.466 248.309 398.256 247.139 398.256 245.449C398.256 243.759 399.556 242.589 403.326 241.419C408.916 239.599 409.826 237.389 410.216 234.009C410.476 231.409 411.386 215.419 411.386 197.349C411.386 191.759 411.256 185.519 410.866 182.529C410.606 179.539 409.566 177.199 403.846 175.899C401.766 175.379 399.296 173.429 399.296 172.129C399.296 169.789 401.116 169.269 403.326 169.269C408.916 169.269 412.556 169.789 419.056 169.789C423.476 169.789 430.366 169.139 440.506 169.139C451.816 169.139 460.136 172.649 464.556 177.199C467.676 180.449 471.576 187.599 471.576 194.359C471.576 204.499 465.596 211.649 462.996 213.859C457.666 218.279 452.076 220.229 446.096 220.229C442.716 220.229 440.766 219.709 438.816 218.409C437.386 217.499 436.216 216.199 436.216 215.549C436.216 214.119 436.736 213.209 437.776 213.079C438.296 212.949 438.946 212.949 439.596 212.819C442.716 212.039 450.516 210.089 450.516 194.489ZM532.781 194.489C532.781 187.209 529.791 181.879 529.141 180.969C528.621 180.319 523.941 176.029 519.131 176.029C517.701 176.029 516.011 176.549 515.491 177.069C515.101 177.459 514.581 178.239 514.581 178.889C514.191 184.089 514.061 200.729 514.061 206.059C514.061 219.059 514.191 229.069 514.191 230.369C514.191 237.649 515.881 239.599 522.901 241.549C526.021 242.459 527.321 243.369 527.321 245.189C527.321 246.359 525.501 247.919 522.121 247.919C518.221 247.919 512.501 247.529 507.171 247.529C502.491 247.529 490.271 248.309 485.981 248.309C482.731 248.309 480.521 247.139 480.521 245.449C480.521 243.759 481.821 242.589 485.591 241.419C491.181 239.599 492.091 237.389 492.481 234.009C492.741 231.409 493.651 215.419 493.651 197.349C493.651 191.759 493.521 185.519 493.131 182.529C492.871 179.539 491.831 177.199 486.111 175.899C484.031 175.379 481.561 173.429 481.561 172.129C481.561 169.789 483.381 169.269 485.591 169.269C491.181 169.269 494.821 169.789 501.321 169.789C505.741 169.789 512.631 169.139 522.771 169.139C534.081 169.139 542.401 172.649 546.821 177.199C549.941 180.449 553.841 187.599 553.841 194.359C553.841 204.499 547.861 211.649 545.261 213.859C539.931 218.279 534.341 220.229 528.361 220.229C524.981 220.229 523.031 219.709 521.081 218.409C519.651 217.499 518.481 216.199 518.481 215.549C518.481 214.119 519.001 213.209 520.041 213.079C520.561 212.949 521.211 212.949 521.861 212.819C524.981 212.039 532.781 210.089 532.781 194.489ZM575.917 219.059V189.029C575.917 178.109 575.397 176.679 568.377 175.119C566.167 174.599 564.867 173.039 564.867 171.869C564.867 169.919 567.987 169.269 569.287 169.269C571.757 169.269 579.947 169.789 585.667 169.789C593.467 169.789 599.837 169.399 603.607 169.399C605.557 169.399 607.637 170.439 607.637 172.129C607.637 173.689 605.427 174.729 604.387 174.989C598.017 176.419 597.627 178.109 597.107 184.869C596.717 190.459 596.587 201.769 596.587 210.609C596.587 224.779 596.847 229.849 596.847 231.539C597.107 237.649 597.757 240.249 604.257 241.809C606.727 242.459 608.417 243.759 608.417 245.579C608.417 247.139 605.557 247.919 603.997 247.919C602.697 247.919 590.087 247.529 585.667 247.529C581.117 247.529 571.627 248.049 569.287 248.049C567.597 248.049 564.867 247.659 564.867 245.579C564.867 244.149 566.947 242.459 568.767 241.939C573.967 240.249 574.747 238.689 575.397 234.789C575.787 232.059 575.917 229.719 575.917 219.059ZM616.851 171.219C616.851 170.309 617.891 169.009 620.231 169.009C625.431 169.009 635.831 170.049 644.151 170.049C645.321 170.049 647.141 170.959 647.531 171.479C649.741 174.469 653.771 178.759 660.011 185.519C666.901 192.929 687.571 214.769 690.431 216.329C690.821 216.459 691.861 216.199 691.991 215.809C692.771 212.299 692.771 199.819 692.381 190.849C691.991 182.009 692.641 178.629 682.501 176.289C679.381 175.509 678.211 173.299 678.211 172.519C678.211 171.609 679.641 169.659 682.761 169.659C687.441 169.659 687.181 169.789 690.561 169.789C695.891 169.789 705.771 169.139 708.371 169.139C711.101 169.139 712.921 169.919 712.921 172.129C712.921 173.559 711.881 174.469 707.721 176.289C702.391 178.629 701.611 180.059 701.481 181.749C701.221 187.729 700.181 214.509 700.181 223.219C700.181 228.939 700.701 234.659 700.701 240.639C700.701 246.099 699.661 250.129 697.321 250.129C693.161 250.129 689.781 247.789 687.311 244.929C682.501 239.469 676.391 232.319 672.751 228.289C667.811 222.569 647.531 200.989 641.811 194.749C641.421 194.359 640.511 195.139 640.511 195.659C640.381 198.519 640.121 198.909 640.121 204.499C640.121 210.349 640.381 222.049 640.511 225.559C640.901 235.699 642.591 238.819 647.141 240.639C651.561 242.329 652.991 243.759 652.991 245.579C652.991 247.139 651.561 248.049 648.571 248.049C644.931 248.049 640.511 247.529 634.401 247.529C628.291 247.529 625.041 248.049 623.351 248.049C619.451 248.049 618.151 246.619 618.151 245.319C618.151 243.629 619.711 242.459 622.051 241.679C628.031 239.729 630.371 239.339 631.021 230.629C631.671 221.919 632.711 190.849 632.711 186.689C632.711 185.909 632.061 183.179 630.371 181.229C627.641 178.109 625.301 176.549 622.311 175.899C619.321 175.249 616.851 173.689 616.851 171.219ZM771.242 167.189C779.692 167.189 784.502 168.619 789.962 170.049C792.692 170.829 795.422 171.219 797.112 171.219C798.022 171.219 799.452 172.649 799.712 174.079C800.492 177.589 802.312 184.219 802.312 189.419C802.312 191.369 801.012 194.489 799.062 194.489C797.762 194.489 796.852 194.099 794.902 190.589C793.212 187.469 791.912 183.959 788.662 181.099C781.902 175.119 773.972 174.209 770.462 174.209C752.392 174.209 746.022 191.369 746.022 206.579C746.022 228.029 758.242 242.979 773.192 242.979C774.362 242.979 777.612 242.199 779.042 241.159C780.342 240.249 780.862 235.829 780.862 232.839C780.862 227.899 780.732 223.089 780.602 221.399C780.342 218.799 779.822 216.589 775.012 215.419C770.592 214.379 768.902 213.079 768.902 211.129C768.902 209.959 770.332 208.139 774.232 208.139C777.872 208.139 781.642 208.789 785.932 208.789C789.832 208.789 802.572 208.139 805.172 208.139C808.812 208.139 809.982 209.569 809.982 211.129C809.982 212.949 807.512 214.379 805.822 215.029C801.272 216.589 801.532 218.799 801.402 220.619C801.142 223.609 801.142 219.319 801.142 231.149C801.142 232.839 801.272 234.659 801.532 236.739C801.662 237.649 801.922 238.949 801.922 240.509C801.922 240.899 800.362 242.849 800.102 242.979C798.542 244.149 795.292 245.839 789.832 247.399C784.762 248.829 778.392 250.129 772.022 250.129C750.702 250.129 738.612 243.759 730.292 233.619C724.442 226.469 722.232 216.979 722.232 208.529C722.232 194.489 728.212 184.739 738.482 176.939C745.892 171.219 759.412 167.189 771.242 167.189Z" fill="white"/>
</svg>
