<svg width="358" height="503" viewBox="0 0 358 503" fill="none" xmlns="http://www.w3.org/2000/svg">
<path d="M189.943 359.721H258.19V367.986H189.943V359.721ZM189.943 343.151V333.287L246.593 310.094V309.294L189.943 286.101V276.237H258.19V283.968H206.338V284.634L258.19 305.962V313.426L206.338 334.753V335.42H258.19V343.151H189.943ZM258.19 259.666H189.943V236.606C189.943 231.252 190.909 226.876 192.842 223.477C194.752 220.056 197.341 217.523 200.606 215.879C203.872 214.235 207.515 213.413 211.537 213.413C215.558 213.413 219.212 214.235 222.5 215.879C225.788 217.501 228.41 220.011 230.365 223.41C232.297 226.809 233.264 231.163 233.264 236.473V253.002H225.932V236.74C225.932 233.074 225.299 230.13 224.033 227.909C222.767 225.687 221.056 224.077 218.901 223.077C216.724 222.055 214.269 221.544 211.537 221.544C208.804 221.544 206.36 222.055 204.205 223.077C202.05 224.077 200.362 225.698 199.14 227.942C197.896 230.186 197.274 233.163 197.274 236.873V251.402H258.19V259.666ZM258.19 204.266V212.93L189.943 187.87V179.339L258.19 154.28V162.944L200.74 183.338V183.871L258.19 204.266ZM231.531 201.066V166.143H238.862V201.066H231.531ZM211.27 91.9391V100.203C208.893 100.692 206.805 101.548 205.005 102.769C203.206 103.969 201.695 105.435 200.473 107.168C199.229 108.879 198.296 110.778 197.674 112.867C197.052 114.955 196.741 117.132 196.741 119.398C196.741 123.53 197.785 127.274 199.873 130.628C201.961 133.961 205.038 136.615 209.104 138.593C213.169 140.548 218.157 141.525 224.066 141.525C229.976 141.525 234.963 140.548 239.029 138.593C243.094 136.615 246.171 133.961 248.259 130.628C250.348 127.274 251.392 123.53 251.392 119.398C251.392 117.132 251.081 114.955 250.459 112.867C249.837 110.778 248.915 108.879 247.693 107.168C246.449 105.435 244.927 103.969 243.128 102.769C241.306 101.548 239.218 100.692 236.863 100.203V91.9391C240.351 92.5612 243.472 93.6942 246.227 95.3382C248.981 96.9822 251.325 99.026 253.258 101.47C255.169 103.914 256.624 106.657 257.623 109.701C258.623 112.722 259.123 115.955 259.123 119.398C259.123 125.219 257.701 130.395 254.858 134.927C252.014 139.459 247.971 143.025 242.728 145.624C237.485 148.223 231.264 149.523 224.066 149.523C216.868 149.523 210.648 148.223 205.405 145.624C200.162 143.025 196.119 139.459 193.275 134.927C190.431 130.395 189.01 125.219 189.01 119.398C189.01 115.955 189.509 112.722 190.509 109.701C191.509 106.657 192.975 103.914 194.908 101.47C196.818 99.026 199.151 96.9822 201.906 95.3382C204.638 93.6942 207.76 92.5612 211.27 91.9391ZM197.274 82.3169H189.943V31.1314H197.274V52.592H258.19V60.8563H197.274V82.3169Z" fill="white"/>
<path d="M335.54 374.651H269.976V352.497C269.976 347.375 270.851 343.171 272.602 339.884C274.33 336.597 276.71 334.164 279.741 332.585C282.771 331.006 286.218 330.216 290.081 330.216C293.944 330.216 297.369 331.006 300.357 332.585C303.345 334.164 305.693 336.587 307.4 339.852C309.086 343.117 309.929 347.29 309.929 352.369V370.297H302.758V352.625C302.758 349.125 302.246 346.308 301.222 344.174C300.197 342.018 298.746 340.46 296.868 339.5C294.968 338.518 292.706 338.027 290.081 338.027C287.456 338.027 285.161 338.518 283.198 339.5C281.234 340.482 279.719 342.05 278.652 344.206C277.564 346.361 277.019 349.211 277.019 352.753V366.711H335.54V374.651ZM306.088 343.79L335.54 327.655V336.875L306.088 352.753V343.79ZM335.54 316.986H269.976V277.418H277.019V309.047H299.173V279.467H306.216V309.047H328.497V276.905H335.54V316.986ZM335.54 263.108H269.976V240.954C269.976 235.811 270.905 231.606 272.762 228.341C274.597 225.054 277.083 222.621 280.221 221.042C283.358 219.463 286.858 218.673 290.721 218.673C294.584 218.673 298.095 219.463 301.254 221.042C304.412 222.6 306.931 225.012 308.809 228.277C310.666 231.542 311.594 235.725 311.594 240.826V256.705H304.551V241.082C304.551 237.561 303.943 234.733 302.726 232.599C301.51 230.465 299.866 228.917 297.796 227.957C295.705 226.975 293.346 226.484 290.721 226.484C288.096 226.484 285.748 226.975 283.678 227.957C281.608 228.917 279.986 230.475 278.812 232.631C277.617 234.786 277.019 237.646 277.019 241.21V255.168H335.54V263.108ZM302.758 150.564C309.673 150.564 315.649 151.813 320.686 154.31C325.723 156.807 329.607 160.232 332.339 164.586C335.071 168.94 336.436 173.913 336.436 179.504C336.436 185.096 335.071 190.069 332.339 194.423C329.607 198.777 325.723 202.202 320.686 204.699C315.649 207.196 309.673 208.445 302.758 208.445C295.843 208.445 289.867 207.196 284.831 204.699C279.794 202.202 275.91 198.777 273.178 194.423C270.446 190.069 269.08 185.096 269.08 179.504C269.08 173.913 270.446 168.94 273.178 164.586C275.91 160.232 279.794 156.807 284.831 154.31C289.867 151.813 295.843 150.564 302.758 150.564ZM302.758 158.247C297.081 158.247 292.29 159.197 288.384 161.097C284.479 162.975 281.523 165.525 279.516 168.748C277.51 171.949 276.507 175.535 276.507 179.504C276.507 183.474 277.51 187.07 279.516 190.293C281.523 193.494 284.479 196.045 288.384 197.944C292.29 199.822 297.081 200.761 302.758 200.761C308.435 200.761 313.227 199.822 317.132 197.944C321.038 196.045 323.994 193.494 326 190.293C328.006 187.07 329.009 183.474 329.009 179.504C329.009 175.535 328.006 171.949 326 168.748C323.994 165.525 321.038 162.975 317.132 161.097C313.227 159.197 308.435 158.247 302.758 158.247ZM335.54 137.215H269.976V115.061C269.976 109.939 270.851 105.735 272.602 102.448C274.33 99.1612 276.71 96.7282 279.741 95.1489C282.771 93.5695 286.218 92.7799 290.081 92.7799C293.944 92.7799 297.369 93.5695 300.357 95.1489C303.345 96.7282 305.693 99.1506 307.4 102.416C309.086 105.681 309.929 109.854 309.929 114.933V132.861H302.758V115.189C302.758 111.689 302.246 108.872 301.222 106.738C300.197 104.582 298.746 103.024 296.868 102.064C294.968 101.082 292.706 100.591 290.081 100.591C287.456 100.591 285.161 101.082 283.198 102.064C281.234 103.046 279.719 104.614 278.652 106.77C277.564 108.925 277.019 111.775 277.019 115.317V129.275H335.54V137.215ZM306.088 106.354L335.54 90.2188V99.4387L306.088 115.317V106.354ZM277.019 83.1358H269.976V33.9631H277.019V54.5797H335.54V62.5191H277.019V83.1358Z" fill="white"/>
<path d="M136.607 295.397V292.897H134.107V295.397H136.607ZM160.64 295.397H163.14V292.897H160.64V295.397ZM160.64 373.23V375.73H163.14V373.23H160.64ZM157.351 373.23L155.767 375.164L156.458 375.73H157.351V373.23ZM124.295 348.775L122.877 350.834L122.879 350.835L124.295 348.775ZM67.5439 332.332L69.2318 334.176L69.2402 334.168L69.2486 334.16L67.5439 332.332ZM77.2414 371.712V374.212H83.0682L79.0532 369.989L77.2414 371.712ZM52.5339 371.712L50.4366 373.073L51.1758 374.212H52.5339V371.712ZM50.2571 311.419L52.1169 313.089L52.1238 313.082L50.2571 311.419ZM136.607 333.344L135.058 335.306L139.107 338.503V333.344H136.607ZM136.607 297.897H160.64V292.897H136.607V297.897ZM158.14 295.397V373.23H163.14V295.397H158.14ZM160.64 370.73H157.351V375.73H160.64V370.73ZM158.936 371.296C150.15 364.098 139.071 355.903 125.712 346.715L122.879 350.835C136.167 359.974 147.125 368.083 155.767 375.164L158.936 371.296ZM125.714 346.717C112.35 337.508 102.66 331.551 96.7808 329.023L94.8056 333.616C100.17 335.923 109.481 341.603 122.877 350.834L125.714 346.717ZM96.7808 329.023C90.8959 326.493 85.1074 325.194 79.4339 325.194V330.194C84.3293 330.194 89.447 331.312 94.8056 333.616L96.7808 329.023ZM79.4339 325.194C74.203 325.194 69.6273 326.972 65.8392 330.503L69.2486 334.16C72.0942 331.508 75.4451 330.194 79.4339 330.194V325.194ZM65.856 330.487C62.0444 333.976 60.0687 338.318 60.0687 343.378H65.0687C65.0687 339.781 66.4097 336.759 69.2318 334.176L65.856 330.487ZM60.0687 343.378C60.0687 352.928 65.4769 362.967 75.4297 373.435L79.0532 369.989C69.4423 359.881 65.0687 351.031 65.0687 343.378H60.0687ZM77.2414 369.212H52.5339V374.212H77.2414V369.212ZM54.6311 370.351C47.336 359.107 43.8185 348.584 43.8185 338.74H38.8185C38.8185 349.81 42.7778 361.268 50.4366 373.073L54.6311 370.351ZM43.8185 338.74C43.8185 327.587 46.6809 319.141 52.1169 313.089L48.3973 309.748C41.9151 316.964 38.8185 326.732 38.8185 338.74H43.8185ZM52.1238 313.082C57.5305 307.012 64.9825 303.884 74.796 303.884V298.884C63.809 298.884 54.9017 302.446 48.3903 309.756L52.1238 313.082ZM74.796 303.884C81.3321 303.884 89.6222 306.349 99.7678 311.595C109.878 316.822 121.637 324.709 135.058 335.306L138.156 331.381C124.593 320.672 112.558 312.579 102.064 307.153C91.6061 301.746 82.4828 298.884 74.796 298.884V303.884ZM139.107 333.344V295.397H134.107V333.344H139.107ZM57.4248 210.312L58.7861 212.409L58.7938 212.404L57.4248 210.312ZM146.136 269.087L147.518 271.171L147.525 271.165L146.136 269.087ZM57.2561 268.918L55.8468 270.983L55.8492 270.985L57.2561 268.918ZM131.547 229.201L132.428 226.861L132.42 226.858L131.547 229.201ZM71.5916 229.201L72.4826 231.537L72.4972 231.531L72.5117 231.525L71.5916 229.201ZM71.4229 250.198L70.4528 252.502L70.4649 252.507L71.4229 250.198ZM131.463 250.198L132.348 252.536L132.362 252.531L132.376 252.525L131.463 250.198ZM43.8185 239.489C43.8185 227.881 48.7366 218.933 58.7861 212.409L56.0635 208.215C44.6379 215.632 38.8185 226.136 38.8185 239.489H43.8185ZM58.7938 212.404C68.983 205.735 83.0348 202.271 101.19 202.271V197.271C82.4667 197.271 67.3417 200.834 56.0558 208.22L58.7938 212.404ZM101.19 202.271C120.111 202.271 134.531 205.635 144.714 212.086L147.389 207.862C136.097 200.709 120.61 197.271 101.19 197.271V202.271ZM144.714 212.086C154.732 218.433 159.658 227.364 159.658 239.151H164.658C164.658 225.641 158.846 215.12 147.389 207.862L144.714 212.086ZM159.658 239.151C159.658 251.132 154.736 260.332 144.747 267.009L147.525 271.165C158.899 263.563 164.658 252.806 164.658 239.151H159.658ZM144.754 267.004C134.634 273.715 120.398 277.212 101.78 277.212V282.212C120.941 282.212 136.275 278.626 147.518 271.17L144.754 267.004ZM101.78 277.212C82.9344 277.212 68.6587 273.657 58.6631 266.852L55.8492 270.985C66.9913 278.571 82.3984 282.212 101.78 282.212V277.212ZM58.6655 266.853C48.6902 260.045 43.8185 250.991 43.8185 239.489H38.8185C38.8185 252.721 44.5719 263.288 55.8468 270.983L58.6655 266.853ZM142.564 239.489C142.564 236.583 141.675 233.972 139.861 231.781C138.081 229.631 135.533 228.029 132.428 226.861L130.667 231.541C133.24 232.509 134.95 233.69 136.009 234.969C137.034 236.207 137.564 237.671 137.564 239.489H142.564ZM132.42 226.858C126.211 224.545 115.047 223.496 99.3349 223.496V228.496C115.104 228.496 125.416 229.584 130.675 231.543L132.42 226.858ZM99.3349 223.496C86.2183 223.496 76.5482 224.55 70.6715 226.876L72.5117 231.525C77.4287 229.579 86.2542 228.496 99.3349 228.496V223.496ZM70.7006 226.865C67.681 228.017 65.2072 229.636 63.4878 231.835C61.744 234.064 60.9119 236.716 60.9119 239.657H65.9119C65.9119 237.708 66.4432 236.172 67.4259 234.915C68.4331 233.628 70.049 232.465 72.4826 231.537L70.7006 226.865ZM60.9119 239.657C60.9119 242.545 61.7306 245.16 63.4243 247.389C65.0947 249.587 67.5017 251.259 70.4528 252.502L72.3931 247.894C70.0035 246.888 68.405 245.679 67.4051 244.364C66.4285 243.078 65.9119 241.548 65.9119 239.657H60.9119ZM70.4649 252.507C73.445 253.743 77.6816 254.595 83.0115 255.151C88.3845 255.711 95.0413 255.987 102.961 255.987V250.987C95.1396 250.987 88.6696 250.714 83.53 250.178C78.3472 249.638 74.6853 248.845 72.381 247.889L70.4649 252.507ZM102.961 255.987C116.21 255.987 126.104 254.9 132.348 252.536L130.578 247.86C125.242 249.88 116.134 250.987 102.961 250.987V255.987ZM132.376 252.525C135.514 251.295 138.078 249.622 139.863 247.4C141.679 245.139 142.564 242.462 142.564 239.489H137.564C137.564 241.406 137.017 242.959 135.965 244.269C134.883 245.616 133.147 246.852 130.55 247.87L132.376 252.525ZM136.607 104.82V102.32H134.107V104.82H136.607ZM160.64 104.82H163.14V102.32H160.64V104.82ZM160.64 182.653V185.153H163.14V182.653H160.64ZM157.351 182.653L155.767 184.586L156.458 185.153H157.351V182.653ZM124.295 158.198L122.877 160.257L122.879 160.258L124.295 158.198ZM67.5439 141.754L69.2318 143.599L69.2402 143.591L69.2486 143.583L67.5439 141.754ZM77.2414 181.135V183.635H83.0682L79.0532 179.412L77.2414 181.135ZM52.5339 181.135L50.4366 182.495L51.1758 183.635H52.5339V181.135ZM50.2571 120.842L52.1169 122.512L52.1238 122.504L50.2571 120.842ZM136.607 142.766L135.058 144.729L139.107 147.926V142.766H136.607ZM136.607 107.32H160.64V102.32H136.607V107.32ZM158.14 104.82L158.14 182.653H163.14L163.14 104.82H158.14ZM160.64 180.153H157.351V185.153H160.64V180.153ZM158.936 180.719C150.15 173.52 139.071 165.326 125.712 156.138L122.879 160.258C136.167 169.397 147.125 177.506 155.767 184.586L158.936 180.719ZM125.714 156.139C112.35 146.931 102.66 140.974 96.7808 138.446L94.8056 143.039C100.17 145.346 109.481 151.026 122.877 160.257L125.714 156.139ZM96.7808 138.446C90.8959 135.915 85.1074 134.617 79.4339 134.617V139.617C84.3293 139.617 89.447 140.735 94.8056 143.039L96.7808 138.446ZM79.4339 134.617C74.203 134.617 69.6273 136.395 65.8392 139.926L69.2486 143.583C72.0942 140.931 75.4451 139.617 79.4339 139.617V134.617ZM65.856 139.91C62.0444 143.399 60.0687 147.741 60.0687 152.801H65.0687C65.0687 149.204 66.4097 146.182 69.2318 143.599L65.856 139.91ZM60.0687 152.801C60.0687 162.351 65.4769 172.39 75.4297 182.857L79.0532 179.412C69.4423 169.304 65.0687 160.454 65.0687 152.801H60.0687ZM77.2414 178.635H52.5339V183.635H77.2414V178.635ZM54.6311 179.774C47.336 168.53 43.8185 158.007 43.8185 148.163H38.8185C38.8185 159.233 42.7778 170.691 50.4366 182.495L54.6311 179.774ZM43.8185 148.163C43.8185 137.01 46.6809 128.564 52.1169 122.512L48.3973 119.171C41.9151 126.387 38.8185 136.155 38.8185 148.163H43.8185ZM52.1238 122.504C57.5305 116.435 64.9825 113.307 74.796 113.307V108.307C63.809 108.307 54.9017 111.869 48.3903 119.179L52.1238 122.504ZM74.796 113.307C81.3321 113.307 89.6222 115.772 99.7678 121.017C109.878 126.245 121.637 134.132 135.058 144.729L138.156 140.804C124.593 130.095 112.558 122.002 102.064 116.576C91.6061 111.169 82.4828 108.307 74.796 108.307V113.307ZM139.107 142.766V104.82H134.107V142.766H139.107ZM109.876 61.6446V64.1446H112.278L112.374 61.7445L109.876 61.6446ZM89.1314 61.6446H86.6314V64.1446H89.1314V61.6446ZM84.9994 49.9233L83.1638 51.6204L83.1718 51.6292L83.18 51.6378L84.9994 49.9233ZM67.2066 83.7381V86.2381H71.2128L69.4523 82.6395L67.2066 83.7381ZM46.4624 83.7381L44.1731 84.7427L44.8294 86.2381H46.4624V83.7381ZM49.4138 29.6007L51.3906 31.1311L51.3983 31.1211L49.4138 29.6007ZM97.3954 36.5997L95.2055 37.8058L97.7778 42.4764L99.7231 37.5118L97.3954 36.5997ZM152.798 27.3239L154.729 25.7361L154.722 25.7276L152.798 27.3239ZM155.496 86.6895V89.1895H157.037L157.729 87.8132L155.496 86.6895ZM132.644 86.6895L130.598 85.2523L127.832 89.1895H132.644V86.6895ZM137.703 48.4897L139.621 46.8862L139.614 46.877L139.606 46.8679L137.703 48.4897ZM114.851 48.3211L116.665 50.0413L116.672 50.0336L116.68 50.0258L114.851 48.3211ZM109.876 59.1446H89.1314V64.1446H109.876V59.1446ZM91.6314 61.6446C91.6314 56.2628 90.1017 51.6926 86.8189 48.2088L83.18 51.6378C85.4065 54.0006 86.6314 57.2446 86.6314 61.6446H91.6314ZM86.8351 48.2261C83.64 44.7701 79.6999 42.954 75.1333 42.954V47.954C78.2123 47.954 80.8496 49.1174 83.1638 51.6204L86.8351 48.2261ZM75.1333 42.954C70.42 42.954 66.4612 44.8867 63.4196 48.5894L67.2833 51.7631C69.4137 49.1695 71.9762 47.954 75.1333 47.954V42.954ZM63.4196 48.5894C60.4005 52.2648 58.9724 56.8499 58.9724 62.1506H63.9724C63.9724 57.7819 65.1304 54.384 67.2833 51.7631L63.4196 48.5894ZM58.9724 62.1506C58.9724 69.2111 61.0225 76.786 64.9609 84.8367L69.4523 82.6395C65.7452 75.0617 63.9724 68.2449 63.9724 62.1506H58.9724ZM67.2066 81.2381H46.4624V86.2381H67.2066V81.2381ZM48.7516 82.7334C45.4847 75.2892 43.8185 66.6746 43.8185 56.838H38.8185C38.8185 67.2397 40.5815 76.5586 44.1731 84.7427L48.7516 82.7334ZM43.8185 56.838C43.8185 46.0537 46.415 37.5579 51.3906 31.1311L47.437 28.0703C41.6188 35.5854 38.8185 45.2478 38.8185 56.838H43.8185ZM51.3983 31.1211C56.285 24.7427 62.4779 21.6442 70.158 21.6442V16.6442C60.8605 16.6442 53.2239 20.5167 47.4293 28.0803L51.3983 31.1211ZM70.158 21.6442C80.8603 21.6442 89.1666 26.8403 95.2055 37.8058L99.5853 35.3937C92.8066 23.0851 82.9547 16.6442 70.158 16.6442V21.6442ZM99.7231 37.5118C102.277 30.993 105.871 26.2747 110.421 23.1698C114.97 20.0648 120.671 18.4398 127.668 18.4398V13.4398C119.88 13.4398 113.143 15.2581 107.602 19.0399C102.061 22.8215 97.9103 28.4332 95.0677 35.6877L99.7231 37.5118ZM127.668 18.4398C137.432 18.4398 145.084 21.9417 150.874 28.9201L154.722 25.7276C147.919 17.5273 138.817 13.4398 127.668 13.4398V18.4398ZM150.867 28.9116C156.641 35.9346 159.658 45.4923 159.658 57.8499H164.658C164.658 44.6848 161.435 33.8918 154.729 25.7361L150.867 28.9116ZM159.658 57.8499C159.658 67.881 157.519 77.1066 153.263 85.5658L157.729 87.8132C162.355 78.6201 164.658 68.6193 164.658 57.8499H159.658ZM155.496 84.1895H132.644V89.1895H155.496V84.1895ZM134.689 88.1266C141.108 78.9899 144.504 70.201 144.504 61.8133H139.504C139.504 68.8291 136.66 76.6244 130.598 85.2523L134.689 88.1266ZM144.504 61.8133C144.504 55.9077 142.942 50.8581 139.621 46.8862L135.785 50.0933C138.199 52.9799 139.504 56.8127 139.504 61.8133H144.504ZM139.606 46.8679C136.195 42.8669 131.726 40.8458 126.404 40.8458V45.8458C130.301 45.8458 133.365 47.2541 135.801 50.1116L139.606 46.8679ZM126.404 40.8458C121.113 40.8458 116.596 42.7828 113.022 46.6164L116.68 50.0258C119.29 47.2257 122.474 45.8458 126.404 45.8458V40.8458ZM113.037 46.6009C109.431 50.4034 107.62 55.4757 107.378 61.5447L112.374 61.7445C112.581 56.57 114.087 52.76 116.665 50.0413L113.037 46.6009Z" fill="white"/>
<path d="M76.2901 440.19C76.02 440.195 75.7506 440.161 75.49 440.09C75.28 440.03 75.1801 439.92 75.1801 439.77C75.1831 439.677 75.2143 439.587 75.2697 439.512C75.325 439.437 75.4019 439.38 75.49 439.35C75.8097 439.216 76.1461 439.125 76.49 439.08C77.2947 438.977 78.0556 438.656 78.69 438.15C78.9545 437.892 79.1597 437.579 79.2909 437.234C79.4222 436.889 79.4764 436.519 79.45 436.15V421.38C79.45 420.21 79.45 419.32 79.38 418.7C79.3577 418.254 79.2735 417.813 79.13 417.39C79.01 417.13 78.8601 416.99 78.6501 416.97C78.2815 416.891 77.9068 416.844 77.5301 416.83H74.1701C73.5492 416.833 72.9346 416.955 72.36 417.19C71.8048 417.397 71.3409 417.794 71.0501 418.31C70.933 418.5 70.8061 418.683 70.6701 418.86C70.5068 419.093 70.3152 419.304 70.1 419.49C69.9376 419.646 69.7247 419.738 69.5 419.75C69.4529 419.754 69.406 419.741 69.3676 419.713C69.3291 419.686 69.3017 419.646 69.2901 419.6C69.2483 419.492 69.2279 419.376 69.23 419.26C69.231 418.995 69.2963 418.734 69.4201 418.5C69.7304 417.854 69.991 417.185 70.2 416.5C70.3808 415.844 70.5145 415.175 70.6 414.5C70.6 414.07 70.74 413.81 70.88 413.74C70.988 413.67 71.1118 413.629 71.24 413.62C71.34 413.62 71.5 413.78 71.72 414.08C71.8942 414.322 72.0512 414.576 72.19 414.84C72.4417 415.147 72.7978 415.35 73.19 415.41C73.7173 415.537 74.2578 415.6 74.8001 415.6H88.1801C88.9064 415.612 89.6323 415.562 90.35 415.45C90.8447 415.366 91.328 415.225 91.7901 415.03C92.0571 414.9 92.3059 414.735 92.5301 414.54C92.6287 414.447 92.7451 414.375 92.8723 414.329C92.9995 414.283 93.1348 414.263 93.27 414.27C93.35 414.27 93.41 414.37 93.46 414.55C93.5111 414.743 93.5381 414.941 93.5401 415.14C93.5347 415.321 93.5146 415.502 93.48 415.68C93.48 415.9 93.41 416.08 93.39 416.21C93.31 416.657 93.2401 416.99 93.1801 417.21C93.1209 417.383 93.0741 417.56 93.0401 417.74C93.0246 417.98 93.0246 418.22 93.0401 418.46V418.92C93.0314 419.186 92.9808 419.45 92.89 419.7C92.79 419.99 92.64 420.13 92.44 420.13C92.24 420.13 92.12 419.99 92.02 419.71C91.8926 419.338 91.7923 418.957 91.72 418.57C91.6647 418.305 91.5542 418.056 91.3957 417.837C91.2371 417.618 91.0342 417.435 90.8001 417.3C89.9962 416.92 89.1063 416.758 88.22 416.83H84.38C83.9518 416.803 83.5234 416.879 83.13 417.05C82.9607 417.187 82.8249 417.361 82.7331 417.559C82.6412 417.756 82.5957 417.972 82.6 418.19C82.5025 419.187 82.4625 420.189 82.48 421.19V436.12C82.4551 436.492 82.5142 436.865 82.6526 437.211C82.7911 437.557 83.0055 437.868 83.2801 438.12C83.9199 438.616 84.6782 438.937 85.48 439.05C85.8239 439.095 86.1603 439.186 86.48 439.32C86.5682 439.35 86.645 439.407 86.7003 439.482C86.7557 439.557 86.787 439.647 86.7901 439.74C86.7901 439.89 86.69 440 86.48 440.06C86.2227 440.131 85.9567 440.164 85.69 440.16C85 440.16 84.44 440.16 83.99 440.1L82.72 440C82.32 440 81.82 440 81.24 440C80.66 440 80.05 440 79.59 440L78.14 440.1C77.56 440.17 77.0001 440.19 76.2901 440.19Z" fill="white"/>
<path d="M95.1 440.11C94.59 440.11 94.33 439.97 94.33 439.69C94.33 439.41 94.63 439.26 95.21 439.08C95.5873 438.958 95.9497 438.794 96.29 438.59C96.4663 438.477 96.6097 438.319 96.7062 438.133C96.8027 437.947 96.8488 437.739 96.84 437.53V418.53C96.8547 417.91 96.7389 417.293 96.5 416.72C96.3823 416.46 96.1967 416.236 95.9626 416.073C95.7286 415.909 95.4548 415.811 95.17 415.79C94.94 415.79 94.83 415.56 94.83 415.26C94.8222 415.161 94.8475 415.062 94.9017 414.979C94.956 414.896 95.0362 414.833 95.13 414.8C95.49 414.68 95.91 414.54 96.41 414.39L97.95 413.87C98.48 413.68 98.95 413.5 99.35 413.32C99.4207 413.28 99.4991 413.256 99.58 413.25C99.6148 413.248 99.6497 413.253 99.6824 413.265C99.7151 413.277 99.745 413.296 99.77 413.32C99.8208 413.37 99.8495 413.439 99.85 413.51C99.8368 413.729 99.8033 413.947 99.75 414.16C99.6639 414.636 99.6071 415.117 99.58 415.6C99.58 416.29 99.5 417.31 99.5 418.68V425.29C99.4912 425.585 99.5114 425.879 99.5601 426.17C99.6055 426.355 99.6761 426.534 99.77 426.7C100.252 426.341 100.753 426.007 101.27 425.7C101.903 425.303 102.573 424.968 103.27 424.7C103.994 424.421 104.764 424.279 105.54 424.28C106.135 424.27 106.724 424.398 107.262 424.653C107.799 424.908 108.271 425.283 108.64 425.75C109.488 426.793 109.928 428.107 109.88 429.45V437.45C109.863 437.663 109.898 437.876 109.984 438.072C110.069 438.267 110.202 438.438 110.37 438.57C110.695 438.81 111.056 438.995 111.44 439.12C111.662 439.178 111.877 439.262 112.08 439.37C112.148 439.403 112.205 439.454 112.246 439.518C112.286 439.581 112.309 439.655 112.31 439.73C112.31 440.01 112.06 440.15 111.55 440.15C111.162 440.157 110.775 440.137 110.39 440.09L109.63 440C109.28 439.98 108.93 439.98 108.58 440C108.247 439.982 107.913 439.982 107.58 440L106.8 440.09C106.415 440.137 106.028 440.157 105.64 440.15C105.13 440.15 104.88 440.01 104.88 439.73C104.875 439.653 104.894 439.577 104.936 439.512C104.977 439.447 105.038 439.398 105.11 439.37L105.76 439.12C106.124 438.999 106.463 438.813 106.76 438.57C106.92 438.434 107.046 438.261 107.126 438.066C107.206 437.871 107.238 437.66 107.22 437.45V429.7C107.22 429.08 107.028 428.476 106.67 427.97C106.317 427.465 105.856 427.045 105.32 426.74C104.825 426.442 104.258 426.283 103.68 426.28C103.117 426.29 102.558 426.36 102.01 426.49C101.476 426.587 100.97 426.802 100.53 427.12C100.176 427.378 99.894 427.722 99.71 428.12C99.5431 428.674 99.4721 429.252 99.5 429.83V437.55C99.4929 437.752 99.5326 437.952 99.6158 438.136C99.6991 438.32 99.8237 438.482 99.98 438.61C100.287 438.822 100.624 438.987 100.98 439.1C101.197 439.156 101.405 439.24 101.6 439.35C101.664 439.386 101.717 439.438 101.754 439.501C101.791 439.565 101.81 439.637 101.81 439.71C101.81 439.99 101.56 440.13 101.05 440.13C100.669 440.138 100.288 440.118 99.91 440.07L99.1899 439.98C98.8569 439.961 98.523 439.961 98.1899 439.98C97.8568 439.963 97.5231 439.963 97.1899 439.98L96.35 440.07C95.9347 440.112 95.5171 440.125 95.1 440.11Z" fill="white"/>
<path d="M121.28 440.57C119.991 440.605 118.721 440.257 117.63 439.57C116.558 438.853 115.715 437.843 115.2 436.66C114.587 435.293 114.287 433.807 114.32 432.31C114.308 430.941 114.639 429.592 115.284 428.385C115.929 427.177 116.866 426.151 118.01 425.4C119.087 424.67 120.359 424.283 121.66 424.29C122.596 424.276 123.521 424.485 124.36 424.9C125.132 425.285 125.778 425.884 126.221 426.624C126.664 427.365 126.886 428.217 126.86 429.08C126.86 429.87 126.48 430.26 125.72 430.26H117.72C117.582 430.246 117.442 430.263 117.312 430.312C117.182 430.361 117.065 430.439 116.97 430.54C116.806 430.893 116.737 431.282 116.77 431.67C116.755 432.825 117.027 433.965 117.56 434.99C118.062 435.953 118.794 436.777 119.69 437.39C120.555 437.975 121.576 438.285 122.62 438.28C123.334 438.288 124.041 438.138 124.69 437.84C125.325 437.54 125.888 437.107 126.34 436.57C126.407 436.478 126.484 436.395 126.57 436.32C126.624 436.278 126.692 436.257 126.76 436.26C126.96 436.26 127.06 436.39 127.06 436.64C127.021 437.235 126.781 437.799 126.38 438.24C125.993 438.727 125.53 439.149 125.01 439.49C124.473 439.853 123.882 440.129 123.26 440.31C122.616 440.494 121.949 440.581 121.28 440.57ZM117.78 429.05H121.24C121.85 429.05 122.37 429.05 122.8 429.05C123.22 429.031 123.638 428.981 124.05 428.9C124.111 428.889 124.167 428.861 124.212 428.818C124.256 428.775 124.287 428.72 124.3 428.66C124.346 428.467 124.366 428.268 124.36 428.07C124.353 427.7 124.259 427.337 124.085 427.01C123.911 426.684 123.663 426.403 123.36 426.19C122.708 425.67 121.894 425.394 121.06 425.41C120.441 425.419 119.837 425.595 119.31 425.92C118.751 426.245 118.262 426.676 117.87 427.19C117.52 427.621 117.319 428.155 117.3 428.71C117.33 428.93 117.48 429.05 117.78 429.05Z" fill="white"/>
<path d="M159.81 440.79C159.14 440.796 158.47 440.739 157.81 440.62C157.195 440.517 156.603 440.307 156.06 440C155.499 439.667 154.999 439.241 154.58 438.74L152.83 436.56C152.27 435.86 151.68 435.06 151.06 434.14C150.44 433.22 149.69 432.07 148.8 430.65C148.41 430.01 147.844 429.497 147.17 429.17C146.645 428.9 146.087 428.702 145.51 428.58C145.066 428.475 144.615 428.404 144.16 428.37C144.077 428.349 143.99 428.356 143.912 428.391C143.834 428.425 143.77 428.485 143.73 428.56C143.632 428.734 143.584 428.931 143.59 429.13V435.82C143.571 436.561 143.769 437.291 144.16 437.92C144.391 438.245 144.689 438.517 145.034 438.717C145.379 438.917 145.763 439.041 146.16 439.08C146.487 439.129 146.806 439.22 147.11 439.35C147.196 439.382 147.271 439.439 147.324 439.514C147.378 439.589 147.408 439.678 147.41 439.77C147.41 439.92 147.31 440.03 147.11 440.09C146.849 440.161 146.58 440.195 146.31 440.19C145.782 440.197 145.254 440.17 144.73 440.11L143.73 439.98C143.345 439.935 142.958 439.915 142.57 439.92C141.93 439.92 141.37 439.92 140.88 439.98C140.39 440.04 139.88 440.06 139.39 440.11C138.805 440.166 138.218 440.193 137.63 440.19C137.36 440.195 137.091 440.161 136.83 440.09C136.63 440.03 136.53 439.92 136.53 439.77C136.53 439.46 136.94 439.24 137.78 439.08C138.55 438.991 139.281 438.69 139.89 438.21C140.131 437.94 140.315 437.623 140.428 437.279C140.542 436.935 140.583 436.571 140.55 436.21V420C140.567 419.268 140.523 418.535 140.42 417.81C140.393 417.61 140.325 417.418 140.22 417.246C140.115 417.074 139.975 416.926 139.81 416.81C139.323 416.56 138.787 416.417 138.24 416.39C137.889 416.377 137.547 416.281 137.24 416.11C137.151 416.064 137.076 415.995 137.022 415.911C136.967 415.827 136.936 415.73 136.93 415.63C136.93 415.48 137.03 415.37 137.24 415.31C137.496 415.234 137.763 415.2 138.03 415.21H139.57H140.57H141.79C142.221 415.212 142.651 415.192 143.08 415.15C143.46 415.15 143.88 415.08 144.35 415.06C144.82 415.04 145.42 415.06 146.16 415.06C148.39 414.914 150.611 415.459 152.52 416.62C153.248 417.151 153.831 417.858 154.214 418.674C154.596 419.491 154.767 420.39 154.71 421.29C154.745 422.333 154.507 423.367 154.02 424.29C153.591 425.085 153.01 425.788 152.31 426.36C151.666 426.892 150.965 427.352 150.22 427.73C150.2 427.731 150.18 427.736 150.162 427.746C150.144 427.755 150.128 427.769 150.115 427.785C150.103 427.801 150.094 427.82 150.09 427.84C150.086 427.86 150.086 427.88 150.09 427.9C150.114 428.013 150.158 428.122 150.22 428.22C151.01 429.41 151.76 430.54 152.48 431.6C153.22 432.68 154.014 433.721 154.86 434.72C155.821 435.832 156.85 436.884 157.94 437.87C158.496 438.403 159.188 438.773 159.94 438.94C160.72 439.071 161.509 439.135 162.3 439.13C162.68 439.13 162.87 439.27 162.87 439.54C162.872 439.724 162.819 439.904 162.717 440.057C162.615 440.211 162.47 440.33 162.3 440.4C161.895 440.599 161.458 440.727 161.01 440.78C160.611 440.807 160.21 440.81 159.81 440.79ZM145.6 427.49C146.345 427.502 147.085 427.365 147.777 427.088C148.469 426.811 149.098 426.399 149.629 425.876C150.159 425.352 150.58 424.729 150.867 424.041C151.154 423.353 151.301 422.615 151.3 421.87C151.308 420.906 151.173 419.945 150.9 419.02C150.632 418.16 150.065 417.426 149.3 416.95C148.201 416.358 146.956 416.087 145.71 416.17C145.397 416.126 145.079 416.177 144.795 416.316C144.512 416.455 144.277 416.676 144.12 416.95C143.795 417.83 143.639 418.763 143.66 419.7C143.66 420.34 143.66 421.19 143.6 422.27C143.54 423.35 143.6 424.64 143.6 426.16C143.6 426.827 143.78 427.207 144.14 427.3C144.613 427.445 145.106 427.509 145.6 427.49Z" fill="white"/>
<path d="M170.79 440.57C169.501 440.604 168.231 440.256 167.14 439.57C166.068 438.853 165.225 437.843 164.71 436.66C164.106 435.291 163.809 433.806 163.84 432.31C163.824 430.913 164.168 429.535 164.84 428.31C165.487 427.142 166.407 426.147 167.52 425.41C168.598 424.682 169.87 424.295 171.17 424.3C172.106 424.286 173.031 424.495 173.87 424.91C174.642 425.297 175.288 425.895 175.732 426.635C176.177 427.376 176.401 428.227 176.38 429.09C176.38 429.88 176 430.27 175.24 430.27H167.24C167.103 430.256 166.965 430.274 166.837 430.322C166.708 430.371 166.593 430.449 166.5 430.55C166.327 430.9 166.254 431.291 166.29 431.68C166.279 432.836 166.553 433.976 167.09 435C167.589 435.965 168.321 436.79 169.22 437.4C170.081 437.985 171.099 438.295 172.14 438.29C172.854 438.298 173.561 438.148 174.21 437.85C174.847 437.548 175.412 437.116 175.87 436.58C175.934 436.489 176.008 436.405 176.09 436.33C176.145 436.29 176.212 436.269 176.28 436.27C176.49 436.27 176.59 436.4 176.59 436.65C176.546 437.246 176.303 437.809 175.9 438.25C175.516 438.737 175.057 439.159 174.54 439.5C174.001 439.859 173.411 440.135 172.79 440.32C172.139 440.501 171.465 440.585 170.79 440.57ZM167.29 429.05H170.75C171.36 429.05 171.88 429.05 172.31 429.05C172.733 429.031 173.154 428.981 173.57 428.9C173.629 428.888 173.683 428.858 173.726 428.816C173.768 428.773 173.798 428.719 173.81 428.66C173.856 428.467 173.876 428.268 173.87 428.07C173.866 427.7 173.772 427.336 173.598 427.009C173.424 426.681 173.175 426.401 172.87 426.19C172.219 425.668 171.404 425.392 170.57 425.41C169.952 425.421 169.348 425.598 168.82 425.92C168.261 426.245 167.772 426.676 167.38 427.19C167.03 427.621 166.829 428.155 166.81 428.71C166.84 428.93 167 429.05 167.29 429.05Z" fill="white"/>
<path d="M184.7 440.53C184.162 440.56 183.623 440.473 183.121 440.277C182.619 440.08 182.165 439.778 181.79 439.39C181.044 438.429 180.687 437.222 180.79 436.01V427.19C180.795 427.103 180.777 427.015 180.736 426.938C180.696 426.86 180.635 426.795 180.56 426.75C180.239 426.639 179.899 426.594 179.56 426.62H179.33C179.21 426.62 179.1 426.54 179.01 426.37C178.922 426.215 178.877 426.039 178.88 425.86C178.892 425.774 178.93 425.693 178.99 425.63L179.14 425.44C179.65 425.09 180.14 424.73 180.53 424.38C180.92 424.03 181.33 423.67 181.67 423.38C181.971 423.086 182.255 422.776 182.52 422.45L182.85 422.13C182.891 422.087 182.941 422.053 182.996 422.031C183.051 422.008 183.111 421.998 183.17 422C183.294 421.997 183.416 422.021 183.53 422.07C183.65 422.12 183.69 422.24 183.66 422.41L183.47 424.12C183.447 424.223 183.452 424.331 183.485 424.432C183.519 424.532 183.579 424.621 183.66 424.69C183.882 424.814 184.136 424.869 184.39 424.85H188.72C188.82 424.85 188.91 424.93 188.99 425.09C189.066 425.277 189.103 425.478 189.1 425.68C189.098 425.908 189.061 426.134 188.99 426.35C188.91 426.56 188.82 426.67 188.72 426.67H184.96C184.541 426.638 184.119 426.689 183.72 426.82C183.53 426.92 183.44 427.23 183.44 427.73V435.22C183.391 436.065 183.616 436.903 184.08 437.61C184.293 437.901 184.576 438.134 184.903 438.288C185.23 438.442 185.59 438.511 185.95 438.49C186.522 438.506 187.093 438.449 187.65 438.32C188.046 438.208 188.421 438.033 188.76 437.8C188.779 437.779 188.802 437.762 188.828 437.75C188.854 437.738 188.882 437.731 188.91 437.73C188.959 437.731 189.006 437.748 189.044 437.779C189.082 437.81 189.109 437.852 189.12 437.9C189.159 438.016 189.176 438.138 189.17 438.26C189.17 438.39 188.97 438.64 188.55 439.02C188.057 439.45 187.505 439.807 186.91 440.08C186.219 440.401 185.462 440.555 184.7 440.53Z" fill="white"/>
<path d="M203.36 440.72C203.18 440.72 203.09 440.62 203.09 440.41C203.099 440.035 203.132 439.661 203.19 439.29C203.244 438.882 203.274 438.471 203.28 438.06V437.83C202.418 438.701 201.4 439.403 200.28 439.9C199.237 440.328 198.118 440.543 196.99 440.53C196.225 440.542 195.469 440.363 194.79 440.01C194.131 439.673 193.588 439.147 193.23 438.5C192.828 437.733 192.631 436.875 192.66 436.01V428.29C192.683 427.817 192.549 427.35 192.28 426.96C191.946 426.571 191.509 426.283 191.02 426.13C190.9 426.079 190.786 426.015 190.68 425.94C190.625 425.886 190.583 425.82 190.557 425.747C190.531 425.675 190.522 425.597 190.53 425.52C190.519 425.435 190.529 425.349 190.559 425.269C190.588 425.189 190.637 425.117 190.7 425.06C190.824 424.988 190.959 424.937 191.1 424.91C191.77 424.881 192.438 424.811 193.1 424.7C193.56 424.61 194.15 424.48 194.86 424.3H195.03H195.17C195.45 424.3 195.57 424.48 195.55 424.84C195.47 425.42 195.41 425.91 195.38 426.3C195.35 426.69 195.32 427.18 195.32 427.76V435.17C195.316 435.763 195.472 436.347 195.77 436.86C196.07 437.37 196.48 437.807 196.97 438.14C197.423 438.454 197.959 438.625 198.51 438.63C199.089 438.634 199.667 438.597 200.24 438.52C200.772 438.425 201.273 438.202 201.7 437.87C202.087 437.571 202.445 437.236 202.77 436.87C203.221 436.359 203.451 435.69 203.41 435.01V428.01C203.427 427.788 203.394 427.564 203.312 427.356C203.231 427.148 203.104 426.962 202.94 426.81C202.627 426.545 202.258 426.357 201.86 426.26C201.534 426.172 201.198 426.121 200.86 426.11C200.661 426.116 200.464 426.068 200.29 425.97C200.21 425.913 200.146 425.836 200.105 425.746C200.065 425.657 200.049 425.558 200.06 425.46C200.049 425.367 200.066 425.272 200.111 425.19C200.156 425.107 200.226 425.041 200.31 425C200.484 424.925 200.671 424.888 200.86 424.89L202.81 424.8C203.284 424.765 203.755 424.698 204.22 424.6C204.64 424.52 205.08 424.41 205.53 424.28C205.593 424.272 205.657 424.272 205.72 424.28C205.783 424.272 205.847 424.272 205.91 424.28C206.24 424.28 206.41 424.42 206.41 424.69C206.41 424.69 206.41 424.76 206.41 424.83L206.35 425.04C206.298 425.25 206.265 425.464 206.25 425.68C206.25 426.04 206.18 426.4 206.14 426.78C206.1 427.16 206.08 427.46 206.08 427.66V436.44C206.05 436.936 206.121 437.433 206.29 437.9C206.43 438.19 206.59 438.34 206.77 438.34C206.95 438.34 207.27 438.34 207.66 438.28C208.05 438.22 208.34 438.22 208.52 438.22C208.65 438.223 208.779 438.251 208.9 438.3C209.02 438.3 209.09 438.49 209.09 438.72C209.098 438.795 209.088 438.87 209.06 438.94C209.032 439.01 208.987 439.071 208.93 439.12C208.812 439.184 208.683 439.228 208.55 439.25C207.686 439.353 206.835 439.544 206.01 439.82C205.3 440.07 204.66 440.31 204.11 440.54C203.994 440.577 203.881 440.621 203.77 440.67C203.638 440.713 203.499 440.73 203.36 440.72Z" fill="white"/>
<path d="M211.34 440.11C211.145 440.124 210.949 440.09 210.77 440.01C210.709 439.983 210.658 439.938 210.624 439.88C210.59 439.823 210.574 439.756 210.58 439.69C210.57 439.609 210.586 439.526 210.625 439.454C210.665 439.383 210.726 439.325 210.8 439.29C210.96 439.23 211.17 439.16 211.45 439.08C211.853 438.997 212.226 438.807 212.53 438.53C212.648 438.414 212.741 438.276 212.803 438.123C212.865 437.969 212.895 437.805 212.89 437.64V429.47C212.902 428.86 212.801 428.253 212.59 427.68C212.483 427.426 212.311 427.205 212.091 427.039C211.872 426.872 211.613 426.766 211.34 426.73C211.229 426.704 211.132 426.636 211.07 426.54C210.999 426.456 210.961 426.35 210.96 426.24C210.948 426.135 210.977 426.029 211.04 425.943C211.103 425.858 211.196 425.8 211.3 425.78C212.018 425.554 212.712 425.255 213.37 424.89C214.09 424.5 214.66 424.18 215.06 423.89C215.174 423.811 215.295 423.74 215.42 423.68C215.486 423.649 215.557 423.632 215.63 423.63C215.76 423.63 215.82 423.72 215.82 423.89C215.82 424.06 215.82 424.16 215.82 424.46C215.82 424.76 215.82 425.12 215.82 425.53C215.82 425.94 215.82 426.34 215.82 426.74C215.82 426.79 215.82 426.82 215.89 426.82C216.286 426.325 216.739 425.879 217.24 425.49C217.707 425.124 218.217 424.819 218.76 424.58C219.23 424.36 219.741 424.24 220.26 424.23C220.722 424.212 221.178 424.334 221.57 424.58C221.726 424.666 221.857 424.791 221.948 424.944C222.04 425.097 222.089 425.272 222.09 425.45C222.08 425.742 222.009 426.028 221.88 426.29C221.744 426.583 221.558 426.851 221.33 427.08C221.24 427.186 221.128 427.272 221.002 427.332C220.876 427.392 220.739 427.426 220.6 427.43C220.432 427.423 220.267 427.389 220.11 427.33C219.913 427.264 219.722 427.181 219.54 427.08L218.93 426.86C218.736 426.781 218.529 426.74 218.32 426.74C217.678 426.756 217.059 426.985 216.56 427.39C216.23 427.718 215.98 428.118 215.831 428.559C215.681 428.999 215.637 429.469 215.7 429.93V437.61C215.711 437.781 215.765 437.945 215.858 438.089C215.951 438.233 216.079 438.35 216.23 438.43C216.702 438.691 217.202 438.899 217.72 439.05C217.939 439.112 218.152 439.189 218.36 439.28C218.431 439.315 218.49 439.369 218.531 439.436C218.572 439.504 218.592 439.581 218.59 439.66C218.59 439.94 218.34 440.08 217.83 440.08C217.252 440.093 216.673 440.06 216.1 439.98C215.58 439.912 215.055 439.882 214.53 439.89C214.18 439.872 213.83 439.872 213.48 439.89L212.64 439.98C212.21 440.054 211.776 440.097 211.34 440.11Z" fill="white"/>
<path d="M223.84 440.11C223.651 440.119 223.463 440.085 223.29 440.01C223.225 439.986 223.17 439.943 223.132 439.885C223.094 439.827 223.076 439.759 223.08 439.69C223.071 439.608 223.088 439.524 223.13 439.452C223.171 439.38 223.234 439.323 223.31 439.29C223.46 439.23 223.67 439.16 223.95 439.08C224.329 438.979 224.698 438.842 225.05 438.67C225.231 438.578 225.379 438.433 225.476 438.254C225.572 438.076 225.612 437.872 225.59 437.67V429.5C225.602 428.91 225.531 428.321 225.38 427.75C225.288 427.491 225.128 427.261 224.917 427.085C224.706 426.909 224.452 426.794 224.18 426.75C224.083 426.705 223.992 426.648 223.91 426.58C223.87 426.538 223.839 426.487 223.821 426.432C223.802 426.377 223.795 426.318 223.8 426.26C223.8 425.98 223.91 425.83 224.14 425.8C224.899 425.628 225.63 425.349 226.31 424.97C226.874 424.635 227.418 424.267 227.94 423.87L228.15 423.73C228.213 423.692 228.287 423.675 228.36 423.68C228.386 423.679 228.412 423.686 228.434 423.698C228.457 423.71 228.476 423.728 228.49 423.75C228.53 423.805 228.552 423.872 228.55 423.94C228.55 424.12 228.52 424.48 228.46 425.02C228.399 425.468 228.366 425.918 228.36 426.37C228.354 426.467 228.354 426.563 228.36 426.66C228.36 426.75 228.36 426.81 228.42 426.83C229.242 426.033 230.201 425.389 231.25 424.93C232.287 424.491 233.404 424.269 234.53 424.28C235.127 424.273 235.717 424.407 236.252 424.671C236.787 424.935 237.253 425.322 237.61 425.8C238.442 426.877 238.873 428.21 238.83 429.57V437.66C238.807 437.861 238.845 438.064 238.94 438.242C239.035 438.421 239.181 438.566 239.36 438.66C239.718 438.826 240.085 438.969 240.46 439.09L241.05 439.34C241.138 439.375 241.212 439.436 241.264 439.514C241.316 439.593 241.343 439.686 241.34 439.78C241.34 439.93 241.25 440.02 241.07 440.06C240.909 440.098 240.745 440.118 240.58 440.12C240.186 440.126 239.792 440.106 239.4 440.06L238.6 439.97C238.247 439.951 237.893 439.951 237.54 439.97C237.184 439.952 236.826 439.952 236.47 439.97L235.62 440.06C235.222 440.106 234.821 440.126 234.42 440.12C234.259 440.116 234.098 440.096 233.94 440.06C233.76 440.06 233.66 439.93 233.66 439.78C233.658 439.687 233.684 439.596 233.733 439.518C233.783 439.439 233.855 439.378 233.94 439.34L234.53 439.09C234.908 438.968 235.278 438.824 235.64 438.66C235.819 438.566 235.966 438.421 236.06 438.242C236.155 438.064 236.193 437.861 236.17 437.66V429.66C236.198 429.186 236.13 428.712 235.971 428.265C235.811 427.818 235.562 427.408 235.24 427.06C234.912 426.736 234.523 426.481 234.096 426.31C233.668 426.138 233.211 426.053 232.75 426.06C231.928 426.041 231.111 426.19 230.35 426.5C229.696 426.773 229.084 427.137 228.53 427.58C228.421 427.692 228.342 427.829 228.3 427.98C228.253 428.132 228.23 428.291 228.23 428.45V437.61C228.207 437.811 228.245 438.014 228.34 438.192C228.435 438.371 228.581 438.516 228.76 438.61C229.113 438.782 229.481 438.919 229.86 439.02C230.44 439.18 230.73 439.38 230.73 439.63C230.736 439.696 230.72 439.763 230.686 439.82C230.652 439.878 230.601 439.923 230.54 439.95C230.361 440.03 230.165 440.064 229.97 440.05C229.573 440.056 229.175 440.036 228.78 439.99L228 440C227.647 439.981 227.293 439.981 226.94 440C226.59 439.982 226.24 439.982 225.89 440L225.06 440.09C224.654 440.123 224.247 440.129 223.84 440.11Z" fill="white"/>
<path d="M258.72 440.53C257.374 440.547 256.047 440.201 254.88 439.53C253.75 438.882 252.814 437.943 252.17 436.81C251.49 435.614 251.144 434.256 251.17 432.88C251.172 431.809 251.387 430.748 251.8 429.76C252.223 428.742 252.818 427.805 253.56 426.99C254.312 426.161 255.215 425.482 256.22 424.99C257.363 424.452 258.619 424.2 259.881 424.258C261.143 424.315 262.371 424.68 263.46 425.32C264.614 426.002 265.58 426.961 266.27 428.11C266.949 429.252 267.295 430.561 267.27 431.89C267.268 433.342 266.925 434.774 266.27 436.07C265.631 437.387 264.637 438.498 263.4 439.28C261.995 440.143 260.368 440.577 258.72 440.53ZM259.52 439.39C260.321 439.401 261.114 439.23 261.84 438.89C262.533 438.552 263.092 437.993 263.43 437.3C263.764 436.634 263.971 435.912 264.04 435.17C264.137 434.387 264.187 433.599 264.19 432.81C264.192 431.609 263.968 430.418 263.53 429.3C263.134 428.244 262.497 427.296 261.67 426.53C260.902 425.816 259.888 425.425 258.84 425.44C258.209 425.432 257.582 425.54 256.99 425.76C256.395 426.023 255.878 426.437 255.49 426.96C254.969 427.638 254.625 428.436 254.49 429.28C254.342 430.186 254.268 431.102 254.27 432.02C254.263 433.236 254.494 434.442 254.95 435.57C255.352 436.617 255.988 437.557 256.81 438.32C257.543 439.011 258.513 439.394 259.52 439.39Z" fill="white"/>
<path d="M270.31 440.11C270.115 440.122 269.919 440.088 269.74 440.01C269.681 439.981 269.631 439.935 269.597 439.878C269.564 439.821 269.547 439.756 269.55 439.69C269.543 439.603 269.563 439.515 269.608 439.44C269.653 439.365 269.72 439.305 269.8 439.27C270.002 439.184 270.214 439.12 270.43 439.08C270.889 439.013 271.321 438.823 271.68 438.53C271.817 438.379 271.921 438.202 271.986 438.009C272.051 437.817 272.077 437.613 272.06 437.41V426.7H271.19L270.08 426.64C269.955 426.574 269.846 426.482 269.76 426.37C269.642 426.264 269.568 426.118 269.55 425.96C269.55 425.91 269.55 425.86 269.67 425.82L269.82 425.73L271 425.12C271.33 424.94 271.68 424.77 272.06 424.59C272.006 422.719 272.284 420.854 272.88 419.08C273.318 417.773 274.038 416.578 274.99 415.58C275.761 414.782 276.691 414.155 277.72 413.74C278.579 413.393 279.494 413.206 280.42 413.19C281.509 413.113 282.598 413.334 283.57 413.83C283.867 413.991 284.116 414.227 284.291 414.515C284.467 414.803 284.563 415.133 284.57 415.47C284.585 415.676 284.559 415.882 284.493 416.078C284.428 416.273 284.325 416.454 284.19 416.61C284.072 416.732 283.931 416.828 283.774 416.894C283.618 416.959 283.45 416.992 283.28 416.99C283.043 416.987 282.816 416.89 282.65 416.72L281.99 416.11C281.617 415.758 281.208 415.447 280.77 415.18C280.155 414.858 279.463 414.709 278.77 414.75C278.19 414.747 277.619 414.887 277.106 415.157C276.593 415.428 276.155 415.82 275.83 416.3C274.953 417.737 274.548 419.411 274.67 421.09V424.44C274.662 424.497 274.669 424.556 274.692 424.609C274.715 424.662 274.753 424.707 274.8 424.74C274.888 424.791 274.988 424.818 275.09 424.82H279.84C279.963 424.816 280.083 424.855 280.18 424.93C280.227 424.965 280.265 425.01 280.291 425.062C280.317 425.114 280.33 425.172 280.33 425.23C280.327 425.421 280.311 425.611 280.28 425.8C280.246 425.988 280.185 426.17 280.1 426.34C280.03 426.54 279.91 426.64 279.76 426.64H275.39C275.185 426.621 274.979 426.667 274.8 426.77C274.755 426.818 274.72 426.875 274.698 426.936C274.675 426.998 274.666 427.064 274.67 427.13V437.43C274.653 437.643 274.688 437.856 274.774 438.052C274.859 438.247 274.992 438.418 275.16 438.55C275.778 438.879 276.461 439.067 277.16 439.1C277.74 439.18 278.03 439.38 278.03 439.71C278.036 439.777 278.02 439.843 277.986 439.9C277.952 439.958 277.901 440.003 277.84 440.03C277.661 440.11 277.465 440.144 277.27 440.13C276.602 440.136 275.934 440.102 275.27 440.03C274.652 439.968 274.031 439.938 273.41 439.94C273.054 439.922 272.696 439.922 272.34 439.94L271.47 440.03C271.085 440.08 270.698 440.106 270.31 440.11Z" fill="white"/>
<path d="M295.51 440.53C294.971 440.561 294.432 440.475 293.93 440.279C293.428 440.082 292.974 439.779 292.6 439.39C291.854 438.429 291.497 437.222 291.6 436.01V427.19C291.608 427.103 291.591 427.017 291.552 426.939C291.513 426.861 291.454 426.796 291.38 426.75C291.059 426.641 290.719 426.596 290.38 426.62H290.15C290.02 426.62 289.92 426.54 289.83 426.37C289.738 426.216 289.69 426.039 289.69 425.86C289.706 425.773 289.748 425.693 289.81 425.63C289.855 425.563 289.905 425.499 289.96 425.44C290.47 425.09 290.96 424.73 291.35 424.38C291.74 424.03 292.15 423.67 292.49 423.38C292.83 423.09 293.11 422.73 293.34 422.45L293.66 422.13C293.703 422.087 293.754 422.053 293.811 422.03C293.868 422.008 293.929 421.998 293.99 422C294.114 421.998 294.236 422.022 294.35 422.07C294.46 422.12 294.51 422.24 294.48 422.41L294.29 424.12C294.267 424.223 294.272 424.331 294.305 424.431C294.339 424.532 294.399 424.621 294.48 424.69C294.698 424.815 294.949 424.871 295.2 424.85H299.54C299.64 424.85 299.73 424.93 299.8 425.09C299.884 425.275 299.925 425.477 299.92 425.68C299.92 425.909 299.879 426.135 299.8 426.35C299.73 426.56 299.64 426.67 299.54 426.67H295.77C295.354 426.639 294.936 426.69 294.54 426.82C294.35 426.92 294.25 427.23 294.25 427.73V435.22C294.204 436.066 294.432 436.904 294.9 437.61C295.112 437.9 295.394 438.132 295.719 438.286C296.043 438.439 296.401 438.51 296.76 438.49C297.335 438.506 297.91 438.449 298.47 438.32C298.863 438.21 299.235 438.034 299.57 437.8C299.59 437.778 299.615 437.76 299.642 437.748C299.67 437.735 299.7 437.729 299.73 437.73C299.779 437.731 299.826 437.748 299.864 437.779C299.902 437.81 299.929 437.852 299.94 437.9C299.956 438.019 299.956 438.141 299.94 438.26C299.94 438.39 299.73 438.64 299.32 439.02C298.827 439.45 298.275 439.807 297.68 440.08C297.001 440.394 296.258 440.548 295.51 440.53Z" fill="white"/>
<path d="M301.74 440.11C301.23 440.11 300.98 439.97 300.98 439.69C300.98 439.41 301.27 439.26 301.85 439.08C302.227 438.958 302.59 438.794 302.93 438.59C303.107 438.477 303.252 438.32 303.35 438.134C303.449 437.948 303.497 437.74 303.49 437.53V418.53C303.502 417.909 303.382 417.292 303.14 416.72C303.023 416.459 302.838 416.235 302.604 416.071C302.369 415.907 302.095 415.81 301.81 415.79C301.59 415.79 301.47 415.56 301.47 415.26C301.463 415.16 301.489 415.06 301.546 414.977C301.602 414.893 301.684 414.831 301.78 414.8C302.13 414.68 302.55 414.54 303.05 414.39C303.55 414.24 304.05 414.06 304.59 413.87C305.13 413.68 305.59 413.5 305.99 413.32C306.061 413.28 306.139 413.256 306.22 413.25C306.255 413.248 306.29 413.253 306.322 413.265C306.355 413.277 306.385 413.296 306.41 413.32C306.461 413.37 306.49 413.439 306.49 413.51C306.482 413.73 306.448 413.948 306.39 414.16C306.304 414.636 306.247 415.117 306.22 415.6C306.22 416.29 306.15 417.31 306.15 418.68V425.29C306.128 425.583 306.128 425.877 306.15 426.17C306.195 426.355 306.266 426.534 306.36 426.7C306.77 426.39 307.27 426.06 307.86 425.7C308.493 425.303 309.163 424.968 309.86 424.7C310.588 424.42 311.361 424.278 312.14 424.28C312.735 424.273 313.323 424.401 313.86 424.656C314.398 424.911 314.87 425.285 315.24 425.75C316.084 426.794 316.521 428.109 316.47 429.45V437.45C316.453 437.663 316.488 437.876 316.574 438.072C316.659 438.267 316.792 438.438 316.96 438.57C317.285 438.81 317.646 438.995 318.03 439.12C318.253 439.176 318.468 439.26 318.67 439.37C318.739 439.401 318.798 439.452 318.839 439.516C318.879 439.58 318.901 439.654 318.9 439.73C318.9 440.01 318.65 440.15 318.14 440.15C317.752 440.157 317.365 440.137 316.98 440.09L316.22 440C315.887 439.982 315.553 439.982 315.22 440C314.887 439.983 314.553 439.983 314.22 440L313.44 440.09C313.055 440.137 312.668 440.157 312.28 440.15C311.78 440.15 311.52 440.01 311.52 439.73C311.515 439.653 311.534 439.577 311.576 439.512C311.617 439.447 311.678 439.398 311.75 439.37L312.4 439.12C312.764 438.999 313.103 438.813 313.4 438.57C313.56 438.434 313.686 438.261 313.766 438.066C313.846 437.871 313.878 437.66 313.86 437.45V429.7C313.865 429.08 313.673 428.474 313.31 427.97C312.957 427.465 312.496 427.045 311.96 426.74C311.468 426.443 310.905 426.284 310.33 426.28C309.764 426.29 309.201 426.36 308.65 426.49C308.116 426.589 307.611 426.804 307.17 427.12C306.819 427.381 306.538 427.725 306.35 428.12C306.188 428.675 306.12 429.253 306.15 429.83V437.55C306.139 437.751 306.175 437.952 306.257 438.137C306.339 438.321 306.463 438.483 306.62 438.61C306.927 438.822 307.264 438.987 307.62 439.1C307.838 439.152 308.047 439.236 308.24 439.35C308.304 439.386 308.357 439.438 308.394 439.501C308.431 439.565 308.45 439.637 308.45 439.71C308.45 439.99 308.2 440.13 307.69 440.13C307.309 440.137 306.928 440.117 306.55 440.07L305.83 439.98C305.497 439.961 305.163 439.961 304.83 439.98C304.497 439.963 304.163 439.963 303.83 439.98L302.99 440.07C302.575 440.112 302.157 440.125 301.74 440.11Z" fill="white"/>
<path d="M327.92 440.57C326.631 440.604 325.361 440.256 324.27 439.57C323.198 438.853 322.355 437.843 321.84 436.66C321.232 435.292 320.932 433.807 320.96 432.31C320.943 430.913 321.288 429.535 321.96 428.31C322.604 427.14 323.524 426.144 324.64 425.41C325.718 424.682 326.989 424.295 328.29 424.3C329.226 424.286 330.151 424.495 330.99 424.91C331.747 425.294 332.383 425.878 332.83 426.6C333.276 427.353 333.504 428.215 333.49 429.09C333.49 429.88 333.11 430.27 332.36 430.27H324.36C324.223 430.256 324.085 430.274 323.957 430.322C323.828 430.371 323.713 430.449 323.62 430.55C323.447 430.9 323.374 431.291 323.41 431.68C323.393 432.836 323.668 433.978 324.21 435C324.708 435.962 325.436 436.787 326.33 437.4C327.195 437.984 328.216 438.294 329.26 438.29C329.974 438.298 330.681 438.148 331.33 437.85C331.965 437.55 332.528 437.117 332.98 436.58C333.047 436.488 333.124 436.405 333.21 436.33C333.265 436.29 333.332 436.269 333.4 436.27C333.6 436.27 333.71 436.4 333.71 436.65C333.666 437.246 333.423 437.809 333.02 438.25C332.633 438.737 332.17 439.159 331.65 439.5C331.115 439.861 330.528 440.137 329.91 440.32C329.262 440.5 328.592 440.584 327.92 440.57ZM324.42 429.05H327.88C328.49 429.05 329.01 429.05 329.44 429.05C329.86 429.031 330.277 428.981 330.69 428.9C330.751 428.889 330.807 428.861 330.852 428.818C330.896 428.775 330.927 428.72 330.94 428.66C330.986 428.467 331.006 428.268 331 428.07C330.993 427.7 330.899 427.337 330.725 427.01C330.551 426.684 330.303 426.403 330 426.19C329.348 425.668 328.534 425.392 327.7 425.41C327.081 425.42 326.477 425.596 325.95 425.92C325.391 426.245 324.902 426.676 324.51 427.19C324.159 427.621 323.959 428.155 323.94 428.71C324 428.93 324.12 429.05 324.42 429.05Z" fill="white"/>
<path d="M69.9999 487.05C69.7399 486.93 69.6099 486.78 69.6099 486.61C69.6078 486.461 69.656 486.316 69.7468 486.198C69.8375 486.08 69.9655 485.996 70.1099 485.96L70.76 485.72C71.8787 485.536 72.9456 485.117 73.89 484.49C74.2663 484.19 74.5633 483.803 74.7551 483.362C74.9469 482.921 75.0275 482.44 74.9899 481.96V457.74C75.0203 457.112 74.9321 456.485 74.7299 455.89C74.5453 455.482 74.2078 455.162 73.79 455C73.1437 454.763 72.4728 454.598 71.79 454.51C70.65 454.3 70.0699 453.95 70.0699 453.51C70.0699 453.3 70.2099 453.16 70.4899 453.07C70.8479 452.971 71.2188 452.927 71.5899 452.94C72.5299 452.94 73.2799 452.94 73.8599 452.99C74.4399 453.04 74.9799 453.05 75.4999 453.07C76.0199 453.09 76.67 453.07 77.43 453.07C78.19 453.07 79.05 453.07 79.68 453.07C80.31 453.07 80.9499 453.07 81.6099 452.99C82.2699 452.91 83.07 452.94 84.01 452.94C84.3778 452.927 84.7454 452.971 85.0999 453.07C85.3799 453.16 85.52 453.3 85.52 453.51C85.5132 453.643 85.4706 453.772 85.3967 453.883C85.3228 453.994 85.2202 454.083 85.0999 454.14C84.6944 454.355 84.2545 454.497 83.8 454.56C82.6819 454.757 81.5816 455.045 80.51 455.42C80.096 455.559 79.7389 455.83 79.4934 456.191C79.2478 456.552 79.1272 456.984 79.15 457.42V482C79.0825 482.863 79.3432 483.72 79.88 484.4C80.37 484.92 81.47 485.19 83.17 485.19H89.65C90.4951 485.206 91.3349 485.053 92.1199 484.74C92.6999 484.527 93.2405 484.22 93.7199 483.83C94.2951 483.364 94.8122 482.83 95.26 482.24C95.704 481.565 96.0952 480.856 96.43 480.12C96.5545 479.797 96.7015 479.483 96.8699 479.18C97.0999 478.77 97.3399 478.56 97.5799 478.56C97.6806 478.557 97.7799 478.585 97.864 478.641C97.9481 478.696 98.013 478.776 98.05 478.87C98.1497 479.065 98.2043 479.281 98.2099 479.5C98.2172 479.543 98.2172 479.587 98.2099 479.63C98.2018 479.673 98.2018 479.717 98.2099 479.76C97.9699 480.66 97.75 481.48 97.56 482.21C97.37 482.94 97.2099 483.64 97.0899 484.3C96.9699 484.96 96.87 485.66 96.8 486.39C96.7776 486.606 96.7166 486.816 96.6199 487.01C96.564 487.103 96.4821 487.177 96.3842 487.223C96.2864 487.269 96.177 487.286 96.0699 487.27C94.3299 487.27 92.6599 487.27 91.0699 487.27L86.4499 487.19C84.9699 487.19 83.5599 487.19 82.1999 487.11C80.8399 487.03 79.4999 487.11 78.1999 487.11C77.3299 487.11 76.3499 487.11 75.1999 487.11C74.0499 487.11 72.7399 487.22 71.0999 487.32C70.7179 487.312 70.3424 487.22 69.9999 487.05Z" fill="white"/>
<path d="M117.74 488C117.5 488 117.37 487.87 117.37 487.59C117.387 487.075 117.43 486.561 117.5 486.05C117.58 485.487 117.623 484.919 117.63 484.35V484C116.459 485.197 115.071 486.16 113.54 486.84C112.107 487.428 110.569 487.72 109.02 487.7C107.978 487.713 106.949 487.473 106.02 487C105.115 486.531 104.37 485.804 103.88 484.91C103.32 483.859 103.048 482.68 103.09 481.49V470.9C103.127 470.249 102.943 469.605 102.57 469.07C102.11 468.54 101.516 468.142 100.85 467.92C100.683 467.854 100.525 467.766 100.38 467.66C100.302 467.589 100.242 467.5 100.206 467.401C100.169 467.301 100.157 467.195 100.17 467.09C100.154 466.974 100.167 466.856 100.207 466.747C100.247 466.637 100.313 466.538 100.4 466.46C100.569 466.356 100.755 466.285 100.95 466.25C101.869 466.213 102.784 466.116 103.69 465.96C104.34 465.84 105.14 465.66 106.12 465.42C106.193 465.387 106.27 465.367 106.35 465.36H106.54C106.92 465.36 107.09 465.61 107.06 466.09C106.95 466.9 106.88 467.56 106.82 468.09C106.76 468.62 106.75 469.3 106.75 470.09V480.27C106.741 481.085 106.955 481.888 107.37 482.59C107.776 483.294 108.341 483.893 109.02 484.34C109.636 484.779 110.373 485.016 111.13 485.02C111.926 485.029 112.722 484.976 113.51 484.86C114.238 484.733 114.925 484.431 115.51 483.98C116.033 483.567 116.521 483.112 116.97 482.62C117.586 481.914 117.902 480.995 117.85 480.06V470.51C117.874 470.205 117.828 469.899 117.716 469.614C117.603 469.33 117.427 469.075 117.2 468.87C116.77 468.503 116.26 468.242 115.71 468.11C115.27 467.987 114.817 467.917 114.36 467.9C114.085 467.91 113.813 467.848 113.57 467.72C113.459 467.641 113.371 467.533 113.316 467.408C113.262 467.283 113.242 467.145 113.26 467.01C113.244 466.884 113.268 466.756 113.329 466.645C113.39 466.533 113.485 466.444 113.6 466.39C113.838 466.28 114.098 466.225 114.36 466.23C115.43 466.23 116.36 466.15 117.05 466.1C117.698 466.056 118.343 465.97 118.98 465.84C119.55 465.72 120.15 465.57 120.78 465.4C120.862 465.359 120.949 465.332 121.04 465.32H121.3C121.75 465.32 121.98 465.51 121.98 465.9C121.985 465.96 121.985 466.02 121.98 466.08C121.96 466.178 121.933 466.275 121.9 466.37C121.837 466.66 121.794 466.954 121.77 467.25C121.77 467.74 121.67 468.25 121.62 468.77C121.571 469.168 121.544 469.569 121.54 469.97V481.97C121.499 482.649 121.594 483.329 121.82 483.97C122.02 484.37 122.23 484.57 122.48 484.57C122.73 484.57 123.16 484.57 123.7 484.5C124.092 484.453 124.486 484.426 124.88 484.42C125.058 484.419 125.235 484.453 125.4 484.52C125.57 484.59 125.66 484.78 125.66 485.1C125.66 485.42 125.59 485.56 125.45 485.64C125.29 485.736 125.114 485.801 124.93 485.83C123.739 485.963 122.565 486.224 121.43 486.61C120.457 486.957 119.587 487.29 118.82 487.61L118.35 487.79C118.165 487.905 117.957 487.977 117.74 488Z" fill="white"/>
<path d="M137.26 487.76C135.59 487.778 133.951 487.312 132.54 486.42C131.117 485.528 129.963 484.267 129.2 482.77C128.367 481.168 127.945 479.385 127.97 477.58C127.938 475.434 128.451 473.314 129.46 471.42C130.395 469.633 131.772 468.114 133.46 467.01C135.097 465.919 137.023 465.344 138.99 465.36C141.135 465.311 143.238 465.952 144.99 467.19C145.168 467.294 145.318 467.439 145.427 467.613C145.537 467.787 145.603 467.985 145.62 468.19C145.597 468.534 145.468 468.863 145.25 469.13C145.017 469.472 144.717 469.764 144.37 469.99C144.078 470.2 143.73 470.319 143.37 470.33C143.179 470.325 142.994 470.262 142.84 470.15L142.27 469.76C141.459 469.141 140.604 468.582 139.71 468.09C139.002 467.64 138.196 467.369 137.36 467.3C136.521 467.302 135.697 467.523 134.97 467.94C134.242 468.357 133.636 468.957 133.21 469.68C132.069 471.555 131.516 473.728 131.62 475.92C131.6 477.463 131.968 478.986 132.69 480.35C133.357 481.628 134.347 482.711 135.56 483.49C136.755 484.249 138.145 484.645 139.56 484.63C140.455 484.654 141.345 484.487 142.17 484.14C143.05 483.699 143.846 483.107 144.52 482.39C144.597 482.317 144.684 482.256 144.78 482.21C144.862 482.161 144.955 482.134 145.05 482.13C145.43 482.13 145.62 482.37 145.62 482.86C145.611 483.104 145.55 483.342 145.44 483.56C145.269 483.885 145.068 484.193 144.84 484.48C144.27 485.179 143.595 485.786 142.84 486.28C142.064 486.789 141.209 487.168 140.31 487.4C139.313 487.652 138.288 487.773 137.26 487.76Z" fill="white"/>
<path d="M149.58 487.13C148.78 487.13 148.38 486.94 148.38 486.55C148.372 486.429 148.406 486.308 148.477 486.209C148.548 486.111 148.652 486.04 148.77 486.01L149.58 485.72C150.105 485.545 150.611 485.317 151.09 485.04C151.337 484.89 151.537 484.674 151.666 484.415C151.795 484.157 151.849 483.867 151.82 483.58V457.43C151.886 456.513 151.707 455.595 151.3 454.77C151.086 454.467 150.814 454.209 150.5 454.012C150.186 453.815 149.836 453.681 149.47 453.62C149.321 453.586 149.189 453.498 149.102 453.372C149.015 453.246 148.979 453.092 149 452.94C148.978 452.801 149.01 452.66 149.087 452.543C149.165 452.427 149.284 452.343 149.42 452.31C150.216 452.14 151 451.923 151.77 451.66C152.43 451.44 153.03 451.21 153.57 450.98L155.16 450.33C155.305 450.248 155.465 450.194 155.63 450.17C155.676 450.167 155.722 450.176 155.764 450.195C155.806 450.214 155.842 450.243 155.87 450.28C155.931 450.39 155.959 450.515 155.95 450.64C155.913 451.341 155.832 452.039 155.71 452.73C155.522 454.36 155.446 456 155.48 457.64V474.76C155.48 475.07 155.56 475.23 155.74 475.23C156.026 475.202 156.302 475.114 156.55 474.97C156.936 474.748 157.295 474.483 157.62 474.18C159.04 472.97 160.23 471.86 161.19 470.87C162.15 469.88 162.8 469.19 163.19 468.81C163.322 468.652 163.442 468.485 163.55 468.31C163.609 468.227 163.647 468.131 163.66 468.03C163.66 467.85 163.51 467.7 163.21 467.56C162.92 467.419 162.615 467.312 162.3 467.24C161.88 467.14 161.67 466.96 161.67 466.72C161.679 466.625 161.713 466.533 161.769 466.456C161.826 466.378 161.902 466.318 161.99 466.28C162.246 466.146 162.532 466.081 162.82 466.09H165.38C165.966 466.088 166.552 466.037 167.13 465.94L168.85 465.62C169.272 465.533 169.7 465.483 170.13 465.47C170.62 465.47 170.86 465.64 170.86 465.99C170.852 466.105 170.815 466.216 170.752 466.312C170.689 466.409 170.602 466.487 170.5 466.54C170.207 466.714 169.89 466.845 169.56 466.93C168.913 467.098 168.289 467.343 167.7 467.66L166.11 468.55C165.9 468.69 165.42 469.06 164.68 469.67L162.12 471.78C161.12 472.58 160.27 473.35 159.43 474.08C159.266 474.209 159.155 474.394 159.12 474.6C159.122 474.657 159.139 474.712 159.17 474.76L159.27 474.97C160.18 476.08 161.15 477.21 162.2 478.36C163.25 479.51 164.2 480.52 165.09 481.36L166.95 483.18C167.555 483.754 168.226 484.255 168.95 484.67C169.551 485.039 170.188 485.347 170.85 485.59C171.23 485.72 171.59 485.85 171.92 485.95C172.056 485.973 172.18 486.042 172.272 486.146C172.363 486.25 172.415 486.382 172.42 486.52C172.42 486.91 172.07 487.1 171.37 487.1C170.02 487.1 168.49 487.1 166.81 487.02C165.13 486.94 163.39 486.94 161.61 486.94C160.99 486.94 160.67 486.79 160.67 486.47C160.67 486.369 160.694 486.27 160.739 486.179C160.784 486.089 160.849 486.011 160.93 485.95C161.119 485.808 161.332 485.702 161.56 485.64C161.908 485.516 162.243 485.359 162.56 485.17C162.689 485.097 162.796 484.991 162.87 484.862C162.943 484.734 162.982 484.588 162.98 484.44C162.978 484.32 162.944 484.202 162.88 484.1C162.799 483.964 162.709 483.834 162.61 483.71L156.3 476.56C156.09 476.31 155.92 476.19 155.78 476.19C155.64 476.19 155.52 476.31 155.52 476.56C155.48 477.04 155.46 477.57 155.46 478.15V481.72C155.46 482.347 155.48 482.957 155.52 483.55C155.49 483.817 155.521 484.087 155.611 484.34C155.701 484.593 155.848 484.822 156.04 485.01C156.429 485.313 156.869 485.544 157.34 485.69L158.15 485.98C158.268 486.01 158.372 486.081 158.443 486.179C158.514 486.278 158.549 486.399 158.54 486.52C158.54 486.77 158.38 486.93 158.05 486.99C157.817 487.047 157.579 487.084 157.34 487.1C156.852 487.109 156.364 487.082 155.88 487.02L155.02 486.89C154.578 486.85 154.134 486.834 153.69 486.84C153.1 486.84 152.63 486.84 152.28 486.89L151.21 487.02C150.67 487.092 150.125 487.129 149.58 487.13Z" fill="white"/>
<path d="M201.67 487.34C201.32 487.34 200.55 487.34 199.35 487.23C198.15 487.12 196.77 487.1 195.22 487.05C193.67 487 192.22 486.97 190.81 486.97C190.12 486.97 189.53 486.97 189.06 486.97L187.55 487.11C187.01 487.11 186.27 487.18 185.33 487.18C184.961 487.192 184.592 487.142 184.24 487.03C184.121 487.001 184.015 486.933 183.939 486.837C183.863 486.741 183.821 486.623 183.82 486.5C183.815 486.375 183.854 486.252 183.931 486.153C184.008 486.054 184.117 485.986 184.24 485.96C184.666 485.833 185.1 485.736 185.54 485.67C186.558 485.572 187.518 485.152 188.28 484.47C188.853 483.689 189.123 482.726 189.04 481.76V458.32C189.137 457.369 188.865 456.416 188.28 455.66C187.504 455.008 186.549 454.607 185.54 454.51C185.096 454.442 184.66 454.328 184.24 454.17C184.115 454.128 184.007 454.047 183.932 453.939C183.856 453.831 183.817 453.702 183.82 453.57C183.82 453.448 183.861 453.33 183.938 453.235C184.014 453.141 184.121 453.075 184.24 453.05C184.59 452.93 184.96 452.876 185.33 452.89C186.24 452.89 186.96 452.89 187.5 452.89L189.09 452.94C189.61 452.94 190.29 452.94 191.09 452.94C191.64 452.94 192.35 452.94 193.2 452.94C194.05 452.94 194.94 452.85 195.86 452.78C196.78 452.71 197.62 452.66 198.37 452.63C199.12 452.6 199.66 452.63 200.01 452.63C203.085 452.559 206.152 452.988 209.09 453.9C211.362 454.621 213.448 455.833 215.2 457.45C216.741 458.925 217.927 460.73 218.67 462.73C219.429 464.791 219.808 466.973 219.79 469.17C219.801 471.575 219.321 473.957 218.38 476.17C217.455 478.339 216.129 480.314 214.47 481.99C212.815 483.668 210.848 485.006 208.68 485.93C206.463 486.871 204.078 487.35 201.67 487.34ZM201.04 485.51C203.586 485.552 206.09 484.858 208.25 483.51C210.35 482.168 212.039 480.271 213.13 478.03C214.327 475.536 214.926 472.796 214.88 470.03C214.92 467.731 214.491 465.448 213.62 463.32C212.882 461.523 211.795 459.891 210.422 458.518C209.049 457.144 207.417 456.058 205.62 455.32C203.95 454.622 202.16 454.258 200.35 454.25C198.86 454.25 197.58 454.25 196.52 454.38C195.647 454.401 194.801 454.683 194.09 455.19C193.788 455.477 193.556 455.828 193.41 456.218C193.265 456.608 193.21 457.026 193.25 457.44V480.72C193.205 481.294 193.285 481.87 193.483 482.411C193.682 482.951 193.994 483.442 194.4 483.85C195.246 484.589 196.288 485.068 197.4 485.23C198.589 485.433 199.794 485.527 201 485.51H201.04Z" fill="white"/>
<path d="M224.22 487.13C223.951 487.14 223.682 487.096 223.43 487C223.347 486.959 223.278 486.894 223.232 486.814C223.186 486.734 223.164 486.642 223.17 486.55C223.157 486.437 223.182 486.324 223.239 486.226C223.297 486.129 223.385 486.053 223.49 486.01C223.776 485.892 224.07 485.795 224.37 485.72C224.926 485.605 225.441 485.343 225.86 484.96C226.022 484.801 226.15 484.611 226.235 484.401C226.321 484.192 226.364 483.967 226.36 483.74V472.51C226.377 471.674 226.234 470.843 225.94 470.06C225.793 469.711 225.557 469.407 225.255 469.179C224.953 468.951 224.596 468.806 224.22 468.76C224.073 468.712 223.945 468.622 223.85 468.5C223.757 468.379 223.704 468.232 223.7 468.08C223.68 467.934 223.718 467.787 223.806 467.669C223.894 467.551 224.025 467.472 224.17 467.45C225.155 467.134 226.106 466.722 227.01 466.22C228.01 465.69 228.78 465.22 229.33 464.89C229.488 464.781 229.655 464.688 229.83 464.61C229.919 464.562 230.019 464.534 230.12 464.53C230.29 464.53 230.38 464.65 230.38 464.89C230.38 465.13 230.38 465.26 230.38 465.68C230.38 466.1 230.38 466.58 230.38 467.14C230.38 467.7 230.38 468.25 230.3 468.81C230.3 468.88 230.3 468.91 230.4 468.91C230.946 468.232 231.57 467.621 232.26 467.09C232.902 466.586 233.604 466.162 234.35 465.83C234.997 465.533 235.698 465.373 236.41 465.36C237.043 465.336 237.67 465.499 238.21 465.83C238.42 465.953 238.595 466.128 238.718 466.338C238.841 466.548 238.907 466.787 238.91 467.03C238.9 467.429 238.804 467.821 238.63 468.18C238.439 468.586 238.182 468.958 237.87 469.28C237.743 469.421 237.589 469.536 237.418 469.616C237.246 469.697 237.06 469.742 236.87 469.75C236.637 469.748 236.407 469.704 236.19 469.62C235.92 469.522 235.656 469.409 235.4 469.28L234.57 468.96C234.304 468.863 234.023 468.812 233.74 468.81C232.853 468.823 231.996 469.137 231.31 469.7C230.53 470.29 230.13 471.45 230.13 473.19V483.74C230.141 483.975 230.214 484.202 230.343 484.399C230.471 484.596 230.65 484.755 230.86 484.86C231.494 485.216 232.165 485.505 232.86 485.72C233.165 485.796 233.463 485.9 233.75 486.03C233.848 486.076 233.93 486.15 233.985 486.242C234.04 486.335 234.066 486.442 234.06 486.55C234.06 486.94 233.71 487.13 233.06 487.13C232.265 487.142 231.469 487.098 230.68 487C229.965 486.9 229.242 486.857 228.52 486.87C227.92 486.87 227.45 486.87 227.08 486.92L225.93 487.05C225.362 487.112 224.791 487.139 224.22 487.13Z" fill="white"/>
<path d="M245.2 487.7C244.5 487.675 243.828 487.418 243.29 486.97C242.648 486.485 242.102 485.885 241.68 485.2C241.274 484.61 241.045 483.916 241.02 483.2C240.966 482.247 241.285 481.311 241.91 480.59C242.72 479.827 243.681 479.241 244.73 478.87L250.05 476.68C250.518 476.551 250.942 476.299 251.28 475.95C251.446 475.516 251.527 475.054 251.52 474.59L251.62 471.25C251.669 470.399 251.398 469.561 250.86 468.9C250.578 468.564 250.221 468.299 249.818 468.126C249.416 467.952 248.978 467.875 248.54 467.9C248.006 467.904 247.477 467.992 246.97 468.16C246.501 468.311 246.061 468.541 245.67 468.84C245.453 468.987 245.302 469.213 245.25 469.47C245.181 469.758 245.147 470.054 245.15 470.35C245.15 470.49 245.15 470.65 245.15 470.82C245.158 470.977 245.158 471.133 245.15 471.29C245.15 471.47 244.93 471.7 244.5 472C244.039 472.305 243.55 472.567 243.04 472.78C242.62 472.979 242.164 473.095 241.7 473.12C241.552 473.13 241.405 473.083 241.29 472.99C241.238 472.95 241.197 472.899 241.169 472.839C241.141 472.78 241.128 472.715 241.13 472.65C241.153 472.012 241.343 471.392 241.68 470.85C242.083 470.164 242.604 469.554 243.22 469.05C244.022 468.32 244.897 467.673 245.83 467.12C246.705 466.594 247.629 466.155 248.59 465.81C249.363 465.524 250.177 465.365 251 465.34C251.582 465.327 252.16 465.438 252.695 465.668C253.23 465.897 253.709 466.239 254.1 466.67C254.508 467.117 254.822 467.641 255.024 468.211C255.227 468.781 255.314 469.386 255.28 469.99L255.01 482.52C254.953 483.151 255.131 483.782 255.51 484.29C255.671 484.503 255.88 484.675 256.12 484.793C256.359 484.911 256.623 484.972 256.89 484.97C257.585 485.025 258.276 484.822 258.83 484.4C259 484.22 259.14 484.13 259.24 484.13C259.317 484.127 259.394 484.139 259.466 484.167C259.539 484.194 259.605 484.236 259.66 484.29C259.767 484.403 259.824 484.554 259.82 484.71C259.785 485.155 259.577 485.568 259.24 485.86C258.712 486.393 258.105 486.842 257.44 487.19C256.888 487.495 256.271 487.663 255.64 487.68C254.04 487.68 252.77 486.777 251.83 484.97H251.67C250.684 485.814 249.579 486.508 248.39 487.03C247.381 487.462 246.297 487.69 245.2 487.7ZM247.65 485.2C248.261 485.219 248.869 485.103 249.43 484.86C249.912 484.633 250.351 484.325 250.73 483.95C250.924 483.744 251.077 483.503 251.18 483.24C251.332 482.778 251.409 482.296 251.41 481.81L251.52 479.25C251.56 478.969 251.539 478.683 251.46 478.41C251.428 478.329 251.371 478.26 251.298 478.213C251.224 478.166 251.137 478.144 251.05 478.15L250.68 478.2C250.45 478.258 250.223 478.328 250 478.41C248.596 478.827 247.292 479.528 246.17 480.47C245.565 480.971 245.181 481.689 245.1 482.47C245.072 482.851 245.129 483.234 245.267 483.59C245.406 483.947 245.622 484.268 245.9 484.53C246.382 484.96 247.004 485.198 247.65 485.2Z" fill="white"/>
<path d="M270.1 502.11C267.651 502.233 265.22 501.643 263.1 500.41C262.303 499.948 261.643 499.282 261.188 498.48C260.733 497.679 260.499 496.771 260.51 495.85C260.488 495.062 260.631 494.279 260.93 493.55C261.218 492.908 261.665 492.35 262.23 491.93C262.72 491.51 263.37 490.93 264.23 490.34C265.09 489.75 265.89 489.03 266.76 488.34L268.96 488.44C267.607 489.234 266.419 490.279 265.46 491.52C264.774 492.574 264.426 493.813 264.46 495.07C264.462 495.764 264.632 496.447 264.954 497.061C265.276 497.675 265.741 498.203 266.31 498.6C267.628 499.579 269.239 500.083 270.88 500.03C272.657 500.123 274.414 499.628 275.88 498.62C276.75 497.939 277.437 497.052 277.88 496.04C278.366 494.983 278.615 493.833 278.61 492.67C278.619 492.314 278.551 491.96 278.411 491.632C278.272 491.304 278.063 491.01 277.8 490.77C277.068 490.162 276.2 489.74 275.27 489.54C273.798 489.183 272.294 488.972 270.78 488.91C267.513 488.67 265.243 488.237 263.97 487.61C263.396 487.372 262.907 486.966 262.568 486.444C262.228 485.923 262.055 485.312 262.07 484.69C262.061 484.336 262.159 483.988 262.35 483.69C262.604 483.312 262.914 482.974 263.27 482.69L265.04 481.3C265.348 481.072 265.636 480.818 265.9 480.54C266.115 480.304 266.3 480.042 266.45 479.76L268.23 480.65C267.518 480.896 266.86 481.277 266.29 481.77C266.081 481.92 265.903 482.11 265.769 482.33C265.635 482.55 265.547 482.795 265.51 483.05C265.522 483.312 265.6 483.566 265.736 483.79C265.873 484.013 266.063 484.199 266.29 484.33C266.995 484.761 267.776 485.053 268.59 485.19C269.815 485.43 271.054 485.587 272.3 485.66C274.769 485.661 277.208 486.197 279.45 487.23C280.155 487.557 280.751 488.08 281.167 488.736C281.584 489.391 281.804 490.153 281.8 490.93C281.799 492.325 281.456 493.699 280.8 494.93C280.101 496.26 279.193 497.469 278.11 498.51C277.021 499.573 275.76 500.446 274.38 501.09C273.05 501.751 271.586 502.1 270.1 502.11ZM270.41 481.44C268.98 481.439 267.576 481.059 266.34 480.34C265.077 479.635 263.995 478.645 263.18 477.45C262.375 476.294 261.945 474.919 261.95 473.51C261.921 471.976 262.369 470.47 263.23 469.2C264.086 467.961 265.247 466.962 266.6 466.3C267.982 465.625 269.502 465.282 271.04 465.3C271.932 465.282 272.821 465.414 273.67 465.69C274.42 465.95 275.16 466.19 275.89 466.4C276.543 466.602 277.212 466.749 277.89 466.84C278.395 466.892 278.902 466.919 279.41 466.92C279.82 466.92 280.35 466.92 280.97 466.84C281.59 466.76 282.03 466.76 282.28 466.76C282.73 466.76 282.96 467.02 282.96 467.54C282.923 467.93 282.732 468.29 282.43 468.54C282.328 468.671 282.183 468.763 282.02 468.8H280.61C279.67 468.8 279.15 468.94 279.04 469.21C278.93 469.48 278.96 469.55 278.91 469.81C278.86 470.07 278.81 470.36 278.78 470.68C278.75 471 278.78 471.3 278.78 471.62C278.799 473.322 278.404 475.004 277.63 476.52C276.935 477.944 275.906 479.179 274.63 480.12C273.409 481.016 271.924 481.48 270.41 481.44ZM270.72 479.61C271.396 479.596 272.056 479.403 272.634 479.052C273.212 478.701 273.686 478.203 274.01 477.61C274.926 476.107 275.382 474.369 275.32 472.61C275.323 471.616 275.079 470.636 274.61 469.76C274.173 468.915 273.547 468.183 272.78 467.62C272.082 467.097 271.232 466.816 270.36 466.82C269.525 466.828 268.721 467.133 268.09 467.68C267.354 468.276 266.762 469.032 266.36 469.89C265.92 470.828 265.698 471.854 265.71 472.89C265.7 474.048 265.931 475.196 266.39 476.26C266.79 477.215 267.418 478.056 268.22 478.71C268.923 479.293 269.807 479.611 270.72 479.61Z" fill="white"/>
<path d="M294.84 487.7C292.994 487.727 291.175 487.261 289.57 486.35C288.013 485.458 286.722 484.167 285.83 482.61C284.893 480.967 284.417 479.101 284.45 477.21C284.453 475.741 284.745 474.286 285.31 472.93C285.892 471.528 286.715 470.239 287.74 469.12C288.77 467.982 290.009 467.051 291.39 466.38C292.79 465.705 294.326 465.363 295.88 465.38C297.798 465.352 299.686 465.861 301.33 466.85C302.916 467.788 304.246 469.104 305.2 470.68C306.145 472.246 306.64 474.041 306.63 475.87C306.638 477.864 306.183 479.832 305.3 481.62C304.42 483.426 303.056 484.953 301.36 486.03C299.396 487.212 297.13 487.792 294.84 487.7ZM295.93 486.14C297.031 486.157 298.122 485.925 299.12 485.46C300.075 484.996 300.846 484.225 301.31 483.27C301.761 482.351 302.042 481.359 302.14 480.34C302.275 479.269 302.346 478.19 302.35 477.11C302.355 475.457 302.046 473.818 301.44 472.28C300.897 470.827 300.02 469.522 298.88 468.47C297.823 467.501 296.434 466.975 295 467C294.136 466.987 293.277 467.139 292.47 467.45C291.649 467.803 290.938 468.369 290.41 469.09C289.688 470.014 289.219 471.11 289.05 472.27C288.843 473.513 288.739 474.77 288.74 476.03C288.732 477.702 289.051 479.36 289.68 480.91C290.235 482.351 291.11 483.647 292.24 484.7C293.242 485.632 294.562 486.147 295.93 486.14Z" fill="white"/>
<path d="M310.76 487.13C310.501 487.136 310.242 487.092 310 487C309.912 486.963 309.836 486.901 309.785 486.82C309.733 486.74 309.707 486.646 309.71 486.55C309.697 486.437 309.721 486.324 309.779 486.226C309.837 486.129 309.925 486.053 310.03 486.01C310.315 485.891 310.61 485.794 310.91 485.72C311.434 485.581 311.943 485.39 312.43 485.15C312.676 485.011 312.875 484.804 313.005 484.554C313.135 484.303 313.189 484.021 313.16 483.74V472.51C313.174 471.701 313.077 470.893 312.87 470.11C312.744 469.758 312.525 469.446 312.236 469.209C311.947 468.971 311.6 468.816 311.23 468.76C311.098 468.694 310.974 468.613 310.86 468.52C310.803 468.463 310.759 468.393 310.732 468.318C310.704 468.242 310.693 468.161 310.7 468.08C310.7 467.7 310.86 467.49 311.17 467.45C312.22 467.212 313.23 466.825 314.17 466.3C314.946 465.842 315.694 465.338 316.41 464.79L316.7 464.61C316.786 464.554 316.887 464.526 316.99 464.53C317.026 464.53 317.062 464.539 317.093 464.556C317.125 464.574 317.151 464.599 317.17 464.63C317.223 464.706 317.251 464.797 317.25 464.89C317.25 465.14 317.25 465.63 317.12 466.38C317.041 466.994 316.997 467.611 316.99 468.23C316.99 468.37 316.99 468.5 316.99 468.63C316.996 468.712 317.024 468.791 317.07 468.86C318.203 467.769 319.52 466.885 320.96 466.25C322.39 465.647 323.928 465.344 325.48 465.36C326.298 465.351 327.107 465.536 327.841 465.899C328.574 466.262 329.211 466.794 329.7 467.45C330.843 468.926 331.433 470.755 331.37 472.62V483.74C331.338 484.017 331.391 484.297 331.521 484.543C331.651 484.789 331.853 484.991 332.1 485.12C332.594 485.351 333.101 485.551 333.62 485.72C333.9 485.82 334.17 485.94 334.43 486.06C334.549 486.108 334.65 486.191 334.72 486.298C334.79 486.406 334.825 486.532 334.82 486.66C334.82 486.87 334.7 487 334.45 487.05C334.226 487.1 333.999 487.126 333.77 487.13C333.232 487.137 332.694 487.11 332.16 487.05L331.06 486.92C330.71 486.92 330.23 486.87 329.6 486.87C328.97 486.87 328.52 486.87 328.14 486.92L326.96 487.05C326.415 487.109 325.868 487.136 325.32 487.13C325.101 487.123 324.884 487.097 324.67 487.05C324.41 486.997 324.28 486.867 324.28 486.66C324.275 486.532 324.31 486.406 324.38 486.298C324.449 486.191 324.551 486.108 324.67 486.06C324.93 485.94 325.2 485.82 325.48 485.72C325.995 485.551 326.499 485.351 326.99 485.12C327.238 484.992 327.44 484.791 327.571 484.544C327.701 484.298 327.753 484.017 327.72 483.74V472.74C327.759 472.088 327.666 471.434 327.446 470.819C327.226 470.204 326.884 469.639 326.44 469.16C325.985 468.724 325.449 468.382 324.863 468.154C324.276 467.926 323.649 467.816 323.02 467.83C321.894 467.806 320.775 468.01 319.73 468.43C318.831 468.808 317.99 469.309 317.23 469.92C317.084 470.072 316.978 470.258 316.92 470.46C316.851 470.673 316.814 470.896 316.81 471.12V483.7C316.779 483.981 316.831 484.265 316.961 484.516C317.091 484.767 317.293 484.973 317.54 485.11C318.026 485.35 318.536 485.541 319.06 485.68C319.86 485.89 320.26 486.17 320.26 486.51C320.266 486.602 320.244 486.694 320.198 486.774C320.152 486.854 320.083 486.919 320 486.96C319.748 487.056 319.479 487.1 319.21 487.09C318.662 487.096 318.114 487.069 317.57 487.01L316.45 486.88C316.1 486.88 315.61 486.83 314.98 486.83C314.35 486.83 313.91 486.83 313.55 486.88L312.4 487.01C311.856 487.083 311.308 487.123 310.76 487.13Z" fill="white"/>
<path d="M68 395.72H338.69" stroke="white" stroke-width="2" stroke-miterlimit="10" stroke-linecap="round"/>
</svg>
