<svg width="1303" height="282" viewBox="0 0 1303 282" fill="none" xmlns="http://www.w3.org/2000/svg">
<path d="M61.9767 194.701V192.201H59.4767V194.701H61.9767ZM76.9656 194.701H79.4656V192.201H76.9656V194.701ZM76.9656 243.244V245.744H79.4656V243.244H76.9656ZM74.9146 243.244L73.3301 245.178L74.0212 245.744H74.9146V243.244ZM54.2982 227.992L52.8797 230.051L52.8815 230.052L54.2982 227.992ZM18.9033 217.737L20.5912 219.581L20.5996 219.573L20.608 219.565L18.9033 217.737ZM24.9514 242.297V244.797H30.7782L26.7632 240.575L24.9514 242.297ZM9.54177 242.297L7.44447 243.658L8.18357 244.797H9.54177V242.297ZM8.12167 204.694L9.98158 206.364L9.98848 206.356L8.12167 204.694ZM61.9767 218.368L60.4275 220.33L64.4767 223.527V218.368H61.9767ZM61.9767 197.201H76.9656V192.201H61.9767V197.201ZM74.4657 194.701V243.244H79.4656V194.701H74.4657ZM76.9656 240.744H74.9146V245.744H76.9656V240.744ZM76.499 241.31C70.9927 236.799 64.0597 231.672 55.7149 225.932L52.8815 230.052C61.156 235.743 67.9673 240.784 73.3301 245.178L76.499 241.31ZM55.7167 225.934C47.3879 220.194 41.2733 216.427 37.5094 214.809L35.5343 219.402C38.7827 220.799 44.519 224.29 52.8797 230.051L55.7167 225.934ZM37.5094 214.809C33.7401 213.188 30.0037 212.344 26.3188 212.344V217.344C29.2257 217.344 32.2912 218.008 35.5343 219.402L37.5094 214.809ZM26.3188 212.344C22.8227 212.344 19.7385 213.54 17.1986 215.908L20.608 219.565C22.2053 218.076 24.0648 217.344 26.3188 217.344V212.344ZM17.2154 215.892C14.652 218.239 13.3003 221.195 13.3003 224.626H18.3003C18.3003 222.658 19.0173 221.021 20.5912 219.581L17.2154 215.892ZM13.3003 224.626C13.3003 230.939 16.868 237.424 23.1397 244.02L26.7632 240.575C20.8334 234.338 18.3003 229.042 18.3003 224.626H13.3003ZM24.9514 239.797H9.54177V244.797H24.9514V239.797ZM11.639 240.937C7.15757 234.029 5.04688 227.642 5.04688 221.734H0.046875C0.046875 228.868 2.59937 236.19 7.44447 243.658L11.639 240.937ZM5.04688 221.734C5.04688 214.939 6.78818 209.919 9.98158 206.364L6.26187 203.023C2.02227 207.743 0.046875 214.083 0.046875 221.734H5.04688ZM9.98848 206.356C13.1527 202.804 17.5266 200.935 23.4262 200.935V195.935C16.353 195.935 10.5239 198.238 6.25497 203.031L9.98848 206.356ZM23.4262 200.935C27.2862 200.935 32.2998 202.398 38.5686 205.639C44.8021 208.862 52.0841 213.742 60.4275 220.33L63.526 216.406C55.0397 209.705 47.4818 204.619 40.8651 201.198C34.2837 197.795 28.4369 195.935 23.4262 195.935V200.935ZM64.4767 218.368V194.701H59.4767V218.368H64.4767ZM12.5921 141.635L13.9535 143.732L13.9611 143.727L12.5921 141.635ZM67.9197 178.292L69.3014 180.376L69.309 180.37L67.9197 178.292ZM12.4869 178.187L11.0776 180.252L11.08 180.253L12.4869 178.187ZM58.8212 153.416L59.7015 151.076L59.694 151.073L58.8212 153.416ZM21.4277 153.416L22.3187 155.751L22.3333 155.746L22.3478 155.74L21.4277 153.416ZM21.3225 166.511L20.3524 168.815L20.3645 168.82L21.3225 166.511ZM58.7686 166.511L59.6539 168.849L59.6676 168.844L59.6813 168.839L58.7686 166.511ZM5.04688 159.832C5.04688 152.921 7.94478 147.633 13.9535 143.732L11.2308 139.538C3.84597 144.332 0.046875 151.176 0.046875 159.832H5.04688ZM13.9611 143.727C20.1096 139.703 28.6715 137.561 39.8878 137.561V132.561C28.1035 132.561 18.4683 134.801 11.2231 139.543L13.9611 143.727ZM39.8878 137.561C51.5944 137.561 60.3872 139.645 66.5292 143.536L69.205 139.313C61.9534 134.719 52.0933 132.561 39.8878 132.561V137.561ZM66.5292 143.536C72.5068 147.323 75.4124 152.594 75.4124 159.622H80.4126C80.4126 150.871 76.6206 144.011 69.205 139.313L66.5292 143.536ZM75.4124 159.622C75.4124 166.779 72.5001 172.223 66.5305 176.214L69.309 180.37C76.6626 175.455 80.4126 168.453 80.4126 159.622H75.4124ZM66.538 176.209C60.4371 180.254 51.7651 182.419 40.2559 182.419V187.419C52.3083 187.419 62.0788 185.165 69.3014 180.376L66.538 176.209ZM40.2559 182.419C28.6029 182.419 19.9122 180.218 13.8939 176.12L11.08 180.253C18.2449 185.132 28.0669 187.419 40.2559 187.419V182.419ZM13.8963 176.122C7.91937 172.042 5.04688 166.681 5.04688 159.832H0.046875C0.046875 168.411 3.80108 175.285 11.0776 180.252L13.8963 176.122ZM66.633 159.832C66.633 157.815 66.0109 155.971 64.7308 154.425C63.4851 152.92 61.7379 151.842 59.7015 151.076L57.9408 155.756C59.4457 156.322 60.3544 156.979 60.8794 157.613C61.3699 158.206 61.633 158.903 61.633 159.832H66.633ZM59.694 151.073C55.6426 149.564 48.5193 148.917 38.7307 148.917V153.917C48.5768 153.917 54.8472 154.603 57.9484 155.758L59.694 151.073ZM38.7307 148.917C30.5434 148.917 24.3534 149.569 20.5076 151.091L22.3478 155.74C25.2339 154.598 30.5793 153.917 38.7307 153.917V148.917ZM20.5367 151.08C18.5432 151.84 16.8389 152.936 15.6325 154.479C14.4018 156.052 13.8262 157.916 13.8262 159.937H18.8262C18.8262 158.908 19.1009 158.16 19.5707 157.559C20.0648 156.928 20.9112 156.288 22.3187 155.751L20.5367 151.08ZM13.8262 159.937C13.8262 161.926 14.3936 163.761 15.5849 165.329C16.7529 166.865 18.4062 167.996 20.3524 168.815L22.2927 164.207C20.908 163.624 20.0631 162.958 19.5657 162.303C19.0915 161.679 18.8262 160.929 18.8262 159.937H13.8262ZM20.3645 168.82C22.3503 169.644 25.1007 170.187 28.4525 170.536C31.8475 170.89 36.0344 171.062 40.9922 171.062V166.062C36.1327 166.062 32.1327 165.893 28.9711 165.563C25.7663 165.229 23.5906 164.746 22.2806 164.202L20.3645 168.82ZM40.9922 171.062C49.2699 171.062 55.5881 170.389 59.6539 168.849L57.8833 164.173C54.7263 165.369 49.1936 166.062 40.9922 166.062V171.062ZM59.6813 168.839C61.7405 168.031 63.4956 166.906 64.7411 165.355C66.0169 163.767 66.633 161.885 66.633 159.832H61.633C61.633 160.83 61.3551 161.586 60.8428 162.224C60.3002 162.9 59.373 163.589 57.8559 164.184L59.6813 168.839ZM61.9767 75.8412V73.3412H59.4767V75.8412H61.9767ZM76.9656 75.8412H79.4656V73.3412H76.9656V75.8412ZM76.9656 124.384V126.884H79.4656V124.384H76.9656ZM74.9146 124.384L73.3301 126.318L74.0212 126.884H74.9146V124.384ZM54.2982 109.133L52.8797 111.191L52.8815 111.192L54.2982 109.133ZM18.9033 98.8769L20.5912 100.721L20.5996 100.713L20.608 100.706L18.9033 98.8769ZM24.9514 123.438V125.938H30.7782L26.7632 121.715L24.9514 123.438ZM9.54177 123.438L7.44447 124.798L8.18357 125.938H9.54177V123.438ZM8.12167 85.8338L9.98158 87.5045L9.98848 87.4967L8.12167 85.8338ZM61.9767 99.5079L60.4275 101.47L64.4767 104.667V99.5079H61.9767ZM61.9767 78.3412H76.9656V73.3412H61.9767V78.3412ZM74.4657 75.8412V124.384H79.4656V75.8412H74.4657ZM76.9656 121.884H74.9146V126.884H76.9656V121.884ZM76.499 122.451C70.9927 117.939 64.0597 112.812 55.7149 107.073L52.8815 111.192C61.156 116.883 67.9673 121.924 73.3301 126.318L76.499 122.451ZM55.7167 107.074C47.3879 101.335 41.2733 97.5679 37.5094 95.9489L35.5343 100.542C38.7827 101.939 44.519 105.43 52.8797 111.191L55.7167 107.074ZM37.5094 95.9489C33.7401 94.3279 30.0037 93.4839 26.3188 93.4839V98.4839C29.2257 98.4839 32.2912 99.1479 35.5343 100.542L37.5094 95.9489ZM26.3188 93.4839C22.8227 93.4839 19.7385 94.6809 17.1986 97.0479L20.608 100.706C22.2053 99.2169 24.0648 98.4839 26.3188 98.4839V93.4839ZM17.2154 97.0329C14.652 99.3789 13.3003 102.335 13.3003 105.767H18.3003C18.3003 103.798 19.0173 102.162 20.5912 100.721L17.2154 97.0329ZM13.3003 105.767C13.3003 112.08 16.868 118.564 23.1397 125.16L26.7632 121.715C20.8334 115.479 18.3003 110.182 18.3003 105.767H13.3003ZM24.9514 120.938H9.54177V125.938H24.9514V120.938ZM11.639 122.077C7.15757 115.17 5.04688 108.783 5.04688 102.874H0.046875C0.046875 110.008 2.59937 117.331 7.44447 124.798L11.639 122.077ZM5.04688 102.874C5.04688 96.0789 6.78818 91.0595 9.98158 87.5045L6.26187 84.1632C2.02227 88.8828 0.046875 95.2239 0.046875 102.874H5.04688ZM9.98848 87.4967C13.1527 83.9445 17.5266 82.0753 23.4262 82.0753V77.0753C16.353 77.0753 10.5239 79.3784 6.25497 84.171L9.98848 87.4967ZM23.4262 82.0753C27.2862 82.0753 32.2998 83.5379 38.5686 86.7792C44.8021 90.0022 52.0841 94.8819 60.4275 101.47L63.526 97.5459C55.0397 90.8452 47.4818 85.7589 40.8651 82.3377C34.2837 78.9348 28.4369 77.0753 23.4262 77.0753V82.0753ZM64.4767 99.5079V75.8412H59.4767V99.5079H64.4767ZM45.3048 48.9137V51.4137H47.7068L47.8028 49.0136L45.3048 48.9137ZM32.367 48.9137H29.867V51.4137H32.367V48.9137ZM29.79 41.6033L27.9543 43.3005L27.9624 43.3092L27.9705 43.3178L29.79 41.6033ZM18.6929 62.693V65.193H22.699L20.9386 61.5944L18.6929 62.693ZM5.75507 62.693L3.46577 63.6977L4.12207 65.193H5.75507V62.693ZM7.59577 28.9285L9.57267 30.4589L9.58027 30.4489L7.59577 28.9285ZM37.5211 33.2937L35.3312 34.4997L37.9035 39.1703L39.8488 34.2057L37.5211 33.2937ZM72.0746 27.5085L74.0056 25.9207L73.9986 25.9122L72.0746 27.5085ZM73.7575 64.5338V67.0338H75.2982L75.9907 65.6575L73.7575 64.5338ZM59.5049 64.5338L57.4592 63.0966L54.6933 67.0338H59.5049V64.5338ZM62.6605 40.7092L64.5784 39.1057L64.5708 39.0965L64.563 39.0874L62.6605 40.7092ZM48.4078 40.6041L50.2219 42.3243L50.2292 42.3165L50.2365 42.3087L48.4078 40.6041ZM45.3048 46.4137H32.367V51.4137H45.3048V46.4137ZM34.867 48.9137C34.867 45.3724 33.8556 42.2725 31.6094 39.8888L27.9705 43.3178C29.1604 44.5806 29.867 46.3542 29.867 48.9137H34.867ZM31.6256 39.9062C29.4671 37.5714 26.7646 36.3159 23.6366 36.3159V41.3159C25.277 41.3159 26.6768 41.9187 27.9543 43.3005L31.6256 39.9062ZM23.6366 36.3159C20.4042 36.3159 17.6724 37.6562 15.604 40.1742L19.4677 43.3479C20.625 41.939 21.9604 41.3159 23.6366 41.3159V36.3159ZM15.604 40.1742C13.5581 42.665 12.6166 45.748 12.6166 49.2293H17.6166C17.6166 46.6799 18.2879 44.7841 19.4677 43.3479L15.604 40.1742ZM12.6166 49.2293C12.6166 53.8146 13.9473 58.6816 16.4472 63.7916L20.9386 61.5944C18.67 56.9572 17.6166 52.8484 17.6166 49.2293H12.6166ZM18.6929 60.193H5.75507V65.193H18.6929V60.193ZM8.04427 61.6884C6.06787 57.1847 5.04688 51.9445 5.04688 45.9159H0.046875C0.046875 52.5096 1.16467 58.4541 3.46577 63.6977L8.04427 61.6884ZM5.04688 45.9159C5.04688 39.3415 6.62807 34.2624 9.57267 30.4589L5.61897 27.398C1.83177 32.2899 0.046875 38.5357 0.046875 45.9159H5.04688ZM9.58027 30.4489C12.4572 26.6938 16.048 24.907 20.5336 24.907V19.907C14.4306 19.907 9.39617 22.4678 5.61127 27.4081L9.58027 30.4489ZM20.5336 24.907C26.8144 24.907 31.704 27.9134 35.3312 34.4997L39.711 32.0876C35.3441 24.1583 28.9087 19.907 20.5336 19.907V24.907ZM39.8488 34.2057C41.3876 30.2784 43.524 27.5039 46.175 25.6947C48.8259 23.8856 52.1868 22.9084 56.4019 22.9084V17.9084C51.3957 17.9084 46.9992 19.0788 43.3565 21.5648C39.714 24.0506 37.0205 27.7187 35.1934 32.3816L39.8488 34.2057ZM56.4019 22.9084C62.231 22.9084 66.7304 24.9823 70.1505 29.1047L73.9986 25.9122C69.5648 20.5679 63.6159 17.9084 56.4019 17.9084V22.9084ZM70.1435 29.0962C73.5697 33.2632 75.4124 38.9917 75.4124 46.547H80.4126C80.4126 38.1843 78.3636 31.2204 74.0056 25.9207L70.1435 29.0962ZM75.4124 46.547C75.4124 52.6643 74.1095 58.2723 71.5243 63.41L75.9907 65.6575C78.9456 59.7858 80.4126 53.4026 80.4126 46.547H75.4124ZM73.7575 62.0338H59.5049V67.0338H73.7575V62.0338ZM61.5505 65.9709C65.6211 60.1767 67.8427 54.5084 67.8427 49.0189H62.8427C62.8427 53.1364 61.1724 57.8113 57.4592 63.0966L61.5505 65.9709ZM67.8427 49.0189C67.8427 45.1654 66.8203 41.7871 64.5784 39.1057L60.7425 42.3128C62.0769 43.9089 62.8427 46.0704 62.8427 49.0189H67.8427ZM64.563 39.0874C62.2524 36.3769 59.2009 35.0011 55.613 35.0011V40.0011C57.7753 40.0011 59.4221 40.7641 60.7579 42.3311L64.563 39.0874ZM55.613 35.0011C52.0575 35.0011 48.9893 36.314 46.5791 38.8994L50.2365 42.3087C51.6832 40.7568 53.4183 40.0011 55.613 40.0011V35.0011ZM46.5938 38.8838C44.1514 41.4594 42.965 44.8604 42.8068 48.8138L47.8028 49.0136C47.9252 45.9547 48.8074 43.8159 50.2219 42.3243L46.5938 38.8838Z" fill="white"/>
<path d="M130.622 14.3718L130.412 246.402" stroke="white" stroke-width="2" stroke-miterlimit="10" stroke-linecap="round"/>
<path d="M197.799 17.62H221.055C225.311 17.62 227.211 17.088 227.515 16.708C228.427 15.568 229.263 14.884 229.795 14.884C230.251 14.884 232.227 16.1 232.227 17.316C232.227 17.848 231.315 22.636 231.315 27.728C231.315 29.248 230.175 30.92 228.731 30.92C227.667 30.92 227.059 29.02 226.907 28.336C225.767 23.32 224.475 23.168 221.739 22.864C220.599 22.712 220.371 22.484 213.911 22.484C213.531 22.484 213.303 23.092 213.227 23.852C213.151 24.916 212.695 35.176 212.695 39.964C212.695 44.6 212.619 49.616 212.847 52.352C213.303 57.9 214.595 58.128 217.711 59.268C219.079 59.8 220.371 60.484 220.371 61.396C220.371 63.068 218.547 63.448 217.027 63.448C216.267 63.448 207.907 63.068 203.347 63.068C201.143 63.068 197.039 63.296 194.987 63.296C193.391 63.296 191.871 62.612 191.871 61.244C191.871 60.636 192.631 59.572 194.379 59.116C199.091 57.824 200.383 56.836 200.383 52.656C200.383 51.06 200.535 40.952 200.535 36.012C200.535 31.3 200.611 26.284 200.611 23.928C200.611 23.32 199.851 22.484 199.623 22.484C197.723 22.484 194.911 22.484 192.935 22.56C190.807 22.636 188.755 22.636 186.703 28.336C186.247 29.628 185.335 30.616 184.499 30.616C183.511 30.616 182.371 29.248 182.371 27.424C182.371 25.068 183.207 21.648 183.207 17.468C183.207 16.176 184.347 15.036 185.259 15.036C185.487 15.036 186.399 15.492 186.931 15.872C188.223 16.936 189.363 17.392 191.567 17.468C194.683 17.62 195.367 17.62 197.799 17.62ZM256.744 35.252C256.744 36.316 257.352 37.152 257.884 37.152C271.184 37.152 273.768 37.076 275.212 37.152C275.516 37.152 276.124 36.012 276.124 35.708C276.124 30.54 276.124 26.284 275.82 24.46C275.592 23.092 275.44 22.332 272.172 21.496C269.36 20.736 268.904 19.596 268.904 19.064C268.904 18.304 270.272 17.392 271.868 17.392C274.984 17.392 277.112 17.62 280 17.62C282.964 17.62 290.564 17.392 292.084 17.392C293.604 17.392 294.516 18.152 294.516 19.064C294.516 19.9 293.604 20.736 291.628 21.192C289.272 21.724 288.74 22.864 288.512 24.688C288.208 26.892 288.132 32.82 288.132 39.432C288.132 48.856 288.36 51.516 288.512 54.328C288.74 57.976 290.032 58.584 292.388 59.192C294.516 59.724 295.276 60.636 295.276 61.472C295.276 62.46 294.06 63.296 292.388 63.296C290.944 63.296 288.056 63.068 285.244 63.068C281.292 63.068 274.756 63.448 272.476 63.448C270.956 63.448 269.512 62.84 269.512 61.624C269.512 60.864 270.196 60.256 272.552 59.344C275.364 58.28 275.668 56.608 275.896 55.392C276.276 53.036 276.428 46.88 276.124 44.22C275.896 42.32 275.212 42.168 275.136 42.168C269.512 42.168 258.72 42.396 257.656 42.396C257.124 42.396 256.744 43.916 256.744 44.296C256.744 46.348 256.82 53.72 256.896 54.86C257.124 57.444 257.428 58.66 261.228 59.572C262.14 59.8 263.66 60.788 263.66 61.776C263.66 63.068 262.596 63.372 260.696 63.372C258.492 63.372 253.02 63.068 249.752 63.068C247.32 63.068 242.912 63.448 240.632 63.448C239.036 63.448 237.744 62.612 237.744 61.7C237.744 60.864 239.112 60.028 240.48 59.496C243.672 58.204 244.28 57.52 244.432 54.252C244.66 50.908 244.66 42.472 244.66 31.528C244.66 25.828 244.432 25.296 244.28 24.384C243.976 22.636 243.064 21.572 239.568 20.736C238.732 20.508 237.896 19.824 237.896 18.988C237.896 18.152 239.568 17.316 241.012 17.316C244.736 17.316 249.98 17.62 252.032 17.62C254.388 17.62 255.908 17.468 258.568 17.468C259.784 17.468 261.304 17.848 261.304 19.216C261.304 20.356 259.48 21.04 258.568 21.344C257.352 21.8 256.744 23.32 256.744 25.22C256.744 27.576 256.744 30.388 256.744 35.252ZM318.226 17.62H326.054C332.97 17.62 334.034 17.62 335.782 17.24C336.618 17.088 337.15 17.544 337.378 17.924C337.834 18.684 338.442 24.46 338.442 26.132C338.442 28.108 337.53 28.564 337.074 28.564C335.706 28.564 334.946 27.728 334.034 25.676C332.59 22.56 331.526 22.028 330.918 22.028C326.586 22.028 322.406 22.256 321.342 22.256C320.962 22.256 320.354 23.092 320.354 23.396C320.278 24.84 320.126 30.312 320.126 35.556C320.126 36.772 320.354 37.532 320.734 37.608C321.57 37.836 324.23 37.76 325.598 37.684C329.018 37.456 330.082 36.24 330.918 34.34C331.374 33.2 332.134 32.288 332.97 32.288C334.034 32.288 334.718 33.352 334.566 35.556C334.49 36.468 334.414 38.216 334.414 39.964C334.414 41.712 334.566 43.46 334.642 44.6C334.794 46.652 333.654 47.564 332.894 47.564C332.21 47.564 331.222 46.728 330.538 45.208C329.778 43.46 329.55 42.928 327.954 42.776C324.838 42.548 324.382 42.396 320.962 42.396C320.582 42.396 320.126 43.46 320.126 45.36C320.126 47.412 320.354 51.82 320.43 53.492C320.582 55.696 320.886 56.532 321.114 56.836C321.874 57.976 325.522 58.964 329.17 58.964C330.386 58.964 332.514 58.736 334.262 57.748C335.706 56.988 336.466 56.076 338.138 53.796C339.354 52.124 340.19 50.3 341.406 50.3C342.85 50.3 343.306 52.504 343.002 54.1C342.546 56.304 340.722 61.396 340.418 62.08C340.19 62.612 338.594 63.448 338.138 63.448C337.15 63.448 334.11 63.068 320.278 63.068C315.49 63.068 305.914 63.372 302.646 63.372C301.05 63.372 299.91 62.764 299.91 62.156C299.91 61.244 300.518 60.18 302.114 59.724C307.358 58.28 307.51 56.532 307.662 55.164C307.966 51.516 308.042 49.92 308.042 38.216C308.042 26.512 307.89 26.056 307.662 24.688C307.282 22.408 306.294 21.572 303.254 20.812C301.278 20.356 300.974 19.292 300.974 18.76C300.974 17.772 302.494 17.24 303.482 17.24C304.774 17.24 313.21 17.62 318.226 17.62ZM363.166 18.988C363.166 17.924 364.534 17.24 367.042 17.24C369.398 17.24 375.098 17.62 377.606 17.62C380.95 17.62 384.522 17.392 385.586 17.392C387.562 17.392 388.93 18.456 388.93 19.216C388.93 20.128 387.182 21.116 386.042 21.42C382.622 22.332 382.166 23.32 381.938 26.892C381.634 30.996 381.634 36.62 382.014 43.156C382.394 49.768 383.838 53.264 385.434 54.632C387.562 56.456 390.678 57.824 393.87 57.824C399.722 57.824 404.434 55.012 405.422 46.804C405.802 43.764 405.878 35.556 405.878 31.148C405.878 23.244 405.802 22.636 400.406 21.344C398.886 20.964 397.594 20.356 397.594 19.064C397.594 18.456 398.658 17.392 400.71 17.392C402.23 17.392 404.662 17.62 407.55 17.62C410.286 17.62 413.402 17.24 416.062 17.24C417.506 17.24 419.026 17.696 419.026 18.988C419.026 19.976 417.734 20.736 416.214 21.268C412.718 22.56 412.186 23.168 411.73 26.892C411.578 27.804 411.274 34.188 410.97 40.04C410.286 52.352 407.778 56.228 404.054 59.876C400.938 62.916 395.618 64.436 390.374 64.436C384.218 64.436 377.606 62.536 374.414 58.28C370.158 52.656 369.854 46.804 369.854 38.14C369.854 29.02 369.702 27.88 369.55 25.6C369.322 22.56 368.79 22.18 365.978 21.344C364.458 20.888 363.166 20.28 363.166 18.988ZM421.555 18.456C421.555 17.924 422.163 17.164 423.531 17.164C426.571 17.164 432.651 17.772 437.515 17.772C438.199 17.772 439.263 18.304 439.491 18.608C440.783 20.356 443.139 22.864 446.787 26.816C450.815 31.148 462.899 43.916 464.571 44.828C464.799 44.904 465.407 44.752 465.483 44.524C465.939 42.472 465.939 35.176 465.711 29.932C465.483 24.764 465.863 22.788 459.935 21.42C458.111 20.964 457.427 19.672 457.427 19.216C457.427 18.684 458.263 17.544 460.087 17.544C462.823 17.544 462.671 17.62 464.647 17.62C467.763 17.62 473.539 17.24 475.059 17.24C476.655 17.24 477.719 17.696 477.719 18.988C477.719 19.824 477.111 20.356 474.679 21.42C471.563 22.788 471.107 23.624 471.031 24.612C470.879 28.108 470.271 43.764 470.271 48.856C470.271 52.2 470.575 55.544 470.575 59.04C470.575 62.232 469.967 64.588 468.599 64.588C466.167 64.588 464.191 63.22 462.747 61.548C459.935 58.356 456.363 54.176 454.235 51.82C451.347 48.476 439.491 35.86 436.147 32.212C435.919 31.984 435.387 32.44 435.387 32.744C435.311 34.416 435.159 34.644 435.159 37.912C435.159 41.332 435.311 48.172 435.387 50.224C435.615 56.152 436.603 57.976 439.263 59.04C441.847 60.028 442.683 60.864 442.683 61.928C442.683 62.84 441.847 63.372 440.099 63.372C437.971 63.372 435.387 63.068 431.815 63.068C428.243 63.068 426.343 63.372 425.355 63.372C423.075 63.372 422.315 62.536 422.315 61.776C422.315 60.788 423.227 60.104 424.595 59.648C428.091 58.508 429.459 58.28 429.839 53.188C430.219 48.096 430.827 29.932 430.827 27.5C430.827 27.044 430.447 25.448 429.459 24.308C427.863 22.484 426.495 21.572 424.747 21.192C422.999 20.812 421.555 19.9 421.555 18.456ZM505.271 17.088C512.567 17.088 520.091 18.684 525.715 23.396C532.099 28.792 533.391 35.556 533.391 40.268C533.391 51.896 525.639 57.9 521.535 60.18C516.139 63.068 510.439 63.676 504.815 63.676C501.699 63.676 493.415 63.068 490.983 63.068C488.551 63.068 485.131 63.068 481.483 63.372C480.875 63.448 480.267 62.916 480.267 62.384C480.267 61.548 481.407 59.724 483.307 59.192C485.739 58.508 487.031 58.736 487.639 55.316C488.171 52.352 488.171 48.552 488.171 38.52C488.171 28.108 488.323 26.816 487.791 24.156C487.639 23.32 487.487 22.18 483.915 21.42C482.091 21.04 481.027 20.204 481.027 19.14C481.027 18 482.243 17.544 484.447 17.544L489.691 17.62C492.351 17.696 499.951 17.088 505.271 17.088ZM505.271 21.116C504.663 21.116 502.155 21.42 501.623 21.724C501.319 21.876 500.559 23.32 500.559 23.624C500.407 26.208 500.103 29.476 500.103 35.176V40.648C500.103 50.376 500.407 51.592 500.635 53.872C500.787 55.468 501.623 57.064 502.535 57.824C503.371 58.508 506.107 59.8 507.095 59.8C507.931 59.8 512.035 58.888 515.379 55.696C518.799 52.428 520.243 46.044 520.243 40.952C520.243 35.404 518.799 29.704 514.923 25.904C511.579 22.56 507.703 21.116 505.271 21.116ZM556.617 17.62H564.445C571.361 17.62 572.425 17.62 574.173 17.24C575.009 17.088 575.541 17.544 575.769 17.924C576.225 18.684 576.833 24.46 576.833 26.132C576.833 28.108 575.921 28.564 575.465 28.564C574.097 28.564 573.337 27.728 572.425 25.676C570.981 22.56 569.917 22.028 569.309 22.028C564.977 22.028 560.797 22.256 559.733 22.256C559.353 22.256 558.745 23.092 558.745 23.396C558.669 24.84 558.517 30.312 558.517 35.556C558.517 36.772 558.745 37.532 559.125 37.608C559.961 37.836 562.621 37.76 563.989 37.684C567.409 37.456 568.473 36.24 569.309 34.34C569.765 33.2 570.525 32.288 571.361 32.288C572.425 32.288 573.109 33.352 572.957 35.556C572.881 36.468 572.805 38.216 572.805 39.964C572.805 41.712 572.957 43.46 573.033 44.6C573.185 46.652 572.045 47.564 571.285 47.564C570.601 47.564 569.613 46.728 568.929 45.208C568.169 43.46 567.941 42.928 566.345 42.776C563.229 42.548 562.773 42.396 559.353 42.396C558.973 42.396 558.517 43.46 558.517 45.36C558.517 47.412 558.745 51.82 558.821 53.492C558.973 55.696 559.277 56.532 559.505 56.836C560.265 57.976 563.913 58.964 567.561 58.964C568.777 58.964 570.905 58.736 572.653 57.748C574.097 56.988 574.857 56.076 576.529 53.796C577.745 52.124 578.581 50.3 579.797 50.3C581.241 50.3 581.697 52.504 581.393 54.1C580.937 56.304 579.113 61.396 578.809 62.08C578.581 62.612 576.985 63.448 576.529 63.448C575.541 63.448 572.501 63.068 558.669 63.068C553.881 63.068 544.305 63.372 541.037 63.372C539.441 63.372 538.301 62.764 538.301 62.156C538.301 61.244 538.909 60.18 540.505 59.724C545.749 58.28 545.901 56.532 546.053 55.164C546.357 51.516 546.433 49.92 546.433 38.216C546.433 26.512 546.281 26.056 546.053 24.688C545.673 22.408 544.685 21.572 541.645 20.812C539.669 20.356 539.365 19.292 539.365 18.76C539.365 17.772 540.885 17.24 541.873 17.24C543.165 17.24 551.601 17.62 556.617 17.62ZM629.706 29.552C629.706 32.44 628.262 35.708 626.286 37.38C625.146 38.368 624.082 38.596 622.486 39.508C622.106 39.736 622.486 41.18 622.714 41.636C624.386 44.98 627.806 50.604 630.694 54.252C633.354 57.596 635.71 58.888 638.066 59.8C638.826 60.104 639.814 60.788 639.814 61.472C639.814 63.448 637.382 64.056 635.33 64.056C629.25 64.056 623.398 63.448 618.078 56.532C615.342 52.96 613.29 49.16 611.162 45.74C609.946 43.764 608.882 43.384 607.666 43.384C607.134 43.384 607.058 44.296 607.058 44.524C607.058 50.604 607.058 52.428 607.286 55.088C607.514 57.824 608.274 57.9 611.314 59.344C612.682 60.028 613.594 60.864 613.594 61.472C613.594 62.308 611.998 63.372 610.706 63.372C608.806 63.372 602.954 63.068 600.294 63.068C597.938 63.068 594.366 63.372 591.554 63.372C589.73 63.372 588.666 62.46 588.666 61.7C588.666 60.636 589.73 59.876 591.174 59.496C594.29 58.584 595.05 57.976 595.202 54.176C595.278 51.44 595.278 50.072 595.278 36.392C595.278 27.044 595.05 26.588 594.898 24.992C594.746 23.472 594.062 21.952 591.174 21.42C589.73 21.116 588.818 19.976 588.818 19.444C588.818 18.152 590.338 17.468 592.162 17.468C596.038 17.468 597.33 17.62 598.318 17.62C603.334 17.62 607.514 17.164 612.834 17.164C619.522 17.164 623.018 18.608 624.842 19.976C628.11 22.484 629.706 25.524 629.706 29.552ZM618.002 30.844C618.002 26.056 614.734 21.344 609.262 21.344C608.958 21.344 607.818 21.648 607.362 21.952C607.134 22.104 606.906 22.484 606.906 23.168C606.906 25.296 607.058 32.364 607.058 37.456C607.058 37.76 607.362 38.672 607.666 38.824C608.73 39.28 609.718 39.508 611.01 39.508C612.682 39.508 615.418 37.76 615.874 37.456C616.33 37.152 618.002 34.492 618.002 30.844ZM634.428 18.532C634.428 17.848 636.1 17.088 637.164 17.088C641.344 17.088 648.184 17.62 649.552 17.62C652.288 17.62 653.2 17.468 657 17.468C658.976 17.468 659.888 18.684 659.888 19.14C659.888 20.356 658.52 21.192 657.304 21.42C654.644 21.876 654.112 23.016 654.644 25.068C655.252 27.12 662.168 44.22 663.308 46.272C663.536 46.652 663.916 46.576 664.22 46.348C666.044 41.636 667.336 39.432 670.224 30.54C670.452 29.856 670.224 28.564 669.92 27.424C669.844 26.892 669.464 26.132 668.932 24.688C668.476 23.396 666.272 21.8 665.284 21.496C663.992 21.116 662.472 20.432 662.472 19.064C662.472 18.076 663.916 17.392 665.132 17.392C669.008 17.392 672.124 17.62 674.1 17.62C676 17.62 678.66 17.392 683.448 17.392C684.892 17.392 686.336 18.152 686.336 19.064C686.336 19.824 685.348 20.964 684.056 21.344C681.472 22.028 681.092 22.864 681.092 23.852C681.092 24.916 681.244 25.372 681.776 27.12C683.524 32.744 688.312 44.372 689.604 46.804C689.832 47.26 690.136 47.26 690.364 46.88C691.58 44.524 695 35.708 696.9 30.236C698.268 26.056 698.268 25.448 698.268 24.308C698.268 22.94 696.292 21.952 694.772 21.496C693.48 21.116 692.34 20.204 692.34 19.14C692.34 18.684 693.1 17.392 695 17.392C697.432 17.392 697.964 17.62 700.396 17.62C702.904 17.62 707.008 17.24 709.212 17.24C710.656 17.24 712.252 17.544 712.252 19.064C712.252 19.9 710.58 21.116 709.82 21.344C705.488 22.636 704.196 25.296 702.752 28.564C701.156 32.136 696.292 42.776 693.404 50.984C692.72 52.884 691.352 56.684 690.44 58.888C689.528 61.092 686.944 64.588 685.576 64.588C683.752 64.588 682.308 61.776 681.472 59.572C679.268 53.872 674.252 40.572 672.808 37.684C672.656 37.38 672.124 37.532 671.972 37.836C669.844 43.308 665.36 53.112 664.524 56.152C664.448 56.304 663.688 58.28 662.396 60.636C662.016 61.32 660.42 64.664 659.356 64.664C657.532 64.664 656.468 62.916 656.012 61.7C655.1 58.964 654.264 56.456 653.048 52.96C650.16 44.98 646.208 36.012 643.244 28.336C641.116 22.788 640.128 22.028 637.088 20.964C635.34 20.356 634.428 19.748 634.428 18.532ZM739.388 16.1C755.196 16.1 765.836 26.74 765.836 40.344C765.836 49.844 760.212 57.292 753.068 61.244C749.8 63.068 744.48 64.436 739.616 64.436C723.58 64.436 713.092 53.492 713.092 40.344C713.092 34.492 715.296 28.716 720.008 24.004C724.948 19.064 732.244 16.1 739.388 16.1ZM738.02 20.052C734.448 20.052 731.256 23.092 731.18 23.168C727.988 26.664 726.62 31.832 726.62 38.976C726.62 49.312 731.332 60.56 741.592 60.56C744.176 60.56 747.216 58.28 747.596 57.976C750.028 55.696 752.004 50.908 752.004 40.876C752.004 32.896 748.052 20.052 738.02 20.052ZM813.694 29.552C813.694 32.44 812.25 35.708 810.274 37.38C809.134 38.368 808.07 38.596 806.474 39.508C806.094 39.736 806.474 41.18 806.702 41.636C808.374 44.98 811.794 50.604 814.682 54.252C817.342 57.596 819.698 58.888 822.054 59.8C822.814 60.104 823.802 60.788 823.802 61.472C823.802 63.448 821.37 64.056 819.318 64.056C813.238 64.056 807.386 63.448 802.066 56.532C799.33 52.96 797.278 49.16 795.15 45.74C793.934 43.764 792.87 43.384 791.654 43.384C791.122 43.384 791.046 44.296 791.046 44.524C791.046 50.604 791.046 52.428 791.274 55.088C791.502 57.824 792.262 57.9 795.302 59.344C796.67 60.028 797.582 60.864 797.582 61.472C797.582 62.308 795.986 63.372 794.694 63.372C792.794 63.372 786.942 63.068 784.282 63.068C781.926 63.068 778.354 63.372 775.542 63.372C773.718 63.372 772.654 62.46 772.654 61.7C772.654 60.636 773.718 59.876 775.162 59.496C778.278 58.584 779.038 57.976 779.19 54.176C779.266 51.44 779.266 50.072 779.266 36.392C779.266 27.044 779.038 26.588 778.886 24.992C778.734 23.472 778.05 21.952 775.162 21.42C773.718 21.116 772.806 19.976 772.806 19.444C772.806 18.152 774.326 17.468 776.15 17.468C780.026 17.468 781.318 17.62 782.306 17.62C787.322 17.62 791.502 17.164 796.822 17.164C803.51 17.164 807.006 18.608 808.83 19.976C812.098 22.484 813.694 25.524 813.694 29.552ZM801.99 30.844C801.99 26.056 798.722 21.344 793.25 21.344C792.946 21.344 791.806 21.648 791.35 21.952C791.122 22.104 790.894 22.484 790.894 23.168C790.894 25.296 791.046 32.364 791.046 37.456C791.046 37.76 791.35 38.672 791.654 38.824C792.718 39.28 793.706 39.508 794.998 39.508C796.67 39.508 799.406 37.76 799.862 37.456C800.318 37.152 801.99 34.492 801.99 30.844ZM826.311 18.988C826.311 17.772 827.755 17.468 828.743 17.468C829.123 17.468 835.735 17.62 838.775 17.62C841.815 17.62 847.743 17.392 849.263 17.392C850.859 17.392 851.771 18.152 851.771 19.064C851.771 19.976 850.783 20.736 849.187 21.04C844.931 21.952 844.703 23.624 844.627 25.22C844.475 26.968 844.171 31.224 844.171 37.76C844.171 45.74 844.399 53.036 844.551 55.62C844.627 56.76 846.451 58.356 849.339 59.04C850.403 59.268 852.911 59.344 855.647 58.812C857.927 58.356 861.727 53.872 863.323 50.984C864.083 49.54 864.919 49.008 865.147 49.008C866.515 49.008 867.427 50.604 867.047 51.972C866.515 53.872 865.071 59.876 864.539 61.396C864.083 62.536 862.715 63.296 861.195 63.296C858.535 63.296 850.479 63.068 841.055 63.068C835.887 63.068 828.287 63.448 826.615 63.448C824.943 63.448 823.651 62.612 823.651 61.548C823.651 60.484 824.791 59.952 826.083 59.724C831.175 58.736 831.707 56.912 831.859 55.164C832.011 52.884 832.163 49.692 832.163 40.648C832.163 26.892 832.239 27.044 832.087 24.992C831.859 22.484 831.023 22.104 828.515 21.04C826.919 20.356 826.311 19.824 826.311 18.988ZM895.439 17.088C902.735 17.088 910.259 18.684 915.883 23.396C922.267 28.792 923.559 35.556 923.559 40.268C923.559 51.896 915.807 57.9 911.703 60.18C906.307 63.068 900.607 63.676 894.983 63.676C891.867 63.676 883.583 63.068 881.151 63.068C878.719 63.068 875.299 63.068 871.651 63.372C871.043 63.448 870.435 62.916 870.435 62.384C870.435 61.548 871.575 59.724 873.475 59.192C875.907 58.508 877.199 58.736 877.807 55.316C878.339 52.352 878.339 48.552 878.339 38.52C878.339 28.108 878.491 26.816 877.959 24.156C877.807 23.32 877.655 22.18 874.083 21.42C872.259 21.04 871.195 20.204 871.195 19.14C871.195 18 872.411 17.544 874.615 17.544L879.859 17.62C882.519 17.696 890.119 17.088 895.439 17.088ZM895.439 21.116C894.831 21.116 892.323 21.42 891.791 21.724C891.487 21.876 890.727 23.32 890.727 23.624C890.575 26.208 890.271 29.476 890.271 35.176V40.648C890.271 50.376 890.575 51.592 890.803 53.872C890.955 55.468 891.791 57.064 892.703 57.824C893.539 58.508 896.275 59.8 897.263 59.8C898.099 59.8 902.203 58.888 905.547 55.696C908.967 52.428 910.411 46.044 910.411 40.952C910.411 35.404 908.967 29.704 905.091 25.904C901.747 22.56 897.871 21.116 895.439 21.116Z" fill="white"/>
<path d="M221.2 85.0717C242.913 85.0717 257.528 99.6863 257.528 118.372C257.528 131.421 249.803 141.651 239.99 147.079C235.502 149.585 228.194 151.464 221.513 151.464C199.487 151.464 185.081 136.432 185.081 118.372C185.081 110.334 188.109 102.4 194.581 95.9283C201.366 89.1429 211.388 85.0717 221.2 85.0717ZM219.321 90.5C214.415 90.5 210.031 94.6756 209.926 94.78C205.542 99.5819 203.663 106.68 203.663 116.493C203.663 130.69 210.135 146.14 224.228 146.14C227.777 146.14 231.952 143.008 232.474 142.591C235.815 139.459 238.529 132.882 238.529 119.103C238.529 108.142 233.101 90.5 219.321 90.5ZM284.952 87.1595H301.759C315.225 87.1595 317.522 86.5332 317.94 86.5332C318.879 86.5332 319.923 87.6814 319.923 88.621V98.8512C319.923 101.774 318.253 103.444 317 103.444C316.165 103.444 314.912 101.983 314.286 99.7907C313.555 97.3897 312.094 93.5273 308.44 93.2141C305.517 93.0053 297.375 93.0053 294.139 93.0053C292.99 93.0053 292.26 94.78 292.155 95.9283C291.842 99.6863 291.738 111.274 291.946 114.197C292.051 115.345 292.364 115.971 293.304 115.971C295.496 115.971 299.671 115.762 302.49 115.449C305.83 115.032 306.144 114.197 307.501 111.169C308.023 110.021 309.38 107.933 310.632 107.933C312.094 107.933 312.72 109.917 312.72 111.691C312.72 114.718 312.303 117.433 312.303 119.207C312.303 121.191 312.72 125.575 312.72 126.41C312.72 128.08 311.572 129.959 310.006 129.959C309.171 129.959 308.127 128.915 307.292 127.245C305.622 124.009 305.308 122.861 302.907 122.548C301.759 122.339 300.193 122.13 293.095 122.13C292.677 122.13 292.051 123.592 291.946 124.844C291.738 128.394 291.738 135.283 291.946 137.58C292.364 142.069 293.721 143.321 298.836 144.678C301.55 145.409 302.385 146.662 302.385 147.706C302.385 148.75 300.611 150.107 298.627 150.107C292.051 150.107 287.249 149.585 283.073 149.585C280.881 149.585 277.332 150.002 269.294 150.002C267.519 150.002 265.953 149.167 265.953 147.81C265.953 146.662 267.206 145.409 269.294 144.887C273.261 143.948 274.722 142.069 274.931 139.25C275.244 136.118 275.348 132.987 275.348 119.103C275.348 103.444 275.348 101.148 275.14 97.4941C274.931 94.1536 273.574 93.0053 269.607 91.857C267.728 91.3351 266.162 90.7088 266.162 88.9341C266.162 87.4727 268.876 86.8463 270.025 86.8463C278.167 86.9507 280.881 87.1595 284.952 87.1595ZM375.441 111.378C375.441 112.839 376.276 113.988 377.006 113.988C395.275 113.988 398.824 113.883 400.807 113.988C401.225 113.988 402.06 112.422 402.06 112.004C402.06 104.906 402.06 99.06 401.642 96.5546C401.329 94.6756 401.12 93.6317 396.632 92.4834C392.769 91.4395 392.143 89.8736 392.143 89.1429C392.143 88.099 394.022 86.8463 396.214 86.8463C400.494 86.8463 403.417 87.1595 407.384 87.1595C411.455 87.1595 421.894 86.8463 423.982 86.8463C426.07 86.8463 427.322 87.8902 427.322 89.1429C427.322 90.2912 426.07 91.4395 423.356 92.0658C420.119 92.7966 419.389 94.3624 419.076 96.8678C418.658 99.8951 418.554 108.037 418.554 117.119C418.554 130.064 418.867 133.717 419.076 137.58C419.389 142.591 421.163 143.426 424.399 144.261C427.322 144.992 428.366 146.244 428.366 147.393C428.366 148.75 426.696 149.898 424.399 149.898C422.416 149.898 418.449 149.585 414.587 149.585C409.159 149.585 400.181 150.107 397.049 150.107C394.961 150.107 392.978 149.272 392.978 147.601C392.978 146.557 393.918 145.722 397.154 144.47C401.016 143.008 401.434 140.712 401.747 139.041C402.269 135.805 402.478 127.35 402.06 123.696C401.747 121.086 400.807 120.877 400.703 120.877C392.978 120.877 378.155 121.191 376.693 121.191C375.962 121.191 375.441 123.278 375.441 123.8C375.441 126.619 375.545 136.745 375.649 138.311C375.962 141.86 376.38 143.53 381.6 144.783C382.852 145.096 384.94 146.453 384.94 147.81C384.94 149.585 383.479 150.002 380.869 150.002C377.842 150.002 370.325 149.585 365.837 149.585C362.496 149.585 356.442 150.107 353.31 150.107C351.118 150.107 349.343 148.958 349.343 147.706C349.343 146.557 351.222 145.409 353.101 144.678C357.485 142.904 358.321 141.964 358.529 137.475C358.843 132.882 358.843 121.295 358.843 106.263C358.843 98.4336 358.529 97.7029 358.321 96.4502C357.903 94.0492 356.65 92.5878 351.848 91.4395C350.7 91.1263 349.552 90.1868 349.552 89.0385C349.552 87.8902 351.848 86.7419 353.832 86.7419C358.947 86.7419 366.15 87.1595 368.968 87.1595C372.204 87.1595 374.292 86.9507 377.946 86.9507C379.616 86.9507 381.704 87.4727 381.704 89.3517C381.704 90.9175 379.199 91.857 377.946 92.2746C376.276 92.9009 375.441 94.9887 375.441 97.5985C375.441 100.835 375.441 104.697 375.441 111.378ZM432.826 88.9341C432.826 87.3683 435.332 86.6375 436.585 86.6375C438.568 86.6375 450.99 87.1595 453.913 87.1595C458.089 87.1595 461.951 86.9507 463.726 86.9507C465.605 86.9507 467.066 87.9946 467.066 89.1429C467.066 89.7692 466.127 91.1263 463.517 92.1702C461.325 93.1097 461.429 93.9448 462.473 96.2414C465.814 103.236 471.138 112.004 472.808 114.823C473.225 115.449 474.061 115.345 474.582 114.927C475.731 113.883 481.681 102.4 483.56 98.2248C485.335 94.4668 484.708 93.4229 480.846 92.0658C479.28 91.5439 477.505 90.6044 477.505 89.2473C477.505 87.7858 479.384 86.9507 481.577 86.9507C486.274 86.9507 486.17 87.1595 488.78 87.1595C492.746 87.1595 497.548 86.7419 501.202 86.7419C502.977 86.7419 504.229 87.8902 504.229 88.8297C504.229 90.0824 502.663 91.3351 500.68 91.9614C497.235 93.1097 494.312 94.78 491.076 99.1643C486.483 105.428 479.176 116.911 477.088 121.504C476.462 122.861 476.462 124.009 476.357 126.201C476.148 129.751 476.148 136.64 476.148 139.668C476.462 142.277 479.176 143.426 483.351 144.887C485.23 145.514 486.17 146.557 486.17 147.706C486.17 148.75 484.604 150.211 482.516 150.211C478.445 150.211 474.791 149.585 468.423 149.585C459.55 149.585 458.402 149.898 454.644 149.898C451.617 149.898 449.946 148.958 449.946 147.288C449.946 146.14 451.721 144.783 454.54 144.052C457.984 143.217 458.924 142.591 459.237 137.267C459.446 133.822 459.446 127.767 459.446 125.679C459.446 123.905 459.028 122.235 457.358 119.312C452.869 110.96 447.545 101.774 444.309 97.3897C442.744 95.1975 440.969 93.1097 436.793 91.9614C434.079 91.2307 432.826 90.2912 432.826 88.9341ZM541.566 86.4288C551.587 86.4288 561.922 88.621 569.647 95.0931C578.415 102.505 580.19 111.796 580.19 118.268C580.19 134.239 569.542 142.486 563.905 145.618C556.494 149.585 548.664 150.42 540.939 150.42C536.659 150.42 525.281 149.585 521.94 149.585C518.6 149.585 513.902 149.585 508.892 150.002C508.057 150.107 507.221 149.376 507.221 148.645C507.221 147.497 508.787 144.992 511.397 144.261C514.738 143.321 516.512 143.634 517.347 138.937C518.078 134.866 518.078 129.646 518.078 115.867C518.078 101.565 518.287 99.7907 517.556 96.137C517.347 94.9887 517.139 93.4229 512.232 92.379C509.727 91.857 508.265 90.7088 508.265 89.2473C508.265 87.6814 509.936 87.0551 512.963 87.0551L520.166 87.1595C523.819 87.2639 534.258 86.4288 541.566 86.4288ZM541.566 91.9614C540.731 91.9614 537.286 92.379 536.555 92.7966C536.138 93.0053 535.094 94.9887 535.094 95.4063C534.885 98.9556 534.467 103.444 534.467 111.274V118.79C534.467 132.152 534.885 133.822 535.198 136.954C535.407 139.146 536.555 141.338 537.808 142.382C538.956 143.321 542.714 145.096 544.071 145.096C545.219 145.096 550.857 143.843 555.45 139.459C560.147 134.97 562.131 126.201 562.131 119.207C562.131 111.587 560.147 103.758 554.823 98.538C550.23 93.9448 544.906 91.9614 541.566 91.9614ZM645.914 103.549C645.914 107.516 643.931 112.004 641.217 114.301C639.651 115.658 638.189 115.971 635.997 117.224C635.475 117.537 635.997 119.52 636.31 120.147C638.607 124.74 643.304 132.465 647.271 137.475C650.925 142.069 654.161 143.843 657.397 145.096C658.441 145.514 659.798 146.453 659.798 147.393C659.798 150.107 656.458 150.942 653.639 150.942C645.288 150.942 637.25 150.107 629.943 140.607C626.184 135.701 623.366 130.481 620.443 125.784C618.773 123.07 617.311 122.548 615.641 122.548C614.91 122.548 614.806 123.8 614.806 124.114C614.806 132.465 614.806 134.97 615.119 138.624C615.432 142.382 616.476 142.486 620.652 144.47C622.531 145.409 623.784 146.557 623.784 147.393C623.784 148.541 621.591 150.002 619.817 150.002C617.207 150.002 609.169 149.585 605.515 149.585C602.279 149.585 597.373 150.002 593.51 150.002C591.005 150.002 589.544 148.75 589.544 147.706C589.544 146.244 591.005 145.2 592.988 144.678C597.268 143.426 598.312 142.591 598.521 137.371C598.626 133.613 598.626 131.734 598.626 112.944C598.626 100.104 598.312 99.4775 598.104 97.2853C597.895 95.1975 596.955 93.1097 592.988 92.379C591.005 91.9614 589.752 90.3956 589.752 89.6649C589.752 87.8902 591.84 86.9507 594.346 86.9507C599.669 86.9507 601.444 87.1595 602.801 87.1595C609.691 87.1595 615.432 86.5332 622.74 86.5332C631.926 86.5332 636.728 88.5166 639.233 90.3956C643.722 93.8405 645.914 98.0161 645.914 103.549ZM629.838 105.323C629.838 98.7468 625.349 92.2746 617.833 92.2746C617.416 92.2746 615.85 92.6922 615.224 93.1097C614.91 93.3185 614.597 93.8405 614.597 94.78C614.597 97.7029 614.806 107.411 614.806 114.405C614.806 114.823 615.224 116.076 615.641 116.284C617.103 116.911 618.46 117.224 620.234 117.224C622.531 117.224 626.289 114.823 626.915 114.405C627.542 113.988 629.838 110.334 629.838 105.323ZM699.213 85.0717C720.926 85.0717 735.54 99.6863 735.54 118.372C735.54 131.421 727.816 141.651 718.003 147.079C713.514 149.585 706.207 151.464 699.526 151.464C677.5 151.464 663.094 136.432 663.094 118.372C663.094 110.334 666.121 102.4 672.593 95.9283C679.379 89.1429 689.4 85.0717 699.213 85.0717ZM697.334 90.5C692.427 90.5 688.043 94.6756 687.939 94.78C683.554 99.5819 681.675 106.68 681.675 116.493C681.675 130.69 688.147 146.14 702.24 146.14C705.789 146.14 709.965 143.008 710.487 142.591C713.827 139.459 716.541 132.882 716.541 119.103C716.541 108.142 711.113 90.5 697.334 90.5ZM764.232 87.1595H796.175C802.021 87.1595 804.631 86.4288 805.049 85.9068C806.301 84.341 807.45 83.4015 808.18 83.4015C808.807 83.4015 811.521 85.0717 811.521 86.7419C811.521 87.4727 810.268 94.0492 810.268 101.043C810.268 103.131 808.702 105.428 806.719 105.428C805.257 105.428 804.422 102.818 804.213 101.878C802.648 94.9887 800.873 94.78 797.115 94.3624C795.549 94.1536 795.236 93.8405 786.363 93.8405C785.841 93.8405 785.528 94.6756 785.423 95.7195C785.319 97.1809 784.693 111.274 784.693 117.85C784.693 124.218 784.588 131.108 784.901 134.866C785.528 142.486 787.302 142.799 791.582 144.365C793.461 145.096 795.236 146.035 795.236 147.288C795.236 149.585 792.731 150.107 790.643 150.107C789.599 150.107 778.116 149.585 771.853 149.585C768.825 149.585 763.188 149.898 760.37 149.898C758.177 149.898 756.09 148.958 756.09 147.079C756.09 146.244 757.134 144.783 759.535 144.156C766.007 142.382 767.781 141.025 767.781 135.283C767.781 133.091 767.99 119.207 767.99 112.422C767.99 105.95 768.095 99.06 768.095 95.8239C768.095 94.9887 767.051 93.8405 766.737 93.8405C764.128 93.8405 760.265 93.8405 757.551 93.9448C754.628 94.0492 751.81 94.0492 748.991 101.878C748.365 103.653 747.112 105.01 745.964 105.01C744.607 105.01 743.041 103.131 743.041 100.626C743.041 97.3897 744.189 92.6922 744.189 86.9507C744.189 85.1761 745.755 83.6102 747.008 83.6102C747.321 83.6102 748.574 84.2366 749.304 84.7585C751.079 86.22 752.645 86.8463 755.672 86.9507C759.952 87.1595 760.892 87.1595 764.232 87.1595ZM845.196 111.378C845.196 112.839 846.031 113.988 846.761 113.988C865.03 113.988 868.579 113.883 870.562 113.988C870.98 113.988 871.815 112.422 871.815 112.004C871.815 104.906 871.815 99.06 871.397 96.5546C871.084 94.6756 870.875 93.6317 866.387 92.4834C862.524 91.4395 861.898 89.8736 861.898 89.1429C861.898 88.099 863.777 86.8463 865.969 86.8463C870.249 86.8463 873.172 87.1595 877.139 87.1595C881.21 87.1595 891.649 86.8463 893.737 86.8463C895.825 86.8463 897.077 87.8902 897.077 89.1429C897.077 90.2912 895.825 91.4395 893.111 92.0658C889.874 92.7966 889.144 94.3624 888.831 96.8678C888.413 99.8951 888.309 108.037 888.309 117.119C888.309 130.064 888.622 133.717 888.831 137.58C889.144 142.591 890.918 143.426 894.154 144.261C897.077 144.992 898.121 146.244 898.121 147.393C898.121 148.75 896.451 149.898 894.154 149.898C892.171 149.898 888.204 149.585 884.342 149.585C878.914 149.585 869.936 150.107 866.804 150.107C864.716 150.107 862.733 149.272 862.733 147.601C862.733 146.557 863.673 145.722 866.909 144.47C870.771 143.008 871.189 140.712 871.502 139.041C872.024 135.805 872.233 127.35 871.815 123.696C871.502 121.086 870.562 120.877 870.458 120.877C862.733 120.877 847.91 121.191 846.448 121.191C845.718 121.191 845.196 123.278 845.196 123.8C845.196 126.619 845.3 136.745 845.404 138.311C845.718 141.86 846.135 143.53 851.355 144.783C852.607 145.096 854.695 146.453 854.695 147.81C854.695 149.585 853.234 150.002 850.624 150.002C847.597 150.002 840.08 149.585 835.592 149.585C832.251 149.585 826.197 150.107 823.065 150.107C820.873 150.107 819.098 148.958 819.098 147.706C819.098 146.557 820.977 145.409 822.856 144.678C827.24 142.904 828.076 141.964 828.284 137.475C828.598 132.882 828.598 121.295 828.598 106.263C828.598 98.4336 828.284 97.7029 828.076 96.4502C827.658 94.0492 826.405 92.5878 821.603 91.4395C820.455 91.1263 819.307 90.1868 819.307 89.0385C819.307 87.8902 821.603 86.7419 823.587 86.7419C828.702 86.7419 835.905 87.1595 838.723 87.1595C841.959 87.1595 844.047 86.9507 847.701 86.9507C849.371 86.9507 851.459 87.4727 851.459 89.3517C851.459 90.9175 848.954 91.857 847.701 92.2746C846.031 92.9009 845.196 94.9887 845.196 97.5985C845.196 100.835 845.196 104.697 845.196 111.378ZM929.645 87.1595H940.398C949.897 87.1595 951.359 87.1595 953.76 86.6375C954.908 86.4288 955.639 87.0551 955.952 87.5771C956.578 88.621 957.413 96.5546 957.413 98.8512C957.413 101.565 956.16 102.192 955.534 102.192C953.655 102.192 952.611 101.043 951.359 98.2248C949.375 93.9448 947.914 93.2141 947.079 93.2141C941.128 93.2141 935.387 93.5273 933.925 93.5273C933.403 93.5273 932.568 94.6756 932.568 95.0931C932.464 97.0765 932.255 104.593 932.255 111.796C932.255 113.466 932.568 114.51 933.09 114.614C934.239 114.927 937.892 114.823 939.771 114.718C944.469 114.405 945.93 112.735 947.079 110.125C947.705 108.559 948.749 107.307 949.897 107.307C951.359 107.307 952.298 108.768 952.089 111.796C951.985 113.048 951.881 115.449 951.881 117.85C951.881 120.251 952.089 122.652 952.194 124.218C952.402 127.036 950.837 128.289 949.793 128.289C948.853 128.289 947.496 127.141 946.557 125.053C945.513 122.652 945.2 121.921 943.007 121.713C938.727 121.399 938.101 121.191 933.403 121.191C932.882 121.191 932.255 122.652 932.255 125.262C932.255 128.08 932.568 134.135 932.673 136.432C932.882 139.459 933.299 140.607 933.612 141.025C934.656 142.591 939.667 143.948 944.678 143.948C946.348 143.948 949.271 143.634 951.672 142.277C953.655 141.234 954.699 139.981 956.996 136.849C958.666 134.553 959.814 132.047 961.484 132.047C963.468 132.047 964.094 135.075 963.677 137.267C963.05 140.294 960.545 147.288 960.127 148.228C959.814 148.958 957.622 150.107 956.996 150.107C955.639 150.107 951.463 149.585 932.464 149.585C925.887 149.585 912.734 150.002 908.245 150.002C906.053 150.002 904.487 149.167 904.487 148.332C904.487 147.079 905.323 145.618 907.515 144.992C914.718 143.008 914.926 140.607 915.135 138.728C915.553 133.717 915.657 131.525 915.657 115.449C915.657 99.3731 915.448 98.7468 915.135 96.8678C914.613 93.7361 913.256 92.5878 909.081 91.5439C906.366 90.9175 905.949 89.4561 905.949 88.7253C905.949 87.3683 908.037 86.6375 909.394 86.6375C911.168 86.6375 922.756 87.1595 929.645 87.1595ZM1030.04 103.549C1030.04 107.516 1028.05 112.004 1025.34 114.301C1023.77 115.658 1022.31 115.971 1020.12 117.224C1019.6 117.537 1020.12 119.52 1020.43 120.147C1022.73 124.74 1027.43 132.465 1031.39 137.475C1035.05 142.069 1038.28 143.843 1041.52 145.096C1042.56 145.514 1043.92 146.453 1043.92 147.393C1043.92 150.107 1040.58 150.942 1037.76 150.942C1029.41 150.942 1021.37 150.107 1014.07 140.607C1010.31 135.701 1007.49 130.481 1004.57 125.784C1002.9 123.07 1001.43 122.548 999.764 122.548C999.033 122.548 998.929 123.8 998.929 124.114C998.929 132.465 998.929 134.97 999.242 138.624C999.555 142.382 1000.6 142.486 1004.77 144.47C1006.65 145.409 1007.91 146.557 1007.91 147.393C1007.91 148.541 1005.71 150.002 1003.94 150.002C1001.33 150.002 993.292 149.585 989.638 149.585C986.402 149.585 981.495 150.002 977.633 150.002C975.128 150.002 973.666 148.75 973.666 147.706C973.666 146.244 975.128 145.2 977.111 144.678C981.391 143.426 982.435 142.591 982.644 137.371C982.748 133.613 982.748 131.734 982.748 112.944C982.748 100.104 982.435 99.4775 982.226 97.2853C982.017 95.1975 981.078 93.1097 977.111 92.379C975.128 91.9614 973.875 90.3956 973.875 89.6649C973.875 87.8902 975.963 86.9507 978.468 86.9507C983.792 86.9507 985.567 87.1595 986.924 87.1595C993.813 87.1595 999.555 86.5332 1006.86 86.5332C1016.05 86.5332 1020.85 88.5166 1023.36 90.3956C1027.84 93.8405 1030.04 98.0161 1030.04 103.549ZM1013.96 105.323C1013.96 98.7468 1009.47 92.2746 1001.96 92.2746C1001.54 92.2746 999.973 92.6922 999.346 93.1097C999.033 93.3185 998.72 93.8405 998.72 94.78C998.72 97.7029 998.929 107.411 998.929 114.405C998.929 114.823 999.346 116.076 999.764 116.284C1001.23 116.911 1002.58 117.224 1004.36 117.224C1006.65 117.224 1010.41 114.823 1011.04 114.405C1011.66 113.988 1013.96 110.334 1013.96 105.323ZM1050.49 89.6649C1050.49 88.5166 1052.06 86.7419 1054.35 86.7419C1056.96 86.7419 1073.46 87.1595 1074.08 87.1595C1074.6 87.1595 1076.07 88.9341 1076.17 89.1429C1076.59 90.6044 1077.95 93.1097 1080.14 98.2248C1082.43 103.549 1090.47 121.399 1092.87 124.322C1092.87 124.427 1093.81 124.844 1094.13 124.114C1097.57 116.702 1102.16 107.098 1105.61 99.1643C1107.59 94.5712 1108.32 91.6483 1109.16 89.3517C1109.37 88.7253 1110.51 87.3683 1111.14 87.3683C1112.92 87.3683 1127.95 86.6375 1131.29 86.6375C1132.33 86.6375 1134.73 87.6814 1134.73 89.1429C1134.73 90.3956 1133.79 91.0219 1131.71 91.6483C1125.03 93.6317 1124.82 94.1536 1124.82 96.8678C1124.82 111.691 1125.55 123.696 1125.96 134.553C1126.28 143.113 1128.47 143.739 1132.02 144.574C1135.26 145.305 1136.3 146.453 1136.3 147.706C1136.3 148.75 1134.32 150.211 1132.12 150.211C1130.87 150.211 1119.18 149.585 1114.17 149.585C1109.47 149.585 1106.86 150.002 1104.36 150.002C1101.75 150.002 1101.02 147.81 1101.02 147.079C1101.02 146.244 1102.69 145.409 1103.21 145.2C1108.32 143.426 1109.26 142.173 1109.37 136.432C1109.47 133.717 1109.26 114.927 1109.58 104.906C1109.58 104.384 1108.84 104.488 1108.32 105.428C1106.97 107.933 1097.88 129.751 1095.69 134.97C1094.54 137.684 1092.87 142.695 1091.41 146.244C1090.37 148.645 1088.49 150.315 1086.19 150.315C1085.25 150.315 1083.69 148.541 1083.16 146.766C1081.6 141.651 1079.51 136.64 1078.57 133.926C1073.98 120.982 1069.8 113.048 1067.19 106.68C1066.78 105.637 1065.94 105.845 1065.94 106.576C1065.11 118.581 1064.58 130.586 1064.58 135.91C1064.58 142.173 1065.31 142.486 1070.85 144.678C1073.14 145.618 1074.19 146.244 1074.19 147.601C1074.19 148.75 1072.73 150.002 1070.32 150.002C1068.86 150.002 1065.11 149.585 1062.08 149.585C1058.74 149.585 1051.12 150.211 1049.76 150.211C1047.78 150.211 1045.9 149.167 1045.9 147.81C1045.9 146.871 1046.84 145.827 1049.34 144.992C1054.56 143.321 1056.23 141.234 1056.96 136.849C1058.22 129.646 1060.62 105.323 1060.83 99.8951C1061.03 94.258 1059.47 93.5273 1054.25 92.0658C1051.64 91.3351 1050.49 90.5 1050.49 89.6649ZM1182.69 85.0717C1184.57 85.0717 1185.19 88.2034 1187.91 95.1975C1193.54 110.334 1202.1 130.586 1204.92 136.954C1207.53 142.799 1208.99 142.904 1213.07 144.574C1215.47 145.618 1216.3 147.184 1216.3 148.332C1216.3 149.585 1214.63 150.107 1212.65 150.107C1209.41 150.107 1201.27 149.585 1196.15 149.585C1191.67 149.585 1188.85 150.107 1185.09 150.107C1182.17 150.107 1181.23 148.854 1181.23 148.123C1181.23 146.871 1182.48 145.409 1184.46 144.574C1188.12 143.008 1188.12 140.712 1187.59 138.937C1186.66 136.327 1186.55 135.805 1185.19 132.674C1185.09 132.36 1184.15 131.212 1182.48 131.003C1180.71 130.795 1167.66 130.586 1165.26 131.108C1164.63 131.212 1163.79 132.256 1163.59 132.674C1162.75 134.761 1161.91 138.728 1161.91 140.085C1161.91 141.964 1163.27 143.53 1166.61 144.678C1168.07 145.2 1169.64 146.035 1169.64 147.393C1169.64 147.914 1168.18 149.898 1165.46 149.898C1164.21 149.898 1161.91 149.585 1158.57 149.585C1154.71 149.585 1150.43 150.107 1146.05 150.107C1143.75 150.107 1142.19 149.063 1142.19 147.81C1142.19 146.766 1143.02 145.722 1145.32 144.783C1149.18 143.217 1151.27 142.904 1154.61 135.91C1157.22 130.377 1164.63 111.587 1170.89 95.0931C1171 94.78 1171.21 94.0492 1171.21 92.9009C1171.21 92.4834 1171.73 91.7527 1172.15 91.4395C1173.5 90.6044 1178.72 87.1595 1179.87 86.22C1180.5 85.5936 1182.17 85.0717 1182.69 85.0717ZM1180.6 124.009C1181.12 124.009 1181.75 123.07 1181.64 122.756C1180.08 117.641 1175.69 106.472 1174.75 104.801C1174.34 104.071 1173.71 104.384 1173.4 104.801C1171.73 108.246 1167.24 121.086 1166.93 122.652C1166.82 123.278 1167.34 124.114 1168.07 124.114C1169.43 124.114 1179.14 124.114 1180.6 124.009ZM1221.79 89.0385C1221.79 87.3683 1223.77 86.9507 1225.13 86.9507C1225.65 86.9507 1234.74 87.1595 1238.91 87.1595C1243.09 87.1595 1251.23 86.8463 1253.32 86.8463C1255.51 86.8463 1256.76 87.8902 1256.76 89.1429C1256.76 90.3956 1255.41 91.4395 1253.21 91.857C1247.37 93.1097 1247.05 95.4063 1246.95 97.5985C1246.74 99.9995 1246.32 105.845 1246.32 114.823C1246.32 125.784 1246.64 135.805 1246.85 139.354C1246.95 140.92 1249.45 143.113 1253.42 144.052C1254.88 144.365 1258.33 144.47 1262.09 143.739C1265.22 143.113 1270.44 136.954 1272.63 132.987C1273.67 131.003 1274.82 130.273 1275.13 130.273C1277.01 130.273 1278.27 132.465 1277.74 134.344C1277.01 136.954 1275.03 145.2 1274.3 147.288C1273.67 148.854 1271.79 149.898 1269.71 149.898C1266.05 149.898 1254.99 149.585 1242.04 149.585C1234.94 149.585 1224.51 150.107 1222.21 150.107C1219.91 150.107 1218.14 148.958 1218.14 147.497C1218.14 146.035 1219.7 145.305 1221.48 144.992C1228.47 143.634 1229.2 141.129 1229.41 138.728C1229.62 135.596 1229.83 131.212 1229.83 118.79C1229.83 99.8951 1229.93 100.104 1229.73 97.2853C1229.41 93.8405 1228.26 93.3185 1224.82 91.857C1222.63 90.9175 1221.79 90.1868 1221.79 89.0385ZM178.14 172.585C178.14 171.085 180.69 168.985 184.14 168.985C189.09 168.985 198.69 169.885 204.24 169.885C209.64 169.885 216.39 169.735 220.44 169.735C223.89 169.735 226.59 171.535 226.59 173.935C226.59 175.585 223.74 176.935 221.34 177.985C218.49 179.185 218.19 180.835 219.24 184.435C220.74 189.835 235.29 224.035 237.09 226.435C237.69 227.185 238.59 227.635 239.19 226.585C245.34 212.935 252.24 196.135 255.54 186.385C257.19 181.435 256.74 179.785 251.34 177.835C248.49 176.785 246.09 175.285 246.09 173.185C246.09 171.235 248.64 169.735 252.24 169.735C255.54 169.735 259.89 169.885 263.04 169.885C268.74 169.885 273.24 169.135 278.19 169.135C281.64 169.135 284.19 170.785 284.19 172.435C284.19 174.835 282.24 176.185 278.94 177.085C270.84 179.485 268.59 183.685 265.29 189.835C260.79 198.235 248.79 224.485 243.24 239.185C240.09 247.435 237.39 254.635 236.49 256.585C235.74 258.385 230.94 262.735 229.14 262.735C226.29 262.735 224.79 261.235 223.74 258.085C222.99 255.835 219.99 248.185 217.14 240.685C214.14 232.735 199.74 199.435 192.69 184.585C190.89 180.685 189.09 179.335 183.24 176.935C180.54 175.885 178.14 174.385 178.14 172.585ZM323.777 169.885H339.227C352.877 169.885 354.977 169.885 358.427 169.135C360.077 168.835 361.127 169.735 361.577 170.485C362.477 171.985 363.677 183.385 363.677 186.685C363.677 190.585 361.877 191.485 360.977 191.485C358.277 191.485 356.777 189.835 354.977 185.785C352.127 179.635 350.027 178.585 348.827 178.585C340.277 178.585 332.027 179.035 329.927 179.035C329.177 179.035 327.977 180.685 327.977 181.285C327.827 184.135 327.527 194.935 327.527 205.285C327.527 207.685 327.977 209.185 328.727 209.335C330.377 209.785 335.627 209.635 338.327 209.485C345.077 209.035 347.177 206.635 348.827 202.885C349.727 200.635 351.227 198.835 352.877 198.835C354.977 198.835 356.327 200.935 356.027 205.285C355.877 207.085 355.727 210.535 355.727 213.985C355.727 217.435 356.027 220.885 356.177 223.135C356.477 227.185 354.227 228.985 352.727 228.985C351.377 228.985 349.427 227.335 348.077 224.335C346.577 220.885 346.127 219.835 342.977 219.535C336.827 219.085 335.927 218.785 329.177 218.785C328.427 218.785 327.527 220.885 327.527 224.635C327.527 228.685 327.977 237.385 328.127 240.685C328.427 245.035 329.027 246.685 329.477 247.285C330.977 249.535 338.177 251.485 345.377 251.485C347.777 251.485 351.977 251.035 355.427 249.085C358.277 247.585 359.777 245.785 363.077 241.285C365.477 237.985 367.127 234.385 369.527 234.385C372.377 234.385 373.277 238.735 372.677 241.885C371.777 246.235 368.177 256.285 367.577 257.635C367.127 258.685 363.977 260.335 363.077 260.335C361.127 260.335 355.127 259.585 327.827 259.585C318.377 259.585 299.477 260.185 293.027 260.185C289.877 260.185 287.627 258.985 287.627 257.785C287.627 255.985 288.827 253.885 291.977 252.985C302.327 250.135 302.627 246.685 302.927 243.985C303.527 236.785 303.677 233.635 303.677 210.535C303.677 187.435 303.377 186.535 302.927 183.835C302.177 179.335 300.227 177.685 294.227 176.185C290.327 175.285 289.727 173.185 289.727 172.135C289.727 170.185 292.727 169.135 294.677 169.135C297.227 169.135 313.877 169.885 323.777 169.885ZM383.281 171.535C383.281 170.485 384.481 168.985 387.181 168.985C393.181 168.985 405.181 170.185 414.781 170.185C416.131 170.185 418.231 171.235 418.681 171.835C421.231 175.285 425.881 180.235 433.081 188.035C441.031 196.585 464.881 221.785 468.181 223.585C468.631 223.735 469.831 223.435 469.981 222.985C470.881 218.935 470.881 204.535 470.431 194.185C469.981 183.985 470.731 180.085 459.031 177.385C455.431 176.485 454.081 173.935 454.081 173.035C454.081 171.985 455.731 169.735 459.331 169.735C464.731 169.735 464.431 169.885 468.331 169.885C474.481 169.885 485.881 169.135 488.881 169.135C492.031 169.135 494.131 170.035 494.131 172.585C494.131 174.235 492.931 175.285 488.131 177.385C481.981 180.085 481.081 181.735 480.931 183.685C480.631 190.585 479.431 221.485 479.431 231.535C479.431 238.135 480.031 244.735 480.031 251.635C480.031 257.935 478.831 262.585 476.131 262.585C471.331 262.585 467.431 259.885 464.581 256.585C459.031 250.285 451.981 242.035 447.781 237.385C442.081 230.785 418.681 205.885 412.081 198.685C411.631 198.235 410.581 199.135 410.581 199.735C410.431 203.035 410.131 203.485 410.131 209.935C410.131 216.685 410.431 230.185 410.581 234.235C411.031 245.935 412.981 249.535 418.231 251.635C423.331 253.585 424.981 255.235 424.981 257.335C424.981 259.135 423.331 260.185 419.881 260.185C415.681 260.185 410.581 259.585 403.531 259.585C396.481 259.585 392.731 260.185 390.781 260.185C386.281 260.185 384.781 258.535 384.781 257.035C384.781 255.085 386.581 253.735 389.281 252.835C396.181 250.585 398.881 250.135 399.631 240.085C400.381 230.035 401.581 194.185 401.581 189.385C401.581 188.485 400.831 185.335 398.881 183.085C395.731 179.485 393.031 177.685 389.581 176.935C386.131 176.185 383.281 174.385 383.281 171.535ZM534.041 169.885H579.941C588.341 169.885 592.091 168.835 592.691 168.085C594.491 165.835 596.141 164.485 597.191 164.485C598.091 164.485 601.991 166.885 601.991 169.285C601.991 170.335 600.191 179.785 600.191 189.835C600.191 192.835 597.941 196.135 595.091 196.135C592.991 196.135 591.791 192.385 591.491 191.035C589.241 181.135 586.691 180.835 581.291 180.235C579.041 179.935 578.591 179.485 565.841 179.485C565.091 179.485 564.641 180.685 564.491 182.185C564.341 184.285 563.441 204.535 563.441 213.985C563.441 223.135 563.291 233.035 563.741 238.435C564.641 249.385 567.191 249.835 573.341 252.085C576.041 253.135 578.591 254.485 578.591 256.285C578.591 259.585 574.991 260.335 571.991 260.335C570.491 260.335 553.991 259.585 544.991 259.585C540.641 259.585 532.541 260.035 528.491 260.035C525.341 260.035 522.341 258.685 522.341 255.985C522.341 254.785 523.841 252.685 527.291 251.785C536.591 249.235 539.141 247.285 539.141 239.035C539.141 235.885 539.441 215.935 539.441 206.185C539.441 196.885 539.591 186.985 539.591 182.335C539.591 181.135 538.091 179.485 537.641 179.485C533.891 179.485 528.341 179.485 524.441 179.635C520.241 179.785 516.191 179.785 512.141 191.035C511.241 193.585 509.441 195.535 507.791 195.535C505.841 195.535 503.591 192.835 503.591 189.235C503.591 184.585 505.241 177.835 505.241 169.585C505.241 167.035 507.491 164.785 509.291 164.785C509.741 164.785 511.541 165.685 512.591 166.435C515.141 168.535 517.391 169.435 521.741 169.585C527.891 169.885 529.241 169.885 534.041 169.885ZM650.609 167.035C659.009 167.035 666.959 169.735 672.809 171.085C673.709 171.235 674.759 173.635 674.759 175.285C674.759 177.085 675.809 185.335 675.809 187.585C675.809 192.685 673.409 194.785 671.309 194.785C669.659 194.785 668.309 192.235 667.859 191.035C664.559 182.035 656.759 173.935 648.209 173.935C641.909 173.935 636.209 179.785 636.209 185.485C636.209 192.235 641.159 197.185 649.709 201.535C668.609 211.135 679.709 219.535 679.709 233.785C679.709 246.085 671.309 252.985 665.909 256.285C660.059 259.735 650.159 262.285 643.259 262.285C630.509 262.285 623.159 259.585 619.709 258.235C618.659 257.785 616.259 256.435 615.509 254.785C612.959 249.385 612.509 241.585 612.509 237.985C612.509 235.135 614.009 231.535 616.409 231.535C618.059 231.535 620.009 233.335 622.109 237.235C627.659 247.435 635.909 254.785 645.209 254.785C650.609 254.785 657.359 251.035 657.359 244.135C657.359 239.635 657.659 234.685 642.359 226.435C622.709 215.935 615.059 207.835 615.059 193.885C615.059 184.135 621.959 176.185 629.159 172.135C634.859 168.985 642.059 167.035 650.609 167.035Z" fill="white"/>
</svg>
